<?xml version="1.0" encoding="utf-8"?>
<!-- Generator: Adobe Illustrator 27.5.0, SVG Export Plug-In . SVG Version: 6.00 Build 0)  -->
<svg version="1.1" xmlns="http://www.w3.org/2000/svg" xmlns:xlink="http://www.w3.org/1999/xlink" x="0px" y="0px"
	 viewBox="0 0 500 500" style="enable-background:new 0 0 500 500;" xml:space="preserve">
<g id="BACKGROUND">
	<rect y="350.5" style="fill:#FFFFFF;" width="500" height="149.5"/>
	<rect style="fill:#F9F9F9;" width="500" height="377.436"/>
	<rect y="377.867" style="fill:#D8CABC;" width="500" height="122.133"/>
	<g>
		<g>
			<line style="fill:none;stroke:#94A6C2;stroke-width:3;stroke-miterlimit:10;" x1="324.19" y1="0" x2="324.19" y2="73.11"/>
			<path style="fill:#94A6C2;" d="M331.449,74h-14.517v-9.668c0-4.009,3.25-7.259,7.259-7.259l0,0c4.009,0,7.259,3.25,7.259,7.259
				V74z"/>
		</g>
		<g>
			<line style="fill:none;stroke:#94A6C2;stroke-width:3;stroke-miterlimit:10;" x1="175.395" y1="0" x2="175.395" y2="73.11"/>
			<path style="fill:#94A6C2;" d="M182.653,74h-14.517v-9.668c0-4.009,3.25-7.259,7.259-7.259l0,0c4.009,0,7.259,3.25,7.259,7.259
				V74z"/>
		</g>
		<g>
			<line style="fill:none;stroke:#94A6C2;stroke-width:3;stroke-miterlimit:10;" x1="249.792" y1="0" x2="249.792" y2="79.496"/>
			<path style="fill:#94A6C2;" d="M262.453,81.047h-25.322V64.183c0-6.992,5.669-12.661,12.661-12.661l0,0
				c6.993,0,12.661,5.668,12.661,12.661V81.047z"/>
			<path style="fill:#94A6C2;" d="M286.399,99.5h-73.213V88.422c0-4.697,3.807-8.504,8.504-8.504h56.206
				c4.697,0,8.504,3.807,8.504,8.504V99.5z"/>
		</g>
	</g>
</g>
<g id="OBJECTS">
	<g>
		<g>
			<polygon style="fill:#6C3834;" points="352.282,306.52 358.536,306.52 367.536,227.77 361.282,227.77 			"/>
			<polygon style="fill:#6C3834;" points="317.786,306.52 311.532,306.52 302.532,227.77 308.786,227.77 			"/>
			<path style="fill:#A0C57E;" d="M364.769,309.017v-4.994c0-1.105-0.895-2-2-2h-54.833c-1.105,0-2,0.895-2,2v4.994
				c0,1.104,0.895,2,2,2h54.833C363.873,311.017,364.769,310.121,364.769,309.017z"/>
			
				<rect x="305.935" y="306.52" transform="matrix(-1 -1.224647e-16 1.224647e-16 -1 670.7039 621.1226)" style="fill:#A35F4F;" width="58.833" height="8.083"/>
			<polygon style="fill:#A35F4F;" points="314.619,314.603 303.285,377.436 308.952,377.436 321.286,314.603 			"/>
			<polygon style="fill:#6C3834;" points="306.619,314.603 295.284,377.436 300.951,377.436 313.285,314.603 			"/>
			<polygon style="fill:#6C3834;" points="356.161,314.603 367.495,377.436 361.828,377.436 349.494,314.603 			"/>
			<polygon style="fill:#A35F4F;" points="364.161,314.603 375.496,377.436 369.829,377.436 357.495,314.603 			"/>
			<path style="fill:#A0C57E;" d="M304.685,245.77h60.697c2.209,0,4-1.791,4-4v-12.833c0-2.209-1.791-4-4-4h-60.697
				c-2.209,0-4,1.791-4,4v12.833C300.685,243.979,302.476,245.77,304.685,245.77z"/>
		</g>
		<path style="fill:#415266;" d="M318.099,225.636c-1.763,1.011-3.526,2.022-5.29,3.033c1.992,2.971,4.746,5.426,7.926,7.065
			c0.654,0.337,1.342,0.645,2.074,0.716c0.329-2.942,1.46-5.759,2.93-8.309c0.718-1.245,1.512-2.504,2.439-3.606
			c0.857-1.019,1.368-1.422,1.199-2.925c-0.034-0.303-0.102-0.615-0.286-0.858c-0.3-0.394-0.853-0.522-1.342-0.443
			c-0.489,0.079-0.93,0.33-1.36,0.576C323.626,222.467,320.863,224.051,318.099,225.636z"/>
		<path style="fill:#415266;" d="M348.195,234.527c0.59,1.945,1.181,3.89,1.771,5.834c3.342-1.276,6.352-3.411,8.66-6.143
			c0.475-0.562,0.929-1.163,1.162-1.861c-2.793-0.98-5.286-2.712-7.442-4.716c-1.053-0.978-2.102-2.034-2.969-3.184
			c-0.801-1.064-1.079-1.652-2.583-1.824c-0.303-0.035-0.622-0.038-0.9,0.087c-0.451,0.204-0.7,0.715-0.733,1.209
			c-0.033,0.494,0.113,0.98,0.257,1.454C346.345,228.432,347.27,231.48,348.195,234.527z"/>
		<path style="fill:#6284A8;" d="M320.337,301.686c-3.558-2.419-3.927-7.535-3.302-11.814c0.351-2.402,1.321-4.781,3.039-6.191
			c2.025-1.661,4.691-1.722,7.172-1.646c7.371,0.227,14.715,1.104,22.05,1.98c0.847,0.101,1.773,0.246,2.351,0.97
			c0.462,0.579,0.594,1.404,0.707,2.181c0.342,2.354,0.686,4.737,0.514,7.116c-0.172,2.379-0.917,4.79-2.445,6.395
			c-2.994,3.146-6.388,3.115-10.195,3.198c-4.407,0.096-8.821,0.056-13.219-0.32C324.706,303.359,322.328,303.04,320.337,301.686z"
			/>
		<path style="fill:#F9C867;" d="M306.074,249.107c-0.74,0.658-1.487,1.354-1.9,2.254c-0.413,0.9-0.415,2.06,0.253,2.791
			c0.332,0.364,0.792,0.586,1.256,0.751c3.049,1.085,6.428,0.011,9.355-1.368c5.837-2.75,11.081-6.75,15.275-11.652
			c1.567-1.832,5.264-8.293,0.017-8.409c-0.777-0.017-1.526,0.272-2.244,0.571C319.826,237.491,312.706,243.208,306.074,249.107z"/>
		<path style="fill:#F9C867;" d="M365.306,249.107c0.74,0.658,1.487,1.354,1.9,2.254c0.413,0.9,0.415,2.06-0.253,2.791
			c-0.332,0.364-0.792,0.586-1.256,0.751c-3.049,1.085-6.427,0.011-9.355-1.368c-5.837-2.75-11.08-6.75-15.275-11.652
			c-1.567-1.832-5.264-8.293-0.017-8.409c0.777-0.017,1.526,0.272,2.243,0.571C351.554,237.491,358.673,243.208,365.306,249.107z"/>
		<path style="fill:#F9C867;" d="M319.059,262.166c1.266-6.994,1.84-14.794,4.786-21.146c2.033-4.382,5.444-8.11,9.595-9.051
			c2.788-0.632,6.65-0.95,9.07,1.044c2.273,1.872,3.768,4.934,4.865,7.778c1.52,3.941,2.533,8.139,3.187,12.395
			c1.461,9.514,1.814,18.959,2.03,28.601c0.043,1.904-0.004,4.069-1.203,5.34c-0.78,0.827-1.874,1.067-2.91,1.243
			c-8.231,1.401-16.599,0.875-24.902,0.346c-1.758-0.112-3.921-0.315-5.214-1.92c-1.565-1.942-1.091-4.773-1.02-7.224
			C317.513,273.728,318.023,267.889,319.059,262.166z"/>
		<path style="fill:#EDA585;" d="M341.155,233.589c-0.008,0.309-0.02,0.634-0.179,0.9c-0.206,0.343-0.609,0.508-0.991,0.628
			c-2.28,0.717-4.812,0.598-7.015-0.328c-0.152-0.064-0.309-0.137-0.405-0.27c-0.115-0.159-0.12-0.369-0.121-0.565
			c-0.008-1.934-0.016-3.867-0.024-5.801c-0.001-0.293-0.001-0.595,0.113-0.864c0.277-0.655,1.086-0.872,1.792-0.955
			c1.64-0.193,4.971-0.46,6.336,0.769C342.033,228.339,341.196,231.936,341.155,233.589z"/>
		<path style="opacity:0.5;fill:#EDA585;" d="M332.436,231.992c-0.005-1.279-0.01-2.559-0.016-3.838
			c-0.001-0.293-0.001-0.595,0.113-0.864c0.277-0.655,1.086-0.872,1.792-0.955c1.64-0.193,4.971-0.46,6.336,0.769
			c0.949,0.856,0.839,2.836,0.668,4.526c-0.763,0.244-1.548,0.436-2.354,0.566C336.848,232.539,334.591,232.467,332.436,231.992z"/>
		<path style="fill:#EDA585;" d="M353.444,217.476c-2.542,6.005-7.809,11.146-14.468,12.22c-6.515,1.051-14.247-1.714-16.471-8.404
			c-2.302-6.923-1.527-18.176,3.909-23.596c1.134-1.131,2.543-1.949,3.992-2.634c1.3-0.614,2.651-1.132,4.051-1.46
			c4.543-1.065,9.506-0.004,13.312,2.695c5.228,3.709,8.38,10.201,7.109,16.595C354.58,214.387,354.091,215.946,353.444,217.476z"/>
		<path style="fill:#3D867D;" d="M339.981,350.063c-0.421-0.781-0.736-1.624-0.933-2.409c-1.085-4.306-0.21-14.648,6.286-14.243
			c2.667,0.167,3.751,3.811,3.94,6.018c0.293,3.428,0.566,7.34-1.079,10.485c-0.537,1.026-1.298,1.961-2.3,2.542
			C343.23,354.001,341.177,352.282,339.981,350.063z"/>
		<path style="fill:#6DBFDA;" d="M351.099,296.836c0.018,0.576,0.021,1.134,0.017,1.662c-0.039,6.681-0.157,13.361-0.219,20.043
			c-0.035,3.721-0.07,7.442-0.105,11.163c-0.028,2.974-0.622,5.668-0.97,8.609c-3.134-0.002-6.267-0.004-9.401-0.006
			c-0.33,0-0.679-0.005-0.96-0.166c-0.454-0.26-0.565-0.817-0.631-1.308c-1.656-12.228-3.04-24.494-3.599-36.826
			c-0.145-3.197-0.537-6.833,1.307-9.657c1.955-2.995,6.771-4.02,9.996-2.845C350.263,288.862,350.986,293.189,351.099,296.836z"/>
		<path style="fill:#3D867D;" d="M329.923,350.063c0.421-0.781,0.736-1.624,0.933-2.409c1.085-4.306,0.21-14.648-6.286-14.243
			c-2.667,0.167-3.751,3.811-3.94,6.018c-0.293,3.428-0.566,7.34,1.079,10.485c0.537,1.026,1.298,1.961,2.3,2.542
			C326.673,354.001,328.727,352.282,329.923,350.063z"/>
		<path style="fill:#6DBFDA;" d="M318.804,296.836c-0.018,0.576-0.021,1.134-0.017,1.662c0.039,6.681,0.157,13.361,0.219,20.043
			c0.035,3.721,0.07,7.442,0.104,11.163c0.028,2.974,0.622,5.668,0.97,8.609c3.134-0.002,6.267-0.004,9.401-0.006
			c0.33,0,0.679-0.005,0.96-0.166c0.454-0.26,0.565-0.817,0.631-1.308c1.656-12.228,3.04-24.494,3.599-36.826
			c0.145-3.197,0.537-6.833-1.307-9.657c-1.955-2.995-6.771-4.02-9.996-2.845C319.641,288.862,318.918,293.189,318.804,296.836z"/>
		<path style="fill:#415266;" d="M341.367,205.329c2.934,1.369,5.913,2.669,7.642,4.778c1.385,1.69,1.466,4.067,0.977,6.102
			c-0.256,1.064-0.661,2.104-0.99,3.146c-0.14,0.443-0.689,3.856-0.862,3.943c3.637-1.833,6.893-2.965,9.63-6.204
			c2.321-2.747,3.87-6.157,4.306-9.733c0.537-4.405-0.63-7.814-3.75-10.834c-3.159-3.058-6.993-5.441-11.192-6.77
			c-5.718-1.808-12.101-1.605-17.578,0.836c-3.465,1.545-5.785,3.551-7.005,7.184c-0.917,2.731-0.911,5.798-0.692,8.642
			c1.171-1.932,2.202-3.113,3.97-4.607c1.155-0.976,2.317-1.943,3.486-2.902c0.424-0.348,3.572-2.439,3.529-2.85
			C332.839,201.156,337.054,203.317,341.367,205.329z"/>
		<g style="opacity:0.5;">
			<path style="fill:#EDA585;" d="M334.158,217.289c-0.439-0.386-0.709-0.907-1.021-1.253c-0.306-0.337-0.675-0.585-1.086-0.725
				c-0.807-0.295-1.741-0.163-2.673,0.497c0.119-0.571,0.562-1.074,1.126-1.344c0.564-0.287,1.276-0.31,1.884-0.094
				c0.603,0.226,1.136,0.669,1.405,1.249C334.062,216.19,334.088,216.723,334.158,217.289z"/>
		</g>
		<path style="fill:#EDA585;" d="M349.198,227.357c-1.732-0.153-3.202-1.226-2.755-3.41c0.21-1.025,0.822-1.923,1.513-2.708
			c0.845-0.96,1.855-1.813,3.056-2.252c1.201-0.439,2.616-0.414,3.69,0.278c0.906,0.583,1.075,1.492,0.96,2.523
			c-0.265,2.386-2.031,4.55-4.362,5.321C350.629,227.331,349.892,227.418,349.198,227.357z"/>
		<path style="fill:#392C3F;" d="M329.303,211.361c-0.202,1.459-1.022,2.552-1.83,2.44c-0.808-0.112-1.299-1.386-1.097-2.846
			c0.202-1.459,1.022-2.552,1.83-2.44C329.015,208.627,329.506,209.901,329.303,211.361z"/>
		<g>
			<g>
				<path style="fill:#392C3F;" d="M328.276,208.523c-0.825-0.147-1.65-0.294-2.476-0.441c-0.944-0.168-1.349,1.277-0.399,1.446
					c0.825,0.147,1.65,0.294,2.476,0.441C328.821,210.138,329.226,208.693,328.276,208.523L328.276,208.523z"/>
			</g>
		</g>
		<path style="fill:#392C3F;" d="M339.227,213.631c-0.42,1.412-0.127,2.746,0.655,2.979c0.782,0.233,1.757-0.723,2.177-2.135
			c0.42-1.412,0.127-2.746-0.654-2.978S339.647,212.219,339.227,213.631z"/>
		<g>
			<g>
				<path style="fill:#392C3F;" d="M341.02,212.938c0.812,0.208,1.624,0.416,2.436,0.624c0.936,0.24,1.335-1.207,0.399-1.446
					c-0.812-0.208-1.624-0.416-2.436-0.624C340.483,211.252,340.084,212.699,341.02,212.938L341.02,212.938z"/>
			</g>
		</g>
		<path style="fill:#FFFFFF;" d="M334.235,221.743c-1.394,0.265-2.86,0.285-4.207-0.16c-0.757-0.25-1.607-0.676-2.143-1.285
			c-0.533-0.605-0.563-1.375-1.004-2.061c0.962,0.511,2.043,0.745,3.108,0.973c2.237,0.479,4.49,0.96,6.776,1.017
			C336.234,221.098,335.198,221.56,334.235,221.743z"/>
		<g>
			<g>
				<path style="fill:#415266;" d="M325.725,206.603c1.197-1.353,3.029-1.266,4.595-0.71c0.911,0.323,1.304-1.125,0.399-1.446
					c-2.046-0.726-4.523-0.635-6.054,1.096C324.027,206.263,325.084,207.328,325.725,206.603L325.725,206.603z"/>
			</g>
		</g>
		<g>
			<g>
				<path style="fill:#415266;" d="M342.325,209.811c1.774,0.06,3.523,1.176,3.581,3.087c0.029,0.963,1.529,0.967,1.5,0
					c-0.083-2.751-2.468-4.498-5.081-4.587C341.359,208.278,341.361,209.778,342.325,209.811L342.325,209.811z"/>
			</g>
		</g>
		<path style="fill:#EDA585;" d="M296.3,223.767c0.509,1.33,1.717,1.706,2.753,2.494c0.924,0.703,1.557,1.734,1.844,2.85
			c0.264,1.024,0.309,2.089,0.477,3.133c1.237-0.096,2.473-0.192,3.71-0.288c0.086-0.007,0.178-0.016,0.245-0.069
			c0.081-0.064,0.105-0.175,0.122-0.277c0.166-1.037,0.02-2.097,0.079-3.146c0.093-1.669,1.282-2.704,1.624-4.285
			c0.43-1.993-0.849-3.927-2.166-5.484c-0.899-1.062-2.063-2.172-3.448-2.042c-0.943,0.088-1.725,0.74-2.439,1.363
			c-0.86,0.748-1.733,1.513-2.328,2.485C296.176,221.472,295.892,222.702,296.3,223.767z"/>
		<line style="fill:none;stroke:#B2AFA8;stroke-miterlimit:10;" x1="308.077" y1="212.797" x2="296.355" y2="229.04"/>
		<path style="fill:none;stroke:#B2AFA8;stroke-miterlimit:10;" d="M309.796,214.186c-0.83,1.472-1.966,3.197-3.796,3.406
			c-0.264,0.03-0.54,0.028-0.787-0.072c-0.4-0.162-0.661-0.557-0.803-0.964c-0.304-0.872-0.158-1.85,0.205-2.699
			s0.928-1.593,1.487-2.328"/>
		<path style="fill:#EDA585;" d="M304.223,220.21c-0.056,0.441-0.219,0.86-0.402,1.264c-0.357,0.788-0.792,1.541-1.296,2.244
			c-0.665,0.926-1.613,1.835-2.751,1.777c-0.684-0.035-1.294-0.419-1.869-0.79c-0.548-0.354-1.136-0.761-1.311-1.389
			c-0.126-0.453-0.008-0.938,0.15-1.381c0.304-0.852,0.754-1.644,1.251-2.4c0.528-0.803,1.123-1.583,1.901-2.147
			c0.835-0.605,2.092-1.15,2.903-0.331C303.64,217.908,304.383,218.943,304.223,220.21z"/>
		<path style="fill:#F9C867;" d="M307.018,232.928c-0.013-0.042-0.027-0.085-0.04-0.127c-0.29-0.918-0.6-1.846-1.154-2.634
			c-0.553-0.788-1.391-1.428-2.349-1.521c-0.392-0.038-0.801,0.02-1.143,0.216c-0.575,0.33-0.873,0.983-1.099,1.607
			c-1.839,5.079-1.259,11.169-0.259,16.364c0.453,2.353,1.056,4.801,2.667,6.575c1.166,1.284,3.74,2.635,5.377,1.412
			c1.466-1.096,1.148-3.651,1.022-5.208C309.58,243.917,308.729,238.385,307.018,232.928z"/>
	</g>
	<path style="fill:#FFFFFF;" d="M238.747,254.232h38.53c4.709,0,8.526-3.817,8.526-8.526l0,0h-55.582l0,0
		C230.221,250.414,234.038,254.232,238.747,254.232z"/>
	<path style="fill:#FFFFFF;" d="M317.114,254.232h38.53c4.709,0,8.526-3.817,8.526-8.526l0,0h-55.582l0,0
		C308.589,250.414,312.406,254.232,317.114,254.232z"/>
	<g>
		<path style="fill:#A0C57E;" d="M450.499,309.017v-4.994c0-1.105-0.895-2-2-2h-60.386c-1.105,0-2,0.895-2,2v4.994
			c0,1.104,0.895,2,2,2h60.386C449.603,311.017,450.499,310.121,450.499,309.017z"/>
		
			<rect x="386.112" y="306.52" transform="matrix(-1 -1.224647e-16 1.224647e-16 -1 844.0583 621.1226)" style="fill:#A35F4F;" width="71.833" height="8.083"/>
		<path style="fill:#A0C57E;" d="M460.618,244.51h4.994c1.105,0,2-0.895,2-2v-15.574c0-1.105-0.895-2-2-2h-4.994
			c-1.105,0-2,0.895-2,2v15.574C458.618,243.615,459.514,244.51,460.618,244.51z"/>
		<path style="fill:#A35F4F;" d="M468.946,224.936c0.167,12-1.333,52.836-11,81.583c-4.788,2.917-9.667,0-9.667,0
			s16.167-57.75,15.667-81.583C466.446,224.936,468.946,224.936,468.946,224.936z"/>
		<path style="fill:#D49377;" d="M338.255,369.838c0.168-2.305,0.611-4.589,1.314-6.772c0.057-0.176,0.123-0.364,0.265-0.466
			c0.129-0.094,0.293-0.097,0.447-0.096c2.804,0.015,5.605,0.279,8.368,0.788c0.444,0.082,0.904,0.178,1.265,0.473
			c1.335,1.094,0.113,5.343-0.065,6.852c-0.056,0.475-0.122,0.977-0.397,1.349c-0.799,1.083-2.86,0.504-3.935,0.506
			c-1.807,0.002-3.613-0.06-5.416-0.185c-0.38-0.026-0.774-0.06-1.103-0.269C338.453,371.671,338.208,370.483,338.255,369.838z"/>
		<path style="fill:#2A3338;" d="M358.571,284.037c-4.265,0.507-8.578,1.525-10.964,5.59c-3.274,5.579,1.057,10.991,5.487,13.842
			c5.06,3.256,10.367,3.426,16.09,3.477c13.691,0.121,27.373-0.428,41.017-1.67c7.297-0.664,17.25-1.055,22.998-6.573
			c4.731-4.542,3.92-12.233-0.751-16.47c-5.431-4.927-12.993-4.418-19.595-4.027c-10.108,0.599-20.289,1.609-30.321,3.081
			c-6.41,0.94-12.862,1.476-19.288,2.26C361.763,283.728,360.17,283.847,358.571,284.037z"/>
		<path style="fill:#2A3338;" d="M336.502,361.419c-0.043,0.256-0.484,3.022-0.383,3.04c5.977,1.086,11.941,2.243,17.891,3.47
			c0.514,0.106,2.382-7.891,2.539-8.502c3.305-12.856,5.795-26.309,6.92-39.542c0.005-0.063,0.011-0.125,0.016-0.188
			c0.114-1.364,0.219-2.728,0.323-4.092c0.28-3.683,0.51-7.369,0.685-11.059c0.158-3.332,0.812-7.169-0.348-10.385
			c-1.554-4.308-5.871-7.616-10.449-7.496c-7.022,0.184-8.877,7.105-10.222,12.755C340.38,312.416,337.793,354.529,336.502,361.419z
			"/>
		<path style="fill:#4E3E54;" d="M342.823,369.577c1.632,0,3.263-0.057,4.894-0.054c1.151,0.002,3.07-0.446,3.712,0.91
			c0.648,1.368,0.617,2.947,0.572,4.46c-0.013,0.434-0.028,0.88-0.195,1.28c-0.598,1.432-2.148,1.527-3.466,1.74
			c-1.927,0.312-3.877,0.461-5.826,0.533c-7.055,0.26-14.09,0.6-21.15,0.743c-0.56,0.011-1.17,0.007-1.61-0.34
			c-1.799-1.42,4.389-3.711,5.283-4.053c1.886-0.722,3.823-1.298,5.745-1.917c1.552-0.5,3.185-0.915,3.923-2.538
			c0.309-0.679,0.474-1.423,0.855-2.064c0.67-1.125,2.019-1.807,3.322-1.678s2.493,1.06,2.931,2.294
			c0.059,0.165,0.109,0.342,0.231,0.468C342.236,369.561,342.545,369.576,342.823,369.577z"/>
		<path style="fill:#EDA585;" d="M352.38,369.838c0.168-2.305,0.611-4.589,1.314-6.772c0.057-0.176,0.123-0.364,0.265-0.466
			c0.129-0.094,0.293-0.097,0.447-0.096c2.804,0.015,5.605,0.279,8.368,0.788c0.444,0.082,0.904,0.178,1.265,0.473
			c1.335,1.094,0.113,5.343-0.065,6.852c-0.056,0.475-0.122,0.977-0.397,1.349c-0.799,1.083-2.86,0.504-3.935,0.506
			c-1.807,0.002-3.613-0.06-5.416-0.185c-0.38-0.026-0.774-0.06-1.103-0.269C352.578,371.671,352.333,370.483,352.38,369.838z"/>
		<path style="fill:#414E54;" d="M372.696,284.037c-4.265,0.507-8.578,1.525-10.964,5.59c-3.274,5.579,1.057,10.991,5.487,13.842
			c5.06,3.256,10.367,3.426,16.09,3.477c13.691,0.121,27.373-0.428,41.017-1.67c7.297-0.664,17.25-1.055,22.998-6.573
			c4.731-4.542,3.92-12.233-0.751-16.47c-5.431-4.927-12.993-4.418-19.595-4.027c-10.108,0.599-20.289,1.609-30.321,3.081
			c-6.41,0.94-12.862,1.476-19.288,2.26C375.888,283.728,374.295,283.847,372.696,284.037z"/>
		<path style="fill:#414E54;" d="M350.627,361.419c-0.043,0.256-0.484,3.022-0.383,3.04c5.977,1.086,11.941,2.243,17.891,3.47
			c0.514,0.106,2.382-7.891,2.539-8.502c3.305-12.856,5.795-26.309,6.92-39.542c0.005-0.063,0.011-0.125,0.016-0.188
			c0.114-1.364,0.219-2.728,0.323-4.092c0.28-3.683,0.51-7.369,0.685-11.059c0.158-3.332,0.812-7.169-0.348-10.385
			c-1.554-4.308-5.871-7.616-10.449-7.496c-7.022,0.184-8.877,7.105-10.222,12.755C354.505,312.416,351.918,354.529,350.627,361.419
			z"/>
		<path style="fill:#59DBD1;" d="M454.761,258.285c0.199,9.041,0.396,18.12-0.703,27.115c-0.305,2.5-0.929,4.809-1.947,7.127
			c-1.192,2.714-3.044,2.836-5.546,1.767c-8.026-3.431-16.947-4.632-25.139-7.781c-3.751-1.442-8.176-3.183-10.393-6.744
			c-2.04-3.276-1.979-7.327-2.209-11.045c-0.02-0.318-0.04-0.636-0.063-0.953c-0.403-5.49-0.186-10.997-0.158-16.495
			c0.029-5.539-0.31-11.004-0.087-16.538c0.44-10.94,1.452-21.904,4.881-32.321c1.216-3.686,3.865-14.702,9.197-14.125
			c5.87,0.635,9.87,7.384,13.06,11.733c5.905,8.05,10.904,17.089,14.202,26.65c3.159,9.157,4.644,19.062,4.842,28.735
			C454.719,256.367,454.74,257.326,454.761,258.285z"/>
		<path style="fill:#65516D;" d="M356.948,369.577c1.632,0,3.263-0.057,4.894-0.054c1.151,0.002,3.07-0.446,3.712,0.91
			c0.648,1.368,0.617,2.947,0.572,4.46c-0.013,0.434-0.028,0.88-0.195,1.28c-0.598,1.432-2.148,1.527-3.466,1.74
			c-1.927,0.312-3.877,0.461-5.826,0.533c-7.055,0.26-14.09,0.6-21.15,0.743c-0.56,0.011-1.17,0.007-1.61-0.34
			c-1.799-1.42,4.389-3.711,5.283-4.053c1.886-0.722,3.823-1.298,5.745-1.917c1.552-0.5,3.185-0.915,3.923-2.538
			c0.309-0.679,0.474-1.423,0.855-2.064c0.67-1.125,2.019-1.807,3.322-1.678s2.493,1.06,2.931,2.294
			c0.059,0.165,0.109,0.342,0.231,0.468C356.361,369.561,356.67,369.576,356.948,369.577z"/>
		<path style="fill:#EDA585;" d="M428.667,190.333c0.184,0.975,0.965,1.83,0.419,2.828c-0.303,0.556-0.827,0.951-1.339,1.323
			c-3.598,2.611-7.865,5.018-12.25,4.281c-0.878-4.469-1.755-8.938-2.633-13.408c-0.284-1.446,0.868-1.906,1.883-2.648
			c3.252-2.375,7.341-2.475,11.032-1.759C426.505,183.36,428.022,186.915,428.667,190.333z"/>
		<path style="opacity:0.5;fill:#EDA585;" d="M412.864,185.358c-0.284-1.446,0.868-1.906,1.883-2.648
			c3.252-2.375,7.341-2.475,11.032-1.759c0.385,1.278,0.992,2.883,1.574,4.616c-0.563,0.908-1.216,1.798-1.993,2.664
			c-2.805,3.132-6.606,5.34-10.695,6.305C414.066,191.477,413.465,188.418,412.864,185.358z"/>
		<path style="fill:#EDA585;" d="M428.076,149.406c1.671,3.809,1.794,8.09,1.891,12.249c0.189,8.076,0.823,15.757-4.981,22.236
			c-3.757,4.193-9.296,6.734-14.925,6.845c-1.387,0.027-2.788-0.088-4.114-0.494c-3.339-1.021-5.76-3.738-7.495-6.651
			c-0.839-1.41-1.18-3.041-2.548-3.642c-1.228-0.538-2.532-0.51-3.771-0.933c-0.21-0.072-0.426-0.165-0.559-0.343
			c-0.188-0.251-0.162-0.596-0.118-0.907c0.298-2.13,1.023-4.173,1.536-6.262c0.841-3.423,0.551-7.194-0.017-10.651
			c-0.552-3.359-1.398-6.904-0.214-10.23c0.615-1.726,1.738-3.23,3.005-4.553C404.813,136.626,422.301,136.238,428.076,149.406z"/>
		<path style="fill:#1F3749;" d="M417.655,135.821c-3.815-0.277-7.739,0.594-11.302,1.834c-5.31,1.849-12.206,2.858-17.918,2.617
			c-1.631-0.069-3.834-0.29-5.206,0.809c-2.847,2.281-0.644,8.096,1.072,10.437c2.322,3.168,6.159,4.665,9.947,5.128
			c3.308,0.405,6.672,0.154,9.979-0.143c2.34-0.21,4.75-0.271,7.051-0.697c1.671-0.309,3.189-0.741,3.996,1.191
			c1.426,3.412,0.87,7.201,1.522,10.765c0.309,1.687,0.757,3.413,2.182,4.447c1.341,0.974,2.943,1.584,4.495,2.134
			c1.568,0.556,1.952,0.821,1.921,2.652c-0.015,0.876-0.03,1.751-0.045,2.626c-0.016,0.917,0.014,1.95,0.681,2.581
			c0.695,0.657,1.862,0.578,2.653,0.04c0.79-0.538,1.269-1.425,1.616-2.316c2.521-6.481,5.248-12.772,4.835-19.92
			c-0.307-5.305-1.537-10.917-4.245-15.54C428.044,139.615,423.34,136.235,417.655,135.821z"/>
		<path style="fill:#EDA585;" d="M420.737,164.054c1.595-1.999,4.126-3.038,6.182-0.662c2.277,2.632,1.973,6.537,0.474,9.469
			c-1.372,2.684-4.825,5.67-7.191,2.173c-0.675-0.998-0.949-2.213-1.098-3.408c-0.229-1.839-0.186-3.748,0.454-5.486
			C419.831,165.4,420.238,164.68,420.737,164.054z"/>
		<path style="fill:#8589AF;" d="M377.918,191.257c-0.241-0.067-13.167-3.662-13.167-3.662l-2.13,17.918l8.912,2.479
			L377.918,191.257z"/>
		<path style="fill:#EDA585;" d="M363.379,196.72c-0.308-0.135-0.64-0.275-0.97-0.212c-1.225,0.234-2.157,3.273-2.44,4.306
			c-0.223,0.813-0.356,1.666-0.229,2.499c0.211,1.378,1.127,2.575,2.257,3.392c1.13,0.817,2.464,1.3,3.799,1.705
			c1.91,0.58,3.862,1.02,5.835,1.321c1.078,0.164,1.666,0.278,2.612,0.824c0.818,0.473,1.66,0.911,2.56,1.209
			c1.333,0.442,2.821,0.562,4.128,0.048c0.901-0.355,1.668-0.989,2.33-1.696c1.544-1.65-0.946-4.22-2.13-5.427
			c-1.993-2.03-3.981-4.064-6.035-6.03c-0.285,0.721-0.656,1.807-0.759,1.989c-0.786-0.285-1.549-0.564-2.369-0.805
			C369.028,198.981,366.212,197.868,363.379,196.72z"/>
		<path style="fill:#4AC6BA;" d="M413.083,210.859c-5.779,8.209-10.492,17.039-15.112,25.932c-2.293,4.413-5.474,10.88-2.461,15.768
			c1.23,1.995,3.437,3.165,5.71,3.512c6.07,0.926,10.786-5.676,14.192-9.698c4.26-5.031,7.722-10.485,10.965-16.204
			c3.273-5.772,7.051-11.309,8.415-17.926c0.623-3.024,0.371-5.836-2.249-7.791c-2.568-1.916-6.344-2.416-9.395-1.559
			C418.728,204.133,415.64,207.226,413.083,210.859z"/>
		<path style="fill:#4AC6BA;" d="M405.448,235.705c-2.091-3.401-4.381-6.69-6.611-9.974c-4.875-7.178-10.202-14.047-15.624-20.784
			c-0.289-0.359-0.603-0.736-1.04-0.883c-0.583-0.196-1.211,0.067-1.763,0.337c-2.934,1.439-5.684,3.25-8.165,5.376
			c-0.166,0.142-0.336,0.293-0.424,0.492c-0.158,0.355-0.022,0.766,0.12,1.128c0.83,2.121,1.656,4.259,2.584,6.327
			c5.395,12.027,13.082,23.186,20.384,34.166c4.233,6.366,17.414,4.356,16.093-4.628c-0.141-0.963-0.508-1.877-0.894-2.771
			C408.791,241.446,407.189,238.537,405.448,235.705z"/>
		<path style="fill:#392C3F;" d="M399.05,166.751c-0.062,1.594,0.604,2.914,1.487,2.949c0.883,0.034,1.648-1.231,1.71-2.825
			c0.062-1.594-0.604-2.914-1.487-2.949C399.877,163.892,399.112,165.157,399.05,166.751z"/>
		<g>
			<path style="fill:#E56F55;" d="M398.925,183.517c1.922-0.597,3.779-1.136,5.365-2.145c0.792-0.486,1.504-1.101,2.12-1.807
				c0.61-0.714,1.109-1.53,1.459-2.478c0.066,1.015-0.271,2.058-0.829,2.939c-0.554,0.892-1.336,1.63-2.221,2.194
				C403.028,183.319,400.923,183.706,398.925,183.517z"/>
		</g>
		<polygon style="fill:#A35F4F;" points="394.716,314.603 383.382,377.436 389.049,377.436 401.383,314.603 		"/>
		<polygon style="fill:#6C3834;" points="386.716,314.603 375.381,377.436 381.048,377.436 393.382,314.603 		"/>
		<polygon style="fill:#6C3834;" points="449.622,314.603 460.957,377.436 455.29,377.436 442.956,314.603 		"/>
		<polygon style="fill:#A35F4F;" points="457.623,314.603 468.958,377.436 463.29,377.436 450.956,314.603 		"/>
		<g>
			<g>
				<path style="fill:#1F3749;" d="M398.655,161.325c1.821-0.81,4.258-0.201,5.507,1.253c0.63,0.734,1.687-0.331,1.061-1.061
					c-1.74-2.027-4.892-2.57-7.325-1.488C397.017,160.421,397.78,161.714,398.655,161.325L398.655,161.325z"/>
			</g>
		</g>
	</g>
	<g>
		<g>
			<polygon style="fill:#6C3834;" points="182.929,306.52 189.182,306.52 198.182,227.77 191.929,227.77 			"/>
			<polygon style="fill:#6C3834;" points="148.432,306.52 142.179,306.52 133.179,227.77 139.432,227.77 			"/>
			<path style="fill:#A0C57E;" d="M195.415,309.017v-4.994c0-1.105-0.895-2-2-2h-54.833c-1.105,0-2,0.895-2,2v4.994
				c0,1.104,0.895,2,2,2h54.833C194.52,311.017,195.415,310.121,195.415,309.017z"/>
			
				<rect x="136.582" y="306.52" transform="matrix(-1 -1.224647e-16 1.224647e-16 -1 331.9971 621.1226)" style="fill:#A35F4F;" width="58.833" height="8.083"/>
			<polygon style="fill:#A35F4F;" points="145.266,314.603 133.931,377.436 139.599,377.436 151.932,314.603 			"/>
			<polygon style="fill:#6C3834;" points="137.265,314.603 125.931,377.436 131.598,377.436 143.932,314.603 			"/>
			<polygon style="fill:#6C3834;" points="186.807,314.603 198.142,377.436 192.475,377.436 180.141,314.603 			"/>
			<polygon style="fill:#A35F4F;" points="194.808,314.603 206.142,377.436 200.475,377.436 188.141,314.603 			"/>
			<path style="fill:#A0C57E;" d="M135.332,245.77h60.697c2.209,0,4-1.791,4-4v-12.833c0-2.209-1.791-4-4-4h-60.697
				c-2.209,0-4,1.791-4,4v12.833C131.332,243.979,133.123,245.77,135.332,245.77z"/>
		</g>
		<path style="fill:#A0C57E;" d="M194.356,213.379c5.779,8.209,10.492,17.039,15.112,25.932c2.293,4.413,5.474,10.88,2.461,15.768
			c-1.23,1.995-3.437,3.166-5.71,3.512c-6.07,0.926-10.786-5.676-14.192-9.699c-4.26-5.031-7.722-10.485-10.965-16.204
			c-3.273-5.772-7.051-11.309-8.415-17.926c-0.623-3.024-0.371-5.836,2.249-7.791c2.568-1.916,6.344-2.416,9.395-1.559
			C188.711,206.653,191.798,209.746,194.356,213.379z"/>
		<path style="fill:#A0C57E;" d="M138.432,213.379c-5.779,8.209-10.492,17.039-15.112,25.932c-2.293,4.413-5.474,10.88-2.461,15.768
			c1.23,1.995,3.437,3.166,5.71,3.512c6.07,0.926,10.786-5.676,14.192-9.699c4.26-5.031,7.722-10.485,10.965-16.204
			c3.272-5.772,7.051-11.309,8.415-17.926c0.623-3.024,0.371-5.836-2.249-7.791c-2.568-1.916-6.344-2.416-9.395-1.559
			C144.077,206.653,140.99,209.746,138.432,213.379z"/>
		<path style="fill:#423946;" d="M174.444,368.104c-2.932,1.723-5.779,6.041-4.974,9.716c0.045,0.204,0.104,0.417,0.245,0.562
			c0.205,0.212,0.521,0.224,0.806,0.224c7.098-0.002,14.197-0.004,21.295-0.005c0.21,0,0.46-0.024,0.56-0.221
			c0.058-0.113,0.046-0.251,0.031-0.38c-0.246-2.168-0.656-4.355-1.631-6.274c-1.896-3.734-5.866-5.286-9.652-5.203
			C178.822,366.574,176.463,366.917,174.444,368.104z"/>
		<path style="fill:#665955;" d="M145.166,301.613c-4.984-2.761-5.501-8.599-4.626-13.483c0.491-2.741,1.851-5.457,4.257-7.066
			c2.836-1.896,6.571-1.965,10.047-1.878c10.326,0.259,20.613,1.26,30.888,2.26c1.187,0.116,2.484,0.281,3.293,1.108
			c0.647,0.661,0.832,1.602,0.991,2.489c0.479,2.686,0.96,5.407,0.72,8.121c-0.241,2.715-1.285,5.467-3.424,7.299
			c-4.194,3.591-8.949,3.555-14.281,3.65c-6.174,0.109-12.356,0.064-18.517-0.366C151.286,303.522,147.955,303.159,145.166,301.613z
			"/>
		<path style="fill:#75B377;" d="M141.249,246.653c0.092-3.204,0.203-6.408,0.334-9.611c0.261-6.381,0.599-12.759,1.007-19.133
			c0.359-5.619,1.471-9.695,6.422-13.04c3.443-2.326,7.544-3.99,11.655-4.608c7.765-1.167,16.332,1.758,22.729,6.098
			c5.789,3.928,6.309,10.773,6.6,17.219c0.339,7.527,0.96,15.036,1.251,22.569c0.374,9.682,0.481,19.511,0.207,29.211
			c-0.061,2.177-0.197,4.398-0.998,6.424c-1.289,3.258-3.951,4.471-7.184,5.115c-6.176,1.23-12.493,1.486-18.775,1.328
			c-5.571-0.14-12.808,0.368-18.016-1.86c-4.696-2.009-5.435-6.416-5.488-11.013C140.882,265.785,140.976,256.217,141.249,246.653z"
			/>
		<path style="fill:#6DBFDA;" d="M190.77,296.442c0.028,1.014,0.032,1.998,0.027,2.927c-0.062,11.77-0.245,23.538-0.343,35.309
			c-0.055,6.555-1.137,29.65-1.681,34.831c-4.901-0.004-9.802-0.007-14.702-0.011c-0.516,0-1.062-0.009-1.501-0.292
			c-0.711-0.458-0.883-1.439-0.987-2.305c-2.59-21.542-4.755-43.15-5.628-64.877c-0.226-5.633-0.84-12.038,2.044-17.013
			c3.058-5.276,10.589-7.083,15.633-5.011C189.462,282.395,190.593,290.018,190.77,296.442z"/>
		<path style="fill:#423946;" d="M156.57,368.104c2.932,1.723,5.779,6.041,4.974,9.716c-0.045,0.204-0.104,0.417-0.245,0.562
			c-0.205,0.212-0.521,0.224-0.806,0.224c-7.098-0.002-14.197-0.004-21.295-0.005c-0.21,0-0.46-0.024-0.56-0.221
			c-0.058-0.113-0.046-0.251-0.031-0.38c0.246-2.168,0.656-4.355,1.631-6.274c1.896-3.734,5.866-5.286,9.652-5.203
			C152.192,366.574,154.551,366.917,156.57,368.104z"/>
		<path style="fill:#6DBFDA;" d="M140.243,296.442c-0.028,1.014-0.032,1.998-0.027,2.927c0.062,11.77,0.245,23.538,0.343,35.309
			c0.054,6.555,1.137,29.65,1.681,34.831c4.901-0.004,9.801-0.007,14.702-0.011c0.516,0,1.062-0.009,1.501-0.292
			c0.711-0.458,0.883-1.439,0.987-2.305c2.59-21.542,4.755-43.15,5.628-64.877c0.226-5.633,0.84-12.038-2.044-17.013
			c-3.058-5.276-10.589-7.083-15.633-5.011C141.552,282.395,140.42,290.018,140.243,296.442z"/>
		<path style="fill:#EDA585;" d="M179.912,190.549c-1.709,0.321-3.414-0.315-3.574-2.539c-0.075-1.043,0.272-2.074,0.725-3.016
			c0.554-1.153,1.295-2.247,2.333-2.994c1.038-0.747,2.406-1.106,3.628-0.73c1.03,0.317,1.438,1.146,1.607,2.17
			c0.39,2.369-0.726,4.93-2.762,6.303C181.282,190.137,180.597,190.42,179.912,190.549z"/>
		<path style="fill:#EDA585;" d="M147.254,187.348c1.628,0.611,3.417,0.278,3.958-1.885c0.253-1.015,0.09-2.089-0.194-3.096
			c-0.347-1.231-0.889-2.437-1.782-3.351c-0.893-0.915-2.18-1.504-3.448-1.344c-1.069,0.135-1.614,0.881-1.956,1.861
			c-0.792,2.267-0.135,4.981,1.634,6.684C145.975,186.706,146.601,187.103,147.254,187.348z"/>
		<path style="fill:#EDA585;" d="M161.854,189.123c2.201-0.697,4.543-0.698,6.838-0.57c1.949,0.108,3.93,0.313,5.725,1.12
			c-0.312,4.442-0.572,8.977-0.72,13.41c-0.015,0.442-0.038,0.906-0.344,1.285c-0.396,0.49-1.171,0.726-1.905,0.898
			c-4.382,1.024-9.25,0.855-13.485-0.468c-0.292-0.091-0.594-0.195-0.779-0.386c-0.221-0.227-0.231-0.527-0.232-0.807
			c-0.011-2.024-0.023-4.047-0.033-6.071c-0.009-1.71-0.475-3.765,0.41-5.31C158.218,190.668,160.276,189.623,161.854,189.123z"/>
		<path style="opacity:0.5;fill:#EDA585;" d="M173.918,199.876c0.151-3.401,0.34-6.824,0.577-10.203
			c-1.795-0.807-3.777-1.012-5.725-1.12c-2.295-0.127-4.637-0.127-6.838,0.57c-1.577,0.5-3.635,1.544-4.526,3.1
			c-0.885,1.545-0.419,3.6-0.41,5.31c0.01,2.024,0.022,4.047,0.033,6.071c0,0.025,0.002,0.05,0.002,0.075
			C163.1,206.493,169.236,204.708,173.918,199.876z"/>
		<path style="fill:#EDA585;" d="M181.648,184.396c-1.289,4.03-3.419,7.474-5.889,10.782c-5.479,7.338-13.766,9.947-21.546,4.464
			c-6.083-4.288-7.445-12.803-7.658-20.001c-0.199-6.752,0.732-14.685,4.964-20.059c1.187-1.507,2.685-2.617,4.231-3.554
			c1.388-0.841,2.834-1.559,4.341-2.031c4.89-1.533,10.322-0.319,14.56,3.064c5.822,4.647,9.501,12.98,8.373,21.33
			C182.76,180.345,182.291,182.386,181.648,184.396z"/>
		<g style="opacity:0.5;">
			<path style="fill:#EDA585;" d="M163.579,186.165c-0.491-0.318-0.834-0.794-1.193-1.09c-0.351-0.288-0.753-0.48-1.18-0.559
				c-0.841-0.174-1.746,0.093-2.571,0.882c0.035-0.583,0.399-1.144,0.917-1.495c0.516-0.366,1.217-0.493,1.85-0.368
				c0.63,0.135,1.221,0.496,1.572,1.031C163.323,185.091,163.427,185.615,163.579,186.165z"/>
		</g>
		<g>
			<path style="fill:#392C3F;" d="M156.599,177.612c0.013,1.473-0.638,2.674-1.453,2.681c-0.816,0.007-1.488-1.181-1.501-2.655
				c-0.013-1.473,0.638-2.674,1.454-2.681C155.914,174.95,156.586,176.139,156.599,177.612z"/>
		</g>
		<g>
			<path style="fill:#392C3F;" d="M167.66,178.979c-0.21,1.458,0.275,2.735,1.083,2.851c0.808,0.116,1.632-0.972,1.842-2.431
				c0.21-1.458-0.275-2.735-1.083-2.851C168.694,176.432,167.87,177.52,167.66,178.979z"/>
		</g>
		<g>
			<g>
				<path style="fill:#DFC2C2;" d="M159.042,170.659c-2.241-1.742-5.721-1.593-7.577,0.674c-0.607,0.741,0.449,1.808,1.061,1.061
					c1.29-1.576,3.811-1.952,5.455-0.674C158.735,172.305,159.804,171.251,159.042,170.659L159.042,170.659z"/>
			</g>
		</g>
		<g>
			<g>
				<path style="fill:#DFC2C2;" d="M168.323,172.487c1.598-0.54,4.159-0.475,4.927,1.349c0.369,0.876,1.821,0.491,1.446-0.399
					c-1.102-2.617-4.266-3.243-6.772-2.397C167.014,171.348,167.405,172.797,168.323,172.487L168.323,172.487z"/>
			</g>
		</g>
		<path style="fill:#EDA585;" d="M163.775,246.977c-0.333-0.047-0.69-0.093-0.991,0.056c-1.117,0.554-1.201,3.731-1.197,4.802
			c0.003,0.843,0.103,1.7,0.449,2.469c0.572,1.272,1.775,2.179,3.083,2.663c1.308,0.484,2.723,0.592,4.117,0.625
			c4.675,0.11,9.368-0.575,13.818-2.016c0.12-0.039,0.247-0.083,0.33-0.178c0.11-0.127,0.114-0.311,0.113-0.479
			c-0.008-1.353-0.016-2.707-0.023-4.06c-0.004-0.7-0.033-1.468-0.5-1.99c-0.835-0.932-2.164-0.391-3.163-0.927
			c-1.39-0.745-2.837-1.491-4.227-2.236c-0.081,0.771-0.148,1.917-0.198,2.119c-0.834-0.064-1.643-0.129-2.498-0.141
			C169.824,247.641,166.813,247.324,163.775,246.977z"/>
		<path style="fill:#A0C57E;" d="M202.015,241.065c-2.399,0.108-4.8,0.444-7.181,0.732c-5.203,0.628-10.381,1.801-15.519,3.124
			c-0.274,0.071-0.564,0.153-0.773,0.458c-0.277,0.406-0.33,1.082-0.355,1.696c-0.134,3.26-0.019,6.548,0.341,9.76
			c0.024,0.215,0.051,0.437,0.129,0.614c0.138,0.314,0.392,0.402,0.624,0.461c1.354,0.343,2.715,0.698,4.071,0.93
			c7.883,1.349,16.004,0.279,23.916-0.547c4.587-0.478,7.507-12.895,2.434-16.249c-0.544-0.359-1.13-0.499-1.711-0.613
			C206.009,241.044,204.013,240.975,202.015,241.065z"/>
		<path style="fill:#E8DCDC;" d="M183.969,178.878c2.644-6.11,3.625-13.833-0.509-19.552c-1.243-1.72-3.408-2.752-5.3-3.593
			c-2.006-0.891-4.121-1.525-6.271-1.959c-3.062-0.619-6.189-0.84-9.307-0.899c-6.537-0.124-15.067,1.475-17.109,8.753
			c-0.555,1.978-0.764,4.108-0.992,6.014c-0.577,4.818,0.373,9.726,3.198,13.722c0.872-1.966,1.28-3.551,1.021-5.668
			c-0.255-2.08-0.372-4.178-0.343-6.274c0.029-2.038,0.073-4.12,0.96-5.997c1.481-3.132,5.525-3.536,8.574-3.817
			c3.195-0.294,6.417-0.007,9.587,0.423c2.84,0.385,5.665,0.882,8.338,1.949c2.035,0.813,4.399,2.051,5.376,4.146
			c1.084,2.327,0.511,5.914-0.007,8.316c-0.812,3.773-2.816,7.364-2.046,11.316c-0.063-0.323,2.257-2.55,2.608-2.972
			C182.721,181.612,183.361,180.282,183.969,178.878z"/>
		<path style="fill:#FFFFFF;" d="M159.243,193.597c-1.688-0.528-3.124-1.76-4.038-3.682c0.216,0.454,5.167,0.447,5.848,0.505
			c1.975,0.17,3.879,0.485,5.886,0.46c-0.275,1.063-1.263,1.786-2.265,2.235C162.792,193.958,160.897,194.114,159.243,193.597z"/>
		<g style="opacity:0.5;">
			<path style="fill:#EDA585;" d="M170.144,169.514c-2.357-0.526-4.666-1.079-7.003-1.573c-1.124-0.272-2.284-0.277-3.461-0.193
				c-1.174,0.096-2.356,0.275-3.548,0.469c1.11-0.474,2.269-0.851,3.477-1.05c1.198-0.209,2.475-0.239,3.691,0.041
				C165.651,167.73,167.981,168.431,170.144,169.514z"/>
		</g>
		<g style="opacity:0.5;">
			<path style="fill:#EDA585;" d="M167.35,166.494c-1.634-0.299-3.209-0.554-4.812-0.635c-1.602-0.1-3.195-0.027-4.853,0.083
				c1.52-0.689,3.227-0.918,4.896-0.831C164.249,165.216,165.918,165.637,167.35,166.494z"/>
		</g>
	</g>
	<g>
		<g>
			<polygon style="fill:#6C3834;" points="267.45,306.52 273.703,306.52 282.703,227.77 276.45,227.77 			"/>
			<polygon style="fill:#6C3834;" points="232.953,306.52 226.7,306.52 217.7,227.77 223.953,227.77 			"/>
			<path style="fill:#A0C57E;" d="M279.936,309.017v-4.994c0-1.105-0.895-2-2-2h-54.833c-1.105,0-2,0.895-2,2v4.994
				c0,1.104,0.895,2,2,2h54.833C279.041,311.017,279.936,310.121,279.936,309.017z"/>
			
				<rect x="221.103" y="306.52" transform="matrix(-1 -1.224647e-16 1.224647e-16 -1 501.0387 621.1226)" style="fill:#A35F4F;" width="58.833" height="8.083"/>
			<polygon style="fill:#A35F4F;" points="229.787,314.603 218.452,377.436 224.119,377.436 236.453,314.603 			"/>
			<polygon style="fill:#6C3834;" points="221.786,314.603 210.452,377.436 216.119,377.436 228.453,314.603 			"/>
			<polygon style="fill:#6C3834;" points="271.328,314.603 282.663,377.436 276.995,377.436 264.661,314.603 			"/>
			<polygon style="fill:#A35F4F;" points="279.329,314.603 290.663,377.436 284.996,377.436 272.662,314.603 			"/>
			<path style="fill:#A0C57E;" d="M219.853,245.77h60.697c2.209,0,4-1.791,4-4v-12.833c0-2.209-1.791-4-4-4h-60.697
				c-2.209,0-4,1.791-4,4v12.833C215.853,243.979,217.644,245.77,219.853,245.77z"/>
		</g>
		<path style="fill:#E45339;" d="M227.87,217.177c-5.1,7.245-9.26,15.039-13.338,22.887c-2.023,3.895-4.831,9.603-2.172,13.916
			c1.085,1.76,3.034,2.794,5.04,3.1c5.357,0.817,9.519-5.009,12.526-8.56c3.76-4.44,6.815-9.254,9.677-14.301
			c2.888-5.094,6.223-9.981,7.427-15.821c0.55-2.669,0.328-5.151-1.985-6.876c-2.267-1.691-5.599-2.132-8.292-1.376
			C232.852,211.24,230.127,213.97,227.87,217.177z"/>
		<path style="fill:#E45339;" d="M272.05,217.177c5.1,7.245,9.26,15.039,13.338,22.887c2.023,3.895,4.831,9.603,2.172,13.916
			c-1.085,1.76-3.034,2.794-5.04,3.1c-5.357,0.817-9.519-5.009-12.526-8.56c-3.76-4.44-6.815-9.254-9.677-14.301
			c-2.888-5.094-6.223-9.981-7.427-15.821c-0.55-2.669-0.328-5.151,1.985-6.876c2.267-1.691,5.599-2.132,8.292-1.376
			C267.068,211.24,269.793,213.97,272.05,217.177z"/>
		<path style="fill:#423946;" d="M258.637,368.104c-2.168,1.723-4.274,6.041-3.678,9.716c0.033,0.204,0.077,0.417,0.181,0.562
			c0.152,0.212,0.385,0.224,0.596,0.224c5.249-0.002,10.499-0.004,15.748-0.005c0.155,0,0.34-0.024,0.414-0.221
			c0.043-0.113,0.034-0.251,0.023-0.38c-0.182-2.168-0.485-4.355-1.206-6.274c-1.402-3.734-4.338-5.286-7.138-5.203
			C261.875,366.574,260.13,366.917,258.637,368.104z"/>
		<path style="fill:#665955;" d="M229.687,301.613c-4.984-2.761-5.501-8.599-4.626-13.483c0.491-2.741,1.851-5.457,4.257-7.066
			c2.836-1.896,6.571-1.965,10.047-1.878c10.326,0.259,20.613,1.26,30.888,2.26c1.187,0.116,2.484,0.281,3.293,1.108
			c0.647,0.661,0.832,1.602,0.991,2.489c0.479,2.686,0.961,5.407,0.72,8.121c-0.241,2.715-1.285,5.467-3.424,7.299
			c-4.194,3.591-8.949,3.555-14.281,3.65c-6.174,0.109-12.356,0.064-18.517-0.366C235.807,303.522,232.476,303.159,229.687,301.613z
			"/>
		<path style="fill:#E45339;" d="M228.206,249.446c0.083-2.989,0.184-5.978,0.302-8.966c0.236-5.953,0.54-11.903,0.909-17.849
			c0.325-5.242,1.328-9.044,5.797-12.165c3.107-2.169,6.81-3.722,10.52-4.299c7.009-1.089,14.742,1.64,20.517,5.689
			c5.226,3.664,5.695,10.05,5.957,16.063c0.306,7.022,0.866,14.027,1.129,21.054c0.338,9.032,0.434,18.201,0.187,27.251
			c-0.056,2.031-0.177,4.103-0.901,5.993c-1.163,3.039-3.567,4.171-6.485,4.772c-5.575,1.147-11.277,1.386-16.947,1.239
			c-5.029-0.131-11.562,0.343-16.262-1.735c-4.239-1.874-4.906-5.986-4.954-10.274C227.875,267.294,227.959,258.368,228.206,249.446
			z"/>
		<path style="fill:#84756E;" d="M270.711,296.442c0.021,1.014,0.024,1.998,0.02,2.927c-0.046,11.77-0.181,23.538-0.254,35.309
			c-0.04,6.555-0.84,29.65-1.243,34.831c-3.624-0.004-7.249-0.007-10.873-0.011c-0.382,0-0.785-0.009-1.11-0.292
			c-0.526-0.458-0.653-1.439-0.73-2.305c-1.916-21.542-3.516-43.15-4.162-64.877c-0.167-5.633-0.621-12.038,1.511-17.013
			c2.261-5.276,7.831-7.083,11.561-5.011C269.743,282.395,270.58,290.018,270.711,296.442z"/>
		<path style="fill:#423946;" d="M241.418,368.104c2.169,1.723,4.274,6.041,3.678,9.716c-0.033,0.204-0.077,0.417-0.181,0.562
			c-0.152,0.212-0.385,0.224-0.596,0.224c-5.25-0.002-10.499-0.004-15.748-0.005c-0.155,0-0.34-0.024-0.414-0.221
			c-0.043-0.113-0.034-0.251-0.023-0.38c0.182-2.168,0.485-4.355,1.206-6.274c1.402-3.734,4.338-5.286,7.138-5.203
			C238.181,366.574,239.925,366.917,241.418,368.104z"/>
		<path style="fill:#EDA585;" d="M255.657,207.313c-0.01,0.419-0.026,0.858-0.236,1.217c-0.271,0.464-0.801,0.688-1.304,0.85
			c-3,0.97-6.333,0.81-9.232-0.443c-0.2-0.086-0.407-0.185-0.534-0.366c-0.151-0.215-0.158-0.499-0.159-0.764
			c-0.01-2.616-0.021-5.232-0.031-7.847c-0.002-0.396-0.001-0.805,0.149-1.169c0.364-0.886,1.43-1.18,2.359-1.292
			c2.158-0.262,6.543-0.623,8.338,1.041C256.813,200.211,255.711,205.077,255.657,207.313z"/>
		<path style="fill:#84756E;" d="M229.344,296.442c-0.021,1.014-0.024,1.998-0.02,2.927c0.046,11.77,0.181,23.538,0.253,35.309
			c0.04,6.555,0.84,29.65,1.243,34.831c3.624-0.004,7.249-0.007,10.873-0.011c0.382,0,0.785-0.009,1.11-0.292
			c0.525-0.458,0.653-1.439,0.73-2.305c1.916-21.542,3.516-43.15,4.162-64.877c0.167-5.633,0.621-12.038-1.511-17.013
			c-2.261-5.276-7.831-7.083-11.561-5.011C230.312,282.395,229.475,290.018,229.344,296.442z"/>
		<path style="fill:#383734;" d="M271.68,182.538c0.554-2.179,0.537-4.446,0.123-6.676c-0.357-1.921-1.145-3.939-2.835-4.921
			c-1.108-0.644-2.44-0.746-3.721-0.797c-0.267-0.011-0.546-0.017-0.786,0.101c-0.43,0.212-0.583,0.74-0.675,1.21
			c-0.919,4.704-0.201,9.711,2.002,13.967c0.404,0.78,0.868,1.55,1.532,2.125c0.452,0.391,1.234,0.88,1.868,0.808
			c0.742-0.084,0.928-0.702,1.234-1.375C271.063,185.572,271.302,184.027,271.68,182.538z"/>
		<path style="fill:#EDA585;" d="M239.296,246.977c-0.333-0.047-0.69-0.093-0.991,0.056c-1.117,0.554-1.201,3.731-1.197,4.802
			c0.003,0.843,0.103,1.7,0.449,2.469c0.572,1.272,1.775,2.179,3.083,2.663c1.308,0.484,2.722,0.592,4.117,0.625
			c4.675,0.11,9.368-0.575,13.818-2.016c0.12-0.039,0.247-0.083,0.33-0.178c0.11-0.127,0.114-0.311,0.113-0.479
			c-0.008-1.353-0.016-2.707-0.023-4.06c-0.004-0.7-0.033-1.468-0.5-1.99c-0.835-0.932-2.164-0.391-3.163-0.927
			c-1.39-0.745-2.837-1.491-4.227-2.236c-0.081,0.771-0.148,1.917-0.198,2.119c-0.834-0.064-1.643-0.129-2.498-0.141
			C245.345,247.641,242.333,247.324,239.296,246.977z"/>
		<path style="fill:#E45339;" d="M277.536,243.213c-2.399,0.083-4.8,0.34-7.181,0.561c-5.203,0.481-10.381,1.38-15.519,2.394
			c-0.274,0.054-0.564,0.117-0.773,0.351c-0.277,0.311-0.33,0.829-0.355,1.299c-0.134,2.498-0.019,5.018,0.341,7.479
			c0.024,0.165,0.051,0.335,0.128,0.47c0.138,0.241,0.392,0.308,0.624,0.353c1.354,0.263,2.715,0.535,4.071,0.712
			c7.883,1.033,16.004,0.213,23.916-0.419c4.587-0.367,7.507-9.882,2.434-12.452c-0.544-0.275-1.13-0.383-1.711-0.47
			C281.53,243.196,279.533,243.144,277.536,243.213z"/>
		<path style="opacity:0.5;fill:#EDA585;" d="M255.605,208.343c0.126-0.319,0.145-0.681,0.154-1.03
			c0.054-2.236,1.156-7.102-0.649-8.774c-1.796-1.663-6.18-1.302-8.338-1.041c-0.929,0.113-1.995,0.406-2.359,1.292
			c-0.15,0.365-0.151,0.773-0.149,1.169c0.008,1.946,0.015,3.893,0.023,5.839c0.495,0.334,1.003,0.65,1.54,0.926
			C248.756,208.233,252.279,208.859,255.605,208.343z"/>
		<path style="fill:#EDA585;" d="M236.263,187.789c0.498,6.909,3.874,13.749,9.883,16.841c5.879,3.025,14.145,2.506,18.415-3.68
			c4.418-6.401,7.291-18.157,3.844-25.333c-0.719-1.498-1.801-2.757-2.964-3.891c-1.044-1.018-2.166-1.953-3.397-2.707
			c-3.993-2.449-9.07-2.848-13.567-1.222c-6.179,2.234-11.271,7.94-12.111,14.868C236.17,184.286,236.136,186.027,236.263,187.789z"
			/>
		<path style="fill:#415266;" d="M269.083,163.47c1.862,0.728,3.709,1.859,4.558,3.67c0.818,1.745,0.502,3.962-0.772,5.409
			c-1.251,1.421-3.219,2.018-5.111,2.099c-1.891,0.081-3.769-0.286-5.653-0.471c-4.098-0.402-8.273,0.096-12.178,1.394
			c-3.168,1.053-8.128,2.818-9.408,6.181c-0.319,0.839-0.397,1.748-0.438,2.644c-0.096,2.106,0.058,4.22,0.066,6.317
			c0.003,0.801,0.136,1.479,0.018,2.29c-0.046,0.318-0.682,3.056-0.519,3.153c-3.257-1.97-5.501-5.328-6.759-8.92
			c-1.481-4.227-2.108-8.986-1.298-13.376c0.805-4.364,2.939-7.268,6.818-9.216c4.665-2.343,9.881-3.047,15.047-3.122
			C258.605,161.447,264.227,161.571,269.083,163.47z"/>
		<g style="opacity:0.5;">
			<path style="fill:#EDA585;" d="M254.673,193.534c0.236-0.519,0.421-1.02,0.847-1.484c0.43-0.473,1.071-0.737,1.714-0.772
				c0.645-0.025,1.317,0.21,1.77,0.653c0.457,0.427,0.729,1.039,0.672,1.62c-0.691-0.909-1.543-1.314-2.402-1.274
				c-0.433,0.011-0.86,0.138-1.253,0.367C255.621,192.881,255.207,193.297,254.673,193.534z"/>
		</g>
		<path style="fill:#EDA585;" d="M237.891,196.791c1.698,0.372,3.422-0.212,3.648-2.43c0.106-1.041-0.209-2.081-0.634-3.037
			c-0.519-1.169-1.227-2.285-2.242-3.063c-1.015-0.778-2.372-1.178-3.605-0.839c-1.039,0.286-1.472,1.102-1.671,2.121
			c-0.461,2.357,0.577,4.949,2.571,6.383C236.533,196.339,237.21,196.642,237.891,196.791z"/>
		<path style="fill:#392C3F;" d="M261.659,187.477c-0.243,1.453,0.211,2.74,1.016,2.875c0.805,0.135,1.654-0.934,1.898-2.387
			c0.243-1.453-0.212-2.74-1.016-2.875C262.752,184.956,261.902,186.024,261.659,187.477z"/>
		<path style="fill:#392C3F;" d="M251.511,186.676c-0.021,1.473-0.7,2.658-1.515,2.646c-0.816-0.012-1.46-1.215-1.439-2.689
			c0.021-1.473,0.7-2.658,1.515-2.646C250.888,183.999,251.532,185.203,251.511,186.676z"/>
		<g>
			<path style="fill:#E56F55;" d="M251.296,197.149c0.432,0.843,1.263,1.158,2.069,1.501c0.822,0.322,1.648,0.598,2.489,0.727
				c0.839,0.15,1.684,0.15,2.521-0.009c0.836-0.165,1.647-0.492,2.408-1.036c-0.448,0.829-1.277,1.455-2.193,1.786
				c-0.918,0.35-1.942,0.401-2.899,0.245c-0.96-0.169-1.868-0.525-2.675-1.019c-0.402-0.239-0.804-0.527-1.14-0.887
				C251.548,198.097,251.286,197.626,251.296,197.149z"/>
		</g>
		<g>
			<g>
				<path style="fill:#415266;" d="M267.809,183.282c-0.918-2.107-3.318-2.916-5.458-2.826c-0.962,0.04-0.967,1.541,0,1.5
					c1.664-0.07,3.441,0.426,4.163,2.083C266.898,184.922,268.191,184.159,267.809,183.282L267.809,183.282z"/>
			</g>
		</g>
		<g>
			<g>
				<path style="fill:#415266;" d="M250.997,179.9c-2.548-0.694-5.285,0.293-6.202,2.889c-0.322,0.912,1.127,1.304,1.446,0.399
					c0.64-1.812,2.652-2.306,4.357-1.842C251.531,181.6,251.929,180.153,250.997,179.9L250.997,179.9z"/>
			</g>
		</g>
		<path style="fill:#EDA585;" d="M199.865,208.608c1.985,1.363,3.812,2.848,5.259,4.963c0.463,0.677,1.02,1.119,1.536,1.723
			c0.623,0.729,0.86,1.741,1.094,2.651c0.415,1.611,0.486,3.288,0.75,4.93c1.946-0.151,3.892-0.302,5.839-0.454
			c0.135-0.01,0.28-0.024,0.386-0.109c0.127-0.101,0.166-0.275,0.192-0.436c0.262-1.632,0.032-3.301,0.124-4.951
			c0.074-1.315,0.678-2.32,1.167-3.499c0.708-1.706,0.332-4.366-0.158-6.104c-0.639-2.269-2.121-4.191-3.57-6.051
			c-0.853-1.094-1.938-2.3-3.323-2.208c-0.242,0.016-0.512,0.096-0.619,0.314c-0.087,0.177-0.039,0.388,0.012,0.578
			c0.379,1.408,0.854,2.789,1.42,4.132c-0.676-1.602-2.44-2.458-3.852-3.289c-2.191-1.289-4.373-3.081-7.007-3.163
			c-0.192-0.006-0.394-0.004-0.561,0.09c-0.39,0.219-0.377,0.775-0.313,1.217c-0.674-0.227-1.391-0.326-2.102-0.292
			c-0.23,0.011-0.466,0.039-0.666,0.154c-0.31,0.179-0.474,0.545-0.501,0.902c-0.028,0.357,0.06,0.711,0.147,1.058
			c-0.436-0.164-0.983,0.101-1.126,0.545c-0.097,0.304-0.02,0.636,0.093,0.934c0.168,0.444,0.414,0.859,0.724,1.22
			c-0.228-0.018-0.42,0.196-0.463,0.42c-0.043,0.224,0.025,0.453,0.092,0.672c0.264,0.858,1.065,1.176,1.794,1.662
			C197.469,207.042,198.694,207.804,199.865,208.608z"/>
		<path style="fill:#E45339;" d="M217.636,221.726c-0.078-0.329-0.157-0.658-0.236-0.987c-0.21-0.874-0.413-1.749-0.629-2.622
			c-0.212-0.859-0.151-1.246-0.962-1.415c-0.881-0.184-9.396,0.395-9.395,1.295c0.008,8.655-0.183,17.13,1.461,25.669
			c0.713,3.703,1.661,7.556,4.197,10.347c1.836,2.021,5.886,4.147,8.462,2.222c2.307-1.725,1.807-5.745,1.609-8.196
			C221.419,239.089,219.7,230.431,217.636,221.726z"/>
	</g>
	<path style="fill:#FFFFFF;" d="M150.562,254.232h38.53c4.709,0,8.526-3.817,8.526-8.526l0,0h-55.582l0,0
		C142.037,250.414,145.854,254.232,150.562,254.232z"/>
	<path style="fill:#FFFFFF;" d="M230.859,254.232h38.53c4.709,0,8.526-3.817,8.526-8.526l0,0h-55.582l0,0
		C222.333,250.414,226.15,254.232,230.859,254.232z"/>
	<g>
		<polygon style="fill:#6C3834;" points="114.657,314.603 125.992,377.436 120.324,377.436 107.99,314.603 		"/>
		<line style="fill:none;stroke:#B2AFA8;stroke-miterlimit:10;" x1="109.386" y1="191.093" x2="132.073" y2="213.901"/>
		<path style="fill:none;stroke:#B2AFA8;stroke-miterlimit:10;" d="M110.943,189.504c0.448,0.419,0.897,0.838,1.345,1.257
			c1.042,0.973,2.123,2.007,2.56,3.364c0.501,1.556-0.663,2.738-2.249,2.445c-0.739-0.137-1.398-0.545-2.009-0.983
			c-1.052-0.755-2.024-1.622-2.892-2.583"/>
		<path style="fill:#DD915E;" d="M111.949,188.371c0.208,0.45,0.137,0.981-0.022,1.451c-0.159,0.469-0.401,0.909-0.534,1.387
			c-0.094,0.337-0.133,0.688-0.223,1.026c-0.358,1.343-1.706,2.438-3.083,2.245c-1.355-0.19-2.352-1.587-2.307-2.955
			c0.056-1.743,1.35-2.652,2.594-3.6C109.456,187.1,111.29,186.946,111.949,188.371z"/>
		<path style="fill:#A0C57E;" d="M50.874,309.017v-4.994c0-1.105,0.895-2,2-2h60.386c1.105,0,2,0.895,2,2v4.994c0,1.104-0.895,2-2,2
			H52.874C51.77,311.017,50.874,310.121,50.874,309.017z"/>
		<rect x="43.427" y="306.52" style="fill:#A35F4F;" width="71.833" height="8.083"/>
		<path style="fill:#A0C57E;" d="M40.754,244.51H35.76c-1.105,0-2-0.895-2-2v-15.574c0-1.105,0.895-2,2-2h4.994c1.105,0,2,0.895,2,2
			v15.574C42.754,243.615,41.859,244.51,40.754,244.51z"/>
		<path style="fill:#326D67;" d="M117.51,331.394c2.652-8.78,5.604-17.467,8.727-26.091c0.803-2.222,1.616-4.443,2.544-6.616
			c3.459-8.095,11.81-25.506,23.141-17.443c8.135,5.791,0.849,18.104-2.901,24.232c-3.638,5.946-12.244,20.248-19.77,32.835"/>
		<path style="fill:#D49377;" d="M129.252,338.311c-7.209,12.056-13.427,22.538-13.34,22.594c-2.41-1.533-4.656-3.061-6.921-4.821
			c0.498,0.387,4.202-10.562,4.476-11.467c1.215-4.017,2.468-7.954,3.672-11.986c0.123-0.413,0.247-0.825,0.372-1.237"/>
		<path style="fill:#32386D;" d="M114.075,359.04c-1.407-0.956-2.824-1.832-4.286-2.733c-0.165-0.102-0.334-0.205-0.524-0.246
			c-0.24-0.051-0.49,0.003-0.723,0.078c-1.628,0.529-3.129,2.076-3.774,3.638c-1.009,2.441,1.261,4.956,2.752,6.631
			c2.126,2.389,4.027,4.872,5.522,7.719c0.533,1.016,1.009,2.068,1.671,3.005c0.177,0.25,0.378,0.501,0.659,0.623
			c0.231,0.1,0.492,0.103,0.744,0.103c0.883,0.002,1.767,0.005,2.65,0.007c0.636,0.002,1.291,0,1.881-0.24
			c0.589-0.24,1.103-0.78,1.113-1.416c0.012-0.728-0.612-1.31-1.257-1.648c-0.645-0.337-1.374-0.545-1.915-1.033
			c-1.267-1.142-1.136-3.421-1.361-4.964c-0.312-2.14-0.674-4.274-1.084-6.397C115.82,360.507,115.435,359.964,114.075,359.04z"/>
		<path style="fill:#A35F4F;" d="M32.427,224.936c-0.167,12,1.333,52.836,11,81.583c4.788,2.917,9.667,0,9.667,0
			s-16.167-57.75-15.667-81.583C34.927,224.936,32.427,224.936,32.427,224.936z"/>
		<path style="fill:#326D67;" d="M141.928,277.501c4.294,0.054,8.691,0.61,11.493,4.401c3.845,5.202,0.109,11.041-3.995,14.344
			c-4.688,3.772-9.947,4.501-15.633,5.156c-13.602,1.566-27.265,2.465-40.964,2.671c-7.327,0.11-17.265,0.772-23.564-4.108
			c-5.184-4.017-5.19-11.75-0.993-16.457c4.881-5.473,12.453-5.765,19.061-6.073c10.115-0.472,20.346-0.542,30.477-0.138
			c6.473,0.258,12.945,0.11,19.419,0.211C138.721,277.531,140.318,277.481,141.928,277.501z"/>
		<path style="fill:#3D867D;" d="M128.677,284.037c4.265,0.507,8.578,1.525,10.964,5.59c3.274,5.579-1.057,10.991-5.487,13.842
			c-5.06,3.256-10.367,3.426-16.09,3.477c-13.691,0.121-27.373-0.428-41.017-1.67c-7.298-0.664-17.25-1.055-22.998-6.573
			c-4.731-4.542-3.92-12.233,0.751-16.47c5.431-4.927,12.993-4.418,19.595-4.027c10.108,0.599,20.289,1.609,30.321,3.081
			c6.41,0.94,12.862,1.476,19.288,2.26C125.485,283.728,127.077,283.847,128.677,284.037z"/>
		<path style="fill:#1F3749;" d="M90.173,168.58c0.899-3.211,1.695-6.454,2.279-9.738c0.292-1.639,0.54-3.289,0.706-4.945
			c0.133-1.326-0.414-2.761,0.059-4.033c0.473-1.269,1.908-1.976,3.262-1.985c1.354-0.009,2.644,0.543,3.86,1.139
			c2.256,1.105,4.458,2.43,6.113,4.319c4.539,5.184,2.177,10.564-1.258,15.868c-2.685,4.147-5.45,7.913-7.331,12.497
			c-2.26,5.508-5.731,13.269-13.181,11.532c-3.854-0.899-0.564-5.036,0.223-7.626C86.632,179.923,88.57,174.303,90.173,168.58z"/>
		<path style="fill:#3D867D;" d="M133.006,347.484c-2.702-8.765-5.104-17.62-7.329-26.517c-0.574-2.292-1.141-4.588-1.583-6.909
			c-1.65-8.647-4.444-27.754,9.458-27.392c9.983,0.262,10.813,14.545,11.124,21.723c0.302,6.964,1.149,23.634,1.933,38.278"/>
		<path style="fill:#EDA585;" d="M146.609,346.666c0.751,14.027,1.446,26.195,1.549,26.193c-2.855,0.073-5.572,0.06-8.434-0.135
			c0.629,0.043-2.411-11.108-2.69-12.012c-1.235-4.011-2.393-7.977-3.646-11.994c-0.128-0.411-0.256-0.822-0.383-1.234"/>
		<path style="fill:#EDA585;" d="M120.621,194.087c0.03-0.011,0.06-0.021,0.09-0.031c1.045-0.355,2.287-0.324,3.156,0.357
			c0.323,0.253,0.581,0.584,0.912,0.827c0.473,0.348,1.059,0.495,1.608,0.703c1.181,0.448,2.221,1.196,3.245,1.935
			c0.28,0.202,0.569,0.414,0.739,0.716c0.163,0.289,0.199,0.631,0.212,0.962c0.134,3.49-2.232,5.167-3.648,7.939
			c-1.621,3.174-3.798,6.127-6.216,8.736c-0.086,0.093-0.179,0.189-0.301,0.224c-0.161,0.046-0.33-0.027-0.482-0.099
			c-1.224-0.576-2.449-1.153-3.673-1.729c-0.633-0.298-1.318-0.648-1.595-1.291c-0.494-1.15,0.556-2.128,0.49-3.26
			c-0.088-1.521,0.003-3.269-0.269-4.753c-0.315-1.718-1.079-3.232-1.198-5.029c-0.027-0.413-0.033-0.849,0.162-1.215
			c0.161-0.302,0.439-0.52,0.71-0.73c1.111-0.859,2.223-1.719,3.334-2.578C118.746,195.117,119.614,194.45,120.621,194.087z"/>
		<path style="fill:#FFDE59;" d="M92.876,241.782c1.777-3.575,3.762-7.056,5.689-10.527c4.211-7.586,8.899-14.907,13.694-22.103
			c0.256-0.384,0.534-0.787,0.956-0.973c0.563-0.248,1.213-0.042,1.787,0.178c3.051,1.17,5.953,2.726,8.615,4.621
			c0.178,0.127,0.361,0.261,0.467,0.452c0.189,0.34,0.09,0.761-0.018,1.135c-0.637,2.187-1.267,4.39-2.005,6.534
			c-2.498,7.252-5.766,14.213-9.277,21.024c-2.79,5.413-5.679,13.561-12.324,15.205c-2.702,0.669-5.727,0.057-7.853-1.739
			C87.796,251.524,90.61,246.342,92.876,241.782z"/>
		<path style="fill:#FFDE59;" d="M50.141,262.793c-0.319,3.675-0.658,7.618-0.866,11.403c-0.196,3.577-0.993,7.909,0.664,11.222
			c2.088,4.15,8.827,2.55,12.605,2.234c5.683-0.474,11.301-1.745,16.631-3.775c3.35-1.276,5.957-3.305,9.029-5.011
			c0.885-0.491,1.972-0.525,2.553-1.415c0.877-1.343-0.183-3.131-0.816-4.314c-3.824-7.155-6.27-17.28-3.072-25.057
			c2.282-5.547,7.374-9.719,8.542-15.763c1.123-5.812-1.849-11.515-4.143-16.971c-2.002-4.762-2.973-11.577-7.913-14.349
			c-1.522-0.854-3.187-1.486-4.783-2.191c-1.77-0.783-3.724-1.581-5.586-1.053c-0.731,0.207-1.391,0.608-2.024,1.027
			c-2.237,1.48-3.677,3.105-5.247,5.245c-6.733,9.179-12.588,19.776-13.913,31.264c-0.87,7.546-0.449,15.179-1.216,22.744
			C50.429,259.618,50.279,261.205,50.141,262.793z"/>
		<path style="fill:#32386D;" d="M145.426,369.544c-1.701,0.001-3.365,0.074-5.081,0.151c-0.194,0.009-0.392,0.018-0.572,0.091
			c-0.227,0.092-0.403,0.278-0.554,0.472c-1.417,1.829-1.41,4.322-0.534,6.362c0.467,1.086,1.132,1.294,2.186,1.436
			c1.612,0.217,3.237,0.33,4.862,0.39c3.893,0.144,7.784,0.312,11.676,0.457c1.972,0.074,3.944,0.142,5.917,0.198
			c0.563,0.016,4.975,0.537,3.631-0.968c-0.22-0.246-0.539-0.374-0.849-0.489c-2.213-0.816-4.53-1.32-6.768-2.065
			c-2.095-0.698-4.113-1.605-6.127-2.51c-0.986-0.443-1.988-0.897-2.796-1.615c-0.678-0.603-1.384-1.24-2.198-1.655
			C147.388,369.373,146.351,369.543,145.426,369.544z"/>
		<path style="fill:#EDA585;" d="M73.784,195.736c-0.17,0.9-0.891,1.69-0.387,2.612c0.28,0.513,0.764,0.878,1.237,1.222
			c3.323,2.412,7.263,4.634,11.313,3.953c0.81-4.127,1.621-8.254,2.431-12.382c0.262-1.336-0.801-1.76-1.739-2.445
			c-3.003-2.193-6.779-2.286-10.188-1.624C75.78,189.296,74.379,192.579,73.784,195.736z"/>
		<path style="fill:#8589AF;" d="M148.37,239.297c0.25,0,13.667,0,13.667,0l-2.75,17.833h-9.25L148.37,239.297z"/>
		<path style="fill:#EDA585;" d="M160.914,248.457c0.333-0.047,0.69-0.093,0.991,0.056c1.117,0.554,1.201,3.731,1.197,4.802
			c-0.003,0.843-0.103,1.7-0.449,2.469c-0.572,1.272-1.775,2.179-3.083,2.663c-1.308,0.484-2.723,0.592-4.117,0.625
			c-4.675,0.11-9.368-0.575-13.818-2.016c-0.12-0.039-0.247-0.083-0.33-0.178c-0.11-0.127-0.114-0.311-0.113-0.479
			c0.008-1.353,0.016-2.707,0.023-4.06c0.004-0.7,0.033-1.468,0.5-1.99c0.835-0.932,2.164-0.391,3.163-0.927
			c1.39-0.745,2.837-1.491,4.227-2.236c0.081,0.771,0.148,1.917,0.198,2.119c0.834-0.064,1.643-0.129,2.498-0.141
			C154.865,249.121,157.876,248.804,160.914,248.457z"/>
		<path style="fill:#F1C743;" d="M88.29,214.859c5.779,8.209,10.492,17.039,15.112,25.932c2.293,4.413,5.474,10.88,2.461,15.768
			c-1.23,1.994-3.437,3.165-5.71,3.512c-6.07,0.926-10.786-5.676-14.192-9.698c-4.261-5.031-7.722-10.485-10.965-16.204
			c-3.272-5.772-7.051-11.309-8.415-17.926c-0.623-3.024-0.371-5.836,2.249-7.791c2.568-1.916,6.344-2.416,9.395-1.559
			C82.645,208.133,85.732,211.226,88.29,214.859z"/>
		<path style="fill:#F1C743;" d="M106.743,242.545c3.99,0.108,7.984,0.444,11.944,0.732c8.654,0.628,17.267,1.801,25.813,3.124
			c0.456,0.071,0.939,0.153,1.285,0.458c0.462,0.406,0.548,1.082,0.59,1.696c0.222,3.26,0.031,6.548-0.567,9.76
			c-0.04,0.215-0.085,0.437-0.214,0.614c-0.229,0.315-0.653,0.402-1.037,0.461c-2.252,0.343-4.516,0.698-6.771,0.93
			c-13.113,1.349-26.62,0.279-39.781-0.547c-7.63-0.478-12.486-12.896-4.048-16.249c0.905-0.359,1.88-0.499,2.847-0.613
			C100.1,242.524,103.42,242.456,106.743,242.545z"/>
		<path style="opacity:0.5;fill:#EDA585;" d="M88.377,191.142c0.262-1.336-0.801-1.76-1.739-2.445
			c-3.003-2.193-6.779-2.286-10.188-1.624c-0.356,1.18-0.916,2.663-1.454,4.263c0.519,0.838,1.123,1.66,1.84,2.46
			c2.591,2.892,6.1,4.932,9.876,5.822C87.267,196.792,87.822,193.967,88.377,191.142z"/>
		<path style="fill:#EDA585;" d="M72.274,160.133c-1.184,3.654-0.902,7.6-0.608,11.429c0.572,7.438,0.699,14.555,6.629,19.972
			c3.839,3.506,9.163,5.329,14.345,4.912c1.277-0.103,2.553-0.338,3.734-0.833c2.974-1.247,4.948-3.966,6.273-6.803
			c0.846-1.811,0.996-3.5,3.197-3.978c0.988-0.214,1.892-1.072,1.867-2.084c-0.018-0.734-0.488-1.367-0.892-1.981
			c-1.168-1.772-1.571-4.21-1.69-6.311c-0.133-2.357,0.305-4.7,0.453-7.045c0.198-3.138,0.648-6.473-0.748-9.42
			c-0.724-1.529-1.895-2.807-3.182-3.906C92.47,146.243,76.366,147.501,72.274,160.133z"/>
		<path style="fill:#1F3749;" d="M80.415,145.678c3.915-0.793,8.095-0.697,12.41,0.261c6.796,1.509,11.946,5.68,13.941,12.484
			c0.094,0.322,0.189,0.666,0.094,0.989c-0.098,0.334-0.38,0.576-0.655,0.79c-3.61,2.819-7.369,3.176-11.645,4.096
			c-3.628,0.781-7.382,0.482-9.724,3.991c-1.302,1.95-1.68,4.347-2.289,6.611c-0.707,2.628-1.754,5.292-3.434,7.425
			c-2.355,2.99-2.219,7.421-3.622,10.93c-0.151,0.377-0.352,0.793-0.738,0.917c-0.434,0.139-0.876-0.156-1.234-0.438
			c-4.208-3.326-7.999-7.286-10.535-12.013C54.957,166.76,64.019,148.998,80.415,145.678z"/>
		<path style="fill:#EDA585;" d="M79.986,173.767c-1.375-1.409-3.394-2.009-4.786-0.032c-1.542,2.191-1.009,5.159,0.365,7.289
			c1.258,1.95,4.132,3.972,5.676,1.111c0.441-0.816,0.557-1.768,0.579-2.695c0.034-1.426-0.146-2.885-0.77-4.167
			C80.784,174.729,80.416,174.208,79.986,173.767z"/>
		<path style="fill:#E96D59;" d="M102.627,190.138c-0.269,0.33-0.69,0.513-1.113,0.564c-0.423,0.051-0.852-0.019-1.266-0.12
			c-0.945-0.233-1.832-0.557-2.579-1.197c-0.877-0.752-1.587-1.879-2.163-2.868c0.824,0.587,1.853,0.814,2.861,0.903
			c1.008,0.089,2.026,0.055,3.03,0.186C102.648,187.768,103.571,188.981,102.627,190.138z"/>
		<path style="fill:#392C3F;" d="M100.698,173.377c0.204,1.459-0.286,2.734-1.094,2.846c-0.808,0.113-1.628-0.979-1.832-2.438
			c-0.204-1.459,0.286-2.734,1.094-2.846C99.674,170.826,100.495,171.917,100.698,173.377z"/>
		<path style="fill:#D55345;" d="M96.874,187.723c-0.452-0.223-0.938-0.494-1.332-0.806c-0.306-0.243-0.647-0.855-0.986-1
			c1.512,0.647,3.227,0.599,4.856,0.377c1.003-0.136,2.329-0.395,3.293-0.044c0.264,0.096,0.532,0.197,0.756,0.365
			s0.405,0.418,0.426,0.698c0.049,0.656-0.591,1.204-1.187,1.283C100.763,188.851,98.631,188.591,96.874,187.723z"/>
		<polygon style="fill:#A35F4F;" points="106.656,314.603 117.991,377.436 112.324,377.436 99.99,314.603 		"/>
		<polygon style="fill:#6C3834;" points="51.75,314.603 40.416,377.436 46.083,377.436 58.417,314.603 		"/>
		<polygon style="fill:#A35F4F;" points="43.75,314.603 32.415,377.436 38.082,377.436 50.416,314.603 		"/>
		<g>
			<g>
				<path style="fill:#392C3F;" d="M98.941,170.928c-0.834,0.084-1.668,0.167-2.502,0.251c-0.403,0.04-0.75,0.316-0.75,0.75
					c0,0.374,0.344,0.791,0.75,0.75c0.834-0.084,1.668-0.167,2.502-0.251c0.403-0.04,0.75-0.316,0.75-0.75
					C99.691,171.304,99.346,170.887,98.941,170.928L98.941,170.928z"/>
			</g>
		</g>
		<g>
			<g>
				<path style="fill:#1F3749;" d="M95.017,170.125c1.296-1.467,3.722-2.122,5.496-1.302c0.87,0.402,1.633-0.89,0.757-1.295
					c-2.397-1.108-5.525-0.487-7.314,1.537C93.319,169.785,94.376,170.85,95.017,170.125L95.017,170.125z"/>
			</g>
		</g>
	</g>
	
		<rect x="389.586" y="264.35" transform="matrix(-1 -1.224647e-16 1.224647e-16 -1 788.4353 641.7865)" style="fill:#6C3834;" width="9.262" height="113.086"/>
	
		<rect x="103.383" y="264.35" transform="matrix(-1 -1.224647e-16 1.224647e-16 -1 216.0296 641.7865)" style="fill:#6C3834;" width="9.263" height="113.086"/>
	<path style="fill:#8589AF;" d="M214.613,236.449c-0.25,0-14.304,0-14.304,0l2.75,17.833h9.25L214.613,236.449z"/>
	<g>
		<defs>
			<path id="SVGID_1_" d="M85.684,310.561c38.507,22.837,281.506,20.832,330.071,0l-6.261-56.33H91.945L85.684,310.561z"/>
		</defs>
		<use xlink:href="#SVGID_1_"  style="overflow:visible;fill:#FFFFFF;"/>
		<clipPath id="SVGID_00000120531361596819317740000014396212733914116242_">
			<use xlink:href="#SVGID_1_"  style="overflow:visible;"/>
		</clipPath>
		<g style="clip-path:url(#SVGID_00000120531361596819317740000014396212733914116242_);">
			
				<line style="opacity:0.5;fill:none;stroke:#EF535B;stroke-width:8;stroke-miterlimit:10;" x1="54.633" y1="258.449" x2="259.711" y2="463.526"/>
			
				<line style="opacity:0.5;fill:none;stroke:#EF535B;stroke-width:8;stroke-miterlimit:10;" x1="81.377" y1="231.705" x2="286.454" y2="436.783"/>
			
				<line style="opacity:0.5;fill:none;stroke:#EF535B;stroke-width:8;stroke-miterlimit:10;" x1="108.12" y1="204.961" x2="313.198" y2="410.039"/>
			
				<line style="opacity:0.5;fill:none;stroke:#EF535B;stroke-width:8;stroke-miterlimit:10;" x1="134.864" y1="178.218" x2="339.941" y2="383.295"/>
			
				<line style="opacity:0.5;fill:none;stroke:#EF535B;stroke-width:8;stroke-miterlimit:10;" x1="161.607" y1="151.474" x2="366.685" y2="356.552"/>
			
				<line style="opacity:0.5;fill:none;stroke:#EF535B;stroke-width:8;stroke-miterlimit:10;" x1="188.351" y1="124.731" x2="393.428" y2="329.808"/>
			
				<line style="opacity:0.5;fill:none;stroke:#EF535B;stroke-width:8;stroke-miterlimit:10;" x1="215.094" y1="97.987" x2="420.172" y2="303.065"/>
			
				<line style="opacity:0.5;fill:none;stroke:#EF535B;stroke-width:8;stroke-miterlimit:10;" x1="241.838" y1="71.244" x2="446.916" y2="276.321"/>
			
				<line style="opacity:0.5;fill:none;stroke:#EF535B;stroke-width:8;stroke-miterlimit:10;" x1="241.838" y1="463.526" x2="446.916" y2="258.449"/>
			
				<line style="opacity:0.5;fill:none;stroke:#EF535B;stroke-width:8;stroke-miterlimit:10;" x1="215.094" y1="436.783" x2="420.172" y2="231.705"/>
			
				<line style="opacity:0.5;fill:none;stroke:#EF535B;stroke-width:8;stroke-miterlimit:10;" x1="188.351" y1="410.039" x2="393.428" y2="204.961"/>
			
				<line style="opacity:0.5;fill:none;stroke:#EF535B;stroke-width:8;stroke-miterlimit:10;" x1="161.607" y1="383.295" x2="366.685" y2="178.218"/>
			
				<line style="opacity:0.5;fill:none;stroke:#EF535B;stroke-width:8;stroke-miterlimit:10;" x1="134.864" y1="356.552" x2="339.941" y2="151.474"/>
			
				<line style="opacity:0.5;fill:none;stroke:#EF535B;stroke-width:8;stroke-miterlimit:10;" x1="108.12" y1="329.808" x2="313.198" y2="124.731"/>
			
				<line style="opacity:0.5;fill:none;stroke:#EF535B;stroke-width:8;stroke-miterlimit:10;" x1="81.377" y1="303.065" x2="286.454" y2="97.987"/>
			
				<line style="opacity:0.5;fill:none;stroke:#EF535B;stroke-width:8;stroke-miterlimit:10;" x1="54.633" y1="276.321" x2="259.711" y2="71.244"/>
		</g>
	</g>
	<path style="fill:#1F3749;" d="M58.261,143.904c-2.272,4.111-2.394,9.881,2.119,12.536c2.157,1.269,4.819,1.495,7.271,0.999
		c4.167-0.842,8.517-3.464,10.966-6.964c0.896-1.281,1.582-2.768,1.608-4.331c0.088-5.328-6.814-9.833-11.647-9.598
		C64.368,136.752,60.421,139.995,58.261,143.904z"/>
	<polygon style="opacity:0.2;fill:#231F20;" points="99.99,263 401.484,263 415.755,310.561 409.495,254.232 91.945,254.232 
		85.684,310.561 	"/>
</g>
<g id="DESIGNED_BY_FREEPIK">
	<g>
		<g id="XMLID_1_">
			<g id="XMLID_20_">
				<path id="XMLID_28_" style="fill:#222221;" d="M261.646,476.736c-0.49,0.502-0.91,1.054-1.255,1.646l-0.527-0.273
					c-0.076-0.337-0.396-0.569-0.746-0.528c-0.375,0.044-0.643,0.384-0.599,0.758c0.044,0.375,0.384,0.643,0.758,0.599
					c0.074-0.009,0.144-0.029,0.208-0.059l0.511,0.265c-0.284,0.627-0.49,1.289-0.611,1.975l0.845,0.149
					c0.26-1.479,0.962-2.839,2.029-3.932L261.646,476.736z"/>
				<path id="XMLID_27_" style="fill:#222221;" d="M267.861,474.129c-0.194,0-0.386,0.007-0.577,0.019l-0.083-0.709
					c0.212-0.169,0.335-0.441,0.301-0.73c-0.052-0.445-0.456-0.764-0.901-0.711c-0.445,0.052-0.763,0.456-0.711,0.901
					c0.034,0.288,0.214,0.522,0.458,0.638l0.083,0.707c-0.808,0.132-1.589,0.376-2.332,0.731l0.37,0.774
					c1.058-0.506,2.199-0.762,3.392-0.762c0.562,0,1.124,0.06,1.67,0.178l0.182-0.839
					C269.107,474.196,268.484,474.129,267.861,474.129z"/>
				<path id="XMLID_26_" style="fill:#222221;" d="M275.337,477.014c0.375-0.046,0.641-0.387,0.595-0.761
					c-0.046-0.375-0.387-0.641-0.761-0.595c-0.35,0.043-0.606,0.344-0.6,0.689l-0.471,0.411c-0.473-0.487-1.007-0.92-1.594-1.29
					l-0.458,0.726c1.284,0.809,2.288,1.955,2.903,3.313l0.782-0.354c-0.284-0.627-0.643-1.214-1.067-1.75l0.456-0.397
					C275.191,477.019,275.263,477.023,275.337,477.014z"/>
				<path id="XMLID_25_" style="fill:#222221;" d="M267.24,485.689c-0.437,0.026-0.877,0.039-1.31,0.039
					c-0.997,0-1.962-0.069-2.807-0.203c-0.442-0.07-0.958-0.176-1.439-0.331c1.185,2.107,3.476,3.539,6.102,3.539
					c3.234,0,5.959-2.17,6.737-5.1c-0.772,0.509-1.705,0.935-2.784,1.271C270.405,485.321,268.848,485.592,267.24,485.689z"/>
				<path id="XMLID_21_" style="fill:#222221;" d="M267.861,475.846c-3.796,0-6.884,3.019-6.884,6.73
					c0,0.482,0.052,0.962,0.155,1.428c0.762,0.547,3.064,1.008,6.055,0.828c3.261-0.196,5.998-1.084,7.556-2.444
					c-0.006-0.221-0.023-0.442-0.051-0.659C274.261,478.375,271.324,475.846,267.861,475.846z M265.415,483.223
					c-1.155,0-2.095-0.94-2.095-2.095c0-1.155,0.94-2.095,2.095-2.095c1.155,0,2.095,0.94,2.095,2.095
					C267.51,482.284,266.57,483.223,265.415,483.223z M270.78,482.195c-0.849,0-1.54-0.691-1.54-1.54
					c0-0.849,0.691-1.541,1.54-1.541c0.849,0,1.541,0.691,1.541,1.541C272.32,481.504,271.629,482.195,270.78,482.195z"/>
			</g>
			<path id="XMLID_18_" style="fill:#222221;" d="M285.983,477.96c-0.334-0.131-0.912-0.35-1.565-0.269
				c-0.624,0.078-0.955,0.386-0.955,1.14v0.981h2.523v1.944h-2.523v6.177h-2.188v-6.177h-1.517v-1.944h1.517v-1.006
				c0-1.902,1.014-3.151,2.908-3.151c0.728,0,1.31,0.138,1.8,0.349L285.983,477.96z"/>
			<path id="XMLID_16_" style="fill:#222221;" d="M291.308,481.733c-0.2-0.034-0.405-0.052-0.596-0.052
				c-1.014,0-1.71,0.62-1.71,1.827v4.425h-2.188v-8.121h2.12v0.888c0.511-0.763,1.291-1.106,2.288-1.106
				c0.469,0,0.96,0.144,1.239,0.381L291.308,481.733z"/>
			<path id="XMLID_13_" style="fill:#222221;" d="M299.99,483.86c0,0.251-0.017,0.553-0.042,0.738h-5.758
				c0.235,1.173,1.056,1.685,2.087,1.685c0.704,0,1.467-0.285,2.053-0.779l1.282,1.408c-0.922,0.846-2.095,1.232-3.461,1.232
				c-2.489,0-4.216-1.693-4.216-4.249c0-2.556,1.676-4.3,4.107-4.3C298.381,479.594,299.982,481.329,299.99,483.86z
				 M294.199,483.106h3.595c-0.201-1.039-0.83-1.626-1.768-1.626C294.995,481.48,294.392,482.1,294.199,483.106z"/>
			<path id="XMLID_10_" style="fill:#222221;" d="M308.657,483.86c0,0.251-0.017,0.553-0.042,0.738h-5.758
				c0.235,1.173,1.056,1.685,2.087,1.685c0.704,0,1.467-0.285,2.053-0.779l1.282,1.408c-0.922,0.846-2.095,1.232-3.461,1.232
				c-2.489,0-4.216-1.693-4.216-4.249c0-2.556,1.676-4.3,4.107-4.3C307.048,479.594,308.649,481.329,308.657,483.86z
				 M302.866,483.106h3.596c-0.201-1.039-0.83-1.626-1.768-1.626C303.662,481.48,303.058,482.1,302.866,483.106z"/>
			<path id="XMLID_7_" style="fill:#222221;" d="M318.108,483.869c0,2.439-1.693,4.274-3.931,4.274c-1.09,0-1.861-0.427-2.389-1.056
				v4.199h-2.179v-11.474h2.137v0.897c0.528-0.662,1.307-1.115,2.422-1.115C316.414,479.594,318.108,481.43,318.108,483.869z
				 M311.679,483.869c0,1.282,0.846,2.238,2.087,2.238c1.291,0,2.095-0.997,2.095-2.238c0-1.24-0.805-2.238-2.095-2.238
				C312.526,481.631,311.679,482.586,311.679,483.869z"/>
			<path id="XMLID_4_" style="fill:#222221;" d="M321.622,477.155c0,0.788-0.612,1.391-1.4,1.391c-0.788,0-1.391-0.603-1.391-1.391
				c0-0.788,0.604-1.408,1.391-1.408C321.01,475.747,321.622,476.367,321.622,477.155z M321.329,487.934h-2.188v-8.121h2.188
				V487.934z"/>
			<path id="XMLID_2_" style="fill:#222221;" d="M324.979,482.704l3.059-2.892h2.682l-3.939,3.822l3.964,4.3h-2.69l-3.076-3.285
				v3.285h-2.188v-12.069h2.188V482.704z"/>
		</g>
		<g>
			<path style="fill:#222221;" d="M175.933,487.86v-1.194c-0.597,0.813-1.576,1.393-2.704,1.393c-2.09,0-3.566-1.592-3.566-4.196
				c0-2.555,1.46-4.213,3.566-4.213c1.078,0,2.057,0.531,2.704,1.41v-4.263h1.244v11.064H175.933z M175.933,485.687v-3.633
				c-0.448-0.697-1.41-1.294-2.405-1.294c-1.609,0-2.571,1.327-2.571,3.102c0,1.775,0.962,3.085,2.571,3.085
				C174.523,486.948,175.485,486.384,175.933,485.687z"/>
			<path style="fill:#222221;" d="M178.786,483.846c0-2.322,1.659-4.197,3.948-4.197c2.422,0,3.848,1.891,3.848,4.296v0.315h-6.486
				c0.1,1.509,1.161,2.77,2.886,2.77c0.912,0,1.841-0.365,2.471-1.012l0.597,0.813c-0.796,0.796-1.874,1.227-3.185,1.227
				C180.495,488.059,178.786,486.351,178.786,483.846z M182.717,480.678c-1.709,0-2.555,1.443-2.621,2.67h5.258
				C185.338,482.154,184.542,480.678,182.717,480.678z"/>
			<path style="fill:#222221;" d="M187.477,486.798l0.647-0.896c0.531,0.614,1.543,1.145,2.637,1.145
				c1.228,0,1.891-0.581,1.891-1.377c0-1.94-4.96-0.746-4.96-3.716c0-1.244,1.078-2.305,2.985-2.305c1.36,0,2.323,0.514,2.969,1.161
				l-0.581,0.862c-0.481-0.581-1.36-1.012-2.389-1.012c-1.095,0-1.775,0.548-1.775,1.261c0,1.758,4.96,0.597,4.96,3.716
				c0,1.344-1.078,2.422-3.151,2.422C189.402,488.059,188.29,487.661,187.477,486.798z"/>
			<path style="fill:#222221;" d="M195.257,477.875c0-0.464,0.382-0.846,0.829-0.846c0.465,0,0.846,0.381,0.846,0.846
				c0,0.465-0.381,0.829-0.846,0.829C195.639,478.704,195.257,478.339,195.257,477.875z M195.472,487.86v-8.011h1.244v8.011H195.472
				z"/>
			<path style="fill:#222221;" d="M198.773,489.917l0.63-0.929c0.663,0.796,1.46,1.095,2.604,1.095c1.327,0,2.571-0.647,2.571-2.405
				v-1.145c-0.581,0.813-1.559,1.427-2.687,1.427c-2.09,0-3.566-1.559-3.566-4.147c0-2.571,1.46-4.163,3.566-4.163
				c1.078,0,2.04,0.531,2.687,1.41v-1.211h1.244v7.779c0,2.654-1.858,3.483-3.815,3.483
				C200.647,491.111,199.718,490.846,198.773,489.917z M204.579,485.555v-3.5c-0.432-0.697-1.393-1.294-2.389-1.294
				c-1.609,0-2.571,1.277-2.571,3.052c0,1.758,0.962,3.052,2.571,3.052C203.185,486.865,204.147,486.251,204.579,485.555z"/>
			<path style="fill:#222221;" d="M213.303,487.86v-5.242c0-1.41-0.713-1.858-1.791-1.858c-0.979,0-1.908,0.597-2.372,1.244v5.855
				h-1.244v-8.011h1.244v1.161c0.564-0.663,1.658-1.36,2.853-1.36c1.676,0,2.555,0.846,2.555,2.588v5.623H213.303z"/>
			<path style="fill:#222221;" d="M216.156,483.846c0-2.322,1.659-4.197,3.948-4.197c2.422,0,3.848,1.891,3.848,4.296v0.315h-6.486
				c0.099,1.509,1.161,2.77,2.886,2.77c0.912,0,1.841-0.365,2.472-1.012l0.597,0.813c-0.796,0.796-1.874,1.227-3.185,1.227
				C217.865,488.059,216.156,486.351,216.156,483.846z M220.087,480.678c-1.708,0-2.555,1.443-2.621,2.67h5.258
				C222.708,482.154,221.912,480.678,220.087,480.678z"/>
			<path style="fill:#222221;" d="M231.35,487.86v-1.194c-0.597,0.813-1.576,1.393-2.704,1.393c-2.09,0-3.566-1.592-3.566-4.196
				c0-2.555,1.46-4.213,3.566-4.213c1.078,0,2.057,0.531,2.704,1.41v-4.263h1.244v11.064H231.35z M231.35,485.687v-3.633
				c-0.448-0.697-1.41-1.294-2.405-1.294c-1.609,0-2.571,1.327-2.571,3.102c0,1.775,0.962,3.085,2.571,3.085
				C229.94,486.948,230.902,486.384,231.35,485.687z"/>
			<path style="fill:#222221;" d="M238.532,487.86v-11.064h1.244v4.263c0.647-0.879,1.609-1.41,2.704-1.41
				c2.09,0,3.566,1.659,3.566,4.213c0,2.604-1.476,4.196-3.566,4.196c-1.128,0-2.107-0.581-2.704-1.393v1.194H238.532z
				 M242.164,486.948c1.626,0,2.588-1.31,2.588-3.085c0-1.775-0.962-3.102-2.588-3.102c-0.979,0-1.957,0.597-2.388,1.294v3.633
				C240.207,486.384,241.186,486.948,242.164,486.948z"/>
			<path style="fill:#222221;" d="M247.406,489.867c0.182,0.083,0.481,0.133,0.68,0.133c0.547,0,0.912-0.182,1.194-0.846
				l0.531-1.211l-3.351-8.095h1.344l2.671,6.568l2.654-6.568h1.36l-4.014,9.637c-0.481,1.161-1.294,1.609-2.355,1.625
				c-0.265,0-0.68-0.05-0.912-0.116L247.406,489.867z"/>
		</g>
	</g>
</g>
</svg>
