<?xml version="1.0" encoding="utf-8"?>
<!-- Generator: Adobe Illustrator 27.5.0, SVG Export Plug-In . SVG Version: 6.00 Build 0)  -->
<svg version="1.1" xmlns="http://www.w3.org/2000/svg" xmlns:xlink="http://www.w3.org/1999/xlink" x="0px" y="0px"
	 viewBox="0 0 500 500" style="enable-background:new 0 0 500 500;" xml:space="preserve">
<g id="Background">
	<rect x="0" style="fill:#00284F;" width="500" height="500"/>
</g>
<g id="Layer_1">
	<g>
		<g>
			<path style="fill:#F8FF30;" d="M426.039,226.286c0,0-5.228-0.038-16.145-16.051c-5.55-8.14-14.848-7.278-11.791-3.639
				c3.057,3.639,5.923,19.07-2.885,23.059l18.022,5.618L426.039,226.286z"/>
			<path style="fill:#7FE339;" d="M407.796,211.159c10.916,16.013,16.143,16.051,16.143,16.051l-11.24,7.894l-17.479-5.449
				c8.808-3.988,5.941-19.42,2.885-23.059c-0.581-0.691-0.714-1.282-0.513-1.73C400.202,204.787,404.612,206.492,407.796,211.159z"
				/>
			<path style="fill:#F8FF30;" d="M417.317,258.158c0,0-5.531,6.955-19.214,4.627c0,0,10.243-3.402,9.677-12.418l2.771,1.055
				L417.317,258.158z"/>
			<path style="fill:#7FE339;" d="M389.954,248.711c0,0-12.395-7.709-26.832,8.279c-2.721,3.012-4.779,2.841-4.779,2.841
				s9.047-10.736,9.939-18.341c0.058-0.482,0.058-1.459,0-1.941c-0.893-7.605-9.939-18.341-9.939-18.341s2.059-0.171,4.779,2.84
				c14.438,15.989,26.906,8.211,26.906,8.211L389.954,248.711z"/>
			<path style="fill:#5BBD17;" d="M378.912,233.857c3.265,0.576,5.995,0.205,7.935-0.325c0.518,0.511,1.764,1.736,3.162,3.054
				l-0.055,12.125c0,0-4.004-2.484-10.108-1.701l-5.659-7.89L378.912,233.857z"/>
			<path style="fill:#F8FF30;" d="M423.183,257.923c2.695-14.4,15.491-12.451,15.725-12.414
				C434.14,252.463,428.742,256.267,423.183,257.923z"/>
			<g id="XMLID_14_">
				<g>
					<path style="fill:#9CF75C;" d="M442.542,239.552h-63.977C424.89,206.048,442.542,239.552,442.542,239.552z"/>
					<path style="fill:#74E01F;" d="M378.565,239.552h63.977c-0.207,0.373-1.768,3.038-2.023,3.459
						C417.813,280.815,378.565,239.552,378.565,239.552z"/>
				</g>
			</g>
			<path style="fill:#FFFFFF;" d="M424.649,236.196c0,2.605,2.112,4.717,4.717,4.717c2.605,0,4.717-2.112,4.717-4.717
				c0-2.605-2.111-4.717-4.717-4.717C426.762,231.48,424.649,233.591,424.649,236.196z"/>
			<path d="M426.442,236.196c0,1.615,1.31,2.924,2.924,2.924c1.615,0,2.924-1.309,2.924-2.924c0-1.615-1.309-2.923-2.924-2.923
				C427.752,233.273,426.442,234.581,426.442,236.196z"/>
		</g>
		<g>
			<g>
				<path style="fill:#ED0003;" d="M179.165,170.353c-3.061-2.299-5.612-3.914-7.489-3.393c1.928,1.606,3.503,3.614,4.599,5.892
					c1.092,2.278,1.706,4.837,1.706,7.538c0,5.402-2.449,10.23-6.304,13.442c1.465,0.382,3.334-0.451,5.542-1.847l0.009-0.01
					c2.77-3.304,4.445-7.549,4.445-12.197c0-3.433-0.913-6.645-2.507-9.416V170.353z"/>
				<path style="fill:#FF6B6E;" d="M181.672,179.779c0-3.433-0.913-6.645-2.507-9.416c1.707,1.275,3.573,2.78,5.582,4.236
					c4.617,2.7,9.245,3.564,13.28,3.533h0.01c5.279-0.03,9.565-1.565,11.573-2.429c-3.182,1.527-6.484,3.242-9.917,5.179
					c0,0,4.105,2.129,10.63,4.697c-0.643-0.229-1.586-0.551-2.771-0.862c-0.009,0-0.032-0.01-0.041-0.01
					c-4.948-1.306-14.332-3.085-22.765,2.128c-1.938,1.198-5.332,3.754-7.52,5.141C179.998,188.672,181.672,184.427,181.672,179.779
					z"/>
				<path style="opacity:0.68;fill:#E85A5D;" d="M199.693,180.882h-18.021c-0.014,0.106-0.036,0.232-0.065,0.369
					c-0.315,4.069-1.906,7.773-4.38,10.725c2.188-1.386,5.581-3.943,7.52-5.141c8.433-5.213,17.817-3.434,22.765-2.128
					c0.009,0,0.032,0.01,0.041,0.01c1.185,0.311,2.128,0.634,2.771,0.862C203.798,183.012,199.693,180.882,199.693,180.882z"/>
				<path style="fill:#FF6B6E;" d="M210.323,185.58c-0.643-0.229-1.586-0.551-2.771-0.862c14.304,5.2,19.724,15.218,19.724,15.218
					c1.177-0.794,2.399-1.496,3.624-2.088c0,0-5.661-7.168-9.244-8.321c-0.012-0.012-0.02-0.012-0.02-0.012
					c-3.815-1.152-7.316-2.387-10.339-3.552c-0.13-0.051-0.263-0.101-0.391-0.161c-0.121-0.04-0.241-0.09-0.362-0.141
					C210.475,185.64,210.395,185.612,210.323,185.58z"/>
				<path style="fill:#ED0003;" d="M243.521,193.974c-7.721-0.704-15.27-2.451-21.864-4.447c3.583,1.153,9.244,8.321,9.244,8.321
					c6.265-3.102,12.62-3.864,12.62-3.864V193.974z"/>
				<path style="fill:#FF6B6E;" d="M210.844,175.121c0.371-0.171,0.744-0.341,1.105-0.511c8.594-4.889,8.763-16.102,8.763-16.102
					c-1.545-0.663-3.03-1.376-4.426-2.159c0,0,1.938,17.186-18.249,21.783c5.279-0.03,9.565-1.565,11.573-2.429
					c0.009-0.01,0.021-0.01,0.031-0.01c0.4-0.191,0.792-0.381,1.184-0.562C210.835,175.121,210.835,175.121,210.844,175.121z"/>
				<path style="fill:#ED0003;" d="M220.712,158.508c0,0-0.169,11.212-8.763,16.102c15.298-7.008,27.736-9.447,37.704-9.366
					C249.653,165.244,233.322,163.868,220.712,158.508z"/>
				<path style="fill:#FF6B6E;" d="M210.825,175.131c-0.393,0.181-0.784,0.371-1.184,0.562
					C210.334,175.394,210.746,175.171,210.825,175.131z"/>
				<path style="fill:#FF6B6E;" d="M210.543,185.661c0.121,0.051,0.241,0.102,0.362,0.141
					C210.806,185.762,210.684,185.712,210.543,185.661z"/>
				<path style="fill:#ED0003;" d="M214.669,180.552c-1.868,0-3.382,0.372-3.382,0.832c0,0.462,1.515,0.843,3.382,0.843
					c1.868,0,3.374-0.381,3.374-0.843C218.042,180.924,216.537,180.552,214.669,180.552z"/>
				<path style="fill:#ED0003;" d="M224.557,174.529c-1.867,0-3.372,0.371-3.372,0.833c0,0.462,1.505,0.842,3.372,0.842
					c1.866,0,3.381-0.38,3.381-0.842C227.938,174.9,226.423,174.529,224.557,174.529z"/>
				<path style="fill:#ED0003;" d="M224.557,180.552c-1.867,0-3.372,0.372-3.372,0.832c0,0.462,1.505,0.843,3.372,0.843
					c1.866,0,3.381-0.381,3.381-0.843C227.938,180.924,226.423,180.552,224.557,180.552z"/>
				<path style="fill:#ED0003;" d="M233.914,176.204c1.865,0,3.381-0.38,3.381-0.842c0-0.462-1.516-0.833-3.381-0.833
					c-1.868,0-3.384,0.371-3.384,0.833C230.53,175.824,232.046,176.204,233.914,176.204z"/>
				<path style="fill:#ED0003;" d="M233.914,182.227c1.865,0,3.381-0.381,3.381-0.843c0-0.46-1.516-0.832-3.381-0.832
					c-1.868,0-3.384,0.372-3.384,0.832C230.53,181.847,232.046,182.227,233.914,182.227z"/>
				<path style="fill:#ED0003;" d="M233.914,188.24c1.865,0,3.381-0.37,3.381-0.833c0-0.461-1.516-0.833-3.381-0.833
					c-1.868,0-3.384,0.372-3.384,0.833C230.53,187.87,232.046,188.24,233.914,188.24z"/>
				<path style="fill:#ED0003;" d="M242.806,172.521c-1.865,0-3.371,0.372-3.371,0.834c0,0.461,1.505,0.843,3.371,0.843
					c1.868,0,3.385-0.382,3.385-0.843C246.19,172.893,244.673,172.521,242.806,172.521z"/>
				<path style="fill:#ED0003;" d="M242.806,178.544c-1.865,0-3.371,0.373-3.371,0.833c0,0.462,1.505,0.843,3.371,0.843
					c1.868,0,3.385-0.381,3.385-0.843C246.19,178.917,244.673,178.544,242.806,178.544z"/>
				<path style="fill:#ED0003;" d="M242.806,184.567c-1.865,0-3.371,0.372-3.371,0.833c0,0.463,1.505,0.843,3.371,0.843
					c1.868,0,3.385-0.38,3.385-0.843C246.19,184.939,244.673,184.567,242.806,184.567z"/>
				<path style="fill:#ED0003;" d="M251.922,169.51c-1.867,0-3.383,0.381-3.383,0.843c0,0.462,1.517,0.833,3.383,0.833
					c1.867,0,3.372-0.372,3.372-0.833C255.294,169.891,253.789,169.51,251.922,169.51z"/>
				<path style="fill:#ED0003;" d="M251.922,175.532c-1.867,0-3.383,0.373-3.383,0.833c0,0.463,1.517,0.843,3.383,0.843
					c1.867,0,3.372-0.38,3.372-0.843C255.294,175.905,253.789,175.532,251.922,175.532z"/>
				<path style="fill:#ED0003;" d="M251.922,181.555c-1.867,0-3.383,0.372-3.383,0.833c0,0.463,1.517,0.843,3.383,0.843
					c1.867,0,3.372-0.38,3.372-0.843C255.294,181.927,253.789,181.555,251.922,181.555z"/>
				<path style="fill:#ED0003;" d="M251.922,187.578c-1.867,0-3.383,0.372-3.383,0.833c0,0.463,1.517,0.834,3.383,0.834
					c1.867,0,3.372-0.371,3.372-0.834C255.294,187.95,253.789,187.578,251.922,187.578z"/>
				<path style="fill:#FF6B6E;" d="M199.693,180.882c0,0,4.105,2.129,10.63,4.697c0.071,0.032,0.151,0.061,0.22,0.081
					c0.14,0.051,0.263,0.102,0.362,0.141c0.128,0.061,0.261,0.11,0.391,0.161c3.023,1.164,6.524,2.399,10.339,3.552
					c0,0,0.009,0,0.02,0.012c6.595,1.996,14.144,3.744,21.864,4.447c14.043,1.294,28.657-0.843,39.106-11.193
					c0.475-0.453,0.934-0.934,1.388-1.435c0,0-0.432-0.713-1.337-1.847c-3.383-4.196-13.422-14.093-33.025-14.254
					c-9.968-0.081-22.406,2.358-37.704,9.366c-0.361,0.17-0.733,0.34-1.105,0.511c-0.009,0-0.009,0-0.019,0.01
					c-0.079,0.04-0.491,0.263-1.184,0.562c-0.009,0-0.022,0-0.031,0.01C206.428,177.23,203.126,178.945,199.693,180.882z
					 M248.539,188.411c0-0.461,1.517-0.833,3.383-0.833c1.867,0,3.372,0.372,3.372,0.833c0,0.463-1.505,0.834-3.372,0.834
					C250.055,189.245,248.539,188.874,248.539,188.411z M248.539,182.389c0-0.462,1.517-0.833,3.383-0.833
					c1.867,0,3.372,0.372,3.372,0.833c0,0.463-1.505,0.843-3.372,0.843C250.055,183.231,248.539,182.852,248.539,182.389z
					 M248.539,176.365c0-0.46,1.517-0.833,3.383-0.833c1.867,0,3.372,0.373,3.372,0.833c0,0.463-1.505,0.843-3.372,0.843
					C250.055,177.208,248.539,176.828,248.539,176.365z M248.539,170.353c0-0.462,1.517-0.843,3.383-0.843
					c1.867,0,3.372,0.381,3.372,0.843c0,0.462-1.505,0.833-3.372,0.833C250.055,171.186,248.539,170.814,248.539,170.353z
					 M239.435,185.399c0-0.46,1.505-0.833,3.371-0.833c1.868,0,3.385,0.372,3.385,0.833c0,0.463-1.517,0.843-3.385,0.843
					C240.94,186.243,239.435,185.862,239.435,185.399z M239.435,179.377c0-0.46,1.505-0.833,3.371-0.833
					c1.868,0,3.385,0.373,3.385,0.833c0,0.462-1.517,0.843-3.385,0.843C240.94,180.22,239.435,179.839,239.435,179.377z
					 M239.435,173.355c0-0.462,1.505-0.834,3.371-0.834c1.868,0,3.385,0.372,3.385,0.834c0,0.461-1.517,0.843-3.385,0.843
					C240.94,174.198,239.435,173.816,239.435,173.355z M230.53,187.407c0-0.461,1.516-0.833,3.384-0.833
					c1.865,0,3.381,0.372,3.381,0.833c0,0.463-1.516,0.833-3.381,0.833C232.046,188.24,230.53,187.87,230.53,187.407z
					 M230.53,181.384c0-0.46,1.516-0.832,3.384-0.832c1.865,0,3.381,0.372,3.381,0.832c0,0.462-1.516,0.843-3.381,0.843
					C232.046,182.227,230.53,181.847,230.53,181.384z M230.53,175.362c0-0.462,1.516-0.833,3.384-0.833
					c1.865,0,3.381,0.371,3.381,0.833c0,0.462-1.516,0.842-3.381,0.842C232.046,176.204,230.53,175.824,230.53,175.362z
					 M221.185,181.384c0-0.46,1.505-0.832,3.372-0.832c1.866,0,3.381,0.372,3.381,0.832c0,0.462-1.515,0.843-3.381,0.843
					C222.69,182.227,221.185,181.847,221.185,181.384z M221.185,175.362c0-0.462,1.505-0.833,3.372-0.833
					c1.866,0,3.381,0.371,3.381,0.833c0,0.462-1.515,0.842-3.381,0.842C222.69,176.204,221.185,175.824,221.185,175.362z
					 M211.287,181.384c0-0.46,1.515-0.832,3.382-0.832c1.868,0,3.374,0.372,3.374,0.832c0,0.462-1.506,0.843-3.374,0.843
					C212.801,182.227,211.287,181.847,211.287,181.384z"/>
				<path style="opacity:0.68;fill:#E85A5D;" d="M199.693,180.882c0,0,4.105,2.129,10.63,4.697c0.071,0.032,0.151,0.061,0.22,0.081
					c0.14,0.051,0.263,0.102,0.362,0.141c0.128,0.061,0.261,0.11,0.391,0.161c3.023,1.164,6.524,2.399,10.339,3.552
					c0,0,0.009,0,0.02,0.012c6.595,1.996,14.144,3.744,21.864,4.447c14.043,1.294,28.657-0.843,39.106-11.193
					c0.475-0.453,0.934-0.934,1.388-1.435C284.015,181.345,222.651,180.882,199.693,180.882z"/>
			</g>
			<path style="fill:#FFFFFF;" d="M262.741,177.208c0,2.996,2.428,5.423,5.423,5.423c2.995,0,5.423-2.427,5.423-5.423
				c0-2.995-2.428-5.42-5.423-5.42C265.169,171.788,262.741,174.213,262.741,177.208z"/>
			<path d="M264.803,177.208c0,1.857,1.505,3.361,3.361,3.361c1.855,0,3.36-1.504,3.36-3.361c0-1.855-1.505-3.36-3.36-3.36
				C266.308,173.848,264.803,175.352,264.803,177.208z"/>
		</g>
		<g>
			<g>
				<path style="fill:#A74FA8;" d="M313.083,358.303c-2.58-1.936-4.729-3.298-6.31-2.858c1.624,1.354,2.952,3.044,3.875,4.963
					c0.92,1.92,1.437,4.074,1.437,6.351c0,4.55-2.065,8.617-5.312,11.322c1.234,0.322,2.809-0.38,4.67-1.556l0.007-0.008
					c2.333-2.783,3.743-6.359,3.743-10.274c0-2.892-0.768-5.598-2.11-7.932V358.303z"/>
				<path style="fill:#BFB5FF;" d="M315.193,366.242c0-2.892-0.768-5.598-2.11-7.932c1.437,1.074,3.009,2.342,4.7,3.569
					c3.891,2.273,7.789,3.002,11.188,2.976h0.007c4.448-0.025,8.059-1.319,9.75-2.046c-2.682,1.286-5.462,2.731-8.353,4.363
					c0,0,3.458,1.793,8.954,3.957c-0.542-0.193-1.336-0.465-2.334-0.729c-0.008,0-0.026-0.008-0.034-0.008
					c-4.168-1.1-12.073-2.599-19.178,1.793c-1.632,1.009-4.49,3.162-6.333,4.33C313.783,373.733,315.193,370.157,315.193,366.242z"
					/>
				<path style="opacity:0.68;fill:#E85A5D;" d="M330.375,367.173h-15.182c-0.011,0.089-0.029,0.194-0.054,0.309
					c-0.265,3.428-1.605,6.548-3.689,9.034c1.843-1.168,4.701-3.321,6.333-4.33c7.104-4.392,15.01-2.893,19.178-1.793
					c0.008,0,0.026,0.008,0.034,0.008c0.998,0.264,1.792,0.535,2.334,0.729C333.833,368.966,330.375,367.173,330.375,367.173z"/>
				<path style="fill:#BFB5FF;" d="M339.329,371.13c-0.542-0.193-1.336-0.465-2.334-0.729c12.05,4.381,16.614,12.82,16.614,12.82
					c0.991-0.669,2.021-1.26,3.053-1.759c0,0-4.768-6.038-7.787-7.01c-0.009-0.01-0.016-0.01-0.016-0.01
					c-3.216-0.97-6.163-2.012-8.71-2.992c-0.11-0.043-0.222-0.084-0.33-0.135c-0.102-0.034-0.204-0.076-0.305-0.12
					C339.456,371.18,339.39,371.156,339.329,371.13z"/>
				<path style="fill:#A74FA8;" d="M367.294,378.199c-6.504-0.594-12.863-2.065-18.419-3.746c3.019,0.972,7.787,7.01,7.787,7.01
					c5.278-2.612,10.632-3.256,10.632-3.256V378.199z"/>
				<path style="fill:#BFB5FF;" d="M339.767,362.318c0.313-0.144,0.628-0.288,0.932-0.431c7.239-4.118,7.382-13.564,7.382-13.564
					c-1.302-0.558-2.553-1.158-3.729-1.817c0,0,1.634,14.476-15.372,18.349c4.448-0.025,8.059-1.319,9.75-2.046
					c0.007-0.009,0.019-0.009,0.024-0.009c0.339-0.161,0.668-0.321,0.999-0.474C339.761,362.318,339.761,362.318,339.767,362.318z"
					/>
				<path style="fill:#A74FA8;" d="M348.08,348.324c0,0-0.143,9.445-7.382,13.564c12.887-5.903,23.364-7.957,31.761-7.889
					C372.459,353.999,358.702,352.839,348.08,348.324z"/>
				<path style="fill:#FF6B6E;" d="M339.752,362.327c-0.331,0.152-0.66,0.313-0.999,0.474
					C339.338,362.548,339.685,362.361,339.752,362.327z"/>
				<path style="fill:#FF6B6E;" d="M339.515,371.196c0.101,0.044,0.203,0.086,0.305,0.12
					C339.736,371.282,339.632,371.24,339.515,371.196z"/>
				<path style="fill:#A74FA8;" d="M342.989,366.894c-1.574,0-2.849,0.313-2.849,0.702s1.274,0.709,2.849,0.709
					c1.574,0,2.842-0.32,2.842-0.709S344.563,366.894,342.989,366.894z"/>
				<path style="fill:#A74FA8;" d="M351.318,361.82c-1.571,0-2.84,0.313-2.84,0.702c0,0.389,1.269,0.708,2.84,0.708
					c1.572,0,2.848-0.319,2.848-0.708C354.166,362.133,352.891,361.82,351.318,361.82z"/>
				<path style="fill:#A74FA8;" d="M351.318,366.894c-1.571,0-2.84,0.313-2.84,0.702s1.269,0.709,2.84,0.709
					c1.572,0,2.848-0.32,2.848-0.709S352.891,366.894,351.318,366.894z"/>
				<path style="fill:#A74FA8;" d="M359.2,363.23c1.572,0,2.848-0.319,2.848-0.708c0-0.39-1.275-0.702-2.848-0.702
					c-1.573,0-2.851,0.313-2.851,0.702C356.35,362.911,357.627,363.23,359.2,363.23z"/>
				<path style="fill:#A74FA8;" d="M359.2,368.305c1.572,0,2.848-0.32,2.848-0.709s-1.275-0.702-2.848-0.702
					c-1.573,0-2.851,0.313-2.851,0.702S357.627,368.305,359.2,368.305z"/>
				<path style="fill:#A74FA8;" d="M359.2,373.37c1.572,0,2.848-0.313,2.848-0.702c0-0.389-1.275-0.701-2.848-0.701
					c-1.573,0-2.851,0.313-2.851,0.701C356.35,373.058,357.627,373.37,359.2,373.37z"/>
				<path style="fill:#A74FA8;" d="M366.69,360.13c-1.57,0-2.839,0.311-2.839,0.701c0,0.389,1.268,0.71,2.839,0.71
					c1.574,0,2.852-0.321,2.852-0.71C369.542,360.441,368.265,360.13,366.69,360.13z"/>
				<path style="fill:#A74FA8;" d="M366.69,365.201c-1.57,0-2.839,0.314-2.839,0.703c0,0.39,1.268,0.71,2.839,0.71
					c1.574,0,2.852-0.32,2.852-0.71C369.542,365.516,368.265,365.201,366.69,365.201z"/>
				<path style="fill:#A74FA8;" d="M366.69,370.275c-1.57,0-2.839,0.314-2.839,0.701c0,0.391,1.268,0.71,2.839,0.71
					c1.574,0,2.852-0.319,2.852-0.71C369.542,370.589,368.265,370.275,366.69,370.275z"/>
				<path style="fill:#A74FA8;" d="M374.369,357.593c-1.572,0-2.849,0.32-2.849,0.71c0,0.388,1.276,0.702,2.849,0.702
					c1.574,0,2.841-0.315,2.841-0.702C377.21,357.913,375.943,357.593,374.369,357.593z"/>
				<path style="fill:#A74FA8;" d="M374.369,362.665c-1.572,0-2.849,0.313-2.849,0.702c0,0.39,1.276,0.709,2.849,0.709
					c1.574,0,2.841-0.319,2.841-0.709C377.21,362.978,375.943,362.665,374.369,362.665z"/>
				<path style="fill:#A74FA8;" d="M374.369,367.738c-1.572,0-2.849,0.314-2.849,0.703c0,0.39,1.276,0.709,2.849,0.709
					c1.574,0,2.841-0.319,2.841-0.709C377.21,368.053,375.943,367.738,374.369,367.738z"/>
				<path style="fill:#A74FA8;" d="M374.369,372.813c-1.572,0-2.849,0.313-2.849,0.701c0,0.39,1.276,0.703,2.849,0.703
					c1.574,0,2.841-0.314,2.841-0.703C377.21,373.125,375.943,372.813,374.369,372.813z"/>
				<path style="fill:#BFB5FF;" d="M330.375,367.173c0,0,3.458,1.793,8.954,3.957c0.06,0.026,0.127,0.05,0.185,0.066
					c0.117,0.044,0.222,0.086,0.305,0.12c0.108,0.051,0.22,0.092,0.33,0.135c2.547,0.98,5.494,2.022,8.71,2.992
					c0,0,0.007,0,0.016,0.01c5.556,1.681,11.915,3.152,18.419,3.746c11.829,1.09,24.139-0.71,32.94-9.429
					c0.399-0.381,0.786-0.786,1.169-1.208c0,0-0.364-0.602-1.126-1.557c-2.849-3.535-11.306-11.872-27.818-12.007
					c-8.397-0.068-18.874,1.985-31.761,7.889c-0.304,0.143-0.618,0.287-0.932,0.431c-0.006,0-0.006,0-0.015,0.009
					c-0.067,0.034-0.414,0.221-0.999,0.474c-0.006,0-0.018,0-0.024,0.009C336.047,364.096,333.267,365.541,330.375,367.173z
					 M371.52,373.514c0-0.389,1.276-0.701,2.849-0.701c1.574,0,2.841,0.313,2.841,0.701c0,0.39-1.267,0.703-2.841,0.703
					C372.797,374.217,371.52,373.903,371.52,373.514z M371.52,368.441c0-0.389,1.276-0.703,2.849-0.703
					c1.574,0,2.841,0.314,2.841,0.703c0,0.39-1.267,0.709-2.841,0.709C372.797,369.15,371.52,368.831,371.52,368.441z
					 M371.52,363.367c0-0.389,1.276-0.702,2.849-0.702c1.574,0,2.841,0.313,2.841,0.702c0,0.39-1.267,0.709-2.841,0.709
					C372.797,364.076,371.52,363.757,371.52,363.367z M371.52,358.303c0-0.39,1.276-0.71,2.849-0.71c1.574,0,2.841,0.32,2.841,0.71
					c0,0.388-1.267,0.702-2.841,0.702C372.797,359.005,371.52,358.69,371.52,358.303z M363.852,370.977
					c0-0.388,1.268-0.701,2.839-0.701c1.574,0,2.852,0.314,2.852,0.701c0,0.391-1.277,0.71-2.852,0.71
					C365.12,371.686,363.852,371.367,363.852,370.977z M363.852,365.904c0-0.389,1.268-0.703,2.839-0.703
					c1.574,0,2.852,0.314,2.852,0.703c0,0.39-1.277,0.71-2.852,0.71C365.12,366.614,363.852,366.294,363.852,365.904z
					 M363.852,360.831c0-0.39,1.268-0.701,2.839-0.701c1.574,0,2.852,0.311,2.852,0.701c0,0.389-1.277,0.71-2.852,0.71
					C365.12,361.541,363.852,361.22,363.852,360.831z M356.35,372.668c0-0.389,1.277-0.701,2.851-0.701
					c1.572,0,2.848,0.313,2.848,0.701c0,0.39-1.275,0.702-2.848,0.702C357.627,373.37,356.35,373.058,356.35,372.668z
					 M356.35,367.596c0-0.389,1.277-0.702,2.851-0.702c1.572,0,2.848,0.313,2.848,0.702s-1.275,0.709-2.848,0.709
					C357.627,368.305,356.35,367.984,356.35,367.596z M356.35,362.522c0-0.39,1.277-0.702,2.851-0.702
					c1.572,0,2.848,0.313,2.848,0.702c0,0.389-1.275,0.708-2.848,0.708C357.627,363.23,356.35,362.911,356.35,362.522z
					 M348.478,367.596c0-0.389,1.269-0.702,2.84-0.702c1.572,0,2.848,0.313,2.848,0.702s-1.275,0.709-2.848,0.709
					C349.747,368.305,348.478,367.984,348.478,367.596z M348.478,362.522c0-0.39,1.269-0.702,2.84-0.702
					c1.572,0,2.848,0.313,2.848,0.702c0,0.389-1.275,0.708-2.848,0.708C349.747,363.23,348.478,362.911,348.478,362.522z
					 M340.141,367.596c0-0.389,1.274-0.702,2.849-0.702c1.574,0,2.842,0.313,2.842,0.702s-1.268,0.709-2.842,0.709
					C341.415,368.305,340.141,367.984,340.141,367.596z"/>
				<path style="opacity:0.63;fill:#BFB5FF;" d="M330.375,367.173c0,0,3.458,1.793,8.954,3.957c0.06,0.026,0.127,0.05,0.185,0.066
					c0.117,0.044,0.222,0.086,0.305,0.12c0.108,0.051,0.22,0.092,0.33,0.135c2.547,0.98,5.494,2.022,8.71,2.992
					c0,0,0.007,0,0.016,0.01c5.556,1.681,11.915,3.152,18.419,3.746c11.829,1.09,24.139-0.71,32.94-9.429
					c0.399-0.381,0.786-0.786,1.169-1.208C401.403,367.563,349.714,367.173,330.375,367.173z"/>
			</g>
			<path style="fill:#FFFFFF;" d="M383.482,364.076c0,2.524,2.045,4.569,4.569,4.569c2.522,0,4.567-2.045,4.567-4.569
				c0-2.522-2.045-4.566-4.567-4.566C385.527,359.51,383.482,361.554,383.482,364.076z"/>
			<path d="M385.22,364.076c0,1.564,1.268,2.832,2.832,2.832c1.563,0,2.83-1.268,2.83-2.832c0-1.563-1.267-2.83-2.83-2.83
				C386.487,361.246,385.22,362.514,385.22,364.076z"/>
		</g>
		<g>
			<path style="fill:#6530BD;" d="M237.648,71.315c0,0-10.219-3.725-28.678-5.467l8.357,8.127l-8.357,7.2
				c0,0,19.045,0.081,28.678-4.141V71.315z"/>
			<path style="fill:#6530BD;" d="M278.649,84.553c0,0-9.775,7.07-13.606,8.115l-0.177-8.115
				C264.866,84.553,277.28,80.27,278.649,84.553z"/>
			<path style="fill:#6530BD;" d="M276.554,63.27c0,0-3.451-3.62-15.868-5.691l2.638,5.933l4.718,3.036h7.014L276.554,63.27z"/>
			<path style="fill:#00D6D9;" d="M308.926,74.206c0,0-33.783-25.076-76.621,0C232.305,74.206,270.267,98.24,308.926,74.206z"/>
			<path style="fill:#00B3C0;" d="M308.926,74.206h-76.621C232.305,74.206,270.267,98.24,308.926,74.206z"/>
			<path style="fill:#D400CD;" d="M221.107,67.417l2.201,6.093l-2.201,7.046l0,0c-6.606,0.64-12.137,0.618-12.137,0.618l8.357-7.2
				l-8.357-8.127C213.531,66.279,217.582,66.832,221.107,67.417z"/>
			<path style="fill:#FFFFFF;" d="M288.976,71.817c0,1.724,1.397,3.12,3.123,3.12c1.723,0,3.118-1.396,3.118-3.12
				c0-1.727-1.396-3.124-3.118-3.124C290.372,68.693,288.976,70.091,288.976,71.817z"/>
			<path d="M290.162,71.817c0,1.068,0.868,1.936,1.937,1.936c1.066,0,1.932-0.867,1.932-1.936c0-1.071-0.865-1.935-1.932-1.935
				C291.03,69.882,290.162,70.747,290.162,71.817z"/>
		</g>
		<g>
			<path style="fill:#6530BD;" d="M328.616,269.379c0,0-5.996-2.186-16.826-3.208l4.903,4.769l-4.903,4.225
				c0,0,11.175,0.047,16.826-2.43V269.379z"/>
			<path style="fill:#6530BD;" d="M352.674,277.147c0,0-5.735,4.147-7.983,4.761l-0.104-4.761
				C344.587,277.147,351.87,274.633,352.674,277.147z"/>
			<path style="fill:#6530BD;" d="M351.444,264.658c0,0-2.025-2.124-9.311-3.339l1.548,3.482l2.768,1.781h4.115L351.444,264.658z"/>
			<path style="fill:#00D6D9;" d="M370.438,271.075c0,0-19.822-14.713-44.957,0C325.481,271.075,347.755,285.177,370.438,271.075z"
				/>
			<path style="fill:#00B3C0;" d="M370.438,271.075h-44.957C325.481,271.075,347.755,285.177,370.438,271.075z"/>
			<path style="fill:#D400CD;" d="M318.911,267.092l1.291,3.575l-1.291,4.134l0,0c-3.876,0.376-7.121,0.363-7.121,0.363l4.903-4.225
				l-4.903-4.769C314.466,266.424,316.844,266.748,318.911,267.092z"/>
			<path style="fill:#FFFFFF;" d="M358.732,269.674c0,1.011,0.819,1.83,1.833,1.83c1.01,0,1.829-0.819,1.829-1.83
				c0-1.013-0.819-1.834-1.829-1.834C359.552,267.84,358.732,268.661,358.732,269.674z"/>
			<path d="M359.429,269.674c0,0.627,0.51,1.136,1.137,1.136c0.625,0,1.133-0.509,1.133-1.136c0-0.629-0.508-1.136-1.133-1.136
				C359.938,268.538,359.429,269.045,359.429,269.674z"/>
		</g>
		<g>
			<path style="fill:#FAE711;" d="M268.446,238.557c0,0-9.563-3.485-26.834-5.116l7.82,7.605l-7.82,6.738
				c0,0,17.823,0.075,26.834-3.875V238.557z"/>
			<path style="fill:#FAE711;" d="M306.814,250.945c0,0-9.147,6.614-12.731,7.593l-0.165-7.593
				C293.918,250.945,305.533,246.936,306.814,250.945z"/>
			<path style="fill:#FAE711;" d="M304.854,231.028c0,0-3.23-3.388-14.85-5.325l2.469,5.552l4.413,2.84h6.564L304.854,231.028z"/>
			<path style="fill:#FF9C00;" d="M335.145,241.262c0,0-31.612-23.465-71.698,0C263.447,241.262,298.97,263.751,335.145,241.262z"/>
			<path style="fill:#EB9000;" d="M335.145,241.262h-71.698C263.447,241.262,298.97,263.751,335.145,241.262z"/>
			<path style="fill:#DBCC1A;" d="M252.969,234.909l2.059,5.702l-2.059,6.592l0,0c-6.181,0.6-11.357,0.58-11.357,0.58l7.82-6.738
				l-7.82-7.605C245.879,233.844,249.671,234.361,252.969,234.909z"/>
			<path style="fill:#FFFFFF;" d="M316.477,239.027c0,1.612,1.307,2.919,2.924,2.919c1.61,0,2.917-1.307,2.917-2.919
				c0-1.615-1.307-2.925-2.917-2.925C317.783,236.102,316.477,237.412,316.477,239.027z"/>
			<path d="M317.588,239.027c0,1,0.813,1.812,1.813,1.812c0.996,0,1.807-0.812,1.807-1.812c0-1.003-0.811-1.811-1.807-1.811
				C318.4,237.216,317.588,238.024,317.588,239.027z"/>
		</g>
		<g>
			<path style="fill:#E3BA54;" d="M288.944,404.716c0,0-10.912-3.977-30.622-5.84l8.925,8.68l-8.925,7.689
				c0,0,20.339,0.085,30.622-4.422V404.716z"/>
			<path style="fill:#E3BA54;" d="M332.729,418.853c0,0-10.439,7.548-14.528,8.665l-0.189-8.665
				C318.013,418.853,331.268,414.278,332.729,418.853z"/>
			<path style="fill:#E3BA54;" d="M330.493,396.124c0,0-3.687-3.865-16.946-6.076l2.817,6.337l5.036,3.24h7.49L330.493,396.124z"/>
			<path style="fill:#D7E66A;" d="M365.06,407.803c0,0-36.075-26.777-81.82,0C283.24,407.803,323.777,433.466,365.06,407.803z"/>
			<path style="fill:#BBCF2B;" d="M365.06,407.803h-81.82C283.24,407.803,323.777,433.466,365.06,407.803z"/>
			<path style="fill:#B38206;" d="M271.282,400.553l2.349,6.508l-2.349,7.523l0,0c-7.054,0.685-12.96,0.662-12.96,0.662l8.925-7.689
				l-8.925-8.68C263.192,399.338,267.52,399.929,271.282,400.553z"/>
			<path style="fill:#FFFFFF;" d="M343.756,405.253c0,1.839,1.491,3.33,3.337,3.33c1.838,0,3.328-1.491,3.328-3.33
				c0-1.843-1.49-3.339-3.328-3.339C345.247,401.914,343.756,403.41,343.756,405.253z"/>
			<path d="M345.024,405.253c0,1.141,0.927,2.066,2.068,2.066c1.137,0,2.061-0.926,2.061-2.066c0-1.146-0.925-2.067-2.061-2.067
				C345.951,403.185,345.024,404.107,345.024,405.253z"/>
		</g>
		<g>
			<path style="fill:#FFB15A;" d="M206.869,424.63c0,0-8.514-3.104-23.893-4.556l6.964,6.772l-6.964,6c0,0,15.869,0.066,23.893-3.45
				V424.63z"/>
			<path style="fill:#FFB15A;" d="M241.032,435.66c0,0-8.145,5.89-11.335,6.761l-0.147-6.761
				C229.549,435.66,239.891,432.091,241.032,435.66z"/>
			<path style="fill:#FFB15A;" d="M239.287,417.927c0,0-2.876-3.016-13.222-4.741l2.198,4.944l3.929,2.528h5.844L239.287,417.927z"
				/>
			<path style="fill:#E87AAA;" d="M266.259,427.039c0,0-28.148-20.893-63.84,0C202.418,427.039,234.047,447.061,266.259,427.039z"/>
			<path style="fill:#D93685;" d="M266.259,427.039h-63.84C202.418,427.039,234.047,447.061,266.259,427.039z"/>
			<path style="fill:#FF9029;" d="M193.088,421.382l1.833,5.078l-1.833,5.869l0,0c-5.503,0.534-10.112,0.517-10.112,0.517l6.964-6
				l-6.964-6.772C186.776,420.435,190.153,420.896,193.088,421.382z"/>
			<path style="fill:#FFFFFF;" d="M249.635,425.05c0,1.435,1.165,2.598,2.604,2.598c1.434,0,2.596-1.163,2.596-2.598
				c0-1.439-1.162-2.605-2.596-2.605C250.799,422.444,249.635,423.611,249.635,425.05z"/>
			<path d="M250.625,425.05c0,0.89,0.723,1.611,1.614,1.611c0.887,0,1.607-0.722,1.607-1.611c0-0.895-0.721-1.613-1.607-1.613
				C251.349,423.436,250.625,424.155,250.625,425.05z"/>
		</g>
		<g>
			<g>
				<g id="XMLID_13_">
					<g>
						<path style="fill:#7F3F98;" d="M134.232,239.145v0.014c-1.348-0.271-2.824-0.52-4.45-0.749l1.233-3.931
							C133.192,235.621,134.232,237.248,134.232,239.145z"/>
						<path style="fill:#8850D5;" d="M131.015,234.48l-1.233,3.931c-1.762-0.25-3.546-0.378-5.343-0.385v-5.193
							C127.256,233.068,129.432,233.645,131.015,234.48z"/>
						<path style="fill:#7F3F98;" d="M124.439,232.832v5.193c-2.141-0.021-4.302,0.114-6.478,0.378v-5.571
							C120.409,232.668,122.563,232.675,124.439,232.832z"/>
						<path style="fill:#8850D5;" d="M117.962,232.832v5.571c-2.248,0.278-4.508,0.685-6.77,1.205l-1.034-5.806
							C113.033,233.31,115.629,232.989,117.962,232.832z"/>
						<path style="fill:#7F3F98;" d="M110.158,233.802l1.034,5.806c-1.783,0.414-3.567,0.892-5.351,1.42l-2.417-5.842
							C105.821,234.622,108.061,234.166,110.158,233.802z"/>
						<path style="fill:#8850D5;" d="M103.425,235.186l2.417,5.842c-1.79,0.528-3.581,1.113-5.363,1.733l-4.23-5.706
							C98.773,236.335,101.17,235.714,103.425,235.186z"/>
						<path style="fill:#7F3F98;" d="M96.248,237.055l4.23,5.706c-2.012,0.707-4.023,1.455-6.014,2.233l-5.356-5.756
							C91.605,238.425,93.98,237.704,96.248,237.055z"/>
						<path style="fill:#8850D5;" d="M89.108,239.238l5.356,5.756c-1.519,0.592-3.031,1.198-4.53,1.805l-6.327-5.693
							C85.498,240.436,87.332,239.815,89.108,239.238z"/>
						<path style="fill:#F8E531;" d="M57.458,240.657c6.869-0.492,15.172,5.45,23.04,10.065c-2.454,1.013-4.864,1.983-7.211,2.868
							L57.458,240.657z"/>
						<polygon style="fill:#8850D5;" points="73.286,253.59 57.458,266.345 68.978,253.641 57.458,240.657 						"/>
						<path style="fill:#F8E531;" d="M73.286,253.59c0,0,2.54,1.063,6.756,2.561c-7.805,4.622-15.379,10.894-22.584,10.194
							L73.286,253.59z"/>
						<path style="fill:#F8E531;" d="M107.633,263.762v0.008c-9.195,7.739-18.961,1.462-19.481,1.112
							c0.45,0.071,8.566,1.348,14.716-2.097C104.43,263.127,106.021,263.456,107.633,263.762z"/>
						<path style="fill:#EDD630;" d="M97.689,261.543c1.676,0.429,3.41,0.843,5.179,1.242c-6.15,3.444-14.266,2.168-14.716,2.097
							c-0.014-0.007-0.021-0.007-0.021-0.007L97.689,261.543z"/>
						<path style="fill:#DB357E;" d="M80.042,256.15c-4.216-1.498-6.756-2.561-6.756-2.561h84.529
							c-9.545,13.995-31.187,13.782-50.182,10.172c-1.612-0.306-3.203-0.635-4.765-0.977c-1.77-0.399-3.503-0.813-5.179-1.242
							C90.627,259.746,84.429,257.714,80.042,256.15z"/>
						<path style="fill:#F9338A;" d="M124.439,238.025c1.797,0.007,3.581,0.135,5.343,0.385c1.626,0.228,3.103,0.478,4.45,0.749
							c11.698,2.355,14.003,6.42,23.583,14.431H73.286c2.347-0.885,4.758-1.854,7.211-2.868c3.083-1.27,6.235-2.604,9.437-3.923
							c1.498-0.607,3.011-1.213,4.53-1.805c1.991-0.778,4.002-1.526,6.014-2.233c1.783-0.621,3.573-1.206,5.363-1.733
							c1.784-0.528,3.567-1.006,5.351-1.42c2.261-0.52,4.522-0.927,6.77-1.205C120.137,238.139,122.299,238.004,124.439,238.025z"/>
					</g>
				</g>
			</g>
			<g>
				<path style="fill:#FFFFFF;" d="M146.894,251.482c0,2.663-2.16,4.822-4.823,4.822c-2.664,0-4.822-2.159-4.822-4.822
					c0-2.665,2.158-4.823,4.822-4.823C144.734,246.659,146.894,248.818,146.894,251.482z"/>
				<path d="M145.06,251.482c0,1.651-1.339,2.99-2.989,2.99c-1.652,0-2.99-1.339-2.99-2.99c0-1.651,1.338-2.99,2.99-2.99
					C143.721,248.493,145.06,249.831,145.06,251.482z"/>
			</g>
		</g>
		<g>
			<g>
				<path style="fill:#267071;" d="M184.089,215.467l-2.472-10.963c0,0,21.954,1.442,30.482,3.036
					C212.099,207.54,194.914,215.535,184.089,215.467z"/>
				<path style="fill:#267071;" d="M195.935,232.419c0,0-0.506,3.793,0,7.705c0,0,18.151-6.637,18.485-6.673
					C214.42,233.45,199.499,228.946,195.935,232.419z"/>
				<path style="fill:#267071;" d="M177.219,220.652c0,0-16.122-7.795-28.109-7.795l6.667,9.5l-5.32,10.323
					c0,0,16.842-1.963,26.762-8.288"/>
				<path style="fill:#5D577B;" d="M157.417,213.827"/>
				<path style="fill:#2E888A;" d="M155.777,222.357l-5.32,10.323c0,0,2.881-0.336,6.96-1.178l3.714-9.307l-4.883-8.601h-0.002
					c-2.436-0.455-4.859-0.737-7.136-0.737L155.777,222.357z"/>
			</g>
			<g>
				<path style="fill:#00B3C0;" d="M219.654,208.306c-8.614-1.523-16.21-0.67-22.584,1.224
					C205.373,211.551,213.28,210.43,219.654,208.306z"/>
				<path style="fill:#00B3C0;" d="M227.401,210.27c-7.43,4.086-20.014,8.168-33.251,3.767c-1.819-0.604-3.54-1.03-5.177-1.319
					c-8.984,4.452-14.015,10.148-14.015,10.148c36.431,25.791,70.419-0.097,70.419-0.097
					C239.453,216.875,233.651,212.319,227.401,210.27z"/>
				<path style="fill:#00D6E6;" d="M227.401,210.27c-2.663-0.874-5.249-1.523-7.747-1.964c-6.374,2.124-14.281,3.246-22.584,1.224
					c-2.972,0.882-5.677,1.989-8.096,3.188c1.636,0.29,3.358,0.715,5.177,1.319C207.387,218.438,219.971,214.355,227.401,210.27z"/>
			</g>
			<path style="opacity:0.57;fill:#00B3C0;" d="M245.377,222.769l-70.419,0.097C211.389,248.656,245.377,222.769,245.377,222.769z"
				/>
			<g>
				<path style="fill:#FFFFFF;" d="M231.862,216.875c0,2.463-1.998,4.46-4.459,4.46c-2.463,0-4.461-1.997-4.461-4.46
					s1.998-4.46,4.461-4.46C229.864,212.415,231.862,214.412,231.862,216.875z"/>
				<path d="M229.845,216.875c0,1.349-1.093,2.441-2.442,2.441c-1.35,0-2.444-1.092-2.444-2.441c0-1.35,1.094-2.442,2.444-2.442
					C228.751,214.433,229.845,215.525,229.845,216.875z"/>
			</g>
		</g>
		<g>
			<g>
				<path style="fill:#267071;" d="M342.845,305.938l-3.607-15.996c0,0,32.031,2.104,44.477,4.429
					C383.714,294.37,358.639,306.037,342.845,305.938z"/>
				<path style="fill:#267071;" d="M360.128,330.673c0,0-0.74,5.534,0,11.241c0,0,26.484-9.684,26.972-9.736
					C387.1,332.178,365.33,325.604,360.128,330.673z"/>
				<path style="fill:#267071;" d="M332.818,313.504c0,0-23.523-11.374-41.014-11.374l9.729,13.862l-7.764,15.061
					c0,0,24.574-2.863,39.048-12.091"/>
				<path style="fill:#5D577B;" d="M303.927,303.543"/>
				<path style="fill:#2E888A;" d="M301.534,315.992l-7.764,15.061c0,0,4.203-0.49,10.156-1.718l5.418-13.579l-7.124-12.552h-0.003
					c-3.555-0.662-7.091-1.074-10.413-1.074L301.534,315.992z"/>
			</g>
			<g>
				<path style="fill:#00B3C0;" d="M394.737,295.489c-12.568-2.222-23.652-0.979-32.952,1.785
					C373.899,300.224,385.436,298.588,394.737,295.489z"/>
				<path style="fill:#00B3C0;" d="M406.04,298.353c-10.841,5.963-29.203,11.919-48.517,5.498c-2.652-0.883-5.166-1.504-7.553-1.927
					c-13.109,6.498-20.449,14.808-20.449,14.808c53.155,37.632,102.748-0.141,102.748-0.141
					C423.626,307.992,415.159,301.346,406.04,298.353z"/>
				<path style="fill:#00D6E6;" d="M406.04,298.353c-3.885-1.276-7.659-2.223-11.303-2.864c-9.301,3.099-20.838,4.734-32.952,1.785
					c-4.338,1.288-8.284,2.902-11.814,4.65c2.387,0.423,4.9,1.044,7.553,1.927C376.837,310.272,395.199,304.316,406.04,298.353z"/>
			</g>
			<path style="opacity:0.57;fill:#00B3C0;" d="M432.27,316.592l-102.748,0.141C382.677,354.364,432.27,316.592,432.27,316.592z"/>
			<g>
				<path style="fill:#FFFFFF;" d="M412.549,307.992c0,3.594-2.913,6.508-6.506,6.508c-3.594,0-6.509-2.914-6.509-6.508
					c0-3.594,2.915-6.507,6.509-6.507C409.636,301.485,412.549,304.398,412.549,307.992z"/>
				<path d="M409.606,307.992c0,1.968-1.595,3.563-3.563,3.563c-1.97,0-3.566-1.595-3.566-3.563c0-1.969,1.596-3.564,3.566-3.564
					C408.012,304.428,409.606,306.023,409.606,307.992z"/>
			</g>
		</g>
		<g>
			<g>
				<path style="fill:#A486B0;" d="M344.832,215.872v0.01c-3.988,8.741-15.355,7.648-15.355,7.648
					c4.492-2.456,7.499-7.088,7.499-7.088C339.733,216.32,342.355,216.124,344.832,215.872z"/>
				<path style="fill:#A486B0;" d="M326.936,216.488c1.915,0.066,3.773,0.084,5.596,0.066v0.009
					c-3.178,4.577-9.033,5.184-9.033,5.184c2.925-2.924,3.438-5.249,3.438-5.249V216.488z"/>
				<path style="fill:#F1F1F1;" d="M364.912,204.411h-0.008c-4.12-5.941-9.293-9.611-15.001-11.629
					c-0.719-0.251-1.446-0.485-2.185-0.681c-15.998-4.427-35.528,2.941-48.045,9.162c-2.308,1.15-4.371,2.26-6.137,3.252
					c-3.885,2.175-6.305,3.783-6.538,3.942c-0.009,0.009-0.017,0.009-0.017,0.009s42.497-0.007,80.57-0.007
					C367.326,207.962,366.024,206.017,364.912,204.411z"/>
				<path style="fill:#E3E3E3;" d="M293.536,210.809c11.731,3.793,23.156,5.362,33.4,5.679c1.915,0.066,3.773,0.084,5.596,0.066
					c1.523-0.009,2.999-0.056,4.444-0.112c2.757-0.122,5.379-0.318,7.855-0.57c14.467-1.439,22.719-7.414,22.719-7.414
					c-17.071-6.153-50.61-5.774-80.553-0.001c0,0,0,0.012-0.003,0.015C289.185,209.327,291.365,210.11,293.536,210.809z"/>
				<path style="opacity:0.6;fill:#C9C9C9;" d="M286.98,208.465c0,0,38.352,0,80.57-0.007c0,0-8.252,5.975-22.719,7.414
					c-2.477,0.252-5.099,0.448-7.855,0.57c-1.445,0.056-2.921,0.104-4.444,0.112c-1.822,0.018-3.681,0-5.596-0.066
					c-10.244-0.317-21.669-1.887-33.4-5.679C291.36,210.109,289.175,209.324,286.98,208.465z"/>
				<path style="fill:#8B6799;" d="M292.985,196.472c0,0,30.011-24.219,54.732-4.371c-15.998-4.427-35.528,2.941-48.045,9.162
					C299.532,201.142,296.386,198.444,292.985,196.472z"/>
				<path style="fill:#914D90;" d="M288.064,194.51c0,0,34.418-27.739,61.839-1.728c-0.719-0.251-1.446-0.485-2.185-0.681
					c-24.722-19.848-54.732,4.371-54.732,4.371C291.294,195.501,289.55,194.708,288.064,194.51z"/>
				<path style="fill:#8B6799;" d="M286.98,208.465c2.194,0.859,4.38,1.644,6.556,2.344c-7.78,4.194-16.345,5.624-22.929,6.006
					l9.508-8.798l-9.64-8.92c7.052,0.253,16.158,1.457,23.061,5.418c-3.885,2.175-6.305,3.783-6.538,3.942
					C286.989,208.465,286.98,208.465,286.98,208.465z"/>
				<path style="fill:#914D90;" d="M280.115,208.017l-9.508,8.798c-6.482,0.374-11.041-0.252-11.041-0.252l11.21-8.098l-11.21-9.07
					c0,0,4.632-0.522,10.909-0.299L280.115,208.017z"/>
			</g>
			<g>
				<path style="fill:#FFFFFF;" d="M361.552,203.736c0,2.787-2.259,5.045-5.045,5.045c-2.787,0-5.046-2.258-5.046-5.045
					c0-2.786,2.259-5.044,5.046-5.044C359.293,198.691,361.552,200.95,361.552,203.736z"/>
				<path d="M359.634,203.736c0,1.727-1.401,3.127-3.127,3.127c-1.729,0-3.127-1.4-3.127-3.127c0-1.725,1.398-3.126,3.127-3.126
					C358.232,200.61,359.634,202.01,359.634,203.736z"/>
			</g>
		</g>
		<g>
			<g>
				<path style="fill:#A486B0;" d="M260.936,336.59v0.008c-3.047,6.676-11.728,5.842-11.728,5.842
					c3.431-1.876,5.728-5.414,5.728-5.414C257.042,336.933,259.045,336.782,260.936,336.59z"/>
				<path style="fill:#A486B0;" d="M247.268,337.06c1.462,0.05,2.882,0.064,4.274,0.05v0.008c-2.428,3.495-6.9,3.959-6.9,3.959
					c2.234-2.233,2.626-4.009,2.626-4.009V337.06z"/>
				<path style="fill:#F1F1F1;" d="M276.272,327.836h-0.006c-3.147-4.537-7.098-7.34-11.457-8.882
					c-0.549-0.191-1.105-0.369-1.67-0.52c-12.219-3.381-27.136,2.246-36.695,6.997c-1.763,0.879-3.339,1.727-4.687,2.483
					c-2.967,1.661-4.815,2.89-4.994,3.011c-0.007,0.008-0.014,0.008-0.014,0.008s32.458-0.007,61.538-0.007
					C278.116,330.548,277.122,329.064,276.272,327.836z"/>
				<path style="fill:#E3E3E3;" d="M221.757,332.724c8.96,2.896,17.686,4.095,25.51,4.337c1.462,0.05,2.882,0.064,4.274,0.05
					c1.163-0.006,2.29-0.042,3.394-0.085c2.105-0.093,4.108-0.243,6-0.436c11.049-1.1,17.352-5.663,17.352-5.663
					c-13.039-4.699-38.655-4.409-61.524-0.001c0,0,0,0.01-0.002,0.012C218.434,331.591,220.099,332.19,221.757,332.724z"/>
				<path style="opacity:0.6;fill:#C9C9C9;" d="M216.75,330.934c0,0,29.292,0,61.538-0.007c0,0-6.303,4.563-17.352,5.663
					c-1.892,0.192-3.895,0.343-6,0.436c-1.104,0.043-2.231,0.079-3.394,0.085c-1.392,0.014-2.812,0-4.274-0.05
					c-7.824-0.242-16.55-1.441-25.51-4.337C220.095,332.189,218.426,331.59,216.75,330.934z"/>
				<path style="fill:#8B6799;" d="M221.336,321.773c0,0,22.921-18.499,41.803-3.339c-12.219-3.381-27.136,2.246-36.695,6.997
					C226.337,325.339,223.934,323.279,221.336,321.773z"/>
				<path style="fill:#914D90;" d="M217.578,320.274c0,0,26.288-21.186,47.232-1.32c-0.549-0.191-1.105-0.369-1.67-0.52
					c-18.882-15.16-41.803,3.339-41.803,3.339C220.044,321.031,218.712,320.426,217.578,320.274z"/>
				<path style="fill:#8B6799;" d="M216.75,330.934c1.676,0.656,3.345,1.255,5.007,1.79c-5.942,3.202-12.484,4.294-17.513,4.587
					l7.262-6.721l-7.363-6.813c5.386,0.193,12.341,1.113,17.613,4.138c-2.967,1.661-4.815,2.89-4.994,3.011
					C216.757,330.934,216.75,330.934,216.75,330.934z"/>
				<path style="fill:#914D90;" d="M211.507,330.59l-7.262,6.721c-4.951,0.285-8.433-0.192-8.433-0.192l8.562-6.185l-8.562-6.928
					c0,0,3.538-0.399,8.332-0.229L211.507,330.59z"/>
			</g>
			<g>
				<path style="fill:#FFFFFF;" d="M273.706,327.321c0,2.128-1.726,3.853-3.854,3.853c-2.128,0-3.853-1.725-3.853-3.853
					s1.726-3.852,3.853-3.852C271.98,323.469,273.706,325.193,273.706,327.321z"/>
				<path d="M272.241,327.321c0,1.318-1.07,2.388-2.389,2.388c-1.319,0-2.388-1.069-2.388-2.388c0-1.318,1.068-2.388,2.388-2.388
					C271.171,324.934,272.241,326.003,272.241,327.321z"/>
			</g>
		</g>
		<g>
			<g>
				<path style="fill:none;" d="M384.262,145.703c-11.316,0-19.413,1.033-25.153,3.068c7.544,3.492,12.781,11.125,12.781,19.986
					c0,8.695-5.042,16.212-12.361,19.79c5.834,2.168,13.887,3.265,24.733,3.265c21.011,0,38.043-19.191,38.043-23.054
					C422.305,164.852,405.272,145.703,384.262,145.703z"/>
			</g>
			<path style="fill:#008DEB;" d="M373.232,172.792c-2.168,2.181-5.472,4.432-9.877,4.432c-8.671,0-12.999-2.794-12.999-8.466
				c0-5.671,4.328-8.466,12.999-8.466c3.945,0,7.515,2.361,9.904,4.601"/>
			<path style="fill:#00FFEE;" d="M392.757,147.609c-0.075-0.631-3.115-2.46-9.173-4.718c-3.639-1.356-10.492-3.2-11.909-0.542
				c-0.391,0.73,0.873,2.07,3.122,3.552L392.757,147.609z"/>
			<g>
				<g id="XMLID_12_">
					<g>
						<path style="fill:#35C6F6;" d="M422.303,168.757c0,2.542-7.388,11.733-18.435,17.716c2.639-5.793,3.965-12.471,0.667-18.004
							c-4.441-7.425-3.613-14.057-2.208-18.219C414.222,156.161,422.303,166.073,422.303,168.757z"/>
						<g>
							<path style="fill:#008DEB;" d="M372.646,160.098c-3.035-5.091-3.603-9.804-3.217-13.606c-2.883,0.361-5.425,0.848-7.669,1.46
								c-0.934,0.253-1.818,0.523-2.657,0.82c0.944,0.433,1.848,0.929,2.703,1.486c6.064,3.921,10.083,10.742,10.083,18.499
								c0,8.697-5.045,16.212-12.362,19.788c1.442,0.542,3.019,1.01,4.739,1.406C368.745,184.868,378.847,170.479,372.646,160.098z"
								/>
							<path style="fill:#008DEB;" d="M385.333,145.735c-0.353-0.009-0.711-0.036-1.071-0.036c-2.307,0-4.479,0.045-6.532,0.136
								c-1.207,4.18-1.622,10.389,2.495,17.282c5.622,9.425-2.181,22.158-7.02,28.231c2.243,0.206,4.658,0.342,7.243,0.404
								c4.805-5.892,13.112-18.994,7.355-28.636C383.648,156.161,384.108,149.916,385.333,145.735z"/>
							<path style="fill:#008DEB;" d="M404.535,168.469c-4.441-7.425-3.613-14.057-2.208-18.219
								c-2.055-1.018-4.218-1.919-6.478-2.64c-1.756,3.523-4.452,11.561,1.108,20.859c4.082,6.84,1.089,15.417-2.713,21.933
								c3.424-0.956,6.65-2.324,9.624-3.928C406.507,180.68,407.833,174.002,404.535,168.469z"/>
						</g>
						<path style="fill:#35C6F6;" d="M380.448,191.752c4.805-5.892,13.112-18.994,7.355-28.636
							c-4.154-6.956-3.694-13.201-2.47-17.381c3.659,0.108,7.191,0.801,10.516,1.874c-1.756,3.523-4.452,11.561,1.108,20.859
							c4.082,6.84,1.089,15.417-2.713,21.933c-3.181,0.884-6.521,1.406-9.982,1.406C382.945,191.807,381.683,191.79,380.448,191.752
							z"/>
						<path style="fill:#35C6F6;" d="M364.267,189.951c4.478-5.083,14.58-19.472,8.38-29.853c-3.035-5.091-3.603-9.804-3.217-13.606
							c2.506-0.315,5.271-0.531,8.3-0.657c-1.207,4.18-1.622,10.389,2.495,17.282c5.622,9.425-2.181,22.158-7.02,28.231
							C369.872,191.042,366.897,190.572,364.267,189.951z"/>
					</g>
					<g>
						<path style="fill:none;" d="M361.761,147.952c-0.934,0.253-1.818,0.523-2.657,0.82c0.944,0.433,1.848,0.929,2.703,1.486"/>
						<path style="fill:none;" d="M369.43,146.492c-2.883,0.361-5.425,0.848-7.669,1.46c-0.025,0.74-0.017,1.514,0.046,2.306
							c6.064,3.921,10.083,10.742,10.083,18.499c0,8.697-5.045,16.212-12.362,19.788c1.442,0.542,3.019,1.01,4.739,1.406"/>
						<path style="fill:none;" d="M380.448,191.752c1.234,0.038,2.497,0.055,3.814,0.055c3.461,0,6.802-0.522,9.982-1.406"/>
						<path style="fill:none;" d="M395.849,147.609c-3.324-1.073-6.856-1.766-10.516-1.874"/>
						<path style="fill:none;" d="M403.868,186.473c11.047-5.983,18.435-15.174,18.435-17.716c0-2.684-8.081-12.596-19.976-18.507"
							/>
						<path style="fill:none;" d="M403.868,186.473c2.639-5.793,3.965-12.471,0.667-18.004c-4.441-7.425-3.613-14.057-2.208-18.219
							c-2.055-1.018-4.218-1.919-6.478-2.64c-1.756,3.523-4.452,11.561,1.108,20.859c4.082,6.84,1.089,15.417-2.713,21.933
							C397.668,189.446,400.894,188.077,403.868,186.473z"/>
						<path style="fill:none;" d="M377.729,145.835c-3.029,0.125-5.794,0.342-8.3,0.657c-0.387,3.802,0.182,8.515,3.217,13.606
							c6.2,10.381-3.901,24.77-8.38,29.853c2.631,0.621,5.605,1.091,8.938,1.397"/>
						<path style="fill:none;" d="M380.448,191.752c4.805-5.892,13.112-18.994,7.355-28.636c-4.154-6.956-3.694-13.201-2.47-17.381
							c-0.353-0.009-0.711-0.036-1.071-0.036c-2.307,0-4.479,0.045-6.532,0.136c-1.207,4.18-1.622,10.389,2.495,17.282
							c5.622,9.425-2.181,22.158-7.02,28.231C375.448,191.554,377.863,191.69,380.448,191.752z"/>
					</g>
				</g>
			</g>
			<path style="opacity:0.79;fill:#35C6F6;" d="M371.89,168.757c0,8.697-5.045,16.212-12.362,19.788
				c1.442,0.542,3.019,1.01,4.739,1.406c2.631,0.621,5.605,1.091,8.938,1.397c2.243,0.206,4.658,0.342,7.243,0.404
				c1.234,0.038,2.497,0.055,3.814,0.055c3.461,0,6.802-0.522,9.982-1.406c3.424-0.956,6.65-2.324,9.624-3.928
				c11.028-5.973,18.408-15.142,18.433-17.702L371.89,168.757z"/>
			<path style="fill:#6F3FA2;" d="M358.081,160.741c-5.145,0.991-7.725,3.646-7.725,8.016c0,4.369,2.577,7.023,7.723,8.016
				C350.608,169.507,357.925,160.923,358.081,160.741z"/>
			<g>
				<path style="fill:#FFFFFF;" d="M415.721,165.157c0,2.688-2.18,4.867-4.866,4.867c-2.689,0-4.867-2.18-4.867-4.867
					s2.179-4.866,4.867-4.866C413.541,160.291,415.721,162.47,415.721,165.157z"/>
				<circle cx="410.854" cy="165.157" r="3.017"/>
			</g>
		</g>
		<g>
			<g>
				<path style="fill:none;" d="M270.566,352.808c-8.772,0-15.047,0.8-19.496,2.377c5.847,2.707,9.906,8.624,9.906,15.492
					c0,6.74-3.908,12.567-9.581,15.34c4.522,1.682,10.764,2.53,19.171,2.53c16.286,0,29.488-14.876,29.488-17.87
					C300.055,367.65,286.852,352.808,270.566,352.808z"/>
			</g>
			<path style="fill:#FFCB59;" d="M262.018,373.805c-1.681,1.69-4.241,3.435-7.655,3.435c-6.722,0-10.077-2.166-10.077-6.563
				c0-4.395,3.354-6.562,10.077-6.562c3.058,0,5.824,1.83,7.677,3.566"/>
			<path style="fill:#F09329;" d="M277.151,354.286c-0.059-0.49-2.414-1.908-7.109-3.658c-2.821-1.051-8.133-2.479-9.232-0.42
				c-0.303,0.565,0.677,1.604,2.42,2.753L277.151,354.286z"/>
			<g>
				<g id="XMLID_15_">
					<g>
						<path style="fill:#FAE966;" d="M300.053,370.677c0,1.972-5.726,9.095-14.288,13.732c2.045-4.49,3.072-9.666,0.517-13.955
							c-3.442-5.756-2.801-10.896-1.712-14.122C293.789,360.914,300.053,368.597,300.053,370.677z"/>
						<g>
							<path style="fill:#FFCB59;" d="M261.564,363.966c-2.353-3.947-2.793-7.6-2.493-10.547c-2.234,0.28-4.205,0.657-5.944,1.132
								c-0.725,0.196-1.409,0.405-2.06,0.636c0.732,0.335,1.432,0.72,2.095,1.152c4.7,3.038,7.816,8.325,7.816,14.338
								c0,6.741-3.91,12.567-9.582,15.338c1.118,0.421,2.34,0.784,3.674,1.091C258.54,383.165,266.369,372.012,261.564,363.966z"/>
							<path style="fill:#FFCB59;" d="M271.397,352.832c-0.273-0.007-0.552-0.026-0.831-0.026c-1.787,0-3.472,0.034-5.063,0.104
								c-0.936,3.241-1.258,8.053,1.934,13.396c4.357,7.305-1.69,17.174-5.44,21.883c1.738,0.159,3.61,0.265,5.614,0.314
								c3.724-4.567,10.163-14.723,5.7-22.196C270.092,360.914,270.448,356.073,271.397,352.832z"/>
							<path style="fill:#FFCB59;" d="M286.281,370.454c-3.442-5.756-2.801-10.896-1.712-14.122
								c-1.592-0.79-3.269-1.487-5.021-2.046c-1.36,2.73-3.451,8.961,0.859,16.168c3.164,5.302,0.844,11.95-2.103,17
								c2.653-0.74,5.153-1.802,7.46-3.045C287.81,379.919,288.837,374.743,286.281,370.454z"/>
						</g>
						<path style="fill:#FAE966;" d="M267.611,388.502c3.724-4.567,10.163-14.723,5.7-22.196c-3.22-5.392-2.863-10.232-1.914-13.474
							c2.836,0.085,5.574,0.622,8.15,1.454c-1.36,2.73-3.451,8.961,0.859,16.168c3.164,5.302,0.844,11.95-2.103,17
							c-2.466,0.685-5.056,1.09-7.738,1.09C269.547,388.544,268.567,388.53,267.611,388.502z"/>
						<path style="fill:#FAE966;" d="M255.068,387.105c3.472-3.94,11.301-15.094,6.495-23.14c-2.353-3.947-2.793-7.6-2.493-10.547
							c1.942-0.244,4.085-0.412,6.434-0.51c-0.936,3.241-1.258,8.053,1.934,13.396c4.357,7.305-1.69,17.174-5.44,21.883
							C259.413,387.95,257.107,387.587,255.068,387.105z"/>
					</g>
					<g>
						<path style="fill:none;" d="M253.126,354.551c-0.725,0.196-1.409,0.405-2.06,0.636c0.732,0.335,1.432,0.72,2.095,1.152"/>
						<path style="fill:none;" d="M259.07,353.419c-2.234,0.28-4.205,0.657-5.944,1.132c-0.02,0.573-0.013,1.173,0.035,1.788
							c4.7,3.038,7.816,8.325,7.816,14.338c0,6.741-3.91,12.567-9.582,15.338c1.118,0.421,2.34,0.784,3.674,1.091"/>
						<path style="fill:none;" d="M267.611,388.502c0.956,0.028,1.936,0.042,2.955,0.042c2.683,0,5.272-0.404,7.738-1.09"/>
						<path style="fill:none;" d="M279.548,354.286c-2.576-0.832-5.314-1.369-8.15-1.454"/>
						<path style="fill:none;" d="M285.765,384.409c8.563-4.638,14.288-11.761,14.288-13.732c0-2.08-6.264-9.763-15.483-14.345"/>
						<path style="fill:none;" d="M285.765,384.409c2.045-4.49,3.072-9.666,0.517-13.955c-3.442-5.756-2.801-10.896-1.712-14.122
							c-1.592-0.79-3.269-1.487-5.021-2.046c-1.36,2.73-3.451,8.961,0.859,16.168c3.164,5.302,0.844,11.95-2.103,17
							C280.958,386.714,283.458,385.652,285.765,384.409z"/>
						<path style="fill:none;" d="M265.504,352.909c-2.349,0.098-4.491,0.266-6.434,0.51c-0.3,2.947,0.141,6.6,2.493,10.547
							c4.806,8.046-3.023,19.199-6.495,23.14c2.039,0.481,4.345,0.845,6.929,1.083"/>
						<path style="fill:none;" d="M267.611,388.502c3.724-4.567,10.163-14.723,5.7-22.196c-3.22-5.392-2.863-10.232-1.914-13.474
							c-0.273-0.007-0.552-0.026-0.831-0.026c-1.787,0-3.472,0.034-5.063,0.104c-0.936,3.241-1.258,8.053,1.934,13.396
							c4.357,7.305-1.69,17.174-5.44,21.883C263.735,388.348,265.607,388.453,267.611,388.502z"/>
					</g>
				</g>
			</g>
			<path style="opacity:0.5;fill:#FFCB59;" d="M260.977,370.677c0,6.741-3.91,12.567-9.582,15.338
				c1.118,0.421,2.34,0.784,3.674,1.091c2.039,0.481,4.345,0.845,6.929,1.083c1.738,0.159,3.61,0.265,5.614,0.314
				c0.956,0.028,1.936,0.042,2.955,0.042c2.683,0,5.272-0.404,7.738-1.09c2.653-0.74,5.153-1.802,7.46-3.045
				c8.548-4.629,14.269-11.736,14.287-13.72L260.977,370.677z"/>
			<path style="fill:#F09329;" d="M250.273,364.464c-3.987,0.768-5.987,2.826-5.987,6.213c0,3.387,1.998,5.444,5.986,6.214
				C244.481,371.259,250.152,364.604,250.273,364.464z"/>
			<g>
				<path style="fill:#FFFFFF;" d="M294.951,367.887c0,2.083-1.69,3.773-3.772,3.773c-2.084,0-3.772-1.69-3.772-3.773
					c0-2.083,1.689-3.771,3.772-3.771C293.262,364.115,294.951,365.804,294.951,367.887z"/>
				<path d="M293.518,367.887c0,1.292-1.048,2.339-2.338,2.339c-1.292,0-2.339-1.047-2.339-2.339c0-1.291,1.047-2.338,2.339-2.338
					C292.47,365.549,293.518,366.596,293.518,367.887z"/>
			</g>
		</g>
		<g>
			<path style="fill:#6530BD;" d="M148.331,113.946c0,0-10.519-10.369-3.545-23.412c4.208-7.871,38.564-38.362,67.171,6.583
				l-19.375,14.496L148.331,113.946z"/>
			<path style="fill:#6530BD;" d="M148.994,125.433c0,0-11.613,22.817-1.276,26.925c10.338,4.106,34.667,2.839,47.316-2.086
				L148.994,125.433z"/>
			<path style="fill:#6530BD;" d="M197.88,149.935c0,0-1.28,4.32-6.966,8.426c0,0,12.329-4.705,15.958-11.041L197.88,149.935z"/>
			<path style="fill:#6530BD;" d="M207.907,147.95c0,0-0.904,5.156-4.05,8.058c0,0,7.309-5.199,9.083-10.798l-3.146-0.933
				L207.907,147.95z"/>
			<path style="fill:#F9E710;" d="M156.716,136.85c0,0-24.284-21.373,6.934-39.935c31.218-18.563,56.453-4.898,56.549,13.38
				c0.04,7.281,11.503,8.625,14.877,10.313c0,0,3.607,1.418-2.25,4.218c-11.506,5.498-9.861,10.287-16.377,17.361
				C205.722,153.823,176.501,155.693,156.716,136.85z"/>
			<path style="fill:#F9E710;" d="M147.781,117.083l-19.243-16.14c0,0-5.706,25.983,0,39.327l20.456-14.837L147.781,117.083z"/>
			<path style="fill:#F5B810;" d="M133.748,136.49c-3.021-15.085,0.478-30.777,0.478-30.777l0,0l-5.688-4.77
				c0,0-5.706,25.983,0,39.327L133.748,136.49L133.748,136.49z"/>
			<g>
				<path style="fill:#FFFFFF;" d="M215.302,111.243c0,4.086-3.313,7.396-7.395,7.396c-4.085,0-7.395-3.31-7.395-7.396
					c0-4.084,3.309-7.392,7.395-7.392C211.99,103.851,215.302,107.16,215.302,111.243z"/>
				<path d="M211.956,111.243c0,2.237-1.813,4.05-4.049,4.05c-2.237,0-4.05-1.813-4.05-4.05c0-2.236,1.813-4.048,4.05-4.048
					C210.143,107.195,211.956,109.007,211.956,111.243z"/>
			</g>
			<path style="fill:#F2C700;" d="M236.165,121.767l-88.296-0.88c1.176,9.21,8.847,15.963,8.847,15.963
				c19.786,18.843,49.006,16.974,59.733,5.336c6.516-7.075,4.87-11.863,16.377-17.361
				C235.62,123.49,236.258,122.469,236.165,121.767z"/>
			<g>
				<path style="fill:#6530BD;" d="M195.033,95.767c0,0-12.965,26.921,0.706,47.147C195.739,142.914,191.363,112.354,195.033,95.767
					z"/>
				<path style="fill:#6530BD;" d="M179.432,95.767c0,0-12.963,26.921,0.706,47.147C180.138,142.914,175.762,112.354,179.432,95.767
					z"/>
				<path style="fill:#B897F0;" d="M162.219,105.351c0,0-7.691,15.976,0.421,27.979C162.64,133.33,160.042,115.194,162.219,105.351z
					"/>
			</g>
		</g>
		<g>
			<path style="fill:#008F8D;" d="M147.676,336.17c-1.667,0.743-3.463,1.388-5.382,1.88c0,0,3.212,3.026,4.915,3.008
				C151.298,341.021,147.89,336.457,147.676,336.17z"/>
			<path style="fill:#008F8D;" d="M146.679,297.339c0,0,0.447-4.748-3.779-8.538c-8.131-7.301-28.516-6.76-43.731,22.906
				c6.324-6.545,18.484-16.621,33.449-16.649c5.765-0.018,10.375,0.848,14.061,2.29V297.339z"/>
			<path style="fill:#0098A6;" d="M99.161,311.726c0,0-0.01,0-0.01-0.009c-3.697-13.149-21.083-11.751-21.083-11.751
				s7.106,7.141,7.106,17.105c0,9.963-7.106,18.046-7.106,18.046s17.999,2.878,21.258-12.786c0.336-1.563,0.513-3.304,0.513-5.26
				C99.84,315.068,99.598,313.291,99.161,311.726z"/>
			<path style="fill:#00B2B0;" d="M99.151,311.717c0,0.009,0.01,0.009,0.01,0.009c0-0.009,0-0.009,0.008-0.019
				C99.161,311.717,99.151,311.717,99.151,311.717z"/>
			<path style="fill:#00B2B0;" d="M114.319,303.819c0,1.156,0.942,2.087,2.087,2.087c1.154,0,2.085-0.931,2.085-2.087
				c0-1.146-0.931-2.076-2.085-2.076C115.261,301.743,114.319,302.674,114.319,303.819z M142.294,338.05
				c-1.722,0.448-3.548,0.765-5.458,0.914c-1.778-1.332-3.671-2.431-4.647-2.803c-7.979-3.018-5.615,0.91-4.813,2.299
				c-8.39-1.575-17.916-6.306-28.049-16.129c0.336-1.563,0.513-3.304,0.513-5.26c0-2.003-0.242-3.78-0.679-5.346
				c0-0.009,0-0.009,0.008-0.019c6.324-6.545,18.484-16.621,33.449-16.649c5.765-0.018,10.375,0.848,14.061,2.29
				c13.345,5.215,17.104,15.653,19.209,21.664c1.143,3.266-13.277,14.913-18.212,17.158
				C146.009,336.913,144.213,337.558,142.294,338.05z M108.38,314.288c1.144,0,2.084-0.932,2.084-2.077
				c0-1.157-0.94-2.086-2.084-2.086c-1.156,0-2.087,0.929-2.087,2.086C106.293,313.356,107.224,314.288,108.38,314.288z
				 M108.38,322.677c1.144,0,2.084-0.931,2.084-2.086c0-1.145-0.94-2.077-2.084-2.077c-1.156,0-2.087,0.932-2.087,2.077
				C106.293,321.746,107.224,322.677,108.38,322.677z M116.406,314.288c1.154,0,2.085-0.932,2.085-2.077
				c0-1.157-0.931-2.086-2.085-2.086c-1.145,0-2.087,0.929-2.087,2.086C114.319,313.356,115.261,314.288,116.406,314.288z
				 M116.406,322.677c1.154,0,2.085-0.931,2.085-2.086c0-1.145-0.931-2.077-2.085-2.077c-1.145,0-2.087,0.932-2.087,2.077
				C114.319,321.746,115.261,322.677,116.406,322.677z M116.406,331.066c1.154,0,2.085-0.939,2.085-2.086
				c0-1.154-0.931-2.086-2.085-2.086c-1.145,0-2.087,0.932-2.087,2.086C114.319,330.127,115.261,331.066,116.406,331.066z
				 M124.433,305.906c1.154,0,2.085-0.931,2.085-2.087c0-1.146-0.931-2.076-2.085-2.076c-1.146,0-2.077,0.931-2.077,2.076
				C122.356,304.976,123.287,305.906,124.433,305.906z M124.433,314.288c1.154,0,2.085-0.932,2.085-2.077
				c0-1.157-0.931-2.086-2.085-2.086c-1.146,0-2.077,0.929-2.077,2.086C122.356,313.356,123.287,314.288,124.433,314.288z
				 M124.433,322.677c1.154,0,2.085-0.931,2.085-2.086c0-1.145-0.931-2.077-2.085-2.077c-1.146,0-2.077,0.932-2.077,2.077
				C122.356,321.746,123.287,322.677,124.433,322.677z M124.433,331.066c1.154,0,2.085-0.939,2.085-2.086
				c0-1.154-0.931-2.086-2.085-2.086c-1.146,0-2.077,0.932-2.077,2.086C122.356,330.127,123.287,331.066,124.433,331.066z
				 M132.459,305.906c1.154,0,2.087-0.931,2.087-2.087c0-1.146-0.933-2.076-2.087-2.076c-1.146,0-2.078,0.931-2.078,2.076
				C130.381,304.976,131.313,305.906,132.459,305.906z M132.459,314.288c1.154,0,2.087-0.932,2.087-2.077
				c0-1.157-0.933-2.086-2.087-2.086c-1.146,0-2.078,0.929-2.078,2.086C130.381,313.356,131.313,314.288,132.459,314.288z
				 M132.459,322.677c1.154,0,2.087-0.931,2.087-2.086c0-1.145-0.933-2.077-2.087-2.077c-1.146,0-2.078,0.932-2.078,2.077
				C130.381,321.746,131.313,322.677,132.459,322.677z M132.459,331.066c1.154,0,2.087-0.939,2.087-2.086
				c0-1.154-0.933-2.086-2.087-2.086c-1.146,0-2.078,0.932-2.078,2.086C130.381,330.127,131.313,331.066,132.459,331.066z
				 M140.496,305.906c1.146,0,2.077-0.931,2.077-2.087c0-1.146-0.931-2.076-2.077-2.076c-1.155,0-2.085,0.931-2.085,2.076
				C138.411,304.976,139.341,305.906,140.496,305.906z M140.496,314.288c1.146,0,2.077-0.932,2.077-2.077
				c0-1.157-0.931-2.086-2.077-2.086c-1.155,0-2.085,0.929-2.085,2.086C138.411,313.356,139.341,314.288,140.496,314.288z
				 M140.496,322.677c1.146,0,2.077-0.931,2.077-2.086c0-1.145-0.931-2.077-2.077-2.077c-1.155,0-2.085,0.932-2.085,2.077
				C138.411,321.746,139.341,322.677,140.496,322.677z M140.496,331.066c1.146,0,2.077-0.939,2.077-2.086
				c0-1.154-0.931-2.086-2.077-2.086c-1.155,0-2.085,0.932-2.085,2.086C138.411,330.127,139.341,331.066,140.496,331.066z
				 M151.048,317.239c2.774,0,5.027-2.254,5.027-5.028c0-2.774-2.253-5.029-5.027-5.029c-2.776,0-5.029,2.255-5.029,5.029
				C146.019,314.985,148.272,317.239,151.048,317.239z"/>
			<path style="fill:#008F8D;" d="M132.189,336.161c-7.979-3.018-5.615,0.91-4.813,2.299v0.01c3.343,0.623,6.508,0.754,9.461,0.494
				C135.059,337.632,133.165,336.533,132.189,336.161z"/>
			<path style="fill:#008F8D;" d="M136.836,338.964c-2.953,0.26-6.118,0.129-9.461-0.494c1.778,3.054,8.194,8.641,12.152,7.242
				C142.852,344.542,140.022,341.365,136.836,338.964z"/>
			<path style="fill:#0098A6;" d="M165.888,319.012c-0.193-0.552-0.4-1.141-0.627-1.761H99.836c0,0.005-0.001,0.01-0.001,0.015
				c-0.006,0.935-0.05,1.821-0.136,2.66c-0.002,0.029-0.007,0.055-0.011,0.083c-0.041,0.391-0.087,0.774-0.145,1.147
				c-0.064,0.402-0.136,0.796-0.218,1.176c10.133,9.823,19.659,14.554,28.049,16.129c-0.802-1.389-3.166-5.316,4.813-2.299
				c0.977,0.372,2.87,1.471,4.647,2.803c1.909-0.149,3.735-0.466,5.458-0.914c1.919-0.492,3.715-1.137,5.382-1.88
				C152.611,333.925,167.031,322.277,165.888,319.012z M108.38,322.677c-1.156,0-2.087-0.931-2.087-2.086
				c0-1.145,0.931-2.077,2.087-2.077c1.144,0,2.084,0.932,2.084,2.077C110.465,321.746,109.524,322.677,108.38,322.677z
				 M116.406,331.066c-1.145,0-2.087-0.939-2.087-2.086c0-1.154,0.942-2.086,2.087-2.086c1.154,0,2.085,0.932,2.085,2.086
				C118.491,330.127,117.56,331.066,116.406,331.066z M116.406,322.677c-1.145,0-2.087-0.931-2.087-2.086
				c0-1.145,0.942-2.077,2.087-2.077c1.154,0,2.085,0.932,2.085,2.077C118.491,321.746,117.56,322.677,116.406,322.677z
				 M124.433,331.066c-1.146,0-2.077-0.939-2.077-2.086c0-1.154,0.931-2.086,2.077-2.086c1.154,0,2.085,0.932,2.085,2.086
				C126.518,330.127,125.587,331.066,124.433,331.066z M124.433,322.677c-1.146,0-2.077-0.931-2.077-2.086
				c0-1.145,0.931-2.077,2.077-2.077c1.154,0,2.085,0.932,2.085,2.077C126.518,321.746,125.587,322.677,124.433,322.677z
				 M132.459,331.066c-1.146,0-2.078-0.939-2.078-2.086c0-1.154,0.931-2.086,2.078-2.086c1.154,0,2.087,0.932,2.087,2.086
				C134.546,330.127,133.613,331.066,132.459,331.066z M132.459,322.677c-1.146,0-2.078-0.931-2.078-2.086
				c0-1.145,0.931-2.077,2.078-2.077c1.154,0,2.087,0.932,2.087,2.077C134.546,321.746,133.613,322.677,132.459,322.677z
				 M140.496,331.066c-1.155,0-2.085-0.939-2.085-2.086c0-1.154,0.93-2.086,2.085-2.086c1.146,0,2.077,0.932,2.077,2.086
				C142.573,330.127,141.643,331.066,140.496,331.066z M140.496,322.677c-1.155,0-2.085-0.931-2.085-2.086
				c0-1.145,0.93-2.077,2.085-2.077c1.146,0,2.077,0.932,2.077,2.077C142.573,321.746,141.643,322.677,140.496,322.677z"/>
			<g>
				<path style="fill:#0ADBD1;" d="M108.38,310.125c-1.156,0-2.087,0.929-2.087,2.086c0,1.146,0.931,2.077,2.087,2.077
					c1.144,0,2.084-0.932,2.084-2.077C110.465,311.054,109.524,310.125,108.38,310.125z"/>
				<path style="fill:#0ADBD1;" d="M108.38,318.514c-1.156,0-2.087,0.932-2.087,2.077c0,1.155,0.931,2.086,2.087,2.086
					c1.144,0,2.084-0.931,2.084-2.086C110.465,319.445,109.524,318.514,108.38,318.514z"/>
				<path style="fill:#0ADBD1;" d="M116.406,301.743c-1.145,0-2.087,0.931-2.087,2.076c0,1.156,0.942,2.087,2.087,2.087
					c1.154,0,2.085-0.931,2.085-2.087C118.491,302.674,117.56,301.743,116.406,301.743z"/>
				<path style="fill:#0ADBD1;" d="M116.406,310.125c-1.145,0-2.087,0.929-2.087,2.086c0,1.146,0.942,2.077,2.087,2.077
					c1.154,0,2.085-0.932,2.085-2.077C118.491,311.054,117.56,310.125,116.406,310.125z"/>
				<path style="fill:#0ADBD1;" d="M116.406,318.514c-1.145,0-2.087,0.932-2.087,2.077c0,1.155,0.942,2.086,2.087,2.086
					c1.154,0,2.085-0.931,2.085-2.086C118.491,319.445,117.56,318.514,116.406,318.514z"/>
				<path style="fill:#0ADBD1;" d="M116.406,326.895c-1.145,0-2.087,0.932-2.087,2.086c0,1.147,0.942,2.086,2.087,2.086
					c1.154,0,2.085-0.939,2.085-2.086C118.491,327.826,117.56,326.895,116.406,326.895z"/>
				<path style="fill:#0ADBD1;" d="M124.433,301.743c-1.146,0-2.077,0.931-2.077,2.076c0,1.156,0.931,2.087,2.077,2.087
					c1.154,0,2.085-0.931,2.085-2.087C126.518,302.674,125.587,301.743,124.433,301.743z"/>
				<path style="fill:#0ADBD1;" d="M124.433,310.125c-1.146,0-2.077,0.929-2.077,2.086c0,1.146,0.931,2.077,2.077,2.077
					c1.154,0,2.085-0.932,2.085-2.077C126.518,311.054,125.587,310.125,124.433,310.125z"/>
				<path style="fill:#0ADBD1;" d="M124.433,318.514c-1.146,0-2.077,0.932-2.077,2.077c0,1.155,0.931,2.086,2.077,2.086
					c1.154,0,2.085-0.931,2.085-2.086C126.518,319.445,125.587,318.514,124.433,318.514z"/>
				<path style="fill:#0ADBD1;" d="M124.433,326.895c-1.146,0-2.077,0.932-2.077,2.086c0,1.147,0.931,2.086,2.077,2.086
					c1.154,0,2.085-0.939,2.085-2.086C126.518,327.826,125.587,326.895,124.433,326.895z"/>
				<path style="fill:#0ADBD1;" d="M132.459,301.743c-1.146,0-2.078,0.931-2.078,2.076c0,1.156,0.931,2.087,2.078,2.087
					c1.154,0,2.087-0.931,2.087-2.087C134.546,302.674,133.613,301.743,132.459,301.743z"/>
				<path style="fill:#0ADBD1;" d="M132.459,310.125c-1.146,0-2.078,0.929-2.078,2.086c0,1.146,0.931,2.077,2.078,2.077
					c1.154,0,2.087-0.932,2.087-2.077C134.546,311.054,133.613,310.125,132.459,310.125z"/>
				<path style="fill:#0ADBD1;" d="M132.459,318.514c-1.146,0-2.078,0.932-2.078,2.077c0,1.155,0.931,2.086,2.078,2.086
					c1.154,0,2.087-0.931,2.087-2.086C134.546,319.445,133.613,318.514,132.459,318.514z"/>
				<path style="fill:#0ADBD1;" d="M132.459,326.895c-1.146,0-2.078,0.932-2.078,2.086c0,1.147,0.931,2.086,2.078,2.086
					c1.154,0,2.087-0.939,2.087-2.086C134.546,327.826,133.613,326.895,132.459,326.895z"/>
				<path style="fill:#0ADBD1;" d="M140.496,301.743c-1.155,0-2.085,0.931-2.085,2.076c0,1.156,0.93,2.087,2.085,2.087
					c1.146,0,2.077-0.931,2.077-2.087C142.573,302.674,141.643,301.743,140.496,301.743z"/>
				<path style="fill:#0ADBD1;" d="M140.496,310.125c-1.155,0-2.085,0.929-2.085,2.086c0,1.146,0.93,2.077,2.085,2.077
					c1.146,0,2.077-0.932,2.077-2.077C142.573,311.054,141.643,310.125,140.496,310.125z"/>
				<path style="fill:#0ADBD1;" d="M140.496,318.514c-1.155,0-2.085,0.932-2.085,2.077c0,1.155,0.93,2.086,2.085,2.086
					c1.146,0,2.077-0.931,2.077-2.086C142.573,319.445,141.643,318.514,140.496,318.514z"/>
				<path style="fill:#0ADBD1;" d="M140.496,326.895c-1.155,0-2.085,0.932-2.085,2.086c0,1.147,0.93,2.086,2.085,2.086
					c1.146,0,2.077-0.939,2.077-2.086C142.573,327.826,141.643,326.895,140.496,326.895z"/>
			</g>
			<path d="M151.048,309.091c-1.723,0-3.121,1.398-3.121,3.12c0,1.722,1.398,3.119,3.121,3.119c1.721,0,3.117-1.398,3.117-3.119
				C154.165,310.488,152.769,309.091,151.048,309.091z"/>
			<path style="fill:#FFFFFF;" d="M154.165,312.211c0-1.723-1.396-3.12-3.117-3.12c-1.723,0-3.121,1.398-3.121,3.12
				c0,1.722,1.398,3.119,3.121,3.119C152.769,315.33,154.165,313.933,154.165,312.211z M156.075,312.211
				c0,2.775-2.253,5.028-5.027,5.028c-2.776,0-5.029-2.254-5.029-5.028c0-2.774,2.253-5.029,5.029-5.029
				C153.822,307.182,156.075,309.436,156.075,312.211z"/>
		</g>
		<g>
			<path style="fill:#71548A;" d="M359.56,114.503c0,0-25.365-41.241-62.899-24.508c-3.867,1.724-11.729,9.071-3.867,16.497
				L359.56,114.503z"/>
			<path style="fill:#71548A;" d="M271.815,120.517c0,0-11.127,4.35-28.019-7.222c0,0,7.197,9.046,9.23,11.952l-10.636,9.474
				c0,0,15.527-7.857,29.424-4.242C285.713,134.096,271.815,120.517,271.815,120.517z"/>
			<path style="fill:#C69ED9;" d="M332.944,149.997c0,0-31.905,22.197-59.587-8.769c0,0,6.011-3.864,12.545-3.497L332.944,149.997z"
				/>
			<path style="fill:#A65FC7;" d="M368.006,127.288c-0.212-0.508-0.325-0.611-0.637-1.238c-3.938-7.882-33.2-59.27-101.501-0.621
				c0,0,50.159,53.189,98.101,7.188C365.404,131.238,368.416,128.281,368.006,127.288z"/>
			<path style="fill:#71548A;" d="M307.337,149.634c0.065-18.874,6.222-33.598,6.222-33.598
				c-3.033,11.666-1.553,29.899-1.096,34.612C310.724,150.379,309.017,150.038,307.337,149.634z"/>
			<path style="fill:#71548A;" d="M298.554,146.906c-1.393-0.532-2.75-1.097-4.078-1.691c-0.405-14.722,6.267-28.269,6.267-28.269
				C296.874,126.418,298.258,143.73,298.554,146.906z"/>
			<path style="fill:#71548A;" d="M282.337,138.621c1.055-10.833,5.132-20.361,5.132-20.361c-1.81,5.532-2.131,15.816-2.137,22.211
				C284.299,139.858,283.302,139.239,282.337,138.621z"/>
			<g>
				<path style="fill:#FFFFFF;" d="M345.711,116.036c0,2.796,2.269,5.066,5.067,5.066c2.796,0,5.064-2.27,5.064-5.066
					c0-2.796-2.268-5.065-5.064-5.065C347.979,110.97,345.711,113.24,345.711,116.036z"/>
				<path d="M348,116.036c0,1.532,1.243,2.773,2.778,2.773c1.53,0,2.772-1.241,2.772-2.773c0-1.532-1.241-2.773-2.772-2.773
					C349.243,113.262,348,114.503,348,116.036z"/>
			</g>
			<path style="opacity:0.5;fill:#A65FC7;" d="M363.969,132.617c1.436-1.379,4.447-4.336,4.037-5.33l-102.138-1.858
				C265.868,125.429,316.027,178.618,363.969,132.617z"/>
		</g>
		<g>
			<path style="fill:#308FC9;" d="M225.649,369.249c0,0-25.303-41.141-62.745-24.448c-3.857,1.72-11.7,9.049-3.857,16.457
				L225.649,369.249z"/>
			<path style="fill:#308FC9;" d="M138.12,375.248c0,0-11.1,4.339-27.949-7.204c0,0,7.179,9.023,9.207,11.922l-10.609,9.45
				c0,0,15.488-7.837,29.351-4.231C151.983,388.793,138.12,375.248,138.12,375.248z"/>
			<path style="fill:#C4EBFF;" d="M199.098,404.656c0,0-31.826,22.141-59.44-8.748c0,0,5.996-3.855,12.514-3.488L199.098,404.656z"
				/>
			<path style="fill:#7DC0FF;" d="M234.073,382.002c-0.211-0.508-0.324-0.609-0.635-1.234c-3.929-7.863-33.118-59.124-101.251-0.619
				c0,0,50.036,53.058,97.859,7.17C231.478,385.942,234.482,382.992,234.073,382.002z"/>
			<path style="fill:#308FC9;" d="M173.554,404.293c0.065-18.828,6.206-33.516,6.206-33.516
				c-3.025,11.638-1.549,29.825-1.092,34.527C176.932,405.035,175.229,404.695,173.554,404.293z"/>
			<path style="fill:#308FC9;" d="M164.792,401.571c-1.39-0.53-2.743-1.094-4.067-1.686c-0.404-14.685,6.251-28.199,6.251-28.199
				C163.117,381.134,164.497,398.403,164.792,401.571z"/>
			<path style="fill:#308FC9;" d="M148.615,393.307c1.052-10.805,5.119-20.312,5.119-20.312c-1.805,5.519-2.125,15.778-2.131,22.156
				C150.572,394.542,149.578,393.925,148.615,393.307z"/>
			<g>
				<path style="fill:#FFFFFF;" d="M211.833,370.777c0,2.789,2.263,5.054,5.055,5.054c2.789,0,5.051-2.265,5.051-5.054
					c0-2.788-2.262-5.053-5.051-5.053C214.096,365.725,211.833,367.989,211.833,370.777z"/>
				<path d="M214.117,370.777c0,1.528,1.24,2.767,2.771,2.767c1.526,0,2.765-1.238,2.765-2.767c0-1.528-1.238-2.767-2.765-2.767
					C215.357,368.011,214.117,369.249,214.117,370.777z"/>
			</g>
			<path style="opacity:0.5;fill:#7DC0FF;" d="M230.046,387.318c1.432-1.376,4.436-4.326,4.027-5.316l-101.886-1.854
				C132.187,380.148,182.223,433.206,230.046,387.318z"/>
		</g>
		<g>
			<path style="fill:#6F3FA2;" d="M195.349,269.384c19.518-11.797-32.563-11.874-32.563-11.874s67.173-14.212,113.601,10.236
				l-80.571,7.427L195.349,269.384z"/>
			<path style="fill:#6F3FA2;" d="M195.349,282.492c19.518,11.798-32.563,11.875-32.563,11.875s67.879,16.833,114.305-7.615
				l-81.275-10.046L195.349,282.492z"/>
			<path style="fill:#6F3FA2;" d="M199.089,271.152c-16.028-8.977-40.129-2.988-40.129-2.988s13.486,5.448,16.505,8.203
				c0,0-9.058,6.251-16.505,8.328c0,0,22.946,4.694,40.129-3.542V271.152z"/>
			<path style="fill:#C894FF;" d="M268.88,286.211c-1.035,4.375-11.813,12.483-11.813,12.483s13.576-2.272,20.504-13.498
				l-5.384-2.559C272.186,282.638,269.214,284.813,268.88,286.211z"/>
			<path style="fill:#A25AED;" d="M187.511,276.166c0,0,64.281-33.691,108.039,3.097C295.55,279.263,252.08,306.875,187.511,276.166
				z"/>
			<g>
				<path style="fill:#C894FF;" d="M210.452,273.823l2.093-7.053c-1.468,0.403-2.894,0.817-4.266,1.238
					C208.691,269.464,209.468,271.944,210.452,273.823z"/>
				<path style="fill:#C894FF;" d="M224.885,271.706l2.779-8.209c-1.88,0.294-3.721,0.627-5.52,0.99
					C222.511,266.342,223.339,269.612,224.885,271.706z"/>
				<path style="fill:#C894FF;" d="M240.688,273.823l4.413-11.749c-2.185,0.003-4.348,0.077-6.485,0.211
					C238.709,264.879,239.098,271.032,240.688,273.823z"/>
			</g>
			<path style="fill:#8A44D4;" d="M295.55,279.263l-108.039-3.097C252.08,306.875,295.55,279.263,295.55,279.263z"/>
			<g>
				<path style="fill:#FFFFFF;" d="M279.865,275.173c0,3.16-2.563,5.723-5.724,5.723c-3.163,0-5.723-2.563-5.723-5.723
					c0-3.161,2.56-5.724,5.723-5.724C277.303,269.449,279.865,272.012,279.865,275.173z"/>
				<path d="M277.689,275.173c0,1.96-1.588,3.549-3.548,3.549c-1.959,0-3.547-1.589-3.547-3.549c0-1.959,1.588-3.548,3.547-3.548
					C276.102,271.625,277.689,273.214,277.689,275.173z"/>
			</g>
		</g>
		<g>
			<g id="XMLID_3_">
				<g>
					<path style="fill:#A5BF00;" d="M112.94,140.947c0,0,7.75,13.668-0.618,25.049c6.718-7.881,20.496-12.727,30.704-4.361
						C142.532,161.05,126.599,142.292,112.94,140.947z"/>
					<path style="fill:#C6E50D;" d="M73.698,198.561c5.453,0.202,18.089,0.03,27.771-5.219c-2.185-2.743-6.231-10.715-6.475-12.434
						c-0.215-1.548,4.38-6.596,6.605-9.702c-7.698-4.22-17.299-5.201-23.664-5.322c4.109,3.643,6.699,8.963,6.699,14.892
						C84.634,188.546,80.184,195.272,73.698,198.561z"/>
					<path style="fill:#A5BF00;" d="M101.6,171.206c1.781,0.982,3.459,2.125,4.977,3.48c-3.966,5.554-6.12,6.364-6.12,6.364
						c0,0.009,0.01,0.009,0.01,0.02c0.011,0.02,0.02,0.04,0.05,0.08c0.019,0.031,0.031,0.061,0.039,0.081
						c1.943,3.34,3.925,6.202,5.918,8.651c-0.202,0.171-0.403,0.343-0.606,0.506c-1.355,1.143-2.844,2.114-4.4,2.955
						c-2.185-2.743-6.231-10.715-6.475-12.434C94.779,179.36,99.374,174.312,101.6,171.206z"/>
					<path style="fill:#A5BF00;" d="M106.475,189.882c-0.202,0.171-0.403,0.343-0.606,0.506c3.208,5.119,7.487,11.26,11.765,15.398
						c6.252,6.059,1.164,12.483,1.164,12.483c12.897-2.691,32.181-24.351,32.705-24.947
						C140.548,202.223,122.815,209.942,106.475,189.882z"/>
					<path style="fill:#D1EE20;" d="M106.577,174.686c1.094-1.549,2.337-3.46,3.703-5.817c0.354-0.617,0.76-1.224,1.213-1.82
						c0.265-0.324,0.527-0.647,0.759-0.972c0.031-0.03,0.051-0.05,0.071-0.081c6.718-7.881,20.496-12.727,30.704-4.361l0.01,0.012
						c1.55,1.264,19.262,19.94,18.787,20.718c-1.02,1.689-4.804,6.475-10.308,10.945c-0.012,0-0.012,0.011-0.012,0.011
						c-10.956,8.902-28.689,16.621-45.029-3.439c-1.993-2.449-3.975-5.312-5.918-8.651c-0.009-0.02-0.02-0.049-0.039-0.081
						c-0.021-0.029-0.031-0.051-0.05-0.08c0-0.011-0.01-0.011-0.01-0.02C100.457,181.05,102.611,180.24,106.577,174.686z
						 M129.319,197.457c18.797-0.585,29.5-17.045,19.313-23.247c-5.201-3.177-9.287-9.864-17.826-9.864
						c-13.444,0-23.441,16.035-22.469,18.878C111.908,193.574,120.943,197.731,129.319,197.457z"/>
					<path style="fill:#D1EE20;" d="M106.577,174.686c1.094-1.549,2.337-3.46,3.703-5.817c0.354-0.617,0.76-1.224,1.213-1.82
						c0.265-0.324,0.527-0.647,0.759-0.972c0.031-0.03,0.051-0.05,0.071-0.081c6.718-7.881,20.496-12.727,30.704-4.361l0.01,0.012
						c1.55,1.264,19.262,19.94,18.787,20.718c-1.02,1.689-4.804,6.475-10.308,10.945c-0.012,0-0.012,0.011-0.012,0.011
						c-10.956,8.902-28.689,16.621-45.029-3.439c-1.993-2.449-3.975-5.312-5.918-8.651c-0.009-0.02-0.02-0.049-0.039-0.081
						c-0.021-0.029-0.031-0.051-0.05-0.08c0-0.011-0.01-0.011-0.01-0.02C100.457,181.05,102.611,180.24,106.577,174.686z"/>
					<path style="fill:#BBF213;" d="M112.252,166.077c-0.265,0.325-0.526,0.648-0.759,0.972
						C111.757,166.725,112.02,166.401,112.252,166.077z"/>
				</g>
			</g>
			<g>
				<path style="opacity:0.72;fill:#BCD61D;" d="M122.679,158.805c-3.965,1.501-7.515,3.978-10.096,6.901
					c-2.278,7.621-4.167,19.082-0.164,30.246c3.703,3.077,7.424,4.934,11.077,5.851
					C120.122,193.133,115.406,175.794,122.679,158.805z"/>
				<path style="opacity:0.72;fill:#BCD61D;" d="M135.502,201.76c-2.731-9.405-4.71-29.409-0.121-43.956
					c-1.991-0.481-4.017-0.628-6.016-0.491c-5.26,9.762-6.352,27.977-0.777,45.186C130.952,202.569,133.266,202.298,135.502,201.76z
					"/>
			</g>
			<path style="opacity:0.62;fill:#BCD61D;" d="M100.518,181.15c0.019,0.031,0.031,0.061,0.039,0.081
				c1.943,3.34,3.925,6.202,5.918,8.651c16.34,20.06,34.073,12.341,45.029,3.439c0,0,0-0.011,0.012-0.011
				c5.504-4.47,9.289-9.256,10.308-10.945l-61.367-1.314c0,0.009,0.01,0.009,0.01,0.02
				C100.487,181.099,100.497,181.121,100.518,181.15z"/>
			<g>
				<path style="fill:#FFFFFF;" d="M137.563,174.425c0,3.018,2.446,5.464,5.464,5.464c3.017,0,5.462-2.446,5.462-5.464
					c0-3.018-2.445-5.464-5.462-5.464C140.008,168.961,137.563,171.407,137.563,174.425z"/>
				<path d="M139.64,174.425c0,1.87,1.515,3.387,3.386,3.387c1.871,0,3.387-1.517,3.387-3.387c0-1.871-1.516-3.386-3.387-3.386
					C141.155,171.039,139.64,172.554,139.64,174.425z"/>
			</g>
		</g>
	</g>
</g>
</svg>
