<?xml version="1.0" encoding="utf-8"?>
<!-- Generator: Adobe Illustrator 27.5.0, SVG Export Plug-In . SVG Version: 6.00 Build 0)  -->
<svg version="1.1" xmlns="http://www.w3.org/2000/svg" xmlns:xlink="http://www.w3.org/1999/xlink" x="0px" y="0px"
	 viewBox="0 0 500 500" style="enable-background:new 0 0 500 500;" xml:space="preserve">
<g id="BACKGROUND_2">
</g>
<g id="BACKGROUND_1">
	<rect x="0.019" style="fill:#2D5B70;" width="500" height="500"/>
	<g style="opacity:0.7;">
		<linearGradient id="SVGID_1_" gradientUnits="userSpaceOnUse" x1="256.4762" y1="93.6101" x2="256.4762" y2="497.7304">
			<stop  offset="0" style="stop-color:#FFFFFF"/>
			<stop  offset="1" style="stop-color:#FFFFFF;stop-opacity:0"/>
		</linearGradient>
		<path style="opacity:0.3;fill:url(#SVGID_1_);" d="M453.223,424.458c0.242-4.016,0.365-8.054,0.365-12.111
			c0-52.65-20.503-102.149-57.732-139.378c-37.229-37.229-86.728-57.732-139.379-57.732c-52.65,0-102.149,20.503-139.379,57.732
			s-57.732,86.728-57.732,139.378c0,4.057,0.123,8.095,0.365,12.111H453.223z"/>
		
			<linearGradient id="SVGID_00000013904355010603641630000003884774628560225928_" gradientUnits="userSpaceOnUse" x1="256.4762" y1="-42.5351" x2="256.4762" y2="446.4386">
			<stop  offset="0" style="stop-color:#FFFFFF"/>
			<stop  offset="1" style="stop-color:#FFFFFF;stop-opacity:0"/>
		</linearGradient>
		<path style="fill:url(#SVGID_00000013904355010603641630000003884774628560225928_);" d="M400.576,424.458
			c0.331-3.993,0.503-8.032,0.503-12.111c0-79.862-64.741-144.602-144.602-144.602s-144.602,64.741-144.602,144.602
			c0,4.079,0.172,8.118,0.503,12.111H400.576z"/>
	</g>
	<g>
		<path style="fill:#243A44;" d="M499.642,348.065v106.63H314.025l0,0l-125.542-0.205l0,0H0V350.513c0.04,0,0.08-0.003,0.12-0.003
			c0.823-0.035,1.648-0.055,2.478-0.055c9.65,0,18.808,2.108,27.04,5.888c8.022-7.742,18.938-12.5,30.96-12.5
			c16.225,0,30.425,8.665,38.23,21.622c6.683-2.438,13.897-3.765,21.423-3.765c20.205,0,38.175,9.575,49.625,24.438
			c3.425-0.84,7.005-1.288,10.69-1.288c4.152,0,8.172,0.568,11.987,1.63c9.675-4.86,29.45-12.44,59.165-12.788
			c23.353-0.275,40.503,5.892,50.83,11.158c3.803-1.025,7.8-1.57,11.925-1.57c3.78,0,7.45,0.457,10.96,1.318
			c11.745-15.24,30.17-25.06,50.893-25.06c7.717,0,15.115,1.36,21.967,3.86c8.008-13.288,22.57-22.175,39.208-22.175
			c12.33,0,23.525,4.88,31.75,12.82c8.442-3.875,17.832-6.038,27.73-6.038c0.85,0,1.697,0.022,2.542,0.055
			C499.563,348.06,499.602,348.065,499.642,348.065z"/>
	</g>
	<g>
		<g>
			<path style="fill:#243A44;" d="M385.355,303.135v-8.376c0.348,1.082,0.826,2.097,1.425,2.291
				c1.371,0.442,0.785-1.189,0.785-1.189s1.293,3.179,2.354,3.488c1.061,0.31,0.942-0.773,0.942-0.773s1.357,1.79,2.419,2.1
				c1.061,0.31,0.968-0.478,0.968-0.478s1.729,1.672,2.658,1.761c0.929,0.088,0.704-0.949,0.704-0.949s2.568,1.137,3.718,0.955
				c1.15-0.182,0.357-0.805,0.357-0.805c1.074-0.075,1.722-0.217,1.722-0.217c-9.066-3.071-15.939-12.309-18.051-15.421v-11.686
				c0,0,0.735,4.746,2.106,5.188c1.371,0.442,0.785-1.189,0.785-1.189s1.293,3.179,2.354,3.488c1.061,0.31,0.942-0.773,0.942-0.773
				s1.357,1.79,2.419,2.1c1.061,0.31,0.969-0.478,0.969-0.478s1.729,1.672,2.657,1.761c0.929,0.088,0.704-0.949,0.704-0.949
				s2.568,1.137,3.718,0.955c1.15-0.182,0.357-0.805,0.357-0.805c1.074-0.075,1.722-0.217,1.722-0.217
				c-10.966-3.714-18.732-16.463-18.732-16.463v-6.647c0.348,1.082,0.826,2.098,1.425,2.291c1.371,0.442,0.785-1.189,0.785-1.189
				s1.293,3.179,2.354,3.488c1.061,0.309,0.942-0.773,0.942-0.773s1.357,1.79,2.419,2.1c1.061,0.309,0.968-0.478,0.968-0.478
				s1.729,1.672,2.658,1.76c0.929,0.089,0.704-0.949,0.704-0.949s2.568,1.137,3.718,0.955s0.357-0.805,0.357-0.805
				c1.074-0.075,1.722-0.217,1.722-0.217c-9.616-3.257-16.771-13.459-18.387-15.922c-0.173-1.479-0.403-2.951-0.712-4.41
				l-0.002,0.009c-0.524,2.476-0.85,4.988-0.979,7.513c-1.221,1.903-8.555,12.788-18.549,16.173c0,0,0.647,0.142,1.722,0.217
				c0,0-0.793,0.623,0.357,0.805c1.15,0.182,3.718-0.955,3.718-0.955s-0.224,1.038,0.704,0.949c0.929-0.088,2.657-1.761,2.657-1.761
				s-0.093,0.788,0.969,0.478c1.061-0.31,2.419-2.1,2.419-2.1s-0.119,1.083,0.942,0.773c1.061-0.31,2.354-3.488,2.354-3.488
				s-0.586,1.631,0.785,1.189c0.911-0.294,1.539-2.483,1.859-3.922v8.968c-0.899,1.423-8.365,12.836-18.641,16.316
				c0,0,0.647,0.142,1.722,0.217c0,0-0.793,0.623,0.357,0.805c1.15,0.182,3.718-0.955,3.718-0.955s-0.224,1.038,0.704,0.949
				c0.929-0.089,2.658-1.761,2.658-1.761s-0.093,0.788,0.969,0.478c1.061-0.31,2.419-2.1,2.419-2.1s-0.119,1.083,0.942,0.773
				c1.061-0.31,2.354-3.488,2.354-3.488s-0.586,1.631,0.785,1.189c1.091-0.352,1.779-3.43,2.014-4.671v9.972
				c-1.391,2.148-8.649,12.743-18.486,16.075c0,0,0.647,0.142,1.722,0.217c0,0-0.793,0.623,0.357,0.805
				c1.15,0.182,3.718-0.955,3.718-0.955s-0.224,1.038,0.704,0.949c0.929-0.088,2.657-1.761,2.657-1.761s-0.093,0.788,0.969,0.478
				c1.061-0.31,2.419-2.1,2.419-2.1s-0.119,1.083,0.942,0.773c1.061-0.31,2.354-3.488,2.354-3.488s-0.586,1.631,0.785,1.189
				c0.911-0.294,1.539-2.483,1.859-3.922v10.697c-0.899,1.423-8.365,12.836-18.641,16.316c0,0,0.647,0.142,1.722,0.217
				c0,0-0.793,0.623,0.357,0.805c1.15,0.182,3.718-0.955,3.718-0.955s-0.224,1.038,0.704,0.949c0.929-0.088,2.658-1.76,2.658-1.76
				s-0.093,0.788,0.969,0.478c1.061-0.31,2.419-2.1,2.419-2.1s-0.119,1.083,0.942,0.773c1.061-0.31,2.354-3.488,2.354-3.488
				s-0.586,1.631,0.785,1.189c1.091-0.352,1.779-3.43,2.014-4.671v12.425c-0.899,1.423-8.365,12.836-18.641,16.316
				c0,0,0.647,0.142,1.722,0.217c0,0-0.793,0.623,0.357,0.805c1.15,0.182,3.718-0.955,3.718-0.955s-0.224,1.038,0.704,0.949
				c0.929-0.088,2.658-1.76,2.658-1.76s-0.093,0.788,0.969,0.478c1.061-0.309,2.419-2.1,2.419-2.1s-0.119,1.083,0.942,0.773
				c1.061-0.31,2.354-3.488,2.354-3.488s-0.586,1.631,0.785,1.189c1.091-0.352,1.779-3.43,2.014-4.671v28.736h1.045h1.047v-33.16
				c0,0,0.735,4.746,2.106,5.188c1.371,0.442,0.785-1.189,0.785-1.189s1.293,3.179,2.354,3.488c1.061,0.31,0.942-0.773,0.942-0.773
				s1.357,1.79,2.419,2.1c1.061,0.31,0.969-0.478,0.969-0.478s1.729,1.672,2.657,1.761c0.929,0.088,0.704-0.949,0.704-0.949
				s2.568,1.137,3.718,0.955c1.15-0.182,0.357-0.805,0.357-0.805c1.074-0.076,1.722-0.217,1.722-0.217
				c-10.966-3.715-18.732-16.463-18.732-16.463v-12.796c0,0,0.735,4.746,2.106,5.188c1.371,0.442,0.785-1.189,0.785-1.189
				s1.293,3.179,2.354,3.488c1.061,0.31,0.942-0.773,0.942-0.773s1.357,1.79,2.419,2.1c1.061,0.31,0.969-0.478,0.969-0.478
				s1.729,1.672,2.657,1.761c0.929,0.088,0.704-0.949,0.704-0.949s2.568,1.137,3.718,0.955c1.15-0.182,0.357-0.805,0.357-0.805
				c1.074-0.076,1.722-0.217,1.722-0.217C393.121,315.883,385.355,303.135,385.355,303.135z"/>
			<g>
				<path style="fill:#243A44;" d="M301.922,348.802v-6.382c0.265,0.825,0.63,1.597,1.085,1.745c0.955,0.307,0.665-0.703,0.61-0.88
					c0.105,0.253,1.023,2.413,1.783,2.633c0.81,0.237,0.72-0.588,0.72-0.588s1.033,1.363,1.842,1.6
					c0.807,0.235,0.738-0.365,0.738-0.365s1.317,1.275,2.025,1.342c0.707,0.065,0.537-0.725,0.537-0.725s1.958,0.867,2.833,0.728
					c0.875-0.138,0.272-0.613,0.272-0.613c0.818-0.057,1.313-0.165,1.313-0.165c-6.91-2.34-12.147-9.38-13.758-11.753v-8.905
					c0,0,0.56,3.615,1.605,3.952c0.955,0.307,0.665-0.702,0.608-0.88c0.105,0.253,1.025,2.413,1.785,2.633
					c0.81,0.235,0.717-0.59,0.717-0.59s1.035,1.365,1.843,1.603c0.81,0.235,0.74-0.365,0.74-0.365s1.318,1.272,2.025,1.34
					c0.707,0.067,0.535-0.723,0.535-0.723s1.957,0.867,2.835,0.727c0.875-0.14,0.27-0.612,0.27-0.612
					c0.82-0.057,1.312-0.168,1.312-0.168c-8.357-2.83-14.275-12.545-14.275-12.545v-5.065c0.265,0.825,0.63,1.598,1.085,1.745
					c0.955,0.307,0.665-0.702,0.61-0.88c0.105,0.253,1.023,2.413,1.783,2.633c0.81,0.237,0.72-0.587,0.72-0.587
					s1.033,1.362,1.842,1.6c0.807,0.235,0.738-0.365,0.738-0.365s1.317,1.275,2.025,1.34c0.707,0.068,0.537-0.722,0.537-0.722
					s1.958,0.867,2.833,0.727c0.875-0.137,0.272-0.612,0.272-0.612c0.818-0.057,1.313-0.168,1.313-0.168
					c-7.33-2.48-12.78-10.255-14.013-12.133c-0.132-1.127-0.307-2.247-0.542-3.36l-0.003,0.008c-0.397,1.885-0.647,3.8-0.745,5.725
					c-0.93,1.45-6.52,9.745-14.135,12.325c0,0,0.492,0.108,1.313,0.165c0,0-0.605,0.475,0.27,0.612
					c0.877,0.14,2.832-0.727,2.832-0.727s-0.17,0.792,0.538,0.725c0.707-0.067,2.025-1.342,2.025-1.342s-0.07,0.6,0.737,0.365
					c0.81-0.238,1.845-1.6,1.845-1.6s-0.092,0.825,0.717,0.587c0.76-0.22,1.677-2.38,1.783-2.633
					c-0.055,0.178-0.345,1.188,0.61,0.88c0.693-0.223,1.172-1.89,1.417-2.987v6.763c-0.418,0.672-6.203,9.779-14.25,12.505
					c0,0,0.493,0.108,1.312,0.165c0,0-0.604,0.475,0.272,0.614c0.876,0.139,2.833-0.728,2.833-0.728s-0.171,0.791,0.537,0.724
					c0.708-0.068,2.025-1.342,2.025-1.342s-0.071,0.6,0.738,0.364c0.809-0.236,1.843-1.6,1.843-1.6s-0.091,0.825,0.718,0.589
					c0.809-0.236,1.794-2.658,1.794-2.658s-0.446,1.243,0.598,0.906c0.917-0.296,1.46-3.115,1.579-3.803v7.843
					c-1.063,1.637-6.592,9.71-14.087,12.25c0,0,0.492,0.107,1.313,0.165c0,0-0.605,0.475,0.27,0.613
					c0.877,0.14,2.832-0.728,2.832-0.728s-0.17,0.793,0.538,0.725c0.707-0.068,2.025-1.342,2.025-1.342s-0.07,0.6,0.737,0.365
					c0.81-0.237,1.845-1.6,1.845-1.6s-0.092,0.825,0.717,0.588c0.76-0.22,1.677-2.38,1.783-2.633
					c-0.055,0.177-0.345,1.188,0.61,0.883c0.693-0.225,1.172-1.893,1.417-2.99v23.475c-0.499,0.798-6.256,9.784-14.239,12.488
					c0,0,0.493,0.108,1.312,0.165c0,0-0.604,0.475,0.272,0.614c0.876,0.139,2.833-0.728,2.833-0.728s-0.171,0.791,0.537,0.723
					c0.708-0.067,2.025-1.342,2.025-1.342s-0.071,0.6,0.738,0.364c0.809-0.236,1.843-1.6,1.843-1.6s-0.091,0.825,0.718,0.589
					c0.809-0.236,1.794-2.658,1.794-2.658s-0.446,1.243,0.598,0.906c0.893-0.288,1.431-2.969,1.569-3.744v22.084h1.592v-25.27
					c0,0,0.56,3.615,1.605,3.953c0.955,0.307,0.665-0.703,0.608-0.88c0.105,0.253,1.025,2.413,1.785,2.633
					c0.81,0.235,0.717-0.59,0.717-0.59s1.035,1.365,1.843,1.603c0.81,0.235,0.74-0.365,0.74-0.365s1.318,1.272,2.025,1.34
					s0.535-0.723,0.535-0.723s1.957,0.867,2.835,0.728c0.875-0.14,0.27-0.613,0.27-0.613c0.82-0.057,1.312-0.167,1.312-0.167
					c-8.357-2.83-14.275-12.545-14.275-12.545v-9.75c0,0,0.56,3.617,1.605,3.953c0.955,0.307,0.665-0.703,0.608-0.88
					c0.105,0.253,1.025,2.413,1.785,2.633c0.81,0.237,0.717-0.588,0.717-0.588s1.035,1.363,1.843,1.6
					c0.81,0.235,0.74-0.365,0.74-0.365s1.318,1.275,2.025,1.342c0.707,0.065,0.535-0.725,0.535-0.725s1.957,0.867,2.835,0.728
					c0.875-0.138,0.27-0.612,0.27-0.612c0.82-0.058,1.312-0.168,1.312-0.168C307.84,358.517,301.922,348.802,301.922,348.802z"/>
				<path style="fill:#243A44;" d="M298.725,361.36c1.045-0.337,1.605-3.952,1.605-3.952v-5.628c0,0-5.917,9.715-14.275,12.545
					c0,0,0.495,0.107,1.313,0.165c0,0-0.605,0.475,0.273,0.615c0.875,0.137,2.832-0.728,2.832-0.728s-0.17,0.79,0.537,0.723
					c0.708-0.068,2.025-1.34,2.025-1.34s-0.073,0.6,0.737,0.362c0.807-0.235,1.842-1.6,1.842-1.6s-0.09,0.825,0.718,0.59
					c0.758-0.22,1.667-2.352,1.782-2.628C298.057,360.672,297.78,361.665,298.725,361.36z"/>
			</g>
		</g>
		<g>
			<path style="fill:#243A44;" d="M125.879,303.135v-8.376c-0.348,1.082-0.826,2.097-1.425,2.291
				c-1.371,0.442-0.785-1.189-0.785-1.189s-1.293,3.179-2.354,3.488c-1.061,0.31-0.942-0.773-0.942-0.773s-1.357,1.79-2.419,2.1
				c-1.061,0.31-0.969-0.478-0.969-0.478s-1.729,1.672-2.657,1.761c-0.929,0.088-0.704-0.949-0.704-0.949s-2.568,1.137-3.718,0.955
				c-1.15-0.182-0.357-0.805-0.357-0.805c-1.074-0.075-1.722-0.217-1.722-0.217c9.066-3.071,15.939-12.309,18.051-15.421v-11.686
				c0,0-0.735,4.746-2.106,5.188c-1.371,0.442-0.785-1.189-0.785-1.189s-1.293,3.179-2.354,3.488
				c-1.061,0.31-0.942-0.773-0.942-0.773s-1.357,1.79-2.419,2.1c-1.061,0.31-0.969-0.478-0.969-0.478s-1.729,1.672-2.657,1.761
				c-0.929,0.088-0.704-0.949-0.704-0.949s-2.568,1.137-3.718,0.955c-1.15-0.182-0.357-0.805-0.357-0.805
				c-1.074-0.075-1.722-0.217-1.722-0.217c10.966-3.714,18.732-16.463,18.732-16.463v-6.647c-0.348,1.082-0.826,2.098-1.425,2.291
				c-1.371,0.442-0.785-1.189-0.785-1.189s-1.293,3.179-2.354,3.488c-1.061,0.309-0.942-0.773-0.942-0.773s-1.357,1.79-2.419,2.1
				c-1.061,0.309-0.969-0.478-0.969-0.478s-1.729,1.672-2.657,1.76c-0.929,0.089-0.704-0.949-0.704-0.949s-2.568,1.137-3.718,0.955
				c-1.15-0.182-0.357-0.805-0.357-0.805c-1.074-0.075-1.722-0.217-1.722-0.217c9.616-3.257,16.771-13.459,18.387-15.922
				c0.173-1.479,0.403-2.951,0.712-4.41l0.002,0.009c0.524,2.476,0.85,4.988,0.979,7.513c1.222,1.903,8.555,12.788,18.549,16.173
				c0,0-0.647,0.142-1.721,0.217c0,0,0.793,0.623-0.357,0.805c-1.15,0.182-3.718-0.955-3.718-0.955s0.224,1.038-0.704,0.949
				c-0.929-0.088-2.657-1.761-2.657-1.761s0.093,0.788-0.969,0.478c-1.061-0.31-2.419-2.1-2.419-2.1s0.119,1.083-0.942,0.773
				c-1.061-0.31-2.354-3.488-2.354-3.488s0.586,1.631-0.785,1.189c-0.911-0.294-1.539-2.483-1.859-3.922v8.968
				c0.899,1.423,8.365,12.836,18.641,16.316c0,0-0.647,0.142-1.722,0.217c0,0,0.793,0.623-0.357,0.805
				c-1.15,0.182-3.718-0.955-3.718-0.955s0.224,1.038-0.704,0.949c-0.929-0.089-2.658-1.761-2.658-1.761s0.093,0.788-0.969,0.478
				c-1.061-0.31-2.419-2.1-2.419-2.1s0.119,1.083-0.942,0.773c-1.061-0.31-2.354-3.488-2.354-3.488s0.586,1.631-0.785,1.189
				c-1.091-0.352-1.779-3.43-2.014-4.671v9.972c1.391,2.148,8.648,12.743,18.486,16.075c0,0-0.647,0.142-1.721,0.217
				c0,0,0.793,0.623-0.357,0.805c-1.15,0.182-3.718-0.955-3.718-0.955s0.224,1.038-0.704,0.949
				c-0.929-0.088-2.657-1.761-2.657-1.761s0.093,0.788-0.969,0.478c-1.061-0.31-2.419-2.1-2.419-2.1s0.119,1.083-0.942,0.773
				c-1.061-0.31-2.354-3.488-2.354-3.488s0.586,1.631-0.785,1.189c-0.911-0.294-1.539-2.483-1.859-3.922v10.697
				c0.899,1.423,8.365,12.836,18.641,16.316c0,0-0.647,0.142-1.722,0.217c0,0,0.793,0.623-0.357,0.805
				c-1.15,0.182-3.718-0.955-3.718-0.955s0.224,1.038-0.704,0.949c-0.929-0.088-2.658-1.76-2.658-1.76s0.093,0.788-0.969,0.478
				c-1.061-0.31-2.419-2.1-2.419-2.1s0.119,1.083-0.942,0.773c-1.061-0.31-2.354-3.488-2.354-3.488s0.586,1.631-0.785,1.189
				c-1.091-0.352-1.779-3.43-2.014-4.671v12.425c0.899,1.423,8.365,12.836,18.641,16.316c0,0-0.647,0.142-1.722,0.217
				c0,0,0.793,0.623-0.357,0.805c-1.15,0.182-3.718-0.955-3.718-0.955s0.224,1.038-0.704,0.949c-0.929-0.088-2.658-1.76-2.658-1.76
				s0.093,0.788-0.969,0.478c-1.061-0.309-2.419-2.1-2.419-2.1s0.119,1.083-0.942,0.773c-1.061-0.31-2.354-3.488-2.354-3.488
				s0.586,1.631-0.785,1.189c-1.091-0.352-1.779-3.43-2.014-4.671v28.736h-1.045h-1.047v-33.16c0,0-0.735,4.746-2.106,5.188
				c-1.371,0.442-0.785-1.189-0.785-1.189s-1.293,3.179-2.354,3.488c-1.061,0.31-0.942-0.773-0.942-0.773s-1.357,1.79-2.419,2.1
				c-1.061,0.31-0.969-0.478-0.969-0.478s-1.729,1.672-2.657,1.761c-0.929,0.088-0.704-0.949-0.704-0.949s-2.568,1.137-3.718,0.955
				c-1.15-0.182-0.357-0.805-0.357-0.805c-1.074-0.076-1.722-0.217-1.722-0.217c10.966-3.715,18.732-16.463,18.732-16.463v-12.796
				c0,0-0.735,4.746-2.106,5.188c-1.371,0.442-0.785-1.189-0.785-1.189s-1.293,3.179-2.354,3.488
				c-1.061,0.31-0.942-0.773-0.942-0.773s-1.357,1.79-2.419,2.1c-1.061,0.31-0.969-0.478-0.969-0.478s-1.729,1.672-2.657,1.761
				c-0.929,0.088-0.704-0.949-0.704-0.949s-2.568,1.137-3.718,0.955c-1.15-0.182-0.357-0.805-0.357-0.805
				c-1.074-0.076-1.722-0.217-1.722-0.217C118.113,315.883,125.879,303.135,125.879,303.135z"/>
			<g>
				<path style="fill:#243A44;" d="M209.312,348.802v-6.382c-0.265,0.825-0.63,1.597-1.085,1.745
					c-0.955,0.307-0.665-0.703-0.61-0.88c-0.105,0.253-1.022,2.413-1.783,2.633c-0.81,0.237-0.72-0.588-0.72-0.588
					s-1.032,1.363-1.842,1.6c-0.807,0.235-0.737-0.365-0.737-0.365s-1.318,1.275-2.025,1.342c-0.708,0.065-0.537-0.725-0.537-0.725
					s-1.958,0.867-2.833,0.728c-0.875-0.138-0.273-0.613-0.273-0.613c-0.817-0.057-1.313-0.165-1.313-0.165
					c6.91-2.34,12.148-9.38,13.758-11.753v-8.905c0,0-0.56,3.615-1.605,3.952c-0.955,0.307-0.665-0.702-0.608-0.88
					c-0.105,0.253-1.025,2.413-1.785,2.633c-0.81,0.235-0.717-0.59-0.717-0.59s-1.035,1.365-1.843,1.603
					c-0.81,0.235-0.74-0.365-0.74-0.365s-1.318,1.272-2.025,1.34c-0.707,0.067-0.535-0.723-0.535-0.723s-1.958,0.867-2.835,0.727
					c-0.875-0.14-0.27-0.612-0.27-0.612c-0.82-0.057-1.313-0.168-1.313-0.168c8.358-2.83,14.275-12.545,14.275-12.545v-5.065
					c-0.265,0.825-0.63,1.598-1.085,1.745c-0.955,0.307-0.665-0.702-0.61-0.88c-0.105,0.253-1.022,2.413-1.783,2.633
					c-0.81,0.237-0.72-0.587-0.72-0.587s-1.032,1.362-1.842,1.6c-0.807,0.235-0.737-0.365-0.737-0.365s-1.318,1.275-2.025,1.34
					c-0.708,0.068-0.537-0.722-0.537-0.722s-1.958,0.867-2.833,0.727c-0.875-0.137-0.273-0.612-0.273-0.612
					c-0.817-0.057-1.313-0.168-1.313-0.168c7.33-2.48,12.78-10.255,14.012-12.133c0.133-1.127,0.308-2.247,0.543-3.36l0.003,0.008
					c0.397,1.885,0.647,3.8,0.745,5.725c0.93,1.45,6.52,9.745,14.135,12.325c0,0-0.492,0.108-1.313,0.165
					c0,0,0.605,0.475-0.27,0.612c-0.878,0.14-2.833-0.727-2.833-0.727s0.17,0.792-0.538,0.725c-0.708-0.067-2.025-1.342-2.025-1.342
					s0.07,0.6-0.738,0.365c-0.81-0.238-1.845-1.6-1.845-1.6s0.092,0.825-0.717,0.587c-0.76-0.22-1.678-2.38-1.783-2.633
					c0.055,0.178,0.345,1.188-0.61,0.88c-0.693-0.223-1.173-1.89-1.417-2.987v6.763c0.418,0.672,6.203,9.779,14.25,12.505
					c0,0-0.493,0.108-1.312,0.165c0,0,0.604,0.475-0.272,0.614c-0.876,0.139-2.833-0.728-2.833-0.728s0.171,0.791-0.537,0.724
					c-0.708-0.068-2.025-1.342-2.025-1.342s0.071,0.6-0.738,0.364c-0.809-0.236-1.843-1.6-1.843-1.6s0.091,0.825-0.718,0.589
					c-0.809-0.236-1.794-2.658-1.794-2.658s0.446,1.243-0.598,0.906c-0.917-0.296-1.46-3.115-1.579-3.803v7.843
					c1.063,1.637,6.592,9.71,14.087,12.25c0,0-0.492,0.107-1.313,0.165c0,0,0.605,0.475-0.27,0.613
					c-0.878,0.14-2.833-0.728-2.833-0.728s0.17,0.793-0.538,0.725s-2.025-1.342-2.025-1.342s0.07,0.6-0.738,0.365
					c-0.81-0.237-1.845-1.6-1.845-1.6s0.092,0.825-0.717,0.588c-0.76-0.22-1.678-2.38-1.783-2.633
					c0.055,0.177,0.345,1.188-0.61,0.883c-0.693-0.225-1.173-1.893-1.417-2.99v23.475c0.499,0.798,6.256,9.784,14.239,12.488
					c0,0-0.493,0.108-1.312,0.165c0,0,0.604,0.475-0.272,0.614c-0.876,0.139-2.833-0.728-2.833-0.728s0.171,0.791-0.537,0.723
					c-0.708-0.067-2.025-1.342-2.025-1.342s0.071,0.6-0.738,0.364c-0.809-0.236-1.843-1.6-1.843-1.6s0.091,0.825-0.718,0.589
					c-0.809-0.236-1.794-2.658-1.794-2.658s0.446,1.243-0.598,0.906c-0.893-0.288-1.431-2.969-1.569-3.744v22.084h-1.592v-25.27
					c0,0-0.56,3.615-1.605,3.953c-0.955,0.307-0.665-0.703-0.608-0.88c-0.105,0.253-1.025,2.413-1.785,2.633
					c-0.81,0.235-0.717-0.59-0.717-0.59s-1.035,1.365-1.843,1.603c-0.81,0.235-0.74-0.365-0.74-0.365s-1.318,1.272-2.025,1.34
					c-0.707,0.068-0.535-0.723-0.535-0.723s-1.958,0.867-2.835,0.728c-0.875-0.14-0.27-0.613-0.27-0.613
					c-0.82-0.057-1.313-0.167-1.313-0.167c8.358-2.83,14.275-12.545,14.275-12.545v-9.75c0,0-0.56,3.617-1.605,3.953
					c-0.955,0.307-0.665-0.703-0.608-0.88c-0.105,0.253-1.025,2.413-1.785,2.633c-0.81,0.237-0.717-0.588-0.717-0.588
					s-1.035,1.363-1.843,1.6c-0.81,0.235-0.74-0.365-0.74-0.365s-1.318,1.275-2.025,1.342c-0.707,0.065-0.535-0.725-0.535-0.725
					s-1.958,0.867-2.835,0.728c-0.875-0.138-0.27-0.612-0.27-0.612c-0.82-0.058-1.313-0.168-1.313-0.168
					C203.394,358.517,209.312,348.802,209.312,348.802z"/>
				<path style="fill:#243A44;" d="M212.509,361.36c-1.045-0.337-1.605-3.952-1.605-3.952v-5.628c0,0,5.917,9.715,14.275,12.545
					c0,0-0.495,0.107-1.313,0.165c0,0,0.605,0.475-0.273,0.615c-0.875,0.137-2.833-0.728-2.833-0.728s0.17,0.79-0.537,0.723
					s-2.025-1.34-2.025-1.34s0.073,0.6-0.737,0.362c-0.808-0.235-1.842-1.6-1.842-1.6s0.09,0.825-0.717,0.59
					c-0.758-0.22-1.668-2.352-1.783-2.628C213.177,360.672,213.454,361.665,212.509,361.36z"/>
			</g>
		</g>
	</g>
	<g>
		<path style="fill:#1F1823;" d="M329.672,422.1c0,2.783,0.337,5.489,0.973,8.074c0.47,1.925,1.108,3.783,1.895,5.561
			c0.688,1.558,1.49,3.056,2.4,4.478c0.145,0.23,0.295,0.458,0.447,0.685c0.02,0.033,0.043,0.065,0.065,0.098h164.566v-78.619
			c-0.03,0-0.06-0.003-0.09-0.003c-0.622-0.025-1.247-0.04-1.875-0.04c-7.3,0-14.228,1.593-20.456,4.451
			c-6.068-5.854-14.326-9.452-23.421-9.452c-12.273,0-23.016,6.551-28.921,16.349c-5.055-1.843-10.513-2.846-16.206-2.846
			c-15.286,0-28.879,7.239-37.541,18.477c-2.59-0.635-5.298-0.973-8.085-0.973c-16.638,0-30.464,12.04-33.241,27.887
			c-0.035,0.193-0.068,0.388-0.098,0.583c-0.188,1.185-0.313,2.391-0.37,3.613C329.685,420.98,329.672,421.538,329.672,422.1z"/>
		<path style="fill:#FFFFFF;" d="M329.672,422.1c0,2.783,0.337,5.489,0.973,8.074c0.165-10.53,4.401-26.354,13.465-31.223
			c16.703-8.971,28.654-2.322,28.654-2.322s3.22-14.192,26.328-18.693c23.106-4.501,28.266,5.626,28.266,5.626
			s4.818-18.069,22.501-20.252c17.683-2.183,28.124,12,28.124,12c11.25-8.625,22.036-6.352,22.036-6.352v-6.581
			c-0.03,0-0.06-0.003-0.09-0.003c-0.622-0.025-1.247-0.04-1.875-0.04c-7.3,0-14.228,1.593-20.456,4.451
			c-6.068-5.854-14.326-9.452-23.421-9.452c-12.273,0-23.016,6.551-28.921,16.349c-5.055-1.843-10.513-2.846-16.206-2.846
			c-15.286,0-28.879,7.239-37.541,18.477c-2.59-0.635-5.298-0.973-8.085-0.973c-16.638,0-30.464,12.04-33.241,27.887
			c-0.035,0.193-0.068,0.388-0.098,0.583c-0.188,1.185-0.313,2.391-0.37,3.613C329.685,420.98,329.672,421.538,329.672,422.1z"/>
		<path style="fill:#1F1823;" d="M170.346,422.1c0,2.783-0.338,5.489-0.973,8.074c-0.47,1.925-1.107,3.783-1.895,5.561
			c-0.688,1.558-1.49,3.056-2.4,4.478c-0.145,0.23-0.295,0.458-0.448,0.685c-0.02,0.033-0.042,0.065-0.065,0.098H0v-78.619
			c0.03,0,0.06-0.003,0.09-0.003c0.622-0.025,1.247-0.04,1.875-0.04c7.3,0,14.228,1.593,20.456,4.451
			c6.068-5.854,14.326-9.452,23.421-9.452c12.273,0,23.016,6.551,28.921,16.349c5.055-1.843,10.513-2.846,16.206-2.846
			c15.286,0,28.879,7.239,37.541,18.477c2.59-0.635,5.298-0.973,8.085-0.973c16.638,0,30.464,12.04,33.241,27.887
			c0.035,0.193,0.068,0.388,0.098,0.583c0.188,1.185,0.313,2.391,0.37,3.613C170.334,420.98,170.346,421.538,170.346,422.1z"/>
		<path style="fill:#FFFFFF;" d="M170.346,422.1c0,2.783-0.338,5.489-0.973,8.074c-0.165-10.53-4.401-26.354-13.465-31.223
			c-16.703-8.971-28.654-2.322-28.654-2.322s-3.22-14.192-26.328-18.693c-23.106-4.501-28.266,5.626-28.266,5.626
			s-4.818-18.069-22.501-20.252c-17.683-2.183-28.124,12-28.124,12C10.785,366.687,0,368.96,0,368.96v-6.581
			c0.03,0,0.06-0.003,0.09-0.003c0.622-0.025,1.247-0.04,1.875-0.04c7.3,0,14.228,1.593,20.456,4.451
			c6.068-5.854,14.326-9.452,23.421-9.452c12.273,0,23.016,6.551,28.921,16.349c5.055-1.843,10.513-2.846,16.206-2.846
			c15.286,0,28.879,7.239,37.541,18.477c2.59-0.635,5.298-0.973,8.085-0.973c16.638,0,30.464,12.04,33.241,27.887
			c0.035,0.193,0.068,0.388,0.098,0.583c0.188,1.185,0.313,2.391,0.37,3.613C170.334,420.98,170.346,421.538,170.346,422.1z"/>
	</g>
	<path style="fill:#1F1823;" d="M500,500l0.019-68.734c0,0-86.527-22.266-244.038-22.266S0.031,425.232,0.031,425.232L0,500H500z"/>
	<g>
		<g>
			<g>
				<polygon style="fill:#1F1823;" points="121.132,410 33.342,410 37.888,389.316 62,383.809 39.64,381.332 46.612,349.595 
					63.5,345.351 48.333,341.77 54.827,312.198 68.5,312.198 55.855,307.523 62.225,278.524 70.75,273.408 63.35,273.408 
					68.177,251.434 76.995,213.5 78.192,218.834 91.07,276.16 88.433,277.824 81.25,282.359 89.503,283.991 92.982,284.677 
					97.75,305.898 83,305.898 94.02,310.023 99.103,311.922 102.29,326.105 96.982,327.083 86,329.106 97.563,330.422 
					103.407,331.088 109.555,358.46 102.87,361.003 88.25,366.569 103.697,365.77 111.112,365.385 117.2,392.495 108.622,394.143 
					102,395.413 109.017,396.424 118.385,397.77 				"/>
				<polygon style="fill:#FFFFFF;" points="91.07,276.16 88.433,277.824 78.192,218.834 				"/>
				<polygon style="fill:#FFFFFF;" points="97.75,305.898 93.305,305.898 89.503,283.991 92.982,284.677 				"/>
				<polygon style="fill:#FFFFFF;" points="102.29,326.105 96.982,327.083 94.02,310.023 99.103,311.922 				"/>
				<polygon style="fill:#FFFFFF;" points="109.555,358.46 102.87,361.003 97.563,330.422 103.407,331.088 				"/>
				<polygon style="fill:#FFFFFF;" points="117.2,392.495 108.622,394.143 103.697,365.77 111.112,365.385 				"/>
				<polygon style="fill:#FFFFFF;" points="121.132,410 111.375,410 109.017,396.424 118.385,397.77 				"/>
			</g>
			<g>
				<polygon style="fill:#1F1823;" points="198.934,410.75 137.908,410.75 141.067,394.066 157.829,389.624 142.286,387.626 
					147.132,362.026 158.872,358.603 148.328,355.715 152.843,331.861 162.347,331.861 153.557,328.09 157.985,304.699 
					163.911,300.573 158.768,300.573 162.123,282.848 168.253,252.25 169.085,256.553 178.037,302.792 176.203,304.135 
					171.21,307.793 176.947,309.109 179.366,309.663 182.68,326.78 172.427,326.78 180.087,330.107 183.62,331.639 185.836,343.079 
					182.147,343.868 174.512,345.5 182.55,346.561 186.613,347.099 190.886,369.177 186.24,371.228 176.076,375.718 
					186.815,375.073 191.969,374.763 196.201,396.63 190.238,397.959 185.635,398.983 190.513,399.799 197.025,400.885 				"/>
				<polygon style="fill:#FFFFFF;" points="178.037,302.792 176.203,304.135 169.085,256.553 				"/>
				<polygon style="fill:#FFFFFF;" points="182.68,326.78 179.59,326.78 176.947,309.109 179.366,309.663 				"/>
				<polygon style="fill:#FFFFFF;" points="185.836,343.079 182.147,343.868 180.087,330.107 183.62,331.639 				"/>
				<polygon style="fill:#FFFFFF;" points="190.886,369.177 186.24,371.228 182.55,346.561 186.613,347.099 				"/>
				<polygon style="fill:#FFFFFF;" points="196.201,396.63 190.238,397.959 186.815,375.073 191.969,374.763 				"/>
				<polygon style="fill:#FFFFFF;" points="198.934,410.75 192.152,410.75 190.513,399.799 197.025,400.885 				"/>
			</g>
		</g>
		<g>
			<g>
				<polygon style="fill:#1F1823;" points="390.645,410 478.434,410 473.889,389.316 449.777,383.809 472.137,381.332 
					465.164,349.595 448.277,345.351 463.444,341.77 456.949,312.198 443.277,312.198 455.922,307.523 449.552,278.524 
					441.027,273.408 448.427,273.408 443.599,251.434 434.782,213.5 433.585,218.834 420.707,276.16 423.344,277.824 
					430.527,282.359 422.274,283.991 418.794,284.677 414.027,305.898 428.777,305.898 417.757,310.023 412.674,311.922 
					409.487,326.105 414.794,327.083 425.777,329.106 414.214,330.422 408.369,331.088 402.222,358.46 408.907,361.003 
					423.527,366.569 408.079,365.77 400.664,365.385 394.577,392.495 403.154,394.143 409.777,395.413 402.759,396.424 
					393.392,397.77 				"/>
				<polygon style="fill:#FFFFFF;" points="420.707,276.16 423.344,277.824 433.585,218.834 				"/>
				<polygon style="fill:#FFFFFF;" points="414.027,305.898 418.472,305.898 422.274,283.991 418.794,284.677 				"/>
				<polygon style="fill:#FFFFFF;" points="409.487,326.105 414.794,327.083 417.757,310.023 412.674,311.922 				"/>
				<polygon style="fill:#FFFFFF;" points="402.222,358.46 408.907,361.003 414.214,330.422 408.369,331.088 				"/>
				<polygon style="fill:#FFFFFF;" points="394.577,392.495 403.154,394.143 408.079,365.77 400.664,365.385 				"/>
				<polygon style="fill:#FFFFFF;" points="390.645,410 400.402,410 402.759,396.424 393.392,397.77 				"/>
			</g>
			<g>
				<polygon style="fill:#1F1823;" points="312.842,410.75 373.869,410.75 370.71,394.066 353.948,389.624 369.491,387.626 
					364.645,362.026 352.905,358.603 363.449,355.715 358.934,331.861 349.43,331.861 358.22,328.09 353.792,304.699 
					347.865,300.573 353.01,300.573 349.654,282.848 343.524,252.25 342.692,256.553 333.74,302.792 335.574,304.135 
					340.566,307.793 334.83,309.109 332.411,309.663 329.097,326.78 339.35,326.78 331.689,330.107 328.156,331.639 
					325.941,343.079 329.63,343.868 337.265,345.5 329.227,346.561 325.164,347.099 320.891,369.177 325.538,371.228 
					335.701,375.718 324.962,375.073 319.808,374.763 315.576,396.63 321.539,397.959 326.142,398.983 321.264,399.799 
					314.752,400.885 				"/>
				<polygon style="fill:#FFFFFF;" points="333.74,302.792 335.574,304.135 342.692,256.553 				"/>
				<polygon style="fill:#FFFFFF;" points="329.097,326.78 332.187,326.78 334.83,309.109 332.411,309.663 				"/>
				<polygon style="fill:#FFFFFF;" points="325.941,343.079 329.63,343.868 331.689,330.107 328.156,331.639 				"/>
				<polygon style="fill:#FFFFFF;" points="320.891,369.177 325.538,371.228 329.227,346.561 325.164,347.099 				"/>
				<polygon style="fill:#FFFFFF;" points="315.576,396.63 321.539,397.959 324.962,375.073 319.808,374.763 				"/>
				<polygon style="fill:#FFFFFF;" points="312.842,410.75 319.625,410.75 321.264,399.799 314.752,400.885 				"/>
			</g>
		</g>
	</g>
	<g>
		<path style="fill:#FFFFFF;" d="M381.612,47.25c-6.451,0.418-6.79,0.757-7.208,7.208c-0.418-6.451-0.757-6.79-7.208-7.208
			c6.451-0.418,6.79-0.757,7.208-7.208C374.822,46.493,375.16,46.832,381.612,47.25z"/>
		<path style="fill:#FFFFFF;" d="M152.324,109.037c-6.451,0.418-6.79,0.757-7.208,7.208c-0.418-6.451-0.757-6.79-7.208-7.208
			c6.451-0.418,6.79-0.757,7.208-7.208C145.534,108.28,145.873,108.619,152.324,109.037z"/>
		<path style="fill:#FFFFFF;" d="M138.498,215.236c-6.451,0.418-6.79,0.757-7.208,7.208c-0.418-6.451-0.757-6.79-7.208-7.208
			c6.451-0.418,6.79-0.757,7.208-7.208C131.708,214.48,132.047,214.818,138.498,215.236z"/>
		<path style="fill:#FFFFFF;" d="M477.392,201.305c-6.451,0.418-6.79,0.757-7.208,7.208c-0.418-6.451-0.757-6.79-7.208-7.208
			c6.451-0.418,6.79-0.757,7.208-7.208C470.602,200.549,470.941,200.887,477.392,201.305z"/>
		<path style="fill:#FFFFFF;" d="M120.385,35.273c-6.451,0.418-6.79,0.757-7.208,7.208c-0.418-6.451-0.757-6.79-7.208-7.208
			c6.451-0.418,6.79-0.757,7.208-7.208C113.595,34.516,113.934,34.855,120.385,35.273z"/>
		<path style="fill:#FFFFFF;" d="M320.051,106.75c-6.451,0.418-6.79,0.757-7.208,7.208c-0.418-6.451-0.757-6.79-7.208-7.208
			c6.451-0.418,6.79-0.757,7.208-7.208C313.26,105.993,313.599,106.332,320.051,106.75z"/>
		<path style="fill:#FFFFFF;" d="M278.1,144.378c-6.451,0.418-6.79,0.757-7.208,7.208c-0.418-6.451-0.757-6.79-7.208-7.208
			c6.451-0.418,6.79-0.757,7.208-7.208C271.31,143.621,271.649,143.96,278.1,144.378z"/>
		<path style="fill:#FFFFFF;" d="M409.43,229.652c-6.451,0.418-6.79,0.757-7.208,7.208c-0.418-6.451-0.757-6.79-7.208-7.208
			c6.451-0.418,6.79-0.757,7.208-7.208C402.64,228.895,402.979,229.234,409.43,229.652z"/>
		<path style="fill:#FFFFFF;" d="M45.001,190.757c-6.451,0.418-6.79,0.757-7.208,7.208c-0.418-6.451-0.757-6.79-7.208-7.208
			c6.451-0.418,6.79-0.757,7.208-7.208C38.211,190,38.549,190.339,45.001,190.757z"/>
		<path style="fill:#FFFFFF;" d="M201.932,191.462c-6.451,0.418-6.79,0.757-7.208,7.208c-0.418-6.451-0.757-6.79-7.208-7.208
			c6.451-0.418,6.79-0.757,7.208-7.208C195.142,190.705,195.48,191.044,201.932,191.462z"/>
		<path style="fill:#FFFFFF;" d="M96.711,161.024c-6.451,0.418-6.79,0.757-7.208,7.208c-0.418-6.451-0.757-6.79-7.208-7.208
			c6.451-0.418,6.79-0.757,7.208-7.208C89.92,160.267,90.259,160.606,96.711,161.024z"/>
		<path style="fill:#FFFFFF;" d="M40.55,241.121c-6.451,0.418-6.79,0.757-7.208,7.208c-0.418-6.451-0.757-6.79-7.208-7.208
			c6.451-0.418,6.79-0.757,7.208-7.208C33.76,240.365,34.099,240.703,40.55,241.121z"/>
		<path style="fill:#FFFFFF;" d="M213.35,58.396c-6.451,0.418-6.79,0.757-7.208,7.208c-0.418-6.451-0.757-6.79-7.208-7.208
			c6.451-0.418,6.79-0.757,7.208-7.208C206.56,57.639,206.899,57.978,213.35,58.396z"/>
		<path style="fill:#FFFFFF;" d="M73.885,71.104c-14.899,0.965-15.681,1.747-16.646,16.646
			c-0.965-14.899-1.747-15.681-16.646-16.646c14.899-0.965,15.681-1.747,16.646-16.646C58.204,69.356,58.987,70.139,73.885,71.104z"
			/>
		<path style="fill:#FFFFFF;" d="M449.556,90.104c-14.899,0.965-15.681,1.747-16.646,16.646
			c-0.965-14.899-1.747-15.681-16.646-16.646c14.898-0.965,15.681-1.747,16.646-16.646
			C433.875,88.356,434.657,89.139,449.556,90.104z"/>
		<path style="fill:#FFFFFF;" d="M337.91,189.646c-14.899,0.965-15.681,1.747-16.646,16.646
			c-0.965-14.899-1.747-15.681-16.646-16.646c14.898-0.965,15.681-1.747,16.646-16.646
			C322.229,187.899,323.011,188.681,337.91,189.646z"/>
		<path style="fill:#FFFFFF;" d="M219.128,144.378c-14.899,0.965-15.681,1.747-16.646,16.646
			c-0.965-14.899-1.747-15.681-16.646-16.646c14.899-0.965,15.681-1.747,16.646-16.646
			C203.447,142.63,204.23,143.413,219.128,144.378z"/>
		<path style="fill:#FFFFFF;" d="M25.843,140.747c0,1.003-0.813,1.815-1.815,1.815c-1.003,0-1.816-0.813-1.816-1.815
			c0-1.003,0.813-1.815,1.816-1.815C25.03,138.931,25.843,139.744,25.843,140.747z"/>
		<path style="fill:#FFFFFF;" d="M42.814,106.75c0,0.613-0.497,1.111-1.111,1.111c-0.613,0-1.111-0.497-1.111-1.111
			s0.497-1.111,1.111-1.111C42.317,105.639,42.814,106.137,42.814,106.75z"/>
		<path style="fill:#FFFFFF;" d="M139.018,71.104c0,0.613-0.497,1.111-1.11,1.111c-0.613,0-1.111-0.497-1.111-1.111
			c0-0.613,0.497-1.111,1.111-1.111C138.521,69.993,139.018,70.491,139.018,71.104z"/>
		<path style="fill:#FFFFFF;" d="M207.253,95.079c0,0.613-0.497,1.11-1.111,1.11c-0.613,0-1.111-0.497-1.111-1.11
			c0-0.613,0.497-1.111,1.111-1.111C206.756,93.968,207.253,94.465,207.253,95.079z"/>
		<path style="fill:#FFFFFF;" d="M397.813,113.958c0,0.613-0.497,1.111-1.111,1.111c-0.613,0-1.111-0.497-1.111-1.111
			s0.497-1.111,1.111-1.111C397.315,112.847,397.813,113.345,397.813,113.958z"/>
		<path style="fill:#FFFFFF;" d="M410.598,26.954c0,0.613-0.497,1.111-1.111,1.111c-0.613,0-1.111-0.497-1.111-1.111
			c0-0.613,0.497-1.111,1.111-1.111C410.1,25.844,410.598,26.341,410.598,26.954z"/>
		<path style="fill:#FFFFFF;" d="M429.367,190.757c0,0.613-0.497,1.11-1.111,1.11c-0.613,0-1.111-0.497-1.111-1.11
			c0-0.613,0.497-1.111,1.111-1.111C428.87,189.646,429.367,190.143,429.367,190.757z"/>
		<path style="fill:#FFFFFF;" d="M464.087,58.396c0,0.613-0.497,1.111-1.111,1.111c-0.613,0-1.111-0.497-1.111-1.111
			c0-0.613,0.497-1.111,1.111-1.111C463.589,57.285,464.087,57.783,464.087,58.396z"/>
		<circle style="fill:#FFFFFF;" cx="178.037" cy="28.065" r="1.111"/>
		<path style="fill:#FFFFFF;" d="M321.161,51.188c0,0.613-0.497,1.111-1.111,1.111c-0.613,0-1.111-0.497-1.111-1.111
			c0-0.613,0.497-1.111,1.111-1.111C320.664,50.077,321.161,50.575,321.161,51.188z"/>
		<path style="fill:#FFFFFF;" d="M146.227,161.024c0,0.613-0.497,1.111-1.111,1.111c-0.613,0-1.111-0.497-1.111-1.111
			s0.497-1.111,1.111-1.111C145.729,159.913,146.227,160.41,146.227,161.024z"/>
		<path style="fill:#FFFFFF;" d="M171.457,213.5c0,0.613-0.497,1.111-1.111,1.111c-0.613,0-1.111-0.497-1.111-1.111
			s0.497-1.111,1.111-1.111C170.96,212.389,171.457,212.887,171.457,213.5z"/>
		<path style="fill:#FFFFFF;" d="M358.25,218.834c0,0.613-0.497,1.111-1.111,1.111c-0.613,0-1.111-0.497-1.111-1.111
			c0-0.613,0.497-1.111,1.111-1.111C357.753,217.724,358.25,218.221,358.25,218.834z"/>
		<path style="fill:#FFFFFF;" d="M475.907,277.824c0,0.613-0.497,1.111-1.111,1.111c-0.613,0-1.111-0.497-1.111-1.111
			c0-0.613,0.497-1.111,1.111-1.111C475.41,276.714,475.907,277.211,475.907,277.824z"/>
		<path style="fill:#FFFFFF;" d="M99.266,200.195c0,0.613-0.497,1.111-1.111,1.111c-0.613,0-1.111-0.497-1.111-1.111
			c0-0.613,0.497-1.111,1.111-1.111C98.768,199.084,99.266,199.581,99.266,200.195z"/>
		<path style="fill:#FFFFFF;" d="M42.814,276.714c0,0.613-0.497,1.111-1.111,1.111c-0.613,0-1.111-0.497-1.111-1.111
			c0-0.613,0.497-1.111,1.111-1.111C42.317,275.603,42.814,276.1,42.814,276.714z"/>
		<path style="fill:#FFFFFF;" d="M482.464,309.109c0,0.613-0.497,1.111-1.111,1.111c-0.613,0-1.111-0.497-1.111-1.111
			c0-0.613,0.497-1.111,1.111-1.111C481.966,307.998,482.464,308.496,482.464,309.109z"/>
		<path style="fill:#FFFFFF;" d="M29.474,33.457c0,1.003-0.813,1.815-1.816,1.815c-1.003,0-1.815-0.813-1.815-1.815
			c0-1.003,0.813-1.816,1.815-1.816C28.661,31.642,29.474,32.454,29.474,33.457z"/>
		<path style="fill:#FFFFFF;" d="M251.683,22.403c0,1.003-0.813,1.816-1.815,1.816c-1.003,0-1.815-0.813-1.815-1.816
			c0-1.003,0.813-1.816,1.815-1.816C250.87,20.588,251.683,21.401,251.683,22.403z"/>
		<path style="fill:#FFFFFF;" d="M99.97,113.958c0,1.003-0.813,1.815-1.815,1.815c-1.003,0-1.815-0.813-1.815-1.815
			c0-1.003,0.813-1.815,1.815-1.815C99.158,112.143,99.97,112.955,99.97,113.958z"/>
		<path style="fill:#FFFFFF;" d="M258.292,182.438c0,1.003-0.813,1.815-1.815,1.815c-1.003,0-1.815-0.813-1.815-1.815
			c0-1.003,0.813-1.816,1.815-1.816C257.479,180.623,258.292,181.436,258.292,182.438z"/>
		<path style="fill:#FFFFFF;" d="M56.782,159.913c0,1.003-0.813,1.816-1.815,1.816c-1.003,0-1.815-0.813-1.815-1.816
			c0-1.003,0.813-1.816,1.815-1.816C55.969,158.098,56.782,158.91,56.782,159.913z"/>
		<path style="fill:#FFFFFF;" d="M25.843,304.135c0,1.003-0.813,1.816-1.816,1.816c-1.003,0-1.815-0.813-1.815-1.816
			c0-1.003,0.813-1.815,1.815-1.815C25.03,302.319,25.843,303.132,25.843,304.135z"/>
		<path style="fill:#FFFFFF;" d="M249.868,106.75c0,1.003-0.813,1.815-1.816,1.815c-1.003,0-1.815-0.813-1.815-1.815
			c0-1.003,0.813-1.815,1.815-1.815C249.055,104.935,249.868,105.747,249.868,106.75z"/>
		<path style="fill:#FFFFFF;" d="M320.755,144.378c0,1.003-0.813,1.816-1.816,1.816c-1.003,0-1.815-0.813-1.815-1.816
			c0-1.003,0.813-1.816,1.815-1.816C319.943,142.562,320.755,143.375,320.755,144.378z"/>
		<path style="fill:#FFFFFF;" d="M267.522,65.604c0,1.003-0.813,1.816-1.815,1.816c-1.003,0-1.815-0.813-1.815-1.816
			c0-1.003,0.813-1.815,1.815-1.815C266.709,63.788,267.522,64.601,267.522,65.604z"/>
		<path style="fill:#FFFFFF;" d="M383.427,151.718c0,1.003-0.813,1.816-1.816,1.816c-1.003,0-1.815-0.813-1.815-1.816
			c0-1.003,0.813-1.815,1.815-1.815C382.614,149.903,383.427,150.715,383.427,151.718z"/>
		<path style="fill:#FFFFFF;" d="M366.438,90.104c0,1.003-0.813,1.816-1.816,1.816c-1.003,0-1.815-0.813-1.815-1.816
			c0-1.003,0.813-1.815,1.815-1.815C365.625,88.288,366.438,89.101,366.438,90.104z"/>
		<path style="fill:#FFFFFF;" d="M459.565,33.457c0,1.003-0.813,1.815-1.815,1.815c-1.003,0-1.816-0.813-1.816-1.815
			c0-1.003,0.813-1.816,1.816-1.816C458.753,31.642,459.565,32.454,459.565,33.457z"/>
		<path style="fill:#FFFFFF;" d="M376.219,193.277c0,1.003-0.813,1.816-1.815,1.816c-1.003,0-1.815-0.813-1.815-1.816
			c0-1.003,0.813-1.815,1.815-1.815C375.406,191.462,376.219,192.275,376.219,193.277z"/>
		<path style="fill:#FFFFFF;" d="M478.427,142.562c0,1.003-0.813,1.816-1.815,1.816c-1.003,0-1.815-0.813-1.815-1.816
			c0-1.003,0.813-1.815,1.815-1.815C477.614,140.747,478.427,141.56,478.427,142.562z"/>
		<path style="fill:#FFFFFF;" d="M340.031,22.403c0,1.003-0.813,1.816-1.815,1.816c-1.003,0-1.815-0.813-1.815-1.816
			c0-1.003,0.813-1.815,1.815-1.815C339.219,20.588,340.031,21.401,340.031,22.403z"/>
		<path style="fill:#FFFFFF;" d="M480.243,248.329c0,1.003-0.813,1.816-1.815,1.816c-1.003,0-1.815-0.813-1.815-1.816
			c0-1.003,0.813-1.815,1.815-1.815C479.43,246.514,480.243,247.327,480.243,248.329z"/>
		<path style="fill:#FFFFFF;" d="M440.792,153.816c-6.451,0.418-6.79,0.757-7.208,7.208c-0.418-6.451-0.757-6.79-7.208-7.208
			c6.451-0.418,6.79-0.757,7.208-7.208C434.002,153.059,434.341,153.398,440.792,153.816z"/>
	</g>
</g>
<g id="DESIGNED_BY_FREEPIK">
	<g>
		<g id="XMLID_1_">
			<g id="XMLID_20_">
				<path id="XMLID_28_" style="fill:#F7FAFB;" d="M260.104,465.465c-0.432,0.443-0.803,0.931-1.108,1.453l-0.465-0.241
					c-0.067-0.298-0.349-0.503-0.659-0.466c-0.331,0.039-0.568,0.339-0.529,0.67s0.339,0.568,0.67,0.529
					c0.065-0.008,0.127-0.026,0.184-0.052l0.451,0.234c-0.251,0.554-0.433,1.139-0.539,1.744l0.746,0.132
					c0.23-1.306,0.85-2.507,1.792-3.473L260.104,465.465z"/>
				<path id="XMLID_27_" style="fill:#F7FAFB;" d="M265.592,463.163c-0.171,0-0.341,0.006-0.51,0.017l-0.074-0.626
					c0.188-0.149,0.296-0.389,0.266-0.645c-0.046-0.393-0.402-0.674-0.795-0.628s-0.674,0.402-0.628,0.795
					c0.03,0.254,0.189,0.461,0.405,0.564l0.073,0.624c-0.714,0.116-1.403,0.332-2.06,0.646l0.327,0.684
					c0.934-0.447,1.942-0.673,2.995-0.673c0.496,0,0.993,0.053,1.475,0.158l0.161-0.741
					C266.693,463.222,266.142,463.163,265.592,463.163z"/>
				<path id="XMLID_26_" style="fill:#F7FAFB;" d="M272.194,465.711c0.331-0.04,0.566-0.341,0.525-0.672
					c-0.04-0.331-0.341-0.566-0.672-0.526c-0.309,0.038-0.535,0.304-0.53,0.609l-0.416,0.363c-0.418-0.43-0.89-0.813-1.408-1.139
					l-0.404,0.641c1.134,0.715,2.021,1.726,2.563,2.925l0.691-0.313c-0.251-0.554-0.568-1.072-0.942-1.545l0.402-0.351
					C272.065,465.716,272.129,465.719,272.194,465.711z"/>
				<path id="XMLID_25_" style="fill:#F7FAFB;" d="M265.044,473.372c-0.386,0.023-0.775,0.035-1.157,0.035
					c-0.88,0-1.733-0.061-2.478-0.179c-0.39-0.062-0.846-0.155-1.27-0.292c1.046,1.861,3.069,3.125,5.388,3.125
					c2.855,0,5.262-1.916,5.95-4.504c-0.682,0.449-1.505,0.825-2.459,1.123C267.839,473.047,266.464,473.286,265.044,473.372z"/>
				<path id="XMLID_21_" style="fill:#F7FAFB;" d="M265.592,464.68c-3.352,0-6.08,2.666-6.08,5.943c0,0.426,0.046,0.849,0.137,1.261
					c0.674,0.483,2.706,0.89,5.348,0.731c2.879-0.173,5.297-0.957,6.672-2.159c-0.005-0.195-0.021-0.39-0.045-0.582
					C271.244,466.913,268.65,464.68,265.592,464.68z M263.432,471.194c-1.02,0-1.85-0.83-1.85-1.85c0-1.02,0.83-1.85,1.85-1.85
					c1.02,0,1.85,0.83,1.85,1.85C265.282,470.365,264.452,471.194,263.432,471.194z M268.17,470.286c-0.75,0-1.36-0.61-1.36-1.36
					s0.61-1.361,1.36-1.361c0.75,0,1.361,0.61,1.361,1.361S268.92,470.286,268.17,470.286z"/>
			</g>
			<path id="XMLID_18_" style="fill:#F7FAFB;" d="M281.595,466.547c-0.295-0.116-0.806-0.309-1.382-0.237
				c-0.551,0.069-0.844,0.341-0.844,1.007v0.866h2.228v1.717h-2.228v5.455h-1.932v-5.455h-1.34v-1.717h1.34v-0.888
				c0-1.68,0.896-2.783,2.568-2.783c0.642,0,1.157,0.122,1.59,0.308L281.595,466.547z"/>
			<path id="XMLID_16_" style="fill:#F7FAFB;" d="M286.298,469.879c-0.177-0.03-0.358-0.046-0.526-0.046
				c-0.896,0-1.51,0.548-1.51,1.614v3.908h-1.932v-7.172h1.873v0.785c0.451-0.673,1.14-0.977,2.021-0.977
				c0.414,0,0.848,0.128,1.094,0.337L286.298,469.879z"/>
			<path id="XMLID_13_" style="fill:#F7FAFB;" d="M293.965,471.757c0,0.222-0.015,0.489-0.037,0.651h-5.085
				c0.207,1.036,0.933,1.488,1.843,1.488c0.622,0,1.295-0.252,1.813-0.688l1.132,1.243c-0.814,0.748-1.85,1.088-3.057,1.088
				c-2.198,0-3.723-1.495-3.723-3.753c0-2.258,1.48-3.797,3.627-3.797C292.544,467.99,293.958,469.522,293.965,471.757z
				 M288.851,471.091h3.175c-0.177-0.918-0.733-1.436-1.562-1.436C289.554,469.655,289.021,470.203,288.851,471.091z"/>
			<path id="XMLID_10_" style="fill:#F7FAFB;" d="M301.618,471.757c0,0.222-0.015,0.489-0.037,0.651h-5.085
				c0.207,1.036,0.932,1.488,1.843,1.488c0.622,0,1.295-0.252,1.813-0.688l1.132,1.243c-0.814,0.748-1.85,1.088-3.057,1.088
				c-2.198,0-3.723-1.495-3.723-3.753c0-2.258,1.48-3.797,3.627-3.797C300.197,467.99,301.611,469.522,301.618,471.757z
				 M296.504,471.091h3.175c-0.178-0.918-0.733-1.436-1.562-1.436C297.207,469.655,296.674,470.203,296.504,471.091z"/>
			<path id="XMLID_7_" style="fill:#F7FAFB;" d="M309.964,471.764c0,2.154-1.495,3.775-3.471,3.775
				c-0.962,0-1.643-0.378-2.109-0.933v3.708h-1.924v-10.133h1.887v0.792c0.466-0.585,1.155-0.984,2.139-0.984
				C308.469,467.99,309.964,469.61,309.964,471.764z M304.287,471.764c0,1.132,0.747,1.976,1.843,1.976
				c1.14,0,1.85-0.881,1.85-1.976c0-1.095-0.71-1.976-1.85-1.976C305.035,469.788,304.287,470.632,304.287,471.764z"/>
			<path id="XMLID_4_" style="fill:#F7FAFB;" d="M313.068,465.836c0,0.696-0.54,1.229-1.236,1.229c-0.696,0-1.229-0.533-1.229-1.229
				c0-0.696,0.533-1.243,1.229-1.243C312.527,464.592,313.068,465.14,313.068,465.836z M312.809,475.354h-1.932v-7.172h1.932
				V475.354z"/>
			<path id="XMLID_2_" style="fill:#F7FAFB;" d="M316.032,470.736l2.702-2.554h2.368l-3.479,3.375l3.501,3.797h-2.376l-2.716-2.901
				v2.901H314.1v-10.658h1.932V470.736z"/>
		</g>
		<g>
			<path style="fill:#F7FAFB;" d="M184.412,475.289v-1.055c-0.527,0.718-1.391,1.23-2.387,1.23c-1.846,0-3.149-1.406-3.149-3.706
				c0-2.256,1.289-3.721,3.149-3.721c0.952,0,1.816,0.469,2.387,1.245v-3.765h1.099v9.77H184.412z M184.412,473.37v-3.208
				c-0.395-0.615-1.245-1.143-2.124-1.143c-1.421,0-2.27,1.172-2.27,2.739c0,1.567,0.85,2.724,2.27,2.724
				C183.168,474.483,184.017,473.986,184.412,473.37z"/>
			<path style="fill:#F7FAFB;" d="M186.932,471.744c0-2.051,1.465-3.706,3.486-3.706c2.139,0,3.398,1.67,3.398,3.794v0.279h-5.727
				c0.088,1.333,1.025,2.446,2.549,2.446c0.805,0,1.626-0.322,2.182-0.894l0.527,0.718c-0.703,0.703-1.655,1.084-2.812,1.084
				C188.44,475.465,186.932,473.956,186.932,471.744z M190.403,468.947c-1.509,0-2.256,1.274-2.314,2.358h4.643
				C192.718,470.25,192.015,468.947,190.403,468.947z"/>
			<path style="fill:#F7FAFB;" d="M194.607,474.351l0.571-0.791c0.469,0.542,1.362,1.011,2.329,1.011c1.084,0,1.67-0.513,1.67-1.216
				c0-1.714-4.38-0.659-4.38-3.281c0-1.098,0.952-2.036,2.636-2.036c1.201,0,2.051,0.454,2.622,1.026l-0.513,0.762
				c-0.424-0.513-1.201-0.894-2.109-0.894c-0.967,0-1.567,0.483-1.567,1.113c0,1.552,4.38,0.527,4.38,3.281
				c0,1.187-0.952,2.138-2.783,2.138C196.306,475.465,195.325,475.113,194.607,474.351z"/>
			<path style="fill:#F7FAFB;" d="M201.477,466.471c0-0.41,0.337-0.747,0.732-0.747c0.41,0,0.747,0.337,0.747,0.747
				c0,0.41-0.337,0.732-0.747,0.732C201.814,467.203,201.477,466.881,201.477,466.471z M201.667,475.289v-7.075h1.099v7.075H201.667
				z"/>
			<path style="fill:#F7FAFB;" d="M204.582,477.105l0.556-0.82c0.586,0.703,1.289,0.967,2.3,0.967c1.172,0,2.27-0.571,2.27-2.124
				v-1.011c-0.513,0.718-1.377,1.26-2.373,1.26c-1.845,0-3.149-1.377-3.149-3.662c0-2.27,1.289-3.677,3.149-3.677
				c0.952,0,1.802,0.469,2.373,1.245v-1.069h1.098v6.87c0,2.344-1.641,3.076-3.369,3.076
				C206.237,478.16,205.417,477.926,204.582,477.105z M209.709,473.253v-3.091c-0.381-0.615-1.23-1.143-2.109-1.143
				c-1.421,0-2.27,1.128-2.27,2.695c0,1.553,0.849,2.695,2.27,2.695C208.478,474.41,209.328,473.868,209.709,473.253z"/>
			<path style="fill:#F7FAFB;" d="M217.413,475.289v-4.629c0-1.245-0.63-1.641-1.582-1.641c-0.865,0-1.685,0.527-2.095,1.099v5.17
				h-1.099v-7.075h1.099v1.025c0.498-0.586,1.464-1.201,2.519-1.201c1.48,0,2.256,0.747,2.256,2.285v4.966H217.413z"/>
			<path style="fill:#F7FAFB;" d="M219.932,471.744c0-2.051,1.465-3.706,3.486-3.706c2.139,0,3.398,1.67,3.398,3.794v0.279h-5.727
				c0.088,1.333,1.025,2.446,2.549,2.446c0.806,0,1.626-0.322,2.183-0.894l0.527,0.718c-0.703,0.703-1.655,1.084-2.812,1.084
				C221.441,475.465,219.932,473.956,219.932,471.744z M223.404,468.947c-1.509,0-2.256,1.274-2.314,2.358h4.643
				C225.718,470.25,225.015,468.947,223.404,468.947z"/>
			<path style="fill:#F7FAFB;" d="M233.35,475.289v-1.055c-0.527,0.718-1.392,1.23-2.388,1.23c-1.846,0-3.149-1.406-3.149-3.706
				c0-2.256,1.289-3.721,3.149-3.721c0.952,0,1.817,0.469,2.388,1.245v-3.765h1.098v9.77H233.35z M233.35,473.37v-3.208
				c-0.396-0.615-1.245-1.143-2.124-1.143c-1.421,0-2.27,1.172-2.27,2.739c0,1.567,0.849,2.724,2.27,2.724
				C232.105,474.483,232.954,473.986,233.35,473.37z"/>
			<path style="fill:#F7FAFB;" d="M239.692,475.289v-9.77h1.098v3.765c0.572-0.776,1.421-1.245,2.388-1.245
				c1.845,0,3.149,1.465,3.149,3.721c0,2.299-1.304,3.706-3.149,3.706c-0.996,0-1.86-0.513-2.388-1.23v1.055H239.692z
				 M242.9,474.483c1.436,0,2.285-1.157,2.285-2.724c0-1.568-0.85-2.739-2.285-2.739c-0.864,0-1.728,0.527-2.109,1.143v3.208
				C241.171,473.986,242.036,474.483,242.9,474.483z"/>
			<path style="fill:#F7FAFB;" d="M247.528,477.061c0.161,0.073,0.425,0.117,0.601,0.117c0.483,0,0.805-0.161,1.055-0.747
				l0.469-1.069l-2.959-7.148h1.187l2.358,5.8l2.344-5.8h1.201l-3.545,8.51c-0.425,1.025-1.143,1.421-2.08,1.435
				c-0.234,0-0.601-0.044-0.805-0.103L247.528,477.061z"/>
		</g>
	</g>
</g>
</svg>
