<?xml version="1.0" encoding="utf-8"?>
<!-- Generator: Adobe Illustrator 27.5.0, SVG Export Plug-In . SVG Version: 6.00 Build 0)  -->
<svg version="1.1" xmlns="http://www.w3.org/2000/svg" xmlns:xlink="http://www.w3.org/1999/xlink" x="0px" y="0px"
	 viewBox="0 0 750 500" style="enable-background:new 0 0 750 500;" xml:space="preserve">
<g id="BACKGROUND">
	<rect style="fill:#EAF3FA;" width="750" height="500"/>
</g>
<g id="OBJECTS">
	<g>
		<polygon style="fill:#C4DDE2;" points="749.17,154.19 749.17,269.24 0.83,269.24 0.83,154.19 14.47,154.19 14.47,129.38 
			35.22,129.38 35.22,140.31 45.86,140.31 45.86,73.37 88.37,73.37 88.37,154.19 116.78,154.19 116.78,128.23 131.19,128.23 
			131.19,73.37 165.56,73.37 165.56,154.19 174.12,154.19 174.12,128.04 203.74,128.04 203.74,154.19 225.43,154.19 225.43,145 
			244.37,145 244.37,126.43 286.89,126.43 286.89,154.19 330.37,154.19 330.37,73.37 361.98,73.37 361.98,129.38 384.75,129.38 
			384.75,140.31 394.57,140.31 394.57,73.37 437.09,73.37 437.09,154.19 465.5,154.19 465.5,128.23 479.9,128.23 479.9,73.37 
			514.27,73.37 514.27,154.19 522.83,154.19 522.83,128.04 552.46,128.04 552.46,154.19 574.15,154.19 574.15,145 593.09,145 
			593.09,126.43 635.6,126.43 635.6,154.19 679.09,154.19 679.09,73.37 710.69,73.37 710.69,132.35 732.87,132.35 732.87,154.19 		
			"/>
		<path style="fill:#FFFFFF;" d="M434.971,41.716h91.365c0,0-13.951-19.93-29.77-6.498c0,0-6.983-28.383-36.223,0.376
			C460.343,35.595,449.151,21.684,434.971,41.716z"/>
		<path style="fill:#FFFFFF;" d="M197.073,38.335h58.843c0,0-8.985-12.836-19.173-4.185c0,0-4.497-18.28-23.329,0.242
			C213.414,34.392,206.206,25.433,197.073,38.335z"/>
	</g>
	<g>
		<path style="fill:#93AEB7;" d="M329.92,200.045c4.075,2.638,6.781,7.879,5.286,12.46H231.328c0.384-4.477,4.274-8.051,8.561-9.388
			c4.292-1.337,8.918-0.872,13.359-0.199c-3.971-1.934-7.527-4.717-10.359-8.109c-1.211-1.446-2.318-3.063-2.665-4.915
			c-0.352-1.852,0.217-3.985,1.78-5.033c1.875-1.256,4.382-0.624,6.506,0.126c6.921,2.453,13.54,5.747,19.671,9.786
			c0.655-5.204,2.453-10.26,5.223-14.715c0.994-1.595,2.146-3.144,3.718-4.174c1.572-1.03,3.637-1.464,5.358-0.714
			c2.571,1.116,3.479,4.269,3.809,7.048c0.501,4.202,0.398,8.471-0.312,12.641c3.492-4.238,8.037-7.603,13.115-9.7
			c1.794-0.741,3.732-1.337,5.656-1.075c1.929,0.258,3.822,1.572,4.22,3.474c0.352,1.685-0.497,3.37-1.432,4.816
			c-1.509,2.34-3.312,4.486-5.354,6.379c4.382-1.048,8.873-1.64,13.377-1.766C320.528,196.847,325.746,197.348,329.92,200.045z"/>
		<g>
			<path style="fill:#93AEB7;" d="M189.018,211.016c3.424,0,6.311-2.721,6.329-6.145c0-0.022,0-0.043,0-0.065
				c0-7.342-6.443-13.705-15.856-16.834c-5.39-1.792-9.249-6.492-9.807-12.145c-0.013-0.13-0.026-0.26-0.041-0.39
				c-2.1-19.07-18.43-33.013-37.59-32.025c-7.82,0.404-14.978,3.309-20.69,7.931c-8.28,6.7-18.588,10.302-29.239,10.276
				c-0.069,0-0.137,0-0.206,0c-32.192,0-58.289,18.229-58.289,40.716c0,2.98,0.471,5.882,1.341,8.68H189.018z"/>
			<g>
				<path style="fill:#BDD752;" d="M52.396,65.025c0-13.695,11.102-24.798,24.798-24.798c1.016,0,2.016,0.068,3,0.187
					c0-0.017-0.003-0.033-0.003-0.05c0-4.705,3.814-8.52,8.52-8.52c2.052,0,3.934,0.726,5.405,1.935
					c2.981-5.751,8.976-9.687,15.901-9.687c4.165,0,7.988,1.434,11.031,3.819c3.715-3.234,8.567-5.197,13.879-5.197
					c11.085,0,20.173,8.528,21.076,19.38c0.673-0.054,1.352-0.089,2.039-0.089c13.888,0,25.146,11.258,25.146,25.146
					c0,9.321-5.076,17.452-12.61,21.795c0.34,1.256,0.538,2.57,0.538,3.934c0,8.303-6.731,15.033-15.034,15.033
					c-3.299,0-6.34-1.075-8.819-2.877c-8.979,12.338-25.637,18.579-42.347,14.461c-15.715-3.873-27.13-15.837-30.28-29.806
					C62.143,88.412,52.396,77.857,52.396,65.025z"/>
				<path style="fill:#96AA43;" d="M97.1,68.529c12.774,16.535,26.976,17.109,41.652,11.023
					c28.247-11.712,31.827,9.394,31.827,9.394c0.34,1.256,0.538,2.57,0.538,3.934c0,8.303-6.731,15.033-15.034,15.033
					c-0.207,0-0.412-0.004-0.617-0.012c-5.853-0.239-11.529,1.722-16.257,5.18c-9.256,6.767-21.759,9.506-34.292,6.417
					c-11.773-2.901-21.133-10.344-26.412-19.769c-3.141-5.608-8.022-9.972-13.602-13.162c-7.472-4.272-12.507-12.319-12.507-21.542
					C55.947,48.431,84.325,51.994,97.1,68.529z"/>
				<path style="fill:#706663;" d="M119.97,211.154V82.947c-3.51-0.363-6.964-1.392-10.349-3.228v131.435H119.97z"/>
				<path style="fill:#706663;" d="M94.672,65.73c0.502,4.404,1.322,8.763,2.345,13.058c1.034,4.293,2.303,8.525,3.903,12.61
					c0.788,2.046,1.686,4.044,2.666,5.988c0.974,1.948,2.066,3.827,3.281,5.603c2.392,3.574,5.38,6.705,8.873,8.89l-1.888,2.861
					c-3.868-2.783-6.87-6.444-9.158-10.377c-1.162-1.962-2.174-3.996-3.05-6.073c-0.883-2.075-1.671-4.182-2.34-6.321
					c-1.362-4.27-2.365-8.625-3.127-13.009C95.428,74.576,94.889,70.159,94.672,65.73z"/>
				<path style="fill:#706663;" d="M149.52,92.63c-3.306,0.848-6.585,2.018-9.734,3.359c-3.157,1.344-6.197,2.923-9.063,4.72
					c-2.854,1.813-5.522,3.869-7.846,6.198c-1.161,1.165-2.215,2.409-3.184,3.695c-0.951,1.3-1.774,2.667-2.495,4.067l-0.737,1.431
					l-1.76-0.032h0c-3.835-0.233-7.283-1.594-10.31-3.31c-3.041-1.729-5.729-3.847-8.201-6.129
					c-4.926-4.59-9.037-9.827-12.629-15.35c-3.575-5.536-6.632-11.387-9.002-17.529c-1.178-3.072-2.182-6.22-2.883-9.457
					c-0.689-3.232-1.118-6.571-0.793-9.952l1.822,0.148c-0.152,3.084,0.391,6.223,1.196,9.269c0.815,3.053,1.924,6.038,3.202,8.946
					c2.567,5.816,5.801,11.346,9.493,16.507c3.702,5.146,7.891,9.96,12.637,13.974c2.373,1.994,4.899,3.777,7.556,5.12
					c2.645,1.347,5.448,2.225,8.104,2.247l0,0l-2.498,1.399c1.037-1.608,2.179-3.126,3.435-4.524
					c1.271-1.381,2.614-2.673,4.039-3.844c2.853-2.341,5.955-4.261,9.162-5.878c3.218-1.599,6.536-2.919,9.919-3.979
					c3.389-1.059,6.8-1.91,10.323-2.45L149.52,92.63z"/>
			</g>
			<g>
				<path style="fill:#B2C762;" d="M124.481,103.555c0-10.219-8.284-18.503-18.503-18.503c-0.758,0-1.504,0.051-2.239,0.14
					c0-0.012,0.002-0.025,0.002-0.037c0-3.511-2.846-6.357-6.357-6.357c-1.531,0-2.936,0.542-4.033,1.444
					c-2.224-4.291-6.698-7.228-11.865-7.228c-3.108,0-5.961,1.07-8.231,2.849c-2.772-2.413-6.392-3.877-10.356-3.877
					c-8.271,0-15.052,6.363-15.726,14.46c-0.502-0.04-1.009-0.067-1.522-0.067c-10.362,0-18.763,8.401-18.763,18.763
					c0,6.955,3.787,13.022,9.409,16.263c-0.254,0.937-0.401,1.918-0.401,2.935c0,6.195,5.022,11.217,11.217,11.217
					c2.461,0,4.73-0.802,6.58-2.146c6.7,9.206,19.129,13.863,31.597,10.79c11.725-2.89,20.243-11.817,22.593-22.24
					C117.209,121.005,124.481,113.129,124.481,103.555z"/>
				<path style="fill:#96AA43;" d="M91.126,106.169c-9.532,12.337-20.128,12.766-31.079,8.225
					c-21.076-8.739-23.747,7.01-23.747,7.01c-0.254,0.937-0.401,1.918-0.401,2.935c0,6.195,5.022,11.217,11.217,11.217
					c0.154,0,0.307-0.003,0.46-0.009c4.367-0.178,8.602,1.285,12.13,3.865c6.907,5.049,16.236,7.092,25.587,4.788
					c8.784-2.165,15.768-7.718,19.707-14.75c2.344-4.184,5.986-7.441,10.149-9.821c5.575-3.187,9.332-9.191,9.332-16.073
					C121.832,91.173,100.658,93.832,91.126,106.169z"/>
				<path style="fill:#816A61;" d="M110.688,95.584l-1.359,0.11c0.522,10.619-10.732,30.251-22.371,38.314
					c-0.854,0.592-1.907-0.392-1.388-1.292c4.74-8.207,6.938-19.86,7.368-28.635c-1,8.779-9.637,30.783-11.155,27.722v-17.284
					c-2.525,1.37-5.103,2.138-7.722,2.408v11.485c-0.27,4.524-15.745-4.332-21.863-5.27l-0.185,1.01
					c5.772,1.48,12.213,4.681,17.244,8.896c3.029,2.537,4.804,6.266,4.804,10.217v67.889h7.722v-60.256
					c0-4.713,2.297-9.102,6.112-11.869C100.384,129.972,111.823,107.362,110.688,95.584z"/>
			</g>
		</g>
		<g>
			<path style="fill:#93AEB7;" d="M693.099,214.907c3.98-1.632,6.62-4.464,6.62-7.691c0-4.998-5.454-8.05-11.305-8.899
				c-3.159-0.458-5.879-2.376-7.33-5.219c-1.851-3.625-5.173-6.589-9.332-8.356c-4.881-2.074-8.712-6.126-10.261-11.199
				c-4.573-14.973-18.493-25.865-34.963-25.865c-15.06,0-27.992,9.106-33.593,22.112c-2.343,5.44-7.052,9.616-12.801,11.043
				c-8.922,2.213-15.866,9.814-16.986,19.18c-0.408,3.409-2.597,6.283-5.7,7.752c-3.326,1.574-5.519,4.18-5.595,7.141H693.099z"/>
			<g>
				<path style="fill:#B2C762;" d="M661.297,65.542c0.531-1.655,0.821-3.417,0.821-5.248c0-8.92-6.806-16.248-15.508-17.079
					c-1.887-11.179-11.608-19.696-23.323-19.696c-4.713,0-9.101,1.384-12.789,3.759c-1.588-3.487-5.095-5.916-9.177-5.916
					c-2.631,0-5.02,1.016-6.816,2.667c-3.027-1.696-6.516-2.667-10.233-2.667c-11.585,0-20.976,9.391-20.976,20.976
					c0,2.608,0.48,5.104,1.35,7.407c-0.447-0.028-0.896-0.047-1.35-0.047c-11.677,0-21.143,9.466-21.143,21.143
					s9.466,21.143,21.143,21.143c0.038,0,0.075-0.003,0.113-0.003c-0.073,0.752-0.113,1.514-0.113,2.285
					c0,12.937,10.488,23.425,23.425,23.425c10.116,0,18.734-6.412,22.012-15.394c4.226,5.157,10.643,8.449,17.831,8.449
					c9.474,0,17.609-5.72,21.15-13.893c1.62,0.507,3.343,0.781,5.13,0.781c9.477,0,17.16-7.683,17.16-17.16
					C670.003,74.07,666.495,68.491,661.297,65.542z"/>
				<path style="fill:#96AA43;" d="M625.807,86.717c-27.365,6.209-33.422-7.117-53.399-12.637
					c-11.37-3.141-19.035,4.795-23.531,12.217c1.341,1.251,2.835,2.324,4.448,3.189c5.374,2.882,9.356,7.702,11.596,13.373
					c3.419,8.657,11.863,14.831,21.8,14.831c5.407,0,10.385-1.832,14.349-4.908c5.166-4.01,12.078-5.228,18.29-3.185
					c2.266,0.745,4.687,1.149,7.203,1.149c6.524,0,12.414-2.712,16.605-7.071c3.222-3.351,7.464-5.554,12.067-6.206
					c5.737-0.813,10.89-4.512,13.346-10.154C657.411,85.584,653.932,80.336,625.807,86.717z"/>
				<path style="fill:#706663;" d="M601.24,115.818v99.918h10.692l1.26-59.962c0.247-9.966,2.393-19.793,6.321-28.955l18.158-42.348
					c-1.359,0.195-2.796,0.427-4.326,0.703c0,0-21.894,45.027-21.894,29.777V88.3c-3.833-0.117-7.157-0.739-10.211-1.678v9.868
					c0,1.381-1.417,2.308-2.684,1.758c-7.339-3.189-13.687-12.199-17.148-20.876c-1.189-0.537-2.416-1.058-3.704-1.55
					c2.445,6.64,6.893,17.078,17.189,25.925C598.977,105.255,601.24,110.434,601.24,115.818z"/>
			</g>
			<g>
				<path style="fill:#BDD752;" d="M718,115.413c1.271-2.117,1.975-4.442,1.975-6.882c0-9.814-11.362-17.769-25.378-17.769
					c-5.482,0-10.554,1.221-14.703,3.29c-2.854-10.842-13.894-18.926-27.087-18.926c-15.36,0-27.812,10.953-27.812,24.464
					c0,3.307,0.75,6.46,2.103,9.337c-6.901,2.743-11.707,8.848-11.707,15.945c0,9.66,8.898,17.491,19.875,17.491
					c3.563,0,6.905-0.829,9.797-2.275c3.763,9.975,15.483,17.252,29.368,17.252c13.593,0,25.111-6.975,29.12-16.627
					c2.924,1.335,6.379,2.11,10.083,2.11c10.514,0,19.037-6.219,19.037-13.891C732.671,122.358,726.409,116.854,718,115.413z"/>
				<path style="fill:#96AA43;" d="M689.928,131.034c-18.768,3.947-23.46,1.849-51.27-9.743c-11.854-4.941-18.868-3.01-23.016,0.83
					c-0.161,0.897-0.25,1.815-0.25,2.751c0,10.096,9.306,17.298,19.497,17.5c5.893,0.117,11.646,2.118,15.909,6.188
					c5.618,5.362,14.117,8.781,23.633,8.781c8.92,0,16.947-3.004,22.544-7.797c4.744-4.063,10.644-6.636,16.889-6.708
					c8.936-0.103,17.25-4.867,18.615-11.953C725.049,123.143,705.98,127.658,689.928,131.034z"/>
				<path style="fill:#816A61;" d="M699.299,129.079c-3.827,4.928-21.676,28.261-21.744,14.902v-11.163
					c-3.074,0.13-5.936-0.076-8.973-0.653v13.076c-6.645-4.824-15.139-13.517-20.351-19.978c-1.19-0.488-2.442-1.005-3.741-1.544
					c0.595,1.061,1.198,2.118,1.814,3.167c3.885,6.559,9.91,15.39,16.369,21.403c3.769,3.508,5.908,8.423,5.908,13.572v53.745
					c1.895,0.289,3.848,0,5.85,0c1.055,0,2.096,0.076,3.123,0.068v-47.058c0-6.985,3.015-13.706,8.447-18.097
					c6.979-5.642,13.157-15.419,16.645-22.085C701.533,128.641,700.416,128.857,699.299,129.079z"/>
			</g>
		</g>
		<g>
			<path style="fill:#93AEB7;" d="M480.502,211.035l-2.469-0.24l2.234,1.469c-0.049,0.257-0.131,0.519-0.246,0.787h-51.486
				c-1.24-2.125-2.218-4.474-2.764-6.987c-0.803-3.698-1.131-7.26-1.038-10.406l4.692-1.661l-4.485-1.196
				c0.606-4.889,2.393-8.314,5.108-8.904c1.704-0.371,3.551,0.432,5.321,2.125l-1.398,1.355l1.852-0.901
				c1.218,1.278,2.404,2.966,3.474,4.977c0.191-3.376,0.672-6.533,1.388-9.33l3.463-0.377l-3.157-0.743
				c1.868-6.462,5.015-10.712,8.587-10.712c1.906,0,3.687,1.202,5.217,3.305l-3.141,1.431h4.07c1.082,1.879,2.005,4.239,2.71,6.943
				l-5.424,2.742h6.042c0.317,1.655,0.557,3.414,0.71,5.244c1.284-1.617,2.606-2.923,3.906-3.857l2.016,1.278l-1.163-1.835
				c1.704-1.011,3.338-1.344,4.747-0.819c2.294,0.852,3.562,3.791,3.769,7.844l-3.398,0.737l3.42,0.972
				c-0.044,2.458-0.437,5.233-1.18,8.156c1.868-2.409,3.9-3.687,5.708-3.283c1.622,0.361,2.294,2.649,2.852,5.473l-2.404,0.738
				h2.524C480.813,207.146,480.726,209.074,480.502,211.035z"/>
			<g>
				<path style="fill:#4F7E64;" d="M449.201,190.168l1.639,22.883h-1.027l-1.633-22.807c-0.022-0.284,0.191-0.53,0.475-0.552
					C448.938,189.676,449.179,189.889,449.201,190.168z"/>
				<path style="fill:#4F7E64;" d="M460.694,203.338l-2.928,9.713h-1.071l3.015-10.008c0.082-0.273,0.371-0.426,0.639-0.344
					C460.623,202.781,460.776,203.071,460.694,203.338z"/>
			</g>
			<g>
				<path style="fill:#4F7E64;" d="M445.705,213.051h-1.344l-9.991-11.805c-0.186-0.218-0.159-0.541,0.06-0.721
					c0.213-0.186,0.535-0.158,0.721,0.06L445.705,213.051z"/>
			</g>
			<g>
				<path style="fill:#4F7E64;" d="M469.959,212.936l-0.24,0.115h-2.36l2.152-1.038c0.257-0.126,0.563-0.016,0.688,0.24
					C470.319,212.505,470.216,212.811,469.959,212.936z"/>
			</g>
		</g>
	</g>
	<g>
		<rect y="211.699" style="fill:#B2C762;" width="750" height="181.202"/>
		<rect x="0.826" y="211.989" style="fill:#E7DAC4;" width="748.348" height="49.383"/>
		<g>
			<ellipse style="fill:#96AA43;" cx="258.375" cy="316.69" rx="28.954" ry="3.361"/>
			<g>
				<polygon style="fill:#422C4F;" points="247.716,305.572 250.078,314.597 253.115,316.949 247.716,316.949 242.656,308.719 				
					"/>
				<path style="fill:#422C4F;" d="M270.019,302.56c-0.662,0.691-9.152,12.042-9.152,12.042l1.956,2.401h4.301l-1.518-2.567
					l7.507-4.471L270.019,302.56z"/>
				<path style="fill:#FFFFFF;" d="M285.754,285.706c0,0-4.997,5.119-6.735,10.131c-1.738,5.012-3.802,10.131-16.403,10.024
					c-12.601-0.107-21.903,1.648-25.172-2.919c-1.172-1.638-3.052-4.46-2.485-7.641c1.026-5.763,7.741-10.285,13.7-10.201
					c9.326,0.131,22.481-0.023,24.821-1.848L285.754,285.706z"/>
				<path style="fill:#E49B34;" d="M274.371,282.674c0.812,1.073,4.577,5.775,8.74,6.522c0.296,0.053,0.451,0.368,0.285,0.614
					l-1.783,2.637c-0.263,0.39-0.729,0.592-1.198,0.509c-1.693-0.3-5.846-1.723-10.28-8.409c-0.262-0.396-0.054-0.933,0.408-1.063
					l3.393-0.951C274.099,282.487,274.269,282.54,274.371,282.674z"/>
				<g>
					<g>
						<path style="fill:#FFFFFF;" d="M282.89,273.044c0,0,4.352,0.182,6.822,4.425c2.47,4.243,5.433,2.825,6.792,4.322
							c1.358,1.497,0.865,6.104-5.186,6.346c-6.051,0.242-13.786-0.606-13.786-0.606v-10.668l1.807-2.546L282.89,273.044z"/>
						<path style="fill:#422C4F;" d="M297.482,281.057c0.54,0.731,0.515,1.652-0.055,2.058c-0.57,0.405-1.469,0.141-2.009-0.59
							c-0.539-0.731-0.515-1.652,0.055-2.058C296.043,280.062,296.943,280.326,297.482,281.057z"/>
					</g>
					<path style="fill:#422C4F;" d="M282.89,273.089c0,0-2.74,0.256-3.131,4.995c-0.391,4.739,1.957,15.625-4.827,16.265
						c-4.879,0.461-5.102-7.093-4.842-11.372c0.117-1.93,0.887-3.76,2.216-5.187C274.64,275.281,278.765,271.824,282.89,273.089z"/>
				</g>
				<path style="fill:#FFFFFF;" d="M276.741,297.521c0,0-1.128,4.743,0.79,9.387c1.918,4.644,3.528,9.189,3.528,9.189h-3.528
					c0,0-7.544-7.411-9.154-12.647L276.741,297.521z"/>
				<path style="fill:#FFFFFF;" d="M250.361,303.351l-10.878,8.054c-0.884,0.654-1.609,1.512-2.013,2.524
					c-0.389,0.974-0.54,2.11,0.411,2.76h-4.126c0,0-3.002-4.785,6.66-15.456L250.361,303.351z"/>
				<path style="fill:#FFFFFF;" d="M241.347,289.814c0,0-0.749-4.249-6.587-5.435c-5.838-1.186-9.26-2.569-8.958-9.979l0,0
					c-1.38,0.474-2.416,1.621-2.686,3.032c-0.523,2.732-0.482,7.12,4.397,9.023c0,0-3.523,1.285-5.435-0.79l0,0
					c0,1.945,1.321,3.644,3.23,4.164c2.209,0.602,5.266,0.894,8.244-0.607c5.598-2.822,7.347,2.273,7.347,2.273L241.347,289.814z"/>
			</g>
		</g>
		<g>
			<g>
				<path style="fill:#EAA35E;" d="M379.402,210.391c0.088,0.721,0.096,1.467-0.112,2.164c-0.289,0.954-1.002,1.763-1.892,2.22
					c-0.89,0.449-1.948,0.553-2.918,0.321h-0.032c-0.024-0.2-0.088-0.409-0.152-0.601c-0.633-1.876-1.266-3.751-1.908-5.627
					l0.305-0.104c0.898-0.762,1.827-1.539,2.926-1.964c0.842-0.329,1.884-0.401,2.565,0.184c0.377,0.337,0.585,0.818,0.745,1.299
					C379.154,208.964,379.314,209.678,379.402,210.391z"/>
				<path style="fill:#468097;" d="M353.312,225.693c0.064,2.501-0.088,4.986-0.361,7.47c-7.855-1.747-15.79-3.543-23.045-7.03
					c0.826-2.124,1.603-4.272,2.341-6.428c0.377-0.409,0.77-0.801,1.17-1.186c1.916-1.811,4.288-3.342,6.901-3.543
					c0.192,0.641,0.417,1.274,0.665,1.9c0.633,1.571,1.483,3.126,2.869,4.096c1.09,0.761,2.469,1.09,3.783,0.914
					c2.373-0.313,4.344-2.292,5.018-4.593c0.128-0.425,0.208-0.858,0.257-1.299c3.423,0.425,6.893-0.633,10.011-2.132
					c3.23-1.555,6.204-3.575,9.426-5.122c0.016,0.04,0.032,0.088,0.04,0.128c0.641,1.876,1.274,3.751,1.908,5.627
					c0.064,0.192,0.128,0.401,0.152,0.601c0.016,0.216-0.008,0.417-0.12,0.593c-0.104,0.152-0.257,0.256-0.401,0.353
					c-1.202,0.802-2.413,1.603-3.647,2.365C365.022,221.645,359.283,224.114,353.312,225.693z"/>
				<path style="fill:#422C4F;" d="M355.628,202.311c-1.034-0.2-1.779-1.154-2.357-2.06c-0.601-0.962-1.242-2.028-2.324-2.397
					c-1.154-0.393-2.445,0.192-3.286,1.066c-0.85,0.882-1.371,2.012-1.98,3.062c-0.24,0.409-0.537,0.842-0.986,0.978
					c-0.777,0.248-1.515-0.465-1.948-1.154c-0.168-0.257-0.329-0.537-0.577-0.721c-0.248-0.176-0.617-0.248-0.866-0.064
					c-0.192,0.144-0.264,0.401-0.321,0.633c-0.152,0.737-0.208,1.515,0.04,2.22c0.241,0.705,0.826,1.331,1.563,1.459
					c0.008,0.112,0.016,0.232,0.024,0.345l-0.345,0.024c-0.609-0.096-1.21-0.241-1.795-0.441c-0.289-0.104-0.585-0.224-0.786-0.457
					c-0.2-0.24-0.265-0.561-0.353-0.858c-0.264-0.882-0.818-1.651-1.05-2.541c-0.257-1.026-0.056-2.156,0.545-3.022
					c0.609-0.874,1.587-1.475,2.036-2.429c0.449-0.946,0.313-2.076,0.713-3.038c0.569-1.355,2.124-2.092,3.591-2.076
					c1.475,0.016,2.862,0.641,4.144,1.355c0.689,0.377,1.395,0.794,2.18,0.866c0.93,0.072,1.819-0.353,2.693-0.681
					c1.058-0.393,2.22-0.649,3.334-0.417c1.106,0.24,2.148,1.082,2.341,2.196c0.072,0.409,0.032,0.826,0.096,1.234
					c0.216,1.427,1.635,2.533,1.619,3.976c-0.008,0.777-0.433,1.475-0.914,2.084c-0.473,0.593-1.002,1.138-1.587,1.619l-0.601-0.729
					c-0.793-0.417-1.763,0.088-2.653,0C355.757,202.336,355.693,202.327,355.628,202.311z"/>
				<path style="fill:#422C4F;" d="M358.474,202.344l0.601,0.729c-1.299,1.058-2.838,1.812-4.473,2.156l-0.12-0.048
					c0.409-0.946,0.786-1.908,1.146-2.87c0.064,0.016,0.128,0.024,0.192,0.032C356.71,202.432,357.68,201.927,358.474,202.344z"/>
				<path style="fill:#EAA35E;" d="M351.893,210.744c-0.794,1.339-1.82,2.525-3.286,2.837c-1.9,0.401-3.823-0.914-4.761-2.613
					c-0.609-1.098-0.89-2.324-1.058-3.583c-0.08-0.569-0.128-1.138-0.176-1.707c-0.008-0.112-0.016-0.232-0.024-0.345
					c-0.737-0.128-1.323-0.753-1.563-1.459c-0.248-0.705-0.192-1.483-0.04-2.22c0.056-0.232,0.128-0.489,0.321-0.633
					c0.249-0.184,0.617-0.112,0.866,0.064c0.248,0.184,0.409,0.465,0.577,0.721c0.433,0.689,1.17,1.403,1.948,1.154
					c0.449-0.136,0.746-0.569,0.986-0.978c0.609-1.05,1.13-2.18,1.98-3.062c0.842-0.874,2.132-1.459,3.286-1.066
					c1.082,0.369,1.723,1.435,2.324,2.397c0.577,0.906,1.323,1.86,2.357,2.06c-0.361,0.962-0.737,1.924-1.146,2.87
					c-0.577,1.419-1.21,2.829-1.876,4.216C352.39,209.846,352.15,210.303,351.893,210.744z"/>
				<path style="fill:#422C4F;" d="M342.779,281.777c-0.184-0.048-0.369-0.104-0.545-0.168c-1.419-0.505-2.822-1.01-4.232-1.507
					c4.946-3.527,9.563-7.518,13.771-11.903c0.272-0.281,0.553-0.585,0.601-0.978c0.016-0.12,0.008-0.232-0.008-0.345l0.938-0.184
					c0.16,0.794,0.305,1.627,0.104,2.413c-0.176,0.689-0.593,1.283-1.002,1.86c-2.429,3.415-4.978,6.749-7.647,9.979
					c-0.289,0.353-0.609,0.721-1.042,0.858C343.413,281.897,343.092,281.865,342.779,281.777z"/>
				<path style="fill:#422C4F;" d="M353.296,266.652c0,0.016,0.008,0.024,0.008,0.04l-0.938,0.184
					c-0.04-0.208-0.128-0.409-0.216-0.609c-2.918-6.733-6.068-13.37-9.45-19.878c1.403,0.088,2.805,0.12,4.208,0.096v0.04
					C349.769,252.969,351.917,259.734,353.296,266.652z"/>
				<path style="fill:#454F6B;" d="M339.774,210.471c0.008-0.04,0.016-0.08,0.032-0.12c0.377-1.282,1.547-2.156,2.645-2.926
					l0.337-0.04c0.168,1.258,0.449,2.485,1.058,3.583c0.938,1.699,2.862,3.014,4.761,2.613c1.467-0.313,2.493-1.499,3.286-2.837
					c0.802,1.627,1.21,3.471,1.018,5.25c-0.048,0.441-0.128,0.874-0.257,1.299c-0.673,2.3-2.645,4.28-5.018,4.593
					c-1.315,0.176-2.693-0.152-3.783-0.914c-1.387-0.97-2.236-2.525-2.869-4.096c-0.249-0.625-0.473-1.258-0.665-1.9
					c-0.241-0.794-0.425-1.611-0.553-2.437C339.661,211.858,339.605,211.145,339.774,210.471z"/>
				<path style="fill:#5A6784;" d="M337.722,264.295c-2.413-2.453-4.641-5.074-6.677-7.847c-1.491-2.02-2.878-4.152-3.743-6.509
					c-0.834-2.252-1.162-4.753-0.561-7.078c5.09,1.996,10.5,3.19,15.959,3.527c3.382,6.508,6.533,13.145,9.45,19.878
					c0.088,0.2,0.176,0.401,0.216,0.609c0.016,0.112,0.024,0.225,0.008,0.345c-0.048,0.393-0.329,0.697-0.601,0.978
					c-4.208,4.385-8.825,8.376-13.771,11.903c-0.906,0.657-1.819,1.29-2.749,1.9c-0.176,0.128-0.353,0.241-0.529,0.361
					c-0.176,0.112-0.361,0.233-0.569,0.249c-0.273,0.016-0.521-0.136-0.745-0.297c-0.305-0.208-0.609-0.433-0.906-0.649
					c-2.196-1.667-4.144-3.671-5.731-5.923c-0.112-0.16-0.224-0.321-0.337-0.481C330.227,271.629,333.978,267.982,337.722,264.295z"
					/>
				<path style="fill:#454F6B;" d="M342.699,246.389c-5.459-0.337-10.869-1.531-15.959-3.527c-0.882-0.345-1.755-0.713-2.621-1.106
					c-0.289-0.136-0.617-0.329-0.641-0.641c-0.008-0.16,0.064-0.305,0.128-0.449c2.309-4.753,4.409-9.603,6.3-14.532
					c7.254,3.487,15.189,5.282,23.045,7.03c-0.465,4.232-1.299,8.44-2.132,12.632c-0.032,0.16-0.08,0.353-0.224,0.441
					c-0.088,0.056-0.192,0.072-0.305,0.08c-1.13,0.096-2.252,0.152-3.383,0.168C345.505,246.509,344.102,246.477,342.699,246.389z"
					/>
				<path style="fill:#4C2C20;" d="M343.172,285.833c0.072,1.242,0.088,2.541-0.409,3.679c-0.176,0.417-0.457,0.834-0.882,0.954
					c-0.345,0.096-0.705-0.008-1.026-0.16c-1.066-0.505-1.812-1.499-2.469-2.485c-1.218-1.844-2.268-3.791-3.134-5.819
					c0.93-0.609,1.844-1.242,2.749-1.9c1.411,0.497,2.813,1.002,4.232,1.507c0.176,0.064,0.361,0.12,0.545,0.168
					C342.964,283.124,343.1,284.478,343.172,285.833z"/>
				<path style="fill:#EAA35E;" d="M338.724,185.631c0.04,0.529-0.128,1.05-0.289,1.555c-0.2,0.625-0.441,1.299-0.874,1.763
					c-0.048-0.008-0.096-0.016-0.136-0.024c-1.964-0.232-3.944-0.345-5.924-0.313v-0.12c-0.329-1.154-0.505-2.365-0.329-3.551
					c0.176-1.186,0.754-2.349,1.715-3.054c0.97-0.713,2.349-0.89,3.391-0.297c0.906,0.521,1.427,1.507,1.892,2.445
					C338.427,184.541,338.692,185.07,338.724,185.631z"/>
				<path style="fill:#468097;" d="M337.561,188.95c0.128,0.024,0.257,0.064,0.337,0.168c0.128,0.16,0.08,0.401,0.024,0.601
					c-1.026,3.623-2.613,7.214-2.453,10.981c0.144,3.262,1.595,6.308,3.014,9.258l2.66,6.113c-0.665-0.064-2.969,5.357-9.673,5.861
					c-2.012-3.342-4.465-15.701-4.32-19.612c0.144-4.16,1.162-8.232,2.164-12.264c0.104-0.401,0.216-0.826,0.521-1.098
					c0.353-0.305,0.866-0.337,1.331-0.345c0.112,0,0.224-0.008,0.337,0c1.98-0.032,3.96,0.08,5.924,0.313
					C337.465,188.934,337.513,188.942,337.561,188.95z"/>
				<path style="fill:#4C2C20;" d="M332.913,289.784c0.008,0.305-0.016,0.657-0.273,0.826c-0.128,0.08-0.289,0.088-0.441,0.08
					c-1.154-0.056-2.076-0.954-2.829-1.827c-2.004-2.324-3.719-4.889-5.09-7.631c-0.257-0.505-0.505-1.042-0.489-1.611
					c0.048-1.627,2.06-2.397,2.87-3.799l0.112-0.08c1.587,2.252,3.535,4.256,5.731,5.923
					C332.72,284.366,332.856,287.075,332.913,289.784z"/>
				<path style="fill:#FFFFFF;" d="M347.273,204.339L347.273,204.339c-1.441-0.946-4.261-2.163-4.261-2.163
					c0.658,1.447,2.556,2.245,3.13,2.459c-0.421,1.762-0.618,3.45-0.502,4.883c-1.262,0.035-2.628-0.161-2.628-0.161
					c0.558,0.984,1.833,1.214,2.782,1.239c0.413,1.843,1.524,3.052,3.617,3.057c4.125,0.011,5.304-6.268,5.304-6.268
					L347.273,204.339z"/>
			</g>
			<path style="fill:#96AA43;" d="M356.779,295.924c0,1.856-8.723,3.361-19.484,3.361c-10.761,0-19.484-1.505-19.484-3.361
				c0-1.856,8.724-3.361,19.484-3.361C348.055,292.563,356.779,294.068,356.779,295.924z"/>
		</g>
		<g>
			<g>
				<rect y="402.206" style="fill:#E7DAC4;" width="750" height="97.794"/>
				<rect y="393.106" style="fill:#96AA43;" width="750" height="9.1"/>
			</g>
			<g>
				<path style="fill:#82A857;" d="M311.17,397.999l-4.52-0.44l4.09,2.69c-0.09,0.47-0.24,0.95-0.45,1.44h-94.25
					c-2.27-3.89-4.06-8.19-5.06-12.79c-1.47-6.77-2.07-13.29-1.9-19.05l8.59-3.04l-8.21-2.19c1.11-8.95,4.38-15.22,9.35-16.3
					c3.12-0.68,6.5,0.79,9.74,3.89l-2.56,2.48l3.39-1.65c2.23,2.34,4.4,5.43,6.36,9.11c0.35-6.18,1.23-11.96,2.54-17.08l6.34-0.69
					l-5.78-1.36c3.42-11.83,9.18-19.61,15.72-19.61c3.49,0,6.75,2.2,9.55,6.05l-5.75,2.62h7.45c1.98,3.44,3.67,7.76,4.96,12.71
					l-9.93,5.02h11.06c0.58,3.03,1.02,6.25,1.3,9.6c2.35-2.96,4.77-5.35,7.15-7.06l3.69,2.34l-2.13-3.36
					c3.12-1.85,6.11-2.46,8.69-1.5c4.2,1.56,6.52,6.94,6.9,14.36l-6.22,1.35l6.26,1.78c-0.08,4.5-0.8,9.58-2.16,14.93
					c3.42-4.41,7.14-6.75,10.45-6.01c2.97,0.66,4.2,4.85,5.22,10.02l-4.4,1.35h4.62C311.74,390.879,311.58,394.409,311.17,397.999z"
					/>
				<g>
					<path style="fill:#4F7E64;" d="M253.87,359.799l3,41.89h-1.88l-2.99-41.75c-0.04-0.52,0.35-0.97,0.87-1.01
						C253.39,358.899,253.83,359.289,253.87,359.799z"/>
					<path style="fill:#4F7E64;" d="M274.91,383.909l-5.36,17.78h-1.96l5.52-18.32c0.15-0.5,0.68-0.78,1.17-0.63
						C274.78,382.889,275.06,383.419,274.91,383.909z"/>
				</g>
				<g>
					<path style="fill:#4F7E64;" d="M247.47,401.689h-2.46l-18.29-21.61c-0.34-0.4-0.29-0.99,0.11-1.32
						c0.39-0.34,0.98-0.29,1.32,0.11L247.47,401.689z"/>
				</g>
				<g>
					<path style="fill:#4F7E64;" d="M291.87,401.479l-0.44,0.21h-4.32l3.94-1.9c0.47-0.23,1.03-0.03,1.26,0.44
						C292.53,400.689,292.34,401.249,291.87,401.479z"/>
				</g>
			</g>
			<g>
				<path style="fill:#82A857;" d="M86.003,280.41l-3.723-0.367l3.431,2.261c-0.216,1.118-0.503,2.213-0.879,3.243H23.58
					c-1.522-3.231-2.812-7.022-3.711-11.152c-0.963-4.418-1.354-8.668-1.242-12.426l5.6-1.981l-5.352-1.43
					c0.723-5.84,2.86-9.93,6.099-10.637c2.037-0.443,4.238,0.515,6.359,2.536l-1.678,1.622L31.868,251
					c1.458,1.526,2.868,3.543,4.15,5.948c0.228-4.034,0.803-7.805,1.658-11.144l4.134-0.451l-3.767-0.887
					c2.225-7.717,5.987-12.794,10.257-12.794c2.269,0,4.398,1.438,6.231,3.946l-3.755,1.714h4.857
					c1.294,2.237,2.396,5.057,3.239,8.288l-6.479,3.275h7.214c0.375,1.977,0.667,4.074,0.847,6.259
					c1.534-1.929,3.116-3.487,4.665-4.601l2.413,1.526l-1.39-2.193c2.029-1.21,3.982-1.602,5.668-0.975
					c2.736,1.019,4.254,4.522,4.497,9.367l-4.058,0.883l4.09,1.154c-0.06,2.936-0.523,6.255-1.41,9.746
					c2.229-2.88,4.653-4.406,6.818-3.922c1.933,0.427,3.323,2.984,3.99,6.351l-3.459,1.066h3.639
					C86.235,275.684,86.274,278.065,86.003,280.41z"/>
				<path style="fill:#4F7E64;" d="M45.86,249.534l0.923,36.013h-1.198l-0.072-2.744c-3.95-2.085-6.874-5.572-8.236-9.83
					l-2.976-9.291c-0.1-0.315,0.072-0.651,0.388-0.751c0.311-0.1,0.647,0.072,0.747,0.388l2.976,9.291
					c1.198,3.747,3.695,6.846,7.066,8.815l-0.811-31.862c-0.012-0.332,0.252-0.603,0.583-0.615h0.016
					C45.589,248.947,45.852,249.206,45.86,249.534z"/>
				<path style="fill:#4F7E64;" d="M71.963,271.902l-6.966,6.918c-3.108,3.088-7.202,4.833-11.568,4.949l-0.479,1.777h-1.238
					l7.469-27.744c0.084-0.32,0.415-0.507,0.731-0.423c0.319,0.088,0.511,0.415,0.423,0.735l-6.583,24.449
					c3.926-0.192,7.593-1.805,10.401-4.594l6.962-6.918c0.236-0.236,0.615-0.232,0.847,0
					C72.199,271.287,72.195,271.666,71.963,271.902z"/>
			</g>
			<g>
				<path style="fill:#96AA43;" d="M600.973,317.106l-5.71-0.112l4.988,3.561c-0.909,3.545-2.385,7.394-4.4,11.265h-26.454h-1.663
					h-36.238l3.678-3.347l-6.795-0.412c-0.508-1.984-0.609-4.208-0.406-6.453l4.042-1.256l-3.791-0.7
					c0.401-2.4,1.117-4.742,2.032-6.768l3.609,1.037l-3.128-2.042c1.62-3.149,3.727-5.282,5.769-5.159
					c2.278,0.139,4.245,2.342,5.641,5.828c0.112-3.71,0.594-7.132,1.374-10.057l4.379,0.016l-3.769-2.026
					c1.625-4.732,4.122-7.774,7.127-8.004c1.85-0.144,3.668,0.802,5.341,2.577l-2.005,1.78l2.823-0.829
					c1.224,1.55,2.347,3.545,3.315,5.892c0.802-2.112,1.684-4.111,2.625-5.967l7.148,2.053l-5.485-5.085
					c1.754-2.962,3.646-5.448,5.566-7.298l4.817,1.385l-3.235-2.764c2.529-1.967,5.047-2.785,7.298-2.139
					c4.229,1.214,6.512,7.314,6.523,15.596l-3.983-0.187l3.967,1.62c-0.107,3.555-0.604,7.458-1.529,11.516
					c1.951-2.021,3.924-3.614,5.806-4.71l1.887,1.7l-1.203-2.085c2.679-1.401,5.133-1.727,7.025-0.706
					C600.968,306.445,601.919,311.112,600.973,317.106z"/>
				<path style="fill:#40664F;" d="M541.761,321.859l9.714,9.96h-2.24l-8.624-8.843c-0.31-0.315-0.305-0.823,0.016-1.133
					C540.943,321.533,541.451,321.538,541.761,321.859z"/>
				<path style="fill:#40664F;" d="M554.604,313.845l3.272,17.975h-1.631l-3.219-17.686c-0.08-0.438,0.208-0.855,0.647-0.936
					C554.112,313.117,554.523,313.406,554.604,313.845z"/>
				<path style="fill:#40664F;" d="M570.787,310.68l-3.053,21.14h-1.625l3.09-21.37c0.064-0.438,0.471-0.749,0.909-0.679
					C570.547,309.829,570.851,310.241,570.787,310.68z"/>
				<path style="fill:#40664F;" d="M587.912,320.982l-15.692,10.837h-2.823l17.601-12.158c0.364-0.251,0.866-0.16,1.117,0.209
					C588.366,320.233,588.275,320.731,587.912,320.982z"/>
			</g>
			<path style="fill:#96AA43;" d="M203.969,304.409c-0.069-0.012-0.122-0.036-0.166-0.065c-14.874,0.409-29.757,0.712-44.639,0.911
				c-0.109,0.093-0.263,0.121-0.421,0.008c-0.004-0.004-0.004-0.004-0.008-0.008c-0.19-0.008-0.308-0.129-0.344-0.279
				c-2.744-2.299-3.052-6.581-1.643-9.746c2.279-5.112,7.119-1.923,10.827-0.53c-1.145-2.89-1.692-5.958-1.421-9.078
				c0.154-1.793,0.672-4.302,2.647-4.958c2.129-0.708,4.278,1.376,5.488,2.87c1.744,2.145,2.853,4.707,4.517,6.909
				c0.716-4.881,4.399-11.321,9.989-10.596c6.427,0.83,3.902,9.738,2.768,14.332c3.181-2.181,7.621-5.456,11.381-3.392
				c1.497,0.822,2.101,2.42,1.862,4.072c-0.247,1.712-1.344,3.019-2.59,4.145c2.934-0.749,7.342-1.518,8.184,1.538
				C211.339,303.952,206.215,304.782,203.969,304.409z"/>
			<path style="fill:#96AA43;" d="M714.981,292.123c-0.069-0.012-0.121-0.036-0.166-0.065c-14.874,0.409-29.757,0.712-44.639,0.911
				c-0.109,0.093-0.263,0.121-0.421,0.008c-0.004-0.004-0.004-0.004-0.008-0.008c-0.19-0.008-0.308-0.129-0.344-0.279
				c-2.744-2.299-3.052-6.581-1.643-9.746c2.279-5.112,7.119-1.923,10.827-0.53c-1.145-2.89-1.692-5.958-1.421-9.078
				c0.154-1.793,0.672-4.302,2.647-4.958c2.129-0.708,4.278,1.376,5.488,2.87c1.744,2.145,2.853,4.707,4.517,6.909
				c0.716-4.881,4.4-11.321,9.989-10.596c6.427,0.83,3.902,9.738,2.768,14.332c3.181-2.181,7.621-5.456,11.381-3.392
				c1.497,0.822,2.101,2.42,1.862,4.072c-0.247,1.712-1.344,3.019-2.59,4.145c2.934-0.749,7.342-1.518,8.184,1.538
				C722.351,291.666,717.227,292.496,714.981,292.123z"/>
		</g>
		<g>
			<g>
				<path style="fill:#BD6C67;" d="M473.502,249.007c0.182,0.333,0.174,0.727,0.167,1.106c-0.03,1.235-0.061,2.47-0.083,3.705
					c-0.015,0.47-0.03,0.962-0.235,1.387c-0.296,0.629-0.947,1.008-1.591,1.281c-1.909,0.796-4.076,0.94-6.069,0.409
					c-0.015-0.121-0.038-0.235-0.061-0.356c-0.25-1.44-0.508-2.879-0.758-4.311c2.394-1.038,4.16-3.402,6.728-3.834
					C472.297,248.272,473.153,248.386,473.502,249.007z"/>
				<path style="fill:#BD6C67;" d="M402.551,285.073c-0.727,1.455-0.689,3.258-1.508,4.69c-0.553,0.97-1.447,1.682-2.356,2.319
					c-0.583,0.402-1.19,0.796-1.864,0.992c-0.682,0.197-1.447,0.19-2.053-0.174c-0.962-0.583-1.25-1.909-0.947-2.993
					c0.303-1.083,1.061-1.978,1.826-2.803c1.333-1.47,2.758-2.894,3.773-4.599C400.445,283.391,401.483,284.247,402.551,285.073z"/>
				<path style="fill:#BD6C67;" d="M420.448,257.342c0.068-0.523,0.129-1.038,0.197-1.553c-0.94-0.083-1.864-0.333-2.72-0.727
					c-0.636-0.288-1.243-0.667-1.69-1.197c-0.492-0.583-0.758-1.326-0.97-2.061c-0.242-0.871-0.409-1.766-0.5-2.66
					c-0.22-2.16-0.008-4.357,0.636-6.425l0.053-0.076c0.212,0.174,0.455,0.333,0.697,0.462c1.455,0.773,3.22,0.94,4.789,0.439
					c0.553-0.174,1.083-0.424,1.652-0.553c0.568-0.121,1.205-0.091,1.674,0.25c0.379,0.28,0.599,0.735,0.758,1.182
					c0.326,0.94,0.44,1.947,0.735,2.902c0.288,0.955,0.811,1.902,1.69,2.372c0.508-0.652,1.015-1.303,1.523-1.955
					c0.099-0.121,0.205-0.25,0.349-0.303c0.447-0.159,0.758,0.447,0.796,0.909c0.091,1.159-0.197,2.303-0.409,3.447
					c-0.136,0.727-0.235,1.455-0.303,2.182c-0.068,0.705-0.106,1.409-0.106,2.114c-0.008,0.439,0,0.879,0.015,1.318l0.106,0.083
					c0,0.008-0.008,0.015-0.015,0.023c-0.879,1.106-1.811,2.25-3.122,2.758c-1.894,0.727-4.091-0.099-5.592-1.462
					c-0.114-0.106-0.227-0.212-0.288-0.356c-0.076-0.174-0.053-0.371-0.023-0.561C420.403,257.713,420.425,257.524,420.448,257.342z
					"/>
				<path style="fill:#EDC75E;" d="M465.69,256.895c0.023,0.197,0.023,0.386-0.03,0.576c-0.212,0.811-1.205,1.076-2.038,1.212
					c-8.009,1.341-15.851,3.751-23.238,7.138c2.47,11.866,6.115,23.481,10.858,34.642l0.091,0.182
					c-1.894,1.023-3.864,1.887-5.872,2.637c-3.417,1.281-6.971,2.228-10.555,3.053c-0.758,0.174-1.515,0.341-2.281,0.508
					c-1.159,0.25-2.326,0.5-3.485,0.743c-2.175,0.462-4.38,0.924-6.6,0.947c-0.492,0.008-0.985-0.008-1.477-0.045
					c-0.25-0.023-0.515-0.053-0.712-0.205c-0.379-0.273-0.394-0.811-0.387-1.28c0.326-11.04-0.379-22.109-2.099-33.02
					c-0.174-1.083-0.356-2.175-0.568-3.258c-0.743-3.902-1.826-7.728-3.872-11.108c0.402-0.121,0.834-0.174,1.25-0.235
					c2.031-0.296,4.001-0.993,5.774-2.038c-0.023,0.182-0.046,0.371-0.068,0.553c-0.03,0.189-0.053,0.386,0.023,0.561
					c0.061,0.144,0.174,0.25,0.288,0.356c1.5,1.364,3.698,2.19,5.592,1.462c1.311-0.508,2.243-1.652,3.122-2.758
					c0.008-0.008,0.015-0.015,0.015-0.023l-0.106-0.083c-0.015-0.44-0.023-0.879-0.015-1.318h0.023
					c3.273-0.114,6.516-0.606,9.751-1.106c8.532-1.318,17.056-2.629,25.587-3.94c0.068,0.394,0.144,0.788,0.205,1.182h0.008
					c0.25,1.432,0.508,2.872,0.758,4.311C465.652,256.66,465.675,256.773,465.69,256.895z"/>
				<path style="fill:#422C4F;" d="M448.187,305.198c0.909,2.591,0.781,5.418,0.644,8.16c-0.053,1.061-0.121,2.167-0.652,3.076
					c-0.424,0.735-1.364,1.311-2.106,0.894c-0.235-0.136-0.417-0.356-0.583-0.576c-0.508-0.652-0.985-1.326-1.424-2.023
					c0.053-0.053,0.099-0.114,0.152-0.167c1.371-1.553,1.947-3.682,1.978-5.758c0.023-1.47-0.197-2.917-0.493-4.357
					c0.311-0.038,0.621-0.083,0.932-0.129c0.364-0.046,0.758-0.091,1.061,0.106C447.952,304.599,448.081,304.902,448.187,305.198z"
					/>
				<path style="fill:#BD6C67;" d="M445.702,304.448c0.296,1.44,0.515,2.887,0.493,4.357c-0.03,2.076-0.606,4.205-1.978,5.758
					c-0.053,0.053-0.099,0.114-0.152,0.167c-0.508,0.523-1.114,0.955-1.811,1.137c-1.061,0.265-2.205-0.098-3.076-0.758
					c-0.871-0.659-1.5-1.584-2.038-2.538c-1.046-1.864-1.788-3.895-2.182-5.993l-0.053-0.242c3.584-0.826,7.137-1.773,10.555-3.053
					C445.543,303.667,445.626,304.061,445.702,304.448z"/>
				<path style="fill:#422C4F;" d="M415.455,242.643l-0.053,0.076c-0.644,2.068-0.856,4.266-0.636,6.425
					c-1.508-1.788-2.622-3.91-3.243-6.16c-0.265-0.947-0.447-1.94-0.296-2.917c0.349-2.334,2.47-4.008,4.645-4.94
					c2.167-0.924,4.554-1.371,6.592-2.569c2.478-1.462,4.289-3.932,6.903-5.145c2.22-1.023,5.114-0.909,6.85,0.818
					c1.674,1.659,1.887,4.289,1.682,6.637c-0.136,1.546-0.394,3.175,0.25,4.584c0.727,1.591,2.478,2.561,3.106,4.19
					c0.424,1.091,0.273,2.341-0.189,3.41c-0.462,1.076-1.22,2-2.016,2.849c-1.78,1.909-3.925,3.607-6.471,4.205
					c-1.046,0.242-2.205,0.273-3.175-0.129c0.068-0.727,0.167-1.455,0.303-2.182c0.212-1.144,0.5-2.288,0.409-3.447
					c-0.038-0.462-0.349-1.068-0.796-0.909c-0.144,0.053-0.25,0.182-0.349,0.303c-0.508,0.652-1.015,1.303-1.523,1.955
					c-0.879-0.47-1.402-1.417-1.69-2.372c-0.295-0.955-0.409-1.962-0.735-2.902c-0.159-0.447-0.379-0.902-0.758-1.182
					c-0.47-0.341-1.106-0.371-1.674-0.25c-0.568,0.129-1.099,0.379-1.652,0.553c-1.569,0.5-3.334,0.333-4.789-0.439
					C415.91,242.976,415.667,242.817,415.455,242.643z"/>
				<path style="fill:#422C4F;" d="M428.48,319.374c2.553-0.75,4.622-2.97,5.198-5.569h-0.288c-0.015-0.159,0.053-0.303,0.167-0.417
					c0.174-0.167,0.477-0.25,0.727-0.174c0.409,0.114,0.69,0.47,0.94,0.811c1.106,1.462,2.205,2.932,3.311,4.395
					c0.333,0.447,0.667,0.902,0.856,1.424c0.22,0.621,0.205,1.296,0.189,1.955c-0.106,3.129-0.386,6.259-0.849,9.358
					c-0.091,0.591-0.197,1.197-0.553,1.682c-0.348,0.477-1.03,0.773-1.561,0.5c-0.318-0.167-0.515-0.485-0.682-0.803
					c-0.735-1.371-1.197-2.887-1.371-4.432c-0.091-0.834-0.144-1.773-0.765-2.326c-0.371-0.333-0.871-0.462-1.341-0.606
					c-1.485-0.455-2.879-1.197-4.084-2.174c-0.273-0.22-0.538-0.455-0.712-0.758c-0.523-0.924-0.015-2.076,0.508-3.008
					C428.268,319.283,428.374,319.329,428.48,319.374z"/>
				<path style="fill:#BD6C67;" d="M428.169,319.23c-0.5-0.258-0.962-0.583-1.424-0.909c-1-0.72-2-1.432-3-2.144
					c-0.371-0.265-0.75-0.538-0.962-0.939c-0.227-0.424-0.235-0.924-0.235-1.409c0-1.758,0-3.531-0.008-5.296
					c2.22-0.023,4.425-0.485,6.6-0.947c1.159-0.242,2.326-0.492,3.485-0.743c-0.356,0.765-0.705,1.531-1.053,2.296
					c-0.129,0.28-0.265,0.576-0.227,0.879c0.03,0.28,0.197,0.523,0.364,0.758c0.614,0.871,1.235,1.743,1.849,2.614
					c-0.114,0.114-0.182,0.258-0.167,0.417h0.288c-0.576,2.599-2.644,4.819-5.198,5.569
					C428.374,319.329,428.268,319.283,428.169,319.23z"/>
				<path style="fill:#EDC75E;" d="M402.551,285.073c-1.068-0.826-2.106-1.682-3.129-2.569c-0.008,0-0.015-0.008-0.023-0.015
					c-0.197-0.174-0.394-0.349-0.5-0.576c-0.326-0.682,0.227-1.44,0.735-2c3.19-3.523,5.978-7.403,8.312-11.54
					c1.288-2.273,2.425-4.63,3.652-6.94c0.311-0.576,0.644-1.174,1.19-1.531c0.197-0.129,0.409-0.22,0.636-0.288
					c2.046,3.379,3.129,7.206,3.872,11.108c-4.205,4.955-8.395,9.918-12.6,14.874c-0.159,0.182-0.333,0.379-0.568,0.417
					c-0.265,0.038-0.515-0.129-0.727-0.288C403.112,285.513,402.832,285.293,402.551,285.073z"/>
				<path style="fill:#FFFFFF;" d="M414.942,250.381L426.125,250c0,0,0.375,4.196-3.964,5.643
					C417.821,257.089,414.044,253.208,414.942,250.381z"/>
				<polygon style="fill:#FFFFFF;" points="425.107,250.5 427.411,248.143 427.742,249.321 426.126,250.5 				"/>
				<path style="fill:#FFFFFF;" d="M425.643,251.594c0,0,2.825,0.801,4.064,0.202l0.426,1.544c0,0-2.395,0.68-4.491-1.286V251.594z"
					/>
			</g>
			<ellipse style="fill:#96AA43;" cx="445.005" cy="337.841" rx="18.121" ry="2.869"/>
		</g>
	</g>
	<g>
		<g>
			<g>
				<g>
					<polygon style="fill:#EBC27D;" points="262.451,68.853 266.09,88.111 278.931,88.111 282.57,68.853 					"/>
					<path style="fill:#422C4F;" d="M283.483,70.31h-22.068c-0.805,0-1.457-0.652-1.457-1.457l0,0c0-0.805,0.652-1.457,1.457-1.457
						h22.068c0.805,0,1.457,0.653,1.457,1.457l0,0C284.94,69.658,284.288,70.31,283.483,70.31z"/>
					<path style="fill:#422C4F;" d="M279.316,89.568h-13.735c-0.805,0-1.457-0.652-1.457-1.457l0,0c0-0.805,0.652-1.457,1.457-1.457
						h13.735c0.805,0,1.457,0.652,1.457,1.457l0,0C280.773,88.916,280.121,89.568,279.316,89.568z"/>
					<path style="fill:#422C4F;" d="M273.519,62.47h-1.884c-2.957,0-5.355,2.397-5.355,5.355l0,0h12.593l0,0
						C278.874,64.867,276.477,62.47,273.519,62.47z"/>
				</g>
				<rect x="271.536" y="66.196" style="fill:#422C4F;" width="2.083" height="22.09"/>
			</g>
			<rect x="270.562" y="88.286" style="fill:#422C4F;" width="4.424" height="139.038"/>
			<path style="fill:#422C4F;" d="M272.602,222.925L272.602,222.925c-2.584,0-4.678,2.094-4.678,4.678v35.196h9.356v-35.196
				C277.28,225.02,275.186,222.925,272.602,222.925z"/>
		</g>
		<g>
			<ellipse style="fill:#CCB697;" cx="581.647" cy="250.081" rx="96.647" ry="5.875"/>
			<g>
				<path style="fill:#F2C9AD;" d="M607.168,152.094c-0.049,0.889,0.247,1.763,0.55,2.603c0.423,1.157,0.889,2.321,1.651,3.287
					c0.762,0.959,1.869,1.714,3.096,1.777c0.889-1.538,1.841-3.04,2.843-4.507c-1.488-1.636-2.751-3.463-3.767-5.438
					c-0.176-0.346-0.381-0.727-0.741-0.868c-0.198-0.077-0.409-0.07-0.614-0.049C608.607,149.082,607.259,150.507,607.168,152.094z"
					/>
				<path style="fill:#F2C9AD;" d="M623.123,138.297c0,0,1.509,6.835,1.756,6.757c4.156,2.038,5.833-3.026,7.977-4.796
					c-0.578,0.056-2.885-5.375-2.948-5.96c-0.071-0.649,0.416-1.206,0.734-1.778c0.416-0.762,0.543-1.679,0.353-2.525
					c-0.099-0.444-0.282-0.882-0.607-1.199c-0.487-0.494-1.277-0.649-1.926-0.423c-0.395,0.903-0.917,1.742-1.545,2.497
					c-0.303,0.374-0.776,0.755-1.213,0.55c-0.183-0.085-0.31-0.261-0.402-0.444c-0.917-1.7,0.049-3.781-0.085-5.699
					c-0.035-0.416-0.12-0.839-0.367-1.171c-0.444-0.586-1.242-0.734-1.954-0.917c-0.169-0.042-0.339-0.092-0.501-0.148
					c-1.488,2.814-2.229,5.217-3.718,8.031c0.677,0.24,0.6,0.892,1.277,1.139c0.183,0.063,0.381,0.134,0.508,0.282
					c0.148,0.169,0.176,0.409,0.19,0.635c0.085,1.171-0.092,2.377,0.296,3.484C621.268,137.542,622.206,138.354,623.123,138.297z"/>
				<path style="fill:#422C4F;" d="M594.316,243.741c-0.444,0.155-0.966,0.571-0.748,0.995c0.078,0.148,0.233,0.233,0.374,0.317
					c5.121,2.85,10.785,4.719,16.597,5.481c0.79,0.106,1.622,0.183,2.363-0.113c1.164-0.458,1.806-1.7,2.137-2.906
					c0.331-1.199,0.458-2.483,1.051-3.576l0.042-0.113c-2.321-0.867-4.606-1.848-6.835-2.941c-2.109,1.058-4.416,1.728-6.757,1.961
					C599.783,243.113,596.919,242.803,594.316,243.741z"/>
				<path style="fill:#422C4F;" d="M609.298,240.884c2.229,1.093,4.514,2.074,6.835,2.941c0.339,0.134,0.677,0.261,1.016,0.381
					l0.042-0.113c5.466-14.037,10.771-28.13,15.913-42.293c-1.531-6.024-2.836-12.104-3.901-18.226v-0.035
					c-2.003-0.092-4.006-0.317-5.981-0.677l-0.021,0.113c-5.833,18.918-7.808,38.95-14.82,57.458
					C608.684,240.588,608.987,240.743,609.298,240.884z"/>
				<path style="fill:#BC91C6;" d="M612.465,159.761c-0.219,0.36-0.43,0.727-0.635,1.093c-0.388,0.691-0.769,1.524-0.451,2.243
					c0.176,0.388,0.515,0.663,0.854,0.917c2.913,2.25,6.003,4.281,9.226,6.052c0.31,0.176,0.621,0.346,0.938,0.515
					c1.707,0.91,3.491,1.763,5.417,1.933c1.171,0.099,2.455-0.113,3.252-0.973c0.416-0.444,0.656-1.023,0.882-1.587
					c2.956-7.392,5.255-15.052,6.856-22.854l0.021-0.007c-0.515-1.185-0.952-2.412-1.58-3.541c-0.924-1.672-2.511-3.202-4.387-3.294
					c-2.517,1.249-3.054,3.308-4.945,4.507c-0.36,0.226-0.769,0.458-1.185,0.592l0.014,0.254c-0.995,0.24-1.375,1.425-1.573,2.419
					c-0.663,3.407-1.192,6.835-1.573,10.277c-0.748-0.162-1.481-0.402-2.187-0.705c-1.721-0.741-3.266-1.883-4.465-3.322
					c-0.169-0.198-0.409-0.43-0.649-0.331c-0.106,0.042-0.183,0.141-0.247,0.24c-0.247,0.353-0.494,0.705-0.741,1.065
					C614.306,156.721,613.354,158.223,612.465,159.761z"/>
				<path style="fill:#8E569C;" d="M642.696,181.592c0.861-0.465,1.636-1.044,2.278-1.77c-2.222-9.565-4.74-30.119-5.121-30.718
					c-0.409-0.635-0.733-1.319-1.03-2.01l-0.021,0.007c-1.601,7.801-3.901,15.461-6.856,22.854
					c-0.226,0.564-0.466,1.143-0.882,1.587c-0.797,0.861-2.081,1.072-3.252,0.973c-1.926-0.169-3.71-1.023-5.417-1.933
					c-0.317-0.169-0.628-0.339-0.938-0.515c-0.021,4.07-1.552,8.062-1.298,12.132c1.009,0.261,2.031,0.48,3.061,0.663
					c1.975,0.36,3.978,0.585,5.981,0.677c2.497,0.113,5.008,0.021,7.498-0.275C638.753,183.017,640.898,182.558,642.696,181.592z"/>
				<path style="fill:#96430B;" d="M633.583,133.846c1.065-0.43,2.038-1.093,2.793-1.961c1.263-1.446,1.869-3.492,1.425-5.361
					c-0.444-1.869-1.996-3.477-3.886-3.816c-0.169-0.035-0.36-0.057-0.494-0.176c-0.134-0.12-0.183-0.31-0.233-0.487
					c-0.282-1.093-0.783-2.25-1.799-2.744c-1.016-0.494-2.208-0.19-3.322-0.028c-1.425,0.197-2.878,0.148-4.281-0.155
					c-1.086-0.24-2.384-0.571-3.188,0.198c-0.663,0.635-0.585,1.785-0.035,2.518c0.444,0.592,1.122,0.959,1.834,1.206
					c0.162,0.056,0.331,0.106,0.501,0.148c0.712,0.183,1.509,0.331,1.954,0.917c0.247,0.331,0.331,0.755,0.367,1.171
					c0.134,1.919-0.832,3.999,0.085,5.699c0.092,0.183,0.219,0.36,0.402,0.444c0.437,0.204,0.91-0.176,1.213-0.55
					c0.628-0.755,1.15-1.594,1.545-2.497c0.649-0.226,1.439-0.071,1.926,0.423c0.324,0.317,0.508,0.755,0.607,1.199
					c0.19,0.846,0.064,1.763-0.353,2.525c-0.317,0.571-0.804,1.129-0.734,1.778c0.063,0.585,0.649,1.044,1.227,0.987
					c0.007,0.007,0.007,0.007,0.007,0c0.388-0.31,0.762-0.642,1.121-0.98l-0.007-0.035
					C632.709,134.164,633.153,134.03,633.583,133.846z"/>
				<path style="fill:#8E569C;" d="M624.378,145.146c-1.481,4.006-2.483,8.203-2.97,12.457c0.705,0.303,1.439,0.543,2.187,0.705
					c0.381-3.442,0.91-6.87,1.573-10.277c0.198-0.995,0.578-2.18,1.573-2.419l-0.014-0.254c-0.487,0.162-0.987,0.197-1.446-0.021
					c-0.148-0.078-0.282-0.169-0.402-0.282L624.378,145.146z"/>
				<path style="fill:#454F6B;" d="M663.892,239.233c0.36-0.31,0.698-0.642,1.016-0.995l0.071-0.042
					c-4.324-6.842-8.641-13.698-12.964-20.547c-0.945-1.495-1.89-3.005-2.56-4.648c-0.79-1.94-1.164-4.028-1.601-6.08
					c-1.792-8.436-4.677-16.731-5.156-25.329c-1.799,0.966-3.943,1.425-5.996,1.672c-2.49,0.296-5.001,0.388-7.498,0.275v0.035
					c1.065,6.122,2.37,12.203,3.901,18.226c1.044,4.119,2.194,8.217,3.463,12.273h0.007c5.586,9.84,13.423,18.283,18.727,28.278
					c0.727,0.021,1.453-0.028,2.172-0.141C659.829,241.843,662.087,240.799,663.892,239.233z"/>
				<path style="fill:#422C4F;" d="M646.569,252.106c-0.127,0.169-0.247,0.36-0.233,0.571c0.014,0.318,0.31,0.536,0.578,0.698
					c2.758,1.615,6.186,1.432,9.346,0.945c2.088-0.324,4.162-0.769,6.2-1.319c1.382-0.374,2.969-1.023,3.287-2.419
					c0.127-0.543,0.021-1.1-0.078-1.65c-0.593-3.23-1.185-6.468-1.778-9.699c-1.806,1.566-4.063,2.61-6.419,2.977l0.014,0.085
					c-1.904,2.85-4.43,5.283-7.343,7.082C648.861,250.173,647.458,250.886,646.569,252.106z"/>
				<g>
					<path style="fill:#CC8F4E;" d="M505.953,224.967c-1.145-1.969-2.278-3.925-4.093-5.23c0.09,0,0.18-0.017,0.27-0.056
						c0.472-0.206,0.528-0.837,0.562-1.347c0.039-0.515,0.275-1.154,0.789-1.15c0.202,0,0.39,0.116,0.588,0.146
						c0.605,0.099,1.081-0.536,1.197-1.137c0.112-0.601,0.021-1.24,0.24-1.806c0.468-1.201,2.175-1.742,2.269-3.029
						c0.073-0.987-0.91-1.81-0.871-2.801c0.026-0.759,0.631-1.347,1.141-1.905c0.506-0.562,0.982-1.33,0.703-2.033
						c-0.133-0.326-0.403-0.575-0.566-0.884c-0.159-0.313-0.15-0.777,0.163-0.931c-0.107-0.103-0.223-0.197-0.348-0.283
						c11.613,1.626,23.441,1.665,35.058,0.116c2.951-0.395,5.98-0.884,8.867-0.159c1.759,0.442,3.38,1.321,5.114,1.853
						c5.53,1.695,11.592-0.326,16.396-3.544c4.801-3.213,8.726-7.559,13.183-11.24c0.867-0.716,2.227-1.394,2.995-0.571
						c0.459,0.485,0.403,1.244,0.305,1.9c-0.678,4.449-2.235,8.756-4.552,12.608c-1.883,3.132-4.415,6.07-7.816,7.4
						c-5.508,2.158-11.635-0.356-17.01-2.836c1.137,5.122,2.274,10.305,2.132,15.547c-0.06,2.136-0.3,4.419,0.734,6.289
						c0.639,1.154,1.699,2.012,2.51,3.054c3.166,4.067,1.943,10.112-0.764,14.5c-0.365,0.592-0.841,1.227-1.531,1.326
						c-1.167,0.163-1.918-1.351-1.673-2.501c0.245-1.154,1.047-2.111,1.407-3.23c0.905-2.827-1.257-5.783-3.801-7.306
						c-2.535-1.51-5.508-2.179-7.988-3.775c-0.013-0.009-0.03-0.017-0.043-0.026c-3.106-2.016-5.204-5.513-5.526-9.202
						c-2.218-0.245-4.384,0.566-6.328,1.755c-0.592,0.365-1.163,0.759-1.707,1.176c-2.368,1.806-4.496,3.981-7.16,5.311
						c-1.377,0.686-2.861,1.128-4.251,1.78c-1.39,0.656-2.729,1.579-3.466,2.926c-0.746,1.368-0.785,2.99-0.952,4.539
						c-0.214,2.025-0.674,4.024-1.36,5.942c-0.335,0.944-0.742,1.888-1.39,2.651c-1.75,2.068-4.775,2.368-7.477,2.523
						c-0.481,0.026-1.085-0.026-1.253-0.476c-0.112-0.309,0.056-0.643,0.253-0.905c0.558-0.746,1.369-1.257,2.029-1.922
						c2.278-2.304,2.359-5.929,2.291-9.172c-0.03-1.51-0.077-3.076-0.751-4.427c-0.618-1.24-1.673-2.132-2.793-2.981
						c-0.871-0.656-1.776-1.287-2.557-2.034C507.819,228.154,506.879,226.558,505.953,224.967z"/>
					<path style="fill:#BA7538;" d="M551.564,231.955l-0.056,0.094c-0.197,3.423-0.536,6.911-1.939,10.039
						c-1.398,3.127-4.05,5.882-7.405,6.572c-0.742,0.15-1.767,0.004-1.87-0.742c-0.051-0.386,0.193-0.742,0.433-1.051
						c1.793-2.312,4.02-4.595,4.277-7.512c0.455-5.217-5.616-9.327-5.14-14.543l-0.197-0.33c1.943-1.188,4.11-1.999,6.328-1.755
						c0.322,3.689,2.419,7.186,5.526,9.202C551.534,231.938,551.551,231.946,551.564,231.955z"/>
					<path style="fill:#BA7538;" d="M509.123,229.411c0.781,0.747,1.686,1.377,2.557,2.034c-2.84,3.496-5.903,6.804-9.168,9.906
						c-1.686,1.605-3.436,3.162-5.414,4.397c-1.973,1.235-4.187,2.145-6.508,2.351c-0.549,0.047-1.128,0.051-1.622-0.193
						c-0.493-0.244-0.875-0.802-0.742-1.338c0.094-0.403,0.442-0.691,0.772-0.94c1.223-0.901,2.565-1.63,3.81-2.501
						c3.655-2.544,6.383-6.178,8.949-9.82c1.806-2.565,3.599-5.264,4.196-8.34C506.879,226.558,507.819,228.154,509.123,229.411z"/>
					<path style="fill:#BA7538;" d="M489.483,204.13c-0.425,2.668-1.077,5.302-1.939,7.859c-0.27,0.798-0.566,1.634-0.425,2.467
						c0.189,1.094,1.137,1.952,2.201,2.278c1.064,0.322,2.218,0.189,3.29-0.103c1.214-0.326,2.467-0.948,2.99-2.094
						c0.485-1.055,0.232-2.287-0.086-3.402c-0.309-1.098-0.678-2.188-1.085-3.256c-0.558-1.454-1.227-2.926-2.372-3.981
						c-0.386-0.36-0.879-0.682-1.407-0.626C490.144,203.324,489.775,203.692,489.483,204.13z M507.999,202.521
						c0.124,0.086,0.24,0.18,0.348,0.283c-0.313,0.154-0.322,0.618-0.163,0.931c0.163,0.309,0.433,0.558,0.566,0.884
						c0.279,0.704-0.197,1.471-0.703,2.033c-0.511,0.558-1.115,1.146-1.141,1.905c-0.039,0.991,0.944,1.815,0.871,2.801
						c-0.094,1.287-1.802,1.827-2.269,3.029c-0.219,0.566-0.129,1.205-0.24,1.806c-0.116,0.601-0.592,1.236-1.197,1.137
						c-0.197-0.03-0.386-0.146-0.588-0.146c-0.515-0.004-0.751,0.635-0.789,1.15c-0.034,0.51-0.09,1.141-0.562,1.347
						c-0.09,0.039-0.18,0.056-0.27,0.056c-0.378,0-0.759-0.292-1.072-0.545c-2.454-1.969-6.019-2.441-8.902-1.175
						c-1.077,0.472-2.154,1.18-3.316,1.012c-0.948-0.137-1.767-0.922-1.948-1.862c-0.034-0.176-0.052-0.369-0.172-0.502
						c-0.232-0.257-0.648-0.129-0.965,0.004c-1.261,0.528-2.643,0.824-4.003,0.665c-1.356-0.163-2.685-0.806-3.513-1.896
						c-0.3-0.395-0.536-0.871-0.515-1.369c0.039-0.931,0.918-1.561,1.66-2.132c1.724-1.334,3.11-3.102,3.994-5.092
						c0.682-1.527,1.103-3.23,2.248-4.449c1.047-1.111,2.587-1.656,4.105-1.798c1.523-0.137,3.05,0.09,4.565,0.317
						c2.312,0.352,4.629,0.699,6.945,1.051c1.986,0.296,4.046,0.592,5.993,0.124C507.334,202.161,507.69,202.311,507.999,202.521z"
						/>
					<path style="fill:#CC8F4E;" d="M495.515,211.136c0.318,1.115,0.571,2.347,0.086,3.402c-0.523,1.145-1.776,1.767-2.99,2.094
						c-1.072,0.292-2.227,0.425-3.29,0.103c-1.064-0.326-2.012-1.184-2.201-2.278c-0.142-0.832,0.154-1.669,0.425-2.467
						c0.862-2.557,1.514-5.191,1.939-7.859c0.292-0.438,0.661-0.807,1.167-0.858c0.528-0.056,1.021,0.266,1.407,0.626
						c1.145,1.055,1.815,2.527,2.372,3.981C494.837,208.948,495.206,210.037,495.515,211.136z"/>
					<path style="fill:#43394F;" d="M620.778,176.725c-26.123,15.838-83.12,23.671-113.124,29.412
						c-0.543,0.104-0.318,0.932,0.222,0.829c30.071-5.753,87.147-13.622,113.327-29.495
						C621.675,177.185,621.251,176.439,620.778,176.725z"/>
				</g>
				<path style="fill:#FFFFFF;" d="M619,128.714l5.714,2.464c0,0-1.429,5.857-2.643,6.428c-1.214,0.572-3.867-1.981-3.857-4.786
					C618.224,130.017,619,128.714,619,128.714z"/>
				<polygon style="fill:#FFFFFF;" points="622.929,131.321 627.661,129.858 627.321,130.893 624.075,131.857 				"/>
				<path style="fill:#FFFFFF;" d="M622.929,134.285c0,0,1.357,1.179,3.607,1.179s3.373-1.166,3.373-1.166l0.257,0.577
					c0,0-1.344,1.482-3.916,1.447c-2.571-0.036-3.321-0.857-3.321-0.857V134.285z"/>
			</g>
		</g>
		<g>
			<path style="fill:#CCB697;" d="M243.242,247.943c0,1.861-29.82,3.37-66.605,3.37c-36.785,0-66.605-1.509-66.605-3.37
				c0-1.861,29.82-3.37,66.605-3.37C213.422,244.573,243.242,246.082,243.242,247.943z"/>
			<g>
				<polygon style="fill:#ECB39B;" points="204.417,159.612 212.949,162.14 210.318,165.588 203.755,162.973 				"/>
				<path style="fill:#454F6B;" d="M171.742,130.656l16.504,19.841l11.419,2.034c4.259,0.759,7.077,4.851,6.266,9.099l0,0
					c-0.908,4.757-5.904,7.53-10.424,5.787l-15.9-10.079c-2.103-1.333-3.744-3.282-4.698-5.581l-7.391-17.806L171.742,130.656z"/>
				<path style="fill:#422C4F;" d="M185.487,157.434c-2.059-3.622-4.59-6.945-7.118-10.257c-2.875-3.767-4.744-8.377-5.281-13.337
					c-0.127-1.171-0.594-2.279-1.347-3.185l0,0l-4.223,3.294l7.391,17.806c0.954,2.299,2.595,4.248,4.698,5.581l15.9,10.079
					c0.325,0.125,0.652,0.221,0.979,0.3C191.829,165.535,188.029,161.903,185.487,157.434z"/>
				<g>
					<path style="fill:#413A89;" d="M174.797,215.92c-1.982,1.09-1.152,2.406,0.32,4.749c1.472,2.343,2.866,3.813,3.471,3.434
						c0.563-0.354,0.494-1.667-0.148-4.359C177.669,216.512,176.087,215.21,174.797,215.92z"/>
					<path style="fill:#ECB39B;" d="M176.445,212.956l-1.16,3.367c-0.236,0.528-0.021,1.148,0.49,1.417l0,0
						c0.515,0.271,1.153,0.093,1.452-0.407l2.475-3.774L176.445,212.956z"/>
					<path style="fill:#844E91;" d="M175.399,157.418c-5.419-3.982-11.282-2.779-12.221-1.102v0
						c-2.547,9.76,2.509,19.896,11.836,23.746c3.585,1.48,6.329,2.636,6.329,2.636l-5.57,30.264
						c0.006,0.225,0.133,0.436,0.334,0.537c1.223,0.614,2.409,0.808,3.575,0.765c0.279-0.01,0.51-0.211,0.571-0.482
						c1.234-5.447,16.087-24.256,15.784-34.171C195.853,173.601,183.801,163.592,175.399,157.418z"/>
					<path style="fill:#7B4986;" d="M176.239,172.891c-0.369-1.461-0.613-2.971-0.683-4.52c-0.147-3.29,0.667-6.431,2.158-9.222
						c-0.793-0.603-1.568-1.183-2.314-1.731c-5.42-3.982-11.282-2.779-12.221-1.102v0c-2.547,9.76,2.509,19.896,11.836,23.746
						c2.802,1.156,5.083,2.112,5.949,2.476C178.651,179.83,177.01,176.513,176.239,172.891z"/>
				</g>
				<g>
					<path style="fill:#5190C5;" d="M189.086,153.239l-2.729-0.096c-0.829-0.056-1.345-0.925-0.998-1.679l3.529-7.661
						c0.206-0.447,0.667-0.72,1.158-0.687l1.245,0.074c0.829,0.056,2.829,0.946,2.482,1.701l-3.529,7.661
						C190.037,152.999,189.577,153.272,189.086,153.239z"/>
					<path style="fill:#71B3E3;" d="M190.331,153.313l-2.729-0.096c-0.829-0.056-1.345-0.925-0.998-1.679l3.529-7.661
						c0.206-0.447,0.666-0.72,1.158-0.687l2.729,0.096c0.829,0.056,1.345,0.925,0.998,1.679l-3.529,7.661
						C191.282,153.073,190.822,153.347,190.331,153.313z"/>
				</g>
				<g>
					
						<line style="fill:none;stroke:#71B3E3;stroke-width:4.3838;stroke-linecap:round;stroke-linejoin:round;stroke-miterlimit:10;" x1="174.315" y1="216.997" x2="155.513" y2="172.278"/>
					<g>
						<path style="fill:#816A61;" d="M218.873,248.418c-16.559,0-30.031-13.467-30.031-30.02c0-16.553,13.472-30.02,30.031-30.02
							c16.56,0,30.032,13.467,30.032,30.02C248.905,234.951,235.433,248.418,218.873,248.418z M218.873,192.805
							c-14.119,0-25.604,11.481-25.604,25.593c0,14.112,11.486,25.593,25.604,25.593c14.119,0,25.605-11.481,25.605-25.593
							C244.479,204.286,232.992,192.805,218.873,192.805z"/>
					</g>
					<g>
						<path style="fill:#F1F1FA;" d="M218.873,246.93c-15.738,0-28.542-12.799-28.542-28.532c0-15.732,12.804-28.532,28.542-28.532
							c15.738,0,28.543,12.799,28.543,28.532C247.416,234.13,234.612,246.93,218.873,246.93z M218.873,194.579
							c-13.14,0-23.83,10.685-23.83,23.819c0,13.134,10.69,23.819,23.83,23.819c13.14,0,23.83-10.685,23.83-23.819
							C242.703,205.264,232.013,194.579,218.873,194.579z"/>
					</g>
					<g>
						<path style="fill:#FFFFFF;" d="M218.873,239.833c-11.824,0-21.444-9.616-21.444-21.436c0-11.82,9.62-21.436,21.444-21.436
							c11.824,0,21.444,9.616,21.444,21.436C240.318,230.218,230.698,239.833,218.873,239.833z M218.873,198.163
							c-11.163,0-20.244,9.078-20.244,20.235c0,11.158,9.081,20.235,20.244,20.235s20.244-9.078,20.244-20.235
							C239.118,207.24,230.036,198.163,218.873,198.163z"/>
					</g>
					<g>
						<path style="fill:#FFFFFF;" d="M237.893,218.398h-1.2c0-9.821-7.994-17.812-17.819-17.812v-1.2
							C229.361,199.386,237.893,207.915,237.893,218.398z"/>
					</g>
					<g>
						<path style="fill:#816A61;" d="M142.168,248.418c-16.559,0-30.031-13.467-30.031-30.02c0-16.553,13.472-30.02,30.031-30.02
							c16.559,0,30.032,13.467,30.032,30.02C172.2,234.951,158.727,248.418,142.168,248.418z M142.168,192.805
							c-14.118,0-25.604,11.481-25.604,25.593c0,14.112,11.486,25.593,25.604,25.593c14.119,0,25.605-11.481,25.605-25.593
							C167.773,204.286,156.287,192.805,142.168,192.805z"/>
					</g>
					<g>
						<path style="fill:#F1F1FA;" d="M142.338,246.93c-15.738,0-28.542-12.799-28.542-28.532c0-15.732,12.804-28.532,28.542-28.532
							c15.739,0,28.543,12.799,28.543,28.532C170.881,234.13,158.077,246.93,142.338,246.93z M142.338,194.579
							c-13.14,0-23.829,10.685-23.829,23.819c0,13.134,10.689,23.819,23.829,23.819c13.14,0,23.83-10.685,23.83-23.819
							C166.168,205.264,155.478,194.579,142.338,194.579z"/>
					</g>
					<g>
						<path style="fill:#FFFFFF;" d="M142.168,239.833c-11.824,0-21.444-9.616-21.444-21.436c0-11.82,9.62-21.436,21.444-21.436
							s21.444,9.616,21.444,21.436C163.612,230.218,153.992,239.833,142.168,239.833z M142.168,198.163
							c-11.163,0-20.244,9.078-20.244,20.235c0,11.158,9.081,20.235,20.244,20.235s20.244-9.078,20.244-20.235
							C162.412,207.24,153.331,198.163,142.168,198.163z"/>
					</g>
					<g>
						<path style="fill:#FFFFFF;" d="M161.188,218.398h-1.2c0-9.821-7.994-17.812-17.82-17.812v-1.2
							C152.656,199.386,161.188,207.915,161.188,218.398z"/>
					</g>
					<path style="fill:#FFFFFF;" d="M183.012,218.295c0,3.601-2.92,6.52-6.523,6.52c-3.602,0-6.523-2.919-6.523-6.52
						c0-3.601,2.92-6.52,6.523-6.52C180.092,211.775,183.012,214.694,183.012,218.295z"/>
					
						<line style="fill:none;stroke:#93AEB7;stroke-width:2.6303;stroke-linecap:round;stroke-linejoin:round;stroke-miterlimit:10;" x1="175.031" y1="212.101" x2="141.788" y2="214.429"/>
					<g>
						<path style="fill:#BCD5DA;" d="M222.295,218.398c0,1.889-1.532,3.42-3.421,3.42c-1.889,0-3.421-1.531-3.421-3.42
							c0-1.888,1.532-3.419,3.421-3.419C220.763,214.979,222.295,216.51,222.295,218.398z"/>
					</g>
					<g>
						<path style="fill:#BCD5DA;" d="M145.195,218.398c0,1.889-1.532,3.42-3.421,3.42s-3.421-1.531-3.421-3.42
							c0-1.888,1.532-3.419,3.421-3.419S145.195,216.51,145.195,218.398z"/>
					</g>
					<g>
						<path style="fill:#422C4F;" d="M218.932,220.296c-0.888,0-1.698-0.595-1.934-1.495l-12.866-49.197
							c-0.39-1.491-0.172-3.043,0.613-4.369c0.785-1.327,2.041-2.265,3.537-2.641l1.651-0.415c0.253-0.064,0.385-0.235,0.441-0.332
							c0.056-0.097,0.14-0.296,0.071-0.547l-1.23-4.454c-0.294-1.064,0.331-2.166,1.396-2.46c1.063-0.292,2.166,0.331,2.46,1.396
							l1.23,4.454c0.34,1.233,0.173,2.52-0.471,3.626c-0.644,1.105-1.682,1.885-2.923,2.197l-1.651,0.415
							c-0.452,0.113-0.833,0.397-1.07,0.798c-0.237,0.401-0.303,0.87-0.185,1.32l12.866,49.197c0.279,1.068-0.36,2.161-1.429,2.441
							C219.27,220.275,219.099,220.296,218.932,220.296z"/>
					</g>
					<g>
						<path style="fill:#422C4F;" d="M138.538,220.551l19.541-40.754l49.8-4.996c1.098-0.101,2.08,0.691,2.19,1.79
							c0.11,1.099-0.691,2.08-1.79,2.19l-47.565,4.771l-15.675,32.692l25.142-1.168l37.564-35.739c0.8-0.762,2.065-0.73,2.828,0.07
							c0.761,0.8,0.729,2.066-0.071,2.828l-38.645,36.768L138.538,220.551z"/>
					</g>
					<path style="fill:#FFFFFF;" d="M181.279,218.469c0.922-0.101,1.502-0.174,1.502-0.174c0-4.043-3.279-7.321-7.324-7.321
						c-0.447,0-0.882,0.046-1.307,0.123l-32.436,2.271c-0.126,0.009-0.24,0.048-0.349,0.096c-2.488,0.208-4.444,2.289-4.444,4.831
						c0,2.297,1.112,3.494,2.225,4.118c0.947,0.531,2.057,0.692,3.135,0.568L181.279,218.469z"/>
					<path style="fill:#422C4F;" d="M178.577,218.295c0,1.152-0.934,2.086-2.087,2.086c-1.153,0-2.087-0.934-2.087-2.086
						c0-1.152,0.935-2.086,2.087-2.086C177.643,216.209,178.577,217.143,178.577,218.295z"/>
				</g>
				<path style="fill:#422C4F;" d="M161.172,237.367h-7.294c-0.403,0-0.73-0.327-0.73-0.73v-0.583c0-0.403,0.327-0.73,0.73-0.73
					h7.294c0.403,0,0.73,0.327,0.73,0.73v0.583C161.902,237.041,161.575,237.367,161.172,237.367z"/>
				<path style="fill:#413A89;" d="M152.844,231.603c-0.856,2.093,0.616,2.596,3.234,3.494c2.618,0.898,4.626,1.166,4.858,0.492
					c0.216-0.629-0.664-1.607-2.855-3.298C155.451,230.261,153.402,230.24,152.844,231.603z"/>
				<path style="fill:#ECB39B;" d="M154.911,227.825l-1.16,3.366c-0.236,0.528-0.021,1.148,0.49,1.417l0,0
					c0.515,0.271,1.153,0.093,1.452-0.406l2.475-3.774L154.911,227.825z"/>
				<path style="fill:#8E569C;" d="M163.178,157.809c-4.59-4.915-17.259,1.819-13.03,14.003
					c2.268,6.535,10.181,22.919,10.181,22.919l-6.092,33.1c0.006,0.225,0.133,0.436,0.334,0.537
					c1.223,0.614,2.409,0.808,3.574,0.765c0.269-0.01,0.51-0.201,0.568-0.464c1.204-5.423,16.091-24.264,15.788-34.19
					C174.318,188.471,170.096,165.218,163.178,157.809z"/>
				<path style="fill:#52565A;" d="M160.599,119.026c0.487,1.392,0.141,2.779-0.772,3.098c-0.913,0.319-2.055-0.548-2.535-1.943
					c-2.378-6.913-0.529-4.64,0.384-4.959C158.59,114.904,160.113,117.634,160.599,119.026z"/>
				<path style="fill:#454F6B;" d="M171.152,159.103c0,0,5.191-14.348,3.839-21.086c-0.834-4.154-4.047-11.861-12.111-11.86
					c-5.378,0.001-13.974,1.587-13.583,13.844c0.181,5.67-0.436,12.775,4.722,19.112
					C154.019,159.114,163.136,163.463,171.152,159.103z"/>
				<path style="fill:#E8A286;" d="M161.931,130.63L161.931,130.63c-1.558,0-2.821-1.263-2.821-2.82v-9.306h5.643v9.306
					C164.752,129.367,163.489,130.63,161.931,130.63z"/>
				<path style="fill:#DC866F;" d="M164.188,128.088L164.188,128.088c0.191,0,0.379-0.019,0.564-0.049v-7.195h-5.643v1.05
					C159.109,124.699,161.383,128.088,164.188,128.088z"/>
				<path style="fill:#ECB39B;" d="M163.874,127.034L163.874,127.034c-2.432-0.432-5.172-3.95-4.739-6.381l0.892-5.017l8.806,1.564
					l-0.892,5.017C167.509,124.648,164.938,127.223,163.874,127.034z"/>
				<path style="fill:#E8A286;" d="M157.708,118.065c-0.193,1.086,0.521,2.121,1.595,2.312l0.699-3.934
					C158.928,116.253,157.901,116.979,157.708,118.065z"/>
				<path style="fill:#E8A286;" d="M168.95,116.541l-7.421-1.318l-0.29,1.632c-0.765-0.093-1.479,0.429-1.617,1.205
					c-0.036,0.201-0.028,0.399,0.014,0.586c0.196-0.037,0.385-0.094,0.56-0.178c0.372-0.181,0.789-0.213,1.196-0.143
					c0.89,0.152,1.767-0.013,2.518-0.425c1.047-0.574,2.298-0.734,3.426-0.343c0.238,0.082,0.485,0.147,0.741,0.193
					c0.208,0.037,0.441,0.056,0.647,0.066L168.95,116.541z"/>
				<g>
					<path style="fill:#ECB39B;" d="M186.936,154.022c0.937-0.267,1.775-0.802,2.412-1.538l1.297-1.499
						c0.449-0.519,2.289-3.755,1.739-4.166c-0.233-0.174-1.686,0.444-2.759,1.762c-0.321,0.395-1.581,1.076-1.834,0.908
						c-0.161-0.107,0.006-0.809,0.178-1.39c0.133-0.451-0.061-1.407-0.51-1.548c-0.569,1.43-1.437,3.088-2.547,3.945l-3.668,2.858
						l1.823,1.934L186.936,154.022L186.936,154.022z"/>
					<path style="fill:#E8A286;" d="M182.864,152.094l-1.618,1.261l1.823,1.934l2.955-0.967
						C184.721,153.918,183.725,152.98,182.864,152.094z"/>
				</g>
				<path style="fill:#468097;" d="M153.44,133.282c-1.6,0.362-2.65,1.904-2.37,3.52c0.908,5.224,3.113,16.439,5.96,20.801
					c3.061,4.69,17.022,5.921,24.93,2.375c0.018-0.008,0.036-0.016,0.055-0.025c2.464-1.125,3.128-4.332,1.408-6.424l-1.025-1.246
					c0,0-3.378-4.19-6.423-3.59c-5.416,1.067-8.067,6.335-14.999,0.99c-1.166-0.899-2.905-9.363-3.781-13.995
					c-0.322-1.704-1.982-2.803-3.675-2.424C153.494,133.269,153.467,133.275,153.44,133.282z"/>
				<path style="fill:#BD6C67;" d="M171.383,105.328c-1.711-0.254-3.367,0.264-4.606,1.299c-1.762,1.471-3.517,1.454-4.871,1.59
					c-0.179,0.018-0.356-0.052-0.474-0.188c-0.118-0.136-0.162-0.321-0.119-0.495c0.309-1.255,0.061-2.56-0.805-3.504
					c-1.469-1.6-4.133-1.546-5.95,0.121c-1.816,1.667-2.098,4.315-0.629,5.915c0.792,0.862,1.93,1.233,3.096,1.136
					c0.179-0.015,0.354,0.058,0.47,0.196c0.116,0.138,0.157,0.323,0.112,0.497c-0.186,0.706-0.307,1.375-0.95,2.189
					c-0.228,0.289-0.389,0.632-0.457,1.015c-0.237,1.333,0.725,2.619,2.148,2.871c0.59,0.105,1.165,0.013,1.653-0.224
					c0.448-0.218,0.951-0.257,1.442-0.173c1.073,0.183,2.13-0.015,3.035-0.512c1.262-0.692,2.77-0.884,4.129-0.413
					c0.287,0.1,0.585,0.178,0.894,0.232c3.24,0.576,6.33-1.631,6.817-4.907C176.774,108.911,174.447,105.783,171.383,105.328z"/>
				<path style="fill:#ECB39B;" d="M214.724,162.324c-0.128-0.571-0.547-1.035-1.111-1.193c-0.794-0.222-1.848-0.296-1.818,0.893
					c0.027,1.041-1.581,0.703-1.05,2.156c0.224,0.613-1.527-0.04-1.622,0.947c-0.099,1.031,0.146,2.349,1.807,1.992
					c1.85-0.398,2.638-0.996,3.542-2.145C215.023,164.275,214.902,163.12,214.724,162.324z"/>
				<path style="fill:#ECB39B;" d="M208.352,161.044c0,0,1.525-0.952,1.295-2.714c-0.23-1.762,1.035-0.977,1.092-0.326
					c0.109,1.23,0.146,2.012,0.191,2.996c0.03,0.638-0.211,1.6-1.916,1.634C207.677,162.661,208.352,161.044,208.352,161.044z"/>
				<path style="fill:#FFFFFF;" d="M161.179,120.761l7.286,0.274c0,0,0.143,2.607-1.5,4.429c-1.643,1.821-2.363,1.784-3.807,1.356
					C161.714,126.393,160.857,122.987,161.179,120.761z"/>
				<polygon style="fill:#FFFFFF;" points="159.393,118.929 161.931,121 161.321,121.571 159.321,119.714 				"/>
				<path style="fill:#FFFFFF;" d="M159.177,122.75c0,0,1.327,1.357,2.753,1.393l0,0.679c0,0-0.83-0.019-1.929-0.856
					C159.321,123.447,159.177,122.75,159.177,122.75z"/>
			</g>
			<g>
				<path style="fill:#422C4F;" d="M159.382,237.095l-2.797-1.625l1.728-3.031c0.196-0.343,0.634-0.461,0.976-0.263l1.567,0.91
					c0.338,0.196,0.454,0.628,0.261,0.967L159.382,237.095z"/>
			</g>
			<g>
				
					<rect x="154.884" y="226.19" transform="matrix(0.6993 -0.7149 0.7149 0.6993 -111.9862 188.1831)" style="fill:#422C4F;" width="25.565" height="2"/>
			</g>
		</g>
	</g>
	<g>
		<g>
			<ellipse style="fill:#CCB697;" cx="139.299" cy="461.417" rx="71.828" ry="4.441"/>
			<g>
				<g>
					<g>
						<polygon style="fill:#EDC75E;" points="111.803,325.497 106.23,343.373 117.96,348.177 119.86,339.575 						"/>
						<path style="fill:#EAA857;" d="M113.055,327.685c-1.649,6.713,2.308,19.428,2.308,19.428l2.598,1.064l1.899-8.602
							L113.055,327.685z"/>
					</g>
					<g>
						<polygon style="fill:#EBA58E;" points="81.503,381.991 89.137,372.978 82.285,371.005 78.71,374.17 						"/>
						<path style="fill:#F2C9AD;" d="M74.8,374.207l5.245-1.894l0.383,0.945c0.976,2.411,1.376,5.017,1.166,7.61l-0.091,1.121
							l-0.902-0.555c-2.063-1.268-3.731-3.088-4.814-5.255L74.8,374.207z"/>
						<path style="fill:#F2C9AD;" d="M107.197,343.769l-3.537,9.919l-15.715,14.672l-7.262,0.223l-1.154,6.74l0,0
							c1.321-0.088,2.422-1.045,2.694-2.341l0.025-0.117c2.495,1.75,6.219,0.931,7.932-0.112l19.582-12.702
							c1.6-1.038,2.827-2.561,3.5-4.346l3.087-8.19L107.197,343.769z"/>
						<polygon style="fill:#EBA58E;" points="107.197,343.769 116.348,347.517 114.992,351.114 106.887,344.637 						"/>
					</g>
				</g>
				<g>
					<path style="fill:#8E569C;" d="M130.016,368.765l15.586,36.136c1.008,2.338,2.756,4.279,4.975,5.527l21.753,12.228
						l5.065-11.917l-19.216-11.619l-4.474-32.35L130.016,368.765z"/>
					<polygon style="fill:#BC91C6;" points="177.764,409.87 171.96,423.525 175.982,425.685 181.786,412.03 					"/>
					<g>
						<g>
							<path style="fill:#422C4F;" d="M188.66,420.804l-0.652,3.789c-0.627-0.264-1.354-0.078-1.778,0.454l-1.238,1.557
								l6.256,13.704l0,0l1.245-19.214L188.66,420.804z"/>
							<polygon style="fill:#FFFFFF;" points="194.45,421.241 192.492,421.093 191.247,440.307 193.556,440.307 							"/>
						</g>
						<g>
							<path style="fill:#F2C9AD;" d="M188.008,424.592l0.652-3.789l-2.104-0.159l-6.547-4.434l-2.888,6.796l7.871,3.596
								l1.238-1.557C186.653,424.514,187.38,424.328,188.008,424.592z"/>
							<polygon style="fill:#422C4F;" points="180.009,416.211 179.441,424.067 177.12,423.007 							"/>
						</g>
					</g>
					<path style="fill:#8E569C;" d="M122.429,369.404l-16.758,26.566c-1.557,2.469-1.937,5.502-1.037,8.278l7.516,23.175
						l13.257-1.737l-7.001-24.628l18.307-16.762l-6.698-15.531L122.429,369.404z"/>
					<polygon style="fill:#BC91C6;" points="126.317,425.566 111.242,427.542 112.508,432.383 127.583,430.407 					"/>
					<g>
						<path style="fill:#F2C9AD;" d="M121.87,442.244l3.638,0.164l-0.547-2.266l-1.066-9.251l-7.666,1.005l1.806,8.189l2.29,0.356
							C121.215,440.578,121.87,441.344,121.87,442.244z"/>
						<g>
							<polygon style="fill:#FFFFFF;" points="106.64,446.936 106.64,449.394 127.196,449.394 126.827,447.868 							"/>
							<path style="fill:#422C4F;" d="M125.509,442.408l-3.638-0.164c0-0.9-0.656-1.666-1.545-1.804l-2.29-0.356l-11.395,6.852l0,0
								l20.188,0.932L125.509,442.408z"/>
						</g>
						<polygon style="fill:#422C4F;" points="116.229,431.895 123.895,430.891 124.245,433.93 116.448,432.892 						"/>
					</g>
					<path style="fill:#422C4F;" d="M133.523,376.895l3.192,7.4l-14.079,12.891l4.817-8.104c1.408-2.368,3.799-3.985,6.521-4.41l0,0
						L133.523,376.895z"/>
					<g>
						<polygon style="fill:#422C4F;" points="122.429,369.404 130.575,370.06 130.016,368.765 						"/>
						<polygon style="fill:#422C4F;" points="153.705,366.771 130.016,368.765 130.575,370.06 154.426,371.982 						"/>
					</g>
					<g>
						<polygon style="fill:#454F6B;" points="146.907,367.343 146.008,367.419 146.909,371.376 147.842,371.452 						"/>
						<path style="fill:#BC91C6;" d="M155.939,402.804c-0.711-0.438-1.225-1.155-1.411-1.97l-6.686-29.383l-0.933-0.075
							l6.748,29.656c0.238,1.047,0.899,1.97,1.814,2.533l19.795,12.182l0.354-0.832L155.939,402.804z"/>
					</g>
					<path style="fill:#BC91C6;" d="M133.49,376.819l-0.393-0.911l-19.451,22.434c-0.685,0.791-0.929,1.866-0.654,2.875
						l6.892,25.194l0.895-0.117l-6.924-25.312c-0.197-0.721-0.023-1.489,0.467-2.053L133.49,376.819z"/>
				</g>
				<g>
					<path style="fill:#EDC75E;" d="M117.461,315.287l-6.539,9.169l0.747,4.685c0.684,4.291,2.353,8.366,4.876,11.904l0,0
						c3.113,4.366,4.914,9.531,5.19,14.887l0.694,13.473l33.18-2.793l-5.107-17.301c-2.52-8.537-6.958-16.385-12.975-22.945v0
						C132.225,320.583,125.179,316.693,117.461,315.287L117.461,315.287z"/>
					<path style="fill:#EAA857;" d="M142.145,339.357L142.145,339.357c0.254-0.451,0.803-0.643,1.282-0.449l3.604,1.458
						c-2.467-5.088-5.659-9.81-9.503-14.001c-0.342-0.373-0.691-0.737-1.047-1.093l-12.13,5.439l16.401,9.042
						C141.246,340.026,141.868,339.849,142.145,339.357z"/>
				</g>
				<g>
					<path style="fill:#EDC75E;" d="M124.351,330.711l15.953,6.183l3.798-12.512l-15.316-5.527c-3.329-1.201-6.996,0.56-8.139,3.91
						l0,0C119.551,325.977,121.185,329.483,124.351,330.711z"/>
					<path style="fill:#F2C9AD;" d="M143.764,325.497l8.854,3.193c3.091,1.115,5.705,3.261,7.4,6.076l10.562,17.544l0.667-0.114
						c2.935-0.5,5.949,0.184,8.382,1.901l0,0l2.786-0.697c0.751-0.188,1.542,0.085,2.018,0.697l0,0l-5.474,4.357l-12.736-3.463
						l-15.976-18.098l-9.172-2.539L143.764,325.497z"/>
					<polygon style="fill:#EBA58E;" points="143.764,325.497 144.102,335.193 141.075,334.355 					"/>
				</g>
				<g>
					<path style="fill:#BD6C67;" d="M124.552,306.841H85.078c-0.597,0-1.08-0.483-1.08-1.08l0,0c0-0.596,0.483-1.08,1.08-1.08
						h39.474c0.596,0,1.08,0.484,1.08,1.08l0,0C125.632,306.358,125.148,306.841,124.552,306.841z"/>
					<path style="fill:#BD6C67;" d="M115.925,304.681h-22.22l3.476-12.512l0,0c4.985-1.459,10.283-1.459,15.268,0l0,0
						L115.925,304.681z"/>
					<path style="fill:#8C404C;" d="M94.675,301.19l-0.97,3.492h22.22l-0.97-3.492C108.272,300.371,101.357,300.371,94.675,301.19z"
						/>
					<g>
						<path style="fill:#422C4F;" d="M116.843,306.841h-12.959l2.123,2.383l1.242,2.723c0.422,0.926,1.35,1.516,2.367,1.506
							c-0.868-0.777-1.247-2.084-0.86-3.183c0.387-1.099,1.553-1.893,2.713-1.78c1.16,0.113,2.172,1.172,2.166,2.337
							c-0.005,0.871-0.66,1.659-1.148,2.381l2.966,1.939h0C118.083,313.885,120.455,310.118,116.843,306.841z"/>
						<path style="fill:#F2C9AD;" d="M113.634,310.828c0.006-1.165-1.006-2.224-2.166-2.337c-1.16-0.113-2.326,0.68-2.713,1.78
							c-0.387,1.099-0.008,2.406,0.86,3.183c-1.017,0.01-1.945-0.58-2.367-1.506l-1.242-2.723l-2.123-2.383h-1.825H94.22
							c0,2.073,0.634,4.096,1.816,5.799l0.05,3.593c0.016,1.195,1.178,2.037,2.319,1.682l1.065-0.332l1.128,1.623
							c1.999,2.878,6.084,3.316,8.648,0.929l2.793,2.849l4.85-6.896l-1.438-0.94l-2.966-1.939
							C112.974,312.487,113.63,311.699,113.634,310.828z"/>
					</g>
					<path style="fill:#EBA58E;" d="M110.268,311.637c-0.07-0.395,0.049-0.819,0.315-1.119c0.201-0.227,0.524-0.385,0.807-0.277
						c0.169,0.064,0.295,0.216,0.357,0.386c0.062,0.17,0.065,0.356,0.04,0.535c-0.063,0.445-0.321,0.908-0.693,1.17
						C110.651,312.644,110.336,312.014,110.268,311.637z"/>
					<g>
						<polygon style="fill:#422C4F;" points="116.843,306.841 103.884,306.841 105.389,308.531 						"/>
						<path style="fill:#EBA58E;" d="M103.884,306.841h-1.825H94.22c0,1.115,0.189,2.213,0.543,3.257l10.626-1.568L103.884,306.841z
							"/>
					</g>
					<polygon style="fill:#422C4F;" points="109.246,320.136 112.449,316.133 110.777,321.697 					"/>
					<path style="fill:#FFFFFF;" d="M96.055,313.983l11.588-2.358c0,0,2.296,5.718,1.604,8.511c0,0-2.914,2.759-7.979,1.561
						C96.286,320.518,95.429,316.133,96.055,313.983z"/>
					<polygon style="fill:#FFFFFF;" points="108.615,310.995 107.147,311.726 107.147,312.911 108.715,311.983 					"/>
					<path style="fill:#FFFFFF;" d="M109.161,316.812l3.883-4.396l0.544,1.138l-4.428,4.923
						C109.161,318.477,108.434,317.634,109.161,316.812z"/>
				</g>
				<g>
					<g>
						<path style="fill:#816A61;" d="M148.067,451.181H91.115c-2.11,0-4.16-0.751-5.772-2.113l-4.156-3.516
							c-0.377-0.319-0.424-0.883-0.105-1.26c0.319-0.377,0.882-0.423,1.26-0.105l4.156,3.516c1.289,1.09,2.929,1.691,4.617,1.691
							h56.952c1.463,0,2.871-0.44,4.073-1.274l4.487-3.11c0.406-0.282,0.962-0.18,1.244,0.225c0.282,0.406,0.18,0.963-0.225,1.244
							l-4.487,3.11C151.656,450.63,149.895,451.181,148.067,451.181z"/>
					</g>
					<g>
						<g>
							<g>
								<path style="fill:#C7D2D7;" d="M101.626,456.581h-5.134v-5.4h9.291l-1.71,3.815
									C103.641,455.961,102.683,456.581,101.626,456.581z"/>
								<polygon style="fill:#99A3B0;" points="105.783,451.181 96.492,451.181 96.492,453.881 104.573,453.881 								"/>
							</g>
							<path style="fill:#6A3649;" d="M99.602,456.581c0,2.118-1.717,3.836-3.836,3.836s-3.836-1.717-3.836-3.836
								c0-2.118,1.717-3.836,3.836-3.836S99.602,454.463,99.602,456.581z"/>
							<path style="fill:#422C4F;" d="M97.999,456.581c0,1.233-1,2.233-2.233,2.233c-1.233,0-2.233-1-2.233-2.233
								c0-1.233,1-2.233,2.233-2.233C96.999,454.348,97.999,455.348,97.999,456.581z"/>
						</g>
						<g>
							<g>
								<path style="fill:#C7D2D7;" d="M137.274,456.581h5.134v-5.4h-9.291l1.71,3.815
									C135.259,455.961,136.217,456.581,137.274,456.581z"/>
								<polygon style="fill:#99A3B0;" points="133.117,451.181 142.408,451.181 142.408,453.881 134.327,453.881 								"/>
							</g>
							<path style="fill:#6A3649;" d="M139.299,456.581c0,2.118,1.717,3.836,3.836,3.836s3.836-1.717,3.836-3.836
								c0-2.118-1.717-3.836-3.836-3.836S139.299,454.463,139.299,456.581z"/>
							<path style="fill:#422C4F;" d="M140.901,456.581c0,1.233,1,2.233,2.233,2.233c1.233,0,2.233-1,2.233-2.233
								c0-1.233-1-2.233-2.233-2.233C141.901,454.348,140.901,455.348,140.901,456.581z"/>
						</g>
					</g>
				</g>
			</g>
		</g>
		<g>
			<g>
				<rect x="432.321" y="316.424" style="fill:#422C4F;" width="5.301" height="88.522"/>
				<rect x="427.404" y="370.568" style="fill:#422C4F;" width="15.135" height="4.025"/>
			</g>
			<g>
				<rect x="307.591" y="316.424" style="fill:#422C4F;" width="5.301" height="88.522"/>
				<rect x="302.675" y="370.568" style="fill:#422C4F;" width="15.135" height="4.025"/>
			</g>
			<path style="fill:#BA7538;" d="M450.655,370.568H294.122c-0.781,0-1.413-0.633-1.413-1.413v-5.306
				c0-0.781,0.633-1.413,1.413-1.413h156.533c0.781,0,1.413,0.633,1.413,1.413v5.306
				C452.068,369.935,451.436,370.568,450.655,370.568z"/>
			<g>
				<path style="fill:#CC8F4E;" d="M450.655,334.972H294.122c-0.781,0-1.413-0.633-1.413-1.413v-9.71
					c0-0.781,0.633-1.414,1.413-1.414h156.533c0.781,0,1.413,0.633,1.413,1.414v9.71
					C452.068,334.339,451.436,334.972,450.655,334.972z"/>
			</g>
			<g>
				<path style="fill:#CC8F4E;" d="M450.655,350.268H294.122c-0.781,0-1.413-0.633-1.413-1.413v-9.71
					c0-0.781,0.633-1.414,1.413-1.414h156.533c0.781,0,1.413,0.633,1.413,1.414v9.71
					C452.068,349.635,451.436,350.268,450.655,350.268z"/>
			</g>
		</g>
		<g>
			<ellipse style="fill:#CCB697;" cx="654.699" cy="448.24" rx="52.277" ry="4.094"/>
			<g>
				<g>
					<g>
						<g>
							<polygon style="fill:#8C404C;" points="602.998,386.36 604.488,387.387 598.101,404.018 595.554,403.679 							"/>
							<path style="fill:#454F6B;" d="M610.982,391.863c-1.249,1.992,0.067,4.828,0.067,4.828l-5.805,3.241
								c-0.754,0.421-1.391,1.024-1.852,1.754c-1.057,1.674-2.977,2.597-4.944,2.379l-0.347-0.046l6.387-16.63L610.982,391.863z"/>
						</g>
						<g>
							<path style="fill:#BD6C67;" d="M610.982,391.863c7.562,2.093,18.905-2.464,27.615,3.714
								c0.405-5.266,2.127-14.587,2.127-14.587l17.279,7.733l-8.298,15.811c-1.715,3.268-5.602,4.74-9.051,3.426l-29.604-11.27
								C611.049,396.691,609.733,393.855,610.982,391.863z"/>
							<g>
								<path style="fill:#422C4F;" d="M640.723,380.99l17.279,7.733l-4.244,8.088l-13.963-10.393
									C640.282,383.377,640.723,380.99,640.723,380.99z"/>
								<path style="fill:#FFFFFF;" d="M632.264,392.814c-2.607,2.768-4.149,6.527-4.269,10.327l-2.305-0.878
									c0.187-3.628,1.663-7.192,4.118-9.87C630.633,392.492,631.452,392.631,632.264,392.814z"/>
								<path style="fill:#8C404C;" d="M629.808,392.395c-2.455,2.677-3.931,6.242-4.118,9.87l-2.301-0.876
									c0.24-3.356,1.577-6.636,3.767-9.189C628.042,392.23,628.928,392.29,629.808,392.395z"/>
								<path style="fill:#FFFFFF;" d="M610.982,391.863c4.502,1.246,10.345,0.135,16.174,0.336
									c-2.19,2.553-3.527,5.833-3.767,9.189l-12.34-4.698C611.049,396.691,609.733,393.855,610.982,391.863z"/>
							</g>
						</g>
					</g>
					<polygon style="fill:#422C4F;" points="640.926,374.106 639.103,382.917 660.114,390.85 660.562,380.336 					"/>
				</g>
				<g>
					<path style="fill:#8C404C;" d="M705.878,335.547c-2.363,4.024-7.325,5.503-7.325,5.503l-4.321-2.863l3.764-6.769
						L705.878,335.547z"/>
					<path style="fill:#A64F5A;" d="M698.031,329.259l0.117-0.198l7.731,6.486l-0.501,0.366c-1.916,1.398-4.546,1.277-6.326-0.29
						l0,0C697.229,334.02,696.801,331.35,698.031,329.259z"/>
					<g>
						<path style="fill:#BD6C67;" d="M660.355,332.312L660.355,332.312c3.139-0.704,6.408,0.407,8.467,2.88l13.391,16.08
							l12.018-13.086l-0.411-4.011c-0.08-0.782,0.244-1.552,0.859-2.041l0,0c0.932-0.741,2.276-0.65,3.1,0.209l3.272,3.412l0,0
							c-0.908,0.565-2.059,0.559-2.96-0.017l-0.821-0.524c2.093,2.431,1.688,4.848,1.283,5.834l-12.36,16.906
							c-1.697,2.321-5.027,2.67-7.168,0.752l-13.56-12.149L660.355,332.312z"/>
						<path style="fill:#A64F5A;" d="M661.769,336.256l4.111,2.196l4.779,7.131c1.235,1.843,1.514,4.166,0.749,6.249l-0.015,0.039
							l-5.93-5.313L661.769,336.256z"/>
					</g>
				</g>
				<g>
					<path style="fill:#422C4F;" d="M629.164,318.415c-0.623,0.315-0.589,1.226,0.063,1.479c0.93,0.361,1.945,0.545,2.942,0.643
						c4.306,0.424,8.74-0.568,12.456-2.785c4.679-2.792,8.189-7.508,9.395-12.843c0.307-1.359,0.083-2.822-0.733-3.952
						c-1.473-2.042-4.159-3.013-6.665-2.762c-2.511,0.251-4.824,1.598-6.603,3.388c-1.779,1.79-3.074,4.002-4.179,6.271
						c-1.105,2.269-2.04,4.62-3.212,6.855c-0.476,0.906-1,1.806-1.736,2.517C630.496,317.607,629.843,318.071,629.164,318.415z"/>
					<path style="fill:#E68799;" d="M652.718,305.662c-0.947,1.64-0.668,3.573,0.623,4.318c1.291,0.745,3.105,0.02,4.051-1.62
						c0.947-1.64,0.668-3.573-0.623-4.319C655.478,303.297,653.665,304.022,652.718,305.662z"/>
					<path style="fill:#422C4F;" d="M672.76,309.761c0.706-1.259,0.936-2.57,0.37-3.898c-0.566-1.328-1.621-2.406-2.83-3.194
						c-2.706-1.765-6.238-2.125-9.304-1.105c-3.065,1.02-5.634,3.358-7.096,6.239c-1.462,2.881-1.84,6.266-1.226,9.438
						c0.298,1.536,0.847,3.074,1.909,4.223c1.062,1.149,2.716,1.84,4.23,1.442c3.095-0.814,6.19-2.167,8.377-4.502
						S671.195,312.552,672.76,309.761z"/>
					<path style="fill:#BD6C67;" d="M672.76,309.761l0.23,0.888c0.492,1.898,0.502,3.889,0.03,5.793l-0.26,1.05l0.044,2.159
						c0.215,0.721-0.359,1.434-1.109,1.378l-0.151,1.358l-0.518,2.141c-0.559,2.307-2.96,3.653-5.22,2.925l-1.891-0.609
						l-2.701,4.962l-6.516-3.477l3.595-6.279c-0.581-0.667-1.317-1.45-1.671-2.262c-0.354-0.811-0.453-1.777-0.061-2.571
						c0.437-0.884,1.447-1.412,2.432-1.385c0.985,0.027,1.918,0.56,2.547,1.319c0.628,0.759,0.971,1.726,1.096,2.704
						c0.347-0.848,0.523-1.871,0.345-2.77c2.096-1.309,3.462-4.02,2.972-6.442C668.046,309.836,670.519,309.761,672.76,309.761z"/>
					<polygon style="fill:#422C4F;" points="663.916,326.844 659.831,325.223 662.709,329.061 					"/>
					<path style="fill:#A64F5A;" d="M659.906,318.075c-0.272-0.282-0.711-0.419-1.073-0.269c-0.331,0.138-0.539,0.485-0.594,0.839
						c-0.072,0.466,0.097,0.962,0.439,1.287c0.341,0.324,1.183,0.663,1.505,0.135C660.516,319.522,660.334,318.519,659.906,318.075z
						"/>
					<path style="fill:#FFFFFF;" d="M663.647,318.482h9.409c0,0,0.248,4.018-1.52,7.339c-1.768,3.322-6.454,1.991-7.62,1.022
						C662.75,325.875,663.647,318.482,663.647,318.482z"/>
					<polygon style="fill:#FFFFFF;" points="661.571,317.745 665.696,319.043 665.321,319.929 662.418,318.837 					"/>
					<path style="fill:#FFFFFF;" d="M658.295,322.05c0,0,2.147,2.807,5.738,2.807v1.32
						C664.033,326.177,659.197,325.671,658.295,322.05z"/>
				</g>
				<g>
					<path style="fill:#EDC75E;" d="M654.699,328.329l6.516,3.477l0,0c2.025,1.845,3.618,4.115,4.666,6.646l3.129,7.562
						c0.838,2.025,0.078,4.358-1.79,5.502l0,0c-0.829,0.507-1.47,1.272-1.824,2.178l-4.518,11.568l-16.677-2.701l0.655-4.814
						c0.461-3.386,0.375-6.823-0.255-10.182l-1.859-9.918l8.008-9.79L654.699,328.329z"/>
					<path style="fill:#CC8F4E;" d="M654.699,328.329c4.22,12.288-4.627,21.901-11.513,11.694l-0.445-2.376l8.008-9.79
						L654.699,328.329z"/>
					<path style="fill:#CC8F4E;" d="M651.179,349.631c1.485-0.656,3.179-0.733,4.634-0.014c1.938,0.957,4.176,1.316,6.313,0.998
						c0.945-0.141,1.916,0.148,2.618,0.797c0.427,0.395,0.918,0.725,1.443,0.985c-0.271,0.311-0.49,0.663-0.666,1.039l-14.369-3.794
						L651.179,349.631z"/>
					<g>
						<path style="fill:#CC8F4E;" d="M646.415,340.619c-0.568,0.534-1.103,0.994-1.609,1.404c-0.547-0.559-1.089-1.214-1.62-2
							l-0.445-2.376l0.665-0.813l3.009-0.152V340.619z"/>
					</g>
				</g>
				<g>
					<path style="fill:#BD6C67;" d="M644.774,338.051l-15.597,4.456l-7.728,22.324c-0.303,0.874-0.965,1.577-1.819,1.933
						l-5.502,2.286c-0.582,0.242-1.25,0.125-1.715-0.301l-1.758-1.608c-0.407-0.372-0.196-1.05,0.351-1.125l2.322-0.318
						c0.962-2.127,3.443-2.988,5.064-2.734l2.879-21.458c0.289-2.158,1.643-4.026,3.603-4.974l19.642-9.496
						c2.371-1.146,5.135-1.147,7.507-0.002l2.677,1.293c0.922,3.073,0.608,6.46-0.593,9.435c-0.555,1.375-1.383,2.72-2.674,3.45
						c-1.163,0.658-2.638,0.732-3.861,0.193C646.348,340.868,645.073,339.354,644.774,338.051z"/>
					<path style="fill:#A64F5A;" d="M649.572,336.681c-0.889,1.415-1.956,2.75-3.157,3.939c-0.781-0.708-1.438-1.683-1.641-2.568
						l-2.033,0.581l0,0L649.572,336.681z"/>
				</g>
				<g>
					<g>
						<path style="fill:#BD6C67;" d="M650.277,386.394l13.74-14.719c8.234,6.289,14.966,14.196,18.744,19.07
							c2.157,2.784,3.499,6.11,3.908,9.608l4.389,37.556l-0.139,0.051c-1.599,0.581-3.34,0.64-4.974,0.167l-0.288-0.083
							c-2.431-12.221-11.073-17.217-13.098-36.932C664.186,394.766,650.277,386.394,650.277,386.394z"/>
						<g>
							<path style="fill:#8C404C;" d="M688.942,419.802l0.308,2.64c-3.142,0.829-6.399,1.224-9.65,1.175
								c-0.436-0.82-0.873-1.661-1.306-2.53C681.882,421.197,685.485,420.764,688.942,419.802z"/>
							<path style="fill:#FFFFFF;" d="M689.25,422.442l1.808,15.468l-0.139,0.051c-1.599,0.581-3.34,0.64-4.974,0.167l-0.288-0.083
								c-1.119-5.626-3.555-9.723-6.056-14.428C682.851,423.666,686.108,423.271,689.25,422.442z"/>
							<path style="fill:#422C4F;" d="M660.422,383.828c0,1.403-0.516,2.756-1.448,3.803l-2.38,2.672
								c-3.674-2.319-6.316-3.91-6.316-3.91l13.74-14.719c2.082,1.59,4.068,3.285,5.934,5.007l-5.147,5.295
								C663.654,383.16,662.073,383.828,660.422,383.828z"/>
							<path style="fill:#FFFFFF;" d="M688.633,417.162l0.309,2.64c-3.457,0.962-7.06,1.395-10.648,1.285
								c-0.405-0.813-0.806-1.652-1.197-2.526C680.985,418.727,684.9,418.255,688.633,417.162z"/>
						</g>
						<g>
							<path style="fill:#454F6B;" d="M690.918,437.961l0.139-0.051l4.807,3.337c0.617,0.428,1.302,0.747,2.027,0.943l0.742,0.201
								c1.989,0.538,3.609,1.979,4.374,3.892h-18.23l0.878-8.237l0.288,0.083C687.578,438.601,689.32,438.542,690.918,437.961z"/>
							<polygon style="fill:#8C404C;" points="703.751,448.24 684.509,448.24 684.779,446.282 703.008,446.282 							"/>
						</g>
					</g>
					<g>
						<g>
							<path style="fill:#8C404C;" d="M658.447,380.588L658.447,380.588c0.214,2.183-0.549,4.348-2.084,5.914l-4.262,4.348
								l-8.705-9.311c-3.974-4.25-4.416-10.707-1.06-15.46l0.221-0.314c0.554-0.784,1.014-1.631,1.37-2.522l0.274-0.684l8.876,1.438
								L658.447,380.588z"/>
							<path style="fill:#FFFFFF;" d="M657.648,380.751l-5.38-16.884l0.808,0.131l5.37,16.59c0.214,2.183-0.549,4.348-2.084,5.914
								l-4.262,4.348l-0.521-0.557l4.205-4.359C657.135,384.557,657.811,382.672,657.648,380.751z"/>
						</g>
						<path style="fill:#8C404C;" d="M660.877,365.261l8.845,8.575l-6.886,6.465c-1.237,1.161-2.938,1.689-4.615,1.431h0
							c-1.397-0.215-2.659-0.958-3.524-2.076l-0.772-0.997c-3.065-3.958-4.728-8.823-4.728-13.829v-1.461L660.877,365.261z"/>
						<path style="fill:#FFFFFF;" d="M650.007,363.501v1.329c0,4.802,1.619,9.537,4.559,13.333l0.772,0.997
							c0.741,0.958,1.81,1.587,3.007,1.771c0.236,0.036,0.476,0.055,0.715,0.055c1.202,0,2.347-0.453,3.223-1.276l6.898-6.4
							l0.542,0.525l-6.886,6.465c-1.237,1.161-2.938,1.689-4.615,1.431c-1.397-0.215-2.659-0.958-3.524-2.076l-0.772-0.997
							c-3.065-3.958-4.728-8.823-4.728-13.829v-1.461L650.007,363.501z"/>
					</g>
				</g>
			</g>
		</g>
		<g>
			<path style="fill:#CCB697;" d="M578.685,466.29c0,2.452-41.579,4.441-92.868,4.441c-51.29,0-92.868-1.988-92.868-4.441
				c0-2.453,41.579-4.441,92.868-4.441C537.106,461.849,578.685,463.838,578.685,466.29z"/>
			<g>
				<path style="fill:#6A6E72;" d="M457.59,429.598h15.676c0.984,0,1.782,0.797,1.782,1.781l0,0c0,0.984-0.798,1.781-1.782,1.781
					H457.59c-0.984,0-1.782-0.797-1.782-1.781l0,0C455.809,430.395,456.606,429.598,457.59,429.598z"/>
				<g>
					<path style="fill:#ECB39B;" d="M472.995,421.181l-1.98,5.697c-0.308,0.71-1.115,1.059-1.844,0.798l0,0
						c-0.734-0.264-1.134-1.055-0.912-1.802l1.492-5.857L472.995,421.181z"/>
					<path style="fill:#422C4F;" d="M512.741,372.571l-23-4.333c-2.299,0.746-6.264,5.55-7.601,7.657
						c-8.072,12.718-13.387,45.433-13.387,45.433c1.249,1.18,2.884,1.819,5.017,1.762c0,0,17.936-30.105,21.22-34.301
						C499.149,383.475,511.204,372.086,512.741,372.571z"/>
					<path style="fill:#414848;" d="M472.093,427.996c-0.051,3.028-2.12,2.688-5.826,2.593c-4.248-0.109-6.966,0.134-6.894-0.819
						c0.066-0.888,2.321-2.768,5.911-3.693C469.594,424.968,472.127,426.024,472.093,427.996z"/>
				</g>
				
					<line style="fill:#FFFFFF;stroke:#FFFFFF;stroke-width:2;stroke-linecap:round;stroke-miterlimit:10;" x1="466.267" y1="430.59" x2="485.829" y2="425.312"/>
				<g>
					<g>
						<path style="fill:#816A61;" d="M426.552,465.361c-22.608,0-41-18.385-41-40.983c0-22.599,18.392-40.984,41-40.984
							c22.607,0,41,18.386,41,40.984C467.552,446.977,449.159,465.361,426.552,465.361z M426.552,387.819
							c-20.167,0-36.574,16.4-36.574,36.559s16.407,36.558,36.574,36.558s36.574-16.399,36.574-36.558
							S446.719,387.819,426.552,387.819z"/>
					</g>
					<g>
						<path style="fill:#F1F1FA;" d="M426.884,463.23c-21.432,0-38.868-17.43-38.868-38.853c0-21.424,17.436-38.853,38.868-38.853
							c21.432,0,38.868,17.43,38.868,38.853C465.752,445.801,448.316,463.23,426.884,463.23z M426.884,390.237
							c-18.833,0-34.155,15.315-34.155,34.141c0,18.824,15.322,34.14,34.155,34.14s34.155-15.316,34.155-34.14
							C461.039,405.553,445.717,390.237,426.884,390.237z"/>
					</g>
					
						<ellipse transform="matrix(0.001 -1 1 0.001 1.7336 850.4907)" style="fill:none;stroke:#FFFFFF;stroke-width:1.2003;stroke-miterlimit:10;" cx="426.552" cy="424.378" rx="29.051" ry="29.063"/>
					<path style="fill:none;stroke:#FFFFFF;stroke-width:1.2003;stroke-miterlimit:10;" d="M426.552,398.706
						c-14.184,0-25.683,11.494-25.683,25.672"/>
					<g>
						<path style="fill:#816A61;" d="M533.503,465.361c-22.607,0-41-18.385-41-40.983c0-22.599,18.393-40.984,41-40.984
							c22.608,0,41,18.386,41,40.984C574.503,446.977,556.11,465.361,533.503,465.361z M533.503,387.819
							c-20.167,0-36.574,16.4-36.574,36.559s16.407,36.558,36.574,36.558s36.574-16.399,36.574-36.558
							S553.67,387.819,533.503,387.819z"/>
					</g>
					<g>
						<path style="fill:#F1F1FA;" d="M533.479,463.23c-21.432,0-38.868-17.43-38.868-38.853c0-21.424,17.436-38.853,38.868-38.853
							c21.432,0,38.868,17.43,38.868,38.853C572.347,445.801,554.911,463.23,533.479,463.23z M533.479,390.237
							c-18.833,0-34.155,15.315-34.155,34.141c0,18.824,15.322,34.14,34.155,34.14s34.155-15.316,34.155-34.14
							C567.634,405.553,552.312,390.237,533.479,390.237z"/>
					</g>
					
						<ellipse transform="matrix(0.001 -1 1 0.001 108.571 957.4391)" style="fill:none;stroke:#FFFFFF;stroke-width:1.2003;stroke-miterlimit:10;" cx="533.503" cy="424.378" rx="29.051" ry="29.063"/>
					<path style="fill:none;stroke:#FFFFFF;stroke-width:1.2003;stroke-miterlimit:10;" d="M533.503,398.706
						c-14.184,0-25.683,11.494-25.683,25.672"/>
					<g>
						<path style="fill:#6A6E72;" d="M470.81,425.531c-0.716,0-1.297-0.581-1.297-1.297c0-23.601-19.208-42.801-42.818-42.801
							c-8.582,0-16.859,2.527-23.939,7.309c-0.593,0.4-1.4,0.245-1.8-0.349c-0.401-0.594-0.245-1.399,0.349-1.8
							c7.51-5.072,16.29-7.754,25.391-7.754c25.04,0,45.412,20.364,45.412,45.395C472.107,424.95,471.526,425.531,470.81,425.531z"
							/>
					</g>
					<g>
						<path style="fill:#6A6E72;" d="M421.782,424.378c0,2.633,2.135,4.768,4.77,4.768c2.634,0,4.77-2.135,4.77-4.768
							s-2.135-4.768-4.77-4.768C423.917,419.61,421.782,421.744,421.782,424.378z"/>
					</g>
					<g>
						<path style="fill:#6A6E72;" d="M578.311,425.531c-0.716,0-1.297-0.581-1.297-1.297c0-23.601-19.208-42.801-42.818-42.801
							c-8.581,0-16.858,2.527-23.94,7.309c-0.593,0.4-1.399,0.245-1.8-0.349c-0.401-0.594-0.245-1.399,0.349-1.8
							c7.511-5.072,16.291-7.754,25.391-7.754c25.04,0,45.412,20.364,45.412,45.395C579.608,424.95,579.027,425.531,578.311,425.531
							z"/>
					</g>
					
						<path style="fill:none;stroke:#CF88DD;stroke-width:4.3838;stroke-linecap:round;stroke-linejoin:round;stroke-miterlimit:10;" d="
						M441.603,366.365"/>
					<path style="fill:#422C4F;" d="M535.959,423.331l-26.147-48.071l3.094-8.114c0.432-1.132-0.136-2.399-1.267-2.829
						c-1.135-0.435-2.398,0.136-2.829,1.267l-8.83,23.157c-13.527-0.276-26.632-4.3-37.983-11.698l-12.899-8.47l5.264-14.438
						c0.023-0.064,0.044-0.13,0.061-0.196c0.504-1.924,0.224-3.927-0.789-5.638c-1.014-1.713-2.634-2.923-4.565-3.408l-2.302-0.578
						c-1.177-0.292-2.365,0.418-2.66,1.592c-0.295,1.175,0.418,2.365,1.592,2.66l2.302,0.578c0.786,0.197,1.446,0.69,1.859,1.389
						c0.397,0.671,0.518,1.452,0.343,2.209l-25.794,70.74c-0.414,1.138,0.171,2.396,1.309,2.811c0.248,0.09,0.501,0.133,0.751,0.133
						c0.895,0,1.735-0.552,2.06-1.441l18.61-51.039l39.862,51.768c0.02,0.026,0.046,0.043,0.066,0.068
						c0.074,0.088,0.153,0.171,0.241,0.247c0.045,0.039,0.091,0.074,0.139,0.109c0.076,0.056,0.156,0.106,0.241,0.152
						c0.06,0.033,0.119,0.064,0.182,0.091c0.03,0.013,0.056,0.031,0.086,0.043c0.063,0.024,0.127,0.035,0.191,0.053
						c0.049,0.014,0.097,0.031,0.147,0.041c0.148,0.031,0.296,0.05,0.444,0.05c0,0,0.001,0,0.001,0s0.001,0,0.001,0
						c0.206,0,0.412-0.034,0.613-0.093c0.014-0.004,0.029-0.006,0.043-0.01c0.18-0.057,0.352-0.142,0.517-0.248
						c0.03-0.019,0.059-0.037,0.088-0.057c0.024-0.017,0.05-0.029,0.073-0.047c0.133-0.102,0.248-0.219,0.351-0.344
						c0.022-0.027,0.039-0.057,0.06-0.085c0.11-0.147,0.199-0.304,0.268-0.47c0.009-0.021,0.024-0.036,0.033-0.057l16.97-44.505
						l24.353,44.771c0.398,0.73,1.15,1.145,1.928,1.145c0.354,0,0.713-0.086,1.046-0.267
						C536.144,425.725,536.537,424.394,535.959,423.331z M459.597,380.711c11.607,7.565,24.936,11.81,38.728,12.372l-10.24,26.855
						l-31.96-41.508L459.597,380.711z"/>
					<path style="fill:#B1B1B0;" d="M534.053,417.47c-0.028,0-0.056,0.004-0.084,0.004l-44.699-3.209
						c-1.192-0.259-1.877-0.244-3.279-0.235v0.058c-5.595,0.599-9.839,5.711-9.009,11.625c0.613,4.37,4.116,7.93,8.479,8.604
						c2.546,0.393,4.948-0.154,6.914-1.348c6.983-4.24,14.781-6.96,22.951-6.985l1.617-0.005c4.862-0.015,9.494,1.606,13.677,4.083
						c1.139,0.674,2.492,1.023,3.935,0.919c3.433-0.247,6.216-3.205,6.266-6.645C540.874,420.553,537.824,417.47,534.053,417.47z"/>
				</g>
				<path style="fill:#6A6E72;" d="M520.016,378.998l-22.877-2.255c-1.112,0-2.013-0.901-2.013-2.012v-0.447h24.201
					c1.493,0,2.703,1.21,2.703,2.702l0,0C522.03,378.097,521.128,378.998,520.016,378.998z"/>
				<path style="fill:#6A6E72;" d="M500.936,423.736h7.781c0.984,0,1.781,0.797,1.781,1.781l0,0c0,0.983-0.798,1.781-1.781,1.781
					h-7.781c-0.984,0-1.781-0.797-1.781-1.781l0,0C499.154,424.533,499.952,423.736,500.936,423.736z"/>
				<g>
					<g>
						<path style="fill:#6A6E72;" d="M424.192,355.754l2.248,1.78l-4.701,5.93l-2.247-1.78c-0.47-0.373-0.55-1.056-0.177-1.526
							l3.351-4.228C423.039,355.461,423.722,355.382,424.192,355.754z"/>
						<path style="fill:#422C4F;" d="M425.805,368.217c0.291,0.231,0.636,0.399,1.007,0.43c0.978,0.082,2.046,0.496,2.999,1.251
							c0.954,0.755,1.601,1.7,1.904,2.632c0.115,0.353,0.358,0.651,0.649,0.881l2.438,1.931c0.862,0.682,2.113,0.537,2.796-0.324
							l3.699-4.667c0.683-0.861,0.538-2.112-0.324-2.795l-2.438-1.931c-0.291-0.231-0.637-0.399-1.007-0.43
							c-0.978-0.082-2.046-0.496-2.999-1.251c-0.954-0.755-1.601-1.7-1.904-2.632c-0.115-0.353-0.358-0.651-0.649-0.881
							l-4.801-3.803c-0.862-0.682-2.113-0.537-2.796,0.324l-3.7,4.667c-0.683,0.861-0.538,2.112,0.324,2.795L425.805,368.217z"/>
						<g>
							<path style="fill:#6A6E72;" d="M420.694,355.675l1.713,1.357l-2.101,2.651l-1.713-1.357
								c-0.349-0.276-0.408-0.783-0.131-1.132l1.101-1.389C419.838,355.458,420.345,355.399,420.694,355.675z"/>
						</g>
					</g>
					<path style="fill:#8C404C;" d="M519.016,325.922c0.205-4.31-14.24,6.971-31.814,12.781c0,0-17.637,7.05-24.139,4.385
						c-1.563-0.641-3.363-0.161-4.436,1.144l0,0c-0.709,0.863-1.695,2.378-0.831,3.086c7.543,6.185,26.198,3.67,34.368,3.418
						C498.663,350.537,518.811,330.232,519.016,325.922z"/>
					<g>
						<path style="fill:#414848;" d="M509.375,415.058c2.664,1.442,1.565,3.212-0.385,6.364c-1.95,3.152-6.718,3.879-6.967,2.956
							c-0.582-2.158,1.923-2.015,2.508-4.164C505.7,415.919,507.64,414.119,509.375,415.058z"/>
						<path style="fill:#ECB39B;" d="M504.135,411.068l3.811,4.675c0.443,0.635,0.316,1.505-0.289,1.988h0
							c-0.61,0.486-1.493,0.412-2.013-0.17l-4.204-4.344L504.135,411.068z"/>
						<path style="fill:#454F6B;" d="M489.124,371.725l-20.229-2.272c-0.572,2.347-0.825,4.427-0.539,5.925
							c2.463,12.899,33.678,39.377,33.678,39.377c1.661-0.443,3.063-1.499,4.134-3.344c0,0-19.81-30.805-19.258-36.104
							C487.059,373.882,487.903,372.777,489.124,371.725z"/>
					</g>
					<path style="fill:#454F6B;" d="M525.314,355.695c0,0,5.774,16.75-6.479,19.728c-2.9,0.705-11.132,0.066-21.844-0.556
						c-13.014-0.756-28.636,0.512-28.636,0.512s-2.692-7.419,3.006-11.487C485.585,353.735,525.314,355.695,525.314,355.695z"/>
					<path style="fill:#ECB39B;" d="M511.238,325.381L511.238,325.381c1.825,0.052,3.347-1.385,3.398-3.21l0.309-10.902l-6.61-0.187
						l-0.309,10.902C507.975,323.809,509.413,325.33,511.238,325.381z"/>
					<path style="fill:#E8A286;" d="M508.335,311.082l6.61,0.187c0,0-3.483,2.902-3.467,4.519l-3.451,6.196L508.335,311.082z"/>
					<path style="fill:#ECB39B;" d="M505.234,318.066L505.234,318.066c3.99,0.113,9.459-3.823,9.555-7.203l0.198-6.978l-14.45-0.409
						l-0.198,6.978C500.243,313.834,503.489,318.016,505.234,318.066z"/>
					<path style="fill:#422C4F;" d="M496.057,298.742c0.559-2.821,2.844-5.099,5.665-5.666c1.569-0.315,3.076-0.127,4.386,0.434
						c1.83,0.782,3.804,1.153,5.765,0.816c0.374-0.064,0.758-0.099,1.15-0.103c3.677-0.035,6.746,2.701,7.205,6.245
						c0.174,1.349,0.594,2.635,1.213,3.846c0.726,1.421,0.993,3.115,0.599,4.896c-0.587,2.652-4.454,8.704-7.169,8.582
						c-2.338-0.106-5.223-5.701-5.266-10.186c-0.004-0.417-1.745-0.79-1.681-1.188c-0.101-0.104-0.201-0.208-0.295-0.318
						c-1.206,0.907-2.698,1.457-4.323,1.473C498.744,307.616,495.116,303.485,496.057,298.742z"/>
					<path style="fill:#8C404C;" d="M525.314,355.695c0,0,2.88-35.992-9.877-34.421c-12.757,1.571-14.488,9.498-18.24,17.415
						c-2.41,5.085,5.714,10.119,7.629,17.223c0.76,2.82,3.11,4.271,6.031,4.282C517.793,360.221,525.593,359.771,525.314,355.695z"
						/>
					<path style="fill:#ECB39B;" d="M455.576,346.954c0,0-5.366,0.946-8.844-1.435c-1.421-0.973-3.868,2.624-3.919,1.62
						c-0.075-1.478,0.606-5.077,5.847-4.195c1.836,0.309,6.929,1.513,6.929,1.513L455.576,346.954z"/>
					<path style="fill:#BD6C67;" d="M508.027,326.534c-2.542-3.488-7.192,4.209-25.438,13.156c0,0-20.915-0.947-26.615,3.163
						c-1.37,0.988-1.914,2.769-1.372,4.369l0,0c0.358,1.057,1.151,1.907,2.182,2.337c3.94,1.643,24.185,2.894,32.845-2.24
						C495.22,344.003,511.883,331.825,508.027,326.534z"/>
					<path style="fill:#E8A286;" d="M510.266,308.91c-0.043,1.511-1.288,2.701-2.782,2.659l0.155-5.471
						C509.133,306.14,510.309,307.399,510.266,308.91z"/>
					<path style="fill:#FFFFFF;" d="M510.627,312.591c-0.605,1.643-2.328,1.938-3.289,1.971c0.05-1.532-0.296-2.936-0.502-3.621
						l0.599-0.443v-1.374l-1.531,1.282l-5.565-0.907c-2.623,10.643,5.612,8.944,5.612,8.944c0.636-0.714,1.004-1.55,1.201-2.405
						l0.001,0.004c2.743,0.3,4.022-2.181,4.022-2.181L510.627,312.591z"/>
				</g>
				<g>
					<path style="fill:#FBF2FF;" d="M443.823,377.486h-20.374c-0.335,0-0.639-0.198-0.774-0.504l-9.738-22.082
						c-0.115-0.262-0.09-0.564,0.066-0.803c0.155-0.24,0.422-0.384,0.708-0.384h36.109c0.467,0,0.846,0.379,0.846,0.846
						c0,0.467-0.379,0.846-0.846,0.846h-34.812L424,375.795h19.823c0.467,0,0.846,0.379,0.846,0.846
						C444.669,377.108,444.29,377.486,443.823,377.486z"/>
				</g>
				<g>
					<path style="fill:#FBF2FF;" d="M449.198,362.549h-31.84c-0.467,0-0.846-0.379-0.846-0.846c0-0.467,0.379-0.846,0.846-0.846
						h31.84c0.467,0,0.846,0.379,0.846,0.846C450.044,362.17,449.665,362.549,449.198,362.549z"/>
				</g>
				<g>
					<path style="fill:#FBF2FF;" d="M445.977,370.45h-25.135c-0.467,0-0.846-0.379-0.846-0.846c0-0.467,0.379-0.846,0.846-0.846
						h25.135c0.467,0,0.846,0.379,0.846,0.846C446.823,370.071,446.444,370.45,445.977,370.45z"/>
				</g>
				<g>
					<path style="fill:#FBF2FF;" d="M427.388,377.486c-0.383,0-0.731-0.263-0.823-0.652l-5.188-22.082
						c-0.107-0.455,0.176-0.909,0.63-1.016c0.457-0.107,0.911,0.175,1.018,0.63l5.188,22.082c0.107,0.455-0.176,0.91-0.63,1.016
						C427.518,377.479,427.452,377.486,427.388,377.486z"/>
				</g>
				<g>
					<path style="fill:#FBF2FF;" d="M440.878,377.486c-0.011,0-0.022,0-0.034-0.001c-0.466-0.018-0.831-0.411-0.812-0.878
						l0.849-22.082c0.017-0.467,0.413-0.838,0.877-0.813c0.467,0.018,0.832,0.411,0.813,0.878l-0.849,22.082
						C441.706,377.129,441.33,377.486,440.878,377.486z"/>
				</g>
				<g>
					<path style="fill:#FBF2FF;" d="M434.56,377.486c-0.42,0-0.784-0.312-0.838-0.739l-2.797-22.082
						c-0.058-0.464,0.27-0.886,0.734-0.945c0.458-0.056,0.887,0.27,0.945,0.733l2.797,22.082c0.058,0.464-0.27,0.886-0.734,0.945
						C434.632,377.484,434.596,377.486,434.56,377.486z"/>
				</g>
			</g>
		</g>
	</g>
</g>
</svg>
