<?xml version="1.0" encoding="UTF-8" standalone="no"?>
<!-- Generator: Adobe Illustrator 27.5.0, SVG Export Plug-In . SVG Version: 6.00 Build 0)  -->

<svg
   version="1.1"
   x="0px"
   y="0px"
   viewBox="0 0 2475 1650"
   style="enable-background:new 0 0 2475 1650;"
   xml:space="preserve"
   id="svg317"
   sodipodi:docname="business.svg"
   inkscape:version="1.4 (86a8ad7, 2024-10-11)"
   xmlns:inkscape="http://www.inkscape.org/namespaces/inkscape"
   xmlns:sodipodi="http://sodipodi.sourceforge.net/DTD/sodipodi-0.dtd"
   xmlns:xlink="http://www.w3.org/1999/xlink"
   xmlns="http://www.w3.org/2000/svg"
   xmlns:svg="http://www.w3.org/2000/svg"><defs
   id="defs317">
	

		<linearGradient
   id="SVGID_1_"
   gradientUnits="userSpaceOnUse"
   x1="2.5112"
   y1="1868.3187"
   x2="2303.8733"
   y2="197.0912">
			<stop
   offset="0"
   style="stop-color:#DAE3FE"
   id="stop1" />
			<stop
   offset="1"
   style="stop-color:#E9EFFD"
   id="stop2" />
		</linearGradient>
		
		
		
		
		
		
		
		
		
		
		
		
		
		
		
		
	
			
			
		
			
			
		
			
			
		
			
				<linearGradient
   id="SVGID_00000084503072034981097490000009635855022153350835_"
   gradientUnits="userSpaceOnUse"
   x1="1270.1652"
   y1="668.36609"
   x2="1247.1715"
   y2="820.12488">
				<stop
   offset="0"
   style="stop-color:#2B3582"
   id="stop49" />
				<stop
   offset="1"
   style="stop-color:#150E42"
   id="stop50" />
			</linearGradient>
			
			
			
				<linearGradient
   id="SVGID_00000036957790098082537080000008132857516614329761_"
   gradientUnits="userSpaceOnUse"
   x1="1264.7539"
   y1="601.34778"
   x2="1268.7542"
   y2="319.3479">
				<stop
   offset="0"
   style="stop-color:#FE7062"
   id="stop59" />
				<stop
   offset="1"
   style="stop-color:#FF928E"
   id="stop60" />
			</linearGradient>
			
			
				<linearGradient
   id="SVGID_00000057140527753690310530000015299277714051498684_"
   gradientUnits="userSpaceOnUse"
   x1="1295.0721"
   y1="536.03717"
   x2="1306.0823"
   y2="885.86072"
   gradientTransform="matrix(2.8976596,0,0,1.1751079,-2439.7326,-119.04673)">
				<stop
   offset="0"
   style="stop-color:#E1473D"
   id="stop61" />
				<stop
   offset="1"
   style="stop-color:#E9605A"
   id="stop62" />
			</linearGradient>
			
			
				<linearGradient
   id="SVGID_00000134245761871246710770000007767175210368561034_"
   gradientUnits="userSpaceOnUse"
   x1="1234.4222"
   y1="537.94641"
   x2="1245.4324"
   y2="887.76978"
   gradientTransform="matrix(2.8196768,0,0,1.1087801,-2273.1723,-78.114287)">
				<stop
   offset="0"
   style="stop-color:#E1473D"
   id="stop63" />
				<stop
   offset="1"
   style="stop-color:#E9605A"
   id="stop64" />
			</linearGradient>
			
			
				<linearGradient
   id="SVGID_00000057128479405042560480000017360985230409718190_"
   gradientUnits="userSpaceOnUse"
   x1="1294.9569"
   y1="295.92181"
   x2="1276.9569"
   y2="411.92181"
   gradientTransform="matrix(1.5830335,0,0,1.7022201,-742.50097,-326.64707)">
				<stop
   offset="0"
   style="stop-color:#FF928E"
   id="stop65" />
				<stop
   offset="1"
   style="stop-color:#FEB3B1"
   id="stop66" />
			</linearGradient>
			
			
				<linearGradient
   id="SVGID_00000106825777374857886800000013693568078980351412_"
   gradientUnits="userSpaceOnUse"
   x1="1358.3796"
   y1="209.0502"
   x2="1360.3796"
   y2="301.0499"
   gradientTransform="matrix(2.4794397,0,0,1.6847873,-2034.4759,-356.51387)">
				<stop
   offset="0"
   style="stop-color:#FF928E"
   id="stop67" />
				<stop
   offset="1"
   style="stop-color:#FEB3B1"
   id="stop68" />
			</linearGradient>
			
			
				<linearGradient
   id="SVGID_00000004534174934213855950000008978987315332997772_"
   gradientUnits="userSpaceOnUse"
   x1="1382.5168"
   y1="208.5253"
   x2="1384.5168"
   y2="300.5253"
   gradientTransform="matrix(3.620908,0,0,1,-3658.9711,4.1130183)">
				<stop
   offset="0"
   style="stop-color:#FF928E"
   id="stop69" />
				<stop
   offset="1"
   style="stop-color:#FEB3B1"
   id="stop70" />
			</linearGradient>
			
		
			
			
		
			
			
		
			
			
		
			
			
		
			
			
				<linearGradient
   id="SVGID_00000017489370923274530150000011556007043496162969_"
   gradientUnits="userSpaceOnUse"
   x1="478.96329"
   y1="1258.4116"
   x2="1078.0145"
   y2="1258.4116">
				<stop
   offset="0"
   style="stop-color:#09005D"
   id="stop218" />
				<stop
   offset="1"
   style="stop-color:#1A0F91"
   id="stop219" />
			</linearGradient>
			
			
				<linearGradient
   id="SVGID_00000090986182823677229440000001084552839929589133_"
   gradientUnits="userSpaceOnUse"
   x1="970.87042"
   y1="1369.9202"
   x2="311.3157"
   y2="970.09723">
				<stop
   offset="0"
   style="stop-color:#4042E2"
   id="stop220" />
				<stop
   offset="1"
   style="stop-color:#4F52FF"
   id="stop221" />
			</linearGradient>
			
			
				<linearGradient
   id="SVGID_00000105407052009562360030000012722698300347804821_"
   gradientUnits="userSpaceOnUse"
   x1="1396.9847"
   y1="1258.4116"
   x2="1996.0361"
   y2="1258.4116">
				<stop
   offset="0"
   style="stop-color:#09005D"
   id="stop222" />
				<stop
   offset="1"
   style="stop-color:#1A0F91"
   id="stop223" />
			</linearGradient>
			
			
				<linearGradient
   id="SVGID_00000057114356259021840860000009248652308668305293_"
   gradientUnits="userSpaceOnUse"
   x1="1763.0033"
   y1="1113.0383"
   x2="1591.9865"
   y2="1428.0698">
				<stop
   offset="0"
   style="stop-color:#FE7062"
   id="stop224" />
				<stop
   offset="1"
   style="stop-color:#FF928E"
   id="stop225" />
			</linearGradient>
			
			
				<linearGradient
   id="SVGID_00000021802368156317702970000008101025632159694248_"
   gradientUnits="userSpaceOnUse"
   x1="1018.2654"
   y1="1041.9314"
   x2="918.05377"
   y2="1144.1881">
				<stop
   offset="0"
   style="stop-color:#FE7062"
   id="stop226" />
				<stop
   offset="1"
   style="stop-color:#FF928E"
   id="stop227" />
			</linearGradient>
			
			
				<linearGradient
   id="SVGID_00000173161704740309561750000005761729524961419423_"
   gradientUnits="userSpaceOnUse"
   x1="930.93817"
   y1="1209.5204"
   x2="1226.4232"
   y2="1040.0287">
				<stop
   offset="0"
   style="stop-color:#FF928E"
   id="stop228" />
				<stop
   offset="1"
   style="stop-color:#FEB3B1"
   id="stop229" />
			</linearGradient>
			
			
				<linearGradient
   id="SVGID_00000085230892679125913470000011745152224639571366_"
   gradientUnits="userSpaceOnUse"
   x1="929.14868"
   y1="1206.3999"
   x2="1224.6338"
   y2="1036.9082">
				<stop
   offset="0"
   style="stop-color:#FF928E"
   id="stop230" />
				<stop
   offset="1"
   style="stop-color:#FEB3B1"
   id="stop231" />
			</linearGradient>
			
			
				<linearGradient
   id="SVGID_00000008846340580799519290000003271235107219959692_"
   gradientUnits="userSpaceOnUse"
   x1="936.15039"
   y1="1218.6071"
   x2="1231.635"
   y2="1049.1156">
				<stop
   offset="0"
   style="stop-color:#FF928E"
   id="stop232" />
				<stop
   offset="1"
   style="stop-color:#FEB3B1"
   id="stop233" />
			</linearGradient>
			
			
				<linearGradient
   id="SVGID_00000120527284525274960560000010172672305015202184_"
   gradientUnits="userSpaceOnUse"
   x1="1038.1124"
   y1="968.81012"
   x2="504.3613"
   y2="1672.8097">
				<stop
   offset="0"
   style="stop-color:#FE7062"
   id="stop234" />
				<stop
   offset="1"
   style="stop-color:#FF928E"
   id="stop235" />
			</linearGradient>
			
			
				<linearGradient
   id="SVGID_00000031193485939759318770000018168492009961220251_"
   gradientUnits="userSpaceOnUse"
   x1="941.49371"
   y1="944.44983"
   x2="891.99609"
   y2="1038.9451">
				<stop
   offset="0"
   style="stop-color:#FF928E"
   id="stop236" />
				<stop
   offset="1"
   style="stop-color:#FEB3B1"
   id="stop237" />
			</linearGradient>
			
			
				<linearGradient
   id="SVGID_00000027575385243191882780000005793273320889618561_"
   gradientUnits="userSpaceOnUse"
   x1="901.76459"
   y1="1114.4691"
   x2="1114.7538"
   y2="1256.962">
				<stop
   offset="0"
   style="stop-color:#FF928E"
   id="stop238" />
				<stop
   offset="1"
   style="stop-color:#FEB3B1"
   id="stop239" />
			</linearGradient>
			
			
				<linearGradient
   id="SVGID_00000094602416737508155760000017072534176769246113_"
   gradientUnits="userSpaceOnUse"
   x1="825.78717"
   y1="1164.3367"
   x2="897.68408"
   y2="1164.3367">
				<stop
   offset="0"
   style="stop-color:#E1473D"
   id="stop240" />
				<stop
   offset="1"
   style="stop-color:#E9605A"
   id="stop241" />
			</linearGradient>
			
			
				<linearGradient
   id="SVGID_00000056409089313720307710000012741857743859726483_"
   gradientUnits="userSpaceOnUse"
   x1="843.02759"
   y1="1085.2041"
   x2="966.08539"
   y2="1085.2041">
				<stop
   offset="0"
   style="stop-color:#E1473D"
   id="stop242" />
				<stop
   offset="1"
   style="stop-color:#E9605A"
   id="stop243" />
			</linearGradient>
			
			
			
				<linearGradient
   id="SVGID_00000053531663720071630060000003069295160425514130_"
   gradientUnits="userSpaceOnUse"
   x1="1167.5087"
   y1="1265.532"
   x2="1277.5084"
   y2="1210.532">
				<stop
   offset="0"
   style="stop-color:#FF928E"
   id="stop248" />
				<stop
   offset="1"
   style="stop-color:#FEB3B1"
   id="stop249" />
			</linearGradient>
			
			
				<linearGradient
   id="SVGID_00000177468693117484908280000002266494709384881325_"
   gradientUnits="userSpaceOnUse"
   x1="1673.4303"
   y1="788.51489"
   x2="1643.427"
   y2="1151.5514">
				<stop
   offset="0"
   style="stop-color:#09005D"
   id="stop250" />
				<stop
   offset="1"
   style="stop-color:#1A0F91"
   id="stop251" />
			</linearGradient>
			
			
				<linearGradient
   id="SVGID_00000013892553623669356040000008003346858890303653_"
   gradientUnits="userSpaceOnUse"
   x1="1568.0277"
   y1="974.86591"
   x2="1592.0277"
   y2="1086.8656">
				<stop
   offset="0"
   style="stop-color:#FF928E"
   id="stop252" />
				<stop
   offset="1"
   style="stop-color:#FEB3B1"
   id="stop253" />
			</linearGradient>
			
			
			
				<linearGradient
   id="SVGID_00000147907875611729034290000000044836612947147451_"
   gradientUnits="userSpaceOnUse"
   x1="1763.0018"
   y1="795.91638"
   x2="1732.9985"
   y2="1158.9526">
				<stop
   offset="0"
   style="stop-color:#09005D"
   id="stop257" />
				<stop
   offset="1"
   style="stop-color:#1A0F91"
   id="stop258" />
			</linearGradient>
			
			
				<linearGradient
   id="SVGID_00000028314023531823713950000010518125706939698573_"
   gradientUnits="userSpaceOnUse"
   x1="1629.2119"
   y1="1157.6566"
   x2="1760.2219"
   y2="1227.403"
   gradientTransform="translate(212.50595,-47.985213)">
				<stop
   offset="0"
   style="stop-color:#4042E2"
   id="stop259" />
				<stop
   offset="1"
   style="stop-color:#4F52FF"
   id="stop260" />
			</linearGradient>
			
			
				<linearGradient
   id="SVGID_00000124858045267210082630000005921340472037854854_"
   gradientUnits="userSpaceOnUse"
   x1="1847.7339"
   y1="1136.3247"
   x2="1748.0339"
   y2="1328.0555">
				<stop
   offset="0"
   style="stop-color:#FF928E"
   id="stop261" />
				<stop
   offset="1"
   style="stop-color:#FEB3B1"
   id="stop262" />
			</linearGradient>
			
			
			
				<linearGradient
   id="SVGID_00000174579523833495445110000010452957132421299598_"
   gradientUnits="userSpaceOnUse"
   x1="929.66937"
   y1="1376.8052"
   x2="933.75928"
   y2="1578.2324">
				<stop
   offset="0"
   style="stop-color:#09005D"
   id="stop269" />
				<stop
   offset="1"
   style="stop-color:#1A0F91"
   id="stop270" />
			</linearGradient>
			
			
				<linearGradient
   id="SVGID_00000002370790314870551010000007257016243663704506_"
   gradientUnits="userSpaceOnUse"
   x1="1541.5686"
   y1="1364.3812"
   x2="1545.6588"
   y2="1565.826">
				<stop
   offset="0"
   style="stop-color:#09005D"
   id="stop271" />
				<stop
   offset="1"
   style="stop-color:#1A0F91"
   id="stop272" />
			</linearGradient>
			
		
			
			
		
			
			
		
			
			
		
			
				<linearGradient
   id="SVGID_00000114045103689855727170000006060586540957886895_"
   gradientUnits="userSpaceOnUse"
   x1="663.53967"
   y1="1404.2155"
   x2="943.08722"
   y2="1029.2133">
				<stop
   offset="0"
   style="stop-color:#09005D"
   id="stop21" />
				<stop
   offset="1"
   style="stop-color:#1A0F91"
   id="stop22" />
			</linearGradient>
			
			
				<linearGradient
   id="SVGID_00000089550538983100787350000007484853425123879091_"
   gradientUnits="userSpaceOnUse"
   x1="1134.3285"
   y1="497.34061"
   x2="1643.1677"
   y2="1403.5958">
				<stop
   offset="0"
   style="stop-color:#4042E2"
   id="stop23" />
				<stop
   offset="1"
   style="stop-color:#4F52FF"
   id="stop24" />
			</linearGradient>
			
			
				<linearGradient
   id="SVGID_00000088125502235487418580000015266621248584253609_"
   gradientUnits="userSpaceOnUse"
   x1="2094.4937"
   y1="613.29468"
   x2="1576.2809"
   y2="829.21698">
				<stop
   offset="0"
   style="stop-color:#09005D"
   id="stop25" />
				<stop
   offset="1"
   style="stop-color:#1A0F91"
   id="stop26" />
			</linearGradient>
			
				
			
				<linearGradient
   id="SVGID_00000152956603976617430860000006194906782493587335_"
   gradientUnits="userSpaceOnUse"
   x1="1642.5621"
   y1="1461.3627"
   x2="1666.3866"
   y2="739.8374">
				<stop
   offset="0"
   style="stop-color:#4042E2"
   id="stop27" />
				<stop
   offset="1"
   style="stop-color:#4F52FF"
   id="stop28" />
			</linearGradient>
			
			
			
				<linearGradient
   id="SVGID_00000096020908277163644350000004983847241633980348_"
   gradientUnits="userSpaceOnUse"
   x1="781.26202"
   y1="977.04059"
   x2="760.80688"
   y2="462.26291">
				<stop
   offset="0"
   style="stop-color:#09005D"
   id="stop31" />
				<stop
   offset="1"
   style="stop-color:#1A0F91"
   id="stop32" />
			</linearGradient>
			
			
			
			
			
			
		
			
			
		
			
			
		
				
				
				
					<linearGradient
   id="SVGID_00000039842051664431701190000007933761941295989904_"
   gradientUnits="userSpaceOnUse"
   x1="1748.8514"
   y1="1257.2629"
   x2="1814.2957"
   y2="1550.7386"
   gradientTransform="translate(0,2.9694477)">
					<stop
   offset="0"
   style="stop-color:#4042E2"
   id="stop255" />
					<stop
   offset="1"
   style="stop-color:#4F52FF"
   id="stop256" />
				</linearGradient>
				
			</defs><sodipodi:namedview
   id="namedview317"
   pagecolor="#ffffff"
   bordercolor="#111111"
   borderopacity="1"
   inkscape:showpageshadow="0"
   inkscape:pageopacity="0"
   inkscape:pagecheckerboard="1"
   inkscape:deskcolor="#d1d1d1"
   inkscape:zoom="0.51575758"
   inkscape:cx="1004.3478"
   inkscape:cy="731.93302"
   inkscape:window-width="1920"
   inkscape:window-height="1111"
   inkscape:window-x="-9"
   inkscape:window-y="122"
   inkscape:window-maximized="1"
   inkscape:current-layer="svg317" />
<g
   id="Background">
	<rect
   style="fill:#FFFFFF;"
   width="2475"
   height="1650"
   id="rect1" />
</g>
<path
   style="fill:url(#SVGID_1_)"
   d="M 2348.032,786.987 C 2286.962,705.779 2157.528,662.269 2154.167,540.565 2151.982,461.482 2189.67,418.622 2129.362,351.116 1983.577,187.938 1758.916,168.815 1567.088,236.982 1375.325,305.127 1222.078,441.724 1008.877,433.491 892.77,429.007 784.898,376.528 669.969,366.68 c -35.406,-3.034 -68.488,-0.432 -99.424,7.115 -115.971,28.294 -218.367,134.539 -256.926,252.574 -31.257,95.684 8.678,190.141 -40.4,283.838 -52.311,99.87 -155.328,169.238 -181.283,284.538 -31.151,138.385 87.868,258.728 215.716,262.491 81.378,2.395 232.22,-9.986 301.353,-57.808 84.179,-58.228 166.912,-62.059 265.046,-59.828 186.758,4.246 373.508,44.271 557.857,72.77 157.964,24.419 313.658,60.58 473.75,65.172 117.571,3.372 217.347,4.888 280.966,-116.735 76.039,-145.367 289.5,-403.488 161.408,-573.82 z"
   id="path2" /><g
   id="g6">
				<circle
   style="opacity:0.57;fill:#ffffff"
   cx="1878.339"
   cy="804.685"
   r="314.91101"
   id="circle2" />
				<g
   id="g3">
					
						<circle
   transform="matrix(0.7071,-0.7071,0.7071,0.7071,-18.8454,1563.8727)"
   style="fill:#91b3fa"
   cx="1878.339"
   cy="804.685"
   id="ellipse2"
   r="268.76401" />
					<path
   style="fill:#ffffff"
   d="m 1878.339,1085.929 c -155.079,0 -281.244,-126.165 -281.244,-281.244 0,-155.079 126.165,-281.245 281.244,-281.245 155.078,0 281.243,126.165 281.243,281.244 0,155.079 -126.165,281.245 -281.243,281.245 z m 0,-537.529 c -141.316,0 -256.285,114.969 -256.285,256.285 0,141.316 114.969,256.285 256.285,256.285 141.315,0 256.284,-114.968 256.284,-256.285 0,-141.317 -114.969,-256.285 -256.284,-256.285 z"
   id="path3" />
				</g>
				<g
   id="g4">
					
						<circle
   transform="matrix(0.7071,-0.7071,0.7071,0.7071,-18.8453,1563.8727)"
   style="fill:#91b3fa"
   cx="1878.339"
   cy="804.685"
   id="ellipse3"
   r="163.851" />
					<path
   style="fill:#ffffff"
   d="m 1878.339,981.015 c -97.229,0 -176.332,-79.101 -176.332,-176.33 0,-97.229 79.102,-176.332 176.332,-176.332 97.229,0 176.332,79.102 176.332,176.332 0,97.23 -79.103,176.33 -176.332,176.33 z m 0,-327.702 c -83.467,0 -151.372,67.905 -151.372,151.372 0,83.467 67.906,151.371 151.372,151.371 83.466,0 151.372,-67.904 151.372,-151.371 0,-83.467 -67.906,-151.372 -151.372,-151.372 z"
   id="path4" />
				</g>
				<g
   id="g5">
					
						<linearGradient
   id="SVGID_00000141434253368445141780000017329770622100360101_"
   gradientUnits="userSpaceOnUse"
   x1="2112.4812"
   y1="493.8222"
   x2="1507.3284"
   y2="1297.2606">
						<stop
   offset="0"
   style="stop-color:#E1473D"
   id="stop4" />
						<stop
   offset="1"
   style="stop-color:#E9605A"
   id="stop5" />
					</linearGradient>
					
						<circle
   style="fill:url(#SVGID_00000141434253368445141780000017329770622100360101_)"
   cx="1878.339"
   cy="804.685"
   r="63.480999"
   id="circle5" />
					<path
   style="fill:#ffffff"
   d="m 1878.339,880.645 c -41.886,0 -75.961,-34.076 -75.961,-75.96 0,-41.886 34.076,-75.961 75.961,-75.961 41.884,0 75.96,34.076 75.96,75.961 0,41.884 -34.076,75.96 -75.96,75.96 z m 0,-126.962 c -28.123,0 -51.002,22.879 -51.002,51.002 0,28.122 22.879,51.001 51.002,51.001 28.122,0 51,-22.879 51,-51.001 0,-28.123 -22.879,-51.002 -51,-51.002 z"
   id="path5" />
				</g>
			</g><g
   id="g13">
				
					<linearGradient
   id="SVGID_00000037674797913204719980000014833810234241803659_"
   gradientUnits="userSpaceOnUse"
   x1="-1164.5088"
   y1="3512.1345"
   x2="-1260.5317"
   y2="3902.2268"
   gradientTransform="matrix(-0.7071,-0.7071,0.7071,-0.7071,-1518.9323,2437.8723)">
					<stop
   offset="0"
   style="stop-color:#09005D"
   id="stop6" />
					<stop
   offset="1"
   style="stop-color:#1A0F91"
   id="stop7" />
				</linearGradient>
				<polygon
   style="fill:url(#SVGID_00000037674797913204719980000014833810234241803659_)"
   points="1947.201,751.808 1938.713,743.321 2260.102,421.932 2268.59,430.419 "
   id="polygon7" />
				
					<linearGradient
   id="SVGID_00000176765268517398799010000000284154932155405722_"
   gradientUnits="userSpaceOnUse"
   x1="-1246.3848"
   y1="3594.1311"
   x2="-1275.7263"
   y2="3908.8887"
   gradientTransform="matrix(-0.7071,-0.7071,0.7071,-0.7071,-1518.9323,2437.8723)">
					<stop
   offset="0"
   style="stop-color:#4042E2"
   id="stop8" />
					<stop
   offset="1"
   style="stop-color:#4F52FF"
   id="stop9" />
				</linearGradient>
				<path
   style="fill:url(#SVGID_00000176765268517398799010000000284154932155405722_)"
   d="m 1944.724,722.842 c 4.869,-4.869 27.824,18.086 22.954,22.954 l -85.137,66.932 c -3.146,2.473 -7.221,-1.603 -4.748,-4.749 z"
   id="path9" />
				
					<linearGradient
   id="SVGID_00000061431216569758657570000015329034203460214146_"
   gradientUnits="userSpaceOnUse"
   x1="-1271.713"
   y1="4026.3049"
   x2="-1311.717"
   y2="4455.4424"
   gradientTransform="matrix(-0.7071,-0.7071,0.7071,-0.7071,-1518.9323,2437.8723)">
					<stop
   offset="0"
   style="stop-color:#4042E2"
   id="stop10" />
					<stop
   offset="1"
   style="stop-color:#4F52FF"
   id="stop11" />
				</linearGradient>
				<path
   style="fill:url(#SVGID_00000061431216569758657570000015329034203460214146_)"
   d="m 2268.406,430.602 43.237,4.297 -59.356,59.356 c -19.448,19.448 -46.593,29.147 -73.961,26.426 v 0 z"
   id="path11" />
				
					<linearGradient
   id="SVGID_00000119811293878991739290000008025580389711056528_"
   gradientUnits="userSpaceOnUse"
   x1="690.46167"
   y1="4026.3049"
   x2="650.45782"
   y2="4455.4424"
   gradientTransform="matrix(0.7071,0.7071,0.7071,-0.7071,-1134.8051,2821.9995)">
					<stop
   offset="0"
   style="stop-color:#4042E2"
   id="stop12" />
					<stop
   offset="1"
   style="stop-color:#4F52FF"
   id="stop13" />
				</linearGradient>
				<path
   style="fill:url(#SVGID_00000119811293878991739290000008025580389711056528_)"
   d="m 2259.919,422.115 -4.297,-43.237 -59.356,59.356 c -19.448,19.447 -29.146,46.592 -26.426,73.96 v 0 z"
   id="path13" />
			</g><path
   style="fill:#bdd0fb"
   d="m 755.054,967.805 c 0,0 124.602,-413.619 344.317,-630.158 14.77,-14.556 39.782,-7.103 44.049,13.191 28.532,135.697 74.341,544.855 -388.366,616.967 z"
   id="path14" /><path
   style="fill:#dce5fe"
   d="m 798.48,943.26 c -1.085,0.94 0.177,2.605 1.377,1.819 44.269,-28.97 217.407,-173.982 296.435,-478.949 0.254,-0.979 -1.181,-1.445 -1.519,-0.491 -24.867,70.299 -124.807,329.02 -296.293,477.621 z"
   id="path15" /><path
   style="fill:#bdd0fb"
   d="m 1667.267,1490.24 c 0,0 124.602,-413.619 344.317,-630.158 14.77,-14.556 39.782,-7.103 44.049,13.191 28.532,135.697 74.34,544.856 -388.366,616.967 z"
   id="path16" /><path
   style="fill:#dce5fe"
   d="m 1710.693,1465.696 c -1.085,0.94 0.177,2.605 1.377,1.819 44.27,-28.97 217.407,-173.982 296.435,-478.949 0.254,-0.979 -1.181,-1.445 -1.519,-0.491 -24.867,70.299 -124.808,329.019 -296.293,477.621 z"
   id="path17" /><path
   style="fill:#bdd0fb"
   d="m 836.043,1247.677 c 0,0 -167.396,-402.817 -410.231,-597.933 -16.324,-13.116 -40.691,-3.075 -42.907,17.748 -14.812,139.237 -19.071,554.966 453.138,580.185 z"
   id="path18" /><path
   style="fill:#dce5fe"
   d="m 789.911,1227.45 c 1.186,0.834 0.089,2.635 -1.198,1.968 -47.432,-24.586 -236.172,-152.598 -346.693,-450.911 -0.355,-0.958 1.039,-1.572 1.475,-0.648 32.159,68.086 158.969,317.804 346.416,449.591 z"
   id="path19" /><path
   style="fill:#bdd0fb"
   d="m 933.31,1064.582 c 0,0 -57.065,-454.561 -248.476,-719.883 -12.867,-17.835 -40.341,-14.469 -48.395,5.995 -53.856,136.84 -174.193,556.568 296.871,713.888 z"
   id="path20" /><path
   style="opacity:0.5;fill:#ffffff"
   d="m 892.247,1031.228 c 0.968,1.175 -0.646,2.693 -1.762,1.658 -41.162,-38.13 -196.532,-220.414 -225.177,-553.294 -0.092,-1.069 1.491,-1.302 1.675,-0.244 13.557,77.91 72.258,366.136 225.264,551.88 z"
   id="path21" /><path
   style="fill:url(#SVGID_00000114045103689855727170000006060586540957886895_)"
   d="m 689.953,941.144 c 0,0 127.933,337.4 168.352,407.588 46.918,81.475 183.943,29.557 177.124,-38.629 -6.818,-68.186 -166.911,-350.021 -166.911,-350.021 z"
   id="path22" /><polygon
   style="fill:url(#SVGID_00000089550538983100787350000007484853425123879091_)"
   points="1649.611,1165.737 841.084,985.334 862.814,695.365 1657.962,419.675 "
   id="polygon24" /><ellipse
   style="fill:url(#SVGID_00000088125502235487418580000015266621248584253609_)"
   cx="1658.712"
   cy="794.87097"
   rx="78.120003"
   ry="383.40701"
   id="ellipse26" /><path
   style="fill:url(#SVGID_00000152956603976617430860000006194906782493587335_)"
   d="m 1664.641,1152.058 c -7.06,-7.181 -22.442,-34.883 -35.629,-106.517 -12.745,-69.227 -19.763,-159.019 -19.763,-252.834 0,-93.816 7.018,-183.607 19.763,-252.834 13.187,-71.635 28.568,-99.337 35.629,-106.518 7.061,7.182 22.443,34.883 35.629,106.518 12.745,69.227 19.763,159.019 19.763,252.834 0,93.815 -7.018,183.607 -19.763,252.834 -13.187,71.634 -28.568,99.336 -35.629,106.517 z"
   id="path28" /><g
   id="g30">
				<defs
   id="defs28">
					<path
   id="SVGID_00000033346100296318358170000015769731481567515030_"
   d="m 1664.641,1152.058 c -7.06,-7.181 -22.442,-34.883 -35.629,-106.517 -12.745,-69.227 -19.763,-159.019 -19.763,-252.834 0,-93.816 7.018,-183.607 19.763,-252.834 13.187,-71.635 28.568,-99.337 35.629,-106.518 7.061,7.182 22.443,34.883 35.629,106.518 12.745,69.227 113.313,159.019 113.313,252.834 0,93.815 -100.568,183.607 -113.313,252.834 -13.187,71.634 -28.568,99.336 -35.629,106.517 z" />
				</defs>
				<clipPath
   id="SVGID_00000069381976980079774600000005880494682436236187_">
					<use
   xlink:href="#SVGID_00000033346100296318358170000015769731481567515030_"
   style="overflow:visible"
   id="use28" />
				</clipPath>
				
					<linearGradient
   id="SVGID_00000119821179612820774640000018089588852645181855_"
   gradientUnits="userSpaceOnUse"
   x1="1831.7861"
   y1="780.00427"
   x2="1277.2072"
   y2="811.82483">
					<stop
   offset="0"
   style="stop-color:#020039"
   id="stop29" />
					<stop
   offset="1"
   style="stop-color:#090056"
   id="stop30" />
				</linearGradient>
				
					<path
   style="fill:url(#SVGID_00000119821179612820774640000018089588852645181855_)"
   d="m 1764.77,789.851 c 0,65.145 -35.094,117.956 -104.552,117.956 -69.458,0 -125.765,-52.81 -125.765,-117.956 0,-65.146 56.307,-117.956 125.765,-117.956 69.458,10e-4 104.552,52.811 104.552,117.956 z"
   clip-path="url(#SVGID_00000069381976980079774600000005880494682436236187_)"
   id="path30" />
			</g><path
   style="fill:url(#SVGID_00000096020908277163644350000004983847241633980348_)"
   d="m 734.568,679.328 c 37.405,-4.344 91.043,-5.907 149.038,7.375 -19.107,99.81 -16.223,203.843 5.875,311.564 H 725.906 c -26.079,0 -48.317,-18.943 -52.384,-44.704 -8.152,-51.636 -18.119,-138.422 -7.492,-208.125 5.332,-34.981 33.389,-62.028 68.538,-66.11 z"
   id="path32" /><path
   style="fill:#91b3fa"
   d="m 958.503,1352.513 c -6.009,0 -12.082,-0.65 -18.142,-1.968 -26.504,-5.776 -48.084,-23.252 -59.203,-47.949 l -101.82,-226.209 c -1.173,-2.605 -0.01,-5.669 2.598,-6.845 2.602,-1.17 5.672,-0.01 6.845,2.599 l 101.821,226.205 c 9.757,21.674 28.698,37.013 51.963,42.082 22.851,4.971 45.981,-0.934 63.453,-16.218 0.954,-0.833 1.904,-1.689 2.862,-2.562 2.106,-1.935 5.379,-1.786 7.314,0.324 1.931,2.11 1.786,5.386 -0.324,7.313 -1.018,0.934 -2.029,1.837 -3.04,2.72 -15.325,13.41 -34.458,20.508 -54.327,20.508 z"
   id="path33" /><path
   style="fill:#91b3fa"
   d="m 769.008,1045.993 c -1.975,0 -3.862,-1.136 -4.725,-3.053 l -11.358,-25.237 c -1.173,-2.605 -0.01,-5.672 2.599,-6.845 2.598,-1.173 5.675,-0.01 6.845,2.599 l 11.358,25.237 c 1.173,2.605 0.01,5.672 -2.598,6.845 -0.689,0.309 -1.41,0.454 -2.121,0.454 z"
   id="path34" /><path
   style="fill:#bdd0fb"
   d="m 1746.146,788.353 c -2.689,0 -4.964,-2.083 -5.156,-4.809 -2.221,-31.324 -13.02,-54.647 -32.089,-69.317 -33.053,-25.419 -80.614,-16.72 -81.097,-16.622 -2.811,0.529 -5.521,-1.304 -6.057,-4.112 -0.536,-2.804 1.298,-5.517 4.102,-6.056 2.13,-0.408 52.503,-9.713 89.3,18.537 21.556,16.548 33.723,42.402 36.167,76.837 0.202,2.851 -1.944,5.328 -4.796,5.53 -0.124,0.008 -0.249,0.012 -0.374,0.012 z"
   id="path35" /><g
   id="g39">
				<path
   style="fill:#91b3fa"
   d="M 840.083,751.83 H 707.719 c -4.492,0 -8.457,-2.355 -10.604,-6.302 -2.146,-3.947 -1.971,-8.556 0.47,-12.327 1.022,-1.578 3.129,-2.021 4.707,-1.008 1.578,1.021 2.03,3.129 1.008,4.709 -1.064,1.644 -1.14,3.652 -0.205,5.374 0.936,1.72 2.666,2.748 4.624,2.748 h 132.363 c 2.903,0 5.264,-2.36 5.264,-5.263 v -9.42 c 0,-2.903 -2.361,-5.263 -5.264,-5.263 H 706.738 c -1.88,0 -3.404,-1.525 -3.404,-3.404 0,-1.879 1.523,-3.404 3.404,-3.404 h 133.345 c 6.656,0 12.071,5.416 12.071,12.07 v 9.42 c 0,6.654 -5.415,12.07 -12.071,12.07 z"
   id="path36" />
				<path
   style="fill:#91b3fa"
   d="M 828.28,810.451 H 695.917 c -4.493,0 -8.457,-2.356 -10.604,-6.302 -2.146,-3.946 -1.971,-8.556 0.47,-12.327 1.021,-1.575 3.13,-2.021 4.706,-1.008 1.578,1.022 2.03,3.129 1.008,4.709 -1.064,1.644 -1.14,3.652 -0.205,5.373 0.936,1.719 2.666,2.748 4.625,2.748 H 828.28 c 2.903,0 5.264,-2.36 5.264,-5.263 v -9.418 c 0,-2.903 -2.361,-5.265 -5.264,-5.265 H 694.935 c -1.88,0 -3.404,-1.524 -3.404,-3.404 0,-1.879 1.523,-3.404 3.404,-3.404 H 828.28 c 6.656,0 12.071,5.415 12.071,12.072 v 9.418 c 0,6.655 -5.415,12.071 -12.071,12.071 z"
   id="path37" />
				<path
   style="fill:#91b3fa"
   d="M 840.083,879.105 H 707.719 c -4.492,0 -8.456,-2.355 -10.603,-6.302 -2.147,-3.947 -1.972,-8.556 0.469,-12.327 1.022,-1.58 3.129,-2.025 4.707,-1.01 1.578,1.022 2.03,3.129 1.008,4.707 -1.065,1.646 -1.141,3.656 -0.204,5.378 0.936,1.72 2.665,2.748 4.623,2.748 h 132.363 c 2.903,0 5.264,-2.362 5.264,-5.265 v -9.417 c 0,-2.903 -2.361,-5.263 -5.264,-5.263 H 706.738 c -1.88,0 -3.404,-1.524 -3.404,-3.404 0,-1.879 1.523,-3.404 3.404,-3.404 h 133.345 c 6.656,0 12.071,5.415 12.071,12.07 v 9.417 c 0,6.657 -5.415,12.072 -12.071,12.072 z"
   id="path38" />
				<path
   style="fill:#91b3fa"
   d="M 852.476,955.309 H 720.113 c -4.493,0 -8.456,-2.356 -10.603,-6.302 -2.147,-3.946 -1.972,-8.555 0.469,-12.327 1.023,-1.58 3.13,-2.025 4.707,-1.01 1.578,1.021 2.03,3.129 1.008,4.706 -1.065,1.646 -1.141,3.656 -0.204,5.378 0.936,1.72 2.665,2.748 4.623,2.748 h 132.363 c 2.903,0 5.264,-2.36 5.264,-5.263 v -9.42 c 0,-2.903 -2.361,-5.263 -5.264,-5.263 H 719.131 c -1.88,0 -3.404,-1.524 -3.404,-3.404 0,-1.879 1.523,-3.404 3.404,-3.404 h 133.345 c 6.656,0 12.071,5.416 12.071,12.07 v 9.42 c 0,6.655 -5.415,12.071 -12.071,12.071 z"
   id="path39" />
			</g><g
   id="g41"
   transform="matrix(1,0,0,1.8283852,-1.0383442,-391.56347)">
				<path
   style="fill:#bdd0fb"
   d="m 981.966,679.895 c -1.401,0 -2.701,-0.898 -3.149,-2.303 -0.554,-1.741 0.408,-3.599 2.147,-4.154 l 607.577,-193.342 c 1.739,-0.553 3.599,0.409 4.153,2.148 0.554,1.741 -0.408,3.599 -2.147,4.154 L 982.97,679.74 c -0.334,0.105 -0.672,0.155 -1.004,0.155 z"
   id="path40" />
				<path
   style="fill:#bdd0fb"
   d="m 899.804,713.482 c -1.303,0 -2.538,-0.775 -3.062,-2.056 -0.691,-1.69 0.119,-3.621 1.81,-4.311 l 31.27,-12.781 c 1.688,-0.695 3.62,0.121 4.311,1.81 0.691,1.69 -0.119,3.62 -1.81,4.311 l -31.27,12.781 c -0.408,0.168 -0.832,0.246 -1.249,0.246 z"
   id="path41" />
			</g><path
   style="fill:#91b3fa"
   d="m 1166.21,840.45 c -62.84,58.701 -332.695,335.103 -187.491,629.973 2.824,5.736 10.705,6.474 14.526,1.348 40.63,-54.508 215.291,-309.232 187.303,-625.805 -0.628,-7.096 -9.132,-10.38 -14.338,-5.516 z"
   id="path42" /><path
   style="fill:#dce5fe"
   d="m 1132.049,933.543 c 0.722,-1.296 -1.134,-2.451 -1.964,-1.221 -38.04,56.332 -144.384,237.985 -140.848,503.868 -10e-4,0 9.352,-263.043 142.812,-502.647 z"
   id="path43" /><path
   style="fill:#bdd0fb"
   d="m 1276.146,1095.164 c -57.039,22.474 -308.352,135.116 -289.261,368.668 0.371,4.543 5.404,7.096 9.28,4.697 41.214,-25.509 223.724,-148.697 288.045,-365.954 1.441,-4.869 -3.339,-9.273 -8.064,-7.411 z"
   id="path44" /><path
   style="fill:#dce5fe"
   d="m 1229.12,1147.954 c 0.818,-0.671 -0.11,-1.922 -0.983,-1.323 -39.973,27.396 -158.051,120.015 -225.315,297.255 -10e-4,-10e-4 75.067,-171.984 226.298,-295.932 z"
   id="path45" /><path
   style="fill:#bdd0fb"
   d="m 248.548,1030.066 c 61.234,2.99 335.398,29.067 392.233,256.402 1.106,4.422 -2.842,8.454 -7.282,7.426 -47.218,-10.941 -259.599,-69.076 -390.21,-254.221 -2.928,-4.151 0.186,-9.855 5.259,-9.607 z"
   id="path46" /><path
   style="fill:#dce5fe"
   d="m 310.022,1064.982 c -0.99,-0.373 -0.512,-1.855 0.506,-1.569 46.649,13.126 188.196,62.975 308.759,209.274 10e-4,0 -126.266,-138.816 -309.265,-207.705 z"
   id="path47" /><path
   style="fill:#91b3fa"
   d="m 2217.507,1234.383 c -61.265,-2.278 -336.656,0.165 -412.797,221.781 -1.481,4.311 2.106,8.667 6.618,8.023 47.983,-6.847 264.571,-46.534 410.595,-219.782 3.273,-3.883 0.66,-9.834 -4.416,-10.022 z"
   id="path48" /><path
   style="fill:#dce5fe"
   d="m 2153.262,1263.892 c 1.019,-0.286 0.67,-1.805 -0.37,-1.607 -47.604,9.073 -192.908,46.586 -325.586,181.994 10e-4,0 137.72,-127.463 325.956,-180.387 z"
   id="path49" /><path
   style="fill:url(#SVGID_00000084503072034981097490000009635855022153350835_)"
   d="m 1323.22,679.99 c -0.2,-2.478 -2.731,-4.623 -7.017,-6.343 4.658,-2.568 7.234,-5.321 7.017,-8.021 -0.659,-8.169 -26.531,-12.75 -57.788,-10.23 -31.256,2.521 -56.061,11.186 -55.403,19.356 0.2,2.478 2.731,4.623 7.017,6.343 -4.658,2.568 -7.234,5.321 -7.017,8.021 0.2,2.478 2.731,4.623 7.017,6.342 -4.658,2.569 -7.234,5.321 -7.017,8.021 0.2,2.478 2.731,4.623 7.017,6.342 -4.658,2.569 -7.234,5.321 -7.017,8.021 0.292,3.613 5.521,6.522 13.961,8.428 -0.109,2.67 -0.048,5.597 0.214,8.827 1.223,15.055 18.156,26.858 40.553,26.858 22.397,0 41.781,-16.094 42.001,-31.196 0.054,-3.701 -0.103,-6.959 -0.438,-9.854 10.716,-3.579 17.243,-7.95 16.901,-12.19 -0.2,-2.478 -2.731,-4.623 -7.017,-6.342 4.658,-2.568 7.234,-5.322 7.017,-8.021 -0.2,-2.478 -2.731,-4.623 -7.017,-6.342 4.657,-2.567 7.233,-5.32 7.016,-8.02 z"
   id="path50" /><path
   style="fill:url(#SVGID_00000036957790098082537080000008132857516614329761_)"
   d="m 1189.05,607.484 c -3.796,-13.446 -10.244,-26.012 -18.929,-36.957 -18.607,-23.451 -48.964,-71.144 -52.7,-136.237 -5.435,-94.68 78.535,-142.082 155.16,-135.647 76.624,6.435 152.233,63.488 143.956,151.569 -5.093,54.196 -35.428,95.305 -58.013,118.914 -14.342,14.991 -24.573,33.354 -30.11,53.348 -6.778,24.472 -22.908,54.969 -61.248,56.828 -49.611,2.406 -70.216,-43.837 -78.116,-71.818 z"
   id="path60" /><path
   style="fill:url(#SVGID_00000057140527753690310530000015299277714051498684_);stroke-width:1.84528"
   d="m 1268.8022,657.02035 77.6892,-204.91531 c 1.6053,-4.23274 6.7428,-7.0765 11.4747,-6.35029 4.7319,0.7274 7.2673,4.74744 5.662,8.98135 -0.043,0.11281 -0.098,0.25148 -0.1478,0.36311 l -88.4945,203.01046 c -0.6664,1.52647 -2.576,2.49123 -4.2711,2.15397 -1.6372,-0.32785 -2.4688,-1.76501 -1.9125,-3.24329 z"
   id="path62" /><path
   style="fill:url(#SVGID_00000134245761871246710770000007767175210368561034_);stroke-width:1.76816"
   d="m 1257.0857,655.68303 -75.5982,-193.34907 c -1.5623,-3.99383 -6.5614,-6.67707 -11.166,-5.99185 -4.6046,0.68523 -7.0718,4.47947 -5.5095,8.4733 0.04,0.10644 0.098,0.23839 0.143,0.34261 l 86.1127,191.55174 c 0.646,1.44031 2.5069,2.35062 4.1564,2.03129 1.596,-0.30602 2.4022,-1.66206 1.8609,-3.05802 z"
   id="path64" /><path
   style="fill:url(#SVGID_00000057128479405042560480000017360985230409718190_);stroke-width:1.64154"
   d="m 1325.6643,475.21773 c -1.0765,-1.86393 -3.5713,-2.56014 -5.5707,-1.55583 l -23.6331,11.87469 -8.2033,-25.13498 c -0.4337,-1.31241 -1.439,-2.47503 -2.8732,-3.10996 -2.7181,-1.20517 -5.9696,-0.12766 -7.2629,2.40694 l -0.041,0.0817 -19.4365,38.1042 -18.0355,-54.24295 -0.03,-0.0902 c -0.4416,-1.32262 -1.3725,-2.51247 -2.7291,-3.30911 -3.0236,-1.77542 -7.0192,-0.92942 -8.9236,1.88946 l -27.1712,40.22006 c -1.1049,1.64775 -0.725,3.85723 0.9578,5.07602 1.7951,1.30049 4.3818,0.9992 5.778,-0.67578 l 23.9228,-28.69603 21.5388,51.6011 0.016,0.0392 c 0.3467,0.82558 0.9958,1.54562 1.8981,2.00011 2.0215,1.01793 4.5449,0.31661 5.6356,-1.56775 l 20.7868,-35.86748 7.8234,18.14227 0.068,0.16171 c 0.057,0.12937 0.1219,0.25873 0.1947,0.3847 1.0765,1.86223 3.5682,2.55844 5.566,1.55413 l 28.0529,-14.09439 c 2.0026,-1.00431 2.7497,-3.32784 1.6717,-5.19177 z"
   id="path66" /><path
   style="fill:url(#SVGID_00000106825777374857886800000013693568078980351412_);stroke-width:2.04385"
   d="m 1335.3479,564.47008 c -1.7505,0 -3.5133,-0.36728 -5.0233,-1.12881 -3.7415,-1.88864 -4.525,-5.48061 -1.748,-8.02296 11.3137,-10.3547 21.6876,-21.06321 30.8417,-31.829 2.3332,-2.74283 7.5028,-3.68631 11.5269,-2.09756 4.0391,1.58202 5.4201,5.08974 3.087,7.83258 -9.474,11.14824 -20.2075,22.22571 -31.9005,32.93085 -1.6563,1.51463 -4.2051,2.3149 -6.7838,2.3149 z"
   id="path68" /><path
   style="fill:url(#SVGID_00000004534174934213855950000008978987315332997772_);stroke-width:1.90287"
   d="m 1342.0968,512.90902 c -1.6367,0 -3.3023,-0.091 -4.9027,-0.283 -6.2425,-0.749 -9.1066,-2.753 -6.3946,-4.478 102.5804,-65.245 14.1107,-120.008 13.2019,-120.555 -2.8352,-1.708 -0.1195,-3.728 6.0686,-4.513 6.1954,-0.78 13.5024,-0.032 16.3412,1.676 3.8852,2.34 93.9155,58.098 -13.0027,126.103 -2.0169,1.283 -6.5502,2.05 -11.3117,2.05 z"
   id="path70" /><g
   id="g213">
				<polygon
   style="fill:#7d97f4"
   points="1542.558,190.944 1545.464,227.497 1519.46,213.751 "
   id="polygon211" />
				<path
   style="fill:#91b3fa"
   d="m 1376.521,183.033 105.596,78.736 c 2.022,1.507 4.57,2.127 7.058,1.717 2.488,-0.41 4.702,-1.816 6.133,-3.893 l 75.059,-108.999 c 0.859,-1.248 0.876,-2.893 0.042,-4.158 -0.834,-1.265 -2.352,-1.897 -3.838,-1.599 z"
   id="path212" />
				<polygon
   style="fill:#7d97f4"
   points="1530.488,208.578 1531.726,218.68 1542.547,190.95 1376.521,183.033 "
   id="polygon212" />
				<polygon
   style="fill:#7d97f4"
   points="1523.259,218.975 1545.464,227.497 1530.488,208.578 "
   id="polygon213" />
			</g><g
   id="g217">
				
					<linearGradient
   id="SVGID_00000168816190256475705890000013756943606239505838_"
   gradientUnits="userSpaceOnUse"
   x1="1168.516"
   y1="1267.5468"
   x2="1278.516"
   y2="1212.5466">
					<stop
   offset="0"
   style="stop-color:#FF928E"
   id="stop214" />
					<stop
   offset="1"
   style="stop-color:#FEB3B1"
   id="stop215" />
				</linearGradient>
				<path
   style="fill:url(#SVGID_00000168816190256475705890000013756943606239505838_)"
   d="m 1217.91,1219.378 c 0,0 -9.915,-26.1 -21.495,-23.71 -11.581,2.391 -24.25,11.287 -24.25,11.287 l -18.605,25.161 c 0,0 52.227,20.574 70.595,8.783 0,0 53.346,9.218 120.711,-1.836 -9.752,-20.588 -15.564,-41.2 -18.977,-57.2 -34.12,19.314 -70.87,33.74 -107.979,37.515 z"
   id="path215" />
				
					<linearGradient
   id="SVGID_00000039131777564327872180000017140571175195048630_"
   gradientUnits="userSpaceOnUse"
   x1="1448.7404"
   y1="769.9458"
   x2="1418.7371"
   y2="1132.9822">
					<stop
   offset="0"
   style="stop-color:#09005D"
   id="stop216" />
					<stop
   offset="1"
   style="stop-color:#1A0F91"
   id="stop217" />
				</linearGradient>
				<path
   style="fill:url(#SVGID_00000039131777564327872180000017140571175195048630_)"
   d="m 1500.488,1030.067 c 0,0 -76.377,96.199 -174.599,151.797 3.413,16 9.225,36.612 18.977,57.2 50.953,-8.361 109.923,-28.314 159.916,-72.652 z"
   id="path217" />
			</g><path
   style="fill:url(#SVGID_00000017489370923274530150000011556007043496162969_)"
   d="m 480.38,1074.432 151.623,381.318 c 7.717,19.408 27.733,30.995 48.406,28.021 L 1078.014,1454.413 934.8,1048.919 c -3.815,-10.031 -13.535,-16.57 -24.265,-16.323 -69.711,1.606 -323.608,7.876 -414.436,15.959 -12.61,1.122 -20.513,14.159 -15.719,25.877 z"
   id="path219" /><path
   style="fill:url(#SVGID_00000090986182823677229440000001084552839929589133_)"
   d="M 667.011,1466.46 515.524,1081.717 c -3.057,-7.765 2.55,-16.203 10.894,-16.391 l 374.429,-14.211 c 9.647,-0.366 18.47,5.409 21.994,14.397 l 137.136,375.057 z"
   id="path221" /><path
   style="fill:url(#SVGID_00000105407052009562360030000012722698300347804821_)"
   d="m 1994.619,1074.432 -151.623,381.318 c -7.717,19.408 -27.733,30.995 -48.406,28.021 l -397.605,-27.824 143.215,-407.028 c 3.815,-10.031 13.535,-16.57 24.265,-16.323 69.711,1.606 323.608,7.876 414.436,15.959 12.609,1.122 20.513,14.159 15.718,25.877 z"
   id="path223" /><path
   style="fill:url(#SVGID_00000057114356259021840860000009248652308668305293_)"
   d="m 1807.988,1466.46 151.487,-384.743 c 3.057,-7.765 -2.55,-16.203 -10.894,-16.391 l -374.429,-14.211 c -9.647,-0.366 -18.47,5.409 -21.994,14.397 l -137.136,375.057 z"
   id="path225" /><path
   style="fill:url(#SVGID_00000021802368156317702970000008101025632159694248_)"
   d="m 928.045,1042.788 4.742,127.352 c 13.468,4.635 26.291,8.24 38.501,10.932 7.638,-24.589 24.455,-54.768 38.226,-77.207 -50.596,-17.886 -81.469,-61.077 -81.469,-61.077 z"
   id="path227" /><path
   style="fill:url(#SVGID_00000173161704740309561750000005761729524961419423_)"
   d="m 1180.651,1040.622 c -69.405,74.935 -125.581,79.346 -171.137,63.243 -13.771,22.439 -30.588,52.619 -38.226,77.207 185.345,40.862 228.99,-129.528 228.99,-129.528 z"
   id="path229" /><path
   style="fill:url(#SVGID_00000085230892679125913470000011745152224639571366_)"
   d="m 1194.727,1032.662 c 0,0 7.995,-8.585 22.792,-5.887 14.797,2.698 27.968,7.839 37.187,0 9.219,-7.839 12.46,2.681 12.46,2.681 l -27.607,20.986 z"
   id="path231" /><path
   style="fill:url(#SVGID_00000008846340580799519290000003271235107219959692_)"
   d="m 1178.215,1047.339 c 0,0 5.478,-22.906 21.987,-19.766 16.508,3.139 53.987,23.521 63.645,19.766 9.659,-3.754 22.009,-12.741 28.346,-9.565 l -11.161,13.876 c 0,0 28.693,-16.552 33.632,-6.382 l -47.743,26.867 c -10e-4,0 -69.851,-6.992 -88.706,-24.796 z"
   id="path233" /><path
   style="fill:url(#SVGID_00000120527284525274960560000010172672305015202184_)"
   d="m 687.781,1462.512 c 0,0 -23.681,-338.093 148.958,-443.223 0,0 48.265,-31.864 108.408,29.844 60.142,61.708 40.774,125.817 -9.697,185.9 -50.471,60.082 -101.879,167.406 -89.645,227.479 z"
   id="path235" /><path
   style="fill:url(#SVGID_00000031193485939759318770000018168492009961220251_)"
   d="m 923.746,927.197 c -0.045,4.032 -57.534,85.687 -57.534,85.687 0,0 10.319,20.323 59.581,36.823 l 42.523,-87.428 z"
   id="path237" /><path
   style="fill:url(#SVGID_00000027575385243191882780000005793273320889618561_)"
   d="m 901.138,1207.548 c 0,0 109.07,91.347 226.848,51.488 7.305,-2.472 15.292,-1.935 22.112,1.666 l 33.86,17.883 c 14.212,7.506 31.812,2.578 40.059,-11.217 4.704,-7.869 8.718,-16.856 9.517,-25.466 l -66.254,-26.822 4.884,-8.124 c 0,0 -32.348,-2.741 -40.815,20.443 0,0 -61.615,25.628 -165.523,-88.663 0,0 -47.152,40.093 -64.688,68.812 z"
   id="path239" /><g
   id="g247">
				
					<linearGradient
   id="SVGID_00000097463753207958803470000015885416542268422838_"
   gradientUnits="userSpaceOnUse"
   x1="903.10541"
   y1="867.95837"
   x2="978.1015"
   y2="990.95203">
					<stop
   offset="0"
   style="stop-color:#FF928E"
   id="stop244" />
					<stop
   offset="1"
   style="stop-color:#FEB3B1"
   id="stop245" />
				</linearGradient>
				<path
   style="fill:url(#SVGID_00000097463753207958803470000015885416542268422838_)"
   d="m 969.009,880.408 c 0,0 20.455,46.989 21.829,71.653 1.374,24.663 6.688,40.667 -21.829,45.633 -28.517,4.966 -52.541,-9.24 -65.555,-33.807 0,0 -20.392,-37.856 -15.817,-53.359 4.574,-15.503 81.372,-30.12 81.372,-30.12 z"
   id="path245" />
				<path
   style="fill:#ffffff"
   d="m 913.198,946.223 1.623,-0.716 c 2.067,-0.911 2.951,-3.371 1.913,-5.377 -4.021,-7.77 -11.861,-25.575 -1.734,-29.728 13.052,-5.353 64.751,-15.896 75.905,-34.24 10.72,-17.631 1.222,-40.389 -13.054,-46.862 -0.955,-0.433 -2.082,-0.089 -2.572,0.838 l -1.19,2.251 c -0.814,1.541 -3.09,1.307 -3.575,-0.367 v 0 c -0.465,-1.607 -2.603,-1.919 -3.489,-0.5 -3.429,5.488 -12.685,14.386 -37.44,18.955 -35.181,6.493 -58.44,20.73 -59.019,45.04 -0.037,1.544 -1.68,2.403 -2.999,1.599 -2.598,-1.583 -6.754,-2.326 -12.31,2.346 -9.662,8.124 -5.708,29.198 15.472,46.534 1.006,0.823 0.998,2.394 -0.091,3.104 -3.84,2.499 -9.564,8.447 5.268,16.375 15.341,8.201 26.797,7.528 31.208,6.8 1.097,-0.181 1.805,-1.244 1.565,-2.33 l -4.708,-21.367 c -0.267,-1.209 0.654,-2.355 1.892,-2.355 z"
   id="path246" />
				
					<linearGradient
   id="SVGID_00000041989119803755069900000005681923528075077008_"
   gradientUnits="userSpaceOnUse"
   x1="867.8974"
   y1="889.427"
   x2="942.89362"
   y2="1012.4208">
					<stop
   offset="0"
   style="stop-color:#FF928E"
   id="stop246" />
					<stop
   offset="1"
   style="stop-color:#FEB3B1"
   id="stop247" />
				</linearGradient>
				<path
   style="fill:url(#SVGID_00000041989119803755069900000005681923528075077008_)"
   d="m 914.084,950.732 c 0,0 -7.804,-30.016 -21.261,-21.6 -13.458,8.416 6.983,33.632 17.802,34.755 z"
   id="path247" />
			</g><path
   style="fill:url(#SVGID_00000053531663720071630060000003069295160425514130_)"
   d="m 1150.098,1260.702 c 0,0 27.717,27.111 33.065,23.164 1.903,-1.404 6.708,-6.504 11.364,-12.184 3.286,-4.008 3.627,-9.67 0.809,-14.019 l -6.537,-10.087 c -6.229,-9.612 -19.566,-11.628 -28.206,-4.108 -4.358,3.791 -8.314,9.284 -10.495,17.234 z"
   id="path249" /><path
   style="fill:url(#SVGID_00000177468693117484908280000002266494709384881325_)"
   d="m 1586.861,1457.534 c 0,0 -0.186,-121.81 -71.008,-247.592 -22.153,-39.344 -30.031,-85.139 -23.124,-129.76 l 7.758,-50.115 c 0,0 97.195,-32.889 204.934,-1.385 0,0 149.388,123.303 49.548,438.667 z"
   id="path251" /><path
   style="fill:url(#SVGID_00000013892553623669356040000008003346858890303653_)"
   d="m 1517.033,966.108 25.203,60.547 c 1.592,3.824 5.033,6.55 9.115,7.25 14.531,2.492 49.675,6.384 72.755,-8.792 2.75,-1.808 3.45,-5.547 1.569,-8.248 l -46.562,-66.848 z"
   id="path253" /><path
   style="fill:#bdd0fb"
   d="m 1574.8305,1250.1703 c -3.471,0.915 -5.195,4.816 -3.535,7.999 l 72.912,139.808 c 1.231,2.361 3.956,3.528 6.514,2.789 l 238.502,-68.861 c 2.969,-0.857 4.681,-3.96 3.824,-6.929 l -41.083,-142.224 c -0.844,-2.92 -3.864,-4.633 -6.803,-3.858 z"
   id="path254" /><path
   style="fill:#91b3fa;stroke-width:1.05672"
   d="m 1589.048,1200.5114 c -3.6317,0.8547 -5.6916,4.6495 -4.4027,8.1083 l 62.0688,166.4738 c 1.1283,3.0273 4.4346,4.68 7.574,3.7843 l 252.8714,-72.0872 c 3.1467,-0.8968 5.0524,-4.0468 4.3612,-7.2085 l -35.0442,-160.222 c -0.7369,-3.3706 -4.1358,-5.4843 -7.5324,-4.6852 z"
   id="path255" /><path
   style="fill:url(#SVGID_00000039842051664431701190000007933761941295989904_)"
   d="m 1615.287,1221.1925 c -4.169,0.634 -6.916,4.683 -5.965,8.792 l 39.641,171.153 c 0.936,4.044 5.074,6.474 9.062,5.322 l 234.18,-67.613 c 3.764,-1.087 5.98,-4.97 5.003,-8.763 l -36.014,-139.707 c -0.927,-3.597 -4.427,-5.909 -8.099,-5.35 z"
   id="path256" /><path
   style="fill:url(#SVGID_00000147907875611729034290000000044836612947147451_)"
   d="m 1804.854,1283.492 c 18.176,-137.298 -87.631,-242.87 -87.631,-242.87 l -62.952,73.389 c 47.794,59.573 70.514,114.162 80.892,157.038 13.763,-4.008 46.901,-10.34 69.691,12.443 z"
   id="path258" /><path
   style="fill:url(#SVGID_00000124858045267210082630000005921340472037854854_)"
   d="m 1735.163,1271.05 c 9.646,39.85 8.632,69.582 7.164,83.778 -0.553,5.352 -4.855,9.531 -10.222,9.906 -6.097,0.427 -14.394,0.987 -21.81,1.414 -8.151,0.469 -17.197,-4.682 -23.247,-8.988 -3.089,-2.198 -7.084,1.225 -5.359,4.6 4.515,8.835 15.974,16.697 23.873,21.322 2.873,1.682 2.334,5.978 -0.869,6.885 l -33.778,9.575 c 55.501,52.286 92.144,-6.216 92.144,-6.216 24.5,-37.855 37.166,-74.873 41.793,-109.834 -22.788,-22.783 -55.926,-16.451 -69.689,-12.442 z"
   id="path262" /><g
   id="g268">
				
					<linearGradient
   id="SVGID_00000104664354955303597160000014769016874228398233_"
   gradientUnits="userSpaceOnUse"
   x1="1494.1057"
   y1="893.08533"
   x2="1570.1056"
   y2="942.08533">
					<stop
   offset="0"
   style="stop-color:#FF928E"
   id="stop263" />
					<stop
   offset="1"
   style="stop-color:#FEB3B1"
   id="stop264" />
				</linearGradient>
				<path
   style="fill:url(#SVGID_00000104664354955303597160000014769016874228398233_)"
   d="m 1543.098,873.47 c -1.059,0.996 -44.671,86.641 -44.671,86.641 l 49.431,23.863 53.396,-75.033 c 0,10e-4 -40.437,-52.152 -58.156,-35.471 z"
   id="path264" />
				
					<linearGradient
   id="SVGID_00000163767796349025901690000011073477131088582054_"
   gradientUnits="userSpaceOnUse"
   x1="1484.6947"
   y1="920.6532"
   x2="1629.9791"
   y2="920.6532">
					<stop
   offset="0"
   style="stop-color:#E1473D"
   id="stop265" />
					<stop
   offset="1"
   style="stop-color:#E9605A"
   id="stop266" />
				</linearGradient>
				<path
   style="fill:url(#SVGID_00000163767796349025901690000011073477131088582054_)"
   d="m 1578.789,917.944 -24.654,41.097 c -0.374,0.624 -0.82,1.187 -1.352,1.683 -2.934,2.732 -12.976,10.677 -20.739,-0.141 -6.616,-9.22 -12.824,-17.602 -19.476,-21.059 -3.884,-2.019 -8.665,-0.407 -10.637,3.502 -4.062,8.051 -11.93,24.461 -16.873,40.023 -1.239,3.9 0.774,8.088 4.567,9.625 10.009,4.055 29.792,11.389 47.346,13.812 2.884,0.398 5.739,-0.818 7.455,-3.17 7.552,-10.347 28.839,-39.261 36.104,-46.498 6.75,-6.724 19.207,-4.189 24.82,-2.576 2.13,0.613 4.4,0.318 6.299,-0.826 5.695,-3.43 15.634,-11.972 6.542,-26.435 -2.26,-3.596 -1.108,-8.385 2.441,-10.72 6.358,-4.183 13.258,-12.034 6.684,-24.748 -6.654,-12.871 -18.538,-14.027 -26.631,-13.037 -3.581,0.438 -7.217,-1.44 -8.591,-4.776 -0.611,-1.484 -1.819,-2.749 -4.069,-3.205 -4.242,-0.86 -7.026,-4.74 -6.194,-8.987 1.428,-7.283 0.353,-16.745 -11.276,-23.139 -21.328,-11.726 -40.01,7.381 -44.761,23.51 -4.75,16.13 19.096,27.529 34.097,29.431 11.018,1.397 17.06,13.423 19.491,19.709 0.883,2.282 0.665,4.828 -0.593,6.925 z"
   id="path266" />
				
					<linearGradient
   id="SVGID_00000122693692925921477890000008170067657563012769_"
   gradientUnits="userSpaceOnUse"
   x1="3116.353"
   y1="4100.7544"
   x2="3204.7939"
   y2="4010.0166"
   gradientTransform="matrix(-0.6854,-0.7281,-0.7281,0.6854,6705.751,544.7815)">
					<stop
   offset="0"
   style="stop-color:#FF928E"
   id="stop267" />
					<stop
   offset="1"
   style="stop-color:#FEB3B1"
   id="stop268" />
				</linearGradient>
				<path
   style="fill:url(#SVGID_00000122693692925921477890000008170067657563012769_)"
   d="m 1571.272,971.911 c 0,0 9.484,-27.75 21.624,-26.731 12.14,1.019 21.694,13.112 6.649,26.708 -18.714,16.91 -28.273,0.023 -28.273,0.023 z"
   id="path268" />
			</g><path
   style="fill:url(#SVGID_00000174579523833495445110000010452957132421299598_)"
   d="m 1213.21,1471.363 c 0,7.108 -5.763,12.871 -12.871,12.871 H 677.42 c -10.803,0 -19.56,-8.757 -19.56,-19.56 l -8.225,-9.558 542.959,-4.651 c 11.431,0.155 20.616,9.466 20.616,20.898 z"
   id="path270" /><path
   style="fill:url(#SVGID_00000002370790314870551010000007257016243663704506_)"
   d="m 1261.79,1471.363 c 0,7.108 5.763,12.871 12.871,12.871 h 522.919 c 10.802,0 19.56,-8.757 19.56,-19.56 l 8.225,-9.558 -542.959,-4.651 c -11.431,0.155 -20.616,9.466 -20.616,20.898 z"
   id="path272"
   inkscape:export-filename="path272.png"
   inkscape:export-xdpi="340.68228"
   inkscape:export-ydpi="340.68228" /><path
   style="fill:#91b3fa"
   d="m 899.891,749.333 c 6.067,-2.082 5.195,-10.948 -1.166,-11.773 -28.987,-3.759 -71.473,-15.108 -85.387,-49.119 C 791.507,635.077 836.727,429.326 628.988,392.512 437.362,358.553 330.633,419.194 333.059,596.267 335.41,767.904 611.244,848.38 899.891,749.333 Z"
   id="path294" /><g
   id="g315"
   inkscape:export-filename="path272.png"
   inkscape:export-xdpi="77.57576"
   inkscape:export-ydpi="77.57576">
				
					<linearGradient
   id="SVGID_00000090998937083881937500000008223094114361363585_"
   gradientUnits="userSpaceOnUse"
   x1="427.27481"
   y1="631.96863"
   x2="445.8624"
   y2="631.96863">
					<stop
   offset="0"
   style="stop-color:#DAE3FE"
   id="stop294" />
					<stop
   offset="1"
   style="stop-color:#E9EFFD"
   id="stop295" />
				</linearGradient>
				
					<rect
   x="427.27499"
   y="559.24597"
   style="fill:url(#SVGID_00000090998937083881937500000008223094114361363585_)"
   width="18.587999"
   height="145.44501"
   id="rect295" />
				
					<linearGradient
   id="SVGID_00000007429496881139908140000010419941934361611152_"
   gradientUnits="userSpaceOnUse"
   x1="458.33289"
   y1="656.96228"
   x2="476.92029"
   y2="656.96228">
					<stop
   offset="0"
   style="stop-color:#DAE3FE"
   id="stop296" />
					<stop
   offset="1"
   style="stop-color:#E9EFFD"
   id="stop297" />
				</linearGradient>
				
					<rect
   x="458.33301"
   y="609.23297"
   style="fill:url(#SVGID_00000007429496881139908140000010419941934361611152_)"
   width="18.587"
   height="95.458"
   id="rect297" />
				
					<linearGradient
   id="SVGID_00000181794312646438149100000000466555264263170469_"
   gradientUnits="userSpaceOnUse"
   x1="489.39111"
   y1="595.19238"
   x2="507.97849"
   y2="595.19238">
					<stop
   offset="0"
   style="stop-color:#DAE3FE"
   id="stop298" />
					<stop
   offset="1"
   style="stop-color:#E9EFFD"
   id="stop299" />
				</linearGradient>
				
					<rect
   x="489.39099"
   y="485.69299"
   style="fill:url(#SVGID_00000181794312646438149100000000466555264263170469_)"
   width="18.587"
   height="218.998"
   id="rect299" />
				
					<linearGradient
   id="SVGID_00000124141304108294199860000000803244671123640759_"
   gradientUnits="userSpaceOnUse"
   x1="520.44897"
   y1="678.38538"
   x2="539.03668"
   y2="678.38538">
					<stop
   offset="0"
   style="stop-color:#DAE3FE"
   id="stop300" />
					<stop
   offset="1"
   style="stop-color:#E9EFFD"
   id="stop301" />
				</linearGradient>
				
					<rect
   x="520.44897"
   y="652.08002"
   style="fill:url(#SVGID_00000124141304108294199860000000803244671123640759_)"
   width="18.587999"
   height="52.612"
   id="rect301" />
				
					<linearGradient
   id="SVGID_00000163766662292884170190000009644934649104708253_"
   gradientUnits="userSpaceOnUse"
   x1="551.5072"
   y1="609.83148"
   x2="570.0946"
   y2="609.83148">
					<stop
   offset="0"
   style="stop-color:#DAE3FE"
   id="stop302" />
					<stop
   offset="1"
   style="stop-color:#E9EFFD"
   id="stop303" />
				</linearGradient>
				
					<rect
   x="551.50702"
   y="514.97198"
   style="fill:url(#SVGID_00000163766662292884170190000009644934649104708253_)"
   width="18.587"
   height="189.72"
   id="rect303" />
				
					<linearGradient
   id="SVGID_00000127722251597785467740000006806162756270936244_"
   gradientUnits="userSpaceOnUse"
   x1="582.56512"
   y1="626.25592"
   x2="601.15253"
   y2="626.25592">
					<stop
   offset="0"
   style="stop-color:#DAE3FE"
   id="stop304" />
					<stop
   offset="1"
   style="stop-color:#E9EFFD"
   id="stop305" />
				</linearGradient>
				
					<rect
   x="582.565"
   y="547.82001"
   style="fill:url(#SVGID_00000127722251597785467740000006806162756270936244_)"
   width="18.587"
   height="156.871"
   id="rect305" />
				
					<linearGradient
   id="SVGID_00000012466585980617794980000007686284385956367545_"
   gradientUnits="userSpaceOnUse"
   x1="613.62323"
   y1="644.1084"
   x2="632.21069"
   y2="644.1084">
					<stop
   offset="0"
   style="stop-color:#DAE3FE"
   id="stop306" />
					<stop
   offset="1"
   style="stop-color:#E9EFFD"
   id="stop307" />
				</linearGradient>
				
					<rect
   x="613.62299"
   y="583.526"
   style="fill:url(#SVGID_00000012466585980617794980000007686284385956367545_)"
   width="18.587"
   height="121.166"
   id="rect307" />
				
					<linearGradient
   id="SVGID_00000183228938071406661090000000818166357523015099_"
   gradientUnits="userSpaceOnUse"
   x1="644.68121"
   y1="573.05518"
   x2="663.2688"
   y2="573.05518">
					<stop
   offset="0"
   style="stop-color:#DAE3FE"
   id="stop308" />
					<stop
   offset="1"
   style="stop-color:#E9EFFD"
   id="stop309" />
				</linearGradient>
				
					<rect
   x="644.68103"
   y="441.41901"
   style="fill:url(#SVGID_00000183228938071406661090000000818166357523015099_)"
   width="18.587999"
   height="263.272"
   id="rect309" />
				
					<linearGradient
   id="SVGID_00000090282657998847078770000010494565514472012433_"
   gradientUnits="userSpaceOnUse"
   x1="675.73932"
   y1="586.98022"
   x2="694.32672"
   y2="586.98022">
					<stop
   offset="0"
   style="stop-color:#DAE3FE"
   id="stop310" />
					<stop
   offset="1"
   style="stop-color:#E9EFFD"
   id="stop311" />
				</linearGradient>
				
					<rect
   x="675.73901"
   y="469.26901"
   style="fill:url(#SVGID_00000090282657998847078770000010494565514472012433_)"
   width="18.587"
   height="235.422"
   id="rect311" />
				
					<linearGradient
   id="SVGID_00000090975197203538821670000003726647007119534760_"
   gradientUnits="userSpaceOnUse"
   x1="706.7973"
   y1="608.0462"
   x2="725.38489"
   y2="608.0462">
					<stop
   offset="0"
   style="stop-color:#DAE3FE"
   id="stop312" />
					<stop
   offset="1"
   style="stop-color:#E9EFFD"
   id="stop313" />
				</linearGradient>
				
					<rect
   x="706.797"
   y="511.401"
   style="fill:url(#SVGID_00000090975197203538821670000003726647007119534760_)"
   width="18.587999"
   height="193.28999"
   id="rect313" />
				
					<linearGradient
   id="SVGID_00000039815634426987550260000015753441231668730500_"
   gradientUnits="userSpaceOnUse"
   x1="737.85522"
   y1="680.82678"
   x2="756.44281"
   y2="680.82678">
					<stop
   offset="0"
   style="stop-color:#DAE3FE"
   id="stop314" />
					<stop
   offset="1"
   style="stop-color:#E9EFFD"
   id="stop315" />
				</linearGradient>
				
					<rect
   x="737.85498"
   y="656.96198"
   style="fill:url(#SVGID_00000039815634426987550260000015753441231668730500_)"
   width="18.587999"
   height="47.729"
   id="rect315" />
			</g>
</svg>
