<?xml version="1.0" encoding="UTF-8" standalone="no"?>
<!-- Generator: Adobe Illustrator 27.5.0, SVG Export Plug-In . SVG Version: 6.00 Build 0)  -->

<svg
   version="1.1"
   x="0px"
   y="0px"
   viewBox="0 0 500 500"
   style="enable-background:new 0 0 500 500;"
   xml:space="preserve"
   id="svg197"
   sodipodi:docname="dinner.svg"
   inkscape:version="1.4 (86a8ad7, 2024-10-11)"
   xmlns:inkscape="http://www.inkscape.org/namespaces/inkscape"
   xmlns:sodipodi="http://sodipodi.sourceforge.net/DTD/sodipodi-0.dtd"
   xmlns:xlink="http://www.w3.org/1999/xlink"
   xmlns="http://www.w3.org/2000/svg"
   xmlns:svg="http://www.w3.org/2000/svg"><defs
   id="defs197">
	
	
	
	
	
	
	
	
	
	
		
	
		
	
	
	
	

		
		
		
		
		
		
		
		
		
		
		
		
		
		
		
		
		
		
		
		
		
		
		
		
		
		
		
		
		
		
		
		
		
		
		
		
		
	
	
	
	
	

		
		
			
		
		
		
		
		
		
		
		
		
		
		
		
		
		
		
		
		
		
		
		
		
		
		
		
		
		
		
	
		
		
		
		
		
		
		
		
		
		
		
		
		
		
		
		
		
		
		
		
		
		
		
		
		
		
		
		
		
	
		
		
		
		
		
		
		
		
		
		
		
		
		
		
		
		
		
		
		
		
		
		
		
		
		
	
		<defs
   id="defs169">
			<path
   id="SVGID_1_"
   d="m 85.684,310.561 c 38.507,22.837 281.506,20.832 330.071,0 l -6.261,-56.33 H 91.945 Z" />
		</defs>
		
		<clipPath
   id="SVGID_00000120531361596819317740000014396212733914116242_">
			<use
   xlink:href="#SVGID_1_"
   style="overflow:visible"
   id="use170" />
		</clipPath>
		
	
		
		
		
		
		
		
		
		
		
		
		
		
		
		
		
		
		
		
		
		
		
		
		
		
		
	</defs><sodipodi:namedview
   id="namedview197"
   pagecolor="#ffffff"
   bordercolor="#111111"
   borderopacity="1"
   inkscape:showpageshadow="0"
   inkscape:pageopacity="0"
   inkscape:pagecheckerboard="1"
   inkscape:deskcolor="#d1d1d1"
   inkscape:zoom="0.851"
   inkscape:cx="-64.629847"
   inkscape:cy="279.08343"
   inkscape:window-width="1920"
   inkscape:window-height="1111"
   inkscape:window-x="-9"
   inkscape:window-y="122"
   inkscape:window-maximized="1"
   inkscape:current-layer="svg197" />
<rect
   y="350.5"
   style="fill:#ffffff"
   width="500"
   height="149.5"
   id="rect1"
   x="0" /><rect
   style="fill:#f9f9f9"
   width="500"
   height="377.436"
   id="rect2"
   x="0"
   y="0" /><rect
   y="377.867"
   style="fill:#d8cabc"
   width="500"
   height="122.133"
   id="rect3"
   x="0" /><g
   id="g7">
		<g
   id="g3">
			<line
   style="fill:none;stroke:#94a6c2;stroke-width:3;stroke-miterlimit:10"
   x1="324.19"
   y1="0"
   x2="324.19"
   y2="73.110001"
   id="line3" />
			<path
   style="fill:#94a6c2"
   d="m 331.449,74 h -14.517 v -9.668 c 0,-4.009 3.25,-7.259 7.259,-7.259 v 0 c 4.009,0 7.259,3.25 7.259,7.259 V 74 Z"
   id="path3" />
		</g>
		<g
   id="g4">
			<line
   style="fill:none;stroke:#94a6c2;stroke-width:3;stroke-miterlimit:10"
   x1="175.395"
   y1="0"
   x2="175.395"
   y2="73.110001"
   id="line4" />
			<path
   style="fill:#94a6c2"
   d="m 182.653,74 h -14.517 v -9.668 c 0,-4.009 3.25,-7.259 7.259,-7.259 v 0 c 4.009,0 7.259,3.25 7.259,7.259 V 74 Z"
   id="path4" />
		</g>
		<g
   id="g6">
			<line
   style="fill:none;stroke:#94a6c2;stroke-width:3;stroke-miterlimit:10"
   x1="249.79201"
   y1="0"
   x2="249.79201"
   y2="79.496002"
   id="line5" />
			<path
   style="fill:#94a6c2"
   d="M 262.453,81.047 H 237.131 V 64.183 c 0,-6.992 5.669,-12.661 12.661,-12.661 v 0 c 6.993,0 12.661,5.668 12.661,12.661 z"
   id="path5" />
			<path
   style="fill:#94a6c2"
   d="M 286.399,99.5 H 213.186 V 88.422 c 0,-4.697 3.807,-8.504 8.504,-8.504 h 56.206 c 4.697,0 8.504,3.807 8.504,8.504 V 99.5 Z"
   id="path6" />
		</g>
	</g>
<g
   id="g12">
			<polygon
   style="fill:#6c3834"
   points="352.282,306.52 358.536,306.52 367.536,227.77 361.282,227.77 "
   id="polygon7" />
			<polygon
   style="fill:#6c3834"
   points="317.786,306.52 311.532,306.52 302.532,227.77 308.786,227.77 "
   id="polygon8" />
			<path
   style="fill:#a0c57e"
   d="m 364.769,309.017 v -4.994 c 0,-1.105 -0.895,-2 -2,-2 h -54.833 c -1.105,0 -2,0.895 -2,2 v 4.994 c 0,1.104 0.895,2 2,2 h 54.833 c 1.104,0 2,-0.896 2,-2 z"
   id="path8" />
			
				<rect
   x="305.935"
   y="306.51999"
   transform="rotate(180,335.35195,310.5613)"
   style="fill:#a35f4f"
   width="58.833"
   height="8.0830002"
   id="rect8" />
			<polygon
   style="fill:#a35f4f"
   points="314.619,314.603 303.285,377.436 308.952,377.436 321.286,314.603 "
   id="polygon9" />
			<polygon
   style="fill:#6c3834"
   points="306.619,314.603 295.284,377.436 300.951,377.436 313.285,314.603 "
   id="polygon10" />
			<polygon
   style="fill:#6c3834"
   points="356.161,314.603 367.495,377.436 361.828,377.436 349.494,314.603 "
   id="polygon11" />
			<polygon
   style="fill:#a35f4f"
   points="364.161,314.603 375.496,377.436 369.829,377.436 357.495,314.603 "
   id="polygon12" />
			<path
   style="fill:#a0c57e"
   d="m 304.685,245.77 h 60.697 c 2.209,0 4,-1.791 4,-4 v -12.833 c 0,-2.209 -1.791,-4 -4,-4 h -60.697 c -2.209,0 -4,1.791 -4,4 v 12.833 c 0,2.209 1.791,4 4,4 z"
   id="path12" />
		</g><path
   style="fill:#415266"
   d="m 318.099,225.636 c -1.763,1.011 -3.526,2.022 -5.29,3.033 1.992,2.971 4.746,5.426 7.926,7.065 0.654,0.337 1.342,0.645 2.074,0.716 0.329,-2.942 1.46,-5.759 2.93,-8.309 0.718,-1.245 1.512,-2.504 2.439,-3.606 0.857,-1.019 1.368,-1.422 1.199,-2.925 -0.034,-0.303 -0.102,-0.615 -0.286,-0.858 -0.3,-0.394 -0.853,-0.522 -1.342,-0.443 -0.489,0.079 -0.93,0.33 -1.36,0.576 -2.763,1.582 -5.526,3.166 -8.29,4.751 z"
   id="path13" /><path
   style="fill:#415266"
   d="m 348.195,234.527 c 0.59,1.945 1.181,3.89 1.771,5.834 3.342,-1.276 6.352,-3.411 8.66,-6.143 0.475,-0.562 0.929,-1.163 1.162,-1.861 -2.793,-0.98 -5.286,-2.712 -7.442,-4.716 -1.053,-0.978 -2.102,-2.034 -2.969,-3.184 -0.801,-1.064 -1.079,-1.652 -2.583,-1.824 -0.303,-0.035 -0.622,-0.038 -0.9,0.087 -0.451,0.204 -0.7,0.715 -0.733,1.209 -0.033,0.494 0.113,0.98 0.257,1.454 0.927,3.049 1.852,6.097 2.777,9.144 z"
   id="path14" /><path
   style="fill:#6284a8"
   d="m 320.337,301.686 c -3.558,-2.419 -3.927,-7.535 -3.302,-11.814 0.351,-2.402 1.321,-4.781 3.039,-6.191 2.025,-1.661 4.691,-1.722 7.172,-1.646 7.371,0.227 14.715,1.104 22.05,1.98 0.847,0.101 1.773,0.246 2.351,0.97 0.462,0.579 0.594,1.404 0.707,2.181 0.342,2.354 0.686,4.737 0.514,7.116 -0.172,2.379 -0.917,4.79 -2.445,6.395 -2.994,3.146 -6.388,3.115 -10.195,3.198 -4.407,0.096 -8.821,0.056 -13.219,-0.32 -2.303,-0.196 -4.681,-0.515 -6.672,-1.869 z"
   id="path15" /><path
   style="fill:#f9c867"
   d="m 306.074,249.107 c -0.74,0.658 -1.487,1.354 -1.9,2.254 -0.413,0.9 -0.415,2.06 0.253,2.791 0.332,0.364 0.792,0.586 1.256,0.751 3.049,1.085 6.428,0.011 9.355,-1.368 5.837,-2.75 11.081,-6.75 15.275,-11.652 1.567,-1.832 5.264,-8.293 0.017,-8.409 -0.777,-0.017 -1.526,0.272 -2.244,0.571 -8.26,3.446 -15.38,9.163 -22.012,15.062 z"
   id="path16" /><path
   style="fill:#f9c867"
   d="m 365.306,249.107 c 0.74,0.658 1.487,1.354 1.9,2.254 0.413,0.9 0.415,2.06 -0.253,2.791 -0.332,0.364 -0.792,0.586 -1.256,0.751 -3.049,1.085 -6.427,0.011 -9.355,-1.368 -5.837,-2.75 -11.08,-6.75 -15.275,-11.652 -1.567,-1.832 -5.264,-8.293 -0.017,-8.409 0.777,-0.017 1.526,0.272 2.243,0.571 8.261,3.446 15.38,9.163 22.013,15.062 z"
   id="path17" /><path
   style="fill:#f9c867"
   d="m 319.059,262.166 c 1.266,-6.994 1.84,-14.794 4.786,-21.146 2.033,-4.382 5.444,-8.11 9.595,-9.051 2.788,-0.632 6.65,-0.95 9.07,1.044 2.273,1.872 3.768,4.934 4.865,7.778 1.52,3.941 2.533,8.139 3.187,12.395 1.461,9.514 1.814,18.959 2.03,28.601 0.043,1.904 -0.004,4.069 -1.203,5.34 -0.78,0.827 -1.874,1.067 -2.91,1.243 -8.231,1.401 -16.599,0.875 -24.902,0.346 -1.758,-0.112 -3.921,-0.315 -5.214,-1.92 -1.565,-1.942 -1.091,-4.773 -1.02,-7.224 0.17,-5.844 0.68,-11.683 1.716,-17.406 z"
   id="path18" /><path
   style="fill:#eda585"
   d="m 341.155,233.589 c -0.008,0.309 -0.02,0.634 -0.179,0.9 -0.206,0.343 -0.609,0.508 -0.991,0.628 -2.28,0.717 -4.812,0.598 -7.015,-0.328 -0.152,-0.064 -0.309,-0.137 -0.405,-0.27 -0.115,-0.159 -0.12,-0.369 -0.121,-0.565 -0.008,-1.934 -0.016,-3.867 -0.024,-5.801 -0.001,-0.293 -0.001,-0.595 0.113,-0.864 0.277,-0.655 1.086,-0.872 1.792,-0.955 1.64,-0.193 4.971,-0.46 6.336,0.769 1.372,1.236 0.535,4.833 0.494,6.486 z"
   id="path19" /><path
   style="opacity:0.5;fill:#eda585"
   d="m 332.436,231.992 c -0.005,-1.279 -0.01,-2.559 -0.016,-3.838 -0.001,-0.293 -0.001,-0.595 0.113,-0.864 0.277,-0.655 1.086,-0.872 1.792,-0.955 1.64,-0.193 4.971,-0.46 6.336,0.769 0.949,0.856 0.839,2.836 0.668,4.526 -0.763,0.244 -1.548,0.436 -2.354,0.566 -2.127,0.343 -4.384,0.271 -6.539,-0.204 z"
   id="path20" /><path
   style="fill:#eda585"
   d="m 353.444,217.476 c -2.542,6.005 -7.809,11.146 -14.468,12.22 -6.515,1.051 -14.247,-1.714 -16.471,-8.404 -2.302,-6.923 -1.527,-18.176 3.909,-23.596 1.134,-1.131 2.543,-1.949 3.992,-2.634 1.3,-0.614 2.651,-1.132 4.051,-1.46 4.543,-1.065 9.506,-0.004 13.312,2.695 5.228,3.709 8.38,10.201 7.109,16.595 -0.298,1.495 -0.787,3.054 -1.434,4.584 z"
   id="path21" /><path
   style="fill:#3d867d"
   d="m 339.981,350.063 c -0.421,-0.781 -0.736,-1.624 -0.933,-2.409 -1.085,-4.306 -0.21,-14.648 6.286,-14.243 2.667,0.167 3.751,3.811 3.94,6.018 0.293,3.428 0.566,7.34 -1.079,10.485 -0.537,1.026 -1.298,1.961 -2.3,2.542 -2.665,1.545 -4.718,-0.174 -5.914,-2.393 z"
   id="path22" /><path
   style="fill:#6dbfda"
   d="m 351.099,296.836 c 0.018,0.576 0.021,1.134 0.017,1.662 -0.039,6.681 -0.157,13.361 -0.219,20.043 -0.035,3.721 -0.07,7.442 -0.105,11.163 -0.028,2.974 -0.622,5.668 -0.97,8.609 -3.134,-0.002 -6.267,-0.004 -9.401,-0.006 -0.33,0 -0.679,-0.005 -0.96,-0.166 -0.454,-0.26 -0.565,-0.817 -0.631,-1.308 -1.656,-12.228 -3.04,-24.494 -3.599,-36.826 -0.145,-3.197 -0.537,-6.833 1.307,-9.657 1.955,-2.995 6.771,-4.02 9.996,-2.845 3.729,1.357 4.452,5.684 4.565,9.331 z"
   id="path23" /><path
   style="fill:#3d867d"
   d="m 329.923,350.063 c 0.421,-0.781 0.736,-1.624 0.933,-2.409 1.085,-4.306 0.21,-14.648 -6.286,-14.243 -2.667,0.167 -3.751,3.811 -3.94,6.018 -0.293,3.428 -0.566,7.34 1.079,10.485 0.537,1.026 1.298,1.961 2.3,2.542 2.664,1.545 4.718,-0.174 5.914,-2.393 z"
   id="path24" /><path
   style="fill:#6dbfda"
   d="m 318.804,296.836 c -0.018,0.576 -0.021,1.134 -0.017,1.662 0.039,6.681 0.157,13.361 0.219,20.043 0.035,3.721 0.07,7.442 0.104,11.163 0.028,2.974 0.622,5.668 0.97,8.609 3.134,-0.002 6.267,-0.004 9.401,-0.006 0.33,0 0.679,-0.005 0.96,-0.166 0.454,-0.26 0.565,-0.817 0.631,-1.308 1.656,-12.228 3.04,-24.494 3.599,-36.826 0.145,-3.197 0.537,-6.833 -1.307,-9.657 -1.955,-2.995 -6.771,-4.02 -9.996,-2.845 -3.727,1.357 -4.45,5.684 -4.564,9.331 z"
   id="path25" /><path
   style="fill:#415266"
   d="m 341.367,205.329 c 2.934,1.369 5.913,2.669 7.642,4.778 1.385,1.69 1.466,4.067 0.977,6.102 -0.256,1.064 -0.661,2.104 -0.99,3.146 -0.14,0.443 -0.689,3.856 -0.862,3.943 3.637,-1.833 6.893,-2.965 9.63,-6.204 2.321,-2.747 3.87,-6.157 4.306,-9.733 0.537,-4.405 -0.63,-7.814 -3.75,-10.834 -3.159,-3.058 -6.993,-5.441 -11.192,-6.77 -5.718,-1.808 -12.101,-1.605 -17.578,0.836 -3.465,1.545 -5.785,3.551 -7.005,7.184 -0.917,2.731 -0.911,5.798 -0.692,8.642 1.171,-1.932 2.202,-3.113 3.97,-4.607 1.155,-0.976 2.317,-1.943 3.486,-2.902 0.424,-0.348 3.572,-2.439 3.529,-2.85 10e-4,5.096 4.216,7.257 8.529,9.269 z"
   id="path26" /><g
   style="opacity:0.5"
   id="g27">
			<path
   style="fill:#eda585"
   d="m 334.158,217.289 c -0.439,-0.386 -0.709,-0.907 -1.021,-1.253 -0.306,-0.337 -0.675,-0.585 -1.086,-0.725 -0.807,-0.295 -1.741,-0.163 -2.673,0.497 0.119,-0.571 0.562,-1.074 1.126,-1.344 0.564,-0.287 1.276,-0.31 1.884,-0.094 0.603,0.226 1.136,0.669 1.405,1.249 0.269,0.571 0.295,1.104 0.365,1.67 z"
   id="path27" />
		</g><path
   style="fill:#eda585"
   d="m 349.198,227.357 c -1.732,-0.153 -3.202,-1.226 -2.755,-3.41 0.21,-1.025 0.822,-1.923 1.513,-2.708 0.845,-0.96 1.855,-1.813 3.056,-2.252 1.201,-0.439 2.616,-0.414 3.69,0.278 0.906,0.583 1.075,1.492 0.96,2.523 -0.265,2.386 -2.031,4.55 -4.362,5.321 -0.671,0.222 -1.408,0.309 -2.102,0.248 z"
   id="path28" /><path
   style="fill:#392c3f"
   d="m 329.303,211.361 c -0.202,1.459 -1.022,2.552 -1.83,2.44 -0.808,-0.112 -1.299,-1.386 -1.097,-2.846 0.202,-1.459 1.022,-2.552 1.83,-2.44 0.809,0.112 1.3,1.386 1.097,2.846 z"
   id="path29" /><g
   id="g31">
			<g
   id="g30">
				<path
   style="fill:#392c3f"
   d="m 328.276,208.523 c -0.825,-0.147 -1.65,-0.294 -2.476,-0.441 -0.944,-0.168 -1.349,1.277 -0.399,1.446 0.825,0.147 1.65,0.294 2.476,0.441 0.944,0.169 1.349,-1.276 0.399,-1.446 z"
   id="path30" />
			</g>
		</g><path
   style="fill:#392c3f"
   d="m 339.227,213.631 c -0.42,1.412 -0.127,2.746 0.655,2.979 0.782,0.233 1.757,-0.723 2.177,-2.135 0.42,-1.412 0.127,-2.746 -0.654,-2.978 -0.781,-0.232 -1.758,0.722 -2.178,2.134 z"
   id="path31" /><g
   id="g33">
			<g
   id="g32">
				<path
   style="fill:#392c3f"
   d="m 341.02,212.938 c 0.812,0.208 1.624,0.416 2.436,0.624 0.936,0.24 1.335,-1.207 0.399,-1.446 -0.812,-0.208 -1.624,-0.416 -2.436,-0.624 -0.936,-0.24 -1.335,1.207 -0.399,1.446 z"
   id="path32" />
			</g>
		</g><path
   style="fill:#ffffff"
   d="m 334.235,221.743 c -1.394,0.265 -2.86,0.285 -4.207,-0.16 -0.757,-0.25 -1.607,-0.676 -2.143,-1.285 -0.533,-0.605 -0.563,-1.375 -1.004,-2.061 0.962,0.511 2.043,0.745 3.108,0.973 2.237,0.479 4.49,0.96 6.776,1.017 -0.531,0.871 -1.567,1.333 -2.53,1.516 z"
   id="path33" /><g
   id="g35">
			<g
   id="g34">
				<path
   style="fill:#415266"
   d="m 325.725,206.603 c 1.197,-1.353 3.029,-1.266 4.595,-0.71 0.911,0.323 1.304,-1.125 0.399,-1.446 -2.046,-0.726 -4.523,-0.635 -6.054,1.096 -0.638,0.72 0.419,1.785 1.06,1.06 z"
   id="path34" />
			</g>
		</g><g
   id="g37">
			<g
   id="g36">
				<path
   style="fill:#415266"
   d="m 342.325,209.811 c 1.774,0.06 3.523,1.176 3.581,3.087 0.029,0.963 1.529,0.967 1.5,0 -0.083,-2.751 -2.468,-4.498 -5.081,-4.587 -0.966,-0.033 -0.964,1.467 0,1.5 z"
   id="path35" />
			</g>
		</g><path
   style="fill:#eda585"
   d="m 296.3,223.767 c 0.509,1.33 1.717,1.706 2.753,2.494 0.924,0.703 1.557,1.734 1.844,2.85 0.264,1.024 0.309,2.089 0.477,3.133 1.237,-0.096 2.473,-0.192 3.71,-0.288 0.086,-0.007 0.178,-0.016 0.245,-0.069 0.081,-0.064 0.105,-0.175 0.122,-0.277 0.166,-1.037 0.02,-2.097 0.079,-3.146 0.093,-1.669 1.282,-2.704 1.624,-4.285 0.43,-1.993 -0.849,-3.927 -2.166,-5.484 -0.899,-1.062 -2.063,-2.172 -3.448,-2.042 -0.943,0.088 -1.725,0.74 -2.439,1.363 -0.86,0.748 -1.733,1.513 -2.328,2.485 -0.597,0.971 -0.881,2.201 -0.473,3.266 z"
   id="path37" /><path
   style="fill:#eda585"
   d="m 304.223,220.21 c -0.056,0.441 -0.219,0.86 -0.402,1.264 -0.357,0.788 -0.792,1.541 -1.296,2.244 -0.665,0.926 -1.613,1.835 -2.751,1.777 -0.684,-0.035 -1.294,-0.419 -1.869,-0.79 -0.548,-0.354 -1.136,-0.761 -1.311,-1.389 -0.126,-0.453 -0.008,-0.938 0.15,-1.381 0.304,-0.852 0.754,-1.644 1.251,-2.4 0.528,-0.803 1.123,-1.583 1.901,-2.147 0.835,-0.605 2.092,-1.15 2.903,-0.331 0.841,0.851 1.584,1.886 1.424,3.153 z"
   id="path39" /><path
   style="fill:#f9c867"
   d="m 307.018,232.928 c -0.013,-0.042 -0.027,-0.085 -0.04,-0.127 -0.29,-0.918 -0.6,-1.846 -1.154,-2.634 -0.553,-0.788 -1.391,-1.428 -2.349,-1.521 -0.392,-0.038 -0.801,0.02 -1.143,0.216 -0.575,0.33 -0.873,0.983 -1.099,1.607 -1.839,5.079 -1.259,11.169 -0.259,16.364 0.453,2.353 1.056,4.801 2.667,6.575 1.166,1.284 3.74,2.635 5.377,1.412 1.466,-1.096 1.148,-3.651 1.022,-5.208 -0.46,-5.695 -1.311,-11.227 -3.022,-16.684 z"
   id="path40" /><path
   style="fill:#ffffff"
   d="m 238.747,254.232 h 38.53 c 4.709,0 8.526,-3.817 8.526,-8.526 v 0 h -55.582 v 0 c 0,4.708 3.817,8.526 8.526,8.526 z"
   id="path41" /><path
   style="fill:#ffffff;stroke-width:0.932305"
   d="m 315.99874,254.232 h 33.49003 c 4.09303,0 7.41074,-3.817 7.41074,-8.526 v 0 H 308.588 v 0 c 8.7e-4,4.708 3.31858,8.526 7.41074,8.526 z"
   id="path42" /><path
   style="fill:#a0c57e;stroke-width:1.57426"
   d="M 455.7869,306.43662 V 294.9994 c 0,-2.53067 -0.96851,-4.5804 -2.16426,-4.5804 h -65.34538 c -1.19576,0 -2.16426,2.04973 -2.16426,4.5804 v 11.43722 c 0,2.52837 0.9685,4.58038 2.16426,4.58038 h 65.34538 c 1.19467,0 2.16426,-2.05201 2.16426,-4.58038 z"
   id="path43" /><rect
   x="-457.94629"
   y="-314.6026"
   transform="scale(-1)"
   style="fill:#a35f4f"
   width="71.833"
   height="8.0830002"
   id="rect43" /><path
   style="fill:#a0c57e"
   d="m 460.618,244.51 h 4.994 c 1.105,0 2,-0.895 2,-2 v -15.574 c 0,-1.105 -0.895,-2 -2,-2 h -4.994 c -1.105,0 -2,0.895 -2,2 v 15.574 c 0,1.105 0.896,2 2,2 z"
   id="path44" /><path
   style="fill:#a35f4f"
   d="m 468.946,224.936 c 0.167,12 -1.333,52.836 -11,81.583 -4.788,2.917 -9.667,0 -9.667,0 0,0 16.167,-57.75 15.667,-81.583 2.5,0 5,0 5,0 z"
   id="path45" /><path
   style="fill:#d49377"
   d="m 338.255,369.838 c 0.168,-2.305 0.611,-4.589 1.314,-6.772 0.057,-0.176 0.123,-0.364 0.265,-0.466 0.129,-0.094 0.293,-0.097 0.447,-0.096 2.804,0.015 5.605,0.279 8.368,0.788 0.444,0.082 0.904,0.178 1.265,0.473 1.335,1.094 0.113,5.343 -0.065,6.852 -0.056,0.475 -0.122,0.977 -0.397,1.349 -0.799,1.083 -2.86,0.504 -3.935,0.506 -1.807,0.002 -3.613,-0.06 -5.416,-0.185 -0.38,-0.026 -0.774,-0.06 -1.103,-0.269 -0.545,-0.347 -0.79,-1.535 -0.743,-2.18 z"
   id="path46" /><path
   style="fill:#2a3338"
   d="m 358.571,284.037 c -4.265,0.507 -8.578,1.525 -10.964,5.59 -3.274,5.579 1.057,10.991 5.487,13.842 5.06,3.256 10.367,3.426 16.09,3.477 13.691,0.121 27.373,-0.428 41.017,-1.67 7.297,-0.664 17.25,-1.055 22.998,-6.573 4.731,-4.542 3.92,-12.233 -0.751,-16.47 -5.431,-4.927 -12.993,-4.418 -19.595,-4.027 -10.108,0.599 -20.289,1.609 -30.321,3.081 -6.41,0.94 -12.862,1.476 -19.288,2.26 -1.481,0.181 -3.074,0.3 -4.673,0.49 z"
   id="path47" /><path
   style="fill:#2a3338"
   d="m 336.502,361.419 c -0.043,0.256 -0.484,3.022 -0.383,3.04 5.977,1.086 11.941,2.243 17.891,3.47 0.514,0.106 2.382,-7.891 2.539,-8.502 3.305,-12.856 5.795,-26.309 6.92,-39.542 0.005,-0.063 0.011,-0.125 0.016,-0.188 0.114,-1.364 0.219,-2.728 0.323,-4.092 0.28,-3.683 0.51,-7.369 0.685,-11.059 0.158,-3.332 0.812,-7.169 -0.348,-10.385 -1.554,-4.308 -5.871,-7.616 -10.449,-7.496 -7.022,0.184 -8.877,7.105 -10.222,12.755 -3.094,12.996 -5.681,55.109 -6.972,61.999 z"
   id="path48" /><path
   style="fill:#4e3e54"
   d="m 342.823,369.577 c 1.632,0 3.263,-0.057 4.894,-0.054 1.151,0.002 3.07,-0.446 3.712,0.91 0.648,1.368 0.617,2.947 0.572,4.46 -0.013,0.434 -0.028,0.88 -0.195,1.28 -0.598,1.432 -2.148,1.527 -3.466,1.74 -1.927,0.312 -3.877,0.461 -5.826,0.533 -7.055,0.26 -14.09,0.6 -21.15,0.743 -0.56,0.011 -1.17,0.007 -1.61,-0.34 -1.799,-1.42 4.389,-3.711 5.283,-4.053 1.886,-0.722 3.823,-1.298 5.745,-1.917 1.552,-0.5 3.185,-0.915 3.923,-2.538 0.309,-0.679 0.474,-1.423 0.855,-2.064 0.67,-1.125 2.019,-1.807 3.322,-1.678 1.303,0.129 2.493,1.06 2.931,2.294 0.059,0.165 0.109,0.342 0.231,0.468 0.192,0.2 0.501,0.215 0.779,0.216 z"
   id="path49" /><path
   style="fill:#eda585"
   d="m 352.38,369.838 c 0.168,-2.305 0.611,-4.589 1.314,-6.772 0.057,-0.176 0.123,-0.364 0.265,-0.466 0.129,-0.094 0.293,-0.097 0.447,-0.096 2.804,0.015 5.605,0.279 8.368,0.788 0.444,0.082 0.904,0.178 1.265,0.473 1.335,1.094 0.113,5.343 -0.065,6.852 -0.056,0.475 -0.122,0.977 -0.397,1.349 -0.799,1.083 -2.86,0.504 -3.935,0.506 -1.807,0.002 -3.613,-0.06 -5.416,-0.185 -0.38,-0.026 -0.774,-0.06 -1.103,-0.269 -0.545,-0.347 -0.79,-1.535 -0.743,-2.18 z"
   id="path50" /><path
   style="fill:#414e54"
   d="m 372.696,284.037 c -4.265,0.507 -8.578,1.525 -10.964,5.59 -3.274,5.579 1.057,10.991 5.487,13.842 5.06,3.256 10.367,3.426 16.09,3.477 13.691,0.121 27.373,-0.428 41.017,-1.67 7.297,-0.664 17.25,-1.055 22.998,-6.573 4.731,-4.542 3.92,-12.233 -0.751,-16.47 -5.431,-4.927 -12.993,-4.418 -19.595,-4.027 -10.108,0.599 -20.289,1.609 -30.321,3.081 -6.41,0.94 -12.862,1.476 -19.288,2.26 -1.481,0.181 -3.074,0.3 -4.673,0.49 z"
   id="path51" /><path
   style="fill:#414e54"
   d="m 350.627,361.419 c -0.043,0.256 -0.484,3.022 -0.383,3.04 5.977,1.086 11.941,2.243 17.891,3.47 0.514,0.106 2.382,-7.891 2.539,-8.502 3.305,-12.856 5.795,-26.309 6.92,-39.542 0.005,-0.063 0.011,-0.125 0.016,-0.188 0.114,-1.364 0.219,-2.728 0.323,-4.092 0.28,-3.683 0.51,-7.369 0.685,-11.059 0.158,-3.332 0.812,-7.169 -0.348,-10.385 -1.554,-4.308 -5.871,-7.616 -10.449,-7.496 -7.022,0.184 -8.877,7.105 -10.222,12.755 -3.094,12.996 -5.681,55.109 -6.972,61.999 z"
   id="path52" /><path
   style="fill:#59dbd1"
   d="m 454.761,258.285 c 0.199,9.041 0.396,18.12 -0.703,27.115 -0.305,2.5 -0.929,4.809 -1.947,7.127 -1.192,2.714 -3.044,2.836 -5.546,1.767 -8.026,-3.431 -16.947,-4.632 -25.139,-7.781 -3.751,-1.442 -8.176,-3.183 -10.393,-6.744 -2.04,-3.276 -1.979,-7.327 -2.209,-11.045 -0.02,-0.318 -0.04,-0.636 -0.063,-0.953 -0.403,-5.49 -0.186,-10.997 -0.158,-16.495 0.029,-5.539 -0.31,-11.004 -0.087,-16.538 0.44,-10.94 1.452,-21.904 4.881,-32.321 1.216,-3.686 3.865,-14.702 9.197,-14.125 5.87,0.635 9.87,7.384 13.06,11.733 5.905,8.05 10.904,17.089 14.202,26.65 3.159,9.157 4.644,19.062 4.842,28.735 0.021,0.957 0.042,1.916 0.063,2.875 z"
   id="path53" /><path
   style="fill:#65516d"
   d="m 356.948,369.577 c 1.632,0 3.263,-0.057 4.894,-0.054 1.151,0.002 3.07,-0.446 3.712,0.91 0.648,1.368 0.617,2.947 0.572,4.46 -0.013,0.434 -0.028,0.88 -0.195,1.28 -0.598,1.432 -2.148,1.527 -3.466,1.74 -1.927,0.312 -3.877,0.461 -5.826,0.533 -7.055,0.26 -14.09,0.6 -21.15,0.743 -0.56,0.011 -1.17,0.007 -1.61,-0.34 -1.799,-1.42 4.389,-3.711 5.283,-4.053 1.886,-0.722 3.823,-1.298 5.745,-1.917 1.552,-0.5 3.185,-0.915 3.923,-2.538 0.309,-0.679 0.474,-1.423 0.855,-2.064 0.67,-1.125 2.019,-1.807 3.322,-1.678 1.303,0.129 2.493,1.06 2.931,2.294 0.059,0.165 0.109,0.342 0.231,0.468 0.192,0.2 0.501,0.215 0.779,0.216 z"
   id="path54" /><path
   style="fill:#eda585"
   d="m 428.667,190.333 c 0.184,0.975 0.965,1.83 0.419,2.828 -0.303,0.556 -0.827,0.951 -1.339,1.323 -3.598,2.611 -7.865,5.018 -12.25,4.281 -0.878,-4.469 -1.755,-8.938 -2.633,-13.408 -0.284,-1.446 0.868,-1.906 1.883,-2.648 3.252,-2.375 7.341,-2.475 11.032,-1.759 0.726,2.41 2.243,5.965 2.888,9.383 z"
   id="path55" /><path
   style="opacity:0.5;fill:#eda585"
   d="m 412.864,185.358 c -0.284,-1.446 0.868,-1.906 1.883,-2.648 3.252,-2.375 7.341,-2.475 11.032,-1.759 0.385,1.278 0.992,2.883 1.574,4.616 -0.563,0.908 -1.216,1.798 -1.993,2.664 -2.805,3.132 -6.606,5.34 -10.695,6.305 -0.599,-3.059 -1.2,-6.118 -1.801,-9.178 z"
   id="path56" /><path
   style="fill:#eda585"
   d="m 428.076,149.406 c 1.671,3.809 1.794,8.09 1.891,12.249 0.189,8.076 0.823,15.757 -4.981,22.236 -3.757,4.193 -9.296,6.734 -14.925,6.845 -1.387,0.027 -2.788,-0.088 -4.114,-0.494 -3.339,-1.021 -5.76,-3.738 -7.495,-6.651 -0.839,-1.41 -1.18,-3.041 -2.548,-3.642 -1.228,-0.538 -2.532,-0.51 -3.771,-0.933 -0.21,-0.072 -0.426,-0.165 -0.559,-0.343 -0.188,-0.251 -0.162,-0.596 -0.118,-0.907 0.298,-2.13 1.023,-4.173 1.536,-6.262 0.841,-3.423 0.551,-7.194 -0.017,-10.651 -0.552,-3.359 -1.398,-6.904 -0.214,-10.23 0.615,-1.726 1.738,-3.23 3.005,-4.553 9.047,-9.444 26.535,-9.832 32.31,3.336 z"
   id="path57" /><path
   style="fill:#1f3749"
   d="m 417.655,135.821 c -3.815,-0.277 -7.739,0.594 -11.302,1.834 -5.31,1.849 -12.206,2.858 -17.918,2.617 -1.631,-0.069 -3.834,-0.29 -5.206,0.809 -2.847,2.281 -0.644,8.096 1.072,10.437 2.322,3.168 6.159,4.665 9.947,5.128 3.308,0.405 6.672,0.154 9.979,-0.143 2.34,-0.21 4.75,-0.271 7.051,-0.697 1.671,-0.309 3.189,-0.741 3.996,1.191 1.426,3.412 0.87,7.201 1.522,10.765 0.309,1.687 0.757,3.413 2.182,4.447 1.341,0.974 2.943,1.584 4.495,2.134 1.568,0.556 1.952,0.821 1.921,2.652 -0.015,0.876 -0.03,1.751 -0.045,2.626 -0.016,0.917 0.014,1.95 0.681,2.581 0.695,0.657 1.862,0.578 2.653,0.04 0.79,-0.538 1.269,-1.425 1.616,-2.316 2.521,-6.481 5.248,-12.772 4.835,-19.92 -0.307,-5.305 -1.537,-10.917 -4.245,-15.54 -2.845,-4.851 -7.549,-8.231 -13.234,-8.645 z"
   id="path58" /><path
   style="fill:#eda585"
   d="m 420.737,164.054 c 1.595,-1.999 4.126,-3.038 6.182,-0.662 2.277,2.632 1.973,6.537 0.474,9.469 -1.372,2.684 -4.825,5.67 -7.191,2.173 -0.675,-0.998 -0.949,-2.213 -1.098,-3.408 -0.229,-1.839 -0.186,-3.748 0.454,-5.486 0.273,-0.74 0.68,-1.46 1.179,-2.086 z"
   id="path59" /><path
   style="fill:#8589af"
   d="m 377.918,191.257 c -0.241,-0.067 -13.167,-3.662 -13.167,-3.662 l -2.13,17.918 8.912,2.479 z"
   id="path60" /><path
   style="fill:#eda585"
   d="m 363.379,196.72 c -0.308,-0.135 -0.64,-0.275 -0.97,-0.212 -1.225,0.234 -2.157,3.273 -2.44,4.306 -0.223,0.813 -0.356,1.666 -0.229,2.499 0.211,1.378 1.127,2.575 2.257,3.392 1.13,0.817 2.464,1.3 3.799,1.705 1.91,0.58 3.862,1.02 5.835,1.321 1.078,0.164 1.666,0.278 2.612,0.824 0.818,0.473 1.66,0.911 2.56,1.209 1.333,0.442 2.821,0.562 4.128,0.048 0.901,-0.355 1.668,-0.989 2.33,-1.696 1.544,-1.65 -0.946,-4.22 -2.13,-5.427 -1.993,-2.03 -3.981,-4.064 -6.035,-6.03 -0.285,0.721 -0.656,1.807 -0.759,1.989 -0.786,-0.285 -1.549,-0.564 -2.369,-0.805 -2.94,-0.862 -5.756,-1.975 -8.589,-3.123 z"
   id="path61" /><path
   style="fill:#4ac6ba"
   d="m 413.083,210.859 c -5.779,8.209 -10.492,17.039 -15.112,25.932 -2.293,4.413 -5.474,10.88 -2.461,15.768 1.23,1.995 3.437,3.165 5.71,3.512 6.07,0.926 10.786,-5.676 14.192,-9.698 4.26,-5.031 7.722,-10.485 10.965,-16.204 3.273,-5.772 7.051,-11.309 8.415,-17.926 0.623,-3.024 0.371,-5.836 -2.249,-7.791 -2.568,-1.916 -6.344,-2.416 -9.395,-1.559 -4.42,1.24 -7.508,4.333 -10.065,7.966 z"
   id="path62" /><path
   style="fill:#4ac6ba"
   d="m 405.448,235.705 c -2.091,-3.401 -4.381,-6.69 -6.611,-9.974 -4.875,-7.178 -10.202,-14.047 -15.624,-20.784 -0.289,-0.359 -0.603,-0.736 -1.04,-0.883 -0.583,-0.196 -1.211,0.067 -1.763,0.337 -2.934,1.439 -5.684,3.25 -8.165,5.376 -0.166,0.142 -0.336,0.293 -0.424,0.492 -0.158,0.355 -0.022,0.766 0.12,1.128 0.83,2.121 1.656,4.259 2.584,6.327 5.395,12.027 13.082,23.186 20.384,34.166 4.233,6.366 17.414,4.356 16.093,-4.628 -0.141,-0.963 -0.508,-1.877 -0.894,-2.771 -1.317,-3.045 -2.919,-5.954 -4.66,-8.786 z"
   id="path63" /><path
   style="fill:#392c3f"
   d="m 399.05,166.751 c -0.062,1.594 0.604,2.914 1.487,2.949 0.883,0.034 1.648,-1.231 1.71,-2.825 0.062,-1.594 -0.604,-2.914 -1.487,-2.949 -0.883,-0.034 -1.648,1.231 -1.71,2.825 z"
   id="path64" /><polygon
   style="fill:#a35f4f"
   points="394.716,314.603 383.382,377.436 389.049,377.436 401.383,314.603 "
   id="polygon65" /><polygon
   style="fill:#6c3834"
   points="386.716,314.603 375.381,377.436 381.048,377.436 393.382,314.603 "
   id="polygon66" /><polygon
   style="fill:#6c3834"
   points="449.622,314.603 460.957,377.436 455.29,377.436 442.956,314.603 "
   id="polygon67" /><polygon
   style="fill:#a35f4f"
   points="457.623,314.603 468.958,377.436 463.29,377.436 450.956,314.603 "
   id="polygon68" /><g
   id="g69">
			<g
   id="g68">
				<path
   style="fill:#1f3749"
   d="m 398.655,161.325 c 1.821,-0.81 4.258,-0.201 5.507,1.253 0.63,0.734 1.687,-0.331 1.061,-1.061 -1.74,-2.027 -4.892,-2.57 -7.325,-1.488 -0.881,0.392 -0.118,1.685 0.757,1.296 z"
   id="path68" />
			</g>
		</g><g
   id="g75">
			<polygon
   style="fill:#6c3834"
   points="182.929,306.52 189.182,306.52 198.182,227.77 191.929,227.77 "
   id="polygon70" />
			<polygon
   style="fill:#6c3834"
   points="148.432,306.52 142.179,306.52 133.179,227.77 139.432,227.77 "
   id="polygon71" />
			<path
   style="fill:#a0c57e"
   d="m 195.415,309.017 v -4.994 c 0,-1.105 -0.895,-2 -2,-2 h -54.833 c -1.105,0 -2,0.895 -2,2 v 4.994 c 0,1.104 0.895,2 2,2 h 54.833 c 1.105,0 2,-0.896 2,-2 z"
   id="path71" />
			
				<rect
   x="136.582"
   y="306.51999"
   transform="rotate(180,165.99855,310.5613)"
   style="fill:#a35f4f"
   width="58.833"
   height="8.0830002"
   id="rect71" />
			<polygon
   style="fill:#a35f4f"
   points="145.266,314.603 133.931,377.436 139.599,377.436 151.932,314.603 "
   id="polygon72" />
			<polygon
   style="fill:#6c3834"
   points="137.265,314.603 125.931,377.436 131.598,377.436 143.932,314.603 "
   id="polygon73" />
			<polygon
   style="fill:#6c3834"
   points="186.807,314.603 198.142,377.436 192.475,377.436 180.141,314.603 "
   id="polygon74" />
			<polygon
   style="fill:#a35f4f"
   points="194.808,314.603 206.142,377.436 200.475,377.436 188.141,314.603 "
   id="polygon75" />
			<path
   style="fill:#a0c57e"
   d="m 135.332,245.77 h 60.697 c 2.209,0 4,-1.791 4,-4 v -12.833 c 0,-2.209 -1.791,-4 -4,-4 h -60.697 c -2.209,0 -4,1.791 -4,4 v 12.833 c 0,2.209 1.791,4 4,4 z"
   id="path75" />
		</g><path
   style="fill:#a0c57e"
   d="m 194.356,213.379 c 5.779,8.209 10.492,17.039 15.112,25.932 2.293,4.413 5.474,10.88 2.461,15.768 -1.23,1.995 -3.437,3.166 -5.71,3.512 -6.07,0.926 -10.786,-5.676 -14.192,-9.699 -4.26,-5.031 -7.722,-10.485 -10.965,-16.204 -3.273,-5.772 -7.051,-11.309 -8.415,-17.926 -0.623,-3.024 -0.371,-5.836 2.249,-7.791 2.568,-1.916 6.344,-2.416 9.395,-1.559 4.42,1.241 7.507,4.334 10.065,7.967 z"
   id="path76" /><path
   style="fill:#a0c57e"
   d="m 138.432,213.379 c -5.779,8.209 -10.492,17.039 -15.112,25.932 -2.293,4.413 -5.474,10.88 -2.461,15.768 1.23,1.995 3.437,3.166 5.71,3.512 6.07,0.926 10.786,-5.676 14.192,-9.699 4.26,-5.031 7.722,-10.485 10.965,-16.204 3.272,-5.772 7.051,-11.309 8.415,-17.926 0.623,-3.024 0.371,-5.836 -2.249,-7.791 -2.568,-1.916 -6.344,-2.416 -9.395,-1.559 -4.42,1.241 -7.507,4.334 -10.065,7.967 z"
   id="path77" /><path
   style="fill:#423946"
   d="m 174.444,368.104 c -2.932,1.723 -5.779,6.041 -4.974,9.716 0.045,0.204 0.104,0.417 0.245,0.562 0.205,0.212 0.521,0.224 0.806,0.224 7.098,-0.002 14.197,-0.004 21.295,-0.005 0.21,0 0.46,-0.024 0.56,-0.221 0.058,-0.113 0.046,-0.251 0.031,-0.38 -0.246,-2.168 -0.656,-4.355 -1.631,-6.274 -1.896,-3.734 -5.866,-5.286 -9.652,-5.203 -2.302,0.051 -4.661,0.394 -6.68,1.581 z"
   id="path78" /><path
   style="fill:#665955"
   d="m 145.166,301.613 c -4.984,-2.761 -5.501,-8.599 -4.626,-13.483 0.491,-2.741 1.851,-5.457 4.257,-7.066 2.836,-1.896 6.571,-1.965 10.047,-1.878 10.326,0.259 20.613,1.26 30.888,2.26 1.187,0.116 2.484,0.281 3.293,1.108 0.647,0.661 0.832,1.602 0.991,2.489 0.479,2.686 0.96,5.407 0.72,8.121 -0.241,2.715 -1.285,5.467 -3.424,7.299 -4.194,3.591 -8.949,3.555 -14.281,3.65 -6.174,0.109 -12.356,0.064 -18.517,-0.366 -3.228,-0.225 -6.559,-0.588 -9.348,-2.134 z"
   id="path79" /><path
   style="fill:#75b377"
   d="m 141.249,246.653 c 0.092,-3.204 0.203,-6.408 0.334,-9.611 0.261,-6.381 0.599,-12.759 1.007,-19.133 0.359,-5.619 1.471,-9.695 6.422,-13.04 3.443,-2.326 7.544,-3.99 11.655,-4.608 7.765,-1.167 16.332,1.758 22.729,6.098 5.789,3.928 6.309,10.773 6.6,17.219 0.339,7.527 0.96,15.036 1.251,22.569 0.374,9.682 0.481,19.511 0.207,29.211 -0.061,2.177 -0.197,4.398 -0.998,6.424 -1.289,3.258 -3.951,4.471 -7.184,5.115 -6.176,1.23 -12.493,1.486 -18.775,1.328 -5.571,-0.14 -12.808,0.368 -18.016,-1.86 -4.696,-2.009 -5.435,-6.416 -5.488,-11.013 -0.111,-9.567 -0.017,-19.135 0.256,-28.699 z"
   id="path80" /><path
   style="fill:#6dbfda"
   d="m 190.77,296.442 c 0.028,1.014 0.032,1.998 0.027,2.927 -0.062,11.77 -0.245,23.538 -0.343,35.309 -0.055,6.555 -1.137,29.65 -1.681,34.831 -4.901,-0.004 -9.802,-0.007 -14.702,-0.011 -0.516,0 -1.062,-0.009 -1.501,-0.292 -0.711,-0.458 -0.883,-1.439 -0.987,-2.305 -2.59,-21.542 -4.755,-43.15 -5.628,-64.877 -0.226,-5.633 -0.84,-12.038 2.044,-17.013 3.058,-5.276 10.589,-7.083 15.633,-5.011 5.83,2.395 6.961,10.018 7.138,16.442 z"
   id="path81" /><path
   style="fill:#423946"
   d="m 156.57,368.104 c 2.932,1.723 5.779,6.041 4.974,9.716 -0.045,0.204 -0.104,0.417 -0.245,0.562 -0.205,0.212 -0.521,0.224 -0.806,0.224 -7.098,-0.002 -14.197,-0.004 -21.295,-0.005 -0.21,0 -0.46,-0.024 -0.56,-0.221 -0.058,-0.113 -0.046,-0.251 -0.031,-0.38 0.246,-2.168 0.656,-4.355 1.631,-6.274 1.896,-3.734 5.866,-5.286 9.652,-5.203 2.302,0.051 4.661,0.394 6.68,1.581 z"
   id="path82" /><path
   style="fill:#6dbfda"
   d="m 140.243,296.442 c -0.028,1.014 -0.032,1.998 -0.027,2.927 0.062,11.77 0.245,23.538 0.343,35.309 0.054,6.555 1.137,29.65 1.681,34.831 4.901,-0.004 9.801,-0.007 14.702,-0.011 0.516,0 1.062,-0.009 1.501,-0.292 0.711,-0.458 0.883,-1.439 0.987,-2.305 2.59,-21.542 4.755,-43.15 5.628,-64.877 0.226,-5.633 0.84,-12.038 -2.044,-17.013 -3.058,-5.276 -10.589,-7.083 -15.633,-5.011 -5.829,2.395 -6.961,10.018 -7.138,16.442 z"
   id="path83" /><path
   style="fill:#eda585"
   d="m 179.912,190.549 c -1.709,0.321 -3.414,-0.315 -3.574,-2.539 -0.075,-1.043 0.272,-2.074 0.725,-3.016 0.554,-1.153 1.295,-2.247 2.333,-2.994 1.038,-0.747 2.406,-1.106 3.628,-0.73 1.03,0.317 1.438,1.146 1.607,2.17 0.39,2.369 -0.726,4.93 -2.762,6.303 -0.587,0.394 -1.272,0.677 -1.957,0.806 z"
   id="path84" /><path
   style="fill:#eda585"
   d="m 147.254,187.348 c 1.628,0.611 3.417,0.278 3.958,-1.885 0.253,-1.015 0.09,-2.089 -0.194,-3.096 -0.347,-1.231 -0.889,-2.437 -1.782,-3.351 -0.893,-0.915 -2.18,-1.504 -3.448,-1.344 -1.069,0.135 -1.614,0.881 -1.956,1.861 -0.792,2.267 -0.135,4.981 1.634,6.684 0.509,0.489 1.135,0.886 1.788,1.131 z"
   id="path85" /><path
   style="fill:#eda585"
   d="m 161.854,189.123 c 2.201,-0.697 4.543,-0.698 6.838,-0.57 1.949,0.108 3.93,0.313 5.725,1.12 -0.312,4.442 -0.572,8.977 -0.72,13.41 -0.015,0.442 -0.038,0.906 -0.344,1.285 -0.396,0.49 -1.171,0.726 -1.905,0.898 -4.382,1.024 -9.25,0.855 -13.485,-0.468 -0.292,-0.091 -0.594,-0.195 -0.779,-0.386 -0.221,-0.227 -0.231,-0.527 -0.232,-0.807 -0.011,-2.024 -0.023,-4.047 -0.033,-6.071 -0.009,-1.71 -0.475,-3.765 0.41,-5.31 0.889,-1.556 2.947,-2.601 4.525,-3.101 z"
   id="path86" /><path
   style="opacity:0.5;fill:#eda585"
   d="m 173.918,199.876 c 0.151,-3.401 0.34,-6.824 0.577,-10.203 -1.795,-0.807 -3.777,-1.012 -5.725,-1.12 -2.295,-0.127 -4.637,-0.127 -6.838,0.57 -1.577,0.5 -3.635,1.544 -4.526,3.1 -0.885,1.545 -0.419,3.6 -0.41,5.31 0.01,2.024 0.022,4.047 0.033,6.071 0,0.025 0.002,0.05 0.002,0.075 6.069,2.814 12.205,1.029 16.887,-3.803 z"
   id="path87" /><path
   style="fill:#eda585"
   d="m 181.648,184.396 c -1.289,4.03 -3.419,7.474 -5.889,10.782 -5.479,7.338 -13.766,9.947 -21.546,4.464 -6.083,-4.288 -7.445,-12.803 -7.658,-20.001 -0.199,-6.752 0.732,-14.685 4.964,-20.059 1.187,-1.507 2.685,-2.617 4.231,-3.554 1.388,-0.841 2.834,-1.559 4.341,-2.031 4.89,-1.533 10.322,-0.319 14.56,3.064 5.822,4.647 9.501,12.98 8.373,21.33 -0.264,1.954 -0.733,3.995 -1.376,6.005 z"
   id="path88" /><g
   style="opacity:0.5"
   id="g89">
			<path
   style="fill:#eda585"
   d="m 163.579,186.165 c -0.491,-0.318 -0.834,-0.794 -1.193,-1.09 -0.351,-0.288 -0.753,-0.48 -1.18,-0.559 -0.841,-0.174 -1.746,0.093 -2.571,0.882 0.035,-0.583 0.399,-1.144 0.917,-1.495 0.516,-0.366 1.217,-0.493 1.85,-0.368 0.63,0.135 1.221,0.496 1.572,1.031 0.349,0.525 0.453,1.049 0.605,1.599 z"
   id="path89" />
		</g><g
   id="g90">
			<path
   style="fill:#392c3f"
   d="m 156.599,177.612 c 0.013,1.473 -0.638,2.674 -1.453,2.681 -0.816,0.007 -1.488,-1.181 -1.501,-2.655 -0.013,-1.473 0.638,-2.674 1.454,-2.681 0.815,-0.007 1.487,1.182 1.5,2.655 z"
   id="path90" />
		</g><g
   id="g91">
			<path
   style="fill:#392c3f"
   d="m 167.66,178.979 c -0.21,1.458 0.275,2.735 1.083,2.851 0.808,0.116 1.632,-0.972 1.842,-2.431 0.21,-1.458 -0.275,-2.735 -1.083,-2.851 -0.808,-0.116 -1.632,0.972 -1.842,2.431 z"
   id="path91" />
		</g><g
   id="g93">
			<g
   id="g92">
				<path
   style="fill:#dfc2c2"
   d="m 159.042,170.659 c -2.241,-1.742 -5.721,-1.593 -7.577,0.674 -0.607,0.741 0.449,1.808 1.061,1.061 1.29,-1.576 3.811,-1.952 5.455,-0.674 0.754,0.585 1.823,-0.469 1.061,-1.061 z"
   id="path92" />
			</g>
		</g><g
   id="g95">
			<g
   id="g94">
				<path
   style="fill:#dfc2c2"
   d="m 168.323,172.487 c 1.598,-0.54 4.159,-0.475 4.927,1.349 0.369,0.876 1.821,0.491 1.446,-0.399 -1.102,-2.617 -4.266,-3.243 -6.772,-2.397 -0.91,0.308 -0.519,1.757 0.399,1.447 z"
   id="path93" />
			</g>
		</g><path
   style="fill:#eda585"
   d="m 163.775,246.977 c -0.333,-0.047 -0.69,-0.093 -0.991,0.056 -1.117,0.554 -1.201,3.731 -1.197,4.802 0.003,0.843 0.103,1.7 0.449,2.469 0.572,1.272 1.775,2.179 3.083,2.663 1.308,0.484 2.723,0.592 4.117,0.625 4.675,0.11 9.368,-0.575 13.818,-2.016 0.12,-0.039 0.247,-0.083 0.33,-0.178 0.11,-0.127 0.114,-0.311 0.113,-0.479 -0.008,-1.353 -0.016,-2.707 -0.023,-4.06 -0.004,-0.7 -0.033,-1.468 -0.5,-1.99 -0.835,-0.932 -2.164,-0.391 -3.163,-0.927 -1.39,-0.745 -2.837,-1.491 -4.227,-2.236 -0.081,0.771 -0.148,1.917 -0.198,2.119 -0.834,-0.064 -1.643,-0.129 -2.498,-0.141 -3.064,-0.043 -6.075,-0.36 -9.113,-0.707 z"
   id="path95" /><path
   style="fill:#a0c57e"
   d="m 202.015,241.065 c -2.399,0.108 -4.8,0.444 -7.181,0.732 -5.203,0.628 -10.381,1.801 -15.519,3.124 -0.274,0.071 -0.564,0.153 -0.773,0.458 -0.277,0.406 -0.33,1.082 -0.355,1.696 -0.134,3.26 -0.019,6.548 0.341,9.76 0.024,0.215 0.051,0.437 0.129,0.614 0.138,0.314 0.392,0.402 0.624,0.461 1.354,0.343 2.715,0.698 4.071,0.93 7.883,1.349 16.004,0.279 23.916,-0.547 4.587,-0.478 7.507,-12.895 2.434,-16.249 -0.544,-0.359 -1.13,-0.499 -1.711,-0.613 -1.982,-0.387 -3.978,-0.456 -5.976,-0.366 z"
   id="path96" /><path
   style="fill:#e8dcdc"
   d="m 183.969,178.878 c 2.644,-6.11 3.625,-13.833 -0.509,-19.552 -1.243,-1.72 -3.408,-2.752 -5.3,-3.593 -2.006,-0.891 -4.121,-1.525 -6.271,-1.959 -3.062,-0.619 -6.189,-0.84 -9.307,-0.899 -6.537,-0.124 -15.067,1.475 -17.109,8.753 -0.555,1.978 -0.764,4.108 -0.992,6.014 -0.577,4.818 0.373,9.726 3.198,13.722 0.872,-1.966 1.28,-3.551 1.021,-5.668 -0.255,-2.08 -0.372,-4.178 -0.343,-6.274 0.029,-2.038 0.073,-4.12 0.96,-5.997 1.481,-3.132 5.525,-3.536 8.574,-3.817 3.195,-0.294 6.417,-0.007 9.587,0.423 2.84,0.385 5.665,0.882 8.338,1.949 2.035,0.813 4.399,2.051 5.376,4.146 1.084,2.327 0.511,5.914 -0.007,8.316 -0.812,3.773 -2.816,7.364 -2.046,11.316 -0.063,-0.323 2.257,-2.55 2.608,-2.972 0.974,-1.174 1.614,-2.504 2.222,-3.908 z"
   id="path97" /><path
   style="fill:#ffffff"
   d="m 159.243,193.597 c -1.688,-0.528 -3.124,-1.76 -4.038,-3.682 0.216,0.454 5.167,0.447 5.848,0.505 1.975,0.17 3.879,0.485 5.886,0.46 -0.275,1.063 -1.263,1.786 -2.265,2.235 -1.882,0.843 -3.777,0.999 -5.431,0.482 z"
   id="path98" /><g
   style="opacity:0.5"
   id="g99">
			<path
   style="fill:#eda585"
   d="m 170.144,169.514 c -2.357,-0.526 -4.666,-1.079 -7.003,-1.573 -1.124,-0.272 -2.284,-0.277 -3.461,-0.193 -1.174,0.096 -2.356,0.275 -3.548,0.469 1.11,-0.474 2.269,-0.851 3.477,-1.05 1.198,-0.209 2.475,-0.239 3.691,0.041 2.351,0.522 4.681,1.223 6.844,2.306 z"
   id="path99" />
		</g><g
   style="opacity:0.5"
   id="g100">
			<path
   style="fill:#eda585"
   d="m 167.35,166.494 c -1.634,-0.299 -3.209,-0.554 -4.812,-0.635 -1.602,-0.1 -3.195,-0.027 -4.853,0.083 1.52,-0.689 3.227,-0.918 4.896,-0.831 1.668,0.105 3.337,0.526 4.769,1.383 z"
   id="path100" />
		</g><g
   id="g106">
			<polygon
   style="fill:#6c3834"
   points="267.45,306.52 273.703,306.52 282.703,227.77 276.45,227.77 "
   id="polygon101" />
			<polygon
   style="fill:#6c3834"
   points="232.953,306.52 226.7,306.52 217.7,227.77 223.953,227.77 "
   id="polygon102" />
			<path
   style="fill:#a0c57e"
   d="m 279.936,309.017 v -4.994 c 0,-1.105 -0.895,-2 -2,-2 h -54.833 c -1.105,0 -2,0.895 -2,2 v 4.994 c 0,1.104 0.895,2 2,2 h 54.833 c 1.105,0 2,-0.896 2,-2 z"
   id="path102" />
			
				<rect
   x="221.103"
   y="306.51999"
   transform="rotate(180,250.51935,310.5613)"
   style="fill:#a35f4f"
   width="58.833"
   height="8.0830002"
   id="rect102" />
			<polygon
   style="fill:#a35f4f"
   points="229.787,314.603 218.452,377.436 224.119,377.436 236.453,314.603 "
   id="polygon103" />
			<polygon
   style="fill:#6c3834"
   points="221.786,314.603 210.452,377.436 216.119,377.436 228.453,314.603 "
   id="polygon104" />
			<polygon
   style="fill:#6c3834"
   points="271.328,314.603 282.663,377.436 276.995,377.436 264.661,314.603 "
   id="polygon105" />
			<polygon
   style="fill:#a35f4f"
   points="279.329,314.603 290.663,377.436 284.996,377.436 272.662,314.603 "
   id="polygon106" />
			<path
   style="fill:#a0c57e"
   d="m 219.853,245.77 h 60.697 c 2.209,0 4,-1.791 4,-4 v -12.833 c 0,-2.209 -1.791,-4 -4,-4 h -60.697 c -2.209,0 -4,1.791 -4,4 v 12.833 c 0,2.209 1.791,4 4,4 z"
   id="path106" />
		</g><path
   style="fill:#e45339"
   d="m 227.87,217.177 c -5.1,7.245 -9.26,15.039 -13.338,22.887 -2.023,3.895 -4.831,9.603 -2.172,13.916 1.085,1.76 3.034,2.794 5.04,3.1 5.357,0.817 9.519,-5.009 12.526,-8.56 3.76,-4.44 6.815,-9.254 9.677,-14.301 2.888,-5.094 6.223,-9.981 7.427,-15.821 0.55,-2.669 0.328,-5.151 -1.985,-6.876 -2.267,-1.691 -5.599,-2.132 -8.292,-1.376 -3.901,1.094 -6.626,3.824 -8.883,7.031 z"
   id="path107" /><path
   style="fill:#e45339"
   d="m 272.05,217.177 c 5.1,7.245 9.26,15.039 13.338,22.887 2.023,3.895 4.831,9.603 2.172,13.916 -1.085,1.76 -3.034,2.794 -5.04,3.1 -5.357,0.817 -9.519,-5.009 -12.526,-8.56 -3.76,-4.44 -6.815,-9.254 -9.677,-14.301 -2.888,-5.094 -6.223,-9.981 -7.427,-15.821 -0.55,-2.669 -0.328,-5.151 1.985,-6.876 2.267,-1.691 5.599,-2.132 8.292,-1.376 3.901,1.094 6.626,3.824 8.883,7.031 z"
   id="path108" /><path
   style="fill:#423946"
   d="m 258.637,368.104 c -2.168,1.723 -4.274,6.041 -3.678,9.716 0.033,0.204 0.077,0.417 0.181,0.562 0.152,0.212 0.385,0.224 0.596,0.224 5.249,-0.002 10.499,-0.004 15.748,-0.005 0.155,0 0.34,-0.024 0.414,-0.221 0.043,-0.113 0.034,-0.251 0.023,-0.38 -0.182,-2.168 -0.485,-4.355 -1.206,-6.274 -1.402,-3.734 -4.338,-5.286 -7.138,-5.203 -1.702,0.051 -3.447,0.394 -4.94,1.581 z"
   id="path109" /><path
   style="fill:#665955"
   d="m 229.687,301.613 c -4.984,-2.761 -5.501,-8.599 -4.626,-13.483 0.491,-2.741 1.851,-5.457 4.257,-7.066 2.836,-1.896 6.571,-1.965 10.047,-1.878 10.326,0.259 20.613,1.26 30.888,2.26 1.187,0.116 2.484,0.281 3.293,1.108 0.647,0.661 0.832,1.602 0.991,2.489 0.479,2.686 0.961,5.407 0.72,8.121 -0.241,2.715 -1.285,5.467 -3.424,7.299 -4.194,3.591 -8.949,3.555 -14.281,3.65 -6.174,0.109 -12.356,0.064 -18.517,-0.366 -3.228,-0.225 -6.559,-0.588 -9.348,-2.134 z"
   id="path110" /><path
   style="fill:#e45339"
   d="m 228.206,249.446 c 0.083,-2.989 0.184,-5.978 0.302,-8.966 0.236,-5.953 0.54,-11.903 0.909,-17.849 0.325,-5.242 1.328,-9.044 5.797,-12.165 3.107,-2.169 6.81,-3.722 10.52,-4.299 7.009,-1.089 14.742,1.64 20.517,5.689 5.226,3.664 5.695,10.05 5.957,16.063 0.306,7.022 0.866,14.027 1.129,21.054 0.338,9.032 0.434,18.201 0.187,27.251 -0.056,2.031 -0.177,4.103 -0.901,5.993 -1.163,3.039 -3.567,4.171 -6.485,4.772 -5.575,1.147 -11.277,1.386 -16.947,1.239 -5.029,-0.131 -11.562,0.343 -16.262,-1.735 -4.239,-1.874 -4.906,-5.986 -4.954,-10.274 -0.1,-8.925 -0.016,-17.851 0.231,-26.773 z"
   id="path111" /><path
   style="fill:#84756e"
   d="m 270.711,296.442 c 0.021,1.014 0.024,1.998 0.02,2.927 -0.046,11.77 -0.181,23.538 -0.254,35.309 -0.04,6.555 -0.84,29.65 -1.243,34.831 -3.624,-0.004 -7.249,-0.007 -10.873,-0.011 -0.382,0 -0.785,-0.009 -1.11,-0.292 -0.526,-0.458 -0.653,-1.439 -0.73,-2.305 -1.916,-21.542 -3.516,-43.15 -4.162,-64.877 -0.167,-5.633 -0.621,-12.038 1.511,-17.013 2.261,-5.276 7.831,-7.083 11.561,-5.011 4.312,2.395 5.149,10.018 5.28,16.442 z"
   id="path112" /><path
   style="fill:#423946"
   d="m 241.418,368.104 c 2.169,1.723 4.274,6.041 3.678,9.716 -0.033,0.204 -0.077,0.417 -0.181,0.562 -0.152,0.212 -0.385,0.224 -0.596,0.224 -5.25,-0.002 -10.499,-0.004 -15.748,-0.005 -0.155,0 -0.34,-0.024 -0.414,-0.221 -0.043,-0.113 -0.034,-0.251 -0.023,-0.38 0.182,-2.168 0.485,-4.355 1.206,-6.274 1.402,-3.734 4.338,-5.286 7.138,-5.203 1.703,0.051 3.447,0.394 4.94,1.581 z"
   id="path113" /><path
   style="fill:#eda585"
   d="m 255.657,207.313 c -0.01,0.419 -0.026,0.858 -0.236,1.217 -0.271,0.464 -0.801,0.688 -1.304,0.85 -3,0.97 -6.333,0.81 -9.232,-0.443 -0.2,-0.086 -0.407,-0.185 -0.534,-0.366 -0.151,-0.215 -0.158,-0.499 -0.159,-0.764 -0.01,-2.616 -0.021,-5.232 -0.031,-7.847 -0.002,-0.396 -0.001,-0.805 0.149,-1.169 0.364,-0.886 1.43,-1.18 2.359,-1.292 2.158,-0.262 6.543,-0.623 8.338,1.041 1.806,1.671 0.704,6.537 0.65,8.773 z"
   id="path114" /><path
   style="fill:#84756e"
   d="m 229.344,296.442 c -0.021,1.014 -0.024,1.998 -0.02,2.927 0.046,11.77 0.181,23.538 0.253,35.309 0.04,6.555 0.84,29.65 1.243,34.831 3.624,-0.004 7.249,-0.007 10.873,-0.011 0.382,0 0.785,-0.009 1.11,-0.292 0.525,-0.458 0.653,-1.439 0.73,-2.305 1.916,-21.542 3.516,-43.15 4.162,-64.877 0.167,-5.633 0.621,-12.038 -1.511,-17.013 -2.261,-5.276 -7.831,-7.083 -11.561,-5.011 -4.311,2.395 -5.148,10.018 -5.279,16.442 z"
   id="path115" /><path
   style="fill:#383734"
   d="m 271.68,182.538 c 0.554,-2.179 0.537,-4.446 0.123,-6.676 -0.357,-1.921 -1.145,-3.939 -2.835,-4.921 -1.108,-0.644 -2.44,-0.746 -3.721,-0.797 -0.267,-0.011 -0.546,-0.017 -0.786,0.101 -0.43,0.212 -0.583,0.74 -0.675,1.21 -0.919,4.704 -0.201,9.711 2.002,13.967 0.404,0.78 0.868,1.55 1.532,2.125 0.452,0.391 1.234,0.88 1.868,0.808 0.742,-0.084 0.928,-0.702 1.234,-1.375 0.641,-1.408 0.88,-2.953 1.258,-4.442 z"
   id="path116" /><path
   style="fill:#eda585"
   d="m 239.296,246.977 c -0.333,-0.047 -0.69,-0.093 -0.991,0.056 -1.117,0.554 -1.201,3.731 -1.197,4.802 0.003,0.843 0.103,1.7 0.449,2.469 0.572,1.272 1.775,2.179 3.083,2.663 1.308,0.484 2.722,0.592 4.117,0.625 4.675,0.11 9.368,-0.575 13.818,-2.016 0.12,-0.039 0.247,-0.083 0.33,-0.178 0.11,-0.127 0.114,-0.311 0.113,-0.479 -0.008,-1.353 -0.016,-2.707 -0.023,-4.06 -0.004,-0.7 -0.033,-1.468 -0.5,-1.99 -0.835,-0.932 -2.164,-0.391 -3.163,-0.927 -1.39,-0.745 -2.837,-1.491 -4.227,-2.236 -0.081,0.771 -0.148,1.917 -0.198,2.119 -0.834,-0.064 -1.643,-0.129 -2.498,-0.141 -3.064,-0.043 -6.076,-0.36 -9.113,-0.707 z"
   id="path117" /><path
   style="fill:#e45339"
   d="m 277.536,243.213 c -2.399,0.083 -4.8,0.34 -7.181,0.561 -5.203,0.481 -10.381,1.38 -15.519,2.394 -0.274,0.054 -0.564,0.117 -0.773,0.351 -0.277,0.311 -0.33,0.829 -0.355,1.299 -0.134,2.498 -0.019,5.018 0.341,7.479 0.024,0.165 0.051,0.335 0.128,0.47 0.138,0.241 0.392,0.308 0.624,0.353 1.354,0.263 2.715,0.535 4.071,0.712 7.883,1.033 16.004,0.213 23.916,-0.419 4.587,-0.367 7.507,-9.882 2.434,-12.452 -0.544,-0.275 -1.13,-0.383 -1.711,-0.47 -1.981,-0.295 -3.978,-0.347 -5.975,-0.278 z"
   id="path118" /><path
   style="opacity:0.5;fill:#eda585"
   d="m 255.605,208.343 c 0.126,-0.319 0.145,-0.681 0.154,-1.03 0.054,-2.236 1.156,-7.102 -0.649,-8.774 -1.796,-1.663 -6.18,-1.302 -8.338,-1.041 -0.929,0.113 -1.995,0.406 -2.359,1.292 -0.15,0.365 -0.151,0.773 -0.149,1.169 0.008,1.946 0.015,3.893 0.023,5.839 0.495,0.334 1.003,0.65 1.54,0.926 2.929,1.509 6.452,2.135 9.778,1.619 z"
   id="path119" /><path
   style="fill:#eda585"
   d="m 236.263,187.789 c 0.498,6.909 3.874,13.749 9.883,16.841 5.879,3.025 14.145,2.506 18.415,-3.68 4.418,-6.401 7.291,-18.157 3.844,-25.333 -0.719,-1.498 -1.801,-2.757 -2.964,-3.891 -1.044,-1.018 -2.166,-1.953 -3.397,-2.707 -3.993,-2.449 -9.07,-2.848 -13.567,-1.222 -6.179,2.234 -11.271,7.94 -12.111,14.868 -0.196,1.621 -0.23,3.362 -0.103,5.124 z"
   id="path120" /><path
   style="fill:#415266"
   d="m 269.083,163.47 c 1.862,0.728 3.709,1.859 4.558,3.67 0.818,1.745 0.502,3.962 -0.772,5.409 -1.251,1.421 -3.219,2.018 -5.111,2.099 -1.891,0.081 -3.769,-0.286 -5.653,-0.471 -4.098,-0.402 -8.273,0.096 -12.178,1.394 -3.168,1.053 -8.128,2.818 -9.408,6.181 -0.319,0.839 -0.397,1.748 -0.438,2.644 -0.096,2.106 0.058,4.22 0.066,6.317 0.003,0.801 0.136,1.479 0.018,2.29 -0.046,0.318 -0.682,3.056 -0.519,3.153 -3.257,-1.97 -5.501,-5.328 -6.759,-8.92 -1.481,-4.227 -2.108,-8.986 -1.298,-13.376 0.805,-4.364 2.939,-7.268 6.818,-9.216 4.665,-2.343 9.881,-3.047 15.047,-3.122 5.151,-0.075 10.773,0.049 15.629,1.948 z"
   id="path121" /><g
   style="opacity:0.5"
   id="g122">
			<path
   style="fill:#eda585"
   d="m 254.673,193.534 c 0.236,-0.519 0.421,-1.02 0.847,-1.484 0.43,-0.473 1.071,-0.737 1.714,-0.772 0.645,-0.025 1.317,0.21 1.77,0.653 0.457,0.427 0.729,1.039 0.672,1.62 -0.691,-0.909 -1.543,-1.314 -2.402,-1.274 -0.433,0.011 -0.86,0.138 -1.253,0.367 -0.4,0.237 -0.814,0.653 -1.348,0.89 z"
   id="path122" />
		</g><path
   style="fill:#eda585"
   d="m 237.891,196.791 c 1.698,0.372 3.422,-0.212 3.648,-2.43 0.106,-1.041 -0.209,-2.081 -0.634,-3.037 -0.519,-1.169 -1.227,-2.285 -2.242,-3.063 -1.015,-0.778 -2.372,-1.178 -3.605,-0.839 -1.039,0.286 -1.472,1.102 -1.671,2.121 -0.461,2.357 0.577,4.949 2.571,6.383 0.575,0.413 1.252,0.716 1.933,0.865 z"
   id="path123" /><path
   style="fill:#392c3f"
   d="m 261.659,187.477 c -0.243,1.453 0.211,2.74 1.016,2.875 0.805,0.135 1.654,-0.934 1.898,-2.387 0.243,-1.453 -0.212,-2.74 -1.016,-2.875 -0.805,-0.134 -1.655,0.934 -1.898,2.387 z"
   id="path124" /><path
   style="fill:#392c3f"
   d="m 251.511,186.676 c -0.021,1.473 -0.7,2.658 -1.515,2.646 -0.816,-0.012 -1.46,-1.215 -1.439,-2.689 0.021,-1.473 0.7,-2.658 1.515,-2.646 0.816,0.012 1.46,1.216 1.439,2.689 z"
   id="path125" /><g
   id="g128">
			<g
   id="g127">
				<path
   style="fill:#415266"
   d="m 267.809,183.282 c -0.918,-2.107 -3.318,-2.916 -5.458,-2.826 -0.962,0.04 -0.967,1.541 0,1.5 1.664,-0.07 3.441,0.426 4.163,2.083 0.384,0.883 1.677,0.12 1.295,-0.757 z"
   id="path127" />
			</g>
		</g><g
   id="g130">
			<g
   id="g129">
				<path
   style="fill:#415266"
   d="m 250.997,179.9 c -2.548,-0.694 -5.285,0.293 -6.202,2.889 -0.322,0.912 1.127,1.304 1.446,0.399 0.64,-1.812 2.652,-2.306 4.357,-1.842 0.933,0.254 1.331,-1.193 0.399,-1.446 z"
   id="path128" />
			</g>
		</g><path
   style="fill:#eda585"
   d="m 199.865,208.608 c 1.985,1.363 3.812,2.848 5.259,4.963 0.463,0.677 1.02,1.119 1.536,1.723 0.623,0.729 0.86,1.741 1.094,2.651 0.415,1.611 0.486,3.288 0.75,4.93 1.946,-0.151 3.892,-0.302 5.839,-0.454 0.135,-0.01 0.28,-0.024 0.386,-0.109 0.127,-0.101 0.166,-0.275 0.192,-0.436 0.262,-1.632 0.032,-3.301 0.124,-4.951 0.074,-1.315 0.678,-2.32 1.167,-3.499 0.708,-1.706 0.332,-4.366 -0.158,-6.104 -0.639,-2.269 -2.121,-4.191 -3.57,-6.051 -0.853,-1.094 -1.938,-2.3 -3.323,-2.208 -0.242,0.016 -0.512,0.096 -0.619,0.314 -0.087,0.177 -0.039,0.388 0.012,0.578 0.379,1.408 0.854,2.789 1.42,4.132 -0.676,-1.602 -2.44,-2.458 -3.852,-3.289 -2.191,-1.289 -4.373,-3.081 -7.007,-3.163 -0.192,-0.006 -0.394,-0.004 -0.561,0.09 -0.39,0.219 -0.377,0.775 -0.313,1.217 -0.674,-0.227 -1.391,-0.326 -2.102,-0.292 -0.23,0.011 -0.466,0.039 -0.666,0.154 -0.31,0.179 -0.474,0.545 -0.501,0.902 -0.028,0.357 0.06,0.711 0.147,1.058 -0.436,-0.164 -0.983,0.101 -1.126,0.545 -0.097,0.304 -0.02,0.636 0.093,0.934 0.168,0.444 0.414,0.859 0.724,1.22 -0.228,-0.018 -0.42,0.196 -0.463,0.42 -0.043,0.224 0.025,0.453 0.092,0.672 0.264,0.858 1.065,1.176 1.794,1.662 1.236,0.825 2.461,1.587 3.632,2.391 z"
   id="path130" /><path
   style="fill:#e45339"
   d="m 217.636,221.726 c -0.078,-0.329 -0.157,-0.658 -0.236,-0.987 -0.21,-0.874 -0.413,-1.749 -0.629,-2.622 -0.212,-0.859 -0.151,-1.246 -0.962,-1.415 -0.881,-0.184 -9.396,0.395 -9.395,1.295 0.008,8.655 -0.183,17.13 1.461,25.669 0.713,3.703 1.661,7.556 4.197,10.347 1.836,2.021 5.886,4.147 8.462,2.222 2.307,-1.725 1.807,-5.745 1.609,-8.196 -0.724,-8.95 -2.443,-17.608 -4.507,-26.313 z"
   id="path131" /><path
   style="fill:#ffffff;stroke-width:1.11519"
   d="m 151.80837,254.43973 h 38.53 c 4.709,0 8.526,-4.74698 8.526,-10.60328 v 0 h -55.582 v 0 c 0.001,5.85506 3.818,10.60328 8.526,10.60328 z"
   id="path132" /><path
   style="fill:#ffffff;stroke-width:1.18687"
   d="m 227.25902,255.02861 h 45.72996 c 5.58896,0 10.11922,-4.53027 10.11922,-10.11922 v 0 h -65.9684 v 0 c 0,5.58777 4.53026,10.11922 10.11922,10.11922 z"
   id="path133" /><polygon
   style="fill:#6c3834"
   points="114.657,314.603 125.992,377.436 120.324,377.436 107.99,314.603 "
   id="polygon133" /><path
   style="fill:#dd915e"
   d="m 111.949,188.371 c 0.208,0.45 0.137,0.981 -0.022,1.451 -0.159,0.469 -0.401,0.909 -0.534,1.387 -0.094,0.337 -0.133,0.688 -0.223,1.026 -0.358,1.343 -1.706,2.438 -3.083,2.245 -1.355,-0.19 -2.352,-1.587 -2.307,-2.955 0.056,-1.743 1.35,-2.652 2.594,-3.6 1.082,-0.825 2.916,-0.979 3.575,0.446 z"
   id="path135" /><path
   style="fill:#a0c57e"
   d="m 50.874,309.017 v -4.994 c 0,-1.105 0.895,-2 2,-2 h 60.386 c 1.105,0 2,0.895 2,2 v 4.994 c 0,1.104 -0.895,2 -2,2 H 52.874 c -1.104,0 -2,-0.896 -2,-2 z"
   id="path136" /><rect
   x="43.426998"
   y="306.51999"
   style="fill:#a35f4f"
   width="71.833"
   height="8.0830002"
   id="rect136" /><path
   style="fill:#a0c57e"
   d="M 40.754,244.51 H 35.76 c -1.105,0 -2,-0.895 -2,-2 v -15.574 c 0,-1.105 0.895,-2 2,-2 h 4.994 c 1.105,0 2,0.895 2,2 v 15.574 c 0,1.105 -0.895,2 -2,2 z"
   id="path137" /><path
   style="fill:#326d67"
   d="m 117.51,331.394 c 2.652,-8.78 5.604,-17.467 8.727,-26.091 0.803,-2.222 1.616,-4.443 2.544,-6.616 3.459,-8.095 11.81,-25.506 23.141,-17.443 8.135,5.791 0.849,18.104 -2.901,24.232 -3.638,5.946 -12.244,20.248 -19.77,32.835"
   id="path138" /><path
   style="fill:#d49377"
   d="m 129.252,338.311 c -7.209,12.056 -16.80538,27.75245 -16.71838,27.80845 -2.41,-1.533 -1.27762,-8.27545 -3.54262,-10.03545 0.498,0.387 4.202,-10.562 4.476,-11.467 1.215,-4.017 2.468,-7.954 3.672,-11.986 0.123,-0.413 0.247,-0.825 0.372,-1.237"
   id="path139"
   sodipodi:nodetypes="cccccc" /><path
   style="fill:#a35f4f"
   d="m 32.427,224.936 c -0.167,12 1.333,52.836 11,81.583 4.788,2.917 9.667,0 9.667,0 0,0 -16.167,-57.75 -15.667,-81.583 -2.5,0 -5,0 -5,0 z"
   id="path141" /><path
   style="fill:#326d67"
   d="m 141.928,277.501 c 4.294,0.054 8.691,0.61 11.493,4.401 3.845,5.202 0.109,11.041 -3.995,14.344 -4.688,3.772 -9.947,4.501 -15.633,5.156 -13.602,1.566 -27.265,2.465 -40.964,2.671 -7.327,0.11 -17.265,0.772 -23.564,-4.108 -5.184,-4.017 -5.19,-11.75 -0.993,-16.457 4.881,-5.473 12.453,-5.765 19.061,-6.073 10.115,-0.472 20.346,-0.542 30.477,-0.138 6.473,0.258 12.945,0.11 19.419,0.211 1.492,0.023 3.089,-0.027 4.699,-0.007 z"
   id="path142" /><path
   style="fill:#3d867d"
   d="m 128.677,284.037 c 4.265,0.507 8.578,1.525 10.964,5.59 3.274,5.579 -1.057,10.991 -5.487,13.842 -5.06,3.256 -10.367,3.426 -16.09,3.477 -13.691,0.121 -27.373,-0.428 -41.017,-1.67 -7.298,-0.664 -17.25,-1.055 -22.998,-6.573 -4.731,-4.542 -3.92,-12.233 0.751,-16.47 5.431,-4.927 12.993,-4.418 19.595,-4.027 10.108,0.599 20.289,1.609 30.321,3.081 6.41,0.94 12.862,1.476 19.288,2.26 1.481,0.181 3.073,0.3 4.673,0.49 z"
   id="path143" /><path
   style="fill:#1f3749"
   d="m 90.173,168.58 c 0.899,-3.211 1.695,-6.454 2.279,-9.738 0.292,-1.639 0.54,-3.289 0.706,-4.945 0.133,-1.326 -0.414,-2.761 0.059,-4.033 0.473,-1.269 1.908,-1.976 3.262,-1.985 1.354,-0.009 2.644,0.543 3.86,1.139 2.256,1.105 4.458,2.43 6.113,4.319 4.539,5.184 2.177,10.564 -1.258,15.868 -2.685,4.147 -5.45,7.913 -7.331,12.497 -2.26,5.508 -5.731,13.269 -13.181,11.532 -3.854,-0.899 -0.564,-5.036 0.223,-7.626 1.727,-5.685 3.665,-11.305 5.268,-17.028 z"
   id="path144" /><path
   style="fill:#3d867d"
   d="m 133.006,347.484 c -2.702,-8.765 -5.104,-17.62 -7.329,-26.517 -0.574,-2.292 -1.141,-4.588 -1.583,-6.909 -1.65,-8.647 -4.444,-27.754 9.458,-27.392 9.983,0.262 10.813,14.545 11.124,21.723 0.302,6.964 1.149,23.634 1.933,38.278"
   id="path145" /><path
   style="fill:#eda585"
   d="m 146.609,346.666 c 0.751,14.027 1.446,26.195 1.549,26.193 -2.855,0.073 -5.572,0.06 -8.434,-0.135 0.629,0.043 -2.411,-11.108 -2.69,-12.012 -1.235,-4.011 -2.393,-7.977 -3.646,-11.994 -0.128,-0.411 -0.256,-0.822 -0.383,-1.234"
   id="path146" /><path
   style="fill:#eda585"
   d="m 120.621,194.087 c 0.03,-0.011 0.06,-0.021 0.09,-0.031 1.045,-0.355 2.287,-0.324 3.156,0.357 0.323,0.253 0.581,0.584 0.912,0.827 0.473,0.348 1.059,0.495 1.608,0.703 1.181,0.448 2.221,1.196 3.245,1.935 0.28,0.202 0.569,0.414 0.739,0.716 0.163,0.289 0.199,0.631 0.212,0.962 0.134,3.49 -2.232,5.167 -3.648,7.939 -1.621,3.174 -3.798,6.127 -6.216,8.736 -0.086,0.093 -0.179,0.189 -0.301,0.224 -0.161,0.046 -0.33,-0.027 -0.482,-0.099 -1.224,-0.576 -2.449,-1.153 -3.673,-1.729 -0.633,-0.298 -1.318,-0.648 -1.595,-1.291 -0.494,-1.15 0.556,-2.128 0.49,-3.26 -0.088,-1.521 0.003,-3.269 -0.269,-4.753 -0.315,-1.718 -1.079,-3.232 -1.198,-5.029 -0.027,-0.413 -0.033,-0.849 0.162,-1.215 0.161,-0.302 0.439,-0.52 0.71,-0.73 1.111,-0.859 2.223,-1.719 3.334,-2.578 0.849,-0.654 1.717,-1.321 2.724,-1.684 z"
   id="path147" /><path
   style="fill:#ffde59"
   d="m 92.876,241.782 c 1.777,-3.575 3.762,-7.056 5.689,-10.527 4.211,-7.586 8.899,-14.907 13.694,-22.103 0.256,-0.384 0.534,-0.787 0.956,-0.973 0.563,-0.248 1.213,-0.042 1.787,0.178 3.051,1.17 5.953,2.726 8.615,4.621 0.178,0.127 0.361,0.261 0.467,0.452 0.189,0.34 0.09,0.761 -0.018,1.135 -0.637,2.187 -1.267,4.39 -2.005,6.534 -2.498,7.252 -5.766,14.213 -9.277,21.024 -2.79,5.413 -5.679,13.561 -12.324,15.205 -2.702,0.669 -5.727,0.057 -7.853,-1.739 -4.811,-4.065 -1.997,-9.247 0.269,-13.807 z"
   id="path148" /><path
   style="fill:#ffde59"
   d="m 50.141,262.793 c -0.319,3.675 -0.658,7.618 -0.866,11.403 -0.196,3.577 -0.993,7.909 0.664,11.222 2.088,4.15 8.827,2.55 12.605,2.234 5.683,-0.474 11.301,-1.745 16.631,-3.775 3.35,-1.276 5.957,-3.305 9.029,-5.011 0.885,-0.491 1.972,-0.525 2.553,-1.415 0.877,-1.343 -0.183,-3.131 -0.816,-4.314 -3.824,-7.155 -6.27,-17.28 -3.072,-25.057 2.282,-5.547 7.374,-9.719 8.542,-15.763 1.123,-5.812 -1.849,-11.515 -4.143,-16.971 -2.002,-4.762 -2.973,-11.577 -7.913,-14.349 -1.522,-0.854 -3.187,-1.486 -4.783,-2.191 -1.77,-0.783 -3.724,-1.581 -5.586,-1.053 -0.731,0.207 -1.391,0.608 -2.024,1.027 -2.237,1.48 -3.677,3.105 -5.247,5.245 -6.733,9.179 -12.588,19.776 -13.913,31.264 -0.87,7.546 -0.449,15.179 -1.216,22.744 -0.157,1.585 -0.307,3.172 -0.445,4.76 z"
   id="path149" /><path
   style="fill:#32386d"
   d="m 145.426,369.544 c -1.701,0.001 -3.365,0.074 -5.081,0.151 -0.194,0.009 -0.392,0.018 -0.572,0.091 -0.227,0.092 -0.403,0.278 -0.554,0.472 -1.417,1.829 -4.64149,7.92071 -3.76549,9.96071 0.467,1.086 5.83235,1.07367 6.88635,1.21567 1.612,0.217 1.76814,-3.04838 3.39314,-2.98838 3.893,0.144 7.784,0.312 11.676,0.457 1.972,0.074 3.944,0.142 5.917,0.198 0.563,0.016 4.975,0.537 3.631,-0.968 -0.22,-0.246 -0.539,-0.374 -0.849,-0.489 -2.213,-0.816 -4.53,-1.32 -6.768,-2.065 -2.095,-0.698 -4.113,-1.605 -6.127,-2.51 -0.986,-0.443 -1.988,-0.897 -2.796,-1.615 -0.678,-0.603 -1.384,-1.24 -2.198,-1.655 -0.831,-0.426 -1.868,-0.256 -2.793,-0.255 z"
   id="path150"
   sodipodi:nodetypes="ccscccccscccsccc" /><path
   style="fill:#eda585"
   d="m 73.784,195.736 c -0.17,0.9 -0.891,1.69 -0.387,2.612 0.28,0.513 0.764,0.878 1.237,1.222 3.323,2.412 7.263,4.634 11.313,3.953 0.81,-4.127 1.621,-8.254 2.431,-12.382 0.262,-1.336 -0.801,-1.76 -1.739,-2.445 -3.003,-2.193 -6.779,-2.286 -10.188,-1.624 -0.671,2.224 -2.072,5.507 -2.667,8.664 z"
   id="path151" /><path
   style="fill:#8589af"
   d="m 148.37,239.297 c 0.25,0 13.667,0 13.667,0 l -2.75,17.833 h -9.25 z"
   id="path152" /><path
   style="fill:#eda585"
   d="m 160.914,248.457 c 0.333,-0.047 0.69,-0.093 0.991,0.056 1.117,0.554 1.201,3.731 1.197,4.802 -0.003,0.843 -0.103,1.7 -0.449,2.469 -0.572,1.272 -1.775,2.179 -3.083,2.663 -1.308,0.484 -2.723,0.592 -4.117,0.625 -4.675,0.11 -9.368,-0.575 -13.818,-2.016 -0.12,-0.039 -0.247,-0.083 -0.33,-0.178 -0.11,-0.127 -0.114,-0.311 -0.113,-0.479 0.008,-1.353 0.016,-2.707 0.023,-4.06 0.004,-0.7 0.033,-1.468 0.5,-1.99 0.835,-0.932 2.164,-0.391 3.163,-0.927 1.39,-0.745 2.837,-1.491 4.227,-2.236 0.081,0.771 0.148,1.917 0.198,2.119 0.834,-0.064 1.643,-0.129 2.498,-0.141 3.064,-0.043 6.075,-0.36 9.113,-0.707 z"
   id="path153" /><path
   style="fill:#f1c743"
   d="m 88.29,214.859 c 5.779,8.209 10.492,17.039 15.112,25.932 2.293,4.413 5.474,10.88 2.461,15.768 -1.23,1.994 -3.437,3.165 -5.71,3.512 -6.07,0.926 -10.786,-5.676 -14.192,-9.698 -4.261,-5.031 -7.722,-10.485 -10.965,-16.204 -3.272,-5.772 -7.051,-11.309 -8.415,-17.926 -0.623,-3.024 -0.371,-5.836 2.249,-7.791 2.568,-1.916 6.344,-2.416 9.395,-1.559 4.42,1.24 7.507,4.333 10.065,7.966 z"
   id="path154" /><path
   style="fill:#f1c743"
   d="m 106.743,242.545 c 3.99,0.108 7.984,0.444 11.944,0.732 8.654,0.628 17.267,1.801 25.813,3.124 0.456,0.071 0.939,0.153 1.285,0.458 0.462,0.406 0.548,1.082 0.59,1.696 0.222,3.26 0.031,6.548 -0.567,9.76 -0.04,0.215 -0.085,0.437 -0.214,0.614 -0.229,0.315 -0.653,0.402 -1.037,0.461 -2.252,0.343 -4.516,0.698 -6.771,0.93 -13.113,1.349 -26.62,0.279 -39.781,-0.547 -7.63,-0.478 -12.486,-12.896 -4.048,-16.249 0.905,-0.359 1.88,-0.499 2.847,-0.613 3.296,-0.387 6.616,-0.455 9.939,-0.366 z"
   id="path155" /><path
   style="opacity:0.5;fill:#eda585"
   d="m 88.377,191.142 c 0.262,-1.336 -0.801,-1.76 -1.739,-2.445 -3.003,-2.193 -6.779,-2.286 -10.188,-1.624 -0.356,1.18 -0.916,2.663 -1.454,4.263 0.519,0.838 1.123,1.66 1.84,2.46 2.591,2.892 6.1,4.932 9.876,5.822 0.555,-2.826 1.11,-5.651 1.665,-8.476 z"
   id="path156" /><path
   style="fill:#eda585"
   d="m 72.274,160.133 c -1.184,3.654 -0.902,7.6 -0.608,11.429 0.572,7.438 0.699,14.555 6.629,19.972 3.839,3.506 9.163,5.329 14.345,4.912 1.277,-0.103 2.553,-0.338 3.734,-0.833 2.974,-1.247 4.948,-3.966 6.273,-6.803 0.846,-1.811 0.996,-3.5 3.197,-3.978 0.988,-0.214 1.892,-1.072 1.867,-2.084 -0.018,-0.734 -0.488,-1.367 -0.892,-1.981 -1.168,-1.772 -1.571,-4.21 -1.69,-6.311 -0.133,-2.357 0.305,-4.7 0.453,-7.045 0.198,-3.138 0.648,-6.473 -0.748,-9.42 -0.724,-1.529 -1.895,-2.807 -3.182,-3.906 -9.182,-7.842 -25.286,-6.584 -29.378,6.048 z"
   id="path157" /><path
   style="fill:#1f3749"
   d="m 80.415,145.678 c 3.915,-0.793 8.095,-0.697 12.41,0.261 6.796,1.509 11.946,5.68 13.941,12.484 0.094,0.322 0.189,0.666 0.094,0.989 -0.098,0.334 -0.38,0.576 -0.655,0.79 -3.61,2.819 -7.369,3.176 -11.645,4.096 -3.628,0.781 -7.382,0.482 -9.724,3.991 -1.302,1.95 -1.68,4.347 -2.289,6.611 -0.707,2.628 -1.754,5.292 -3.434,7.425 -2.355,2.99 -2.219,7.421 -3.622,10.93 -0.151,0.377 -0.352,0.793 -0.738,0.917 -0.434,0.139 -0.876,-0.156 -1.234,-0.438 -4.208,-3.326 -7.999,-7.286 -10.535,-12.013 -8.027,-14.961 1.035,-32.723 17.431,-36.043 z"
   id="path158" /><path
   style="fill:#eda585"
   d="m 79.986,173.767 c -1.375,-1.409 -3.394,-2.009 -4.786,-0.032 -1.542,2.191 -1.009,5.159 0.365,7.289 1.258,1.95 4.132,3.972 5.676,1.111 0.441,-0.816 0.557,-1.768 0.579,-2.695 0.034,-1.426 -0.146,-2.885 -0.77,-4.167 -0.266,-0.544 -0.634,-1.065 -1.064,-1.506 z"
   id="path159" /><path
   style="fill:#e96d59"
   d="m 102.627,190.138 c -0.269,0.33 -0.69,0.513 -1.113,0.564 -0.423,0.051 -0.852,-0.019 -1.266,-0.12 -0.945,-0.233 -1.832,-0.557 -2.579,-1.197 -0.877,-0.752 -1.587,-1.879 -2.163,-2.868 0.824,0.587 1.853,0.814 2.861,0.903 1.008,0.089 2.026,0.055 3.03,0.186 1.251,0.162 2.174,1.375 1.23,2.532 z"
   id="path160" /><path
   style="fill:#392c3f"
   d="m 100.698,173.377 c 0.204,1.459 -0.286,2.734 -1.094,2.846 -0.808,0.113 -1.628,-0.979 -1.832,-2.438 -0.204,-1.459 0.286,-2.734 1.094,-2.846 0.808,-0.113 1.629,0.978 1.832,2.438 z"
   id="path161" /><polygon
   style="fill:#a35f4f"
   points="106.656,314.603 117.991,377.436 112.324,377.436 99.99,314.603 "
   id="polygon162" /><polygon
   style="fill:#6c3834"
   points="51.75,314.603 40.416,377.436 46.083,377.436 58.417,314.603 "
   id="polygon163" /><polygon
   style="fill:#a35f4f"
   points="43.75,314.603 32.415,377.436 38.082,377.436 50.416,314.603 "
   id="polygon164" /><g
   id="g165">
			<g
   id="g164">
				<path
   style="fill:#392c3f"
   d="m 98.941,170.928 c -0.834,0.084 -1.668,0.167 -2.502,0.251 -0.403,0.04 -0.75,0.316 -0.75,0.75 0,0.374 0.344,0.791 0.75,0.75 0.834,-0.084 1.668,-0.167 2.502,-0.251 0.403,-0.04 0.75,-0.316 0.75,-0.75 0,-0.374 -0.345,-0.791 -0.75,-0.75 z"
   id="path164" />
			</g>
		</g><g
   id="g167">
			<g
   id="g166">
				<path
   style="fill:#1f3749"
   d="m 95.017,170.125 c 1.296,-1.467 3.722,-2.122 5.496,-1.302 0.87,0.402 1.633,-0.89 0.757,-1.295 -2.397,-1.108 -5.525,-0.487 -7.314,1.537 -0.637,0.72 0.42,1.785 1.061,1.06 z"
   id="path165" />
			</g>
		</g><rect
   x="-398.8493"
   y="-377.43649"
   transform="scale(-1)"
   style="fill:#6c3834"
   width="9.2620001"
   height="113.086"
   id="rect168" /><rect
   x="-112.6466"
   y="-377.43649"
   transform="scale(-1)"
   style="fill:#6c3834"
   width="9.2629995"
   height="113.086"
   id="rect169" /><path
   style="fill:#8589af"
   d="m 214.613,236.449 c -0.25,0 -14.304,0 -14.304,0 l 2.75,17.833 h 9.25 z"
   id="path169" /><use
   xlink:href="#SVGID_1_"
   style="overflow:visible;fill:#ffffff"
   id="use169" /><g
   clip-path="url(#SVGID_00000120531361596819317740000014396212733914116242_)"
   id="g185">
			
				<line
   style="opacity:0.5;fill:none;stroke:#ef535b;stroke-width:8;stroke-miterlimit:10"
   x1="54.632999"
   y1="258.44901"
   x2="259.711"
   y2="463.526"
   id="line170" />
			
				<line
   style="opacity:0.5;fill:none;stroke:#ef535b;stroke-width:8;stroke-miterlimit:10"
   x1="81.376999"
   y1="231.705"
   x2="286.45401"
   y2="436.78299"
   id="line171" />
			
				<line
   style="opacity:0.5;fill:none;stroke:#ef535b;stroke-width:8;stroke-miterlimit:10"
   x1="108.12"
   y1="204.961"
   x2="313.198"
   y2="410.039"
   id="line172" />
			
				<line
   style="opacity:0.5;fill:none;stroke:#ef535b;stroke-width:8;stroke-miterlimit:10"
   x1="134.864"
   y1="178.218"
   x2="339.94101"
   y2="383.29501"
   id="line173" />
			
				<line
   style="opacity:0.5;fill:none;stroke:#ef535b;stroke-width:8;stroke-miterlimit:10"
   x1="161.60699"
   y1="151.474"
   x2="366.685"
   y2="356.552"
   id="line174" />
			
				<line
   style="opacity:0.5;fill:none;stroke:#ef535b;stroke-width:8;stroke-miterlimit:10"
   x1="188.351"
   y1="124.731"
   x2="393.42801"
   y2="329.80801"
   id="line175" />
			
				<line
   style="opacity:0.5;fill:none;stroke:#ef535b;stroke-width:8;stroke-miterlimit:10"
   x1="215.09399"
   y1="97.987"
   x2="420.172"
   y2="303.065"
   id="line176" />
			
				<line
   style="opacity:0.5;fill:none;stroke:#ef535b;stroke-width:8;stroke-miterlimit:10"
   x1="241.838"
   y1="71.244003"
   x2="446.91599"
   y2="276.32101"
   id="line177" />
			
				<line
   style="opacity:0.5;fill:none;stroke:#ef535b;stroke-width:8;stroke-miterlimit:10"
   x1="241.838"
   y1="463.526"
   x2="446.91599"
   y2="258.44901"
   id="line178" />
			
				<line
   style="opacity:0.5;fill:none;stroke:#ef535b;stroke-width:8;stroke-miterlimit:10"
   x1="215.09399"
   y1="436.78299"
   x2="420.172"
   y2="231.705"
   id="line179" />
			
				<line
   style="opacity:0.5;fill:none;stroke:#ef535b;stroke-width:8;stroke-miterlimit:10"
   x1="188.351"
   y1="410.039"
   x2="393.42801"
   y2="204.961"
   id="line180" />
			
				<line
   style="opacity:0.5;fill:none;stroke:#ef535b;stroke-width:8;stroke-miterlimit:10"
   x1="161.60699"
   y1="383.29501"
   x2="366.685"
   y2="178.218"
   id="line181" />
			
				<line
   style="opacity:0.5;fill:none;stroke:#ef535b;stroke-width:8;stroke-miterlimit:10"
   x1="134.864"
   y1="356.552"
   x2="339.94101"
   y2="151.474"
   id="line182" />
			
				<line
   style="opacity:0.5;fill:none;stroke:#ef535b;stroke-width:8;stroke-miterlimit:10"
   x1="108.12"
   y1="329.80801"
   x2="313.198"
   y2="124.731"
   id="line183" />
			
				<line
   style="opacity:0.5;fill:none;stroke:#ef535b;stroke-width:8;stroke-miterlimit:10"
   x1="81.376999"
   y1="303.065"
   x2="286.45401"
   y2="97.987"
   id="line184" />
			
				<line
   style="opacity:0.5;fill:none;stroke:#ef535b;stroke-width:8;stroke-miterlimit:10"
   x1="54.632999"
   y1="276.32101"
   x2="259.711"
   y2="71.244003"
   id="line185" />
		</g><path
   style="fill:#1f3749"
   d="m 58.261,143.904 c -2.272,4.111 -2.394,9.881 2.119,12.536 2.157,1.269 4.819,1.495 7.271,0.999 4.167,-0.842 8.517,-3.464 10.966,-6.964 0.896,-1.281 1.582,-2.768 1.608,-4.331 0.088,-5.328 -6.814,-9.833 -11.647,-9.598 -4.21,0.206 -8.157,3.449 -10.317,7.358 z"
   id="path186" /><polygon
   style="opacity:0.2;fill:#231f20"
   points="415.755,310.561 409.495,254.232 91.945,254.232 85.684,310.561 99.99,263 401.484,263 "
   id="polygon186"
   inkscape:export-filename="..\large_pngs\dinner.png"
   inkscape:export-xdpi="384"
   inkscape:export-ydpi="384" />

</svg>
