<?xml version="1.0" encoding="UTF-8" standalone="no"?>
<!-- Generator: Adobe Illustrator 27.5.0, SVG Export Plug-In . SVG Version: 6.00 Build 0)  -->

<svg
   version="1.1"
   x="0px"
   y="0px"
   viewBox="0 0 250000 250000"
   xml:space="preserve"
   id="svg289"
   width="250000"
   height="250000"
   xmlns="http://www.w3.org/2000/svg"
   xmlns:svg="http://www.w3.org/2000/svg"><defs
   id="defs289" />
<rect
   x="0"
   style="fill:#00284f"
   width="500"
   height="500"
   id="rect1"
   y="0" />
<path
   style="fill:#f8ff30"
   d="m 426.039,226.286 c 0,0 -5.228,-0.038 -16.145,-16.051 -5.55,-8.14 -14.848,-7.278 -11.791,-3.639 3.057,3.639 5.923,19.07 -2.885,23.059 l 18.022,5.618 z"
   id="path1" /><path
   style="fill:#7fe339"
   d="m 407.796,211.159 c 10.916,16.013 16.143,16.051 16.143,16.051 l -11.24,7.894 -17.479,-5.449 c 8.808,-3.988 5.941,-19.42 2.885,-23.059 -0.581,-0.691 -0.714,-1.282 -0.513,-1.73 2.61,-0.079 7.02,1.626 10.204,6.293 z"
   id="path2" /><path
   style="fill:#f8ff30"
   d="m 417.317,258.158 c 0,0 -5.531,6.955 -19.214,4.627 0,0 10.243,-3.402 9.677,-12.418 l 2.771,1.055 z"
   id="path3" /><path
   style="fill:#7fe339"
   d="m 389.954,248.711 c 0,0 -12.395,-7.709 -26.832,8.279 -2.721,3.012 -4.779,2.841 -4.779,2.841 0,0 9.047,-10.736 9.939,-18.341 0.058,-0.482 0.058,-1.459 0,-1.941 -0.893,-7.605 -9.939,-18.341 -9.939,-18.341 0,0 2.059,-0.171 4.779,2.84 14.438,15.989 26.906,8.211 26.906,8.211 z"
   id="path4" /><path
   style="fill:#5bbd17"
   d="m 378.912,233.857 c 3.265,0.576 5.995,0.205 7.935,-0.325 0.518,0.511 1.764,1.736 3.162,3.054 l -0.055,12.125 c 0,0 -4.004,-2.484 -10.108,-1.701 l -5.659,-7.89 z"
   id="path5" /><path
   style="fill:#f8ff30"
   d="m 423.183,257.923 c 2.695,-14.4 15.491,-12.451 15.725,-12.414 -4.768,6.954 -10.166,10.758 -15.725,12.414 z"
   id="path6" /><g
   id="g8">
					<path
   style="fill:#9cf75c"
   d="m 442.542,239.552 c -20.99381,4.14816 -42.20348,5.59823 -63.977,0 46.325,-33.504 63.977,0 63.977,0 z"
   id="path7" />
					<path
   style="fill:#74e01f"
   d="m 378.565,239.552 h 63.977 c -0.207,0.373 -1.768,3.038 -2.023,3.459 -22.706,37.804 -61.954,-3.459 -61.954,-3.459 z"
   id="path8" />
				</g><path
   style="fill:#ffffff"
   d="m 424.649,236.196 c 0,2.605 2.112,4.717 4.717,4.717 2.605,0 4.717,-2.112 4.717,-4.717 0,-2.605 -2.111,-4.717 -4.717,-4.717 -2.604,10e-4 -4.717,2.112 -4.717,4.717 z"
   id="path9" /><path
   d="m 426.442,236.196 c 0,1.615 1.31,2.924 2.924,2.924 1.615,0 2.924,-1.309 2.924,-2.924 0,-1.615 -1.309,-2.923 -2.924,-2.923 -1.614,0 -2.924,1.308 -2.924,2.923 z"
   id="path10" /><path
   style="fill:#ff6b6e"
   d="m 210.825,175.131 c -0.393,0.181 -0.784,0.371 -1.184,0.562 0.693,-0.299 1.105,-0.522 1.184,-0.562 z"
   id="path18" /><path
   style="fill:#ff6b6e"
   d="m 210.543,185.661 c 0.121,0.051 0.241,0.102 0.362,0.141 -0.099,-0.04 -0.221,-0.09 -0.362,-0.141 z"
   id="path19" /><path
   style="fill:#6530bd"
   d="m 237.648,71.315 c 0,0 -10.219,-3.725 -28.678,-5.467 l 8.357,8.127 -8.357,7.2 c 0,0 19.045,0.081 28.678,-4.141 z"
   id="path63" /><path
   style="fill:#6530bd"
   d="m 278.649,84.553 c 0,0 -9.775,7.07 -13.606,8.115 l -0.177,-8.115 c 0,0 12.414,-4.283 13.783,0 z"
   id="path64" /><path
   style="fill:#6530bd"
   d="m 276.554,63.27 c 0,0 -3.451,-3.62 -15.868,-5.691 l 2.638,5.933 4.718,3.036 h 7.014 z"
   id="path65" /><path
   style="fill:#00d6d9"
   d="m 308.926,74.206 c 0,0 -33.783,-25.076 -76.621,0 0,0 37.962,24.034 76.621,0 z"
   id="path66" /><path
   style="fill:#00b3c0"
   d="m 308.926,74.206 h -76.621 c 0,0 37.962,24.034 76.621,0 z"
   id="path67" /><path
   style="fill:#d400cd"
   d="m 221.107,67.417 2.201,6.093 -2.201,7.046 v 0 c -6.606,0.64 -12.137,0.618 -12.137,0.618 l 8.357,-7.2 -8.357,-8.127 c 4.561,0.432 8.612,0.985 12.137,1.57 z"
   id="path68" /><path
   style="fill:#ffffff"
   d="m 288.976,71.817 c 0,1.724 1.397,3.12 3.123,3.12 1.723,0 3.118,-1.396 3.118,-3.12 0,-1.727 -1.396,-3.124 -3.118,-3.124 -1.727,0 -3.123,1.398 -3.123,3.124 z"
   id="path69" /><path
   d="m 290.162,71.817 c 0,1.068 0.868,1.936 1.937,1.936 1.066,0 1.932,-0.867 1.932,-1.936 0,-1.071 -0.865,-1.935 -1.932,-1.935 -1.069,0 -1.937,0.865 -1.937,1.935 z"
   id="path70" /><path
   style="fill:#6530bd"
   d="m 328.616,269.379 c 0,0 -5.996,-2.186 -16.826,-3.208 l 4.903,4.769 -4.903,4.225 c 0,0 11.175,0.047 16.826,-2.43 z"
   id="path71" /><path
   style="fill:#6530bd"
   d="m 352.674,277.147 c 0,0 -5.735,4.147 -7.983,4.761 l -0.104,-4.761 c 0,0 7.283,-2.514 8.087,0 z"
   id="path72" /><path
   style="fill:#6530bd"
   d="m 351.444,264.658 c 0,0 -2.025,-2.124 -9.311,-3.339 l 1.548,3.482 2.768,1.781 h 4.115 z"
   id="path73" /><path
   style="fill:#00d6d9"
   d="m 370.438,271.075 c 0,0 -19.822,-14.713 -44.957,0 0,0 22.274,14.102 44.957,0 z"
   id="path74" /><path
   style="fill:#00b3c0"
   d="m 370.438,271.075 h -44.957 c 0,0 22.274,14.102 44.957,0 z"
   id="path75" /><path
   style="fill:#d400cd"
   d="m 318.911,267.092 1.291,3.575 -1.291,4.134 v 0 c -3.876,0.376 -7.121,0.363 -7.121,0.363 l 4.903,-4.225 -4.903,-4.769 c 2.676,0.254 5.054,0.578 7.121,0.922 z"
   id="path76" /><path
   style="fill:#ffffff"
   d="m 358.732,269.674 c 0,1.011 0.819,1.83 1.833,1.83 1.01,0 1.829,-0.819 1.829,-1.83 0,-1.013 -0.819,-1.834 -1.829,-1.834 -1.013,0 -1.833,0.821 -1.833,1.834 z"
   id="path77" /><path
   d="m 359.429,269.674 c 0,0.627 0.51,1.136 1.137,1.136 0.625,0 1.133,-0.509 1.133,-1.136 0,-0.629 -0.508,-1.136 -1.133,-1.136 -0.628,0 -1.137,0.507 -1.137,1.136 z"
   id="path78" /><path
   style="fill:#fae711"
   d="m 268.446,238.557 c 0,0 -9.563,-3.485 -26.834,-5.116 l 7.82,7.605 -7.82,6.738 c 0,0 17.823,0.075 26.834,-3.875 z"
   id="path79" /><path
   style="fill:#fae711"
   d="m 306.814,250.945 c 0,0 -9.147,6.614 -12.731,7.593 l -0.165,-7.593 c 0,0 11.615,-4.009 12.896,0 z"
   id="path80" /><path
   style="fill:#fae711"
   d="m 304.854,231.028 c 0,0 -3.23,-3.388 -14.85,-5.325 l 2.469,5.552 4.413,2.84 h 6.564 z"
   id="path81" /><path
   style="fill:#ff9c00"
   d="m 335.145,241.262 c 0,0 -31.612,-23.465 -71.698,0 0,0 35.523,22.489 71.698,0 z"
   id="path82" /><path
   style="fill:#eb9000"
   d="m 335.145,241.262 h -71.698 c 0,0 35.523,22.489 71.698,0 z"
   id="path83" /><path
   style="fill:#dbcc1a"
   d="m 252.969,234.909 2.059,5.702 -2.059,6.592 v 0 c -6.181,0.6 -11.357,0.58 -11.357,0.58 l 7.82,-6.738 -7.82,-7.605 c 4.267,0.404 8.059,0.921 11.357,1.469 z"
   id="path84" /><path
   style="fill:#ffffff"
   d="m 316.477,239.027 c 0,1.612 1.307,2.919 2.924,2.919 1.61,0 2.917,-1.307 2.917,-2.919 0,-1.615 -1.307,-2.925 -2.917,-2.925 -1.618,0 -2.924,1.31 -2.924,2.925 z"
   id="path85" /><path
   d="m 317.588,239.027 c 0,1 0.813,1.812 1.813,1.812 0.996,0 1.807,-0.812 1.807,-1.812 0,-1.003 -0.811,-1.811 -1.807,-1.811 -1.001,0 -1.813,0.808 -1.813,1.811 z"
   id="path86" /><path
   style="fill:#e3ba54"
   d="m 288.944,404.716 c 0,0 -10.912,-3.977 -30.622,-5.84 l 8.925,8.68 -8.925,7.689 c 0,0 20.339,0.085 30.622,-4.422 z"
   id="path87" /><path
   style="fill:#e3ba54"
   d="m 332.729,418.853 c 0,0 -10.439,7.548 -14.528,8.665 l -0.189,-8.665 c 10e-4,0 13.256,-4.575 14.717,0 z"
   id="path88" /><path
   style="fill:#e3ba54"
   d="m 330.493,396.124 c 0,0 -3.687,-3.865 -16.946,-6.076 l 2.817,6.337 5.036,3.24 h 7.49 z"
   id="path89" /><path
   style="fill:#d7e66a"
   d="m 365.06,407.803 c 0,0 -36.075,-26.777 -81.82,0 0,0 40.537,25.663 81.82,0 z"
   id="path90" /><path
   style="fill:#bbcf2b"
   d="m 365.06,407.803 h -81.82 c 0,0 40.537,25.663 81.82,0 z"
   id="path91" /><path
   style="fill:#b38206"
   d="m 271.282,400.553 2.349,6.508 -2.349,7.523 v 0 c -7.054,0.685 -12.96,0.662 -12.96,0.662 l 8.925,-7.689 -8.925,-8.68 c 4.87,0.461 9.198,1.052 12.96,1.676 z"
   id="path92" /><path
   style="fill:#ffffff"
   d="m 343.756,405.253 c 0,1.839 1.491,3.33 3.337,3.33 1.838,0 3.328,-1.491 3.328,-3.33 0,-1.843 -1.49,-3.339 -3.328,-3.339 -1.846,0 -3.337,1.496 -3.337,3.339 z"
   id="path93" /><path
   d="m 345.024,405.253 c 0,1.141 0.927,2.066 2.068,2.066 1.137,0 2.061,-0.926 2.061,-2.066 0,-1.146 -0.925,-2.067 -2.061,-2.067 -1.141,-10e-4 -2.068,0.921 -2.068,2.067 z"
   id="path94" /><path
   style="fill:#ffb15a"
   d="m 206.869,424.63 c 0,0 -8.514,-3.104 -23.893,-4.556 l 6.964,6.772 -6.964,6 c 0,0 15.869,0.066 23.893,-3.45 z"
   id="path95" /><path
   style="fill:#ffb15a"
   d="m 241.032,435.66 c 0,0 -8.145,5.89 -11.335,6.761 l -0.147,-6.761 c -0.001,0 10.341,-3.569 11.482,0 z"
   id="path96" /><path
   style="fill:#ffb15a"
   d="m 239.287,417.927 c 0,0 -2.876,-3.016 -13.222,-4.741 l 2.198,4.944 3.929,2.528 h 5.844 z"
   id="path97" /><path
   style="fill:#e87aaa"
   d="m 266.259,427.039 c 0,0 -28.148,-20.893 -63.84,0 -0.001,0 31.628,20.022 63.84,0 z"
   id="path98" /><path
   style="fill:#d93685"
   d="m 266.259,427.039 h -63.84 c -0.001,0 31.628,20.022 63.84,0 z"
   id="path99" /><path
   style="fill:#ff9029"
   d="m 193.088,421.382 1.833,5.078 -1.833,5.869 v 0 c -5.503,0.534 -10.112,0.517 -10.112,0.517 l 6.964,-6 -6.964,-6.772 c 3.8,0.361 7.177,0.822 10.112,1.308 z"
   id="path100" /><path
   style="fill:#ffffff"
   d="m 249.635,425.05 c 0,1.435 1.165,2.598 2.604,2.598 1.434,0 2.596,-1.163 2.596,-2.598 0,-1.439 -1.162,-2.605 -2.596,-2.605 -1.44,-10e-4 -2.604,1.166 -2.604,2.605 z"
   id="path101" /><path
   d="m 250.625,425.05 c 0,0.89 0.723,1.611 1.614,1.611 0.887,0 1.607,-0.722 1.607,-1.611 0,-0.895 -0.721,-1.613 -1.607,-1.613 -0.89,-0.001 -1.614,0.718 -1.614,1.613 z"
   id="path102" /><g
   id="XMLID_13_">
					<g
   id="g116">
						<path
   style="fill:#7f3f98"
   d="m 134.232,239.145 v 0.014 c -1.348,-0.271 -2.824,-0.52 -4.45,-0.749 l 1.233,-3.931 c 2.177,1.142 3.217,2.769 3.217,4.666 z"
   id="path103" />
						<path
   style="fill:#8850d5"
   d="m 131.015,234.48 -1.233,3.931 c -1.762,-0.25 -3.546,-0.378 -5.343,-0.385 v -5.193 c 2.817,0.235 4.993,0.812 6.576,1.647 z"
   id="path104" />
						<path
   style="fill:#7f3f98"
   d="m 124.439,232.832 v 5.193 c -2.141,-0.021 -4.302,0.114 -6.478,0.378 v -5.571 c 2.448,-0.164 4.602,-0.157 6.478,0 z"
   id="path105" />
						<path
   style="fill:#8850d5"
   d="m 117.962,232.832 v 5.571 c -2.248,0.278 -4.508,0.685 -6.77,1.205 l -1.034,-5.806 c 2.875,-0.492 5.471,-0.813 7.804,-0.97 z"
   id="path106" />
						<path
   style="fill:#7f3f98"
   d="m 110.158,233.802 1.034,5.806 c -1.783,0.414 -3.567,0.892 -5.351,1.42 l -2.417,-5.842 c 2.397,-0.564 4.637,-1.02 6.734,-1.384 z"
   id="path107" />
						<path
   style="fill:#8850d5"
   d="m 103.425,235.186 2.417,5.842 c -1.79,0.528 -3.581,1.113 -5.363,1.733 l -4.23,-5.706 c 2.524,-0.72 4.921,-1.341 7.176,-1.869 z"
   id="path108" />
						<path
   style="fill:#7f3f98"
   d="m 96.248,237.055 4.23,5.706 c -2.012,0.707 -4.023,1.455 -6.014,2.233 l -5.356,-5.756 c 2.497,-0.813 4.872,-1.534 7.14,-2.183 z"
   id="path109" />
						<path
   style="fill:#8850d5"
   d="m 89.108,239.238 5.356,5.756 c -1.519,0.592 -3.031,1.198 -4.53,1.805 l -6.327,-5.693 c 1.891,-0.67 3.725,-1.291 5.501,-1.868 z"
   id="path110" />
						<path
   style="fill:#f8e531"
   d="m 57.458,240.657 c 6.869,-0.492 15.172,5.45 23.04,10.065 -2.454,1.013 -4.864,1.983 -7.211,2.868 z"
   id="path111" />
						<polygon
   style="fill:#8850d5"
   points="73.286,253.59 57.458,266.345 68.978,253.641 57.458,240.657 "
   id="polygon111" />
						<path
   style="fill:#f8e531"
   d="m 73.286,253.59 c 0,0 2.54,1.063 6.756,2.561 -7.805,4.622 -15.379,10.894 -22.584,10.194 z"
   id="path112" />
						<path
   style="fill:#f8e531"
   d="m 107.633,263.762 v 0.008 c -9.195,7.739 -18.961,1.462 -19.481,1.112 0.45,0.071 8.566,1.348 14.716,-2.097 1.562,0.342 3.153,0.671 4.765,0.977 z"
   id="path113" />
						<path
   style="fill:#edd630"
   d="m 97.689,261.543 c 1.676,0.429 3.41,0.843 5.179,1.242 -6.15,3.444 -14.266,2.168 -14.716,2.097 -0.014,-0.007 -0.021,-0.007 -0.021,-0.007 z"
   id="path114" />
						<path
   style="fill:#db357e"
   d="m 80.042,256.15 c -4.216,-1.498 -6.756,-2.561 -6.756,-2.561 h 84.529 c -9.545,13.995 -31.187,13.782 -50.182,10.172 -1.612,-0.306 -3.203,-0.635 -4.765,-0.977 -1.77,-0.399 -3.503,-0.813 -5.179,-1.242 -7.062,-1.796 -13.26,-3.828 -17.647,-5.392 z"
   id="path115" />
						<path
   style="fill:#f9338a"
   d="m 124.439,238.025 c 1.797,0.007 3.581,0.135 5.343,0.385 1.626,0.228 3.103,0.478 4.45,0.749 11.698,2.355 14.003,6.42 23.583,14.431 -28.17633,0 -1.58325,4.07376 -84.529,0 2.347,-0.885 4.758,-1.854 7.211,-2.868 3.083,-1.27 6.235,-2.604 9.437,-3.923 1.498,-0.607 3.011,-1.213 4.53,-1.805 1.991,-0.778 4.002,-1.526 6.014,-2.233 1.783,-0.621 3.573,-1.206 5.363,-1.733 1.784,-0.528 3.567,-1.006 5.351,-1.42 2.261,-0.52 4.522,-0.927 6.77,-1.205 2.175,-0.264 4.337,-0.399 6.477,-0.378 z"
   id="path116" />
					</g>
				</g><path
   style="fill:#ffffff"
   d="m 146.894,251.482 c 0,2.663 -2.16,4.822 -4.823,4.822 -2.664,0 -4.822,-2.159 -4.822,-4.822 0,-2.665 2.158,-4.823 4.822,-4.823 2.663,0 4.823,2.159 4.823,4.823 z"
   id="path117" /><path
   d="m 145.06,251.482 c 0,1.651 -1.339,2.99 -2.989,2.99 -1.652,0 -2.99,-1.339 -2.99,-2.99 0,-1.651 1.338,-2.99 2.99,-2.99 1.65,0.001 2.989,1.339 2.989,2.99 z"
   id="path118" /><path
   style="fill:#267071"
   d="m 184.089,215.467 -2.472,-10.963 c 0,0 21.954,1.442 30.482,3.036 0,0 -17.185,7.995 -28.01,7.927 z"
   id="path119" /><path
   style="fill:#267071"
   d="m 195.935,232.419 c 0,0 -0.506,3.793 0,7.705 0,0 18.151,-6.637 18.485,-6.673 0,-0.001 -14.921,-4.505 -18.485,-1.032 z"
   id="path120" /><path
   style="fill:#267071"
   d="m 177.219,220.652 c 0,0 -16.122,-7.795 -28.109,-7.795 l 6.667,9.5 -5.32,10.323 c 0,0 16.842,-1.963 26.762,-8.288"
   id="path121" /><path
   style="fill:#5d577b"
   d="M 157.417,213.827"
   id="path122" /><path
   style="fill:#2e888a"
   d="m 155.777,222.357 -5.32,10.323 c 0,0 2.881,-0.336 6.96,-1.178 l 3.714,-9.307 -4.883,-8.601 h -0.002 c -2.436,-0.455 -4.859,-0.737 -7.136,-0.737 z"
   id="path123" /><path
   style="fill:#00b3c0"
   d="m 219.654,208.306 c -8.614,-1.523 -16.21,-0.67 -22.584,1.224 3.42139,3.4751 19.11819,2.04251 22.584,-1.224 z"
   id="path124" /><path
   style="fill:#00b3c0"
   d="m 227.401,210.27 c -9.50728,2.52804 -18.81956,7.02549 -32.05656,2.62449 -1.819,-0.604 -3.6958,-0.51067 -6.37144,-0.17649 -8.984,4.452 -14.015,10.148 -14.015,10.148 36.431,25.791 70.419,-0.097 70.419,-0.097 -5.924,-5.894 -11.726,-10.45 -17.976,-12.499 z"
   id="path125" /><path
   style="fill:#00d6e6"
   d="m 227.401,210.27 c -2.663,-0.874 -5.249,-1.523 -7.747,-1.964 -6.374,2.124 -14.281,3.246 -22.584,1.224 -2.972,0.882 -5.677,1.989 -8.096,3.188 1.636,0.29 3.358,0.715 5.177,1.319 13.236,4.401 25.82,0.318 33.25,-3.767 z"
   id="path126" /><path
   style="opacity:0.57;fill:#00b3c0"
   d="m 245.377,222.769 -70.419,0.097 c 36.431,25.79 70.419,-0.097 70.419,-0.097 z"
   id="path127" /><path
   style="fill:#ffffff"
   d="m 231.862,216.875 c 0,2.463 -1.998,4.46 -4.459,4.46 -2.463,0 -4.461,-1.997 -4.461,-4.46 0,-2.463 1.998,-4.46 4.461,-4.46 2.461,0 4.459,1.997 4.459,4.46 z"
   id="path128" /><path
   d="m 229.845,216.875 c 0,1.349 -1.093,2.441 -2.442,2.441 -1.35,0 -2.444,-1.092 -2.444,-2.441 0,-1.35 1.094,-2.442 2.444,-2.442 1.348,0 2.442,1.092 2.442,2.442 z"
   id="path129" /><path
   style="fill:#267071"
   d="m 342.845,305.938 -3.607,-15.996 c 0,0 32.031,2.104 44.477,4.429 -10e-4,-10e-4 -25.076,11.666 -40.87,11.567 z"
   id="path130" /><path
   style="fill:#267071"
   d="m 360.128,330.673 c 0,0 -0.74,5.534 0,11.241 0,0 26.484,-9.684 26.972,-9.736 0,0 -21.77,-6.574 -26.972,-1.505 z"
   id="path131" /><path
   style="fill:#267071"
   d="m 332.818,313.504 c 0,0 -23.523,-11.374 -41.014,-11.374 l 9.729,13.862 -7.764,15.061 c 0,0 24.574,-2.863 39.048,-12.091"
   id="path132" /><path
   style="fill:#5d577b"
   d="M 303.927,303.543"
   id="path133" /><path
   style="fill:#2e888a"
   d="m 301.534,315.992 -7.764,15.061 c 0,0 4.203,-0.49 10.156,-1.718 l 5.418,-13.579 -7.124,-12.552 h -0.003 c -3.555,-0.662 -7.091,-1.074 -10.413,-1.074 z"
   id="path134" /><path
   style="fill:#00b3c0"
   d="m 394.737,295.489 c -12.568,-2.222 -23.652,-0.979 -32.952,1.785 7.1566,5.70411 33.23531,3.33368 32.952,-1.785 z"
   id="path135" /><path
   style="fill:#00b3c0"
   d="m 406.04,298.353 c -13.08101,4.16365 -27.80758,10.33998 -47.12158,3.91898 -2.652,-0.883 -5.93715,-0.69613 -8.94842,-0.34798 -13.109,6.498 -20.449,14.808 -20.449,14.808 53.155,37.632 102.748,-0.141 102.748,-0.141 -8.643,-8.599 -17.11,-15.245 -26.229,-18.238 z"
   id="path136" /><path
   style="fill:#00d6e6"
   d="m 406.04,298.353 c -3.885,-1.276 -7.659,-2.223 -11.303,-2.864 -9.301,3.099 -20.838,4.734 -32.952,1.785 -4.338,1.288 -8.284,2.902 -11.814,4.65 2.387,0.423 4.9,1.044 7.553,1.927 19.313,6.421 37.675,0.465 48.516,-5.498 z"
   id="path137" /><path
   style="opacity:0.57;fill:#00b3c0"
   d="m 432.27,316.592 -102.748,0.141 c 53.155,37.631 102.748,-0.141 102.748,-0.141 z"
   id="path138" /><path
   style="fill:#ffffff"
   d="m 412.549,307.992 c 0,3.594 -2.913,6.508 -6.506,6.508 -3.594,0 -6.509,-2.914 -6.509,-6.508 0,-3.594 2.915,-6.507 6.509,-6.507 3.593,0 6.506,2.913 6.506,6.507 z"
   id="path139" /><path
   d="m 409.606,307.992 c 0,1.968 -1.595,3.563 -3.563,3.563 -1.97,0 -3.566,-1.595 -3.566,-3.563 0,-1.969 1.596,-3.564 3.566,-3.564 1.969,0 3.563,1.595 3.563,3.564 z"
   id="path140" /><path
   style="fill:#a486b0"
   d="m 344.832,215.872 v 0.01 c -3.988,8.741 -15.355,7.648 -15.355,7.648 4.492,-2.456 7.499,-7.088 7.499,-7.088 2.757,-0.122 5.379,-0.318 7.856,-0.57 z"
   id="path141" /><path
   style="fill:#a486b0"
   d="m 326.936,216.488 c 1.915,0.066 3.773,0.084 5.596,0.066 v 0.009 c -3.178,4.577 -9.033,5.184 -9.033,5.184 2.925,-2.924 3.438,-5.249 3.438,-5.249 v -0.01 z"
   id="path142" /><path
   style="fill:#f1f1f1"
   d="m 364.912,204.411 h -0.008 c -4.12,-5.941 -9.293,-9.611 -15.001,-11.629 -0.719,-0.251 -1.446,-0.485 -2.185,-0.681 -15.998,-4.427 -35.528,2.941 -48.045,9.162 -2.308,1.15 -4.371,2.26 -6.137,3.252 -3.885,2.175 -6.305,3.783 -6.538,3.942 -0.009,0.009 -0.017,0.009 -0.017,0.009 0,0 42.497,-0.007 80.57,-0.007 -0.225,-0.497 -1.527,-2.442 -2.639,-4.048 z"
   id="path143" /><path
   style="fill:#e3e3e3"
   d="m 293.536,210.809 c 11.731,3.793 23.156,5.362 33.4,5.679 1.915,0.066 3.773,0.084 5.596,0.066 1.523,-0.009 2.999,-0.056 4.444,-0.112 2.757,-0.122 5.379,-0.318 7.855,-0.57 14.467,-1.439 22.719,-7.414 22.719,-7.414 -17.071,-6.153 -50.61,-5.774 -80.553,-0.001 0,0 0,0.012 -0.003,0.015 2.191,0.855 4.371,1.638 6.542,2.337 z"
   id="path144" /><path
   style="opacity:0.6;fill:#c9c9c9"
   d="m 286.98,208.465 c 0,0 38.352,0 80.57,-0.007 0,0 -8.252,5.975 -22.719,7.414 -2.477,0.252 -5.099,0.448 -7.855,0.57 -1.445,0.056 -2.921,0.104 -4.444,0.112 -1.822,0.018 -3.681,0 -5.596,-0.066 -10.244,-0.317 -21.669,-1.887 -33.4,-5.679 -2.176,-0.7 -4.361,-1.485 -6.556,-2.344 z"
   id="path145" /><path
   style="fill:#8b6799"
   d="m 292.985,196.472 c 0,0 30.011,-24.219 54.732,-4.371 -15.998,-4.427 -35.528,2.941 -48.045,9.162 -0.14,-0.121 -3.286,-2.819 -6.687,-4.791 z"
   id="path146" /><path
   style="fill:#914d90"
   d="m 288.064,194.51 c 0,0 34.418,-27.739 61.839,-1.728 -0.719,-0.251 -1.446,-0.485 -2.185,-0.681 -24.71201,-19.83003 -54.10926,5.49194 -54.732,4.371 -1.692,-0.971 -3.436,-1.764 -4.922,-1.962 z"
   id="path147" /><path
   style="fill:#8b6799"
   d="m 286.98,208.465 c 2.194,0.859 4.38,1.644 6.556,2.344 -7.78,4.194 -16.345,5.624 -22.929,6.006 l 9.508,-8.798 -9.64,-8.92 c 7.052,0.253 16.158,1.457 23.061,5.418 -3.885,2.175 -6.305,3.783 -6.538,3.942 -0.009,0.008 -0.018,0.008 -0.018,0.008 z"
   id="path148" /><path
   style="fill:#914d90"
   d="m 280.73818,208.017 -10.13118,8.798 c -6.482,0.374 -11.041,-0.252 -11.041,-0.252 l 11.21,-8.098 -11.21,-9.07 c 0,0 4.632,-0.522 10.909,-0.299 z"
   id="path149" /><path
   style="fill:#ffffff"
   d="m 361.552,203.736 c 0,2.787 -2.259,5.045 -5.045,5.045 -2.787,0 -5.046,-2.258 -5.046,-5.045 0,-2.786 2.259,-5.044 5.046,-5.044 2.786,-0.001 5.045,2.258 5.045,5.044 z"
   id="path150" /><path
   d="m 359.634,203.736 c 0,1.727 -1.401,3.127 -3.127,3.127 -1.729,0 -3.127,-1.4 -3.127,-3.127 0,-1.725 1.398,-3.126 3.127,-3.126 1.725,0 3.127,1.4 3.127,3.126 z"
   id="path151" /><path
   style="fill:#a486b0"
   d="m 260.936,336.59 v 0.008 c -3.047,6.676 -11.728,5.842 -11.728,5.842 3.431,-1.876 5.728,-5.414 5.728,-5.414 2.106,-0.093 4.109,-0.244 6,-0.436 z"
   id="path152" /><path
   style="fill:#a486b0"
   d="m 247.268,337.06 c 1.462,0.05 2.882,0.064 4.274,0.05 v 0.008 c -2.428,3.495 -6.9,3.959 -6.9,3.959 2.234,-2.233 2.626,-4.009 2.626,-4.009 z"
   id="path153" /><path
   style="fill:#f1f1f1"
   d="m 276.272,327.836 h -0.006 c -3.147,-4.537 -7.098,-7.34 -11.457,-8.882 -0.549,-0.191 -1.105,-0.369 -1.67,-0.52 -12.219,-3.381 -27.136,2.246 -36.695,6.997 -1.763,0.879 -3.339,1.727 -4.687,2.483 -2.967,1.661 -4.815,2.89 -4.994,3.011 -0.007,0.008 -0.014,0.008 -0.014,0.008 0,0 32.458,-0.007 61.538,-0.007 -0.171,-0.378 -1.165,-1.862 -2.015,-3.09 z"
   id="path154" /><path
   style="fill:#e3e3e3"
   d="m 221.757,332.724 c 8.96,2.896 17.686,4.095 25.51,4.337 1.462,0.05 2.882,0.064 4.274,0.05 1.163,-0.006 2.29,-0.042 3.394,-0.085 2.105,-0.093 4.108,-0.243 6,-0.436 11.049,-1.1 17.352,-5.663 17.352,-5.663 -13.039,-4.699 -38.655,-4.409 -61.524,-0.001 0,0 0,0.01 -0.002,0.012 1.673,0.653 3.338,1.252 4.996,1.786 z"
   id="path155" /><path
   style="fill:#8b6799"
   d="m 221.336,321.773 c 0,0 22.921,-18.499 41.803,-3.339 -12.219,-3.381 -27.136,2.246 -36.695,6.997 -0.107,-0.092 -2.51,-2.152 -5.108,-3.658 z"
   id="path157" /><path
   style="fill:#914d90"
   d="m 217.578,320.274 c 0,0 26.288,-21.186 47.232,-1.32 -0.549,-0.191 -1.105,-0.369 -1.67,-0.52 -20.48199,-13.43595 -40.96669,4.03593 -41.803,3.339 -1.293,-0.742 -2.625,-1.347 -3.759,-1.499 z"
   id="path158" /><path
   style="fill:#8b6799"
   d="m 216.75,330.934 c 1.676,0.656 3.345,1.255 5.007,1.79 -5.942,3.202 -12.484,4.294 -17.513,4.587 l 7.262,-6.721 -7.363,-6.813 c 5.386,0.193 12.341,1.113 17.613,4.138 -2.967,1.661 -4.815,2.89 -4.994,3.011 -0.005,0.008 -0.012,0.008 -0.012,0.008 z"
   id="path159" /><path
   style="fill:#914d90"
   d="M 212.16799,330.57164 204.245,337.311 c -4.951,0.285 -8.433,-0.192 -8.433,-0.192 l 8.562,-6.185 -8.562,-6.928 c 0,0 3.538,-0.399 8.332,-0.229 z"
   id="path160" /><path
   style="fill:#ffffff"
   d="m 273.706,327.321 c 0,2.128 -1.726,3.853 -3.854,3.853 -2.128,0 -3.853,-1.725 -3.853,-3.853 0,-2.128 1.726,-3.852 3.853,-3.852 2.128,0 3.854,1.724 3.854,3.852 z"
   id="path161" /><path
   d="m 272.241,327.321 c 0,1.318 -1.07,2.388 -2.389,2.388 -1.319,0 -2.388,-1.069 -2.388,-2.388 0,-1.318 1.068,-2.388 2.388,-2.388 1.319,0.001 2.389,1.07 2.389,2.388 z"
   id="path162" /><path
   style="fill:none"
   d="m 384.262,145.703 c -11.316,0 -19.413,1.033 -25.153,3.068 7.544,3.492 12.781,11.125 12.781,19.986 0,8.695 -5.042,16.212 -12.361,19.79 5.834,2.168 13.887,3.265 24.733,3.265 21.011,0 38.043,-19.191 38.043,-23.054 0,-3.906 -17.033,-23.055 -38.043,-23.055 z"
   id="path163" /><path
   style="fill:#008deb"
   d="m 373.232,172.792 c -2.168,2.181 -5.472,4.432 -9.877,4.432 -8.671,0 -12.999,-2.794 -12.999,-8.466 0,-5.671 4.328,-8.466 12.999,-8.466 3.945,0 7.515,2.361 9.904,4.601"
   id="path164" /><path
   style="fill:#00ffee"
   d="m 392.757,147.609 c -0.075,-0.631 -3.115,-2.46 -9.173,-4.718 -3.639,-1.356 -10.492,-3.2 -11.909,-0.542 -0.391,0.73 0.873,2.07 3.122,3.552 z"
   id="path165" /><g
   id="XMLID_12_">
					<g
   id="g171">
						<path
   style="fill:#35c6f6"
   d="m 422.303,168.757 c 0,2.542 -7.388,11.733 -18.435,17.716 0.45785,-5.793 1.88772,-11.95168 -1.41028,-17.48468 -4.441,-7.425 -4.34005,-14.57632 -0.13072,-18.73832 11.895,5.911 19.976,15.823 19.976,18.507 z"
   id="path166" />
						<g
   id="g169">
							<path
   style="fill:#008deb"
   d="m 372.646,160.098 c -3.035,-5.091 -3.603,-9.804 -3.217,-13.606 -2.883,0.361 -5.425,0.848 -7.669,1.46 -0.934,0.253 -1.818,0.523 -2.657,0.82 0.944,0.433 1.848,0.929 2.703,1.486 6.064,3.921 10.083,10.742 10.083,18.499 0,8.697 -5.045,16.212 -12.362,19.788 1.442,0.542 3.019,1.01 4.739,1.406 4.479,-5.083 14.581,-19.472 8.38,-29.853 z"
   id="path167" />
							<path
   style="fill:#008deb"
   d="m 385.333,145.735 c -0.353,-0.009 -0.711,-0.036 -1.071,-0.036 -2.307,0 -4.479,0.045 -6.532,0.136 -1.207,4.18 -1.622,10.389 2.495,17.282 5.622,9.425 -2.181,22.158 -7.02,28.231 2.243,0.206 4.658,0.342 7.243,0.404 4.805,-5.892 13.112,-18.994 7.355,-28.636 -4.155,-6.955 -3.695,-13.2 -2.47,-17.381 z"
   id="path168" />
							<path
   style="fill:#008deb"
   d="m 404.535,168.469 c -4.441,-7.425 -3.613,-14.057 -2.208,-18.219 -2.055,-1.018 -4.218,-1.919 -6.478,-2.64 -1.756,3.523 -4.452,11.561 1.108,20.859 4.082,6.84 1.089,15.417 -2.713,21.933 3.424,-0.956 6.65,-2.324 9.624,-3.928 2.639,-5.794 3.965,-12.472 0.667,-18.005 z"
   id="path169" />
						</g>
						<path
   style="fill:#35c6f6"
   d="m 380.448,191.752 c 3.55863,-5.78814 10.61926,-18.68241 4.86226,-28.32441 -4.154,-6.956 -1.20126,-13.51259 0.0227,-17.69259 3.659,0.108 7.191,0.801 10.516,1.874 -1.756,3.523 -3.41336,11.561 2.14664,20.859 4.082,6.84 0.0504,15.417 -3.75164,21.933 -3.181,0.884 -6.521,1.406 -9.982,1.406 -1.317,0 -2.579,-0.017 -3.814,-0.055 z"
   id="path170" />
						<path
   style="fill:#35c6f6"
   d="m 364.267,189.951 c 2.29685,-2.59026 13.95682,-19.26427 7.75682,-29.64527 -3.035,-5.091 -2.97982,-10.01173 -2.59382,-13.81373 2.506,-0.315 5.271,-0.531 8.3,-0.657 -1.207,4.18 -0.47949,11.11605 3.63751,18.00905 5.622,9.425 -2.59646,21.63868 -8.16251,27.50395 -3.333,-0.306 -6.308,-0.776 -8.938,-1.397 z"
   id="path171" />
					</g>
					<g
   id="g179">
						<path
   style="fill:none"
   d="m 361.761,147.952 c -0.934,0.253 -1.818,0.523 -2.657,0.82 0.944,0.433 1.848,0.929 2.703,1.486"
   id="path172" />
						<path
   style="fill:none"
   d="m 369.43,146.492 c -2.883,0.361 -5.425,0.848 -7.669,1.46 -0.025,0.74 -0.017,1.514 0.046,2.306 6.064,3.921 10.083,10.742 10.083,18.499 0,8.697 -5.045,16.212 -12.362,19.788 1.442,0.542 3.019,1.01 4.739,1.406"
   id="path173" />
						<path
   style="fill:none"
   d="m 380.448,191.752 c 1.234,0.038 2.497,0.055 3.814,0.055 3.461,0 6.802,-0.522 9.982,-1.406"
   id="path174" />
						<path
   style="fill:none"
   d="m 395.849,147.609 c -3.324,-1.073 -6.856,-1.766 -10.516,-1.874"
   id="path175" />
						<path
   style="fill:none"
   d="m 403.868,186.473 c 11.047,-5.983 18.435,-15.174 18.435,-17.716 0,-2.684 -8.081,-12.596 -19.976,-18.507"
   id="path176" />
						<path
   style="fill:none"
   d="m 403.868,186.473 c 2.639,-5.793 3.965,-12.471 0.667,-18.004 -4.441,-7.425 -3.613,-14.057 -2.208,-18.219 -2.055,-1.018 -4.218,-1.919 -6.478,-2.64 -1.756,3.523 -4.452,11.561 1.108,20.859 4.082,6.84 1.089,15.417 -2.713,21.933 3.424,-0.956 6.65,-2.325 9.624,-3.929 z"
   id="path177" />
						<path
   style="fill:none"
   d="m 377.729,145.835 c -3.029,0.125 -5.794,0.342 -8.3,0.657 -0.387,3.802 0.182,8.515 3.217,13.606 6.2,10.381 -3.901,24.77 -8.38,29.853 2.631,0.621 5.605,1.091 8.938,1.397"
   id="path178" />
						<path
   style="fill:none"
   d="m 380.448,191.752 c 4.805,-5.892 13.112,-18.994 7.355,-28.636 -4.154,-6.956 -3.694,-13.201 -2.47,-17.381 -0.353,-0.009 -0.711,-0.036 -1.071,-0.036 -2.307,0 -4.479,0.045 -6.532,0.136 -1.207,4.18 -1.622,10.389 2.495,17.282 5.622,9.425 -2.181,22.158 -7.02,28.231 2.243,0.206 4.658,0.342 7.243,0.404 z"
   id="path179" />
					</g>
				</g><path
   style="fill:#6f3fa2"
   d="m 358.081,160.741 c -5.145,0.991 -7.725,3.646 -7.725,8.016 0,4.369 2.577,7.023 7.723,8.016 -6.56294,-7.11466 0.004,-15.82371 0.002,-16.032 z"
   id="path181" /><path
   style="fill:#ffffff"
   d="m 415.721,165.157 c 0,2.688 -2.18,4.867 -4.866,4.867 -2.689,0 -4.867,-2.18 -4.867,-4.867 0,-2.687 2.179,-4.866 4.867,-4.866 2.686,0 4.866,2.179 4.866,4.866 z"
   id="path182" /><circle
   cx="410.854"
   cy="165.157"
   r="3.017"
   id="circle182" /><path
   style="fill:none"
   d="m 270.566,352.808 c -8.772,0 -15.047,0.8 -19.496,2.377 5.847,2.707 9.906,8.624 9.906,15.492 0,6.74 -3.908,12.567 -9.581,15.34 4.522,1.682 10.764,2.53 19.171,2.53 16.286,0 29.488,-14.876 29.488,-17.87 0.001,-3.027 -13.202,-17.869 -29.488,-17.869 z"
   id="path183" /><path
   style="fill:#fae966"
   d="m 300.053,370.677 c 0,1.972 -5.726,9.095 -14.288,13.732 2.045,-4.49 3.072,-9.666 0.517,-13.955 -3.442,-5.756 -2.801,-10.896 -1.712,-14.122 9.219,4.582 15.483,12.265 15.483,14.345 z"
   id="path186" /><path
   style="fill:#fae966"
   d="m 267.611,388.502 c 3.724,-4.567 10.163,-14.723 5.7,-22.196 -3.22,-5.392 -2.863,-10.232 -1.914,-13.474 2.836,0.085 5.574,0.622 8.15,1.454 -1.36,2.73 -3.451,8.961 0.859,16.168 3.164,5.302 0.844,11.95 -2.103,17 -2.466,0.685 -5.056,1.09 -7.738,1.09 -1.018,0 -1.998,-0.014 -2.954,-0.042 z"
   id="path190" /><path
   style="fill:#fae966"
   d="m 255.068,387.105 c 3.472,-3.94 11.301,-15.094 6.495,-23.14 -2.353,-3.947 -2.793,-7.6 -2.493,-10.547 1.942,-0.244 4.085,-0.412 6.434,-0.51 -0.936,3.241 -1.258,8.053 1.934,13.396 4.357,7.305 -1.69,17.174 -5.44,21.883 -2.585,-0.237 -4.891,-0.6 -6.93,-1.082 z"
   id="path191" /><g
   id="g199">
						<path
   style="fill:none"
   d="m 253.126,354.551 c -0.725,0.196 -1.409,0.405 -2.06,0.636 0.732,0.335 1.432,0.72 2.095,1.152"
   id="path192" />
						<path
   style="fill:none"
   d="m 259.07,353.419 c -2.234,0.28 -4.205,0.657 -5.944,1.132 -0.02,0.573 -0.013,1.173 0.035,1.788 4.7,3.038 7.816,8.325 7.816,14.338 0,6.741 -3.91,12.567 -9.582,15.338 1.118,0.421 2.34,0.784 3.674,1.091"
   id="path193" />
						<path
   style="fill:none"
   d="m 267.611,388.502 c 0.956,0.028 1.936,0.042 2.955,0.042 2.683,0 5.272,-0.404 7.738,-1.09"
   id="path194" />
						<path
   style="fill:none"
   d="m 279.548,354.286 c -2.576,-0.832 -5.314,-1.369 -8.15,-1.454"
   id="path195" />
						<path
   style="fill:none"
   d="m 285.765,384.409 c 8.563,-4.638 14.288,-11.761 14.288,-13.732 0,-2.08 -6.264,-9.763 -15.483,-14.345"
   id="path196" />
						<path
   style="fill:none"
   d="m 285.765,384.409 c 2.045,-4.49 3.072,-9.666 0.517,-13.955 -3.442,-5.756 -2.801,-10.896 -1.712,-14.122 -1.592,-0.79 -3.269,-1.487 -5.021,-2.046 -1.36,2.73 -3.451,8.961 0.859,16.168 3.164,5.302 0.844,11.95 -2.103,17 2.653,-0.74 5.153,-1.802 7.46,-3.045 z"
   id="path197" />
						<path
   style="fill:none"
   d="m 265.504,352.909 c -2.349,0.098 -4.491,0.266 -6.434,0.51 -0.3,2.947 0.141,6.6 2.493,10.547 4.806,8.046 -3.023,19.199 -6.495,23.14 2.039,0.481 4.345,0.845 6.929,1.083"
   id="path198" />
						<path
   style="fill:none"
   d="m 267.611,388.502 c 3.724,-4.567 10.163,-14.723 5.7,-22.196 -3.22,-5.392 -2.863,-10.232 -1.914,-13.474 -0.273,-0.007 -0.552,-0.026 -0.831,-0.026 -1.787,0 -3.472,0.034 -5.063,0.104 -0.936,3.241 -1.258,8.053 1.934,13.396 4.357,7.305 -1.69,17.174 -5.44,21.883 1.738,0.159 3.61,0.264 5.614,0.313 z"
   id="path199" />
					</g><path
   style="fill:#ffffff"
   d="m 294.951,367.887 c 0,2.083 -1.69,3.773 -3.772,3.773 -2.084,0 -3.772,-1.69 -3.772,-3.773 0,-2.083 1.689,-3.771 3.772,-3.771 2.083,-10e-4 3.772,1.688 3.772,3.771 z"
   id="path202" /><path
   d="m 293.518,367.887 c 0,1.292 -1.048,2.339 -2.338,2.339 -1.292,0 -2.339,-1.047 -2.339,-2.339 0,-1.291 1.047,-2.338 2.339,-2.338 1.29,0 2.338,1.047 2.338,2.338 z"
   id="path203" /><path
   style="fill:#6530bd"
   d="m 148.331,113.946 c 0,0 -10.519,-10.369 -3.545,-23.412 4.208,-7.871 38.564,-38.362 67.171,6.583 l -19.375,14.496 z"
   id="path204" /><path
   style="fill:#6530bd"
   d="m 148.994,125.433 c 0,0 -11.613,22.817 -1.276,26.925 10.338,4.106 34.667,2.839 47.316,-2.086 z"
   id="path205" /><path
   style="fill:#6530bd"
   d="m 197.88,149.935 c 0,0 -1.28,4.32 -6.966,8.426 0,0 12.329,-4.705 15.958,-11.041 z"
   id="path206" /><path
   style="fill:#6530bd"
   d="m 207.907,147.95 c 0,0 -0.904,5.156 -4.05,8.058 0,0 7.309,-5.199 9.083,-10.798 l -3.146,-0.933 z"
   id="path207" /><path
   style="fill:#f9e710"
   d="m 156.716,136.85 c 0,0 -24.284,-21.373 6.934,-39.935 31.218,-18.563 56.453,-4.898 56.549,13.38 0.04,7.281 11.503,8.625 14.877,10.313 0,0 3.607,1.418 -2.25,4.218 -11.506,5.498 -9.861,10.287 -16.377,17.361 -10.727,11.636 -39.948,13.506 -59.733,-5.337 z"
   id="path208" /><path
   style="fill:#f9e710"
   d="m 147.781,117.083 -19.243,-16.14 c 0,0 -5.706,25.983 0,39.327 l 20.456,-14.837 z"
   id="path209" /><path
   style="fill:#f5b810"
   d="m 133.748,136.49 c -3.021,-15.085 0.478,-30.777 0.478,-30.777 v 0 l -5.688,-4.77 c 0,0 -5.706,25.983 0,39.327 z"
   id="path210" /><path
   style="fill:#ffffff"
   d="m 215.302,111.243 c 0,4.086 -3.313,7.396 -7.395,7.396 -4.085,0 -7.395,-3.31 -7.395,-7.396 0,-4.084 3.309,-7.392 7.395,-7.392 4.083,0 7.395,3.309 7.395,7.392 z"
   id="path211" /><path
   d="m 211.956,111.243 c 0,2.237 -1.813,4.05 -4.049,4.05 -2.237,0 -4.05,-1.813 -4.05,-4.05 0,-2.236 1.813,-4.048 4.05,-4.048 2.236,0 4.049,1.812 4.049,4.048 z"
   id="path212" /><path
   style="fill:#f2c700"
   d="m 236.165,121.767 -88.296,-0.88 c 1.176,9.21 8.847,15.963 8.847,15.963 19.786,18.843 49.006,16.974 59.733,5.336 6.516,-7.075 4.87,-11.863 16.377,-17.361 2.794,-1.335 3.432,-2.356 3.339,-3.058 z"
   id="path213" /><path
   style="fill:#6530bd"
   d="m 195.033,95.767 c 0,0 -12.965,26.921 0.706,47.147 0,0 -4.376,-30.56 -0.706,-47.147 z"
   id="path214" /><path
   style="fill:#6530bd"
   d="m 179.432,95.767 c 0,0 -12.963,26.921 0.706,47.147 0,0 -1.87894,-29.38491 -0.706,-47.147 z"
   id="path215" /><path
   style="fill:#71548a"
   d="m 359.56,114.503 c 0,0 -25.365,-41.241 -62.899,-24.508 -3.867,1.724 -11.729,9.071 -3.867,16.497 z"
   id="path245" /><path
   style="fill:#71548a"
   d="m 271.815,120.517 c 0,0 -11.127,4.35 -28.019,-7.222 0,0 7.197,9.046 9.23,11.952 l -10.636,9.474 c 0,0 15.527,-7.857 29.424,-4.242 13.899,3.617 10e-4,-9.962 10e-4,-9.962 z"
   id="path246" /><path
   style="fill:#c69ed9"
   d="m 332.944,149.997 c 0,0 -31.905,22.197 -59.587,-8.769 0,0 6.011,-3.864 12.545,-3.497 z"
   id="path247" /><path
   style="fill:#a65fc7"
   d="m 368.006,127.288 c -0.212,-0.508 -0.325,-0.611 -0.637,-1.238 -3.938,-7.882 -33.2,-59.27 -101.501,-0.621 0,0 50.159,53.189 98.101,7.188 1.435,-1.379 4.447,-4.336 4.037,-5.329 z"
   id="path248" /><path
   style="fill:#ffffff"
   d="m 345.711,116.036 c 0,2.796 2.269,5.066 5.067,5.066 2.796,0 5.064,-2.27 5.064,-5.066 0,-2.796 -2.268,-5.065 -5.064,-5.065 -2.799,-0.001 -5.067,2.269 -5.067,5.065 z"
   id="path252" /><path
   d="m 348,116.036 c 0,1.532 1.243,2.773 2.778,2.773 1.53,0 2.772,-1.241 2.772,-2.773 0,-1.532 -1.241,-2.773 -2.772,-2.773 -1.535,-0.001 -2.778,1.24 -2.778,2.773 z"
   id="path253" /><path
   style="fill:#308fc9"
   d="m 225.649,369.249 c 0,0 -25.303,-41.141 -62.745,-24.448 -3.857,1.72 -11.7,9.049 -3.857,16.457 z"
   id="path255" /><path
   style="fill:#308fc9"
   d="m 138.12,375.248 c 0,0 -11.1,4.339 -27.949,-7.204 0,0 7.179,9.023 9.207,11.922 l -10.609,9.45 c 0,0 15.488,-7.837 29.351,-4.231 13.863,3.608 0,-9.937 0,-9.937 z"
   id="path256" /><path
   style="fill:#c4ebff"
   d="m 199.098,404.656 c 0,0 -31.826,22.141 -59.44,-8.748 0,0 5.996,-3.855 12.514,-3.488 z"
   id="path257" /><path
   style="fill:#7dc0ff"
   d="m 234.073,382.002 c -0.211,-0.508 -0.324,-0.609 -0.635,-1.234 -3.929,-7.863 -33.118,-59.124 -101.251,-0.619 0,0 50.036,53.058 97.859,7.17 1.432,-1.377 4.436,-4.327 4.027,-5.317 z"
   id="path258" /><path
   style="fill:#ffffff"
   d="m 211.833,370.777 c 0,2.789 2.263,5.054 5.055,5.054 2.789,0 5.051,-2.265 5.051,-5.054 0,-2.788 -2.262,-5.053 -5.051,-5.053 -2.792,0.001 -5.055,2.265 -5.055,5.053 z"
   id="path262" /><path
   d="m 214.117,370.777 c 0,1.528 1.24,2.767 2.771,2.767 1.526,0 2.765,-1.238 2.765,-2.767 0,-1.528 -1.238,-2.767 -2.765,-2.767 -1.531,0.001 -2.771,1.239 -2.771,2.767 z"
   id="path263" /><path
   style="fill:#6f3fa2"
   d="m 195.349,269.384 c 19.518,-11.797 -32.563,-11.874 -32.563,-11.874 0,0 67.173,-14.212 113.601,10.236 l -80.571,7.427 z"
   id="path265" /><path
   style="fill:#6f3fa2"
   d="m 195.349,282.492 c 19.518,11.798 -32.563,11.875 -32.563,11.875 0,0 67.879,16.833 114.305,-7.615 l -81.275,-10.046 z"
   id="path266" /><path
   style="fill:#6f3fa2"
   d="m 199.089,271.152 c -16.028,-8.977 -40.129,-2.988 -40.129,-2.988 0,0 13.486,5.448 16.505,8.203 0,0 -9.058,6.251 -16.505,8.328 0,0 22.946,4.694 40.129,-3.542 z"
   id="path267" /><path
   style="fill:#c894ff"
   d="m 268.88,286.211 c -1.035,4.375 -11.813,12.483 -11.813,12.483 0,0 13.576,-2.272 20.504,-13.498 l -5.384,-2.559 c -0.001,10e-4 -2.973,2.176 -3.307,3.574 z"
   id="path268" /><path
   style="fill:#a25aed"
   d="m 187.511,276.166 c 0,0 64.281,-33.691 108.039,3.097 0,0 -43.47,27.612 -108.039,-3.097 z"
   id="path269" /><path
   style="fill:#c894ff"
   d="m 210.452,273.823 2.093,-7.053 c -1.468,0.403 -2.894,0.817 -4.266,1.238 0.412,1.456 1.189,3.936 2.173,5.815 z"
   id="path270" /><path
   style="fill:#c894ff"
   d="m 224.885,271.706 2.779,-8.209 c -1.88,0.294 -3.721,0.627 -5.52,0.99 0.367,1.855 1.195,5.125 2.741,7.219 z"
   id="path271" /><path
   style="fill:#c894ff"
   d="m 240.688,273.823 4.413,-11.749 c -2.185,0.003 -4.348,0.077 -6.485,0.211 0.093,2.594 0.482,8.747 2.072,11.538 z"
   id="path272" /><path
   style="fill:#8a44d4"
   d="m 295.55,279.263 -108.039,-3.097 c 64.569,30.709 108.039,3.097 108.039,3.097 z"
   id="path273" /><path
   style="fill:#ffffff"
   d="m 279.865,275.173 c 0,3.16 -2.563,5.723 -5.724,5.723 -3.163,0 -5.723,-2.563 -5.723,-5.723 0,-3.161 2.56,-5.724 5.723,-5.724 3.162,0 5.724,2.563 5.724,5.724 z"
   id="path274" /><path
   d="m 277.689,275.173 c 0,1.96 -1.588,3.549 -3.548,3.549 -1.959,0 -3.547,-1.589 -3.547,-3.549 0,-1.959 1.588,-3.548 3.547,-3.548 1.961,0 3.548,1.589 3.548,3.548 z"
   id="path275" /><g
   id="g282">
					<path
   style="fill:#a5bf00"
   d="m 112.94,140.947 c 0,0 7.75,13.668 -0.618,25.049 6.718,-7.881 20.496,-12.727 30.704,-4.361 -0.494,-0.585 -16.427,-19.343 -30.086,-20.688 z"
   id="path276" />
					<path
   style="fill:#c6e50d"
   d="m 73.698,198.561 c 5.453,0.202 18.089,0.03 27.771,-5.219 -2.185,-2.743 -6.231,-10.715 -6.475,-12.434 -0.215,-1.548 4.38,-6.596 6.605,-9.702 -7.698,-4.22 -17.299,-5.201 -23.664,-5.322 4.109,3.643 6.699,8.963 6.699,14.892 0,7.77 -4.45,14.496 -10.936,17.785 z"
   id="path277" />
					<path
   style="fill:#a5bf00"
   d="m 101.6,171.206 c 1.781,0.982 3.459,2.125 4.977,3.48 -3.966,5.554 -6.12,6.364 -6.12,6.364 0,0.009 0.01,0.009 0.01,0.02 0.011,0.02 0.02,0.04 0.05,0.08 0.019,0.031 0.031,0.061 0.039,0.081 1.943,3.34 3.925,6.202 5.918,8.651 -0.202,0.171 -0.403,0.343 -0.606,0.506 -1.355,1.143 -2.844,2.114 -4.4,2.955 -2.185,-2.743 -6.634937,-10.715 -6.878937,-12.434 -0.214,-1.549 4.784937,-6.597 7.010937,-9.703 z"
   id="path278" />
					<path
   style="fill:#a5bf00"
   d="m 106.475,189.882 c -0.202,0.171 -0.403,0.343 -0.606,0.506 3.208,5.119 7.487,11.26 11.765,15.398 6.252,6.059 1.164,12.483 1.164,12.483 12.897,-2.691 32.181,-24.351 32.705,-24.947 -10.955,8.901 -28.688,16.62 -45.028,-3.44 z"
   id="path279" />
					<path
   style="fill:#d1ee20"
   d="m 106.577,174.686 c 1.094,-1.549 2.337,-3.46 3.703,-5.817 0.354,-0.617 0.76,-1.224 1.213,-1.82 0.265,-0.324 0.527,-0.647 0.759,-0.972 0.031,-0.03 0.051,-0.05 0.071,-0.081 6.718,-7.881 20.496,-12.727 30.704,-4.361 l 0.01,0.012 c 1.55,1.264 19.262,19.94 18.787,20.718 -1.02,1.689 -4.804,6.475 -10.308,10.945 -0.012,0 -0.012,0.011 -0.012,0.011 -10.956,8.902 -28.689,16.621 -45.029,-3.439 -1.993,-2.449 -3.975,-5.312 -5.918,-8.651 -0.009,-0.02 -0.02,-0.049 -0.039,-0.081 -0.021,-0.029 -0.031,-0.051 -0.05,-0.08 0,-0.011 -0.01,-0.011 -0.01,-0.02 -0.001,0 2.153,-0.81 6.119,-6.364 z m 22.742,22.771 c 18.797,-0.585 29.5,-17.045 19.313,-23.247 -5.201,-3.177 -9.287,-9.864 -17.826,-9.864 -13.444,0 -23.441,16.035 -22.469,18.878 3.571,10.35 12.606,14.507 20.982,14.233 z"
   id="path280" />
					<path
   style="fill:#d1ee20"
   d="m 106.577,174.686 c 1.094,-1.549 2.337,-3.46 3.703,-5.817 0.354,-0.617 0.76,-1.224 1.213,-1.82 0.265,-0.324 0.527,-0.647 0.759,-0.972 0.031,-0.03 0.051,-0.05 0.071,-0.081 6.718,-7.881 20.496,-12.727 30.704,-4.361 l 0.01,0.012 c 1.55,1.264 19.262,19.94 18.787,20.718 -1.02,1.689 -4.804,6.475 -10.308,10.945 -0.012,0 -0.012,0.011 -0.012,0.011 -10.956,8.902 -28.689,16.621 -45.029,-3.439 -1.993,-2.449 -3.975,-5.312 -5.918,-8.651 -0.009,-0.02 -0.02,-0.049 -0.039,-0.081 -0.021,-0.029 -0.031,-0.051 -0.05,-0.08 0,-0.011 -0.01,-0.011 -0.01,-0.02 -0.001,0 2.153,-0.81 6.119,-6.364 z"
   id="path281" />
					<path
   style="fill:#bbf213"
   d="m 112.252,166.077 c -0.265,0.325 -0.526,0.648 -0.759,0.972 0.264,-0.324 0.527,-0.648 0.759,-0.972 z"
   id="path282" />
				</g><path
   style="opacity:0.72;fill:#bcd61d"
   d="m 122.679,158.805 c -3.965,1.501 -7.515,3.978 -10.096,6.901 -2.278,7.621 -4.167,19.082 -0.164,30.246 3.703,3.077 7.424,4.934 11.077,5.851 -3.374,-8.67 -8.09,-26.009 -0.817,-42.998 z"
   id="path283" /><path
   style="opacity:0.72;fill:#bcd61d"
   d="m 135.502,201.76 c -2.731,-9.405 -4.71,-29.409 -0.121,-43.956 -1.991,-0.481 -4.017,-0.628 -6.016,-0.491 -5.26,9.762 -6.352,27.977 -0.777,45.186 2.364,0.07 4.678,-0.201 6.914,-0.739 z"
   id="path284" /><path
   style="opacity:0.62;fill:#bcd61d"
   d="m 100.518,181.15 c 0.019,0.031 0.031,0.061 0.039,0.081 1.943,3.34 3.925,6.202 5.918,8.651 16.34,20.06 34.073,12.341 45.029,3.439 0,0 0,-0.011 0.012,-0.011 5.504,-4.47 9.289,-9.256 10.308,-10.945 l -61.367,-1.314 c 0,0.009 0.01,0.009 0.01,0.02 0.02,0.028 0.03,0.05 0.051,0.079 z"
   id="path285" /><path
   style="fill:#ffffff"
   d="m 137.563,174.425 c 0,3.018 2.446,5.464 5.464,5.464 3.017,0 5.462,-2.446 5.462,-5.464 0,-3.018 -2.445,-5.464 -5.462,-5.464 -3.019,0 -5.464,2.446 -5.464,5.464 z"
   id="path286" /><path
   d="m 139.64,174.425 c 0,1.87 1.515,3.387 3.386,3.387 1.871,0 3.387,-1.517 3.387,-3.387 0,-1.871 -1.516,-3.386 -3.387,-3.386 -1.871,0 -3.386,1.515 -3.386,3.386 z"
   id="path287" />
</svg>
