<svg width="2019" height="1192" xmlns="http://www.w3.org/2000/svg" xmlns:xlink="http://www.w3.org/1999/xlink" xml:space="preserve" overflow="hidden"><g transform="translate(-2344 -1176)"><rect x="2344" y="1176" width="2019" height="1192"/><path d="M3890.13 2166 3869.5 2186.51C3846.24 2209.82 3840.71 2249.28 3858.57 2275.91 3855.09 2279.94 3855.52 2286.03 3859.53 2289.52 3863.04 2292.57 3868.22 2292.67 3871.85 2289.77 3898.4 2309.61 3939.42 2304.46 3963.37 2280.46L3984 2259.81C3977 2247.76 3963.26 2229.33 3941.85 2207.96 3920.44 2186.59 3902.16 2172.85 3890.13 2166Z" fill="#7F7F7F" fill-rule="evenodd"/><path d="M4026.07 2218.44C4026.07 2218.16 4025.88 2217.86 4025.77 2217.56 4020 2203.82 4007.94 2184.58 4011.29 2168.51L4011.29 2168.51C4011.83 2165.25 4010.73 2161.94 4008.35 2159.66L4006.48 2157.6C4014.18 2151.86 4020.22 2148.5 4023.87 2148.53L4023.87 2132.04C4016.37 2132.04 4006.15 2137.35 3994.72 2145.95L3990.44 2141.66C3988.16 2139.28 3984.84 2138.18 3981.59 2138.75L3981.59 2138.75C3965.55 2142.1 3946.23 2130.04 3932.55 2124.27L3931.67 2123.96C3915.24 2117.91 3897.01 2126.32 3890.95 2142.75 3889.7 2146.17 3889.03 2149.78 3889 2153.42 3912.3 2163.86 3944.69 2195.74 3949.44 2200.55 3954.2 2205.36 3986.15 2237.75 3996.56 2261 4014.06 2260.87 4028.13 2246.57 4028 2229.07 4027.97 2225.44 4027.32 2221.85 4026.07 2218.44Z" fill="#7F7F7F" fill-rule="evenodd"/><path d="M3897.59 1825.04C3851.76 1823.62 3813.46 1859.55 3812.04 1905.28 3812.01 1906.13 3812 1906.99 3812 1907.85 3812 1965.69 3870.29 2008.03 3889.18 2020.24 3892.76 2022.55 3897.35 2022.59 3900.97 2020.34 3919.26 2009.06 3973.62 1970.97 3977.77 1914.68 3981.23 1867.83 3944.64 1826.46 3897.59 1825.04ZM3834.14 1915.17 3834.14 1899.56 3852.54 1899.56C3868.35 1899.58 3881.16 1912.36 3881.18 1928.14L3881.18 1943.74 3862.77 1943.74C3846.97 1943.73 3834.15 1930.94 3834.14 1915.17ZM3903.31 1987.93 3886.71 1987.93C3883.66 1987.93 3881.18 1985.46 3881.18 1982.41 3881.18 1979.35 3883.66 1976.88 3886.71 1976.88L3903.31 1976.88C3906.37 1976.88 3908.85 1979.35 3908.85 1982.41 3908.85 1985.46 3906.37 1987.93 3903.31 1987.93ZM3955.89 1915.17C3955.87 1930.94 3943.06 1943.73 3927.25 1943.74L3908.85 1943.74 3908.85 1928.14C3908.87 1912.36 3921.68 1899.58 3937.49 1899.56L3955.89 1899.56Z" fill="#F2F2F2" fill-rule="evenodd"/><path d="M3914 1520C3856.01 1520 3809 1566.79 3809 1624.5 3809 1682.21 3856.01 1729 3914 1729 3971.99 1729 4019 1682.21 4019 1624.5 4019 1566.79 3971.99 1520 3914 1520ZM3956.21 1682.25 3914 1653.17 3871.79 1682.25 3886.4 1633.78 3849.07 1601.47 3897.76 1601.47 3914 1553 3930.23 1601.47 3978.93 1601.47 3941.59 1633.78Z" fill="#F2F2F2" fill-rule="evenodd"/><path d="M3035.88 1910.82C3050.28 1905.86 3064.68 1910.82 3064.68 1910.82 3064.68 1910.82 3073.82 1889.6 3081.3 1886.02 3102.62 1877.2 3122 1890.15 3122 1890.15 3122 1890.15 3099.29 1850.76 3050.84 1848 3037.82 1866.18 3029.52 1880.51 3006.81 1894.29 3006.53 1893.46 3006.26 1892.63 3005.98 1891.81 3005.7 1891.26 3005.43 1890.43 3005.15 1889.88 3006.53 1888.22 3007.36 1885.47 3007.36 1882.71 3007.36 1878.03 3004.87 1874.45 3001.83 1874.45 2999.33 1874.45 2997.67 1878.58 2997.4 1882.71 2994.07 1881.34 2990.47 1881.06 2987.15 1882.44 2983.55 1883.82 2981.06 1887.12 2979.95 1890.7 2976.63 1887.95 2972.2 1885.47 2970.26 1887.4 2968.04 1889.6 2968.88 1894.01 2972.2 1897.04 2974.41 1899.24 2977.46 1900.62 2979.67 1900.62 2979.95 1901.17 2979.95 1901.72 2980.23 1902.28 2980.5 1903.1 2981.06 1903.93 2981.34 1904.48 2955.31 1910.54 2939.52 1906.41 2917.37 1902.55 2885.25 1938.92 2897.16 1983 2897.16 1983 2897.16 1983 2901.59 1960.41 2922.91 1951.59 2930.94 1948.84 2952.26 1957.38 2952.26 1957.38 2952.26 1957.38 2958.91 1943.88 2972.75 1936.99 2991.03 1932.58 3014.01 1946.91 3014.01 1946.91 3014.01 1946.91 3019.82 1920.46 3035.88 1910.82" fill="#F2F2F2" fill-rule="evenodd"/><path d="M3122.84 2014.19C3107.66 2016.66 3097.17 2019.69 3079.51 2015.29 3079.78 2014.74 3080.06 2014.19 3080.33 2013.63 3080.61 2013.08 3080.61 2012.81 3080.89 2012.26 3082.27 2011.98 3083.92 2011.16 3085.3 2009.78 3087.51 2007.57 3088.06 2004.54 3086.68 2003.17 3085.58 2002.07 3082.82 2003.17 3080.61 2005.1 3079.78 2002.89 3078.13 2000.96 3075.92 2000.14 3073.43 1999.04 3070.95 1999.31 3068.47 2000.69 3068.19 1997.66 3067.36 1994.63 3065.43 1994.63 3063.22 1994.63 3061.56 1997.11 3061.56 2000.14 3061.56 2002.34 3062.39 2004.54 3063.5 2005.37 3063.22 2005.65 3063.22 2005.92 3062.94 2006.47 3062.67 2007.02 3062.67 2007.57 3062.39 2008.13 3047.21 1999.04 3041.69 1989.4 3032.58 1977 2999.46 1978.93 2984 2005.65 2984 2005.65 2984 2005.65 2996.97 1996.83 3011.6 2002.89 3016.85 2005.37 3022.92 2019.69 3022.92 2019.69 3022.92 2019.69 3032.58 2016.39 3042.52 2019.69 3053.56 2026.31 3057.42 2044.21 3057.42 2044.21 3057.42 2044.21 3072.88 2034.29 3085.3 2037.6 3094.69 2042.28 3099.1 2051.37 3099.1 2051.37 3099.1 2051.37 3113.73 2045.59 3118.98 2047.51 3133.61 2053.57 3136.37 2069 3136.37 2069 3136.37 2069 3144.93 2038.98 3122.84 2014.19" fill="#F2F2F2" fill-rule="evenodd"/><path d="M3507.56 2277.32C3497.3 2254.64 3472.07 2246.62 3470.41 2179.4L3470.41 2179.68C3469.58 2160.32 3458.21 2144 3442.13 2135.7 3442.68 2133.77 3442.96 2131.83 3442.96 2129.89 3442.96 2116.06 3431.87 2105 3418 2105 3404.14 2105 3393.05 2116.06 3393.05 2129.89 3393.05 2131.83 3393.32 2134.04 3393.88 2135.7 3377.8 2144 3366.43 2160.6 3365.6 2179.68L3365.6 2179.4C3363.93 2246.62 3338.7 2254.64 3328.44 2277.32 3325.67 2280.92 3324.01 2284.51 3324.01 2288.66 3323.45 2309.4 3365.6 2326 3417.73 2326 3469.85 2326 3512 2309.4 3512 2288.66 3512 2284.79 3510.61 2280.92 3507.56 2277.32ZM3417.73 2115.79C3425.49 2115.79 3431.59 2121.87 3431.59 2129.62 3431.59 2130.17 3431.59 2130.72 3431.31 2131.55 3427.15 2130.17 3422.44 2129.62 3417.73 2129.62 3413.01 2129.62 3408.3 2130.17 3404.14 2131.55 3404.14 2131 3403.86 2130.45 3403.86 2129.62 3403.86 2121.87 3409.96 2115.79 3417.73 2115.79ZM3417.73 2309.4C3369.2 2309.4 3342.86 2294.74 3340.09 2288.66 3342.31 2283.4 3363.66 2270.96 3402.75 2268.47 3401.64 2270.68 3400.81 2273.45 3400.81 2276.21 3400.81 2285.34 3408.3 2292.81 3417.73 2292.81 3427.15 2292.81 3434.64 2285.34 3434.64 2276.21 3434.64 2273.45 3433.81 2270.68 3432.7 2268.47 3471.79 2270.96 3493.15 2283.4 3495.36 2288.66 3492.59 2294.74 3466.25 2309.4 3417.73 2309.4Z" fill="#F2F2F2" fill-rule="evenodd"/><path d="M2708 1534 2724 1534 2724 1600 2708 1600Z" fill="#7F7F7F" fill-rule="evenodd"/><path d="M2735 1501 2771 1501 2771 1523 2735 1523Z" fill="#7F7F7F" fill-rule="evenodd"/><path d="M2793.33 1534 2735 1534 2735 1600.43C2735 1606.52 2740 1611.5 2746.11 1611.5L2748.89 1611.5 2748.89 1677.93C2748.89 1684.02 2753.89 1689 2760 1689L2798.89 1689C2805 1689 2810 1684.02 2810 1677.93L2810 1625.34 2793.33 1534Z" fill="#7F7F7F" fill-rule="evenodd"/><path d="M2622 1625.34 2622 1677.93C2622 1684.02 2627 1689 2633.11 1689L2672 1689C2678.11 1689 2683.11 1684.02 2683.11 1677.93L2683.11 1611.5 2685.89 1611.5C2692 1611.5 2697 1606.52 2697 1600.43L2697 1534 2638.67 1534 2622 1625.34Z" fill="#7F7F7F" fill-rule="evenodd"/><path d="M2661 1501 2697 1501 2697 1523 2661 1523Z" fill="#7F7F7F" fill-rule="evenodd"/><path d="M3536.94 1517.71C3536.83 1517.1 3536.7 1516.5 3536.53 1515.9 3537.14 1515.87 3537.76 1515.8 3538.36 1515.7 3547.84 1514.07 3554.21 1505.07 3552.58 1495.59 3550.96 1486.11 3541.95 1479.75 3532.48 1481.37 3528.09 1482.13 3524.16 1484.53 3521.49 1488.09L3458.57 1443.39C3463.98 1435.43 3461.91 1424.6 3453.95 1419.2 3445.99 1413.8 3435.16 1415.87 3429.76 1423.83 3427.24 1427.55 3426.25 1432.1 3427 1436.53 3427.1 1437.14 3427.24 1437.74 3427.41 1438.33 3426.8 1438.36 3426.18 1438.43 3425.57 1438.54 3416.09 1440.13 3409.7 1449.12 3411.3 1458.6 3412.89 1468.08 3421.88 1474.48 3431.36 1472.88 3435.77 1472.14 3439.72 1469.73 3442.4 1466.15L3505.31 1510.86C3499.91 1518.81 3501.98 1529.64 3509.94 1535.04 3517.89 1540.45 3528.72 1538.37 3534.13 1530.42 3536.65 1526.7 3537.64 1522.15 3536.89 1517.72Z" fill="#A6A6A6" fill-rule="evenodd"/><path d="M2764 1480 2764 1364.1C2764 1360.75 2759.01 1358 2752.9 1358L2664.1 1358C2657.99 1358 2653 1360.75 2653 1364.1L2653 1480 2708.5 1449.5 2764 1480Z" fill="#7F7F7F" fill-rule="evenodd"/><path d="M4112.63 1322.35C4118.83 1313.35 4118.4 1301.13 4111.56 1292.56 4112.41 1289.99 4112.84 1287.41 4112.84 1284.84 4112.84 1272.63 4104.07 1262.34 4092.31 1259.98 4088.68 1249.48 4079.06 1242.62 4067.94 1242.62 4066.01 1242.62 4063.87 1242.84 4061.95 1243.27 4057.46 1237.91 4050.83 1234.69 4043.99 1234.05 4036.93 1233.62 4030.09 1235.98 4024.96 1240.69 4018.33 1236.19 4009.99 1234.91 4002.51 1237.26 3994.81 1239.62 3988.82 1245.41 3986.04 1253.12 3985.61 1253.12 3984.97 1253.12 3984.54 1253.12 3970.43 1253.12 3959.1 1264.27 3958.89 1278.41 3958.89 1278.84 3958.89 1279.27 3958.89 1279.7 3950.33 1284.41 3945.41 1293.63 3946.06 1303.49 3946.91 1316.99 3958.89 1327.06 3972.57 1327.06L4005.71 1327.06C4019.83 1327.06 4031.37 1338.42 4031.59 1352.57L4031.59 1380 4048.48 1380 4048.48 1360.71C4048.48 1359.85 4048.48 1358.78 4048.48 1357.93 4048.48 1350 4048.27 1339.92 4053.82 1333.49 4057.25 1329.85 4061.09 1326.64 4065.16 1323.85 4068.36 1321.92 4071.14 1319.56 4073.5 1316.78 4074.57 1315.06 4075.64 1313.35 4076.28 1311.63 4071.79 1309.92 4067.08 1309.28 4062.38 1309.92 4060.03 1310.13 4057.89 1308.63 4057.46 1306.27 4057.25 1303.92 4058.74 1301.77 4061.09 1301.35 4066.87 1300.49 4072.64 1301.13 4078.2 1303.27 4078.2 1302.63 4078.2 1302.2 4078.42 1301.56 4078.63 1298.13 4078.2 1294.7 4077.13 1291.49 4074.14 1283.77 4066.65 1280.34 4059.6 1277.56 4058.32 1277.13 4057.03 1276.7 4055.32 1276.27L4054.04 1275.84 4053.82 1275.84C4052.11 1276.06 4050.62 1276.48 4048.91 1277.13L4046.98 1277.56 4044.84 1277.98C4041.21 1282.27 4039.28 1287.84 4039.71 1293.63 4040.14 1299.42 4042.92 1304.56 4047.2 1308.2 4048.91 1309.7 4048.91 1312.28 4047.62 1314.2 4046.34 1315.7 4043.77 1315.92 4042.06 1314.63 4039.5 1312.49 4037.36 1309.7 4035.65 1306.7L4035.22 1306.7C4029.23 1305.63 4022.39 1304.56 4016.83 1300.92 4014.91 1299.63 4014.48 1297.06 4015.76 1295.13 4017.05 1293.2 4019.61 1292.56 4021.54 1293.84 4024.74 1295.77 4028.38 1297.06 4032.23 1297.49 4031.8 1296.42 4031.59 1295.34 4031.37 1294.06 4030.95 1289.34 4031.8 1284.41 4033.73 1280.13 4030.73 1280.56 4027.95 1280.77 4024.96 1280.77 4022.39 1280.77 4019.83 1280.56 4017.26 1280.13 4012.56 1285.91 4005.93 1290.2 3998.66 1291.92 3989.04 1296.84 3980.05 1303.06 3980.05 1313.56 3980.05 1315.92 3978.13 1317.85 3975.78 1317.85 3973.43 1317.85 3971.5 1315.92 3971.5 1313.56 3971.72 1305.42 3975.35 1297.92 3981.55 1292.77 3976.42 1292.13 3971.72 1289.99 3968.29 1286.13 3966.8 1284.2 3967.22 1281.63 3968.94 1280.13 3970.65 1278.63 3973.43 1278.84 3974.92 1280.56 3976.63 1282.7 3981.55 1284.63 3988.61 1284.41 3995.66 1284.41 4002.72 1281.84 4008.07 1277.13 4001.86 1274.56 3996.73 1269.84 3993.53 1263.84 3992.24 1261.7 3993.1 1259.12 3995.02 1258.05 3997.16 1256.77 3999.73 1257.62 4000.8 1259.55 4007.21 1271.13 4020.68 1274.34 4041.85 1269.41 4038 1266.2 4035.22 1261.05 4035.44 1252.91 4035.44 1250.55 4037.57 1248.62 4039.93 1248.84 4042.28 1248.84 4044.2 1250.98 4043.99 1253.34 4043.56 1262.98 4048.91 1264.91 4057.46 1267.48 4058.74 1267.91 4060.03 1268.13 4061.31 1268.56 4063.66 1263.2 4068.36 1259.12 4074.14 1257.62 4076.49 1256.98 4078.84 1258.48 4079.48 1260.84 4080.13 1263.2 4078.63 1265.55 4076.28 1266.2 4073.28 1267.05 4070.93 1268.98 4069.43 1271.77 4069.43 1271.98 4069.43 1271.98 4069.43 1272.2 4076.06 1275.41 4081.84 1280.13 4084.83 1288.06 4085.47 1289.77 4085.9 1291.49 4086.11 1293.2 4086.97 1292.56 4087.61 1291.7 4088.04 1290.63 4089.53 1287.41 4090.6 1284.2 4091.03 1280.56 4091.24 1279.06 4092.31 1277.77 4093.81 1277.13 4095.31 1276.48 4097.02 1276.91 4098.09 1277.98 4099.37 1279.06 4099.8 1280.56 4099.37 1282.27 4098.73 1286.56 4097.45 1290.84 4095.31 1294.7 4093.17 1298.35 4089.96 1301.35 4086.11 1303.49 4085.69 1308.85 4083.97 1314.2 4081.41 1318.92 4084.19 1322.13 4087.18 1324.92 4090.82 1327.06 4092.1 1327.92 4092.96 1329.42 4092.96 1330.92 4092.96 1332.42 4092.1 1333.92 4090.6 1334.56 4089.11 1335.21 4087.61 1335.21 4086.33 1334.35 4082.69 1331.99 4079.27 1328.99 4076.28 1325.78 4074.14 1327.49 4071.79 1329.21 4069.65 1330.71 4066.01 1333.06 4062.81 1335.64 4060.03 1338.85 4056.6 1342.92 4056.82 1350.85 4056.82 1357.71 4056.82 1358.78 4056.82 1359.64 4056.82 1360.71L4056.82 1380 4073.92 1380C4073.92 1352.14 4087.18 1350.64 4088.89 1350.21 4094.45 1348.71 4109.21 1340.99 4112.41 1325.13 4112.84 1324.28 4112.63 1323.21 4112.63 1322.35 4112.41 1322.35 4112.41 1322.35 4112.63 1322.35Z" fill="#F2F2F2" fill-rule="evenodd"/><path d="M3157 1366.53 3157 1481.27 3323 1549 3323 1434.27C3323 1434.27 3284.54 1342.76 3284.27 1341.93 3240.28 1333.63 3190.2 1343.31 3157 1366.53ZM3306.4 1445.33 3306.4 1475.46 3173.6 1421.55 3173.6 1391.41 3306.4 1445.33ZM3173.6 1470.21 3173.6 1439.52 3306.4 1493.71 3306.4 1524.12 3173.6 1470.21Z" fill="#7F7F7F" fill-rule="evenodd"/><path d="M2622.5 1800.83 2523.5 1800.83 2523.5 1756.63 2622.5 1756.63 2622.5 1800.83ZM2622.5 1839.5 2606 1839.5 2606 1822.93 2622.5 1822.93 2622.5 1839.5ZM2622.5 1867.13 2606 1867.13 2606 1850.55 2622.5 1850.55 2622.5 1867.13ZM2622.5 1894.75 2606 1894.75 2606 1878.18 2622.5 1878.18 2622.5 1894.75ZM2622.5 1922.38 2606 1922.38 2606 1905.8 2622.5 1905.8 2622.5 1922.38ZM2595 1839.5 2578.5 1839.5 2578.5 1822.93 2595 1822.93 2595 1839.5ZM2595 1867.13 2578.5 1867.13 2578.5 1850.55 2595 1850.55 2595 1867.13ZM2595 1894.75 2578.5 1894.75 2578.5 1878.18 2595 1878.18 2595 1894.75ZM2595 1922.38 2578.5 1922.38 2578.5 1905.8 2595 1905.8 2595 1922.38ZM2567.5 1839.5 2551 1839.5 2551 1822.93 2567.5 1822.93 2567.5 1839.5ZM2567.5 1867.13 2551 1867.13 2551 1850.55 2567.5 1850.55 2567.5 1867.13ZM2567.5 1894.75 2551 1894.75 2551 1878.18 2567.5 1878.18 2567.5 1894.75ZM2567.5 1922.38 2523.5 1922.38 2523.5 1905.8 2567.5 1905.8 2567.5 1922.38ZM2523.5 1878.18 2540 1878.18 2540 1894.75 2523.5 1894.75 2523.5 1878.18ZM2523.5 1850.55 2540 1850.55 2540 1867.13 2523.5 1867.13 2523.5 1850.55ZM2523.5 1822.93 2540 1822.93 2540 1839.5 2523.5 1839.5 2523.5 1822.93ZM2639 1729 2507 1729C2500.95 1729 2496 1733.97 2496 1740.05L2496 1938.95C2496 1945.03 2500.95 1950 2507 1950L2639 1950C2645.05 1950 2650 1945.03 2650 1938.95L2650 1740.05C2650 1733.97 2645.05 1729 2639 1729Z" fill="#BFBFBF" fill-rule="evenodd"/><path d="M4184.56 1509 4193.16 1494.09 4223 1494.09C4214.92 1476.1 4193.78 1468.06 4175.79 1476.14 4168.87 1479.25 4163.12 1484.47 4159.37 1491.06L4030.64 1491.06C4020.75 1474 3998.9 1468.18 3981.83 1478.07 3975.41 1481.79 3970.3 1487.42 3967.23 1494.18L3996.99 1494.09 4005.47 1509 3996.86 1523.9 3967 1523.9C3975.08 1541.9 3996.21 1549.94 4014.21 1541.86 4021.13 1538.76 4026.88 1533.53 4030.63 1526.94L4159.37 1526.94C4169.27 1544 4191.12 1549.82 4208.19 1539.92 4214.61 1536.2 4219.71 1530.58 4222.79 1523.82L4192.95 1523.82Z" fill="#7F7F7F" fill-rule="evenodd"/><path d="M4210.29 1696.11C4210.28 1700.64 4206.6 1704.31 4202.06 1704.32L4177.35 1704.32C4172.8 1704.32 4169.11 1700.65 4169.09 1696.11L4169.09 1687.89C4169.11 1683.35 4172.8 1679.68 4177.35 1679.68L4202.06 1679.68C4206.6 1679.69 4210.28 1683.36 4210.29 1687.89L4210.29 1696.11ZM3997.41 1655.04 4021.29 1598.36C4022.56 1595.38 4025.48 1593.44 4028.73 1593.42L4160.47 1593.42C4163.71 1593.44 4166.63 1595.38 4167.9 1598.36L4192.61 1655.04ZM4020.88 1696.11C4020.87 1700.64 4017.19 1704.31 4012.65 1704.32L3987.94 1704.32C3983.4 1704.31 3979.72 1700.64 3979.71 1696.11L3979.71 1687.89C3979.72 1683.36 3983.4 1679.69 3987.94 1679.68L4012.65 1679.68C4017.19 1679.69 4020.87 1683.36 4020.88 1687.89L4020.88 1696.11ZM4029.14 1577C4019.16 1576.9 4010.16 1582.94 4006.49 1592.2L3979.71 1655.04C3966.08 1655.08 3955.04 1666.09 3955 1679.68L3955 1745.39C3955.03 1754.46 3962.39 1761.8 3971.47 1761.82L3979.71 1761.82 3979.71 1790.57C3979.73 1799.63 3987.09 1806.97 3996.17 1807L4004.43 1807C4013.52 1806.97 4020.88 1799.63 4020.9 1790.57L4020.9 1761.82 4169.15 1761.82 4169.15 1790.57C4169.17 1799.62 4176.51 1806.96 4185.59 1807L4193.82 1807C4202.91 1806.98 4210.27 1799.63 4210.29 1790.57L4210.29 1761.82 4218.53 1761.82C4227.61 1761.8 4234.97 1754.46 4235 1745.39L4235 1679.68C4234.96 1666.09 4223.92 1655.08 4210.29 1655.04L4210.29 1655.04 4183.53 1592.2C4179.86 1582.94 4170.86 1576.9 4160.88 1577Z" fill="#7F7F7F" fill-rule="evenodd"/><path d="M4196 2064.65 4188.44 2043.94 4183.09 2058.62 4162 1963 4140.91 2058.62 4135.56 2043.94 4128 2064.65 4128 2091 4162 2065.59 4196 2091 4196 2064.65Z" fill="#F2F2F2" fill-rule="evenodd"/><path d="M4168.32 2151.98 4161.92 2147 4155.58 2151.97C4141.92 2162.61 4133.95 2178.99 4134 2196.32L4134 2275 4145.76 2275 4145.76 2226.2 4178 2226.2 4178 2275 4190 2275 4190 2196.45C4190.07 2179.06 4182.05 2162.63 4168.32 2151.98ZM4161.92 2203.68C4155.71 2203.68 4150.67 2198.64 4150.67 2192.42 4150.67 2186.2 4155.71 2181.16 4161.92 2181.16 4168.13 2181.16 4173.17 2186.2 4173.17 2192.42 4173.17 2198.64 4168.13 2203.68 4161.92 2203.68Z" fill="#F2F2F2" fill-rule="evenodd"/><path d="M4207 2113.75 4162 2080 4117 2113.75 4102 2113.75 4102 2275 4122.83 2275 4122.83 2196.41C4122.77 2175.63 4132.34 2155.99 4148.74 2143.23L4162 2132.88 4175.32 2143.23C4191.81 2155.98 4201.44 2175.68 4201.38 2196.52L4201.38 2275 4222 2275 4222 2113.75Z" fill="#F2F2F2" fill-rule="evenodd"/><path d="M4301 2035 4293.56 2014.38 4288.31 2028.91 4267.5 1930 4246.69 2028.91 4241.44 2014.38 4234 2035 4234 2275 4301 2275ZM4277.18 2237.5 4257.82 2237.5 4257.82 2197.58C4257.82 2190.55 4260.08 2183.71 4264.27 2178.08L4267.5 2173.75 4270.73 2178.08C4274.92 2183.71 4277.18 2190.55 4277.18 2197.58ZM4277.18 2117.5 4257.82 2117.5 4257.82 2092.58C4257.82 2085.55 4260.08 2078.71 4264.27 2073.08L4267.5 2068.75 4270.73 2073.08C4274.92 2078.71 4277.18 2085.55 4277.18 2092.58Z" fill="#F2F2F2" fill-rule="evenodd"/><path d="M4091 2035 4083.44 2014.38 4078.12 2028.91 4057 1930 4035.88 2028.91 4030.56 2014.38 4023 2035 4023 2275 4091 2275ZM4066.82 2237.5 4047.18 2237.5 4047.18 2197.58C4047.18 2190.55 4049.47 2183.71 4053.72 2178.08L4057 2173.75 4060.28 2178.08C4064.53 2183.71 4066.82 2190.55 4066.82 2197.58ZM4066.82 2117.5 4047.18 2117.5 4047.18 2092.58C4047.18 2085.55 4049.47 2078.71 4053.72 2073.08L4057 2068.75 4060.28 2073.08C4064.53 2078.71 4066.82 2085.55 4066.82 2092.58Z" fill="#F2F2F2" fill-rule="evenodd"/><path d="M2712.6 1242 2543.4 1242C2538.18 1242.03 2533.97 1246.28 2534 1251.49 2534 1251.49 2534 1251.49 2534 1251.49L2534 1365.51C2533.97 1370.72 2538.18 1374.96 2543.4 1374.99 2543.4 1374.99 2543.4 1374.99 2543.4 1374.99L2646.8 1374.99 2684.4 1413 2684.4 1374.99 2712.6 1374.99C2717.82 1374.96 2722.03 1370.72 2722 1365.51 2722 1365.51 2722 1365.51 2722 1365.51L2722 1251.49C2722.03 1246.28 2717.82 1242.03 2712.6 1242 2712.6 1242 2712.6 1242 2712.6 1242ZM2583.77 1321.98C2576.13 1321.98 2569.94 1315.81 2569.94 1308.19 2569.94 1300.58 2576.13 1294.4 2583.77 1294.4 2591.4 1294.4 2597.59 1300.58 2597.59 1308.19 2597.59 1315.81 2591.4 1321.98 2583.77 1321.98ZM2628 1321.98C2620.37 1321.98 2614.18 1315.81 2614.18 1308.19 2614.18 1300.58 2620.37 1294.4 2628 1294.4 2635.63 1294.4 2641.82 1300.58 2641.82 1308.19 2641.82 1315.81 2635.63 1321.98 2628 1321.98ZM2672.24 1321.98C2664.6 1321.98 2658.41 1315.81 2658.41 1308.19 2658.41 1300.58 2664.6 1294.4 2672.24 1294.4 2679.87 1294.4 2686.06 1300.58 2686.06 1308.19 2686.06 1315.81 2679.87 1321.98 2672.24 1321.98Z" fill="#BFBFBF" fill-rule="evenodd"/><path d="M2824 1611.5 2881.67 1689 2916 1689 2858.33 1611.5 2916 1534 2881.67 1534 2824 1611.5Z" fill="#A6A6A6" fill-rule="evenodd"/><path d="M2924.7 1611.5 2983 1534 2948.3 1534 2890 1611.5 2948.3 1689 2983 1689 2924.7 1611.5Z" fill="#A6A6A6" fill-rule="evenodd"/><path d="M2757 1611.5 2815.3 1689 2850 1689 2791.7 1611.5 2850 1534 2815.3 1534 2757 1611.5Z" fill="#A6A6A6" fill-rule="evenodd"/><path d="M2806.3 1261.08 2883.46 1326.49 2883.46 1336.87C2883.56 1342.57 2879.35 1347.43 2873.7 1348.13 2867.75 1348.71 2862.45 1344.35 2861.87 1338.39 2861.84 1338.04 2861.82 1337.69 2861.82 1337.34L2861.82 1326.49 2805.96 1261.42C2805.87 1261.32 2805.88 1261.17 2805.98 1261.08 2806.07 1261 2806.21 1261 2806.3 1261.08ZM2804.74 1260.61 2837.71 1326.49 2837.71 1336.87C2837.81 1342.57 2833.6 1347.43 2827.95 1348.13 2822 1348.71 2816.7 1344.35 2816.12 1338.39 2816.08 1338.04 2816.07 1337.69 2816.07 1337.34L2816.07 1326.49 2804.29 1260.76C2804.27 1260.63 2804.36 1260.51 2804.49 1260.49 2804.59 1260.47 2804.69 1260.52 2804.74 1260.61ZM2803.71 1260.76 2791.94 1326.49 2791.94 1336.87C2792.04 1342.58 2787.82 1347.43 2782.17 1348.13 2776.22 1348.71 2770.92 1344.35 2770.34 1338.39 2770.31 1338.04 2770.29 1337.69 2770.29 1337.34L2770.29 1326.49 2803.25 1260.63C2803.29 1260.5 2803.43 1260.42 2803.56 1260.46 2803.69 1260.5 2803.76 1260.63 2803.72 1260.76ZM2802.04 1261.42 2746.19 1326.49 2746.19 1336.87C2746.28 1342.57 2742.07 1347.43 2736.42 1348.13 2730.47 1348.71 2725.18 1344.35 2724.59 1338.39 2724.56 1338.04 2724.54 1337.69 2724.54 1337.34L2724.54 1326.49 2801.7 1261.08C2801.8 1260.99 2801.95 1261 2802.04 1261.1 2802.12 1261.19 2802.12 1261.33 2802.04 1261.42ZM2904.23 1326.06C2854.11 1292.6 2804 1248 2804 1248 2804 1248 2753.89 1292.6 2703.77 1326.06L2703.77 1337.36C2703.77 1343.3 2708.58 1348.11 2714.5 1348.11 2712.98 1377.94 2707.78 1407.46 2699 1436L2742.41 1436C2763.72 1436 2782.7 1422.52 2789.75 1402.39L2804 1361.72 2818.25 1402.4C2825.3 1422.53 2844.29 1436 2865.59 1436L2909 1436C2900.22 1407.46 2895.02 1377.94 2893.5 1348.11 2899.43 1348.11 2904.23 1343.3 2904.23 1337.36L2904.23 1337.36Z" fill="#404040" fill-rule="evenodd"/><path d="M2847 1248 2804 1248 2804 1226 2847 1226 2833.56 1237 2847 1248Z" fill="#404040" fill-rule="evenodd"/><path d="M2926 1375C2926 1385.49 2917.27 1394 2906.5 1394 2895.73 1394 2887 1385.49 2887 1375 2887 1364.51 2895.73 1356 2906.5 1356 2917.27 1356 2926 1364.51 2926 1375Z" fill="#F2F2F2" fill-rule="evenodd"/><path d="M2903.54 1275C2900.17 1278.76 2899.11 1284.07 2900.78 1288.85 2903.26 1296.27 2909.06 1297.16 2914.58 1299.93 2920.1 1302.7 2928.74 1296.52 2933.91 1299.93 2941.28 1304.78 2939.62 1313.48 2947.71 1319.32 2958.53 1327.01 2970.57 1332.79 2983.32 1336.44 2980.44 1336.54 2977.81 1338.13 2976.39 1340.65L2964.27 1362.37 2950.47 1373.75 2950.47 1331.32C2950.47 1326.73 2946.76 1323.01 2942.19 1323.01 2937.61 1323.01 2933.91 1326.73 2933.91 1331.32L2933.91 1380.98 2928.38 1386.94 2927.72 1387.6C2927.56 1387.77 2927.45 1387.96 2927.28 1388.13L2927 1388.57 2927 1388.57C2920.71 1396.59 2921.69 1408.14 2929.24 1414.97L2961.51 1443.98C2962.47 1444.82 2963.51 1445.58 2964.6 1446.25L2962.53 1449.02C2955.91 1448.82 2944.7 1453.59 2945.97 1457.94L2950.03 1470.76C2951.86 1476.6 2958.07 1479.84 2963.89 1477.99 2969.7 1476.15 2972.93 1469.92 2971.09 1464.09L2967.23 1451.87 2969.3 1449.1C2970.16 1449.57 2971.09 1449.91 2972.06 1450.12L3015.45 1459.18 3043.55 1485.66C3048 1489.86 3054.99 1489.64 3059.17 1485.18 3063.34 1480.72 3063.13 1473.71 3058.68 1469.52L3028.32 1440.9C3026.84 1439.49 3025.01 1438.53 3023.02 1438.13L2993.86 1432.04 3014.13 1405.8 3052.17 1410.73C3058.22 1411.5 3063.74 1407.2 3064.51 1401.12 3065.27 1395.05 3060.98 1389.5 3054.93 1388.74L3010.76 1383.2C3006.89 1382.71 3003.05 1384.31 3000.66 1387.41L2982.46 1410.73 2958.17 1388.8 2975.98 1374.11C2976.8 1373.53 2977.51 1372.8 2978.07 1371.95L2990.97 1348.85C2992.98 1345.19 2991.98 1340.6 2988.62 1338.13 2992.24 1339.24 2996.1 1340.35 3000.3 1341.57 3024.34 1348.46 3044.16 1347.3 3055.51 1363.73 3059.21 1369.07 3069.64 1378.41 3069.31 1397.44 3069.12 1409.82 3060.5 1412.04 3063.79 1419.13 3067.49 1426.97 3078.31 1432.09 3088.63 1441.29 3098.96 1450.48 3102.66 1466.22 3102.44 1477.3 3102.27 1485.61 3099.68 1493.92 3105.2 1499.46 3109 1502.89 3113.89 1504.85 3119 1505L3119 1275Z" fill="#F2F2F2" fill-rule="evenodd"/><path d="M3788 2122.47C3787.98 2102.81 3775.57 2085.31 3757.05 2078.81 3755.71 2053.31 3733.98 2033.73 3708.52 2035.08 3690.49 2036.03 3674.67 2047.42 3668.02 2064.23 3656.8 2061.85 3645.2 2061.85 3633.97 2064.23 3624.59 2040.49 3597.77 2028.86 3574.06 2038.25 3557.28 2044.91 3545.9 2060.75 3544.95 2078.81 3520.89 2087.21 3508.2 2113.55 3516.59 2137.65 3518.59 2143.4 3521.71 2148.7 3525.77 2153.24 3514.33 2176.05 3523.52 2203.84 3546.3 2215.3 3552.75 2218.55 3559.87 2220.23 3567.09 2220.22 3568.53 2220.22 3569.93 2220.08 3571.33 2219.95 3582.52 2264.01 3627.26 2290.64 3671.25 2279.44 3700.45 2272.01 3723.24 2249.18 3730.67 2219.95 3732.07 2220.08 3733.47 2220.22 3734.91 2220.22 3760.41 2220.26 3781.11 2199.59 3781.15 2174.06 3781.16 2166.83 3779.48 2159.7 3776.24 2153.25 3783.81 2144.79 3788 2133.83 3788 2122.47ZM3719.5 2199.64C3719.5 2237.53 3688.83 2268.24 3651 2268.24 3613.17 2268.24 3582.5 2237.53 3582.5 2199.64L3582.5 2144.76C3582.5 2106.88 3613.17 2076.17 3651 2076.17 3688.83 2076.17 3719.5 2106.88 3719.5 2144.76Z" fill="#F2F2F2" fill-rule="evenodd"/><path d="M3691.86 2207.39C3686.94 2204.55 3680.63 2206.21 3677.78 2211.11 3669.26 2225.82 3650.36 2230.87 3635.57 2222.4 3630.86 2219.7 3626.94 2215.8 3624.23 2211.11 3621.37 2206.21 3615.06 2204.54 3610.14 2207.38 3605.21 2210.22 3603.54 2216.5 3606.39 2221.4 3620.64 2245.9 3652.16 2254.28 3676.8 2240.11 3684.61 2235.61 3691.09 2229.16 3695.61 2221.4 3698.46 2216.5 3696.79 2210.23 3691.86 2207.39 3691.86 2207.39 3691.86 2207.39 3691.86 2207.39Z" fill="#F2F2F2" fill-rule="evenodd"/><path d="M3679 2179C3679 2193.91 3666.69 2206 3651.5 2206 3636.31 2206 3624 2193.91 3624 2179 3624 2164.09 3636.31 2152 3651.5 2152 3666.69 2152 3679 2164.09 3679 2179Z" fill="#F2F2F2" fill-rule="evenodd"/><path d="M3625 2144.5C3625 2151.96 3618.96 2158 3611.5 2158 3604.04 2158 3598 2151.96 3598 2144.5 3598 2137.04 3604.04 2131 3611.5 2131 3618.96 2131 3625 2137.04 3625 2144.5Z" fill="#F2F2F2" fill-rule="evenodd"/><path d="M3704 2144.5C3704 2151.96 3697.96 2158 3690.5 2158 3683.04 2158 3677 2151.96 3677 2144.5 3677 2137.04 3683.04 2131 3690.5 2131 3697.96 2131 3704 2137.04 3704 2144.5Z" fill="#F2F2F2" fill-rule="evenodd"/><path d="M4255 1829.17C4252.77 1829.18 4250.55 1829.35 4248.35 1829.7L4235.75 1823C4235.84 1826.09 4236.5 1829.14 4237.68 1831.99 4230.15 1833.93 4223.06 1836.22 4218.25 1836.22L4206 1829.17C4206.34 1833.38 4207.22 1837.52 4208.63 1841.5 4207.22 1845.48 4206.34 1849.62 4206 1853.83L4218.25 1846.79C4223.06 1846.79 4230.15 1849.08 4237.68 1851.01 4236.5 1853.87 4235.84 1856.91 4235.75 1860L4248.35 1853.31C4250.55 1853.65 4252.77 1853.82 4255 1853.83 4266.11 1853.83 4283 1845.46 4283 1841.5 4283 1837.54 4266.11 1829.17 4255 1829.17ZM4269.86 1839.74C4268.9 1839.74 4268.11 1838.95 4268.11 1837.98 4268.11 1837 4268.9 1836.21 4269.86 1836.21 4270.83 1836.21 4271.61 1837 4271.61 1837.98 4271.61 1838.95 4270.84 1839.73 4269.87 1839.74Z" fill="#595959" fill-rule="evenodd"/><path d="M4214 1816.66C4195.99 1794.52 4168.97 1781.66 4140.43 1781.66 4139.14 1781.66 4137.87 1781.76 4136.59 1781.81L4097.17 1758C4097.48 1768.73 4099.31 1779.36 4102.62 1789.58 4087.63 1796.13 4074.57 1806.42 4064.69 1819.46L4029 1796.13C4029 1813.17 4037.12 1839.5 4037.12 1839.5 4037.12 1839.5 4029 1865.84 4029 1882.87L4064.69 1859.54C4074.57 1872.58 4087.63 1882.87 4102.62 1889.42 4099.31 1899.64 4097.48 1910.27 4097.17 1921L4136.59 1897.19C4137.87 1897.24 4139.14 1897.34 4140.43 1897.34 4167.41 1897.34 4193.11 1885.82 4211.08 1865.69L4178.19 1840.88ZM4174.05 1820C4171.76 1820 4169.9 1818.15 4169.9 1815.86 4169.9 1813.57 4171.76 1811.71 4174.05 1811.71 4176.34 1811.71 4178.19 1813.57 4178.19 1815.86 4178.19 1818.15 4176.34 1820 4174.05 1820Z" fill="#595959" fill-rule="evenodd"/><path d="M4322.3 1534.42C4325.89 1530.24 4325.4 1523.93 4321.22 1520.34 4319.94 1519.25 4318.41 1518.49 4316.76 1518.15 4315.39 1517.91 4314.46 1516.61 4314.7 1515.23 4314.74 1514.99 4314.82 1514.75 4314.93 1514.53 4317.33 1510.21 4317.64 1505.03 4315.77 1500.46 4313.35 1494.24 4307.33 1490.17 4300.66 1490.24 4300.14 1490.24 4299.63 1490.27 4299.13 1490.31 4296.4 1490.65 4293.92 1488.71 4293.58 1485.99 4293.56 1485.83 4293.55 1485.67 4293.55 1485.51 4293.52 1478.19 4291.24 1471.05 4287.02 1465.06 4280.66 1456.23 4271.03 1453.16 4259.35 1452.25 4257.06 1452.07 4255.15 1450.43 4254.62 1448.2 4253.28 1442.59 4248.68 1438.36 4242.99 1437.49L4242.99 1437.49C4241.13 1437.21 4239.85 1435.47 4240.13 1433.62 4240.16 1433.44 4240.2 1433.26 4240.26 1433.09L4240.35 1432.81C4242.1 1427.11 4239.03 1421.06 4233.4 1419.1 4228.92 1417.42 4225.03 1414.44 4222.24 1410.56L4218.92 1405.94C4215.89 1401.73 4210.02 1400.77 4205.81 1403.8 4204.05 1405.06 4202.78 1406.9 4202.22 1408.99L4198.84 1421.43C4198.06 1424.34 4196.62 1427.04 4194.64 1429.32L4186.72 1438.47C4182.85 1441.79 4182.4 1447.63 4185.73 1451.5 4186.27 1452.14 4186.9 1452.7 4187.6 1453.17 4189.56 1454.4 4190.15 1457 4188.91 1458.96 4188.78 1459.17 4188.63 1459.37 4188.47 1459.55L4185.03 1463.64C4182.21 1467.01 4181.13 1471.51 4182.13 1475.79L4183.57 1481.96C4183.98 1484.21 4183.61 1486.54 4182.52 1488.55 4171.22 1506.79 4172.59 1528.16 4180.67 1541.62 4191.11 1559.01 4222.34 1563.28 4236.76 1582.35 4245.3 1593.64 4251.39 1608.88 4255.05 1619.89 4255.85 1622.3 4258.45 1623.61 4260.86 1622.81 4262.3 1622.33 4263.41 1621.18 4263.84 1619.73 4265.89 1612.76 4267.53 1605.67 4268.75 1598.5 4268.89 1597.66 4269.58 1597.01 4270.44 1596.93L4270.44 1596.93C4272.62 1596.76 4274.76 1597.53 4276.34 1599.04 4279.08 1601.6 4282.92 1602.63 4286.58 1601.78 4291.63 1600.55 4295.22 1596.07 4295.3 1590.87 4295.36 1589.51 4296.5 1588.45 4297.86 1588.49 4299.58 1588.52 4301.28 1588.1 4302.78 1587.26 4305.77 1585.59 4307.71 1582.54 4307.98 1579.14 4308.07 1578.02 4307.97 1576.89 4307.68 1575.81 4307.36 1574.5 4308.16 1573.18 4309.46 1572.87 4309.64 1572.82 4309.81 1572.8 4309.99 1572.8 4315.69 1572.55 4320.12 1567.74 4319.88 1562.03 4319.82 1560.65 4319.48 1559.29 4318.89 1558.04 4318.29 1556.84 4318.76 1555.38 4319.94 1554.75 4324.24 1552.72 4326.7 1548.12 4326 1543.42 4325.51 1541.29 4324.33 1539.38 4322.65 1537.99 4321.57 1537.14 4321.39 1535.58 4322.24 1534.5 4322.26 1534.47 4322.28 1534.45 4322.3 1534.42ZM4299.57 1520.3C4297.92 1526.56 4298.69 1533.22 4301.72 1538.94L4302.52 1540.45C4304.84 1544.82 4304.79 1550.06 4302.38 1554.37L4297.31 1563.5C4295.98 1565.9 4295.02 1568.49 4294.49 1571.19 4292.89 1579.21 4285.76 1584.93 4277.58 1584.74L4270.03 1584.57C4270.03 1582.98 4269.96 1581.4 4269.8 1579.83 4268.6 1571.38 4266.9 1563.01 4264.7 1554.77 4262.71 1546.93 4265.09 1538.62 4270.92 1533.02 4281.03 1523.69 4288.33 1511.74 4292.03 1498.5 4294.31 1499.35 4296.11 1501.15 4296.97 1503.42L4298.97 1508.72C4300.37 1512.43 4300.57 1516.47 4299.57 1520.3Z" fill="#595959" fill-rule="evenodd"/><path d="M3664.76 1871.96C3653.19 1865.67 3636.09 1862.15 3621.73 1860.18 3631 1850.46 3641.72 1841.72 3650.34 1841.55 3642.68 1835.1 3633.48 1830.78 3623.65 1829 3607.96 1835.12 3595.22 1857.65 3595.22 1857.65 3594.33 1867.51 3596.17 1877.41 3600.54 1886.27 3604.63 1885.4 3608.79 1884.97 3612.97 1884.99 3620.24 1885.08 3627.48 1886.06 3634.51 1887.93 3615.82 1897.82 3609.44 1923.85 3609.44 1923.85L3632.55 1931C3632.55 1931 3641.24 1907.53 3662.77 1898.79 3662.77 1898.79 3670.77 1881.57 3664.76 1871.96ZM3612.97 1877.84C3610.74 1877.84 3608.61 1877.84 3606.48 1878.15 3608.95 1874.83 3612.39 1870.79 3615.82 1866.71 3629.28 1868.01 3642.52 1870.99 3655.25 1875.56 3650.63 1877.58 3646.18 1879.96 3641.92 1882.68 3632.56 1879.67 3622.8 1878.04 3612.97 1877.84Z" fill="#BFBFBF" fill-rule="evenodd"/><path d="M3705 1883 3688.29 1889.29 3682 1906 3698.71 1899.71 3705 1883Z" fill="#BFBFBF" fill-rule="evenodd"/><path d="M3801.35 1905 3798 1922.82 3809.65 1937 3813 1919.18 3801.35 1905Z" fill="#BFBFBF" fill-rule="evenodd"/><path d="M3662 1833 3668.29 1849.71 3685 1856 3678.71 1839.29 3662 1833Z" fill="#BFBFBF" fill-rule="evenodd"/><path d="M3661.16 1928 3653 1943.93 3658.84 1961 3667 1945.04 3661.16 1928Z" fill="#BFBFBF" fill-rule="evenodd"/><path d="M3723.96 1757.65C3707.6 1718.28 3662.32 1699.59 3622.81 1715.89 3583.31 1732.2 3564.55 1777.33 3580.91 1816.7 3586.14 1829.25 3603.31 1824.65 3614.66 1821.6 3630.12 1817.21 3645.3 1811.88 3660.11 1805.66 3675 1799.68 3689.51 1792.81 3703.56 1785.08 3713.74 1779.05 3729.15 1770.34 3723.96 1757.65ZM3655.74 1795.1C3622.09 1808.98 3593.33 1816.7 3591.51 1812.24 3589.68 1807.78 3615.59 1793.07 3649.13 1779.19 3682.68 1765.3 3711.54 1757.59 3713.36 1762.04 3715.19 1766.5 3689.35 1781.21 3655.74 1795.1Z" fill="#BFBFBF" fill-rule="evenodd"/><path d="M3785.16 1777.9C3745.66 1761.54 3700.43 1780.36 3684.05 1819.98 3678.82 1832.62 3694.37 1841.53 3704.41 1847.61 3718.47 1855.39 3732.98 1862.32 3747.86 1868.34 3762.67 1874.67 3777.85 1880.09 3793.31 1884.58 3804.66 1887.65 3821.83 1892.28 3827.06 1879.64 3843.47 1839.94 3824.72 1794.4 3785.19 1777.92 3785.18 1777.91 3785.17 1777.91 3785.16 1777.9ZM3816.46 1875.04C3814.64 1879.46 3785.88 1871.59 3752.27 1857.77 3718.66 1843.95 3692.82 1828.86 3694.61 1824.43 3696.4 1820.01 3725.19 1827.89 3758.84 1841.71 3792.48 1855.52 3818.28 1870.76 3816.46 1875.04Z" fill="#BFBFBF" fill-rule="evenodd"/><path d="M3776.34 1889.05C3777.23 1892.34 3777.59 1895.74 3777.42 1899.14L3773.95 1898.93C3771.9 1894.35 3769.47 1889.95 3766.68 1885.77 3761.69 1884.02 3756.57 1882.1 3751.3 1880 3757.07 1886.14 3761.85 1893.13 3765.47 1900.73 3753.27 1898.86 3741.22 1896.18 3729.38 1892.71 3729.38 1892.71 3720.41 1895.37 3717.78 1914.17 3717.51 1916.52 3717.37 1918.07 3717.37 1918.07 3727.65 1925.01 3737.45 1932.64 3746.7 1940.91 3729.84 1945.32 3711.98 1943.94 3696 1937 3700.19 1949.82 3701.02 1961.19 3699.46 1967.51 3742.2 1977.15 3760.2 1955.69 3760.2 1955.69 3760.2 1955.69 3774.3 1936.73 3772.19 1930.47 3767.58 1927.81 3763.39 1925.15 3759.65 1922.53 3764.43 1923.86 3769.13 1925.44 3773.74 1927.26 3780.01 1924.88 3785.76 1902.04 3785.76 1902.04 3786.16 1898.66 3786.06 1895.24 3785.48 1891.88 3782.58 1891.02 3779.53 1890.09 3776.34 1889.05ZM3760.55 1933.07C3758.26 1934.03 3756.01 1934.93 3753.62 1935.73 3747.81 1930.36 3741.71 1925.3 3735.37 1920.56 3738.14 1920.84 3741.26 1921.25 3744.69 1921.84 3749.74 1925.9 3755.04 1929.65 3760.55 1933.07Z" fill="#BFBFBF" fill-rule="evenodd"/><path d="M3410.71 1345.68C3409.61 1344.58 3408.22 1344.02 3406.84 1344.02L3393.3 1344.02 3392.2 1333.25 3416.51 1308.94C3430.05 1303.97 3440 1288.22 3440 1269.44 3440 1246.51 3425.08 1228 3406.84 1228L3406.84 1288.77 3375.07 1257.01C3374.24 1260.87 3373.68 1265.02 3373.68 1269.44 3373.68 1289.33 3385.01 1305.9 3399.93 1310.05L3388.05 1321.92C3385.01 1317.5 3380.32 1314.19 3374.79 1313.08L3357.38 1309.22C3360.42 1307.28 3362.63 1303.97 3362.63 1299.82 3362.63 1293.75 3357.66 1288.77 3351.58 1288.77 3345.5 1288.77 3340.53 1293.75 3340.53 1299.82 3340.53 1302.03 3341.08 1303.97 3342.18 1305.63L3341.63 1305.63C3340.8 1305.35 3340.25 1305.35 3339.42 1305.35L3335 1305.35 3330.58 1305.35C3329.75 1305.35 3328.92 1305.35 3328.09 1305.63L3327.54 1305.63C3328.64 1303.97 3329.2 1301.76 3329.2 1299.82 3329.2 1293.75 3324.22 1288.77 3318.14 1288.77 3312.07 1288.77 3307.09 1293.75 3307.09 1299.82 3307.09 1303.69 3309.03 1307.28 3312.34 1309.22L3294.93 1313.08C3289.41 1314.19 3284.71 1317.5 3281.67 1321.92L3269.79 1310.05C3284.99 1305.9 3296.32 1289.33 3296.32 1269.44 3296.32 1265.02 3295.76 1260.87 3294.93 1257.01L3263.16 1288.77 3263.16 1228C3244.92 1228 3230 1246.51 3230 1269.44 3230 1288.22 3239.95 1303.97 3253.49 1309.22L3277.8 1333.53 3276.7 1344.02 3263.16 1344.02C3261.78 1344.02 3260.39 1344.58 3259.29 1345.68L3242.71 1362.26C3240.5 1364.47 3240.5 1367.78 3242.71 1369.99 3243.82 1371.1 3245.2 1371.65 3246.58 1371.65 3247.96 1371.65 3249.34 1371.1 3250.45 1369.99L3265.37 1355.07 3275.32 1355.07 3273.66 1368.89 3268.68 1368.89C3267.3 1368.89 3265.92 1369.44 3264.82 1370.54L3248.24 1387.12C3246.03 1389.33 3246.03 1392.65 3248.24 1394.85 3249.34 1395.96 3250.72 1396.51 3252.1 1396.51 3253.49 1396.51 3254.87 1395.96 3255.97 1394.85L3270.89 1379.94 3273.1 1379.94C3273.66 1384.63 3276.14 1388.78 3279.74 1391.54L3264.82 1406.46C3263.71 1407.56 3263.16 1408.94 3263.16 1410.32L3263.16 1432.42C3263.16 1435.46 3265.64 1437.95 3268.68 1437.95 3271.72 1437.95 3274.21 1435.46 3274.21 1432.42L3274.21 1412.53 3291.07 1395.68 3305.16 1399 3297.7 1406.46C3296.87 1407.56 3296.32 1408.94 3296.32 1410.32L3296.32 1443.47C3296.32 1446.51 3298.8 1449 3301.84 1449 3304.88 1449 3307.37 1446.51 3307.37 1443.47L3307.37 1412.53 3317.87 1402.04 3328.09 1404.52C3328.92 1404.8 3329.75 1404.8 3330.58 1404.8L3335 1404.8 3339.14 1404.8C3339.97 1404.8 3340.8 1404.8 3341.63 1404.52L3351.85 1402.04 3362.36 1412.53 3362.36 1443.47C3362.36 1446.51 3364.84 1449 3367.88 1449 3370.92 1449 3373.41 1446.51 3373.41 1443.47L3373.41 1410.32C3373.41 1408.94 3372.85 1407.56 3371.75 1406.46L3364.29 1399 3378.38 1395.68 3395.24 1412.53 3395.24 1432.42C3395.24 1435.46 3397.72 1437.95 3400.76 1437.95 3403.8 1437.95 3406.29 1435.46 3406.29 1432.42L3406.29 1410.32C3406.29 1408.94 3405.74 1407.56 3404.63 1406.46L3390.26 1391.54C3393.85 1388.78 3396.34 1384.63 3396.89 1379.94L3399.1 1379.94 3414.03 1394.85C3415.13 1395.96 3416.51 1396.51 3417.89 1396.51 3419.28 1396.51 3420.66 1395.96 3421.76 1394.85 3423.97 1392.65 3423.97 1389.33 3421.76 1387.12L3405.18 1370.54C3404.08 1369.44 3402.7 1368.89 3401.32 1368.89L3396.07 1368.89 3394.41 1355.07 3404.36 1355.07 3419.28 1369.99C3420.66 1371.1 3422.04 1371.65 3423.42 1371.65 3424.8 1371.65 3426.18 1371.1 3427.29 1369.99 3429.5 1367.78 3429.5 1364.47 3427.29 1362.26L3410.71 1345.68Z" fill="#F2F2F2" fill-rule="evenodd"/><path d="M3703.17 1439C3696.28 1446.12 3686.34 1450.51 3675.59 1450.51 3664.83 1450.51 3654.9 1446.12 3648 1439 3641.1 1446.12 3631.17 1450.51 3620.41 1450.51 3609.65 1450.51 3599.72 1446.12 3592.83 1439 3585.93 1446.12 3576 1450.51 3565.24 1450.51 3563.59 1450.51 3561.93 1450.23 3560 1450.23L3581.79 1519 3714.21 1519 3736 1450.23C3734.07 1450.23 3732.41 1450.51 3730.76 1450.51 3720 1450.51 3710.07 1446.12 3703.17 1439Z" fill="#F2F2F2" fill-rule="evenodd"/><path d="M3704.85 1382.74 3693.25 1393.72C3691.04 1395.92 3687.45 1395.64 3685.52 1393.45 3684.41 1392.35 3684.14 1390.98 3684.14 1389.6 3684.14 1388.23 3684.69 1386.59 3685.79 1385.49L3697.4 1374.51C3699.61 1372.32 3703.2 1372.59 3705.13 1374.79 3707.06 1376.98 3707.06 1380.55 3704.85 1382.74ZM3666.18 1358.6C3665.07 1359.69 3663.69 1359.97 3662.31 1359.97 3660.93 1359.97 3659.27 1359.42 3658.17 1358.32L3647.12 1346.8C3644.91 1344.6 3645.18 1341.03 3647.39 1339.11 3649.6 1336.92 3653.2 1337.19 3655.13 1339.39L3666.18 1350.91C3668.39 1353.11 3668.39 1356.4 3666.18 1358.6ZM3635.79 1401.95C3633.58 1404.15 3629.99 1403.87 3628.06 1401.68L3617.01 1390.15C3614.8 1387.96 3615.07 1384.39 3617.28 1382.47 3618.39 1381.37 3619.77 1381.1 3621.15 1381.1 3622.53 1381.1 3624.19 1381.65 3625.29 1382.74L3636.34 1394.27C3638 1396.19 3638 1399.76 3635.79 1401.95ZM3605.96 1363.53 3594.35 1374.51C3592.14 1376.71 3588.55 1376.43 3586.62 1374.24 3584.41 1372.04 3584.69 1368.47 3586.9 1366.55L3598.5 1355.58C3600.71 1353.38 3604.3 1353.66 3606.23 1355.85 3607.34 1356.95 3607.61 1358.32 3607.61 1359.69 3607.61 1360.79 3607.06 1362.44 3605.96 1363.53ZM3738.28 1384.94C3726.68 1347.89 3690.77 1321 3648.5 1321 3606.23 1321 3570.32 1347.89 3558.72 1384.94 3546.84 1387.96 3538 1398.66 3538 1411.56 3538 1426.65 3550.43 1439 3565.62 1439 3580.82 1439 3593.25 1426.65 3593.25 1411.56 3593.25 1426.65 3605.68 1439 3620.87 1439 3636.07 1439 3648.5 1426.65 3648.5 1411.56 3648.5 1426.65 3660.93 1439 3676.12 1439 3691.32 1439 3703.75 1426.65 3703.75 1411.56 3703.75 1426.65 3716.18 1439 3731.37 1439 3746.57 1439 3759 1426.65 3759 1411.56 3759 1398.66 3750.16 1387.96 3738.28 1384.94Z" fill="#F2F2F2" fill-rule="evenodd"/><path d="M3931.41 2024.09C3928.09 2013.04 3920.89 2003.64 3910.93 1997.83 3910.93 1997 3910.93 1996.17 3910.93 1995.34 3911.21 1976.54 3895.71 1961.06 3876.61 1961.06 3870.8 1961.06 3865.54 1962.44 3860.83 1964.93 3854.47 1955.81 3844.23 1950 3832.33 1950 3817.1 1950 3804.1 1959.95 3799.39 1973.78 3794.41 1971.01 3788.6 1969.35 3782.51 1969.35 3763.41 1969.35 3747.91 1984.84 3747.91 2003.91 3747.91 2011.1 3750.12 2017.74 3754 2023.26 3736.01 2027.96 3723 2044 3723 2063.35 3723 2086.3 3741.54 2104.82 3764.52 2104.82 3767.84 2104.82 3771.16 2104.27 3774.48 2103.72 3787.77 2109.8 3817.1 2127.49 3818.49 2147.68L3817.38 2173.94C3817.38 2175.32 3816.83 2176.71 3815.72 2177.81L3813.23 2180.3C3811.57 2182.24 3812.68 2185 3815.17 2185L3845.61 2185C3847.83 2185 3848.93 2182.79 3848.1 2180.85 3848.1 2180.85 3846.72 2178.09 3845.89 2177.26 3845.06 2176.15 3844.23 2175.05 3844.23 2173.39L3843.12 2139.94C3843.12 2139.66 3843.4 2139.38 3843.4 2139.38 3845.61 2129.43 3858.9 2122.79 3873.01 2115.88 3887.13 2108.97 3903.73 2100.68 3908.99 2086.3 3912.31 2087.41 3915.91 2088.24 3919.79 2088.24 3938.05 2088.24 3953 2073.31 3953 2055.06 3952.72 2040.96 3943.87 2028.79 3931.41 2024.09ZM3831.77 2108.42C3830.94 2101.51 3829.28 2093.21 3825.96 2085.19 3832.88 2084.36 3839.25 2082.15 3844.78 2078.84 3838.97 2088.79 3834.54 2099.57 3831.77 2108.42ZM3789.98 2095.98C3794.96 2092.11 3799.11 2086.85 3802.16 2081.05 3804.65 2082.15 3807.14 2083.26 3809.91 2083.81 3817.1 2095.7 3818.49 2109.25 3818.49 2117.82 3809.63 2108.42 3798.28 2100.95 3789.98 2095.98ZM3866.65 2103.44C3858.62 2107.31 3850.32 2111.46 3843.67 2116.44 3847.27 2105.1 3853.64 2087.96 3863.6 2075.52 3870.52 2079.94 3878.82 2082.43 3887.68 2082.43 3890.45 2082.43 3892.94 2082.15 3895.43 2081.6 3892.39 2090.17 3881.59 2095.98 3866.65 2103.44Z" fill="#A6A6A6" fill-rule="evenodd"/><path d="M3014.51 1733.24C3015.07 1739.75 3009.3 1753.39 3013.61 1762.85 3015.33 1766.66 3022.48 1768.4 3031.06 1768.87 3023.67 1772.65 3018.78 1776.83 3018.78 1780.56 3018.78 1796.65 3029.03 1792.07 3040.44 1799.7 3059.81 1812.66 3086.62 1828.9 3101.86 1826.82 3126.07 1823.52 3119.15 1813.6 3150.28 1816.91 3181.4 1820.21 3200.68 1829.88 3222.9 1823.52 3240.54 1818.46 3249.27 1809.96 3253.57 1802.85 3255.71 1799.23 3254.5 1794.57 3250.87 1792.44 3250.63 1792.3 3250.38 1792.17 3250.13 1792.06 3250.16 1785.31 3248.79 1778.63 3246.11 1772.43 3245.86 1771.89 3245.32 1771.55 3244.73 1771.54L3244.73 1771.54C3244.14 1771.54 3243.6 1771.88 3243.35 1772.42L3234.21 1791.72C3231.85 1791.79 3229.4 1791.84 3226.91 1791.88 3225.62 1785.06 3223.55 1778.41 3220.74 1772.06 3220.5 1771.47 3219.9 1771.11 3219.27 1771.17 3218.64 1771.21 3218.1 1771.62 3217.9 1772.21L3211.31 1791.75C3208.98 1791.67 3206.68 1791.56 3204.47 1791.41 3203.3 1783.51 3201.07 1775.81 3197.83 1768.51 3197.59 1767.93 3196.99 1767.57 3196.36 1767.62 3195.73 1767.66 3195.19 1768.07 3194.99 1768.66L3188.1 1789.1C3186.02 1788.63 3183.84 1788.1 3181.55 1787.49 3180.47 1780.15 3178.18 1773.03 3174.78 1766.42 3174.38 1765.68 3173.45 1765.4 3172.71 1765.8 3172.37 1765.99 3172.11 1766.29 3171.98 1766.66L3166.47 1783.03C3163.71 1782.16 3160.9 1781.25 3158.03 1780.29 3156.75 1774.39 3154.68 1768.69 3151.88 1763.35 3151.59 1762.81 3151.01 1762.5 3150.4 1762.56 3149.8 1762.62 3149.28 1763.02 3149.09 1763.6L3144.95 1775.88C3121.13 1767.75 3096.47 1759.11 3081.71 1757.63 3093.69 1752.09 3109.7 1744.81 3123.04 1739.89L3124.73 1747.77C3124.85 1748.34 3125.29 1748.79 3125.86 1748.93 3125.98 1748.96 3126.1 1748.98 3126.23 1748.98 3126.68 1748.98 3127.11 1748.78 3127.4 1748.43 3130.54 1744.51 3133.29 1740.3 3135.61 1735.86 3137.87 1735.23 3140.19 1734.78 3142.53 1734.53L3144.91 1734.33 3148.37 1748.17C3148.58 1748.99 3149.41 1749.49 3150.23 1749.28 3150.46 1749.22 3150.67 1749.12 3150.85 1748.97 3156.16 1744.28 3160.63 1738.71 3164.06 1732.52L3167.63 1732.86 3171.85 1748.2C3172.08 1749.02 3172.92 1749.49 3173.73 1749.27 3174.01 1749.2 3174.25 1749.05 3174.45 1748.84 3178.85 1743.87 3182.35 1738.17 3184.77 1732 3187.68 1731.87 3190.51 1731.74 3193.25 1731.63L3197.79 1752.84C3197.92 1753.41 3198.36 1753.86 3198.93 1754 3199.05 1754.03 3199.17 1754.05 3199.29 1754.05 3199.75 1754.05 3200.18 1753.85 3200.47 1753.5 3205.96 1746.66 3210.49 1739.1 3213.94 1731.04 3216.28 1730.98 3218.62 1730.75 3220.93 1730.36L3226.67 1754.48C3226.81 1755.07 3227.29 1755.52 3227.89 1755.63 3227.98 1755.65 3228.08 1755.65 3228.17 1755.66 3228.68 1755.65 3229.15 1755.4 3229.44 1754.98 3229.98 1754.18 3239.7 1739.67 3241.73 1724.92 3243.91 1724.19 3246.05 1723.44 3248.11 1722.68L3254.63 1742.01C3254.83 1742.6 3255.37 1743.01 3255.99 1743.04L3256.08 1743.04C3256.67 1743.04 3257.22 1742.69 3257.47 1742.15 3261.31 1733.56 3263.68 1724.39 3264.48 1715.01 3273.34 1708.32 3275.62 1696 3269.75 1686.59 3262.9 1675.57 3252.65 1667.05 3240.55 1662.32 3219.03 1654.33 3195.48 1658.53 3174.8 1660.31 3154.13 1662.1 3111.36 1649.39 3090.69 1651.17 3074.43 1653.37 3058.65 1658.22 3043.97 1665.52 3026 1674.21 3014.57 1692.36 3014.52 1712.29ZM3171.87 1686.82C3177.84 1688.15 3187.14 1711.94 3169.21 1707.94 3156.9 1705.19 3165.19 1685.33 3171.87 1686.82ZM3105.54 1715.71C3104.21 1715.85 3102.9 1715.3 3102.07 1714.25 3100.82 1712.42 3101.89 1709.9 3103.25 1706.71 3104.52 1703.72 3106.1 1700 3105.11 1697.53 3103.38 1694.38 3101.1 1691.58 3098.36 1689.26 3097.02 1687.95 3095.76 1686.72 3094.71 1685.51 3093.5 1684.1 3093.27 1682.1 3094.13 1680.45 3094.81 1678.99 3096.32 1678.11 3097.93 1678.22 3106.28 1678.88 3126.78 1680.94 3136.77 1686.02 3142.13 1688.75 3145.1 1691.56 3145.85 1694.6 3146.24 1697.72 3145.21 1700.84 3143.05 1703.12L3142.65 1703.7C3137.62 1710.89 3112.72 1715.54 3105.73 1715.71ZM3229.31 1684.41C3222.95 1681.9 3221.76 1683.68 3210.02 1673.85 3205.05 1669.69 3215.86 1670.29 3228.32 1672.27 3240.79 1674.26 3251.91 1683.8 3245.16 1689.21 3242.43 1691.39 3235.67 1686.93 3229.31 1684.41Z" fill="#D9D9D9" fill-rule="evenodd"/><path d="M3069.96 1767.61C3051.97 1769.19 3039.5 1788.22 3038.99 1809.87 3038.4 1835.14 3047.52 1866.95 3058.86 1865.46 3069.37 1864.28 3080.03 1865 3090.77 1867.6 3101.33 1869.98 3109.2 1851.54 3108.36 1826.42 3108.23 1822.69 3107.92 1818.93 3107.41 1815.23 3103.5 1794.82 3086.7 1766.14 3069.96 1767.61Z" fill="#A6A6A6" fill-rule="evenodd"/><path d="M3002.18 1804C2998.51 1803.89 2992.28 1808.93 2992.01 1812.62 2991.81 1816.44 2993.83 1820 2997.09 1821.57 3000.01 1822.3 3003.06 1822.1 3005.87 1821 3008.8 1819.58 3010.45 1816.21 3009.89 1812.82 3009.12 1809.38 3005.89 1804.12 3002.18 1804Z" fill="#A6A6A6" fill-rule="evenodd"/><path d="M3245.59 1832.16C3241.77 1834.46 3239.61 1838.77 3240.06 1843.22 3241.07 1846.72 3244.78 1850.24 3247.27 1849.99 3249.92 1849.78 3252.42 1848.66 3254.34 1846.81 3256.32 1844.27 3256.55 1840.77 3254.92 1838 3253.14 1835.06 3248.7 1831.15 3245.59 1832.16Z" fill="#A6A6A6" fill-rule="evenodd"/><path d="M3140.59 1847.16C3136.77 1849.46 3134.61 1853.77 3135.06 1858.22 3136.08 1861.72 3139.78 1865.23 3142.27 1864.99 3144.92 1864.78 3147.42 1863.66 3149.34 1861.81 3151.32 1859.27 3151.55 1855.77 3149.92 1853 3148.14 1850.06 3143.7 1846.15 3140.59 1847.16Z" fill="#A6A6A6" fill-rule="evenodd"/><path d="M3177.47 1835C3171.17 1834.9 3160.49 1839.64 3160.03 1843.14 3159.58 1846.63 3164.02 1850.99 3168.75 1851.59 3173.77 1852.28 3178.87 1852.1 3183.82 1851.05 3188.18 1849.98 3192.09 1846.56 3190.72 1843.32 3188.01 1838.44 3183.01 1835.3 3177.47 1835Z" fill="#A6A6A6" fill-rule="evenodd"/><path d="M2966.89 1719.95 2962.1 1719.95 2954.08 1713.52C2952.36 1712.16 2950.44 1711.08 2948.4 1710.31 2948.43 1702.54 2944.69 1695.24 2938.37 1690.75 2934.94 1688.27 2930.94 1686.71 2926.74 1686.24 2926.11 1686.18 2925.53 1686.54 2925.3 1687.12 2925.07 1687.7 2925.27 1688.37 2925.77 1688.74 2931.78 1693.08 2937.18 1701.47 2937.14 1708.88L2932.56 1708.88C2928.92 1699.88 2920.16 1694.04 2910.48 1694.17 2906.25 1694.17 2902.09 1695.26 2898.41 1697.34 2897.75 1697.72 2897.51 1698.56 2897.88 1699.23 2898.13 1699.66 2898.59 1699.93 2899.09 1699.93 2906.77 1699.98 2914.08 1703.22 2919.28 1708.88L2907.54 1708.88C2904.11 1708.88 2901.33 1711.67 2901.33 1715.11 2901.33 1718.55 2904.11 1721.33 2907.54 1721.33L2907.74 1721.33 2910.52 1726.08C2911.66 1728.06 2911.92 1730.42 2911.22 1732.59 2907.91 1745.63 2907.26 1759.2 2909.32 1772.5 2909.5 1773.88 2909.7 1775.27 2909.93 1776.62 2910.48 1779.94 2909.61 1783.33 2907.53 1785.97 2905.76 1788.24 2903.19 1789.75 2900.34 1790.18 2893.94 1776.33 2884.98 1748.89 2884.09 1732.99L2884 1731.52C2883.15 1715.35 2886.03 1699.21 2892.42 1684.35 2892.7 1683.66 2892.59 1682.86 2892.12 1682.28 2878.15 1664.53 2847.56 1657.54 2816.01 1664.88 2783.79 1672.38 2758.6 1692.71 2753.31 1715.47 2753.02 1716.73 2753.8 1717.99 2755.05 1718.28 2755.64 1718.42 2756.26 1718.33 2756.77 1718.02 2762.45 1714.66 2768.61 1712.19 2775.03 1710.71 2786.37 1708.08 2793.39 1706.69 2801.81 1709.21 2786.32 1719.15 2776.66 1736.06 2775.93 1754.49 2775.88 1755.44 2776.41 1756.31 2777.27 1756.71 2778.13 1757.04 2779.11 1756.86 2779.79 1756.23 2784.39 1751.63 2789.69 1747.78 2795.48 1744.81 2802.72 1741.59 2806.18 1740.77 2812.76 1741.55 2800.5 1752.63 2796 1769.95 2801.3 1785.61 2801.59 1786.5 2802.39 1787.13 2803.32 1787.2 2804.24 1787.22 2805.1 1786.73 2805.56 1785.93 2809.33 1779.41 2814.59 1773.89 2820.92 1769.81 2822.4 1768.82 2823.97 1767.96 2825.61 1767.25 2831.53 1764.91 2838.23 1767.78 2840.62 1773.7 2841.61 1775.96 2841.47 1778.56 2840.22 1780.69 2819.76 1778.6 2801.49 1793.53 2799.4 1814.04 2799.27 1815.3 2799.21 1816.56 2799.21 1817.83L2799.21 1821.83C2799.38 1831.52 2793.33 1840.24 2784.2 1843.43 2778.38 1845.46 2771.93 1844.54 2766.92 1840.94 2762.07 1837.42 2759.2 1831.78 2759.19 1825.78L2759.19 1800.55 2767.77 1794.09C2769.47 1792.83 2770.15 1790.59 2769.43 1788.59L2758.06 1756.7C2757.32 1754.65 2755.07 1753.58 2753.02 1754.31 2751.91 1754.71 2751.04 1755.59 2750.64 1756.7L2739.28 1788.59C2738.57 1790.59 2739.24 1792.82 2740.94 1794.09L2749.48 1800.51 2748.28 1828.14C2747.43 1847.76 2762.6 1864.36 2782.17 1865.21 2782.68 1865.23 2783.2 1865.24 2783.71 1865.24L2789.26 1865.24C2807.63 1865.24 2822.3 1850.12 2822.66 1830.82 2822.78 1823.78 2828.58 1818.18 2835.59 1818.31 2836.42 1818.32 2837.24 1818.42 2838.05 1818.59L2834.46 1845.46C2834.32 1846.5 2834.38 1847.56 2834.64 1848.57L2840.16 1870.71C2841.08 1874.41 2844.4 1877 2848.2 1877L2867.52 1877C2872.09 1877 2875.8 1873.28 2875.8 1868.7 2875.8 1864.11 2872.09 1860.4 2867.52 1860.4L2854.66 1860.4 2851.29 1846.85C2855.41 1844.21 2858.87 1840.64 2861.38 1836.43 2863.59 1832.1 2865.25 1827.52 2866.35 1822.79 2866.66 1821.29 2868.12 1820.33 2869.61 1820.64 2871.11 1820.95 2872.06 1822.42 2871.75 1823.92 2871.75 1823.95 2871.74 1823.99 2871.73 1824.02 2871.04 1826.96 2870.14 1829.85 2869.05 1832.66L2877.67 1836.67C2887.55 1841.25 2898.1 1844.17 2908.92 1845.31L2908.92 1868.7C2908.92 1873.28 2912.63 1877 2917.2 1877L2936.53 1877C2941.1 1877 2944.81 1873.28 2944.81 1868.7 2944.81 1864.11 2941.1 1860.4 2936.53 1860.4L2925.48 1860.4 2925.48 1845.7C2931.63 1845.08 2937.37 1842.35 2941.74 1837.98 2946.82 1832.95 2949.66 1826.08 2949.64 1818.92 2949.65 1804.01 2946.81 1789.23 2941.28 1775.39L2939.56 1771.07C2938.94 1769.51 2938.61 1767.84 2938.6 1766.15 2938.6 1765.27 2938.94 1764.42 2939.56 1763.79 2940.16 1763.18 2940.98 1762.84 2941.84 1762.84L2962.99 1762.84C2967.81 1762.84 2971.72 1758.92 2971.73 1754.08L2971.73 1752.47C2971.73 1751.32 2970.8 1750.39 2969.66 1750.39L2947 1750.39C2947.81 1744.83 2952.56 1740.71 2958.16 1740.71L2977.93 1740.71C2979.07 1740.71 2980 1739.78 2980 1738.63L2980 1733.09C2979.99 1725.84 2974.13 1719.96 2966.89 1719.95ZM2941.38 1730.05C2937.82 1727.18 2937.24 1721.96 2940.11 1718.38L2953.03 1728.77C2950.17 1732.34 2944.95 1732.92 2941.39 1730.05 2941.39 1730.05 2941.38 1730.05 2941.38 1730.05Z" fill="#F2F2F2" fill-rule="evenodd"/><path d="M2552.33 2003.82 2486.76 1888.9C2485.65 1886.69 2484.83 1884.48 2484.83 1882 2484.83 1880.89 2485.1 1879.51 2485.38 1878.4L2493.92 1846.64C2494.2 1845.25 2495.57 1844.43 2496.95 1844.7L2519.82 1846.91C2520.64 1846.91 2521.19 1846.64 2521.19 1845.81L2526.15 1823.43C2526.43 1822.88 2525.88 1822.05 2525.33 1821.77L2504.11 1814.04C2498.6 1812.1 2492.82 1811 2487.03 1811L2484.83 1811C2483.17 1811 2482.07 1812.1 2482.07 1813.76L2482.07 1816.52C2482.07 1828.68 2472.15 1838.62 2460.03 1838.62 2447.91 1838.62 2437.99 1828.68 2437.99 1816.52L2437.99 1813.76C2437.99 1812.1 2436.89 1811 2435.24 1811L2433.03 1811C2427.25 1811 2421.46 1812.1 2415.95 1814.04L2395.01 1821.77C2394.46 1822.05 2393.91 1822.6 2394.19 1823.43L2399.15 1845.81C2399.42 1846.36 2399.97 1846.91 2400.52 1846.91L2423.39 1844.7C2424.77 1844.7 2425.87 1845.53 2426.42 1846.64L2434.96 1878.4C2435.24 1879.51 2435.51 1880.89 2435.51 1882 2435.51 1884.48 2434.96 1886.69 2433.58 1888.9L2367.74 2003.82C2366.36 2006.31 2366.91 2009.35 2369.39 2011 2386.47 2023.44 2420.64 2032 2460.03 2032 2499.43 2032 2533.59 2023.44 2550.67 2011 2552.88 2009.35 2553.7 2006.31 2552.33 2003.82Z" fill="#595959" fill-rule="evenodd"/><path d="M3108.85 1507.01C3064.85 1479.54 3006.91 1492.95 2979.45 1536.95 2951.98 1580.96 2965.39 1638.9 3009.4 1666.36 3053.4 1693.83 3111.34 1680.42 3138.8 1636.41 3166.2 1592.4 3152.81 1534.51 3108.85 1507.01ZM3141.91 1589.47C3141.72 1595.52 3140.87 1601.54 3139.36 1607.41L3114.79 1592.08C3110.91 1589.65 3109.73 1584.54 3112.15 1580.66 3114.57 1576.78 3119.68 1575.59 3123.57 1578.02ZM3077.53 1529.79C3081.41 1532.21 3082.6 1537.32 3080.17 1541.21 3077.75 1545.09 3072.64 1546.27 3068.76 1543.85L3051.76 1533.24C3047.87 1530.82 3042.76 1532 3040.34 1535.88 3037.91 1539.77 3039.1 1544.88 3042.98 1547.3L3085.16 1573.63C3089.05 1576.05 3090.23 1581.16 3087.81 1585.05 3085.38 1588.93 3080.27 1590.11 3076.39 1587.69L2993.56 1535.99C3005.09 1521.08 3021.37 1510.56 3039.7 1506.18ZM3006.42 1583.1C3010.31 1585.52 3011.49 1590.63 3009.07 1594.52 3006.64 1598.4 3001.53 1599.58 2997.65 1597.16L2976.34 1583.86C2976.53 1577.8 2977.38 1571.78 2978.89 1565.92ZM3024.88 1633.69C3021 1631.27 3019.81 1626.16 3022.24 1622.28 3024.66 1618.39 3029.77 1617.21 3033.66 1619.63L3075.84 1645.96C3079.72 1648.38 3084.83 1647.2 3087.26 1643.32 3089.68 1639.43 3088.5 1634.32 3084.61 1631.9L3079.34 1628.61C3075.46 1626.18 3074.28 1621.07 3076.7 1617.19 3079.12 1613.31 3084.23 1612.12 3088.12 1614.55L3124.68 1637.36C3113.15 1652.27 3096.87 1662.8 3078.55 1667.19Z" fill="#595959" fill-rule="evenodd"/><path d="M3039.83 2179C3038.15 2179 3036.64 2177.99 3036.01 2176.44L3009.88 2115 2954.2 2092.09 2898.58 2115 2873.02 2175.87C2872.09 2177.98 2869.62 2178.94 2867.5 2178.01 2865.38 2177.08 2864.42 2174.61 2865.36 2172.5L2892.37 2108.5 2954.33 2083 3016.19 2108.57 3043.67 2173.17C3044.56 2175.29 3043.57 2177.73 3041.45 2178.63 3040.93 2178.85 3040.38 2178.98 3039.83 2179Z" fill="#F2F2F2" fill-rule="evenodd"/><path d="M2910 2236 2944 2213.86 2910 2192 2910 2236Z" fill="#F2F2F2" fill-rule="evenodd"/><path d="M2921 2189 2952.89 2209 2987 2189 2921 2189Z" fill="#F2F2F2" fill-rule="evenodd"/><path d="M2997 2236 2997 2192 2962 2213.86 2997 2236Z" fill="#F2F2F2" fill-rule="evenodd"/><path d="M3024 2245.11 3024 2175.4 3004.29 2119.05 2954.34 2098 2904.45 2119.16 2883 2175.23 2883 2248C2889.49 2244.79 2896.22 2242.1 2903.14 2239.97L2903.14 2185.31C2903.14 2183.02 2907.57 2181.95 2909.86 2181.95L2997.14 2181.95C2999.43 2181.95 3003.86 2183.02 3003.86 2185.31L3003.86 2238.23C3010.73 2240.03 3017.46 2242.33 3024 2245.11ZM2983.71 2160.76C2983.71 2163.19 2981.75 2165.16 2979.32 2165.16L2927.68 2165.16C2925.25 2165.16 2923.29 2163.19 2923.29 2160.76L2923.29 2128.42C2923.3 2126.46 2924.89 2124.88 2926.84 2124.86L2978.88 2124.86C2981.53 2124.85 2983.7 2126.98 2983.71 2129.63 2983.71 2129.65 2983.71 2129.68 2983.71 2129.7Z" fill="#F2F2F2" fill-rule="evenodd"/><path d="M2930 2131 2977 2131 2977 2158 2930 2158Z" fill="#F2F2F2" fill-rule="evenodd"/><path d="M2761 2104 2778 2104 2778 2111 2761 2111Z" fill="#F2F2F2" fill-rule="evenodd"/><path d="M2784.39 2092 2773 2079.93 2777.65 2075 2789 2087.07 2784.39 2092Z" fill="#F2F2F2" fill-rule="evenodd"/><path d="M2825 2108C2825 2119.05 2816.05 2128 2805 2128 2793.95 2128 2785 2119.05 2785 2108 2785 2096.95 2793.95 2088 2805 2088 2816.05 2088 2825 2096.95 2825 2108Z" fill="#F2F2F2" fill-rule="evenodd"/><path d="M2802 2064 2808 2064 2808 2081 2802 2081Z" fill="#F2F2F2" fill-rule="evenodd"/><path d="M2832 2104 2849 2104 2849 2111 2832 2111Z" fill="#F2F2F2" fill-rule="evenodd"/><path d="M2825.9 2092 2838 2079.93 2833.06 2075 2821 2087.07 2825.9 2092Z" fill="#F2F2F2" fill-rule="evenodd"/><path d="M2784.39 2124 2773 2136.1 2777.65 2141 2789 2128.93 2784.39 2124Z" fill="#F2F2F2" fill-rule="evenodd"/><path d="M2802 2135 2808 2135 2808 2152 2802 2152Z" fill="#F2F2F2" fill-rule="evenodd"/><path d="M2825.9 2124 2838 2136.1 2833.06 2141 2821 2128.93 2825.9 2124Z" fill="#F2F2F2" fill-rule="evenodd"/><path d="M2956.88 2232.13C2964.27 2232.13 2971.66 2232.54 2979 2233.34L2953.47 2219 2929 2234C2938.24 2232.75 2947.55 2232.13 2956.88 2232.13Z" fill="#F2F2F2" fill-rule="evenodd"/><path d="M2786.63 2276C2840.65 2272.62 2868.94 2255.7 2871.03 2254.72 2873.6 2252.93 2876.26 2251.28 2879 2249.78 2837.3 2207.08 2761 2212.19 2761 2212.19L2761 2276Z" fill="#F2F2F2" fill-rule="evenodd"/><path d="M3051 2273.39 3039.06 2265.7C3020.04 2251.39 2989.12 2243 2956.58 2243 2924.95 2243 2895.68 2250.69 2876.46 2263.98 2876.12 2264.22 2846.48 2283.02 2787.07 2286.78L2761 2286.78 2761 2317 3051 2317Z" fill="#F2F2F2" fill-rule="evenodd"/><path d="M3733.21 1549.56C3733 1544.99 3729.13 1541.45 3724.56 1541.66 3720.75 1541.83 3717.54 1544.57 3716.8 1548.32L3575.63 1537.57 3561.58 1617.68 3697.96 1655.63C3697.29 1660.16 3700.41 1664.37 3704.94 1665.04 3708.69 1665.59 3712.34 1663.53 3713.8 1660.04L3714.13 1659.26C3739.52 1663.68 3764.59 1649.99 3774.59 1626.24L3785.85 1629.24 3789.45 1663.56C3789.93 1668.11 3794.01 1671.41 3798.56 1670.94 3803.11 1670.46 3806.41 1666.38 3805.94 1661.83L3801.74 1621.83C3801.38 1618.41 3798.95 1615.57 3795.62 1614.68L3778.64 1610.17C3781.42 1581.47 3761.66 1555.45 3733.26 1550.42ZM3717.03 1642.93 3722.39 1612.37 3758.37 1621.94C3750.77 1637.33 3733.94 1645.87 3717.03 1642.93ZM3660.74 1628.06 3666.11 1597.42 3706.31 1608.1 3700.85 1639.22ZM3713.92 1564.72 3709.18 1591.73 3668.99 1581.03 3672.41 1561.56ZM3762.32 1605.83 3725.26 1595.99 3730.39 1566.75C3749.24 1570.09 3762.81 1586.7 3762.32 1605.83Z" fill="#FFFFFF" fill-rule="evenodd"/><path d="M3490.25 1948.16C3476.2 1943.39 3469.03 1928.26 3473.7 1914.55 3478.36 1900.84 3493.6 1893.34 3507.31 1898 3521.35 1902.78 3528.52 1917.9 3523.86 1931.61 3519.2 1945.32 3503.96 1952.83 3490.25 1948.16ZM3560.64 1926.59C3560.89 1921.45 3560.7 1916.54 3559.72 1911.73L3570.42 1897.83 3562.48 1881.7 3544.94 1881.7C3541.72 1877.99 3537.95 1874.84 3533.72 1871.91L3531.37 1854.7 3514.65 1849.01 3502.28 1861.22C3497.15 1860.97 3492.23 1861.16 3487.42 1862.14L3473.53 1851.44 3457.39 1859.38 3457.4 1876.92C3453.69 1880.14 3450.54 1883.92 3447.61 1888.14L3430.39 1890.49 3424.71 1907.21 3436.92 1919.58C3436.66 1924.71 3436.86 1929.63 3437.83 1934.44L3427.14 1948.34 3434.86 1964.02 3452.4 1964.02C3455.61 1967.72 3459.39 1970.87 3463.62 1973.8L3465.97 1991.02 3482.69 1996.71 3495.05 1984.5C3500.19 1984.75 3505.1 1984.56 3509.91 1983.58L3523.81 1994.28 3539.83 1986.67 3539.83 1969.13C3543.53 1965.91 3547.13 1961.92 3549.95 1958.02L3567.16 1955.67 3572.85 1938.95 3560.64 1926.59Z" fill="#A6A6A6" fill-rule="evenodd"/><path d="M3373.27 2044.18C3359.22 2039.4 3352.05 2024.28 3356.72 2010.57 3361.5 1996.52 3376.62 1989.36 3390.33 1994.02 3404.37 1998.8 3411.54 2013.92 3406.88 2027.63 3402.22 2041.34 3387.31 2048.96 3373.27 2044.18L3373.27 2044.18ZM3442.74 2007.74 3453.44 1993.85 3445.5 1977.71 3427.96 1977.72C3424.74 1974.01 3420.63 1970.75 3416.74 1967.93L3414.39 1950.72 3397.67 1945.03 3385.3 1957.24C3380.17 1956.98 3375.25 1957.18 3370.44 1958.15L3356.55 1947.46 3340.86 1955.18 3340.53 1972.6C3336.82 1975.82 3333.56 1979.93 3330.74 1983.83L3313.53 1986.18 3307.84 2002.9 3320.05 2015.26C3319.8 2020.4 3319.99 2025.31 3320.97 2030.12L3310.6 2044.13 3318.33 2059.82 3335.75 2060.15C3338.97 2063.85 3342.75 2067 3346.97 2069.93L3349.32 2087.15 3366.04 2092.84 3378.41 2080.63C3383.54 2080.88 3388.46 2080.69 3393.27 2079.71L3407.17 2090.41 3422.96 2082.35 3423.18 2065.26C3426.89 2062.05 3430.04 2058.27 3432.97 2054.04L3450.18 2051.69 3455.87 2034.97 3443.66 2022.61C3443.91 2017.47 3443.72 2012.55 3442.74 2007.74Z" fill="#A6A6A6" fill-rule="evenodd"/><path d="M3272.42 1996.87C3271.57 1994.93 3270.04 1993.37 3268.13 1992.47L3257.67 1987.55C3256.21 1986.85 3254.95 1985.81 3254 1984.5L3250.41 1979.56C3248.38 1976.78 3245.28 1974.97 3241.86 1974.57L3234.41 1974.66 3233.12 1965.14C3234.06 1964.04 3234.48 1962.59 3234.26 1961.15 3233.52 1958.47 3230.73 1956.89 3228.04 1957.64 3225.85 1958.25 3224.33 1960.25 3224.34 1962.52 3224.51 1963.95 3225.31 1965.23 3226.52 1966L3227.68 1974.96 3227.49 1975.03 3222.95 1967.42C3223.72 1964.74 3222.18 1961.94 3219.5 1961.17 3216.82 1960.39 3214.02 1961.93 3213.24 1964.61 3212.46 1967.29 3214.01 1970.1 3216.69 1970.87 3216.81 1970.91 3216.93 1970.94 3217.06 1970.96L3221.06 1977.33C3220.21 1977.83 3219.48 1978.5 3218.89 1979.29L3217.05 1981.74 3204.85 1983.24C3203.35 1983.4 3202.27 1984.74 3202.42 1986.24 3202.52 1987.11 3203.02 1987.88 3203.77 1988.32L3212.25 1992.62 3181.71 2124.89C3181 2128.03 3179.02 2130.75 3176.24 2132.39L3125.83 2167.08C3123.93 2168.2 3122.14 2169.48 3120.48 2170.93 3103.17 2181.26 3095.57 2202.38 3102.33 2221.37L3115.04 2256.85C3116.07 2259.76 3115.49 2262.99 3113.5 2265.35 3111.69 2267.48 3111.95 2270.66 3114.08 2272.47 3115.45 2273.64 3117.36 2273.99 3119.06 2273.38 3119.9 2273.09 3120.64 2272.57 3121.21 2271.89 3125.52 2266.77 3126.8 2259.75 3124.55 2253.45L3111.85 2217.96C3109.27 2210.75 3109.36 2202.86 3112.11 2195.71 3112.89 2200.23 3114.11 2204.66 3115.77 2208.93L3119.76 2220.06 3125.77 2236.87 3149.24 2302.4C3151.12 2307.65 3156.9 2310.39 3162.16 2308.51 3167.41 2306.62 3170.15 2300.84 3168.27 2295.58L3144.03 2227.9 3192.77 2204.12 3219.01 2277.41C3220.89 2282.67 3226.68 2285.4 3231.93 2283.52 3237.19 2281.64 3239.92 2275.86 3238.04 2270.6L3211.04 2195.18 3217.13 2192.21 3244.38 2268.33C3246.26 2273.58 3252.05 2276.32 3257.3 2274.44 3262.56 2272.56 3265.29 2266.77 3263.41 2261.52L3235.41 2183.31 3235.41 2183.31 3240.83 2162.18C3242.43 2157.8 3242.44 2153 3240.88 2148.61L3235.72 2134.21C3234.35 2130.4 3233.6 2126.39 3233.51 2122.33L3234.25 2009.68C3234.57 2006.76 3237.19 2004.65 3240.11 2004.97L3244.76 2005.45C3246.51 2005.65 3248.28 2005.44 3249.94 2004.85L3256.83 2002.38C3257.8 2002.02 3258.88 2002.02 3259.86 2002.37L3263.95 2003.8C3265.34 2004.31 3266.88 2004.16 3268.13 2003.38L3270.31 2002.06 3273.82 1999.59Z" fill="#404040" fill-rule="evenodd"/><path d="M3174.61 2293.31C3176.49 2298.57 3182.27 2301.3 3187.53 2299.42 3192.78 2297.54 3195.52 2291.75 3193.64 2286.5L3170.69 2222.4 3152.41 2231.31Z" fill="#404040" fill-rule="evenodd"/><path d="M3521.62 1600.69C3505.57 1563.71 3476.45 1534.94 3438.74 1520L3433.14 1533.82C3466.74 1547.27 3493.25 1573.05 3507.81 1606.67 3522 1640.29 3522.74 1677.28 3509.3 1710.9 3495.86 1744.52 3470.1 1771.04 3436.5 1785.61 3402.9 1799.81 3365.94 1800.56 3332.33 1787.11L3326.73 1800.93C3340.55 1806.53 3355.11 1809.9 3369.67 1811.02L3369.67 1825.59 3295 1825.59 3295 1848 3474.21 1848 3474.21 1825.59 3399.54 1825.59 3399.54 1810.64C3414.1 1809.15 3428.29 1805.04 3442.47 1799.44 3479.81 1783.37 3508.18 1754.23 3523.12 1716.5 3538.05 1678.77 3537.68 1638.05 3521.62 1600.69Z" fill="#7F7F7F" fill-rule="evenodd"/><path d="M3505 1660.5C3505 1727.6 3450.83 1782 3384 1782 3317.17 1782 3263 1727.6 3263 1660.5 3263 1593.4 3317.17 1539 3384 1539 3450.83 1539 3505 1593.4 3505 1660.5Z" fill="#7F7F7F" fill-rule="evenodd"/><path d="M3984.96 1359.25C3996.89 1329.52 3982.46 1295.74 3952.73 1283.8 3923 1271.87 3889.22 1286.29 3877.28 1316.02L3869.59 1312.94 3824.31 1425.73 3947.36 1475.13 3992.65 1362.33ZM3941.34 1371.5 3900.32 1355.04C3897.49 1353.9 3896.11 1350.69 3897.25 1347.85 3898.39 1345.02 3901.6 1343.65 3904.44 1344.78L3945.45 1361.25C3948.29 1362.39 3949.66 1365.6 3948.52 1368.44 3947.39 1371.27 3944.17 1372.64 3941.34 1371.5ZM3957.26 1354.08 3900.86 1331.44C3898.03 1330.31 3896.66 1327.09 3897.79 1324.26 3898.93 1321.43 3902.15 1320.05 3904.98 1321.19L3961.38 1343.83C3964.21 1344.97 3965.58 1348.18 3964.45 1351.01 3963.31 1353.85 3960.09 1355.22 3957.26 1354.08Z" fill="#595959" fill-rule="evenodd"/><path d="M3844 1449 3976 1449C3982.08 1449 3987 1454.05 3987 1460.27L3987 1480 3987 1480 3833 1480 3833 1480 3833 1460.27C3833 1454.05 3837.93 1449 3844 1449Z" fill="#404040" fill-rule="evenodd"/><path d="M2662.57 2112.4C2666.36 2131.79 2668.47 2186.17 2668.89 2206.4L2654.56 2218.21C2645.28 2219.47 2593.43 2230.01 2565.19 2230.01 2536.94 2230.01 2484.67 2219.89 2475.39 2217.79L2461.06 2205.98C2461.48 2185.33 2463.17 2130.95 2467.38 2111.55 2467.38 2111.55 2467.38 2111.55 2467.38 2111.55 2470.75 2117.46 2477.92 2119.14 2483.82 2115.77 2487.62 2113.66 2489.72 2109.87 2489.72 2105.65 2489.72 2105.23 2489.72 2104.81 2489.72 2103.97 2489.72 2103.97 2489.72 2103.97 2489.72 2103.97L2489.72 2103.97C2502.37 2122.51 2504.06 2138.96 2507.85 2147.81 2508.27 2149.49 2509.96 2149.92 2511.65 2149.49 2512.49 2149.07 2512.91 2148.65 2513.33 2147.81 2517.97 2137.27 2525.14 2115.35 2516.28 2093.85 2512.49 2085.42 2507.01 2079.52 2499 2075.3L2499 2074.88C2521.34 2083.31 2529.35 2098.06 2539.89 2106.07 2541.16 2106.92 2542.84 2106.92 2543.69 2106.07 2544.53 2105.23 2544.53 2104.39 2544.11 2103.12 2543.69 2084.57 2535.68 2057.59 2514.18 2049.16 2491.83 2041.15 2478.34 2057.17 2471.6 2064.76L2471.18 2064.76C2474.97 2055.49 2479.61 2036.09 2461.9 2022.18 2449.25 2012.49 2422.27 2014.6 2407.1 2017.12 2405.41 2017.55 2404.57 2018.81 2404.57 2020.5 2404.57 2021.76 2405.41 2022.6 2406.25 2022.6 2420.59 2028.09 2433.66 2036.52 2445.46 2046.63L2445.04 2047.06C2433.24 2039.89 2418.48 2036.94 2401.62 2045.79 2388.55 2053.38 2376.75 2073.19 2370.42 2085.84 2369.58 2087.1 2370 2089.21 2371.69 2089.63 2372.53 2090.05 2373.79 2090.05 2374.64 2089.63 2388.55 2080.36 2403.73 2074.04 2420.17 2070.66L2420.59 2071.08C2413.84 2074.88 2408.36 2080.78 2404.57 2087.52 2397.4 2100.17 2397.82 2119.99 2399.51 2132.63 2399.51 2134.32 2401.2 2135.58 2402.88 2135.16 2403.73 2135.16 2404.99 2134.32 2405.41 2133.47 2410.89 2120.41 2418.9 2108.6 2429.02 2098.91L2429.02 2098.91C2428.6 2100.17 2428.18 2101.44 2428.18 2102.7 2428.18 2109.45 2433.66 2114.5 2439.98 2114.5 2442.51 2114.5 2445.46 2113.66 2447.57 2111.98 2447.57 2111.98 2447.57 2111.98 2447.57 2111.98 2436.61 2163.83 2435.76 2281.02 2435.76 2301.68 2435.76 2305.05 2438.29 2307.58 2441.67 2307.58L2461.48 2307.58C2464.85 2307.58 2467.8 2304.63 2467.38 2301.26 2467.38 2300.83 2467.38 2300.83 2467.38 2300.41 2462.74 2274.7 2460.22 2248.14 2460.22 2222L2467.38 2227.48C2472.44 2234.65 2506.59 2280.18 2564.76 2280.18 2622.94 2280.18 2657.09 2235.07 2662.15 2227.9L2669.31 2222.42C2668.89 2248.56 2666.36 2275.12 2662.15 2300.83 2661.72 2304.21 2663.83 2307.16 2667.2 2308 2667.63 2308 2667.63 2308 2668.05 2308L2687.44 2308C2690.81 2308 2693.34 2305.47 2693.34 2302.1 2693.34 2281.86 2692.5 2164.25 2681.54 2112.4 2681.54 2112.4 2681.54 2112.4 2681.54 2112.4 2683.65 2114.08 2686.17 2114.93 2689.13 2114.93 2695.87 2114.93 2700.93 2109.45 2700.93 2103.12 2700.93 2101.86 2700.93 2100.59 2700.09 2098.91L2700.09 2098.91C2710.2 2109.02 2718.21 2120.83 2724.12 2133.9 2724.96 2135.58 2726.65 2136 2727.91 2135.16 2728.75 2134.74 2729.6 2133.9 2729.6 2132.63 2731.28 2119.99 2731.7 2100.17 2724.54 2087.52 2720.74 2080.78 2715.26 2074.88 2708.52 2071.08L2708.52 2070.66C2724.96 2074.04 2740.56 2080.36 2754.47 2089.63 2755.73 2090.48 2757.84 2090.05 2758.68 2088.79 2759.11 2087.95 2759.11 2086.68 2758.68 2085.84 2752.36 2073.19 2740.56 2053.38 2727.49 2045.79 2710.63 2036.52 2695.87 2039.89 2684.07 2047.06L2683.65 2046.63C2695.45 2036.94 2708.52 2028.51 2722.85 2022.6 2724.54 2022.18 2724.96 2020.5 2724.54 2018.81 2724.12 2017.97 2723.27 2017.12 2722.43 2017.12 2707.25 2014.6 2680.27 2012.49 2667.63 2022.18 2649.92 2036.09 2654.98 2055.49 2658.77 2064.76L2658.35 2065.18C2651.61 2057.59 2637.69 2041.15 2615.35 2049.58 2593.85 2057.59 2585.84 2084.57 2585.42 2103.54 2585 2104.81 2585.84 2106.5 2587.11 2106.92 2587.95 2107.34 2589.21 2106.92 2590.06 2106.5 2601.02 2098.49 2608.19 2083.73 2630.95 2075.3L2631.37 2075.72C2623.78 2079.52 2617.46 2086.26 2613.67 2094.27 2604.81 2115.35 2611.98 2137.69 2616.62 2148.23 2617.04 2149.92 2618.72 2150.34 2620.41 2149.92 2621.25 2149.49 2621.68 2149.07 2622.1 2148.23 2625.89 2139.8 2627.58 2122.94 2639.8 2104.81L2640.22 2104.81C2640.22 2105.23 2640.22 2106.07 2640.22 2106.5 2640.22 2113.24 2645.7 2118.3 2652.45 2118.3 2656.67 2117.88 2660.46 2115.77 2662.57 2112.4L2662.57 2112.4ZM2611.56 2255.73 2609.03 2253.2 2615.77 2246.45 2619.99 2250.67C2617.46 2252.35 2614.51 2254.04 2611.56 2255.73ZM2572.77 2267.53 2571.09 2265.84 2577.83 2259.1 2584.58 2265.84 2584.58 2265.84C2580.78 2266.69 2576.57 2267.11 2572.77 2267.53ZM2545.79 2265.84 2545.79 2265.84 2552.54 2259.1 2559.28 2265.84 2557.6 2267.53C2553.8 2267.11 2549.59 2266.69 2545.79 2265.84ZM2510.38 2250.67 2514.6 2246.45 2521.34 2253.2 2518.81 2255.73C2515.86 2254.46 2512.91 2252.78 2510.38 2250.67ZM2522.19 2238.86C2525.98 2239.29 2529.77 2239.71 2533.57 2240.55L2533.99 2240.97 2527.24 2247.3 2520.5 2240.55 2522.19 2238.86ZM2583.31 2241.82 2577.83 2247.3 2573.2 2242.66C2576.15 2242.24 2579.94 2242.24 2583.31 2241.82ZM2590.48 2246.45 2597.22 2253.2 2590.48 2259.94 2583.73 2253.2 2590.48 2246.45ZM2571.93 2253.2 2565.19 2259.94 2558.44 2253.2 2565.19 2246.45 2571.93 2253.2ZM2552.54 2247.3 2547.06 2241.82C2550.43 2242.24 2554.22 2242.24 2557.18 2242.66L2552.54 2247.3ZM2546.64 2253.2 2539.89 2259.94 2533.15 2253.2 2539.89 2246.45 2546.64 2253.2ZM2527.24 2259.1 2528.93 2260.79C2528.09 2260.36 2527.67 2260.36 2526.82 2259.94L2527.24 2259.1ZM2603.13 2259.1 2603.13 2259.1C2602.7 2259.94 2602.28 2259.94 2601.44 2260.36L2603.13 2259.1ZM2603.13 2247.3 2596.38 2240.55 2596.8 2240.13C2600.6 2239.71 2604.39 2239.29 2608.19 2238.44L2609.87 2240.13 2603.13 2247.3ZM2504.06 2235.91 2508.7 2240.55 2503.21 2246.03C2498.16 2242.24 2493.52 2238.02 2488.88 2233.38 2493.52 2234.23 2498.58 2235.07 2504.06 2235.91ZM2627.16 2246.03 2621.68 2240.55 2626.31 2235.91C2631.79 2235.07 2636.85 2234.23 2641.07 2233.38 2636.85 2238.02 2632.21 2241.82 2627.16 2246.03Z" fill="#BFBFBF" fill-rule="evenodd"/><path d="M4231 1785C4173.01 1785 4126 1832.01 4126 1890 4126 1947.99 4173.01 1995 4231 1995 4288.99 1995 4336 1947.99 4336 1890 4336 1832.01 4288.99 1785 4231 1785ZM4142.58 1890C4142.63 1841.19 4182.19 1801.63 4231 1801.58L4231 1890 4179.05 1961.49C4156.15 1944.88 4142.59 1918.3 4142.58 1890Z" fill="#A6A6A6" fill-rule="evenodd"/><path d="M3377.58 1569.01C3375.72 1568.86 3374.09 1570.26 3373.95 1572.13 3373.88 1572.95 3374.11 1573.76 3374.6 1574.42L3377.96 1579.03C3378.53 1579.8 3378.37 1580.89 3377.6 1581.46 3377.34 1581.66 3377.03 1581.77 3376.7 1581.8 3325.03 1586.75 3282 1632.54 3282 1672.89 3281.99 1721.72 3327.88 1736 3384.49 1736 3441.1 1736 3487 1721.72 3487 1672.88 3487 1621.86 3424.67 1573.65 3377.58 1569.01ZM3365.72 1609.64 3343.7 1631.82C3341.59 1634.02 3338.1 1634.08 3335.91 1631.95 3333.73 1629.83 3333.66 1626.32 3335.78 1624.12 3335.82 1624.07 3335.87 1624.02 3335.91 1623.98L3357.94 1601.8C3360.12 1599.68 3363.61 1599.74 3365.72 1601.94 3367.78 1604.09 3367.78 1607.49 3365.72 1609.64ZM3389.36 1641.76C3389.36 1644.82 3386.89 1647.3 3383.85 1647.3 3380.81 1647.3 3378.35 1644.82 3378.35 1641.76L3378.35 1616.81C3378.35 1613.75 3380.81 1611.27 3383.85 1611.27 3386.89 1611.27 3389.36 1613.75 3389.36 1616.81ZM3431.79 1631.82C3429.64 1633.98 3426.16 1633.98 3424.01 1631.82L3401.98 1609.64C3399.8 1607.52 3399.74 1604.01 3401.85 1601.8 3403.96 1599.6 3407.45 1599.54 3409.63 1601.67 3409.68 1601.71 3409.73 1601.76 3409.77 1601.8L3431.79 1623.98C3433.94 1626.14 3433.94 1629.65 3431.79 1631.82Z" fill="#FFFFFF" fill-rule="evenodd"/><path d="M3684.1 1277.2C3683.27 1277.2 3682.17 1277.2 3681.34 1277.2 3681.34 1277.2 3681.34 1277.2 3681.34 1277.2 3681.34 1263.62 3674.7 1251.15 3663.92 1243.39 3652.86 1235.63 3638.76 1233.69 3626.05 1238.12 3615.54 1217.61 3592.32 1207.08 3570.2 1212.34 3548.08 1217.61 3532.05 1237.57 3532.05 1260.57 3532.05 1260.57 3532.05 1260.85 3532.05 1261.13 3516.85 1258.63 3501.64 1265.01 3492.24 1277.2 3483.12 1289.68 3481.46 1306.03 3487.82 1319.89 3494.45 1333.74 3508.28 1342.89 3523.48 1343.72L3523.48 1344 3683.83 1344C3702.07 1344 3717 1329.03 3717 1310.74 3717 1292.45 3702.35 1277.2 3684.1 1277.2Z" fill="#404040" fill-rule="evenodd"/><path d="M2531.72 1628.97C2527.35 1644.74 2531.87 1656.45 2538.68 1667.21L2482.25 1667.21 2489.67 1708.99C2490.49 1713.59 2494.45 1716.96 2499.11 1717L2613.32 1717C2617.98 1716.96 2621.94 1713.59 2622.76 1708.99L2630.17 1667.21 2574.43 1667.21C2570.7 1663.41 2566.73 1659.87 2562.55 1656.59 2550.7 1646.91 2545.68 1641.76 2547.66 1633.44 2549.67 1626.54 2556.49 1623.07 2566.66 1618.58 2567.49 1618.21 2568.33 1617.83 2569.17 1617.45 2575.68 1616.41 2582.78 1615.72 2589.29 1615.27 2587.63 1616.8 2586.64 1618.93 2586.54 1621.2 2586.54 1628.27 2597.17 1634.01 2610.28 1634.01 2620.71 1634.01 2629.55 1630.37 2632.74 1625.32 2638.06 1628.43 2644.14 1629.96 2650.29 1629.74 2662.28 1629.74 2672 1624.96 2672 1619.06 2672 1613.16 2662.28 1608.38 2650.29 1608.38 2648.68 1608.38 2647.06 1608.47 2645.45 1608.65 2645.73 1607.88 2645.88 1607.06 2645.89 1606.24 2645.89 1599.16 2635.26 1593.42 2622.15 1593.42 2610.65 1593.42 2601.06 1597.84 2598.88 1603.7 2595.37 1603.84 2591.34 1604.06 2587.07 1604.37 2587.71 1603.34 2588.25 1602.26 2588.7 1601.14 2592.21 1591.89 2590.61 1581.48 2584.5 1573.72 2587.47 1570.57 2589.18 1566.43 2589.29 1562.09 2589.26 1559.15 2588.42 1556.27 2586.87 1553.76 2587.22 1553.77 2587.57 1553.79 2587.92 1553.79 2596.83 1553.79 2604.58 1551.15 2608.55 1547.25 2612.4 1551.59 2617.97 1553.98 2623.75 1553.79 2633.65 1553.79 2641.67 1547.6 2641.67 1539.96 2641.67 1532.32 2633.65 1526.13 2623.75 1526.13 2623.18 1526.13 2622.61 1526.16 2622.05 1526.2 2622.26 1525.27 2622.36 1524.32 2622.38 1523.36 2622.38 1512.67 2610.03 1504 2594.81 1504 2584.51 1504 2575.54 1507.98 2570.81 1513.86 2565.49 1510.95 2559.51 1509.46 2553.46 1509.53 2540.72 1509.53 2530.04 1515.6 2526.87 1523.85 2524.72 1523.53 2522.55 1523.37 2520.38 1523.36 2505.15 1523.36 2492.81 1530.79 2492.81 1539.96 2493.05 1544.05 2495.18 1547.8 2498.57 1550.09 2492.16 1552.24 2487.7 1558.09 2487.29 1564.86 2487.29 1565.07 2487.32 1565.28 2487.33 1565.49 2476.13 1567.24 2468 1572.49 2468 1578.69 2468 1586.33 2480.34 1592.52 2495.57 1592.52 2508.76 1592.52 2519.78 1587.86 2522.49 1581.65 2530.48 1585.27 2539.17 1587.09 2547.94 1586.99 2555.69 1587.05 2563.39 1585.66 2570.63 1582.89 2573.62 1586.14 2574.66 1590.75 2573.35 1594.97 2572.13 1598.02 2565.96 1600.75 2559.99 1603.39 2549.29 1608.11 2535.98 1613.99 2531.72 1628.97Z" fill="#F2F2F2" fill-rule="evenodd"/><path d="M2493 1284C2435.01 1284 2388 1331.01 2388 1389 2388 1446.99 2435.01 1494 2493 1494 2550.99 1494 2598 1446.99 2598 1389 2598 1331.01 2550.99 1284 2493 1284ZM2432.21 1372.42C2432.21 1363.26 2439.63 1355.84 2448.79 1355.84 2457.95 1355.84 2465.37 1363.26 2465.37 1372.42 2465.37 1381.58 2457.95 1389 2448.79 1389 2439.63 1389 2432.21 1381.58 2432.21 1372.42ZM2530.49 1425.72 2504.94 1425.72C2488.4 1425.72 2474.34 1437.76 2467.73 1449.7 2466.26 1452.37 2462.89 1453.33 2460.22 1451.85 2457.55 1450.38 2456.58 1447.01 2458.06 1444.34 2465.63 1430.65 2482.46 1414.67 2504.94 1414.67L2530.49 1414.67C2533.54 1414.67 2536.01 1417.14 2536.01 1420.2 2536.01 1423.25 2533.54 1425.72 2530.49 1425.72ZM2537.21 1389C2528.05 1389 2520.63 1381.58 2520.63 1372.42 2520.63 1363.26 2528.05 1355.84 2537.21 1355.84 2546.37 1355.84 2553.79 1363.26 2553.79 1372.42 2553.79 1381.58 2546.37 1389 2537.21 1389Z" fill="#FFFFFF" fill-rule="evenodd"/><path d="M4220 1246C4161.97 1246 4115 1292.97 4115 1351 4115 1409.03 4161.97 1456 4220 1456 4278.03 1456 4325 1409.03 4325 1351 4325 1292.97 4278.03 1246 4220 1246ZM4156.45 1299.05C4156.17 1296.01 4158.38 1293.25 4161.42 1292.97L4189.05 1290.21C4192.09 1289.93 4194.86 1292.14 4195.13 1295.18 4195.41 1298.22 4193.2 1300.99 4190.16 1301.26L4162.53 1304.03C4162.25 1304.03 4162.25 1304.03 4161.97 1304.03 4159.21 1304.03 4156.72 1301.82 4156.45 1299.05ZM4175.79 1351C4166.67 1351 4159.21 1343.54 4159.21 1334.42 4159.21 1325.3 4166.67 1317.84 4175.79 1317.84 4184.91 1317.84 4192.37 1325.3 4192.37 1334.42 4192.37 1343.54 4184.91 1351 4175.79 1351ZM4254.54 1395.76C4253.71 1398.8 4250.95 1400.46 4247.91 1399.91 4218.34 1393 4198.72 1407.92 4198.45 1408.2 4197.34 1409.03 4196.24 1409.3 4195.13 1409.3 4193.47 1409.3 4191.82 1408.47 4190.71 1407.09 4188.78 1404.61 4189.33 1401.29 4191.82 1399.36 4192.92 1398.53 4216.13 1380.84 4250.67 1389.13 4253.43 1389.68 4255.37 1392.72 4254.54 1395.76ZM4264.21 1351C4255.09 1351 4247.63 1343.54 4247.63 1334.42 4247.63 1325.3 4255.09 1317.84 4264.21 1317.84 4273.33 1317.84 4280.79 1325.3 4280.79 1334.42 4280.79 1343.54 4273.33 1351 4264.21 1351ZM4278.03 1304.03C4277.75 1304.03 4277.75 1304.03 4277.47 1304.03L4249.84 1301.26C4246.8 1300.99 4244.59 1298.22 4244.87 1295.18 4245.15 1292.14 4247.91 1289.93 4250.95 1290.21L4278.58 1292.97C4281.62 1293.25 4283.83 1296.01 4283.55 1299.05 4283.28 1301.82 4280.79 1304.03 4278.03 1304.03Z" fill="#D9D9D9" fill-rule="evenodd"/><path d="M3988.88 2335.65 3955.71 2335.65 3955.71 2310.76 3988.88 2310.76 3988.88 2335.65ZM3933.59 2335.65 3900.41 2335.65 3900.41 2310.76 3933.59 2310.76 3933.59 2335.65ZM3878.29 2335.65 3845.12 2335.65 3845.12 2310.76 3878.29 2310.76 3878.29 2335.65ZM3936.35 2280.35 3936.35 2241.65 3861.71 2280.35 3853.41 2167 3831.29 2167 3823 2280.35 3823 2355 4011 2355 4011 2280.35 4011 2241.65 3936.35 2280.35Z" fill="#F2F2F2" fill-rule="evenodd"/></g></svg>