<svg width="5820" height="3436" xmlns="http://www.w3.org/2000/svg" xmlns:xlink="http://www.w3.org/1999/xlink" xml:space="preserve" overflow="hidden"><defs><clipPath id="clip0"><rect x="-791" y="-676" width="5820" height="3436"/></clipPath></defs><g clip-path="url(#clip0)" transform="translate(791 676)"><rect x="-791" y="-676" width="5820" height="3436"/><path d="M3664.43 2180 3604.96 2238.96C3537.92 2305.97 3521.97 2419.43 3573.47 2496 3563.43 2507.57 3564.67 2525.08 3576.25 2535.12 3586.35 2543.88 3601.28 2544.19 3611.74 2535.84 3688.27 2592.89 3806.49 2578.07 3875.53 2509.07L3935 2449.71C3914.83 2415.05 3875.21 2362.06 3813.51 2300.63 3751.8 2239.2 3699.11 2199.68 3664.43 2180Z" fill="#7F7F7F" fill-rule="evenodd"/><path d="M4058.41 2330.59C4058.41 2329.8 4057.85 2328.92 4057.54 2328.05 4040.81 2288.21 4005.84 2232.44 4015.56 2185.84L4015.56 2185.84C4017.12 2176.4 4013.93 2166.81 4007.03 2160.19L4001.62 2154.21C4023.92 2137.56 4041.45 2127.84 4052.04 2127.92L4052.04 2080.12C4030.29 2080.12 4000.66 2095.5 3967.52 2120.43L3955.1 2108C3948.49 2101.09 3938.87 2097.92 3929.45 2099.56L3929.45 2099.56C3882.93 2109.28 3826.93 2074.3 3787.26 2057.57L3784.71 2056.7C3737.07 2039.14 3684.22 2063.53 3666.67 2111.17 3663.02 2121.08 3661.1 2131.54 3661 2142.1 3728.55 2172.37 3822.47 2264.79 3836.25 2278.73 3850.03 2292.67 3942.67 2386.6 3972.86 2454 4023.58 2453.61 4064.39 2412.17 4064 2361.44 4063.92 2350.91 4062.03 2340.48 4058.41 2330.59Z" fill="#7F7F7F" fill-rule="evenodd"/><path d="M3685.45 1196.12C3553.49 1192.03 3443.21 1295.6 3439.11 1427.46 3439.04 1429.93 3439 1432.4 3439 1434.86 3439 1601.65 3606.84 1723.73 3661.23 1758.92 3671.54 1765.58 3684.77 1765.7 3695.19 1759.23 3747.85 1726.69 3904.4 1616.86 3916.35 1454.57 3926.29 1319.5 3820.93 1200.21 3685.45 1196.12ZM3502.74 1455.97 3502.74 1410.98 3555.74 1410.98C3601.26 1411.03 3638.15 1447.89 3638.2 1493.38L3638.2 1538.37 3585.2 1538.37C3539.68 1538.32 3502.8 1501.46 3502.74 1455.97ZM3701.94 1665.76 3654.13 1665.76C3645.33 1665.76 3638.2 1658.63 3638.2 1649.84 3638.2 1641.04 3645.33 1633.91 3654.13 1633.91L3701.94 1633.91C3710.74 1633.91 3717.88 1641.04 3717.88 1649.84 3717.88 1658.63 3710.74 1665.76 3701.94 1665.76ZM3853.33 1455.97C3853.28 1501.46 3816.39 1538.32 3770.87 1538.37L3717.88 1538.37 3717.88 1493.38C3717.93 1447.89 3754.82 1411.03 3800.34 1410.98L3853.33 1410.98Z" fill="#F2F2F2" fill-rule="evenodd"/><path d="M3733.5 316C3566.43 316 3431 451.434 3431 618.5 3431 785.566 3566.43 921 3733.5 921 3900.57 921 4036 785.566 4036 618.5 4036 451.434 3900.57 316 3733.5 316ZM3855.1 785.671 3733.5 701.489 3611.89 785.671 3653.97 645.367 3546.43 551.831 3686.72 551.831 3733.5 411.526 3780.25 551.831 3920.57 551.831 3812.99 645.367Z" fill="#F2F2F2" fill-rule="evenodd"/><path d="M1202.66 1443.47C1244.01 1429.14 1285.37 1443.47 1285.37 1443.47 1285.37 1443.47 1311.61 1382.18 1333.09 1371.84 1394.33 1346.37 1450 1383.78 1450 1383.78 1450 1383.78 1384.78 1269.96 1245.6 1262 1208.22 1314.53 1184.36 1355.92 1119.15 1395.71 1118.35 1393.33 1117.56 1390.94 1116.76 1388.55 1115.97 1386.96 1115.17 1384.57 1114.37 1382.98 1118.35 1378.2 1120.74 1370.24 1120.74 1362.29 1120.74 1348.75 1113.58 1338.41 1104.83 1338.41 1097.67 1338.41 1092.9 1350.35 1092.11 1362.29 1082.56 1358.31 1072.22 1357.51 1062.68 1361.49 1052.34 1365.47 1045.18 1375.02 1042 1385.37 1032.46 1377.41 1019.73 1370.24 1014.16 1375.82 1007.8 1382.18 1010.19 1394.92 1019.73 1403.67 1026.09 1410.04 1034.84 1414.02 1041.2 1414.02 1042 1415.61 1042 1417.2 1042.8 1418.8 1043.59 1421.18 1045.18 1423.57 1045.98 1425.16 971.216 1442.67 925.883 1430.73 862.257 1419.59 770 1524.65 804.198 1652 804.198 1652 804.198 1652 816.924 1586.73 878.163 1561.27 901.228 1553.31 962.468 1577.98 962.468 1577.98 962.468 1577.98 981.555 1538.98 1021.32 1519.08 1073.81 1506.35 1139.82 1547.73 1139.82 1547.73 1139.82 1547.73 1156.53 1471.33 1202.66 1443.47" fill="#F2F2F2" fill-rule="evenodd"/><path d="M1453.3 1741.11C1409.53 1748.25 1379.29 1756.98 1328.36 1744.28 1329.15 1742.7 1329.95 1741.11 1330.74 1739.52 1331.54 1737.94 1331.54 1737.14 1332.34 1735.56 1336.31 1734.76 1341.09 1732.38 1345.07 1728.42 1351.44 1722.07 1353.03 1713.34 1349.05 1709.37 1345.86 1706.2 1337.91 1709.37 1331.54 1714.93 1329.15 1708.58 1324.38 1703.03 1318.01 1700.65 1310.85 1697.47 1303.69 1698.27 1296.52 1702.23 1295.73 1693.51 1293.34 1684.78 1287.77 1684.78 1281.4 1684.78 1276.63 1691.92 1276.63 1700.65 1276.63 1706.99 1279.01 1713.34 1282.2 1715.72 1281.4 1716.51 1281.4 1717.31 1280.61 1718.9 1279.81 1720.48 1279.81 1722.07 1279.01 1723.66 1235.24 1697.47 1219.33 1669.7 1193.07 1634 1097.57 1639.55 1053 1716.51 1053 1716.51 1053 1716.51 1090.4 1691.13 1132.58 1708.58 1147.7 1715.72 1165.21 1756.98 1165.21 1756.98 1165.21 1756.98 1193.07 1747.46 1221.72 1756.98 1253.55 1776.02 1264.69 1827.59 1264.69 1827.59 1264.69 1827.59 1309.26 1799.03 1345.07 1808.55 1372.13 1822.04 1384.86 1848.22 1384.86 1848.22 1384.86 1848.22 1427.04 1831.56 1442.16 1837.11 1484.34 1854.57 1492.3 1899 1492.3 1899 1492.3 1899 1516.97 1812.52 1453.3 1741.11" fill="#F2F2F2" fill-rule="evenodd"/><path d="M2561.26 2499.91C2531.79 2434.63 2459.31 2411.55 2454.53 2218.12L2454.53 2218.92C2452.15 2163.2 2419.49 2116.24 2373.3 2092.36 2374.89 2086.78 2375.69 2081.21 2375.69 2075.64 2375.69 2035.84 2343.83 2004 2304.01 2004 2264.19 2004 2232.33 2035.84 2232.33 2075.64 2232.33 2081.21 2233.12 2087.58 2234.72 2092.36 2188.52 2116.24 2155.87 2164 2153.48 2218.92L2153.48 2218.12C2148.7 2411.55 2076.23 2434.63 2046.76 2499.91 2038.79 2510.25 2034.02 2520.6 2034.02 2532.54 2032.42 2592.24 2153.48 2640 2303.21 2640 2452.94 2640 2574 2592.24 2574 2532.54 2574 2521.4 2570.02 2510.25 2561.26 2499.91ZM2303.21 2035.04C2325.51 2035.04 2343.03 2052.56 2343.03 2074.84 2343.03 2076.44 2343.03 2078.03 2342.24 2080.42 2330.29 2076.44 2316.75 2074.84 2303.21 2074.84 2289.67 2074.84 2276.13 2076.44 2264.19 2080.42 2264.19 2078.82 2263.39 2077.23 2263.39 2074.84 2263.39 2052.56 2280.91 2035.04 2303.21 2035.04ZM2303.21 2592.24C2163.83 2592.24 2088.17 2550.05 2080.21 2532.54 2086.58 2517.42 2147.91 2481.6 2260.2 2474.43 2257.02 2480.8 2254.63 2488.76 2254.63 2496.72 2254.63 2522.99 2276.13 2544.48 2303.21 2544.48 2330.29 2544.48 2351.79 2522.99 2351.79 2496.72 2351.79 2488.76 2349.4 2480.8 2346.22 2474.43 2458.52 2481.6 2519.84 2517.42 2526.21 2532.54 2518.25 2550.05 2442.59 2592.24 2303.21 2592.24Z" fill="#F2F2F2" fill-rule="evenodd"/><path d="M256 358 304 358 304 549 256 549Z" fill="#7F7F7F" fill-rule="evenodd"/><path d="M336 262 439 262 439 326 336 326Z" fill="#7F7F7F" fill-rule="evenodd"/><path d="M503.222 358 336 358 336 549.143C336 566.664 350.333 581 367.852 581L375.815 581 375.815 772.143C375.815 789.664 390.148 804 407.667 804L519.148 804C536.667 804 551 789.664 551 772.143L551 620.822 503.222 358Z" fill="#7F7F7F" fill-rule="evenodd"/><path d="M8.99993 620.822 8.99993 772.143C8.99993 789.664 23.3332 804 40.852 804L152.334 804C169.852 804 184.186 789.664 184.186 772.143L184.186 581 192.148 581C209.667 581 224 566.664 224 549.143L224 358 56.7779 358 8.99993 620.822Z" fill="#7F7F7F" fill-rule="evenodd"/><path d="M121 262 224 262 224 326 121 326Z" fill="#7F7F7F" fill-rule="evenodd"/><path d="M2646.71 310.531C2646.42 308.778 2646.02 307.043 2645.53 305.335 2647.3 305.239 2649.07 305.042 2650.82 304.744 2678.15 300.057 2696.5 274.108 2691.81 246.785 2687.12 219.463 2661.17 201.112 2633.85 205.8 2621.21 207.969 2609.87 214.896 2602.18 225.159L2420.82 96.3023C2436.4 73.3674 2430.43 42.1514 2407.49 26.5792 2384.56 11.0071 2353.34 16.9761 2337.77 39.9111 2330.49 50.6317 2327.64 63.7518 2329.81 76.5264 2330.11 78.2794 2330.5 80.0144 2331 81.7222 2329.22 81.818 2327.45 82.0155 2325.7 82.3129 2298.36 86.9182 2279.94 112.813 2284.54 140.149 2289.15 167.486 2315.04 185.913 2342.38 181.308 2355.08 179.168 2366.47 172.228 2374.2 161.923L2555.55 290.78C2539.98 313.715 2545.95 344.931 2568.89 360.503 2591.82 376.075 2623.04 370.107 2638.61 347.171 2645.89 336.451 2648.74 323.33 2646.56 310.556Z" fill="#A6A6A6" fill-rule="evenodd"/><path d="M418 201 418-132.45C418-142.103 403.69-150 386.2-150L131.8-150C114.31-150 100-142.103 100-132.45L100 201 259 113.25 418 201Z" fill="#7F7F7F" fill-rule="evenodd"/><path d="M4306.39-251.847C4324.27-277.741 4323.04-312.883 4303.31-337.544 4305.78-344.943 4307.01-352.341 4307.01-359.739 4307.01-394.881 4281.73-424.475 4247.83-431.257 4237.35-461.467 4209.61-481.196 4177.55-481.196 4172-481.196 4165.84-480.58 4160.29-479.346 4147.34-494.76 4128.23-504.008 4108.51-505.857 4088.16-507.09 4068.43-500.309 4053.64-486.745 4034.53-499.692 4010.49-503.391 3988.91-496.609 3966.72-489.828 3949.46-473.181 3941.44-450.986 3940.21-450.986 3938.36-450.986 3937.13-450.986 3896.44-450.986 3863.77-418.926 3863.15-378.235 3863.15-377.002 3863.15-375.769 3863.15-374.536 3838.49-360.972 3824.31-334.462 3826.16-306.101 3828.63-267.26 3863.15-238.283 3902.6-238.283L3998.16-238.283C4038.84-238.283 4072.13-205.607 4072.75-164.915L4072.75-85.9996 4121.45-85.9996 4121.45-141.487C4121.45-143.953 4121.45-147.036 4121.45-149.502 4121.45-172.314 4120.83-201.291 4136.86-219.787 4146.73-230.268 4157.82-239.516 4169.54-247.531 4178.78-253.08 4186.8-259.862 4193.58-267.876 4196.66-272.809 4199.74-277.741 4201.59-282.673 4188.65-287.605 4175.08-289.455 4161.52-287.605 4154.74-286.989 4148.58-291.305 4147.34-298.086 4146.73-304.868 4151.04-311.033 4157.82-312.266 4174.47-314.733 4191.11-312.883 4207.14-306.718 4207.14-308.567 4207.14-309.8 4207.76-311.65 4208.37-321.514 4207.14-331.379 4204.06-340.627 4195.43-362.822 4173.85-372.686 4153.51-380.701 4149.81-381.934 4146.11-383.167 4141.18-384.4L4137.48-385.633 4136.86-385.633C4131.93-385.017 4127.62-383.784 4122.68-381.934L4117.14-380.701 4110.97-379.468C4100.49-367.138 4094.94-351.108 4096.18-334.462 4097.41-317.815 4105.42-303.019 4117.75-292.538 4122.68-288.222 4122.68-280.823 4118.99-275.275 4115.29-270.959 4107.89-270.342 4102.96-274.042 4095.56-280.207 4089.39-288.222 4084.46-296.853L4083.23-296.853C4065.97-299.936 4046.24-303.019 4030.21-313.5 4024.67-317.199 4023.43-324.597 4027.13-330.146 4030.83-335.695 4038.23-337.544 4043.78-333.845 4053.02-328.296 4063.5-324.597 4074.6-323.364 4073.37-326.447 4072.75-329.529 4072.13-333.229 4070.9-346.792 4073.37-360.972 4078.91-373.303 4070.28-372.07 4062.27-371.453 4053.64-371.453 4046.24-371.453 4038.84-372.07 4031.45-373.303 4017.88-356.657 3998.77-344.326 3977.81-339.394 3950.07-325.214 3924.18-307.334 3924.18-277.124 3924.18-270.342 3918.63-264.794 3911.85-264.794 3905.07-264.794 3899.52-270.342 3899.52-277.124 3900.14-300.552 3910.62-322.131 3928.5-336.928 3913.7-338.777 3900.14-344.943 3890.27-356.04 3885.96-361.589 3887.19-368.987 3892.12-373.303 3897.06-377.619 3905.07-377.002 3909.38-372.07 3914.32-365.905 3928.5-360.356 3948.84-360.972 3969.18-360.972 3989.53-368.371 4004.94-381.934 3987.06-389.333 3972.27-402.896 3963.02-420.159 3959.32-426.325 3961.79-433.723 3967.33-436.806 3973.5-440.505 3980.9-438.039 3983.98-432.49 4002.47-399.197 4041.31-389.949 4102.34-404.129 4091.24-413.377 4083.23-428.174 4083.85-451.602 4083.85-458.384 4090.01-463.933 4096.79-463.317 4103.57-463.317 4109.12-457.151 4108.51-450.369 4107.27-422.625 4122.68-417.077 4147.34-409.678 4151.04-408.445 4154.74-407.829 4158.44-406.595 4165.22-422.009 4178.78-433.723 4195.43-438.039 4202.21-439.888 4208.99-435.573 4210.84-428.791 4212.69-422.009 4208.37-415.227 4201.59-413.377 4192.96-410.911 4186.18-405.362 4181.87-397.348 4181.87-396.731 4181.87-396.731 4181.87-396.115 4200.98-386.867 4217.62-373.303 4226.25-350.491 4228.1-345.559 4229.33-340.627 4229.95-335.695 4232.42-337.544 4234.27-340.01 4235.5-343.093 4239.81-352.341 4242.9-361.589 4244.13-372.07 4244.75-376.386 4247.83-380.085 4252.14-381.934 4256.46-383.784 4261.39-382.551 4264.47-379.468 4268.17-376.386 4269.4-372.07 4268.17-367.138 4266.32-354.807 4262.62-342.476 4256.46-331.379 4250.29-320.898 4241.05-312.266 4229.95-306.101 4228.72-290.688 4223.79-275.275 4216.39-261.711 4224.4-252.463 4233.03-244.448 4243.51-238.283 4247.21-235.817 4249.68-231.501 4249.68-227.185 4249.68-222.87 4247.21-218.554 4242.9-216.704 4238.58-214.855 4234.27-214.855 4230.57-217.321 4220.09-224.103 4210.22-232.734 4201.59-241.982 4195.43-237.05 4188.65-232.118 4182.48-227.802 4172-221.02 4162.76-213.622 4154.74-204.374 4144.88-192.659 4145.49-169.848 4145.49-150.119 4145.49-147.036 4145.49-144.57 4145.49-141.487L4145.49-85.9996 4194.81-85.9996C4194.81-166.148 4233.03-170.464 4237.96-171.697 4253.99-176.013 4296.53-198.208 4305.78-243.832 4307.01-246.298 4306.39-249.38 4306.39-251.847 4305.78-251.847 4305.78-251.847 4306.39-251.847Z" fill="#F2F2F2" fill-rule="evenodd"/><path d="M1552-126.678 1552 203.862 2030 399 2030 68.46C2030 68.46 1919.26-195.176 1918.47-197.565 1791.8-221.459 1647.6-193.583 1552-126.678ZM1982.2 100.319 1982.2 187.136 1599.8 31.8219 1599.8-54.9946 1982.2 100.319ZM1599.8 172.003 1599.8 83.5932 1982.2 239.704 1982.2 327.317 1599.8 172.003Z" fill="#7F7F7F" fill-rule="evenodd"/><path d="M11.3573 1126.02-275.357 1126.02-275.357 998.625 11.3573 998.625 11.3573 1126.02ZM11.3573 1237.5-36.4285 1237.5-36.4285 1189.72 11.3573 1189.72 11.3573 1237.5ZM11.3573 1317.12-36.4285 1317.12-36.4285 1269.35 11.3573 1269.35 11.3573 1317.12ZM11.3573 1396.75-36.4285 1396.75-36.4285 1348.98 11.3573 1348.98 11.3573 1396.75ZM11.3573 1476.38-36.4285 1476.38-36.4285 1428.6 11.3573 1428.6 11.3573 1476.38ZM-68.2855 1237.5-116.071 1237.5-116.071 1189.72-68.2855 1189.72-68.2855 1237.5ZM-68.2855 1317.12-116.071 1317.12-116.071 1269.35-68.2855 1269.35-68.2855 1317.12ZM-68.2855 1396.75-116.071 1396.75-116.071 1348.98-68.2855 1348.98-68.2855 1396.75ZM-68.2855 1476.38-116.071 1476.38-116.071 1428.6-68.2855 1428.6-68.2855 1476.38ZM-147.929 1237.5-195.714 1237.5-195.714 1189.72-147.929 1189.72-147.929 1237.5ZM-147.929 1317.12-195.714 1317.12-195.714 1269.35-147.929 1269.35-147.929 1317.12ZM-147.929 1396.75-195.714 1396.75-195.714 1348.98-147.929 1348.98-147.929 1396.75ZM-147.929 1476.38-275.357 1476.38-275.357 1428.6-147.929 1428.6-147.929 1476.38ZM-275.357 1348.98-227.571 1348.98-227.571 1396.75-275.357 1396.75-275.357 1348.98ZM-275.357 1269.35-227.571 1269.35-227.571 1317.12-275.357 1317.12-275.357 1269.35ZM-275.357 1189.72-227.571 1189.72-227.571 1237.5-275.357 1237.5-275.357 1189.72ZM59.1431 919-323.143 919C-340.664 919-355 933.332-355 950.85L-355 1524.15C-355 1541.67-340.664 1556-323.143 1556L59.1431 1556C76.6645 1556 91.0001 1541.67 91.0001 1524.15L91.0001 950.85C91.0001 933.332 76.6645 919 59.1431 919Z" fill="#BFBFBF" fill-rule="evenodd"/><path d="M4514.33 285.003 4539.1 241.937 4625 241.937C4601.74 189.959 4540.89 166.74 4489.08 190.075 4469.17 199.046 4452.61 214.144 4441.82 233.183L4071.22 233.183C4042.75 183.885 3979.83 167.078 3930.7 195.642 3912.2 206.395 3897.51 222.665 3888.65 242.187L3974.35 241.937 3998.74 285.003 3973.97 328.057 3888 328.057C3911.25 380.036 3972.1 403.26 4023.91 379.929 4043.83 370.959 4060.39 355.861 4071.18 336.823L4441.82 336.823C4470.31 386.12 4533.23 402.915 4582.36 374.336 4600.85 363.586 4615.53 347.328 4624.38 327.819L4538.49 327.819Z" fill="#7F7F7F" fill-rule="evenodd"/><path d="M4587.88 824.857C4587.84 837.941 4577.25 848.536 4564.17 848.568L4493.06 848.568C4479.96 848.568 4469.33 837.964 4469.29 824.857L4469.29 801.147C4469.33 788.04 4479.96 777.436 4493.06 777.436L4564.17 777.436C4577.25 777.468 4587.84 788.063 4587.88 801.147L4587.88 824.857ZM3975.09 706.292 4043.83 542.659C4047.48 534.058 4055.89 528.449 4065.23 528.39L4444.45 528.39C4453.79 528.449 4462.2 534.058 4465.85 542.659L4536.97 706.292ZM4042.64 824.857C4042.6 837.936 4032.01 848.529 4018.94 848.568L3947.82 848.568C3934.75 848.529 3924.16 837.936 3924.12 824.857L3924.12 801.147C3924.16 788.068 3934.75 777.475 3947.82 777.436L4018.94 777.436C4032.01 777.475 4042.6 788.068 4042.64 801.147L4042.64 824.857ZM4066.42 481.004C4037.7 480.709 4011.77 498.159 4001.22 524.881L3924.12 706.292C3884.89 706.402 3853.11 738.19 3853 777.436L3853 967.146C3853.08 993.308 3874.26 1014.5 3900.42 1014.57L3924.12 1014.57 3924.12 1097.57C3924.19 1123.73 3945.37 1144.92 3971.52 1145L3995.3 1145C4021.45 1144.92 4042.63 1123.73 4042.7 1097.57L4042.7 1014.57 4469.44 1014.57 4469.44 1097.57C4469.51 1123.7 4490.64 1144.88 4516.76 1145L4540.46 1145C4566.62 1144.93 4587.81 1123.73 4587.88 1097.57L4587.88 1014.57 4611.58 1014.57C4637.74 1014.5 4658.92 993.308 4659 967.146L4659 777.436C4658.89 738.19 4627.11 706.402 4587.88 706.292L4587.88 706.292 4510.83 524.881C4500.28 498.16 4474.36 480.711 4445.64 481.004Z" fill="#7F7F7F" fill-rule="evenodd"/><path d="M4546 1888.03 4524.33 1828.34 4508.97 1870.66 4448.5 1595 4388.03 1870.66 4372.67 1828.34 4351 1888.03 4351 1964 4448.5 1890.74 4546 1964 4546 1888.03Z" fill="#F2F2F2" fill-rule="evenodd"/><path d="M4467.29 2139.37 4448.77 2125 4430.44 2139.32C4390.91 2170 4367.85 2217.22 4368 2267.19L4368 2494 4402.01 2494 4402.01 2353.33 4495.29 2353.33 4495.29 2494 4530 2494 4530 2267.55C4530.19 2217.42 4507.01 2170.05 4467.29 2139.37ZM4448.77 2288.4C4430.8 2288.4 4416.23 2273.86 4416.23 2255.94 4416.23 2238.01 4430.8 2223.47 4448.77 2223.47 4466.74 2223.47 4481.31 2238.01 4481.31 2255.94 4481.31 2273.86 4466.74 2288.4 4448.77 2288.4Z" fill="#F2F2F2" fill-rule="evenodd"/><path d="M4578.75 2028.44 4449 1931 4319.25 2028.44 4276 2028.44 4276 2494 4336.07 2494 4336.07 2267.09C4335.9 2207.1 4363.48 2150.4 4410.77 2113.56L4449 2083.66 4487.41 2113.56C4534.96 2150.38 4562.72 2207.24 4562.53 2267.43L4562.53 2494 4622 2494 4622 2028.44Z" fill="#F2F2F2" fill-rule="evenodd"/><path d="M4850 1801.13 4828.33 1741.59 4813.07 1783.54 4752.5 1498 4691.93 1783.54 4676.67 1741.59 4655 1801.13 4655 2494 4850 2494ZM4780.67 2385.74 4724.33 2385.74 4724.33 2270.5C4724.33 2250.19 4730.92 2230.44 4743.11 2214.2L4752.5 2201.7 4761.89 2214.21C4774.08 2230.45 4780.67 2250.21 4780.67 2270.51ZM4780.67 2039.3 4724.33 2039.3 4724.33 1967.37C4724.33 1947.06 4730.92 1927.31 4743.11 1911.07L4752.5 1898.57 4761.89 1911.08C4774.08 1927.32 4780.67 1947.07 4780.67 1967.38Z" fill="#F2F2F2" fill-rule="evenodd"/><path d="M4243 1801.13 4221.33 1741.59 4206.07 1783.54 4145.5 1498 4084.93 1783.54 4069.67 1741.59 4048 1801.13 4048 2494 4243 2494ZM4173.67 2385.74 4117.33 2385.74 4117.33 2270.5C4117.33 2250.19 4123.92 2230.44 4136.11 2214.2L4145.5 2201.7 4154.89 2214.21C4167.08 2230.45 4173.67 2250.21 4173.67 2270.51ZM4173.67 2039.3 4117.33 2039.3 4117.33 1967.37C4117.33 1947.06 4123.92 1927.31 4136.11 1911.07L4145.5 1898.57 4154.89 1911.08C4167.08 1927.32 4173.67 1947.07 4173.67 1967.38Z" fill="#F2F2F2" fill-rule="evenodd"/><path d="M269.95-485-216.95-485C-231.977-484.912-244.087-472.641-244-457.592-244-457.592-244-457.591-244-457.591L-244-128.204C-244.088-113.155-231.978-100.884-216.95-100.795-216.95-100.795-216.95-100.795-216.95-100.795L80.5999-100.795 188.8 9.00031 188.8-100.795 269.95-100.795C284.977-100.883 297.087-113.154 297-128.204 297-128.204 297-128.204 297-128.204L297-457.591C297.088-472.64 284.977-484.912 269.95-485 269.95-485 269.95-485 269.95-485ZM-100.794-253.935C-122.763-253.935-140.573-271.772-140.573-293.774-140.573-315.776-122.763-333.613-100.794-333.613-78.8245-333.613-61.0145-315.776-61.0145-293.774-61.0145-271.772-78.8245-253.935-100.794-253.935ZM26.5002-253.935C4.53053-253.935-13.2795-271.772-13.2795-293.774-13.2795-315.776 4.53053-333.613 26.5002-333.613 48.4694-333.613 66.2794-315.776 66.2794-293.774 66.2794-271.772 48.4694-253.935 26.5002-253.935ZM153.794-253.935C131.824-253.935 114.014-271.772 114.014-293.774 114.014-315.776 131.824-333.613 153.794-333.613 175.763-333.613 193.573-315.776 193.573-293.774 193.573-271.772 175.763-253.935 153.794-253.935Z" fill="#BFBFBF" fill-rule="evenodd"/><path d="M591 582 758.373 805 858 805 690.627 582 858 359 758.373 359 591 582Z" fill="#A6A6A6" fill-rule="evenodd"/><path d="M881.627 582 1049 359 949.373 359 782 582 949.373 805 1049 805 881.627 582Z" fill="#A6A6A6" fill-rule="evenodd"/><path d="M400 582 566.746 805 666 805 499.254 582 666 359 566.746 359 400 582Z" fill="#A6A6A6" fill-rule="evenodd"/><path d="M541.116-428.355 763.429-240.125 763.429-210.253C763.701-193.853 751.574-179.884 735.304-177.857 718.157-176.181 702.897-188.729 701.222-205.884 701.124-206.891 701.074-207.903 701.074-208.915L701.074-240.125 540.152-427.384C539.896-427.662 539.913-428.095 540.191-428.351 540.452-428.592 540.853-428.594 541.116-428.355ZM536.634-429.701 631.619-240.125 631.619-210.253C631.891-193.853 619.764-179.884 603.494-177.857 586.345-176.181 571.087-188.729 569.412-205.884 569.313-206.891 569.264-207.903 569.264-208.915L569.264-240.125 535.336-429.271C535.276-429.65 535.533-430.004 535.912-430.065 536.205-430.111 536.496-429.965 536.634-429.701ZM533.664-429.271 499.768-240.125 499.768-210.253C500.039-193.842 487.894-179.869 471.612-177.857 454.464-176.181 439.205-188.729 437.53-205.884 437.431-206.891 437.382-207.903 437.382-208.915L437.382-240.125 532.351-429.662C532.458-430.035 532.849-430.251 533.222-430.143 533.596-430.036 533.811-429.645 533.704-429.271ZM528.848-427.384 367.942-240.125 367.942-210.253C368.214-193.853 356.087-179.884 339.817-177.857 322.669-176.181 307.41-188.729 305.735-205.884 305.636-206.891 305.587-207.903 305.587-208.915L305.587-240.125 527.885-428.355C528.165-428.609 528.598-428.589 528.852-428.308 529.09-428.046 529.089-427.644 528.848-427.384ZM823.252-241.375C678.872-337.665 534.5-466 534.5-466 534.5-466 390.128-337.665 245.748-241.375L245.748-208.843C245.748-191.763 259.586-177.916 276.659-177.912 272.284-92.0853 257.283-7.13235 232 74.9999L357.068 74.9999C418.45 75.0018 473.137 36.2175 493.456-21.7276L534.5-138.754 575.545-21.6875C595.877 36.2414 650.561 75.0079 711.932 74.9999L837 74.9999C811.718-7.13235 796.717-92.0853 792.342-177.912 809.415-177.917 823.252-191.763 823.252-208.843L823.252-208.843Z" fill="#404040" fill-rule="evenodd"/><path d="M658-468 534-468 534-530 658-530 619.257-499.004 658-468Z" fill="#404040" fill-rule="evenodd"/><path d="M885.001-101C885.001-70.0719 859.928-44.9997 829-44.9997 798.072-44.9997 773-70.0719 773-101 773-131.928 798.072-157 829-157 859.928-157 885.001-131.928 885.001-101Z" fill="#F2F2F2" fill-rule="evenodd"/><path d="M821.2-388C811.481-377.184 808.431-361.922 813.246-348.195 820.405-326.86 837.108-324.312 853.016-316.351 868.924-308.39 893.819-326.143 908.693-316.351 929.93-302.419 925.158-277.422 948.462-260.624 979.641-238.541 1014.33-221.905 1051.07-211.426 1042.76-211.147 1035.2-206.563 1031.1-199.325L996.186-136.911 956.416-104.191 956.416-226.153C956.416-239.344 945.734-250.036 932.555-250.036 919.376-250.036 908.693-239.344 908.693-226.153L908.693-83.4128 892.785-66.2966 890.876-64.3862C890.399-63.9085 890.081-63.3514 889.604-62.8737L888.808-61.5997 888.808-61.5997C870.669-38.5559 873.486-5.3808 895.251 14.2685L988.232 97.6198C991.007 100.05 993.987 102.234 997.14 104.148L991.175 112.109C972.085 111.551 939.793 125.244 943.451 137.743L955.143 174.603C960.437 191.376 978.313 200.679 995.072 195.381 1011.83 190.083 1021.13 172.19 1015.83 155.416L1004.7 120.309 1010.66 112.348C1013.16 113.691 1015.84 114.682 1018.62 115.293L1143.65 141.326 1224.62 217.433C1237.43 229.48 1257.56 228.856 1269.6 216.039 1281.64 203.223 1281.01 183.067 1268.21 171.02L1180.72 88.783C1176.47 84.7438 1171.18 81.9844 1165.44 80.8222L1081.45 63.3081 1139.83-12.0824 1249.44 2.08817C1266.88 4.28619 1282.79-8.08145 1284.99-25.5367 1287.19-42.992 1274.83-58.924 1257.39-61.122L1130.13-77.0442C1118.97-78.4438 1107.9-73.8432 1101.02-64.9433L1048.6 2.08817 978.608-60.9629 1029.91-103.156C1032.29-104.84 1034.34-106.944 1035.95-109.366L1073.1-175.76C1078.91-186.27 1076.01-199.462 1066.34-206.569 1076.76-203.385 1087.89-200.2 1099.98-196.698 1169.26-176.875 1226.37-180.218 1259.06-133.01 1269.72-117.645 1299.79-90.8164 1298.83-36.1248 1298.27-0.539215 1273.46 5.82968 1282.92 26.2096 1293.58 48.7393 1324.76 63.4672 1354.51 89.8975 1384.25 116.328 1394.91 161.546 1394.28 193.391 1393.8 217.273 1386.32 241.156 1402.23 257.078 1413.18 266.937 1427.28 272.58 1442 273L1442-388Z" fill="#F2F2F2" fill-rule="evenodd"/><path d="M3371 2053.78C3370.95 1997.2 3335.17 1946.81 3281.76 1928.11 3277.89 1854.72 3215.25 1798.36 3141.85 1802.22 3089.86 1804.96 3044.24 1837.75 3025.09 1886.15 2992.72 1879.29 2959.27 1879.29 2926.91 1886.15 2899.86 1817.81 2822.53 1784.33 2754.18 1811.37 2705.77 1830.52 2672.97 1876.13 2670.23 1928.11 2600.88 1952.3 2564.26 2028.12 2588.46 2097.47 2594.24 2114.03 2603.23 2129.28 2614.93 2142.35 2581.94 2208.03 2608.44 2288.02 2674.13 2321.01 2692.73 2330.34 2713.25 2335.19 2734.06 2335.17 2738.21 2335.17 2742.26 2334.77 2746.3 2334.38 2778.56 2461.21 2907.54 2537.88 3034.4 2505.64 3118.57 2484.24 3184.29 2418.53 3205.69 2334.38 3209.73 2334.77 3213.78 2335.17 3217.94 2335.17 3291.45 2335.28 3351.14 2275.79 3351.25 2202.29 3351.28 2181.49 3346.44 2160.97 3337.1 2142.37 3358.93 2118.03 3371.01 2086.48 3371 2053.78ZM3173.5 2275.93C3173.5 2384.98 3085.07 2473.39 2976 2473.39 2866.92 2473.39 2778.5 2384.98 2778.5 2275.93L2778.5 2117.96C2778.5 2008.9 2866.92 1920.5 2976 1920.5 3085.07 1920.5 3173.5 2008.9 3173.5 2117.96Z" fill="#F2F2F2" fill-rule="evenodd"/><path d="M3093.25 2299.99C3079.12 2291.82 3061.03 2296.62 3052.83 2310.71 3028.39 2353.04 2974.17 2367.59 2931.73 2343.2 2918.2 2335.42 2906.97 2324.21 2899.17 2310.71 2890.97 2296.61 2872.88 2291.81 2858.75 2299.99 2844.61 2308.16 2839.8 2326.21 2847.99 2340.31 2888.88 2410.84 2979.33 2434.95 3050.03 2394.16 3072.44 2381.23 3091.05 2362.66 3104.01 2340.31 3112.2 2326.21 3107.38 2308.16 3093.25 2299.99 3093.25 2299.99 3093.25 2299.99 3093.25 2299.99Z" fill="#F2F2F2" fill-rule="evenodd"/><path d="M3055 2217C3055 2260.63 3019.63 2296 2976 2296 2932.37 2296 2897 2260.63 2897 2217 2897 2173.37 2932.37 2138 2976 2138 3019.63 2138 3055 2173.37 3055 2217Z" fill="#F2F2F2" fill-rule="evenodd"/><path d="M2902 2117.5C2902 2139.32 2884.32 2157 2862.5 2157 2840.68 2157 2823 2139.32 2823 2117.5 2823 2095.68 2840.68 2078 2862.5 2078 2884.32 2078 2902 2095.68 2902 2117.5Z" fill="#F2F2F2" fill-rule="evenodd"/><path d="M3129 2117.5C3129 2139.32 3111.32 2157 3089.5 2157 3067.68 2157 3050 2139.32 3050 2117.5 3050 2095.68 3067.68 2078 3089.5 2078 3111.32 2078 3129 2095.68 3129 2117.5Z" fill="#F2F2F2" fill-rule="evenodd"/><path d="M4716.91 1209.67C4710.46 1209.69 4704.02 1210.2 4697.65 1211.19L4661.15 1192C4661.43 1200.85 4663.32 1209.58 4666.74 1217.75 4644.94 1223.31 4624.42 1229.87 4610.48 1229.87L4575 1209.67C4575.97 1221.73 4578.53 1233.61 4582.6 1245 4578.53 1256.4 4575.97 1268.27 4575 1280.33L4610.48 1260.14C4624.42 1260.14 4644.94 1266.71 4666.74 1272.26 4663.32 1280.43 4661.43 1289.15 4661.15 1298L4697.65 1278.82C4704.02 1279.81 4710.46 1280.31 4716.91 1280.33 4749.09 1280.33 4798 1256.36 4798 1245 4798 1233.65 4749.09 1209.67 4716.91 1209.67ZM4759.95 1239.96C4757.15 1239.96 4754.88 1237.7 4754.88 1234.91 4754.88 1232.12 4757.15 1229.86 4759.95 1229.86 4762.75 1229.86 4765.02 1232.12 4765.02 1234.91 4765.02 1237.68 4762.77 1239.93 4759.98 1239.96Z" fill="#595959" fill-rule="evenodd"/><path d="M4599 1172.14C4547.11 1108.29 4469.26 1071.23 4387.03 1071.22 4383.31 1071.22 4379.66 1071.5 4375.98 1071.64L4262.42 1003C4263.3 1033.94 4268.58 1064.6 4278.11 1094.05 4234.92 1112.95 4197.3 1142.61 4168.83 1180.21L4066 1112.93C4066 1162.08 4089.4 1238 4089.4 1238 4089.4 1238 4066 1313.94 4066 1363.07L4168.83 1295.77C4197.29 1333.38 4234.92 1363.05 4278.11 1381.95 4268.58 1411.4 4263.29 1442.06 4262.42 1473L4375.99 1404.36C4379.67 1404.5 4383.32 1404.78 4387.04 1404.78 4464.77 1404.76 4538.82 1371.57 4590.58 1313.53L4495.83 1241.98ZM4483.89 1181.78C4477.3 1181.78 4471.95 1176.43 4471.95 1169.83 4471.95 1163.23 4477.3 1157.88 4483.89 1157.88 4490.49 1157.88 4495.83 1163.23 4495.83 1169.83 4495.83 1176.43 4490.49 1181.78 4483.89 1181.78Z" fill="#595959" fill-rule="evenodd"/><path d="M4910.59 358.72C4920.94 346.651 4919.54 328.478 4907.47 318.13 4903.79 314.973 4899.37 312.798 4894.62 311.806 4890.66 311.126 4888 307.362 4888.68 303.401 4888.8 302.694 4889.03 302.008 4889.35 301.368 4896.26 288.91 4897.15 273.992 4891.77 260.801 4884.79 242.878 4867.43 231.151 4848.2 231.351 4846.7 231.357 4845.23 231.427 4843.79 231.561 4835.93 232.53 4828.78 226.946 4827.81 219.09 4827.75 218.636 4827.72 218.182 4827.71 217.725 4827.62 196.61 4821.05 176.03 4808.89 158.769 4790.56 133.307 4762.79 124.472 4729.14 121.832 4722.53 121.319 4717.02 116.601 4715.49 110.158 4711.64 94.0018 4698.38 81.7935 4681.96 79.2886L4681.96 79.2886C4676.61 78.4792 4672.93 73.4873 4673.74 68.1389 4673.82 67.6236 4673.94 67.1141 4674.1 66.6174L4674.35 65.8045C4679.4 49.3888 4670.55 31.925 4654.33 26.2804 4641.41 21.43 4630.21 12.8641 4622.15 1.66305L4612.57-11.6399C4603.84-23.7794 4586.93-26.5438 4574.79-17.8141 4569.72-14.1711 4566.07-8.89029 4564.45-2.8649L4554.72 32.995C4552.44 41.3921 4548.3 49.1682 4542.61 55.7466L4519.78 82.1134C4508.6 91.6983 4507.32 108.525 4516.91 119.695 4518.48 121.529 4520.29 123.141 4522.3 124.485 4527.96 128.052 4529.66 135.531 4526.09 141.189 4525.71 141.79 4525.28 142.355 4524.8 142.88L4514.9 154.683C4506.75 164.383 4503.65 177.352 4506.53 189.686L4510.68 207.483C4511.86 213.977 4510.8 220.676 4507.67 226.487 4475.08 279.061 4479.04 340.674 4502.33 379.46 4532.43 429.585 4622.44 441.899 4664 496.864 4688.63 529.427 4706.19 573.352 4716.73 605.071 4719.03 612.028 4726.54 615.801 4733.49 613.5 4737.64 612.128 4740.84 608.807 4742.06 604.615 4747.99 584.52 4752.72 564.09 4756.23 543.435 4756.62 540.988 4758.62 539.118 4761.09 538.9L4761.09 538.9C4767.37 538.416 4773.55 540.623 4778.11 544.97 4786.01 552.367 4797.08 555.334 4807.62 552.878 4822.18 549.345 4832.52 536.409 4832.75 521.422 4832.94 517.507 4836.23 514.466 4840.14 514.569 4845.1 514.663 4850 513.438 4854.34 511.021 4862.93 506.212 4868.55 497.43 4869.32 487.615 4869.57 484.387 4869.27 481.137 4868.43 478.009 4867.51 474.246 4869.82 470.448 4873.58 469.528 4874.08 469.405 4874.6 469.337 4875.12 469.328 4891.55 468.629 4904.3 454.742 4903.61 438.309 4903.44 434.321 4902.47 430.409 4900.76 426.804 4899.03 423.339 4900.37 419.132 4903.78 417.3 4916.17 411.462 4923.28 398.194 4921.26 384.643 4919.84 378.51 4916.44 373.014 4911.59 369.002 4908.48 366.547 4907.96 362.04 4910.41 358.935 4910.47 358.862 4910.53 358.79 4910.59 358.72ZM4845.06 318.004C4840.3 336.058 4842.52 355.241 4851.27 371.732L4853.58 376.101C4860.26 388.675 4860.11 403.777 4853.18 416.218L4838.57 442.523C4834.72 449.443 4831.97 456.92 4830.42 464.686 4825.81 487.819 4805.25 504.296 4781.67 503.755L4759.91 503.254C4759.92 498.691 4759.7 494.13 4759.24 489.591 4755.81 465.245 4750.89 441.13 4744.54 417.378 4738.81 394.767 4745.66 370.82 4762.49 354.668 4791.61 327.787 4812.68 293.332 4823.33 255.159 4829.89 257.628 4835.08 262.8 4837.57 269.358L4843.33 284.629C4847.36 295.305 4847.96 306.97 4845.06 318.004Z" fill="#595959" fill-rule="evenodd"/><path d="M3015.54 1332.42C2982.1 1314.35 2932.69 1304.22 2891.22 1298.56 2918.01 1270.66 2948.96 1245.54 2973.87 1245.04 2951.73 1226.54 2925.16 1214.12 2896.78 1209 2851.44 1226.57 2814.63 1291.31 2814.63 1291.31 2812.07 1319.61 2817.39 1348.07 2830 1373.52 2841.81 1371.01 2853.85 1369.78 2865.92 1369.85 2886.92 1370.09 2907.82 1372.92 2928.13 1378.29 2874.16 1406.68 2855.7 1481.45 2855.7 1481.45L2922.47 1502C2922.47 1502 2947.57 1434.58 3009.78 1409.46 3009.78 1409.46 3032.9 1360.02 3015.54 1332.42ZM2865.92 1349.29C2859.47 1349.29 2853.32 1349.29 2847.17 1350.19 2854.31 1340.66 2864.23 1329.04 2874.16 1317.32 2913.02 1321.07 2951.28 1329.61 2988.05 1342.74 2974.71 1348.56 2961.84 1355.39 2949.56 1363.2 2922.5 1354.54 2894.32 1349.86 2865.92 1349.29Z" fill="#BFBFBF" fill-rule="evenodd"/><path d="M3132 1364 3083.32 1382.32 3065 1431 3113.68 1412.68 3132 1364Z" fill="#BFBFBF" fill-rule="evenodd"/><path d="M3409.14 1428 3400 1479.23 3431.86 1520 3441 1468.77 3409.14 1428Z" fill="#BFBFBF" fill-rule="evenodd"/><path d="M3008 1219 3026.32 1266.96 3075 1285 3056.68 1237.04 3008 1219Z" fill="#BFBFBF" fill-rule="evenodd"/><path d="M3005.06 1493 2980 1538.37 2997.94 1587 3023 1541.54 3005.06 1493Z" fill="#BFBFBF" fill-rule="evenodd"/><path d="M3184.99 1001.99C3137.77 887.99 3007.05 833.847 2893.02 881.06 2779 928.272 2724.84 1058.96 2772.06 1172.96 2787.16 1209.3 2836.71 1195.99 2869.49 1187.16 2914.11 1174.44 2957.92 1159.02 3000.68 1140.99 3043.65 1123.69 3085.54 1103.8 3126.1 1081.42 3155.5 1063.94 3199.99 1038.72 3184.99 1001.99ZM2988.06 1110.41C2890.94 1150.62 2807.91 1172.96 2802.65 1160.05 2797.39 1147.14 2872.17 1104.55 2969 1064.34 3065.82 1024.13 3149.14 1001.79 3154.41 1014.7 3159.67 1027.6 3085.09 1070.2 2988.06 1110.41Z" fill="#BFBFBF" fill-rule="evenodd"/><path d="M3362.89 1059.95C3248.89 1012.97 3118.32 1067 3071.02 1180.73 3055.93 1217.03 3100.81 1242.61 3129.81 1260.06 3170.38 1282.4 3212.27 1302.27 3255.24 1319.56 3297.98 1337.74 3341.79 1353.3 3386.42 1366.17 3419.2 1374.99 3468.75 1388.28 3483.85 1351.99 3531.22 1238.03 3477.11 1107.29 3362.98 1059.99 3362.95 1059.98 3362.92 1059.96 3362.89 1059.95ZM3453.26 1338.8C3447.99 1351.49 3364.97 1328.88 3267.95 1289.22 3170.93 1249.55 3096.35 1206.22 3101.51 1193.52 3106.67 1180.83 3189.79 1203.44 3286.92 1243.11 3384.04 1282.77 3458.52 1326.5 3453.26 1338.8Z" fill="#BFBFBF" fill-rule="evenodd"/><path d="M3337.21 1382.05C3339.76 1391.5 3340.8 1401.3 3340.29 1411.08L3330.33 1410.48C3324.42 1397.3 3317.42 1384.63 3309.4 1372.6 3295.05 1367.57 3280.3 1362.03 3265.15 1356 3281.75 1373.66 3295.5 1393.78 3305.91 1415.65 3270.82 1410.27 3236.13 1402.56 3202.07 1392.59 3202.07 1392.59 3176.26 1400.24 3168.68 1454.33 3167.89 1461.09 3167.49 1465.56 3167.49 1465.56 3197.09 1485.52 3225.3 1507.48 3251.9 1531.28 3203.38 1543.96 3151.99 1540.01 3106 1520.05 3118.06 1556.93 3120.45 1589.64 3115.97 1607.83 3238.94 1635.57 3290.77 1573.83 3290.77 1573.83 3290.77 1573.83 3331.33 1519.25 3325.25 1501.25 3311.99 1493.6 3299.93 1485.94 3289.17 1478.39 3302.92 1482.23 3316.46 1486.77 3329.73 1492.01 3347.77 1485.15 3364.31 1419.43 3364.31 1419.43 3365.45 1409.7 3365.18 1399.86 3363.52 1390.2 3355.14 1387.72 3346.37 1385.03 3337.21 1382.05ZM3291.76 1508.71C3285.18 1511.5 3278.71 1514.08 3271.83 1516.37 3255.09 1500.93 3237.56 1486.36 3219.31 1472.72 3227.28 1473.52 3236.25 1474.71 3246.12 1476.4 3260.66 1488.09 3275.9 1498.88 3291.76 1508.71Z" fill="#BFBFBF" fill-rule="evenodd"/><path d="M2281.62-185.797C2278.43-188.982 2274.45-190.575 2270.47-190.575L2231.47-190.575 2228.28-221.629 2298.34-291.698C2337.34-306.031 2366-351.417 2366-405.563 2366-471.651 2323.01-525 2270.47-525L2270.47-349.825 2178.93-441.393C2176.54-430.246 2174.95-418.302 2174.95-405.563 2174.95-348.232 2207.59-300.458 2250.57-288.514L2216.34-254.275C2207.59-267.015 2194.05-276.57 2178.13-279.755L2127.98-290.902C2136.74-296.476 2143.11-306.031 2143.11-317.975 2143.11-335.492 2128.78-349.825 2111.26-349.825 2093.75-349.825 2079.42-335.492 2079.42-317.975 2079.42-311.605 2081.01-306.031 2084.2-301.254L2082.61-301.254C2080.22-302.05 2078.63-302.05 2076.24-302.05L2063.5-302.05 2050.76-302.05C2048.38-302.05 2045.99-302.05 2043.6-301.254L2042.01-301.254C2045.19-306.031 2046.78-312.401 2046.78-317.975 2046.78-335.492 2032.45-349.825 2014.94-349.825 1997.43-349.825 1983.1-335.492 1983.1-317.975 1983.1-306.827 1988.67-296.476 1998.22-290.902L1948.07-279.755C1932.15-276.57 1918.62-267.015 1909.86-254.275L1875.63-288.514C1919.41-300.458 1952.05-348.232 1952.05-405.563 1952.05-418.302 1950.46-430.246 1948.07-441.393L1856.53-349.825 1856.53-525C1803.99-525 1761-471.651 1761-405.563 1761-351.417 1789.66-306.031 1828.66-290.902L1898.72-220.832 1895.53-190.575 1856.53-190.575C1852.55-190.575 1848.57-188.982 1845.38-185.797L1797.62-138.022C1791.25-131.652 1791.25-122.097 1797.62-115.727 1800.8-112.542 1804.78-110.95 1808.76-110.95 1812.74-110.95 1816.72-112.542 1819.91-115.727L1862.89-158.725 1891.55-158.725 1886.78-118.912 1872.45-118.912C1868.47-118.912 1864.49-117.32 1861.3-114.135L1813.54-66.36C1807.17-59.99 1807.17-50.4348 1813.54-44.065 1816.72-40.88 1820.7-39.2874 1824.68-39.2874 1828.66-39.2874 1832.64-40.88 1835.83-44.065L1878.82-87.0625 1885.18-87.0625C1886.78-73.5262 1893.94-61.5825 1904.29-53.6198L1861.3-10.6223C1858.12-7.43732 1856.53-3.45618 1856.53 0.524963L1856.53 64.225C1856.53 72.9837 1863.69 80.1503 1872.45 80.1503 1881.2 80.1503 1888.37 72.9837 1888.37 64.225L1888.37 6.89508 1936.93-41.6761 1977.53-32.1212 1956.03-10.6223C1953.64-7.43732 1952.05-3.45618 1952.05 0.524963L1952.05 96.0752C1952.05 104.834 1959.22 112 1967.97 112 1976.73 112 1983.9 104.834 1983.9 96.0752L1983.9 6.89508 2014.14-23.3625 2043.6-16.196C2045.99-15.3999 2048.38-15.3999 2050.76-15.3999L2063.5-15.3999 2075.44-15.3999C2077.83-15.3999 2080.22-15.3999 2082.61-16.196L2112.06-23.3625 2142.31 6.89508 2142.31 96.0752C2142.31 104.834 2149.47 112 2158.23 112 2166.99 112 2174.15 104.834 2174.15 96.0752L2174.15 0.524963C2174.15-3.45618 2172.56-7.43732 2169.38-10.6223L2147.88-32.1212 2188.48-41.6761 2237.04 6.89508 2237.04 64.225C2237.04 72.9837 2244.2 80.1503 2252.96 80.1503 2261.72 80.1503 2268.88 72.9837 2268.88 64.225L2268.88 0.524963C2268.88-3.45618 2267.29-7.43732 2264.11-10.6223L2222.71-53.6198C2233.06-61.5825 2240.22-73.5262 2241.82-87.0625L2248.18-87.0625 2291.17-44.065C2294.36-40.88 2298.34-39.2874 2302.32-39.2874 2306.3-39.2874 2310.28-40.88 2313.46-44.065 2319.83-50.4348 2319.83-59.99 2313.46-66.36L2265.7-114.135C2262.51-117.32 2258.53-118.912 2254.55-118.912L2239.43-118.912 2234.65-158.725 2263.31-158.725 2306.3-115.727C2310.28-112.542 2314.26-110.95 2318.24-110.95 2322.22-110.95 2326.2-112.542 2329.38-115.727 2335.75-122.097 2335.75-131.652 2329.38-138.022L2281.62-185.797Z" fill="#F2F2F2" fill-rule="evenodd"/><path d="M3126.25 82.9998C3106.34 103.746 3077.68 116.513 3046.62 116.513 3015.57 116.513 2986.91 103.746 2967 82.9998 2947.09 103.746 2918.43 116.513 2887.38 116.513 2856.32 116.513 2827.66 103.746 2807.75 82.9998 2787.85 103.746 2759.18 116.513 2728.13 116.513 2723.35 116.513 2718.57 115.716 2713 115.716L2775.9 316 3158.1 316 3221 115.716C3215.43 115.716 3210.65 116.513 3205.87 116.513 3174.82 116.513 3146.15 103.746 3126.25 82.9998Z" fill="#F2F2F2" fill-rule="evenodd"/><path d="M3129.93-78.5232 3096.49-46.616C3090.12-40.2349 3079.77-41.0324 3074.2-47.4139 3071.01-50.6047 3070.22-54.5929 3070.22-58.5812 3070.22-62.5698 3071.81-67.3556 3074.99-70.5463L3108.44-102.454C3114.81-108.835 3125.16-108.037 3130.73-101.656 3136.3-95.2745 3136.3-84.9047 3129.93-78.5232ZM3018.46-148.719C3015.28-145.528 3011.29-144.73 3007.31-144.73 3003.33-144.73 2998.55-146.326 2995.37-149.516L2963.52-183.019C2957.15-189.4 2957.94-199.77 2964.31-205.353 2970.69-211.735 2981.04-210.937 2986.61-204.556L3018.46-171.054C3024.83-164.672 3024.83-155.1 3018.46-148.719ZM2930.87-22.6861C2924.5-16.3046 2914.15-17.1021 2908.58-23.4836L2876.73-56.9858C2870.36-63.3673 2871.15-73.7371 2877.52-79.3207 2880.71-82.5115 2884.69-83.3094 2888.67-83.3094 2892.65-83.3094 2897.43-81.714 2900.61-78.5232L2932.47-45.0207C2937.24-39.437 2937.24-29.0673 2930.87-22.6861ZM2844.88-134.36 2811.43-102.454C2805.07-96.072 2794.71-96.8699 2789.14-103.251 2782.77-109.633 2783.57-120.002 2789.94-125.586L2823.38-157.493C2829.75-163.874 2840.1-163.077 2845.67-156.695 2848.86-153.505 2849.66-149.516 2849.66-145.528 2849.66-142.337 2848.06-137.551 2844.88-134.36ZM3226.28-72.1417C3192.84-179.828 3089.33-258 2967.5-258 2845.67-258 2742.16-179.828 2708.72-72.1417 2674.48-63.3673 2649-32.258 2649 5.23285 2649 49.1048 2684.83 85.0003 2728.62 85.0003 2772.42 85.0003 2808.25 49.1048 2808.25 5.23285 2808.25 49.1048 2844.08 85.0003 2887.88 85.0003 2931.67 85.0003 2967.5 49.1048 2967.5 5.23285 2967.5 49.1048 3003.33 85.0003 3047.12 85.0003 3090.92 85.0003 3126.75 49.1048 3126.75 5.23285 3126.75 49.1048 3162.58 85.0003 3206.38 85.0003 3250.17 85.0003 3286 49.1048 3286 5.23285 3286-32.258 3260.52-63.3673 3226.28-72.1417Z" fill="#F2F2F2" fill-rule="evenodd"/><path d="M3783.86 1769.45C3774.3 1737.6 3753.59 1710.52 3724.91 1693.79 3724.91 1691.4 3724.91 1689.01 3724.91 1686.62 3725.71 1632.46 3681.1 1587.86 3626.13 1587.86 3609.4 1587.86 3594.26 1591.84 3580.72 1599.01 3562.4 1572.73 3532.92 1556 3498.67 1556 3454.85 1556 3417.41 1584.67 3403.87 1624.5 3389.53 1616.53 3372.8 1611.75 3355.28 1611.75 3300.31 1611.75 3255.7 1656.36 3255.7 1711.31 3255.7 1732.02 3262.07 1751.14 3273.22 1767.06 3221.44 1780.6 3184 1826.8 3184 1882.55 3184 1948.66 3237.37 2002.02 3303.49 2002.02 3313.05 2002.02 3322.61 2000.43 3332.17 1998.84 3370.41 2016.36 3454.85 2067.33 3458.84 2125.48L3455.65 2201.14C3455.65 2205.12 3454.06 2209.11 3450.87 2212.29L3443.7 2219.46C3438.92 2225.04 3442.11 2233 3449.28 2233L3536.91 2233C3543.28 2233 3546.47 2226.63 3544.08 2221.05 3544.08 2221.05 3540.09 2213.09 3537.7 2210.7 3535.31 2207.51 3532.92 2204.33 3532.92 2199.55L3529.74 2103.18C3529.74 2102.38 3530.53 2101.58 3530.53 2101.58 3536.91 2072.91 3575.15 2053.79 3615.77 2033.88 3656.4 2013.97 3704.2 1990.08 3719.34 1948.66 3728.9 1951.85 3739.25 1954.24 3750.4 1954.24 3802.98 1954.24 3846 1911.23 3846 1858.66 3845.2 1818.04 3819.71 1782.99 3783.86 1769.45ZM3497.08 2012.38C3494.69 1992.47 3489.91 1968.57 3480.35 1945.47 3500.26 1943.08 3518.58 1936.71 3534.52 1927.16 3517.79 1955.83 3505.04 1986.89 3497.08 2012.38ZM3376.78 1976.54C3391.12 1965.39 3403.07 1950.25 3411.84 1933.53 3419.01 1936.71 3426.18 1939.9 3434.14 1941.49 3454.85 1975.74 3458.84 2014.77 3458.84 2039.46 3433.35 2012.38 3400.68 1990.87 3376.78 1976.54ZM3597.45 1998.04C3574.35 2009.19 3550.45 2021.14 3531.33 2035.48 3541.69 2002.82 3560.01 1953.44 3588.69 1917.6 3608.6 1930.34 3632.5 1937.51 3658 1937.51 3665.96 1937.51 3673.13 1936.71 3680.3 1935.12 3671.54 1959.81 3640.47 1976.54 3597.45 1998.04Z" fill="#A6A6A6" fill-rule="evenodd"/><path d="M1140.22 931.374C1141.85 950.179 1125.23 989.534 1137.63 1016.85 1142.6 1027.82 1163.21 1032.86 1187.9 1034.2 1166.62 1045.11 1152.53 1057.2 1152.53 1067.95 1152.53 1114.39 1182.06 1101.19 1214.93 1123.21 1270.76 1160.6 1347.99 1207.49 1391.89 1201.48 1461.65 1191.94 1441.72 1163.33 1531.4 1172.86 1621.08 1182.4 1676.63 1210.32 1740.66 1191.94 1791.49 1177.35 1816.62 1152.82 1829.03 1132.29 1835.18 1121.84 1831.69 1108.39 1821.23 1102.24 1820.54 1101.84 1819.83 1101.47 1819.1 1101.14 1819.19 1081.66 1815.26 1062.38 1807.53 1044.5 1806.82 1042.94 1805.26 1041.94 1803.55 1041.93L1803.55 1041.93C1801.84 1041.93 1800.29 1042.92 1799.56 1044.46L1773.23 1100.16C1766.44 1100.37 1759.38 1100.52 1752.2 1100.63 1748.47 1080.94 1742.51 1061.74 1734.42 1043.41 1733.72 1041.72 1732 1040.69 1730.18 1040.86 1728.38 1040.96 1726.82 1042.14 1726.25 1043.85L1707.25 1100.25C1700.54 1100.02 1693.93 1099.7 1687.54 1099.26 1684.18 1076.47 1677.75 1054.24 1668.43 1033.17 1667.72 1031.49 1666 1030.46 1664.18 1030.62 1662.38 1030.72 1660.82 1031.9 1660.25 1033.61L1640.38 1092.6C1634.39 1091.26 1628.1 1089.71 1621.53 1087.96 1618.39 1066.76 1611.8 1046.22 1602.01 1027.15 1600.85 1025.01 1598.18 1024.21 1596.03 1025.36 1595.05 1025.89 1594.3 1026.77 1593.95 1027.83L1578.07 1075.1C1570.12 1072.58 1562.02 1069.94 1553.74 1067.17 1550.06 1050.15 1544.1 1033.71 1536.02 1018.28 1535.2 1016.73 1533.52 1015.84 1531.77 1016.02 1530.03 1016.17 1528.55 1017.34 1527.99 1018.99L1516.05 1054.44C1447.43 1031 1376.38 1006.05 1333.86 1001.77 1368.37 985.78 1414.49 964.763 1452.93 950.567L1457.8 973.311C1458.15 974.962 1459.42 976.267 1461.06 976.669 1461.4 976.757 1461.76 976.801 1462.11 976.801 1463.42 976.801 1464.67 976.216 1465.51 975.206 1474.54 963.908 1482.46 951.758 1489.14 938.926 1495.67 937.106 1502.34 935.821 1509.09 935.084L1515.94 934.529 1525.92 974.466C1526.51 976.827 1528.91 978.265 1531.27 977.677 1531.93 977.513 1532.54 977.202 1533.05 976.765 1548.37 963.23 1561.25 947.171 1571.13 929.285L1581.4 930.281 1593.57 974.562C1594.22 976.909 1596.64 978.292 1598.99 977.649 1599.78 977.434 1600.49 977.006 1601.05 976.413 1613.73 962.069 1623.8 945.611 1630.8 927.787 1639.17 927.408 1647.34 927.056 1655.23 926.739L1668.32 987.948C1668.67 989.6 1669.94 990.904 1671.58 991.305 1671.93 991.394 1672.28 991.439 1672.64 991.438 1673.95 991.435 1675.19 990.851 1676.02 989.843 1691.85 970.097 1704.91 948.289 1714.83 925.02 1721.58 924.843 1728.31 924.189 1734.96 923.064L1751.51 992.68C1751.92 994.389 1753.3 995.691 1755.04 995.994 1755.3 996.046 1755.56 996.072 1755.83 996.073 1757.29 996.072 1758.66 995.346 1759.48 994.134 1761.06 991.808 1789.05 949.923 1794.9 907.361 1801.18 905.255 1807.35 903.078 1813.27 900.884L1832.07 956.674C1832.65 958.379 1834.2 959.562 1836 959.661L1836.24 959.661C1837.96 959.66 1839.53 958.659 1840.25 957.097 1851.32 932.299 1858.15 905.821 1860.44 878.765 1885.97 859.449 1892.56 823.878 1875.64 796.715 1855.89 764.911 1826.38 740.34 1791.51 726.666 1729.5 703.623 1661.64 715.731 1602.08 720.886 1542.51 726.041 1419.28 689.365 1359.72 694.493 1312.89 700.85 1267.42 714.842 1225.12 735.911 1173.34 761 1140.4 813.393 1140.26 870.896ZM1593.62 797.384C1610.84 801.235 1637.61 869.9 1585.97 858.347 1550.49 850.416 1574.37 793.084 1593.62 797.384ZM1402.5 880.774C1398.67 881.176 1394.9 879.59 1392.52 876.571 1388.92 871.283 1392 864.014 1395.91 854.805 1399.57 846.178 1404.12 835.418 1401.28 828.289 1396.3 819.222 1389.7 811.138 1381.82 804.434 1377.97 800.663 1374.33 797.103 1371.31 793.613 1367.83 789.541 1367.16 783.768 1369.62 779.011 1371.58 774.8 1375.94 772.238 1380.58 772.578 1404.64 774.464 1463.71 780.43 1492.49 795.085 1507.93 802.954 1516.5 811.061 1518.67 819.847 1519.79 828.84 1516.82 837.862 1510.59 844.441L1509.42 846.107C1494.95 866.86 1423.2 880.298 1403.06 880.774ZM1759.12 790.44C1740.78 783.188 1737.36 788.317 1703.55 759.968 1689.23 747.939 1720.36 749.667 1756.28 755.403 1792.19 761.14 1824.25 788.687 1804.79 804.276 1796.92 810.594 1777.45 797.702 1759.12 790.44Z" fill="#D9D9D9" fill-rule="evenodd"/><path d="M1300.6 1030.91C1248.75 1035.45 1212.81 1090.31 1211.34 1152.72 1209.63 1225.56 1235.91 1317.24 1268.62 1312.96 1298.9 1309.57 1329.64 1311.62 1360.59 1319.12 1391.03 1325.99 1413.73 1272.84 1411.29 1200.42 1410.93 1189.67 1410.02 1178.84 1408.57 1168.17 1397.29 1109.33 1348.85 1026.67 1300.6 1030.91Z" fill="#A6A6A6" fill-rule="evenodd"/><path d="M1105.53 1136.01C1094.52 1135.69 1075.84 1149.98 1075.04 1160.41 1074.42 1171.25 1080.48 1181.34 1090.28 1185.77 1099.03 1187.84 1108.17 1187.28 1116.61 1184.17 1125.4 1180.13 1130.36 1170.59 1128.67 1160.98 1126.35 1151.26 1116.67 1136.33 1105.53 1136.01Z" fill="#A6A6A6" fill-rule="evenodd"/><path d="M1807.08 1217.47C1796.09 1224.1 1789.89 1236.55 1791.17 1249.42 1794.08 1259.52 1804.74 1269.68 1811.89 1268.96 1819.52 1268.38 1826.71 1265.12 1832.22 1259.77 1837.91 1252.45 1838.58 1242.35 1833.9 1234.32 1828.77 1225.84 1816 1214.54 1807.08 1217.47Z" fill="#A6A6A6" fill-rule="evenodd"/><path d="M1505.08 1260.46C1494.09 1266.97 1487.89 1279.18 1489.17 1291.8 1492.09 1301.7 1502.74 1311.67 1509.89 1310.97 1517.52 1310.39 1524.71 1307.2 1530.22 1301.95 1535.91 1294.76 1536.58 1284.86 1531.9 1276.99 1526.77 1268.66 1514 1257.6 1505.08 1260.46Z" fill="#A6A6A6" fill-rule="evenodd"/><path d="M1611.15 1225.01C1593.07 1224.71 1562.4 1238.1 1561.09 1247.97 1559.79 1257.84 1572.55 1270.15 1586.12 1271.84 1600.53 1273.79 1615.16 1273.28 1629.4 1270.33 1641.91 1267.31 1653.12 1257.65 1649.21 1248.5 1641.42 1234.72 1627.06 1225.85 1611.15 1225.01Z" fill="#A6A6A6" fill-rule="evenodd"/><path d="M1004.19 893.572 990.371 893.572 967.239 875.077C962.292 871.173 956.765 868.067 950.857 865.874 950.961 843.54 940.173 822.556 921.946 809.634 912.063 802.501 900.508 798.035 888.394 796.668 886.604 796.506 884.92 797.533 884.247 799.197 883.596 800.881 884.162 802.791 885.624 803.851 902.937 816.348 918.515 840.442 918.404 861.753L905.19 861.753C894.706 835.896 869.425 819.111 841.509 819.474 829.319 819.467 817.334 822.607 806.715 828.59 804.799 829.665 804.117 832.09 805.193 834.006 805.9 835.262 807.231 836.04 808.673 836.036 830.806 836.184 851.886 845.496 866.894 861.753L833.047 861.753C823.156 861.753 815.137 869.766 815.137 879.651 815.137 889.535 823.156 897.549 833.047 897.549L833.612 897.549 841.644 911.199C844.929 916.872 845.659 923.669 843.65 929.909 834.092 967.385 832.223 1006.41 838.158 1044.62 838.683 1048.6 839.28 1052.58 839.917 1056.47 841.518 1066 839.013 1075.77 833.024 1083.35 827.9 1089.87 820.486 1094.19 812.287 1095.45 793.828 1055.62 767.982 976.762 765.418 931.054L765.156 926.822C762.693 880.365 770.999 833.967 789.426 791.243 790.241 789.25 789.919 786.974 788.582 785.285 748.288 734.279 660.074 714.194 569.082 735.281 476.172 756.823 403.512 815.266 388.277 880.709 387.431 884.324 389.678 887.939 393.296 888.784 394.987 889.179 396.765 888.905 398.259 888.02 414.63 878.363 432.39 871.278 450.914 867.011 483.599 859.446 503.849 855.445 528.127 862.692 483.46 891.287 455.594 939.892 453.501 992.862 453.356 995.576 454.888 998.1 457.362 999.226 459.844 1000.19 462.657 999.659 464.622 997.866 477.903 984.638 493.168 973.562 509.867 965.037 530.762 955.769 540.744 953.415 559.705 955.674 524.362 987.495 511.367 1037.29 526.655 1082.3 527.49 1084.87 529.795 1086.68 532.49 1086.89 535.147 1086.93 537.617 1085.53 538.945 1083.23 549.82 1064.49 565.001 1048.61 583.235 1036.89 587.514 1034.04 592.043 1031.58 596.768 1029.54 613.841 1022.79 633.167 1031.07 640.055 1048.08 642.922 1054.57 642.492 1062.05 638.901 1068.18 579.906 1062.16 527.2 1105.07 521.177 1164.03 520.807 1167.65 520.621 1171.28 520.621 1174.92L520.621 1186.42C521.139 1214.28 503.685 1239.33 477.35 1248.51 460.558 1254.35 441.971 1251.68 427.504 1241.35 413.526 1231.22 405.241 1215.02 405.215 1197.77L405.215 1125.25 429.98 1106.69C434.883 1103.05 436.822 1096.63 434.755 1090.88L401.96 999.21C399.846 993.308 393.343 990.236 387.437 992.349 384.236 993.494 381.717 996.011 380.571 999.21L347.815 1090.88C345.754 1096.63 347.693 1103.05 352.591 1106.69L377.22 1125.15 373.749 1204.56C371.305 1260.96 415.073 1308.65 471.508 1311.1 472.979 1311.16 474.452 1311.19 475.925 1311.19L491.933 1311.19C544.908 1311.19 587.215 1267.73 588.25 1212.25 588.616 1192.02 605.321 1175.92 625.562 1176.29 627.943 1176.33 630.315 1176.61 632.644 1177.11L622.296 1254.35C621.9 1257.33 622.07 1260.37 622.797 1263.29L638.717 1326.93C641.378 1337.56 650.941 1345.01 661.905 1345L717.626 1345C730.815 1345 741.506 1334.32 741.506 1321.14 741.506 1307.96 730.815 1297.27 717.626 1297.27L680.556 1297.27 670.82 1258.34C682.717 1250.75 692.68 1240.49 699.922 1228.38 706.283 1215.94 711.095 1202.77 714.251 1189.17 715.148 1184.87 719.364 1182.11 723.668 1183 727.971 1183.9 730.733 1188.11 729.836 1192.41 729.814 1192.52 729.79 1192.62 729.765 1192.72 727.768 1201.17 725.188 1209.46 722.044 1217.55L746.895 1229.08C775.377 1242.23 805.826 1250.62 837.027 1253.91L837.027 1321.14C837.027 1334.32 847.719 1345 860.908 1345L916.628 1345C929.817 1345 940.509 1334.32 940.509 1321.14 940.509 1307.96 929.817 1297.27 916.628 1297.27L884.788 1297.27 884.788 1255.04C902.503 1253.24 919.056 1245.4 931.673 1232.84 946.309 1218.37 954.514 1198.63 954.447 1178.06 954.478 1135.19 946.293 1092.72 930.336 1052.94L925.385 1040.53C923.58 1036.03 922.643 1031.22 922.622 1026.38 922.602 1023.84 923.6 1021.4 925.393 1019.6 927.122 1017.85 929.482 1016.87 931.944 1016.87L992.942 1016.87C1006.85 1016.86 1018.13 1005.59 1018.14 991.685L1018.14 987.039C1018.14 983.745 1015.47 981.073 1012.17 981.073L946.821 981.073C949.165 965.1 962.865 953.254 979.02 953.232L1036.03 953.232C1039.33 953.232 1042 950.561 1042 947.266L1042 931.357C1041.97 910.5 1025.06 893.598 1004.19 893.572ZM930.638 922.607C920.352 914.36 918.702 899.342 926.953 889.061L964.214 918.916C955.966 929.2 940.936 930.855 930.645 922.612 930.643 922.61 930.641 922.608 930.638 922.607Z" fill="#F2F2F2" fill-rule="evenodd"/><path d="M-190.948 1711.78-380.608 1380.54C-383.796 1374.17-386.186 1367.8-386.186 1360.64-386.186 1357.45-385.39 1353.47-384.592 1350.29L-359.889 1258.72C-359.092 1254.73-355.108 1252.35-351.123 1253.14L-284.981 1259.51C-282.59 1259.51-280.997 1258.72-280.997 1256.33L-266.653 1191.83C-265.855 1190.24-267.449 1187.85-269.043 1187.05L-330.404 1164.76C-346.342 1159.19-363.077 1156-379.811 1156L-386.186 1156C-390.968 1156-394.155 1159.19-394.155 1163.96L-394.155 1171.92C-394.155 1206.96-422.843 1235.62-457.907 1235.62-492.97 1235.62-521.658 1206.96-521.658 1171.92L-521.658 1163.96C-521.658 1159.19-524.846 1156-529.627 1156L-536.002 1156C-552.737 1156-569.472 1159.19-585.409 1164.76L-645.973 1187.05C-647.567 1187.85-649.161 1189.44-648.364 1191.83L-634.02 1256.33C-633.223 1257.92-631.629 1259.51-630.035 1259.51L-563.893 1253.14C-559.909 1253.14-556.721 1255.53-555.127 1258.72L-530.424 1350.29C-529.627 1353.47-528.83 1357.45-528.83 1360.64-528.83 1367.8-530.424 1374.17-534.408 1380.54L-724.866 1711.78C-728.85 1718.95-727.256 1727.71-720.084 1732.49-670.677 1768.32-571.862 1793-457.907 1793-343.951 1793-245.136 1768.32-195.729 1732.49-189.354 1727.71-186.964 1718.95-190.948 1711.78Z" fill="#595959" fill-rule="evenodd"/><path d="M1412.72 279.682C1285.88 200.514 1118.87 239.165 1039.7 366.013 960.529 492.861 999.181 659.87 1126.03 739.038 1252.88 818.207 1419.89 779.555 1499.05 652.707 1578.04 525.83 1539.42 358.955 1412.72 279.682ZM1508.02 517.381C1507.48 534.843 1505.01 552.192 1500.67 569.115L1429.84 524.909C1418.65 517.924 1415.24 503.188 1422.22 491.995 1429.21 480.802 1443.95 477.392 1455.14 484.378ZM1322.44 345.358C1333.63 352.343 1337.04 367.079 1330.05 378.272 1323.07 389.464 1308.33 392.875 1297.14 385.889L1248.14 355.305C1236.94 348.32 1222.21 351.73 1215.22 362.923 1208.24 374.116 1211.65 388.851 1222.84 395.837L1344.43 471.727C1355.63 478.712 1359.04 493.448 1352.05 504.641 1345.07 515.833 1330.33 519.243 1319.14 512.258L1080.38 363.244C1113.61 320.265 1160.54 289.937 1213.38 277.293ZM1117.46 499.028C1128.66 506.013 1132.07 520.749 1125.08 531.942 1118.1 543.135 1103.36 546.545 1092.17 539.559L1030.73 501.218C1031.28 483.759 1033.75 466.415 1038.1 449.497ZM1170.66 644.871C1159.47 637.885 1156.06 623.15 1163.05 611.957 1170.03 600.764 1184.77 597.354 1195.96 604.34L1317.56 680.229C1328.75 687.215 1343.48 683.805 1350.47 672.612 1357.45 661.419 1354.04 646.683 1342.85 639.698L1327.65 630.212C1316.46 623.226 1313.05 608.49 1320.04 597.298 1327.02 586.105 1341.76 582.695 1352.95 589.68L1458.33 655.451C1425.11 698.43 1378.19 728.762 1325.36 741.419Z" fill="#595959" fill-rule="evenodd"/><path d="M1212.99 2215C1208.17 2215 1203.83 2212.09 1202.01 2207.64L1126.82 2031 966.622 1965.15 806.619 2031 733.078 2205.99C730.395 2212.06 723.283 2214.82 717.194 2212.14 711.105 2209.47 708.343 2202.38 711.025 2196.31L788.744 2012.31 967.011 1939 1144.99 2012.5 1224.06 2198.25C1226.62 2204.34 1223.76 2211.36 1217.65 2213.94 1216.18 2214.57 1214.6 2214.93 1212.99 2215Z" fill="#F2F2F2" fill-rule="evenodd"/><path d="M838 2380 936 2316.61 838 2254 838 2380Z" fill="#F2F2F2" fill-rule="evenodd"/><path d="M873 2245 964.794 2303 1063 2245 873 2245Z" fill="#F2F2F2" fill-rule="evenodd"/><path d="M1091 2380 1091 2254 991 2316.61 1091 2380Z" fill="#F2F2F2" fill-rule="evenodd"/><path d="M1168 2407.64 1168 2205.95 1110.98 2042.92 966.429 1982 822.074 2043.21 760 2205.46 760 2416C778.773 2406.71 798.265 2398.94 818.286 2392.78L818.286 2234.61C818.286 2228 831.109 2224.89 837.715 2224.89L1090.29 2224.89C1096.89 2224.89 1109.71 2228 1109.71 2234.61L1109.71 2387.73C1129.6 2392.94 1149.08 2399.6 1168 2407.64ZM1051.43 2163.59C1051.43 2170.62 1045.73 2176.31 1038.7 2176.31L889.297 2176.31C882.269 2176.31 876.572 2170.62 876.572 2163.59L876.572 2070.02C876.624 2064.36 881.203 2059.78 886.869 2059.73L1037.44 2059.73C1045.11 2059.67 1051.38 2065.85 1051.43 2073.52 1051.43 2073.59 1051.43 2073.65 1051.43 2073.72Z" fill="#F2F2F2" fill-rule="evenodd"/><path d="M896 2079 1032 2079 1032 2157 896 2157Z" fill="#F2F2F2" fill-rule="evenodd"/><path d="M411 2002 459 2002 459 2021 411 2021Z" fill="#F2F2F2" fill-rule="evenodd"/><path d="M477.16 1966 443 1931.92 456.939 1918 491 1952.08 477.16 1966Z" fill="#F2F2F2" fill-rule="evenodd"/><path d="M595 2012.5C595 2044.81 569.033 2071 537 2071 504.967 2071 479 2044.81 479 2012.5 479 1980.19 504.967 1954 537 1954 569.033 1954 595 1980.19 595 2012.5Z" fill="#F2F2F2" fill-rule="evenodd"/><path d="M527 1885 547 1885 547 1934 527 1934Z" fill="#F2F2F2" fill-rule="evenodd"/><path d="M615 2002 663 2002 663 2021 615 2021Z" fill="#F2F2F2" fill-rule="evenodd"/><path d="M596.841 1966 631 1931.92 617.062 1918 583 1952.08 596.841 1966Z" fill="#F2F2F2" fill-rule="evenodd"/><path d="M477.16 2058 443 2092.18 456.939 2106 491 2071.92 477.16 2058Z" fill="#F2F2F2" fill-rule="evenodd"/><path d="M527 2090 547 2090 547 2139 527 2139Z" fill="#F2F2F2" fill-rule="evenodd"/><path d="M596.841 2058 631 2092.18 617.062 2106 583 2071.92 596.841 2058Z" fill="#F2F2F2" fill-rule="evenodd"/><path d="M974.18 2370.51C995.171 2370.52 1016.14 2371.71 1037 2374.07L964.5 2332 895 2376C921.233 2372.35 947.69 2370.51 974.18 2370.51Z" fill="#F2F2F2" fill-rule="evenodd"/><path d="M484.62 2497C639.813 2487.27 721.096 2438.64 727.109 2435.82 734.483 2430.68 742.124 2425.94 750 2421.62 630.211 2298.86 411 2313.55 411 2313.55L411 2497Z" fill="#F2F2F2" fill-rule="evenodd"/><path d="M1246 2487.87 1211.63 2465.64C1156.87 2424.27 1067.83 2400 974.14 2400 883.067 2400 798.79 2422.24 743.447 2460.69 742.476 2461.36 657.131 2515.74 486.053 2526.61L411 2526.61 411 2614 1246 2614Z" fill="#F2F2F2" fill-rule="evenodd"/><path d="M3212.47 402.362C3211.88 389.182 3200.72 378.974 3187.54 379.563 3176.56 380.053 3167.33 387.979 3165.18 398.762L2758.26 367.786 2717.74 598.704 3110.86 708.104C3108.93 721.156 3117.95 733.299 3131 735.229 3141.81 736.826 3152.32 730.891 3156.53 720.814L3157.5 718.558C3230.66 731.305 3302.94 691.84 3331.78 623.398L3364.22 632.024 3374.61 730.959C3375.98 744.082 3387.74 753.605 3400.86 752.228 3413.98 750.851 3423.51 739.097 3422.13 725.974L3410.02 610.666C3408.99 600.809 3401.98 592.615 3392.4 590.07L3343.46 577.068C3351.45 494.318 3294.48 419.329 3212.62 404.83ZM3165.83 671.497 3181.29 583.418 3285.02 610.981C3263.1 655.342 3214.58 679.974 3165.83 671.497ZM3003.58 628.645 3019.07 540.323 3134.94 571.107 3119.2 660.817ZM3156.88 446.056 3143.22 523.899 3027.37 493.06 3037.21 436.943ZM3296.41 564.561 3189.58 536.179 3204.37 451.889C3258.68 461.524 3297.8 509.413 3296.41 564.561Z" fill="#FFFFFF" fill-rule="evenodd"/><path d="M2512.12 1551.36C2471.64 1537.59 2450.97 1493.99 2464.42 1454.47 2477.86 1414.95 2521.78 1393.32 2561.31 1406.76 2601.79 1420.54 2622.45 1464.13 2609.01 1503.65 2595.57 1543.18 2551.65 1564.8 2512.12 1551.36ZM2715.03 1489.17C2715.77 1474.36 2715.21 1460.19 2712.4 1446.33L2743.23 1406.27 2720.33 1359.76 2669.78 1359.77C2660.51 1349.09 2649.62 1340.01 2637.43 1331.56L2630.65 1281.94 2582.45 1265.54 2546.82 1300.74C2532.01 1300.01 2517.84 1300.57 2503.98 1303.38L2463.92 1272.54 2417.41 1295.44 2417.43 1345.99C2406.74 1355.27 2397.66 1366.16 2389.22 1378.34L2339.59 1385.12 2323.19 1433.32 2358.4 1468.96C2357.66 1483.76 2358.22 1497.93 2361.03 1511.8L2330.2 1551.86 2352.46 1597.07 2403.01 1597.06C2412.28 1607.74 2423.18 1616.82 2435.36 1625.27L2442.14 1674.9 2490.34 1691.29 2525.97 1656.09C2540.78 1656.82 2554.95 1656.27 2568.81 1653.45L2608.87 1684.29 2655.05 1662.35 2655.04 1611.8C2665.72 1602.53 2676.09 1591 2684.21 1579.78L2733.84 1573 2750.24 1524.8 2715.03 1489.17Z" fill="#A6A6A6" fill-rule="evenodd"/><path d="M2174.92 1828.14C2134.43 1814.37 2113.77 1770.77 2127.21 1731.25 2140.98 1690.76 2184.58 1670.1 2224.1 1683.54 2264.59 1697.32 2285.25 1740.91 2271.81 1780.43 2258.36 1819.95 2215.41 1841.91 2174.92 1828.14L2174.92 1828.14ZM2375.19 1723.11 2406.03 1683.05 2383.13 1636.54 2332.58 1636.55C2323.3 1625.87 2311.45 1616.46 2300.23 1608.34L2293.45 1558.71 2245.25 1542.32 2209.62 1577.52C2194.81 1576.79 2180.64 1577.34 2166.78 1580.16L2126.72 1549.32 2081.5 1571.59 2080.55 1621.81C2069.87 1631.08 2060.46 1642.94 2052.34 1654.16L2002.71 1660.94 1986.32 1709.14 2021.52 1744.77C2020.78 1759.58 2021.34 1773.75 2024.15 1787.61L1994.28 1828 2016.55 1873.21 2066.77 1874.16C2076.04 1884.85 2086.94 1893.93 2099.12 1902.38L2105.9 1952 2154.1 1968.4 2189.73 1933.2C2204.54 1933.93 2218.71 1933.37 2232.57 1930.56L2272.63 1961.39 2318.17 1938.17 2318.8 1888.91C2329.48 1879.64 2338.56 1868.74 2347.01 1856.56L2396.64 1849.78 2413.03 1801.58 2377.83 1765.95C2378.56 1751.14 2378.01 1736.97 2375.19 1723.11Z" fill="#A6A6A6" fill-rule="evenodd"/><path d="M1884.22 1691.76C1881.77 1686.17 1877.37 1681.66 1871.84 1679.07L1841.7 1664.9C1837.5 1662.89 1833.87 1659.87 1831.12 1656.11L1820.77 1641.87C1814.92 1633.84 1805.98 1628.63 1796.12 1627.48L1774.66 1627.74 1770.92 1600.31C1773.64 1597.14 1774.85 1592.94 1774.23 1588.81 1772.07 1581.06 1764.05 1576.52 1756.3 1578.67 1749.97 1580.42 1745.6 1586.19 1745.63 1592.76 1746.1 1596.87 1748.41 1600.55 1751.9 1602.78L1755.26 1628.6 1754.72 1628.8 1741.61 1606.88C1743.85 1599.15 1739.4 1591.08 1731.67 1588.84 1723.94 1586.6 1715.86 1591.05 1713.63 1598.77 1711.39 1606.5 1715.84 1614.58 1723.56 1616.82 1723.92 1616.92 1724.27 1617.01 1724.63 1617.08L1736.16 1635.44C1733.72 1636.88 1731.6 1638.8 1729.92 1641.08L1724.61 1648.14 1689.45 1652.48C1685.13 1652.93 1681.99 1656.81 1682.45 1661.13 1682.71 1663.62 1684.16 1665.85 1686.33 1667.11L1710.78 1679.5 1622.75 2060.77C1620.69 2069.84 1614.98 2077.67 1606.98 2082.41L1461.66 2182.4C1456.2 2185.62 1451.03 2189.33 1446.24 2193.49 1396.35 2223.27 1374.44 2284.15 1393.92 2338.89L1430.55 2441.19C1433.54 2449.56 1431.85 2458.89 1426.12 2465.68 1420.91 2471.8 1421.65 2481 1427.78 2486.21 1431.75 2489.59 1437.23 2490.58 1442.14 2488.82 1444.56 2487.98 1446.7 2486.5 1448.34 2484.54 1460.77 2469.78 1464.44 2449.54 1457.98 2431.37L1421.35 2329.07C1413.92 2308.29 1414.19 2285.54 1422.11 2264.95 1424.35 2277.97 1427.89 2290.73 1432.66 2303.05L1444.15 2335.14 1461.5 2383.59 1529.13 2572.47C1534.55 2587.62 1551.23 2595.5 1566.38 2590.08 1581.52 2584.65 1589.41 2567.98 1583.98 2552.83L1514.13 2357.73 1654.61 2289.18 1730.26 2500.45C1735.68 2515.6 1752.36 2523.48 1767.51 2518.06 1782.65 2512.64 1790.54 2495.96 1785.11 2480.81L1707.27 2263.41 1724.84 2254.85 1803.4 2474.27C1808.82 2489.41 1825.5 2497.3 1840.65 2491.87 1855.79 2486.45 1863.68 2469.77 1858.25 2454.63L1777.53 2229.18 1777.53 2229.18 1793.17 2168.29C1797.77 2155.66 1797.81 2141.82 1793.29 2129.16L1778.43 2087.65C1774.48 2076.66 1772.32 2065.1 1772.05 2053.42L1774.18 1728.68C1775.11 1720.27 1782.67 1714.19 1791.08 1715.1L1804.48 1716.5C1809.53 1717.06 1814.64 1716.46 1819.43 1714.75L1839.27 1707.65C1842.09 1706.61 1845.19 1706.6 1848.02 1707.61L1859.81 1711.74C1863.8 1713.22 1868.24 1712.77 1871.86 1710.52L1878.13 1706.73 1888.26 1699.6Z" fill="#404040" fill-rule="evenodd"/><path d="M1602.27 2546.28C1607.69 2561.43 1624.37 2569.31 1639.51 2563.89 1654.66 2558.46 1662.55 2541.79 1657.12 2526.64L1590.96 2341.88 1538.27 2367.55Z" fill="#404040" fill-rule="evenodd"/><path d="M2602.37 549.991C2556.15 443.662 2472.33 360.961 2363.78 318L2347.66 357.739C2444.38 396.404 2520.69 470.513 2562.6 567.175 2603.44 663.838 2605.59 770.168 2566.9 866.83 2528.21 963.493 2454.05 1039.75 2357.33 1081.64 2260.6 1122.45 2154.2 1124.6 2057.47 1085.93L2041.35 1125.67C2081.12 1141.78 2123.03 1151.45 2164.95 1154.67L2164.95 1196.56 1950 1196.56 1950 1261 2465.88 1261 2465.88 1196.56 2250.93 1196.56 2250.93 1153.6C2292.84 1149.3 2333.68 1137.49 2374.52 1121.38 2482 1075.19 2563.68 991.418 2606.67 882.941 2649.66 774.464 2648.58 657.394 2602.37 549.991Z" fill="#7F7F7F" fill-rule="evenodd"/><path d="M2554 722C2554 914.748 2397.75 1071 2205 1071 2012.25 1071 1856 914.748 1856 722 1856 529.253 2012.25 373 2205 373 2397.75 373 2554 529.253 2554 722Z" fill="#7F7F7F" fill-rule="evenodd"/><path d="M3938.16-146.243C3972.57-231.949 3930.98-329.319 3845.28-363.725 3759.57-398.131 3662.2-356.544 3627.79-270.838L3605.63-279.737 3475.1 45.4118 3829.81 187.805 3960.33-137.344ZM3812.43-110.911 3694.2-158.375C3686.03-161.652 3682.07-170.925 3685.35-179.088 3688.63-187.25 3697.9-191.211 3706.06-187.934L3824.3-140.47C3832.46-137.193 3836.42-127.92 3833.14-119.757 3829.87-111.594 3820.59-107.634 3812.43-110.911ZM3858.33-161.129 3695.76-226.393C3687.6-229.67 3683.64-238.942 3686.91-247.105 3690.19-255.268 3699.46-259.228 3707.62-255.952L3870.2-190.688C3878.36-187.411 3882.32-178.138 3879.05-169.975 3875.77-161.813 3866.5-157.852 3858.33-161.129Z" fill="#595959" fill-rule="evenodd"/><path d="M3530.86 114 3913.14 114C3930.74 114 3945 128.165 3945 145.637L3945 201 3945 201 3499 201 3499 201 3499 145.637C3499 128.165 3513.26 114 3530.86 114Z" fill="#404040" fill-rule="evenodd"/><path d="M126.608 2025.22C137.561 2081.21 143.646 2238.23 144.863 2296.66L103.485 2330.74C76.7102 2334.39-72.9825 2364.82-154.522 2364.82-236.062 2364.82-386.972 2335.61-413.747 2329.52L-455.125 2295.44C-453.908 2235.8-449.04 2078.78-436.87 2022.79-436.87 2022.79-436.87 2022.79-436.87 2022.79-427.134 2039.83-406.444 2044.7-389.406 2034.96-378.453 2028.87-372.368 2017.92-372.368 2005.75-372.368 2004.53-372.368 2003.31-372.368 2000.88-372.368 2000.88-372.368 2000.88-372.368 2000.88L-372.368 2000.88C-335.858 2054.43-330.99 2101.9-320.036 2127.47-318.819 2132.33-313.951 2133.55-309.083 2132.33-306.649 2131.12-305.432 2129.9-304.215 2127.47-290.828 2097.04-270.139 2033.74-295.696 1971.66-306.649 1947.32-322.47 1930.28-345.594 1918.11L-345.594 1916.89C-281.092 1941.23-257.969 1983.84-227.543 2006.96-223.892 2009.4-219.024 2009.4-216.59 2006.96-214.156 2004.53-214.156 2002.09-215.373 1998.44-216.59 1944.89-239.713 1866.99-301.781 1842.64-366.283 1819.51-405.227 1865.77-424.7 1887.68L-425.917 1887.68C-414.964 1860.9-401.576 1804.91-452.691 1764.74-489.201 1736.75-567.09 1742.83-610.903 1750.13-615.771 1751.35-618.205 1755-618.205 1759.87-618.205 1763.52-615.771 1765.96-613.337 1765.96-571.958 1781.78-534.231 1806.13-500.154 1835.34L-501.371 1836.56C-535.448 1815.86-578.044 1807.34-626.724 1832.9-664.451 1854.81-698.528 1912.02-716.783 1948.54-719.217 1952.19-718 1958.28-713.132 1959.49-710.698 1960.71-707.047 1960.71-704.613 1959.49-664.451 1932.71-620.639 1914.46-573.175 1904.72L-571.958 1905.94C-591.43 1916.89-607.252 1933.93-618.205 1953.41-638.894 1989.92-637.677 2047.13-632.809 2083.65-632.809 2088.52-627.941 2092.17-623.073 2090.95-620.639 2090.95-616.988 2088.52-615.771 2086.08-599.95 2048.35-576.827 2014.27-547.618 1986.27L-547.618 1986.27C-548.835 1989.92-550.052 1993.57-550.052 1997.23-550.052 2016.7-534.231 2031.31-515.976 2031.31-508.674 2031.31-500.154 2028.87-494.069 2024-494.069 2024-494.069 2024-494.069 2024-525.712 2173.72-528.146 2512.1-528.146 2571.74-528.146 2581.48-520.844 2588.78-511.108 2588.78L-453.908 2588.78C-444.172 2588.78-435.653 2580.26-436.87 2570.53-436.87 2569.31-436.87 2569.31-436.87 2568.09-450.257 2493.84-457.559 2417.16-457.559 2341.69L-436.87 2357.52C-422.266 2378.21-323.688 2509.67-155.739 2509.67 12.2087 2509.67 110.787 2379.43 125.391 2358.73L146.08 2342.91C144.863 2418.38 137.561 2495.06 125.391 2569.31 124.174 2579.05 130.259 2587.57 139.995 2590 141.212 2590 141.212 2590 142.429 2590L198.412 2590C208.148 2590 215.45 2582.7 215.45 2572.96 215.45 2514.53 213.016 2174.94 181.373 2025.22 181.373 2025.22 181.373 2025.22 181.373 2025.22 187.459 2030.09 194.761 2032.52 203.28 2032.52 222.752 2032.52 237.356 2016.7 237.356 1998.44 237.356 1994.79 237.356 1991.14 234.922 1986.27L234.922 1986.27C264.131 2015.48 287.254 2049.56 304.292 2087.3 306.726 2092.17 311.594 2093.38 315.245 2090.95 317.679 2089.73 320.113 2087.3 320.113 2083.65 324.981 2047.13 326.198 1989.92 305.509 1953.41 294.556 1933.93 278.735 1916.89 259.263 1905.94L259.263 1904.72C306.726 1914.46 351.756 1932.71 391.917 1959.49 395.568 1961.93 401.653 1960.71 404.087 1957.06 405.304 1954.62 405.304 1950.97 404.087 1948.54 385.832 1912.02 351.756 1854.81 314.028 1832.9 265.348 1806.13 222.752 1815.86 188.676 1836.56L187.459 1835.34C221.535 1807.34 259.263 1783 300.641 1765.96 305.509 1764.74 306.726 1759.87 305.509 1755 304.292 1752.57 301.858 1750.13 299.424 1750.13 255.611 1742.83 177.723 1736.75 141.212 1764.74 90.0975 1804.91 104.702 1860.9 115.655 1887.68L114.438 1888.9C94.9656 1866.99 54.8041 1819.51-9.69775 1843.86-71.7656 1866.99-94.8887 1944.89-96.1057 1999.66-97.3227 2003.31-94.8887 2008.18-91.2375 2009.4-88.8035 2010.61-85.1525 2009.4-82.7184 2008.18-51.0762 1985.05-30.3868 1942.45 35.3317 1918.11L36.5488 1919.32C14.6428 1930.28-3.61261 1949.75-14.5658 1972.88-40.123 2033.74-19.4339 2098.25-6.04669 2128.68-4.82965 2133.55 0.0384521 2134.77 4.90656 2133.55 7.34058 2132.33 8.55762 2131.12 9.77466 2128.68 20.7278 2104.34 25.5956 2055.65 60.8893 2003.31L62.1063 2003.31C62.1063 2004.53 62.1063 2006.96 62.1063 2008.18 62.1063 2027.66 77.9272 2042.26 97.3996 2042.26 109.57 2041.04 120.523 2034.96 126.608 2025.22L126.608 2025.22ZM-20.6509 2439.07-27.9527 2431.76-8.48071 2412.29 3.68951 2424.46C-3.61261 2429.33-12.1318 2434.2-20.6509 2439.07ZM-132.616 2473.15-137.484 2468.28-118.012 2448.81-98.5397 2468.28-98.5397 2468.28C-109.493 2470.72-121.663 2471.93-132.616 2473.15ZM-210.505 2468.28-210.505 2468.28-191.033 2448.81-171.561 2468.28-176.429 2473.15C-187.382 2471.93-199.552 2470.72-210.505 2468.28ZM-312.734 2424.46-300.564 2412.29-281.092 2431.76-288.394 2439.07C-296.913 2435.42-305.432 2430.55-312.734 2424.46ZM-278.658 2390.38C-267.705 2391.6-256.752 2392.81-245.798 2395.25L-244.581 2396.47-264.054 2414.72-283.526 2395.25-278.658 2390.38ZM-102.191 2398.9-118.012 2414.72-131.399 2401.33C-122.88 2400.12-111.927 2400.12-102.191 2398.9ZM-81.5014 2412.29-62.0294 2431.76-81.5014 2451.24-100.974 2431.76-81.5014 2412.29ZM-135.05 2431.76-154.522 2451.24-173.995 2431.76-154.522 2412.29-135.05 2431.76ZM-191.033 2414.72-206.854 2398.9C-197.118 2400.12-186.165 2400.12-177.646 2401.33L-191.033 2414.72ZM-208.071 2431.76-227.543 2451.24-247.015 2431.76-227.543 2412.29-208.071 2431.76ZM-264.054 2448.81-259.186 2453.67C-261.62 2452.46-262.837 2452.46-265.271 2451.24L-264.054 2448.81ZM-44.991 2448.81-44.991 2448.81C-46.2081 2451.24-47.425 2451.24-49.8591 2452.46L-44.991 2448.81ZM-44.991 2414.72-64.4634 2395.25-63.2464 2394.03C-52.2932 2392.81-41.34 2391.6-30.3868 2389.16L-25.519 2394.03-44.991 2414.72ZM-330.99 2381.86-317.602 2395.25-333.424 2411.07C-348.028 2400.12-361.415 2387.95-374.802 2374.56-361.415 2376.99-346.811 2379.43-330.99 2381.86ZM24.3785 2411.07 8.55762 2395.25 21.9445 2381.86C37.7658 2379.43 52.3701 2376.99 64.5403 2374.56 52.3701 2387.95 38.9828 2398.9 24.3785 2411.07Z" fill="#BFBFBF" fill-rule="evenodd"/><path d="M4648 1080C4480.66 1080 4345 1215.66 4345 1383 4345 1550.34 4480.66 1686 4648 1686 4815.34 1686 4951 1550.34 4951 1383 4951 1215.66 4815.34 1080 4648 1080ZM4392.84 1383C4393 1242.15 4507.15 1128 4648 1127.84L4648 1383 4498.09 1589.3C4431.99 1541.36 4392.86 1464.66 4392.84 1383Z" fill="#A6A6A6" fill-rule="evenodd"/><path d="M2186.47 459.031C2181.1 458.605 2176.39 462.621 2175.97 467.999 2175.78 470.353 2176.46 472.694 2177.86 474.59L2187.59 487.815C2189.23 490.036 2188.76 493.169 2186.54 494.814 2185.79 495.375 2184.89 495.711 2183.95 495.783 2034.48 510.027 1910 641.634 1910 757.609 1909.98 897.947 2042.73 939 2206.48 939 2370.24 939 2503 897.947 2503 757.585 2503 610.929 2322.69 472.352 2186.47 459.031ZM2152.18 575.819 2088.47 639.554C2082.36 645.884 2072.28 646.059 2065.95 639.946 2059.62 633.832 2059.45 623.745 2065.56 617.416 2065.69 617.282 2065.82 617.152 2065.95 617.024L2129.66 553.288C2135.99 547.174 2146.07 547.349 2152.18 553.68 2158.14 559.854 2158.14 569.644 2152.18 575.819ZM2220.56 668.124C2220.56 676.924 2213.43 684.058 2204.63 684.058 2195.83 684.058 2188.7 676.924 2188.7 668.124L2188.7 596.421C2188.7 587.621 2195.83 580.487 2204.63 580.487 2213.43 580.487 2220.56 587.621 2220.56 596.421ZM2343.31 639.554C2337.09 645.775 2327 645.775 2320.79 639.554L2257.08 575.819C2250.75 569.705 2250.57 559.618 2256.68 553.288 2262.8 546.958 2272.88 546.783 2279.21 552.896 2279.34 553.024 2279.47 553.155 2279.6 553.288L2343.31 617.024C2349.52 623.246 2349.52 633.332 2343.31 639.554Z" fill="#FFFFFF" fill-rule="evenodd"/><path d="M3070.26-382.855C3067.87-382.855 3064.69-382.855 3062.3-382.855 3062.3-382.855 3062.3-382.855 3062.3-382.855 3062.3-421.863 3043.19-457.686 3012.14-479.977 2980.29-502.267 2939.69-507.84 2903.07-495.102 2872.81-554.012 2805.94-584.263 2742.25-569.137 2678.55-554.012 2632.38-496.694 2632.38-430.62 2632.38-430.62 2632.38-429.824 2632.38-429.028 2588.59-436.192 2544.8-417.882 2517.73-382.855 2491.46-347.031 2486.68-300.063 2504.99-260.259 2524.1-220.455 2563.91-194.184 2607.7-191.796L2607.7-191 3069.46-191C3122.01-191 3165-233.988 3165-286.529 3165-339.071 3122.8-382.855 3070.26-382.855Z" fill="#404040" fill-rule="evenodd"/><path d="M-251.023 630.65C-263.643 676.052-250.581 709.742-230.941 740.701L-393.848 740.701-372.433 860.944C-370.08 874.184-358.633 883.871-345.188 884L-15.4209 884C-1.97665 883.871 9.47052 874.183 11.8229 860.944L33.2385 740.701-127.716 740.701C-138.478 729.783-149.938 719.574-162.023 710.14-196.233 682.294-210.713 667.466-205.004 643.522-199.188 623.663-179.502 613.673-150.153 600.746-147.735 599.68-145.315 598.604-142.892 597.516-124.111 594.497-103.59 592.524-84.8084 591.238-89.604 595.645-92.4567 601.774-92.7424 608.281-92.7431 628.654-62.0562 645.169-24.2033 645.169 5.92087 645.169 31.4467 634.695 40.639 620.157 55.9962 629.1 73.5722 633.51 91.3311 632.874 125.942 632.874 154 619.111 154 602.133 154 585.156 125.942 571.393 91.3311 571.393 86.6607 571.399 81.9939 571.664 77.3537 572.187 78.1647 569.962 78.5889 567.614 78.6066 565.246 78.6073 544.872 47.9211 528.357 10.0675 528.357-23.1377 528.357-50.8168 541.067-57.1174 557.94-67.2482 558.347-78.8887 558.952-91.202 559.845-89.3684 556.889-87.7956 553.779-86.5013 550.55-76.3817 523.943-80.9944 493.973-98.6443 471.641-90.0495 462.585-85.1139 450.665-84.7918 438.182-84.8921 429.705-87.3108 421.417-91.7871 414.217-90.7764 414.241-89.7829 414.299-88.7635 414.299-63.024 414.299-40.647 406.686-29.2106 395.483-18.0827 407.951-1.99976 414.842 14.7015 414.299 43.2752 414.299 66.438 396.478 66.438 374.493 66.438 352.509 43.2752 334.688 14.7015 334.688 13.0382 334.688 11.3983 334.762 9.7757 334.879 10.3734 332.202 10.6902 329.47 10.7219 326.727 10.7219 295.95-24.9125 271-68.8726 271-98.6173 271-124.507 282.444-138.168 299.367-153.526 290.996-170.776 286.71-188.265 286.922-225.029 286.922-255.885 304.398-265.029 328.115-271.234 327.202-277.497 326.738-283.77 326.727-327.729 326.727-363.365 348.113-363.365 374.493-362.686 386.275-356.533 397.059-346.737 403.636-365.241 409.836-378.125 426.658-379.292 446.143-379.292 446.753-379.215 447.348-379.182 447.952-411.525 453.01-435 468.107-435 485.948-435 507.932-399.364 525.753-355.405 525.753-317.305 525.753-285.499 512.357-277.687 494.474-254.595 504.884-229.51 510.124-204.184 509.831-181.805 510.013-159.591 506.019-138.679 498.049-130.047 507.402-127.058 520.648-130.838 532.801-134.359 541.593-152.175 549.442-169.399 557.03-200.281 570.631-238.718 587.556-251.023 630.65Z" fill="#F2F2F2" fill-rule="evenodd"/><path d="M-362-364C-529.342-364-665-228.566-665-61.4998-665 105.566-529.342 241-362 241-194.658 241-59.0001 105.566-59.0001-61.4998-59.0001-228.566-194.658-364-362-364ZM-537.421-109.263C-537.421-135.642-516.002-157.026-489.579-157.026-463.157-157.026-441.737-135.642-441.737-109.263-441.737-82.8842-463.157-61.4998-489.579-61.4998-516.002-61.4998-537.421-82.8842-537.421-109.263ZM-253.821 44.2956-327.554 44.2956C-375.268 44.2956-415.854 78.9795-434.911 113.361-439.177 121.055-448.881 123.84-456.588 119.582-464.294 115.324-467.085 105.635-462.819 97.9415-440.987 58.505-392.42 12.4533-327.554 12.4533L-253.821 12.4533C-245.013 12.4533-237.874 19.5813-237.874 28.3743-237.874 37.1676-245.013 44.2956-253.821 44.2956ZM-234.421-61.4998C-260.844-61.4998-282.263-82.8842-282.263-109.263-282.263-135.642-260.844-157.026-234.421-157.026-207.999-157.026-186.579-135.642-186.579-109.263-186.579-82.8842-207.999-61.4998-234.421-61.4998Z" fill="#FFFFFF" fill-rule="evenodd"/><path d="M4614.5-473C4447.33-473 4312-337.671 4312-170.5 4312-3.3288 4447.33 132 4614.5 132 4781.67 132 4917-3.3288 4917-170.5 4917-337.671 4781.67-473 4614.5-473ZM4431.41-320.158C4430.61-328.914 4436.98-336.875 4445.74-337.671L4525.34-345.632C4534.1-346.427 4542.06-340.059 4542.86-331.303 4543.65-322.546 4537.28-314.586 4528.53-313.789L4448.92-305.829C4448.12-305.829 4448.12-305.829 4447.33-305.829 4439.37-305.829 4432.2-312.197 4431.41-320.158ZM4487.13-170.5C4460.86-170.5 4439.37-191.993 4439.37-218.263 4439.37-244.533 4460.86-266.026 4487.13-266.026 4513.4-266.026 4534.9-244.533 4534.9-218.263 4534.9-191.993 4513.4-170.5 4487.13-170.5ZM4714.01-41.5392C4711.62-32.7827 4703.66-28.0063 4694.9-29.5984 4609.72-49.4999 4553.2-6.51303 4552.41-5.71713 4549.22-3.3288 4546.04-2.53287 4542.86-2.53287 4538.08-2.53287 4533.3-4.9209 4530.12-8.90106 4524.55-16.0655 4526.14-25.6183 4533.3-31.1905 4536.49-33.5789 4603.36-84.5261 4702.86-60.6444 4710.82-59.0523 4716.4-50.2958 4714.01-41.5392ZM4741.87-170.5C4715.6-170.5 4694.11-191.993 4694.11-218.263 4694.11-244.533 4715.6-266.026 4741.87-266.026 4768.14-266.026 4789.63-244.533 4789.63-218.263 4789.63-191.993 4768.14-170.5 4741.87-170.5ZM4781.67-305.829C4780.88-305.829 4780.88-305.829 4780.08-305.829L4700.47-313.789C4691.72-314.586 4685.35-322.546 4686.14-331.303 4686.94-340.059 4694.9-346.427 4703.66-345.632L4783.26-337.671C4792.02-336.875 4798.39-328.914 4797.59-320.158 4796.8-312.197 4789.63-305.829 4781.67-305.829Z" fill="#D9D9D9" fill-rule="evenodd"/><path d="M3949.24 2668.21 3853.59 2668.21 3853.59 2596.47 3949.24 2596.47 3949.24 2668.21ZM3789.82 2668.21 3694.18 2668.21 3694.18 2596.47 3789.82 2596.47 3789.82 2668.21ZM3630.41 2668.21 3534.76 2668.21 3534.76 2596.47 3630.41 2596.47 3630.41 2668.21ZM3797.79 2508.79 3797.79 2397.21 3582.59 2508.79 3558.68 2182 3494.91 2182 3471 2508.79 3471 2724 4013 2724 4013 2508.79 4013 2397.21 3797.79 2508.79Z" fill="#F2F2F2" fill-rule="evenodd"/></g></svg>