<?xml version="1.0" encoding="UTF-8" standalone="no"?>
<!-- Generator: Adobe Illustrator 27.5.0, SVG Export Plug-In . SVG Version: 6.00 Build 0)  -->

<svg
   version="1.1"
   x="0px"
   y="0px"
   viewBox="0 0 500 500"
   style="enable-background:new 0 0 500 500;"
   xml:space="preserve"
   id="svg106"
   sodipodi:docname="night.svg"
   inkscape:version="1.4 (86a8ad7, 2024-10-11)"
   xmlns:inkscape="http://www.inkscape.org/namespaces/inkscape"
   xmlns:sodipodi="http://sodipodi.sourceforge.net/DTD/sodipodi-0.dtd"
   xmlns="http://www.w3.org/2000/svg"
   xmlns:svg="http://www.w3.org/2000/svg"><defs
   id="defs106">
	
	
	
	
	
	
	
	

		
		
		
		
		
		
		
		
		
		
		
		
		
		
		
		
		
		
		
		
		
		
		
		
		
		
		
		
		
		
		
		
		
		
		
		
		
		
		
		
		
		
		
		
		
		
		
		
		
		
		
	
		
		
	
		
		
		
		
	

		
		
	
		<linearGradient
   id="SVGID_1_"
   gradientUnits="userSpaceOnUse"
   x1="256.4762"
   y1="93.6101"
   x2="256.4762"
   y2="497.73041">
			<stop
   offset="0"
   style="stop-color:#FFFFFF"
   id="stop1" />
			<stop
   offset="1"
   style="stop-color:#FFFFFF;stop-opacity:0"
   id="stop2" />
		</linearGradient>
		
		
			<linearGradient
   id="SVGID_00000013904355010603641630000003884774628560225928_"
   gradientUnits="userSpaceOnUse"
   x1="256.4762"
   y1="-42.535099"
   x2="256.4762"
   y2="446.4386">
			<stop
   offset="0"
   style="stop-color:#FFFFFF"
   id="stop3" />
			<stop
   offset="1"
   style="stop-color:#FFFFFF;stop-opacity:0"
   id="stop4" />
		</linearGradient>
		
	
		
	</defs><sodipodi:namedview
   id="namedview106"
   pagecolor="#ffffff"
   bordercolor="#111111"
   borderopacity="1"
   inkscape:showpageshadow="0"
   inkscape:pageopacity="0"
   inkscape:pagecheckerboard="1"
   inkscape:deskcolor="#d1d1d1"
   inkscape:zoom="1.2034957"
   inkscape:cx="206.89728"
   inkscape:cy="238.05651"
   inkscape:window-width="1920"
   inkscape:window-height="1111"
   inkscape:window-x="-9"
   inkscape:window-y="122"
   inkscape:window-maximized="1"
   inkscape:current-layer="svg106" />

<rect
   x="-9.8867874"
   style="fill:#2d5b70;stroke-width:1.04321"
   width="521.60376"
   height="521.60376"
   id="rect1"
   y="-9.3477688"
   inkscape:export-filename="..\modified_svgs\night.svg"
   inkscape:export-xdpi="368.09552"
   inkscape:export-ydpi="368.09552" /><path
   style="opacity:0.21;fill:url(#SVGID_1_)"
   d="m 453.223,424.458 c 0.242,-4.016 0.365,-8.054 0.365,-12.111 0,-52.65 -20.503,-102.149 -57.732,-139.378 -37.229,-37.229 -86.728,-57.732 -139.379,-57.732 -52.65,0 -102.149,20.503 -139.379,57.732 -37.23,37.229 -57.732,86.728 -57.732,139.378 0,4.057 0.123,8.095 0.365,12.111 z"
   id="path2" /><path
   style="opacity:0.7;fill:url(#SVGID_00000013904355010603641630000003884774628560225928_)"
   d="m 400.576,424.458 c 0.331,-3.993 0.503,-8.032 0.503,-12.111 0,-79.862 -64.741,-144.602 -144.602,-144.602 -79.861,0 -144.602,64.741 -144.602,144.602 0,4.079 0.172,8.118 0.503,12.111 z"
   id="path4" /><path
   style="fill:#243a44"
   d="m 499.642,348.065 v 106.63 H 314.025 v 0 L 188.483,454.49 v 0 H 0 V 350.513 c 0.04,0 0.08,-0.003 0.12,-0.003 0.823,-0.035 1.648,-0.055 2.478,-0.055 9.65,0 18.808,2.108 27.04,5.888 8.022,-7.742 18.938,-12.5 30.96,-12.5 16.225,0 30.425,8.665 38.23,21.622 6.683,-2.438 13.897,-3.765 21.423,-3.765 20.205,0 38.175,9.575 49.625,24.438 3.425,-0.84 7.005,-1.288 10.69,-1.288 4.152,0 8.172,0.568 11.987,1.63 9.675,-4.86 29.45,-12.44 59.165,-12.788 23.353,-0.275 40.503,5.892 50.83,11.158 3.803,-1.025 7.8,-1.57 11.925,-1.57 3.78,0 7.45,0.457 10.96,1.318 11.745,-15.24 30.17,-25.06 50.893,-25.06 7.717,0 15.115,1.36 21.967,3.86 8.008,-13.288 22.57,-22.175 39.208,-22.175 12.33,0 23.525,4.88 31.75,12.82 8.442,-3.875 17.832,-6.038 27.73,-6.038 0.85,0 1.697,0.022 2.542,0.055 0.04,0 0.079,0.005 0.119,0.005 z"
   id="path5" /><g
   id="g9"
   transform="matrix(1.9556799,0,0,1.3027807,-288.94694,-101.11376)">
			<path
   style="fill:#243a44"
   d="m 385.355,303.135 v -8.376 c 0.348,1.082 0.826,2.097 1.425,2.291 1.371,0.442 0.785,-1.189 0.785,-1.189 0,0 1.293,3.179 2.354,3.488 1.061,0.31 0.942,-0.773 0.942,-0.773 0,0 1.357,1.79 2.419,2.1 1.061,0.31 0.968,-0.478 0.968,-0.478 0,0 1.729,1.672 2.658,1.761 0.929,0.088 0.704,-0.949 0.704,-0.949 0,0 2.568,1.137 3.718,0.955 1.15,-0.182 0.357,-0.805 0.357,-0.805 1.074,-0.075 1.722,-0.217 1.722,-0.217 -9.066,-3.071 -15.939,-12.309 -18.051,-15.421 v -11.686 c 0,0 0.735,4.746 2.106,5.188 1.371,0.442 0.785,-1.189 0.785,-1.189 0,0 1.293,3.179 2.354,3.488 1.061,0.31 0.942,-0.773 0.942,-0.773 0,0 1.357,1.79 2.419,2.1 1.061,0.31 0.969,-0.478 0.969,-0.478 0,0 1.729,1.672 2.657,1.761 0.929,0.088 0.704,-0.949 0.704,-0.949 0,0 2.568,1.137 3.718,0.955 1.15,-0.182 0.357,-0.805 0.357,-0.805 1.074,-0.075 1.722,-0.217 1.722,-0.217 -10.966,-3.714 -18.732,-16.463 -18.732,-16.463 v -6.647 c 0.348,1.082 0.826,2.098 1.425,2.291 1.371,0.442 0.785,-1.189 0.785,-1.189 0,0 1.293,3.179 2.354,3.488 1.061,0.309 0.942,-0.773 0.942,-0.773 0,0 1.357,1.79 2.419,2.1 1.061,0.309 0.968,-0.478 0.968,-0.478 0,0 1.729,1.672 2.658,1.76 0.929,0.089 0.704,-0.949 0.704,-0.949 0,0 2.568,1.137 3.718,0.955 1.15,-0.182 0.357,-0.805 0.357,-0.805 1.074,-0.075 1.722,-0.217 1.722,-0.217 -9.616,-3.257 -16.771,-13.459 -18.387,-15.922 -0.173,-1.479 -0.403,-2.951 -0.712,-4.41 l -0.002,0.009 c -0.524,2.476 -0.85,4.988 -0.979,7.513 -1.221,1.903 -8.555,12.788 -18.549,16.173 0,0 0.647,0.142 1.722,0.217 0,0 -0.793,0.623 0.357,0.805 1.15,0.182 3.718,-0.955 3.718,-0.955 0,0 -0.224,1.038 0.704,0.949 0.929,-0.088 2.657,-1.761 2.657,-1.761 0,0 -0.093,0.788 0.969,0.478 1.061,-0.31 2.419,-2.1 2.419,-2.1 0,0 -0.119,1.083 0.942,0.773 1.061,-0.31 2.354,-3.488 2.354,-3.488 0,0 -0.586,1.631 0.785,1.189 0.911,-0.294 1.539,-2.483 1.859,-3.922 v 8.968 c -0.899,1.423 -8.365,12.836 -18.641,16.316 0,0 0.647,0.142 1.722,0.217 0,0 -0.793,0.623 0.357,0.805 1.15,0.182 3.718,-0.955 3.718,-0.955 0,0 -0.224,1.038 0.704,0.949 0.929,-0.089 2.658,-1.761 2.658,-1.761 0,0 -0.093,0.788 0.969,0.478 1.061,-0.31 2.419,-2.1 2.419,-2.1 0,0 -0.119,1.083 0.942,0.773 1.061,-0.31 2.354,-3.488 2.354,-3.488 0,0 -0.586,1.631 0.785,1.189 1.091,-0.352 1.779,-3.43 2.014,-4.671 v 9.972 c -1.391,2.148 -8.649,12.743 -18.486,16.075 0,0 0.647,0.142 1.722,0.217 0,0 -0.793,0.623 0.357,0.805 1.15,0.182 3.718,-0.955 3.718,-0.955 0,0 -0.224,1.038 0.704,0.949 0.929,-0.088 2.657,-1.761 2.657,-1.761 0,0 -0.093,0.788 0.969,0.478 1.061,-0.31 2.419,-2.1 2.419,-2.1 0,0 -0.119,1.083 0.942,0.773 1.061,-0.31 2.354,-3.488 2.354,-3.488 0,0 -0.586,1.631 0.785,1.189 0.911,-0.294 1.539,-2.483 1.859,-3.922 v 10.697 c -0.899,1.423 -8.365,12.836 -18.641,16.316 0,0 0.647,0.142 1.722,0.217 0,0 -0.793,0.623 0.357,0.805 1.15,0.182 3.718,-0.955 3.718,-0.955 0,0 -0.224,1.038 0.704,0.949 0.929,-0.088 2.658,-1.76 2.658,-1.76 0,0 -0.093,0.788 0.969,0.478 1.061,-0.31 2.419,-2.1 2.419,-2.1 0,0 -0.119,1.083 0.942,0.773 1.061,-0.31 2.354,-3.488 2.354,-3.488 0,0 -0.586,1.631 0.785,1.189 1.091,-0.352 1.779,-3.43 2.014,-4.671 v 12.425 c -0.899,1.423 -8.365,12.836 -18.641,16.316 0,0 0.647,0.142 1.722,0.217 0,0 -0.793,0.623 0.357,0.805 1.15,0.182 3.718,-0.955 3.718,-0.955 0,0 -0.224,1.038 0.704,0.949 0.929,-0.088 2.658,-1.76 2.658,-1.76 0,0 -0.093,0.788 0.969,0.478 1.061,-0.309 2.419,-2.1 2.419,-2.1 0,0 -0.119,1.083 0.942,0.773 1.061,-0.31 2.354,-3.488 2.354,-3.488 0,0 -0.586,1.631 0.785,1.189 1.091,-0.352 1.779,-3.43 2.014,-4.671 v 28.736 h 1.045 1.047 v -33.16 c 0,0 0.735,4.746 2.106,5.188 1.371,0.442 0.785,-1.189 0.785,-1.189 0,0 1.293,3.179 2.354,3.488 1.061,0.31 0.942,-0.773 0.942,-0.773 0,0 1.357,1.79 2.419,2.1 1.061,0.31 0.969,-0.478 0.969,-0.478 0,0 1.729,1.672 2.657,1.761 0.929,0.088 0.704,-0.949 0.704,-0.949 0,0 2.568,1.137 3.718,0.955 1.15,-0.182 0.357,-0.805 0.357,-0.805 1.074,-0.076 1.722,-0.217 1.722,-0.217 -10.966,-3.715 -18.732,-16.463 -18.732,-16.463 v -12.796 c 0,0 0.735,4.746 2.106,5.188 1.371,0.442 0.785,-1.189 0.785,-1.189 0,0 1.293,3.179 2.354,3.488 1.061,0.31 0.942,-0.773 0.942,-0.773 0,0 1.357,1.79 2.419,2.1 1.061,0.31 0.969,-0.478 0.969,-0.478 0,0 1.729,1.672 2.657,1.761 0.929,0.088 0.704,-0.949 0.704,-0.949 0,0 2.568,1.137 3.718,0.955 1.15,-0.182 0.357,-0.805 0.357,-0.805 1.074,-0.076 1.722,-0.217 1.722,-0.217 -10.974,-3.714 -18.74,-16.462 -18.74,-16.462 z"
   id="path6" />
			<g
   id="g8">
				<path
   style="fill:#243a44"
   d="m 301.922,348.802 v -6.382 c 0.265,0.825 0.63,1.597 1.085,1.745 0.955,0.307 0.665,-0.703 0.61,-0.88 0.105,0.253 1.023,2.413 1.783,2.633 0.81,0.237 0.72,-0.588 0.72,-0.588 0,0 1.033,1.363 1.842,1.6 0.807,0.235 0.738,-0.365 0.738,-0.365 0,0 1.317,1.275 2.025,1.342 0.707,0.065 0.537,-0.725 0.537,-0.725 0,0 1.958,0.867 2.833,0.728 0.875,-0.138 0.272,-0.613 0.272,-0.613 0.818,-0.057 1.313,-0.165 1.313,-0.165 -6.91,-2.34 -12.147,-9.38 -13.758,-11.753 v -8.905 c 0,0 0.56,3.615 1.605,3.952 0.955,0.307 0.665,-0.702 0.608,-0.88 0.105,0.253 1.025,2.413 1.785,2.633 0.81,0.235 0.717,-0.59 0.717,-0.59 0,0 1.035,1.365 1.843,1.603 0.81,0.235 0.74,-0.365 0.74,-0.365 0,0 1.318,1.272 2.025,1.34 0.707,0.067 0.535,-0.723 0.535,-0.723 0,0 1.957,0.867 2.835,0.727 0.875,-0.14 0.27,-0.612 0.27,-0.612 0.82,-0.057 1.312,-0.168 1.312,-0.168 -8.357,-2.83 -14.275,-12.545 -14.275,-12.545 v -5.065 c 0.265,0.825 0.63,1.598 1.085,1.745 0.955,0.307 0.665,-0.702 0.61,-0.88 0.105,0.253 1.023,2.413 1.783,2.633 0.81,0.237 0.72,-0.587 0.72,-0.587 0,0 1.033,1.362 1.842,1.6 0.807,0.235 0.738,-0.365 0.738,-0.365 0,0 1.317,1.275 2.025,1.34 0.707,0.068 0.537,-0.722 0.537,-0.722 0,0 1.958,0.867 2.833,0.727 0.875,-0.137 0.272,-0.612 0.272,-0.612 0.818,-0.057 1.313,-0.168 1.313,-0.168 -7.33,-2.48 -12.78,-10.255 -14.013,-12.133 -0.132,-1.127 -0.307,-2.247 -0.542,-3.36 l -0.003,0.008 c -0.397,1.885 -0.647,3.8 -0.745,5.725 -0.93,1.45 -6.52,9.745 -14.135,12.325 0,0 0.492,0.108 1.313,0.165 0,0 -0.605,0.475 0.27,0.612 0.877,0.14 2.832,-0.727 2.832,-0.727 0,0 -0.17,0.792 0.538,0.725 0.707,-0.067 2.025,-1.342 2.025,-1.342 0,0 -0.07,0.6 0.737,0.365 0.81,-0.238 1.845,-1.6 1.845,-1.6 0,0 -0.092,0.825 0.717,0.587 0.76,-0.22 1.677,-2.38 1.783,-2.633 -0.055,0.178 -0.345,1.188 0.61,0.88 0.693,-0.223 1.172,-1.89 1.417,-2.987 v 6.763 c -0.418,0.672 -6.203,9.779 -14.25,12.505 0,0 0.493,0.108 1.312,0.165 0,0 -0.604,0.475 0.272,0.614 0.876,0.139 2.833,-0.728 2.833,-0.728 0,0 -0.171,0.791 0.537,0.724 0.708,-0.068 2.025,-1.342 2.025,-1.342 0,0 -0.071,0.6 0.738,0.364 0.809,-0.236 1.843,-1.6 1.843,-1.6 0,0 -0.091,0.825 0.718,0.589 0.809,-0.236 1.794,-2.658 1.794,-2.658 0,0 -0.446,1.243 0.598,0.906 0.917,-0.296 1.46,-3.115 1.579,-3.803 v 7.843 c -1.063,1.637 -6.592,9.71 -14.087,12.25 0,0 0.492,0.107 1.313,0.165 0,0 -0.605,0.475 0.27,0.613 0.877,0.14 2.832,-0.728 2.832,-0.728 0,0 -0.17,0.793 0.538,0.725 0.707,-0.068 2.025,-1.342 2.025,-1.342 0,0 -0.07,0.6 0.737,0.365 0.81,-0.237 1.845,-1.6 1.845,-1.6 0,0 -0.092,0.825 0.717,0.588 0.76,-0.22 1.677,-2.38 1.783,-2.633 -0.055,0.177 -0.345,1.188 0.61,0.883 0.693,-0.225 1.172,-1.893 1.417,-2.99 v 23.475 c -0.499,0.798 -6.256,9.784 -14.239,12.488 0,0 0.493,0.108 1.312,0.165 0,0 -0.604,0.475 0.272,0.614 0.876,0.139 2.833,-0.728 2.833,-0.728 0,0 -0.171,0.791 0.537,0.723 0.708,-0.067 2.025,-1.342 2.025,-1.342 0,0 -0.071,0.6 0.738,0.364 0.809,-0.236 1.843,-1.6 1.843,-1.6 0,0 -0.091,0.825 0.718,0.589 0.809,-0.236 1.794,-2.658 1.794,-2.658 0,0 -0.446,1.243 0.598,0.906 0.893,-0.288 1.431,-2.969 1.569,-3.744 v 22.084 h 1.592 v -25.27 c 0,0 0.56,3.615 1.605,3.953 0.955,0.307 0.665,-0.703 0.608,-0.88 0.105,0.253 1.025,2.413 1.785,2.633 0.81,0.235 0.717,-0.59 0.717,-0.59 0,0 1.035,1.365 1.843,1.603 0.81,0.235 0.74,-0.365 0.74,-0.365 0,0 1.318,1.272 2.025,1.34 0.707,0.068 0.535,-0.723 0.535,-0.723 0,0 1.957,0.867 2.835,0.728 0.875,-0.14 0.27,-0.613 0.27,-0.613 0.82,-0.057 1.312,-0.167 1.312,-0.167 -8.357,-2.83 -14.275,-12.545 -14.275,-12.545 v -9.75 c 0,0 0.56,3.617 1.605,3.953 0.955,0.307 0.665,-0.703 0.608,-0.88 0.105,0.253 1.025,2.413 1.785,2.633 0.81,0.237 0.717,-0.588 0.717,-0.588 0,0 1.035,1.363 1.843,1.6 0.81,0.235 0.74,-0.365 0.74,-0.365 0,0 1.318,1.275 2.025,1.342 0.707,0.065 0.535,-0.725 0.535,-0.725 0,0 1.957,0.867 2.835,0.728 0.875,-0.138 0.27,-0.612 0.27,-0.612 0.82,-0.058 1.312,-0.168 1.312,-0.168 -8.355,-2.831 -14.273,-12.546 -14.273,-12.546 z"
   id="path7" />
				<path
   style="fill:#243a44"
   d="m 298.725,361.36 c 1.045,-0.337 1.605,-3.952 1.605,-3.952 v -5.628 c 0,0 -5.917,9.715 -14.275,12.545 0,0 0.495,0.107 1.313,0.165 0,0 -0.605,0.475 0.273,0.615 0.875,0.137 2.832,-0.728 2.832,-0.728 0,0 -0.17,0.79 0.537,0.723 0.708,-0.068 2.025,-1.34 2.025,-1.34 0,0 -0.073,0.6 0.737,0.362 0.807,-0.235 1.842,-1.6 1.842,-1.6 0,0 -0.09,0.825 0.718,0.59 0.758,-0.22 1.667,-2.352 1.782,-2.628 -0.057,0.188 -0.334,1.181 0.611,0.876 z"
   id="path8" />
			</g>
		</g><g
   id="g12"
   transform="matrix(1.7765031,0,0,1.361764,-121.38569,-124.71041)">
			<path
   style="fill:#243a44"
   d="m 125.879,303.135 v -8.376 c -0.348,1.082 -0.826,2.097 -1.425,2.291 -1.371,0.442 -0.785,-1.189 -0.785,-1.189 0,0 -1.293,3.179 -2.354,3.488 -1.061,0.31 -0.942,-0.773 -0.942,-0.773 0,0 -1.357,1.79 -2.419,2.1 -1.061,0.31 -0.969,-0.478 -0.969,-0.478 0,0 -1.729,1.672 -2.657,1.761 -0.929,0.088 -0.704,-0.949 -0.704,-0.949 0,0 -2.568,1.137 -3.718,0.955 -1.15,-0.182 -0.357,-0.805 -0.357,-0.805 -1.074,-0.075 -1.722,-0.217 -1.722,-0.217 9.066,-3.071 15.939,-12.309 18.051,-15.421 v -11.686 c 0,0 -0.735,4.746 -2.106,5.188 -1.371,0.442 -0.785,-1.189 -0.785,-1.189 0,0 -1.293,3.179 -2.354,3.488 -1.061,0.31 -0.942,-0.773 -0.942,-0.773 0,0 -1.357,1.79 -2.419,2.1 -1.061,0.31 -0.969,-0.478 -0.969,-0.478 0,0 -1.729,1.672 -2.657,1.761 -0.929,0.088 -0.704,-0.949 -0.704,-0.949 0,0 -2.568,1.137 -3.718,0.955 -1.15,-0.182 -0.357,-0.805 -0.357,-0.805 -1.074,-0.075 -1.722,-0.217 -1.722,-0.217 10.966,-3.714 18.732,-16.463 18.732,-16.463 v -6.647 c -0.348,1.082 -0.826,2.098 -1.425,2.291 -1.371,0.442 -0.785,-1.189 -0.785,-1.189 0,0 -1.293,3.179 -2.354,3.488 -1.061,0.309 -0.942,-0.773 -0.942,-0.773 0,0 -1.357,1.79 -2.419,2.1 -1.061,0.309 -0.969,-0.478 -0.969,-0.478 0,0 -1.729,1.672 -2.657,1.76 -0.929,0.089 -0.704,-0.949 -0.704,-0.949 0,0 -2.568,1.137 -3.718,0.955 -1.15,-0.182 -0.357,-0.805 -0.357,-0.805 -1.074,-0.075 -1.722,-0.217 -1.722,-0.217 9.616,-3.257 16.771,-13.459 18.387,-15.922 0.173,-1.479 0.403,-2.951 0.712,-4.41 l 0.002,0.009 c 0.524,2.476 0.85,4.988 0.979,7.513 1.222,1.903 8.555,12.788 18.549,16.173 0,0 -0.647,0.142 -1.721,0.217 0,0 0.793,0.623 -0.357,0.805 -1.15,0.182 -3.718,-0.955 -3.718,-0.955 0,0 0.224,1.038 -0.704,0.949 -0.929,-0.088 -2.657,-1.761 -2.657,-1.761 0,0 0.093,0.788 -0.969,0.478 -1.061,-0.31 -2.419,-2.1 -2.419,-2.1 0,0 0.119,1.083 -0.942,0.773 -1.061,-0.31 -2.354,-3.488 -2.354,-3.488 0,0 0.586,1.631 -0.785,1.189 -0.911,-0.294 -1.539,-2.483 -1.859,-3.922 v 8.968 c 0.899,1.423 8.365,12.836 18.641,16.316 0,0 -0.647,0.142 -1.722,0.217 0,0 0.793,0.623 -0.357,0.805 -1.15,0.182 -3.718,-0.955 -3.718,-0.955 0,0 0.224,1.038 -0.704,0.949 -0.929,-0.089 -2.658,-1.761 -2.658,-1.761 0,0 0.093,0.788 -0.969,0.478 -1.061,-0.31 -2.419,-2.1 -2.419,-2.1 0,0 0.119,1.083 -0.942,0.773 -1.061,-0.31 -2.354,-3.488 -2.354,-3.488 0,0 0.586,1.631 -0.785,1.189 -1.091,-0.352 -1.779,-3.43 -2.014,-4.671 v 9.972 c 1.391,2.148 8.648,12.743 18.486,16.075 0,0 -0.647,0.142 -1.721,0.217 0,0 0.793,0.623 -0.357,0.805 -1.15,0.182 -3.718,-0.955 -3.718,-0.955 0,0 0.224,1.038 -0.704,0.949 -0.929,-0.088 -2.657,-1.761 -2.657,-1.761 0,0 0.093,0.788 -0.969,0.478 -1.061,-0.31 -2.419,-2.1 -2.419,-2.1 0,0 0.119,1.083 -0.942,0.773 -1.061,-0.31 -2.354,-3.488 -2.354,-3.488 0,0 0.586,1.631 -0.785,1.189 -0.911,-0.294 -1.539,-2.483 -1.859,-3.922 v 10.697 c 0.899,1.423 8.365,12.836 18.641,16.316 0,0 -0.647,0.142 -1.722,0.217 0,0 0.793,0.623 -0.357,0.805 -1.15,0.182 -3.718,-0.955 -3.718,-0.955 0,0 0.224,1.038 -0.704,0.949 -0.929,-0.088 -2.658,-1.76 -2.658,-1.76 0,0 0.093,0.788 -0.969,0.478 -1.061,-0.31 -2.419,-2.1 -2.419,-2.1 0,0 0.119,1.083 -0.942,0.773 -1.061,-0.31 -2.354,-3.488 -2.354,-3.488 0,0 0.586,1.631 -0.785,1.189 -1.091,-0.352 -1.779,-3.43 -2.014,-4.671 v 12.425 c 0.899,1.423 8.365,12.836 18.641,16.316 0,0 -0.647,0.142 -1.722,0.217 0,0 0.793,0.623 -0.357,0.805 -1.15,0.182 -3.718,-0.955 -3.718,-0.955 0,0 0.224,1.038 -0.704,0.949 -0.929,-0.088 -2.658,-1.76 -2.658,-1.76 0,0 0.093,0.788 -0.969,0.478 -1.061,-0.309 -2.419,-2.1 -2.419,-2.1 0,0 0.119,1.083 -0.942,0.773 -1.061,-0.31 -2.354,-3.488 -2.354,-3.488 0,0 0.586,1.631 -0.785,1.189 -1.091,-0.352 -1.779,-3.43 -2.014,-4.671 v 28.736 h -1.045 -1.047 v -33.16 c 0,0 -0.735,4.746 -2.106,5.188 -1.371,0.442 -0.785,-1.189 -0.785,-1.189 0,0 -1.293,3.179 -2.354,3.488 -1.061,0.31 -0.942,-0.773 -0.942,-0.773 0,0 -1.357,1.79 -2.419,2.1 -1.061,0.31 -0.969,-0.478 -0.969,-0.478 0,0 -1.729,1.672 -2.657,1.761 -0.929,0.088 -0.704,-0.949 -0.704,-0.949 0,0 -2.568,1.137 -3.718,0.955 -1.15,-0.182 -0.357,-0.805 -0.357,-0.805 -1.074,-0.076 -1.722,-0.217 -1.722,-0.217 10.966,-3.715 18.732,-16.463 18.732,-16.463 v -12.796 c 0,0 -0.735,4.746 -2.106,5.188 -1.371,0.442 -0.785,-1.189 -0.785,-1.189 0,0 -1.293,3.179 -2.354,3.488 -1.061,0.31 -0.942,-0.773 -0.942,-0.773 0,0 -1.357,1.79 -2.419,2.1 -1.061,0.31 -0.969,-0.478 -0.969,-0.478 0,0 -1.729,1.672 -2.657,1.761 -0.929,0.088 -0.704,-0.949 -0.704,-0.949 0,0 -2.568,1.137 -3.718,0.955 -1.15,-0.182 -0.357,-0.805 -0.357,-0.805 -1.074,-0.076 -1.722,-0.217 -1.722,-0.217 10.972,-3.714 18.738,-16.462 18.738,-16.462 z"
   id="path9" />
			<g
   id="g11">
				<path
   style="fill:#243a44"
   d="m 209.312,348.802 v -6.382 c -0.265,0.825 -0.63,1.597 -1.085,1.745 -0.955,0.307 -0.665,-0.703 -0.61,-0.88 -0.105,0.253 -1.022,2.413 -1.783,2.633 -0.81,0.237 -0.72,-0.588 -0.72,-0.588 0,0 -1.032,1.363 -1.842,1.6 -0.807,0.235 -0.737,-0.365 -0.737,-0.365 0,0 -1.318,1.275 -2.025,1.342 -0.708,0.065 -0.537,-0.725 -0.537,-0.725 0,0 -1.958,0.867 -2.833,0.728 -0.875,-0.138 -0.273,-0.613 -0.273,-0.613 -0.817,-0.057 -1.313,-0.165 -1.313,-0.165 6.91,-2.34 12.148,-9.38 13.758,-11.753 v -8.905 c 0,0 -0.56,3.615 -1.605,3.952 -0.955,0.307 -0.665,-0.702 -0.608,-0.88 -0.105,0.253 -1.025,2.413 -1.785,2.633 -0.81,0.235 -0.717,-0.59 -0.717,-0.59 0,0 -1.035,1.365 -1.843,1.603 -0.81,0.235 -0.74,-0.365 -0.74,-0.365 0,0 -1.318,1.272 -2.025,1.34 -0.707,0.067 -0.535,-0.723 -0.535,-0.723 0,0 -1.958,0.867 -2.835,0.727 -0.875,-0.14 -0.27,-0.612 -0.27,-0.612 -0.82,-0.057 -1.313,-0.168 -1.313,-0.168 8.358,-2.83 14.275,-12.545 14.275,-12.545 v -5.065 c -0.265,0.825 -0.63,1.598 -1.085,1.745 -0.955,0.307 -0.665,-0.702 -0.61,-0.88 -0.105,0.253 -1.022,2.413 -1.783,2.633 -0.81,0.237 -0.72,-0.587 -0.72,-0.587 0,0 -1.032,1.362 -1.842,1.6 -0.807,0.235 -0.737,-0.365 -0.737,-0.365 0,0 -1.318,1.275 -2.025,1.34 -0.708,0.068 -0.537,-0.722 -0.537,-0.722 0,0 -1.958,0.867 -2.833,0.727 -0.875,-0.137 -0.273,-0.612 -0.273,-0.612 -0.817,-0.057 -1.313,-0.168 -1.313,-0.168 7.33,-2.48 12.78,-10.255 14.012,-12.133 0.133,-1.127 0.308,-2.247 0.543,-3.36 l 0.003,0.008 c 0.397,1.885 0.647,3.8 0.745,5.725 0.93,1.45 6.52,9.745 14.135,12.325 0,0 -0.492,0.108 -1.313,0.165 0,0 0.605,0.475 -0.27,0.612 -0.878,0.14 -2.833,-0.727 -2.833,-0.727 0,0 0.17,0.792 -0.538,0.725 -0.708,-0.067 -2.025,-1.342 -2.025,-1.342 0,0 0.07,0.6 -0.738,0.365 -0.81,-0.238 -1.845,-1.6 -1.845,-1.6 0,0 0.092,0.825 -0.717,0.587 -0.76,-0.22 -1.678,-2.38 -1.783,-2.633 0.055,0.178 0.345,1.188 -0.61,0.88 -0.693,-0.223 -1.173,-1.89 -1.417,-2.987 v 6.763 c 0.418,0.672 6.203,9.779 14.25,12.505 0,0 -0.493,0.108 -1.312,0.165 0,0 0.604,0.475 -0.272,0.614 -0.876,0.139 -2.833,-0.728 -2.833,-0.728 0,0 0.171,0.791 -0.537,0.724 -0.708,-0.068 -2.025,-1.342 -2.025,-1.342 0,0 0.071,0.6 -0.738,0.364 -0.809,-0.236 -1.843,-1.6 -1.843,-1.6 0,0 0.091,0.825 -0.718,0.589 -0.809,-0.236 -1.794,-2.658 -1.794,-2.658 0,0 0.446,1.243 -0.598,0.906 -0.917,-0.296 -1.46,-3.115 -1.579,-3.803 v 7.843 c 1.063,1.637 6.592,9.71 14.087,12.25 0,0 -0.492,0.107 -1.313,0.165 0,0 0.605,0.475 -0.27,0.613 -0.878,0.14 -2.833,-0.728 -2.833,-0.728 0,0 0.17,0.793 -0.538,0.725 -0.708,-0.068 -2.025,-1.342 -2.025,-1.342 0,0 0.07,0.6 -0.738,0.365 -0.81,-0.237 -1.845,-1.6 -1.845,-1.6 0,0 0.092,0.825 -0.717,0.588 -0.76,-0.22 -1.678,-2.38 -1.783,-2.633 0.055,0.177 0.345,1.188 -0.61,0.883 -0.693,-0.225 -1.173,-1.893 -1.417,-2.99 v 23.475 c 0.499,0.798 6.256,9.784 14.239,12.488 0,0 -0.493,0.108 -1.312,0.165 0,0 0.604,0.475 -0.272,0.614 -0.876,0.139 -2.833,-0.728 -2.833,-0.728 0,0 0.171,0.791 -0.537,0.723 -0.708,-0.067 -2.025,-1.342 -2.025,-1.342 0,0 0.071,0.6 -0.738,0.364 -0.809,-0.236 -1.843,-1.6 -1.843,-1.6 0,0 0.091,0.825 -0.718,0.589 -0.809,-0.236 -1.794,-2.658 -1.794,-2.658 0,0 0.446,1.243 -0.598,0.906 -0.893,-0.288 -1.431,-2.969 -1.569,-3.744 v 22.084 h -1.592 v -25.27 c 0,0 -0.56,3.615 -1.605,3.953 -0.955,0.307 -0.665,-0.703 -0.608,-0.88 -0.105,0.253 -1.025,2.413 -1.785,2.633 -0.81,0.235 -0.717,-0.59 -0.717,-0.59 0,0 -1.035,1.365 -1.843,1.603 -0.81,0.235 -0.74,-0.365 -0.74,-0.365 0,0 -1.318,1.272 -2.025,1.34 -0.707,0.068 -0.535,-0.723 -0.535,-0.723 0,0 -1.958,0.867 -2.835,0.728 -0.875,-0.14 -0.27,-0.613 -0.27,-0.613 -0.82,-0.057 -1.313,-0.167 -1.313,-0.167 8.358,-2.83 14.275,-12.545 14.275,-12.545 v -9.75 c 0,0 -0.56,3.617 -1.605,3.953 -0.955,0.307 -0.665,-0.703 -0.608,-0.88 -0.105,0.253 -1.025,2.413 -1.785,2.633 -0.81,0.237 -0.717,-0.588 -0.717,-0.588 0,0 -1.035,1.363 -1.843,1.6 -0.81,0.235 -0.74,-0.365 -0.74,-0.365 0,0 -1.318,1.275 -2.025,1.342 -0.707,0.065 -0.535,-0.725 -0.535,-0.725 0,0 -1.958,0.867 -2.835,0.728 -0.875,-0.138 -0.27,-0.612 -0.27,-0.612 -0.82,-0.058 -1.313,-0.168 -1.313,-0.168 8.362,-2.831 14.28,-12.546 14.28,-12.546 z"
   id="path10" />
				<path
   style="fill:#243a44"
   d="m 212.509,361.36 c -1.045,-0.337 -1.605,-3.952 -1.605,-3.952 v -5.628 c 0,0 5.917,9.715 14.275,12.545 0,0 -0.495,0.107 -1.313,0.165 0,0 0.605,0.475 -0.273,0.615 -0.875,0.137 -2.833,-0.728 -2.833,-0.728 0,0 0.17,0.79 -0.537,0.723 -0.707,-0.067 -2.025,-1.34 -2.025,-1.34 0,0 0.073,0.6 -0.737,0.362 -0.808,-0.235 -1.842,-1.6 -1.842,-1.6 0,0 0.09,0.825 -0.717,0.59 -0.758,-0.22 -1.668,-2.352 -1.783,-2.628 0.058,0.188 0.335,1.181 -0.61,0.876 z"
   id="path11" />
			</g>
		</g><path
   style="fill:#1f1823"
   d="m 329.672,422.1 c 0,2.783 0.337,5.489 0.973,8.074 0.47,1.925 1.108,3.783 1.895,5.561 0.688,1.558 1.49,3.056 2.4,4.478 0.145,0.23 0.295,0.458 0.447,0.685 0.02,0.033 0.043,0.065 0.065,0.098 h 164.566 v -78.619 c -0.03,0 -0.06,-0.003 -0.09,-0.003 -0.622,-0.025 -1.247,-0.04 -1.875,-0.04 -7.3,0 -14.228,1.593 -20.456,4.451 -6.068,-5.854 -14.326,-9.452 -23.421,-9.452 -12.273,0 -23.016,6.551 -28.921,16.349 -5.055,-1.843 -10.513,-2.846 -16.206,-2.846 -15.286,0 -28.879,7.239 -37.541,18.477 -2.59,-0.635 -5.298,-0.973 -8.085,-0.973 -16.638,0 -30.464,12.04 -33.241,27.887 -0.035,0.193 -0.068,0.388 -0.098,0.583 -0.188,1.185 -0.313,2.391 -0.37,3.613 -0.029,0.557 -0.042,1.115 -0.042,1.677 z"
   id="path13" /><path
   style="fill:#ffffff"
   d="m 329.672,422.1 c 0,2.783 0.337,5.489 0.973,8.074 0.165,-10.53 4.401,-26.354 13.465,-31.223 16.703,-8.971 28.654,-2.322 28.654,-2.322 0,0 3.22,-14.192 26.328,-18.693 23.106,-4.501 28.266,5.626 28.266,5.626 0,0 4.818,-18.069 22.501,-20.252 17.683,-2.183 28.124,12 28.124,12 11.25,-8.625 22.036,-6.352 22.036,-6.352 v -6.581 c -0.03,0 -0.06,-0.003 -0.09,-0.003 -0.622,-0.025 -1.247,-0.04 -1.875,-0.04 -7.3,0 -14.228,1.593 -20.456,4.451 -6.068,-5.854 -14.326,-9.452 -23.421,-9.452 -12.273,0 -23.016,6.551 -28.921,16.349 -5.055,-1.843 -10.513,-2.846 -16.206,-2.846 -15.286,0 -28.879,7.239 -37.541,18.477 -2.59,-0.635 -5.298,-0.973 -8.085,-0.973 -16.638,0 -30.464,12.04 -33.241,27.887 -0.035,0.193 -0.068,0.388 -0.098,0.583 -0.188,1.185 -0.313,2.391 -0.37,3.613 -0.03,0.557 -0.043,1.115 -0.043,1.677 z"
   id="path14" /><path
   style="fill:#1f1823"
   d="m 170.346,422.1 c 0,2.783 -0.338,5.489 -0.973,8.074 -0.47,1.925 -1.107,3.783 -1.895,5.561 -0.688,1.558 -1.49,3.056 -2.4,4.478 -0.145,0.23 -0.295,0.458 -0.448,0.685 -0.02,0.033 -0.042,0.065 -0.065,0.098 H 0 v -78.619 c 0.03,0 0.06,-0.003 0.09,-0.003 0.622,-0.025 1.247,-0.04 1.875,-0.04 7.3,0 14.228,1.593 20.456,4.451 6.068,-5.854 14.326,-9.452 23.421,-9.452 12.273,0 23.016,6.551 28.921,16.349 5.055,-1.843 10.513,-2.846 16.206,-2.846 15.286,0 28.879,7.239 37.541,18.477 2.59,-0.635 5.298,-0.973 8.085,-0.973 16.638,0 30.464,12.04 33.241,27.887 0.035,0.193 0.068,0.388 0.098,0.583 0.188,1.185 0.313,2.391 0.37,3.613 0.03,0.557 0.042,1.115 0.042,1.677 z"
   id="path15" /><path
   style="fill:#ffffff"
   d="m 170.346,422.1 c 0,2.783 -0.338,5.489 -0.973,8.074 -0.165,-10.53 -4.401,-26.354 -13.465,-31.223 -16.703,-8.971 -28.654,-2.322 -28.654,-2.322 0,0 -3.22,-14.192 -26.328,-18.693 -23.106,-4.501 -28.266,5.626 -28.266,5.626 0,0 -4.818,-18.069 -22.501,-20.252 -17.683,-2.183 -28.124,12 -28.124,12 C 10.785,366.687 0,368.96 0,368.96 v -6.581 c 0.03,0 0.06,-0.003 0.09,-0.003 0.622,-0.025 1.247,-0.04 1.875,-0.04 7.3,0 14.228,1.593 20.456,4.451 6.068,-5.854 14.326,-9.452 23.421,-9.452 12.273,0 23.016,6.551 28.921,16.349 5.055,-1.843 10.513,-2.846 16.206,-2.846 15.286,0 28.879,7.239 37.541,18.477 2.59,-0.635 5.298,-0.973 8.085,-0.973 16.638,0 30.464,12.04 33.241,27.887 0.035,0.193 0.068,0.388 0.098,0.583 0.188,1.185 0.313,2.391 0.37,3.613 0.03,0.555 0.042,1.113 0.042,1.675 z"
   id="path16" /><path
   style="fill:#1f1823"
   d="m 500,500 0.019,-68.734 c 0,0 -86.527,-22.266 -244.038,-22.266 C 98.47,409 0.031,425.232 0.031,425.232 L 0,500 Z"
   id="path17" /><g
   id="g31">
			<g
   id="g23">
				<polygon
   style="fill:#1f1823"
   points="39.64,381.332 46.612,349.595 63.5,345.351 48.333,341.77 54.827,312.198 68.5,312.198 55.855,307.523 62.225,278.524 70.75,273.408 63.35,273.408 68.177,251.434 76.995,213.5 78.192,218.834 91.07,276.16 88.433,277.824 81.25,282.359 89.503,283.991 92.982,284.677 97.75,305.898 83,305.898 94.02,310.023 99.103,311.922 102.29,326.105 96.982,327.083 86,329.106 97.563,330.422 103.407,331.088 109.555,358.46 102.87,361.003 88.25,366.569 103.697,365.77 111.112,365.385 117.2,392.495 108.622,394.143 102,395.413 109.017,396.424 118.385,397.77 121.132,410 33.342,410 37.888,389.316 62,383.809 "
   id="polygon17" />
				<polygon
   style="fill:#ffffff"
   points="88.433,277.824 78.192,218.834 91.07,276.16 "
   id="polygon18" />
				<polygon
   style="fill:#ffffff"
   points="97.75,305.898 93.305,305.898 89.503,283.991 92.982,284.677 "
   id="polygon19" />
				<polygon
   style="fill:#ffffff"
   points="102.29,326.105 96.982,327.083 94.02,310.023 99.103,311.922 "
   id="polygon20" />
				<polygon
   style="fill:#ffffff"
   points="109.555,358.46 102.87,361.003 97.563,330.422 103.407,331.088 "
   id="polygon21" />
				<polygon
   style="fill:#ffffff"
   points="117.2,392.495 108.622,394.143 103.697,365.77 111.112,365.385 "
   id="polygon22" />
				<polygon
   style="fill:#ffffff"
   points="121.132,410 111.375,410 109.017,396.424 118.385,397.77 "
   id="polygon23" />
			</g>
			<g
   id="g30">
				<polygon
   style="fill:#1f1823"
   points="142.286,387.626 147.132,362.026 158.872,358.603 148.328,355.715 152.843,331.861 162.347,331.861 153.557,328.09 157.985,304.699 163.911,300.573 158.768,300.573 162.123,282.848 168.253,252.25 169.085,256.553 178.037,302.792 176.203,304.135 171.21,307.793 176.947,309.109 179.366,309.663 182.68,326.78 172.427,326.78 180.087,330.107 183.62,331.639 185.836,343.079 182.147,343.868 174.512,345.5 182.55,346.561 186.613,347.099 190.886,369.177 186.24,371.228 176.076,375.718 186.815,375.073 191.969,374.763 196.201,396.63 190.238,397.959 185.635,398.983 190.513,399.799 197.025,400.885 198.934,410.75 137.908,410.75 141.067,394.066 157.829,389.624 "
   id="polygon24" />
				<polygon
   style="fill:#ffffff"
   points="176.203,304.135 169.085,256.553 178.037,302.792 "
   id="polygon25" />
				<polygon
   style="fill:#ffffff"
   points="182.68,326.78 179.59,326.78 176.947,309.109 179.366,309.663 "
   id="polygon26" />
				<polygon
   style="fill:#ffffff"
   points="185.836,343.079 182.147,343.868 180.087,330.107 183.62,331.639 "
   id="polygon27" />
				<polygon
   style="fill:#ffffff"
   points="190.886,369.177 186.24,371.228 182.55,346.561 186.613,347.099 "
   id="polygon28" />
				<polygon
   style="fill:#ffffff"
   points="196.201,396.63 190.238,397.959 186.815,375.073 191.969,374.763 "
   id="polygon29" />
				<polygon
   style="fill:#ffffff"
   points="198.934,410.75 192.152,410.75 190.513,399.799 197.025,400.885 "
   id="polygon30" />
			</g>
		</g><g
   id="g45"
   inkscape:export-filename="g45.svg"
   inkscape:export-xdpi="368.09552"
   inkscape:export-ydpi="368.09552">
			<g
   id="g37">
				<polygon
   style="fill:#1f1823"
   points="472.137,381.332 465.164,349.595 448.277,345.351 463.444,341.77 456.949,312.198 443.277,312.198 455.922,307.523 449.552,278.524 441.027,273.408 448.427,273.408 443.599,251.434 434.782,213.5 433.585,218.834 420.707,276.16 423.344,277.824 430.527,282.359 422.274,283.991 418.794,284.677 414.027,305.898 428.777,305.898 417.757,310.023 412.674,311.922 409.487,326.105 414.794,327.083 425.777,329.106 414.214,330.422 408.369,331.088 402.222,358.46 408.907,361.003 423.527,366.569 408.079,365.77 400.664,365.385 394.577,392.495 403.154,394.143 409.777,395.413 402.759,396.424 393.392,397.77 390.645,410 478.434,410 473.889,389.316 449.777,383.809 "
   id="polygon31" />
				<polygon
   style="fill:#ffffff"
   points="423.344,277.824 433.585,218.834 420.707,276.16 "
   id="polygon32" />
				<polygon
   style="fill:#ffffff"
   points="414.027,305.898 418.472,305.898 422.274,283.991 418.794,284.677 "
   id="polygon33" />
				<polygon
   style="fill:#ffffff"
   points="409.487,326.105 414.794,327.083 417.757,310.023 412.674,311.922 "
   id="polygon34" />
				<polygon
   style="fill:#ffffff"
   points="402.222,358.46 408.907,361.003 414.214,330.422 408.369,331.088 "
   id="polygon35" />
				<polygon
   style="fill:#ffffff"
   points="394.577,392.495 403.154,394.143 408.079,365.77 400.664,365.385 "
   id="polygon36" />
				<polygon
   style="fill:#ffffff"
   points="390.645,410 400.402,410 402.759,396.424 393.392,397.77 "
   id="polygon37" />
			</g>
			<g
   id="g44">
				<polygon
   style="fill:#1f1823"
   points="369.491,387.626 364.645,362.026 352.905,358.603 363.449,355.715 358.934,331.861 349.43,331.861 358.22,328.09 353.792,304.699 347.865,300.573 353.01,300.573 349.654,282.848 343.524,252.25 342.692,256.553 333.74,302.792 335.574,304.135 340.566,307.793 334.83,309.109 332.411,309.663 329.097,326.78 339.35,326.78 331.689,330.107 328.156,331.639 325.941,343.079 329.63,343.868 337.265,345.5 329.227,346.561 325.164,347.099 320.891,369.177 325.538,371.228 335.701,375.718 324.962,375.073 319.808,374.763 315.576,396.63 321.539,397.959 326.142,398.983 321.264,399.799 314.752,400.885 312.842,410.75 373.869,410.75 370.71,394.066 353.948,389.624 "
   id="polygon38" />
				<polygon
   style="fill:#ffffff"
   points="335.574,304.135 342.692,256.553 333.74,302.792 "
   id="polygon39" />
				<polygon
   style="fill:#ffffff"
   points="329.097,326.78 332.187,326.78 334.83,309.109 332.411,309.663 "
   id="polygon40" />
				<polygon
   style="fill:#ffffff"
   points="325.941,343.079 329.63,343.868 331.689,330.107 328.156,331.639 "
   id="polygon41" />
				<polygon
   style="fill:#ffffff"
   points="320.891,369.177 325.538,371.228 329.227,346.561 325.164,347.099 "
   id="polygon42" />
				<polygon
   style="fill:#ffffff"
   points="315.576,396.63 321.539,397.959 324.962,375.073 319.808,374.763 "
   id="polygon43" />
				<polygon
   style="fill:#ffffff"
   points="312.842,410.75 319.625,410.75 321.264,399.799 314.752,400.885 "
   id="polygon44" />
			</g>
		</g><path
   style="fill:#ffffff;stroke-width:2.63026"
   d="M 393.36288,47.25 C 376.3951,48.349447 375.50345,49.241103 374.404,66.208881 373.30455,49.241103 372.4129,48.349447 355.44512,47.25 372.4129,46.150553 373.30455,45.258897 374.404,28.291119 375.50345,45.258897 376.39247,46.150553 393.36288,47.25 Z"
   id="path46" /><path
   style="fill:#ffffff;stroke-width:2.97583"
   d="m 165.83751,140.25028 c -19.6627,1.21444 -20.69598,2.19936 -21.97004,20.94185 -1.27407,-18.74249 -2.30735,-19.72741 -21.97005,-20.94185 19.6627,-1.21444 20.69598,-2.19936 21.97005,-20.94184 1.27406,18.74248 2.30734,19.7274 21.97004,20.94184 z"
   id="path47" /><path
   style="fill:#ffffff;stroke-width:1.6052"
   d="m 142.86029,215.236 c -10.35515,0.67097 -10.89932,1.21514 -11.57029,11.57029 -0.67097,-10.35515 -1.21514,-10.89932 -11.57029,-11.57029 10.35515,-0.67097 10.89932,-1.21514 11.57029,-11.57029 0.67097,10.35676 1.21514,10.89932 11.57029,11.57029 z"
   id="path48" /><path
   style="fill:#ffffff;stroke-width:3.11933"
   d="m 492.66815,201.305 c -20.12282,1.30388 -21.18027,2.36133 -22.48415,22.48415 -1.30388,-20.12282 -2.36133,-21.18027 -22.48415,-22.48415 20.12282,-1.30388 21.18027,-2.36133 22.48415,-22.48415 1.30388,20.12593 2.36133,21.18027 22.48415,22.48415 z"
   id="path49" /><path
   style="fill:#ffffff;stroke-width:3.35497"
   d="m 130.37325,52.311778 c -23.27784,1.303881 -24.5011,2.361334 -26.00941,22.484146 -1.50831,-20.122812 -2.73157,-21.180265 -26.009411,-22.484146 23.277841,-1.303881 24.501101,-2.361334 26.009411,-22.484146 1.50831,20.122812 2.73157,21.180265 26.00941,22.484146 z"
   id="path50" /><path
   style="fill:#ffffff;stroke-width:2.90206"
   d="m 333.76106,106.75 c -18.7212,1.21306 -19.705,2.19686 -20.91806,20.91806 -1.21306,-18.7212 -2.19686,-19.705 -20.91806,-20.91806 18.7212,-1.21306 19.705,-2.19686 20.91806,-20.918061 1.21016,18.721201 2.19396,19.705001 20.91806,20.918061 z"
   id="path51" /><path
   style="fill:#ffffff;stroke-width:3.53608"
   d="m 296.38008,144.378 c -22.81127,1.47808 -24.01,2.67681 -25.48808,25.48808 -1.47808,-22.81127 -2.67681,-24.01 -25.48808,-25.48808 22.81127,-1.47808 24.01,-2.67681 25.48808,-25.48808 1.47808,22.81127 2.67681,24.01 25.48808,25.48808 z"
   id="path52" /><path
   style="fill:#ffffff;stroke-width:3.37758"
   d="m 426.56758,229.652 c -21.78875,1.41183 -22.93375,2.55683 -24.34558,24.34558 -1.41183,-21.78875 -2.55683,-22.93375 -24.34558,-24.34558 21.78875,-1.41183 22.93375,-2.55683 24.34558,-24.34558 1.41183,21.78875 2.55683,22.93375 24.34558,24.34558 z"
   id="path53" /><path
   style="fill:#ffffff;stroke-width:2.12395"
   d="m 53.1024,190.757 c -13.701573,0.88781 -14.421591,1.60783 -15.3094,15.3094 -0.887809,-13.70157 -1.607827,-14.42159 -15.3094,-15.3094 13.701573,-0.88781 14.421591,-1.60783 15.3094,-15.3094 0.887809,13.70157 1.605703,14.42159 15.3094,15.3094 z"
   id="path54" /><path
   style="fill:#ffffff;stroke-width:3.07498"
   d="m 216.88843,191.462 c -19.83667,1.28534 -20.87909,2.32776 -22.16443,22.16443 -1.28534,-19.83667 -2.32776,-20.87909 -22.16443,-22.16443 19.83667,-1.28534 20.87909,-2.32776 22.16443,-22.16443 1.28534,19.83667 2.32468,20.87909 22.16443,22.16443 z"
   id="path55" /><path
   style="fill:#ffffff;stroke-width:2.32568"
   d="m 106.2665,161.024 c -15.002961,0.97213 -15.791366,1.76054 -16.7635,16.7635 -0.972134,-15.00296 -1.760539,-15.79137 -16.763497,-16.7635 15.002958,-0.97213 15.791363,-1.76054 16.763497,-16.7635 0.969808,15.00296 1.758214,15.79137 16.7635,16.7635 z"
   id="path56" /><path
   style="fill:#ffffff"
   d="m 40.55,241.121 c -6.451,0.418 -6.79,0.757 -7.208,7.208 -0.418,-6.451 -0.757,-6.79 -7.208,-7.208 6.451,-0.418 6.79,-0.757 7.208,-7.208 0.418,6.452 0.757,6.79 7.208,7.208 z"
   id="path57" /><path
   style="fill:#ffffff;stroke-width:3.32086"
   d="m 222.16316,49.582839 c -22.22616,1.337953 -23.39415,2.42304 -24.83432,23.07169 -1.44017,-20.64865 -2.60816,-21.733737 -24.83432,-23.07169 22.22616,-1.337953 23.39415,-2.42304 24.83432,-23.07169 1.44017,20.64865 2.60816,21.733737 24.83432,23.07169 z"
   id="path58" /><path
   style="fill:#ffffff;stroke-width:1.24958"
   d="M 78.039564,71.104 C 59.422022,72.309848 58.444848,73.287022 57.239,91.904564 56.033152,73.287022 55.055978,72.309848 36.438436,71.104 55.055978,69.898152 56.033152,68.920978 57.239,50.303436 58.444848,68.919728 59.423272,69.898152 78.039564,71.104 Z"
   id="path59" /><path
   style="fill:#ffffff"
   d="m 449.556,90.104 c -14.899,0.965 -15.681,1.747 -16.646,16.646 -0.965,-14.899 -1.747,-15.681 -16.646,-16.646 14.898,-0.965 15.681,-1.747 16.646,-16.646 0.965,14.898 1.747,15.681 16.646,16.646 z"
   id="path60" /><path
   style="fill:#ffffff;stroke-width:2.07321"
   d="m 355.77462,189.646 c -30.88873,2.00065 -32.50997,3.62189 -34.51062,34.51062 -2.00065,-30.88873 -3.62189,-32.50997 -34.51062,-34.51062 30.88665,-2.00065 32.50997,-3.62189 34.51062,-34.51062 2.00065,30.88873 3.62189,32.50997 34.51062,34.51062 z"
   id="path61" /><path
   style="fill:#ffffff"
   d="m 219.128,144.378 c -14.899,0.965 -15.681,1.747 -16.646,16.646 -0.965,-14.899 -1.747,-15.681 -16.646,-16.646 14.899,-0.965 15.681,-1.747 16.646,-16.646 0.965,14.898 1.748,15.681 16.646,16.646 z"
   id="path62" /><path
   style="fill:#ffffff;stroke-width:6.37919"
   d="m 47.864876,139.91609 c 0,6.39833 -5.186278,11.57823 -11.578222,11.57823 -6.398324,0 -11.584602,-5.18628 -11.584602,-11.57823 0,-6.39832 5.186278,-11.57822 11.584602,-11.57822 6.391944,-0.006 11.578222,5.1799 11.578222,11.57822 z"
   id="path63" /><path
   style="fill:#ffffff;stroke-width:6.7962"
   d="m 49.253574,106.75 c 0,4.16607 -3.377709,7.55057 -7.550574,7.55057 -4.166068,0 -7.550574,-3.37771 -7.550574,-7.55057 0,-4.17286 3.377709,-7.550574 7.550574,-7.550574 4.172865,0 7.550574,3.384504 7.550574,7.550574 z"
   id="path64" /><path
   style="fill:#ffffff;stroke-width:18.783"
   d="m 148.4187,63.465927 c 0,15.201122 -7.07083,27.550483 -15.79199,27.550483 -8.72116,0 -15.80621,-12.324564 -15.80621,-27.550483 0,-15.201122 7.07083,-27.550483 15.80621,-27.550483 8.72116,0 15.79199,12.349361 15.79199,27.550483 z"
   id="path65" /><path
   style="fill:#ffffff;stroke-width:7.7341"
   d="m 214.73458,95.082367 c 0,4.741002 -3.84384,8.584853 -8.59258,8.584853 -4.741,0 -8.59258,-3.843851 -8.59258,-8.584853 0,-4.741002 3.84384,-8.592582 8.59258,-8.592582 4.74874,0 8.59258,3.843846 8.59258,8.592582 z"
   id="path66" /><path
   style="fill:#ffffff;stroke-width:11.048"
   d="m 408.97634,113.958 c 0,6.77243 -5.49086,12.27434 -12.27434,12.27434 -6.77243,0 -12.27434,-5.49086 -12.27434,-12.27434 0,-6.78348 5.49086,-12.27434 12.27434,-12.27434 6.77243,0 12.27434,5.50191 12.27434,12.27434 z"
   id="path67" /><path
   style="fill:#ffffff;stroke-width:15.4101"
   d="m 482.27838,50.161991 c 0,-3.763436 -19.22398,-6.820845 -42.97352,-6.820845 -23.71085,0 -42.97351,3.051269 -42.97351,6.820845 0,3.763437 19.22398,6.820845 42.97351,6.820845 23.71086,-0.0061 42.97352,-3.057408 42.97352,-6.820845 z"
   id="path68" /><path
   style="fill:#ffffff;stroke-width:8.85645"
   d="m 443.80804,216.41536 c 0,5.429 -4.40165,9.83065 -9.83951,9.83065 -5.429,0 -9.83951,-4.40165 -9.83951,-9.83065 0,-5.429 4.40165,-9.83951 9.83951,-9.83951 5.43786,0 9.83951,4.40165 9.83951,9.83951 z"
   id="path69" /><path
   style="fill:#ffffff;stroke-width:13.0305"
   d="m 461.73682,63.390125 c 0,8.069151 -6.41078,14.624513 -14.33074,14.624513 -7.90706,0 -14.33074,-6.542199 -14.33074,-14.624513 0,-8.069152 6.41078,-14.624514 14.33074,-14.624514 7.90706,0 14.33074,6.555362 14.33074,14.624514 z"
   id="path70"
   inkscape:export-filename="path70.svg"
   inkscape:export-xdpi="368.09552"
   inkscape:export-ydpi="368.09552" /><ellipse
   style="fill:#ffffff;stroke-width:20.8165"
   cx="165.69858"
   cy="46.866409"
   id="circle70"
   rx="24.025219"
   ry="22.262587" /><path
   style="fill:#ffffff;stroke-width:14.2211"
   d="m 333.49942,43.549927 c 0,8.717512 -7.06787,15.799602 -15.7996,15.799602 -8.71751,0 -15.7996,-7.067869 -15.7996,-15.799602 0,-8.717512 7.06787,-15.799602 15.7996,-15.799602 8.73173,0 15.7996,7.08209 15.7996,15.799602 z"
   id="path71" /><path
   style="fill:#ffffff;stroke-width:6.98317"
   d="m 152.8743,161.024 c 0,4.28068 -3.47063,7.7583 -7.7583,7.7583 -4.28068,0 -7.7583,-3.47063 -7.7583,-7.7583 0,-4.28767 3.47063,-7.7583 7.7583,-7.7583 4.28068,0 7.7583,3.47063 7.7583,7.7583 z"
   id="path72" /><path
   style="fill:#ffffff;stroke-width:4.83297"
   d="m 179.66227,232.2994 c 0,2.96261 -2.40199,5.36943 -5.36943,5.36943 -2.96261,0 -5.36943,-2.40199 -5.36943,-5.36943 0,-2.96744 2.40199,-5.36943 5.36943,-5.36943 2.96744,0 5.36943,2.40682 5.36943,5.36943 z"
   id="path73" /><path
   style="fill:#ffffff;stroke-width:7.17014"
   d="m 365.10503,218.834 c 0,4.3953 -3.56356,7.96603 -7.96603,7.96603 -4.3953,0 -7.96603,-3.56356 -7.96603,-7.96603 0,-4.3953 3.56356,-7.96603 7.96603,-7.96603 4.40247,0.007 7.96603,3.57073 7.96603,7.96603 z"
   id="path74" /><path
   style="fill:#ffffff;stroke-width:7.2139"
   d="m 456.22427,274.29874 c 0,4.42212 -3.58531,8.01464 -8.01464,8.01464 -4.42212,0 -8.01464,-3.58531 -8.01464,-8.01464 0,-4.42212 3.58531,-8.01464 8.01464,-8.01464 4.42933,0.007 8.01464,3.59252 8.01464,8.01464 z"
   id="path75" /><path
   style="fill:#ffffff;stroke-width:7.40295"
   d="m 107.3674,200.195 c 0,5.08299 -3.28478,9.2124 -7.34285,9.2124 -4.051449,0 -7.342842,-4.12112 -7.342842,-9.2124 0,-5.08299 3.284783,-9.2124 7.342842,-9.2124 4.05146,0 7.34285,4.12112 7.34285,9.2124 z"
   id="path76" /><path
   style="fill:#ffffff;stroke-width:6.53428"
   d="m 49.66903,275.36377 c 0,3.6503 -3.563561,6.61579 -7.96603,6.61579 -4.395299,0 -7.96603,-2.95954 -7.96603,-6.61579 0,-3.6503 3.563561,-6.6158 7.96603,-6.6158 4.402469,0 7.96603,2.95954 7.96603,6.6158 z"
   id="path77" /><path
   style="fill:#ffffff;stroke-width:6.42064"
   d="m 468.50983,320.713 c 0,3.93585 -3.19106,7.13333 -7.13333,7.13333 -3.93585,0 -7.13333,-3.19106 -7.13333,-7.13333 0,-3.93585 3.19106,-7.13333 7.13333,-7.13333 3.93585,0 7.13333,3.19748 7.13333,7.13333 z"
   id="path78" /><path
   style="fill:#ffffff;stroke-width:8.76704"
   d="m 52.975763,38.161237 c 0,8.793339 -7.127602,15.912174 -15.920942,15.912174 -8.793339,0 -15.912174,-7.127602 -15.912174,-15.912174 0,-8.79334 7.127602,-15.920942 15.912174,-15.920942 8.79334,0.0088 15.920942,7.127602 15.920942,15.920942 z"
   id="path79" /><path
   style="fill:#ffffff;stroke-width:7.30898"
   d="m 276.94109,32.391249 c 0,7.330908 -5.9422,13.273109 -13.2658,13.273109 -7.33091,0 -13.2658,-5.942201 -13.2658,-13.273109 0,-7.330908 5.9422,-13.273109 13.2658,-13.273109 7.3236,0.0073 13.2658,5.94951 13.2658,13.273109 z"
   id="path80" /><path
   style="fill:#ffffff;stroke-width:5.69248"
   d="m 67.356677,110.42662 c 0,5.70956 -4.62799,10.33186 -10.33186,10.33186 -5.70956,0 -10.331856,-4.62799 -10.331856,-10.33186 0,-5.70956 4.627988,-10.33186 10.331856,-10.33186 5.70956,0 10.33186,4.6223 10.33186,10.33186 z"
   id="path81" /><path
   style="fill:#ffffff;stroke-width:5.80561"
   d="m 267.01418,182.4404 c 0,5.82303 -4.71996,10.53718 -10.53718,10.53718 -5.82303,0 -10.53718,-4.71996 -10.53718,-10.53718 0,-5.82302 4.71996,-10.54298 10.53718,-10.54298 5.81722,0.006 10.53718,4.72576 10.53718,10.54298 z"
   id="path82" /><path
   style="fill:#ffffff;stroke-width:2.8302"
   d="m 60.103821,159.913 c 0,2.83869 -2.300956,5.13965 -5.136821,5.13965 -2.838695,0 -5.136821,-2.30096 -5.136821,-5.13965 0,-2.83869 2.300956,-5.13965 5.136821,-5.13965 2.835865,0.003 5.136821,2.30096 5.136821,5.13965 z"
   id="path83" /><path
   style="fill:#ffffff;stroke-width:3.71001"
   d="m 41.007158,307.14623 c 0,2.66706 -4.208334,4.82889 -9.400167,4.82889 -5.191832,0 -9.394991,-2.16183 -9.394991,-4.82889 0,-2.66706 4.208335,-4.82623 9.394991,-4.82623 5.191833,-0.003 9.400167,2.15917 9.400167,4.82623 z"
   id="path84" /><path
   style="fill:#ffffff;stroke-width:5.69119"
   d="m 258.38486,106.75 c 0,5.70826 -4.62694,10.32951 -10.33521,10.32951 -5.70826,0 -10.32951,-4.62694 -10.32951,-10.32951 0,-5.70826 4.62694,-10.32951 10.32951,-10.32951 5.70827,0 10.33521,4.62125 10.33521,10.32951 z"
   id="path85" /><path
   style="fill:#ffffff;stroke-width:4.89026"
   d="m 347.55194,144.79346 c 0,4.90493 -3.97578,8.8807 -8.88071,8.8807 -4.90492,0 -8.87581,-3.97577 -8.87581,-8.8807 0,-4.90493 3.97578,-8.8807 8.87581,-8.8807 4.90982,0 8.88071,3.97577 8.88071,8.8807 z"
   id="path86" /><path
   style="fill:#ffffff;stroke-width:6.03445"
   d="m 276.65952,65.601485 c 0,6.05255 -4.906,10.958556 -10.95252,10.958556 -6.05255,0 -10.95252,-4.906006 -10.95252,-10.958556 0,-6.05255 4.906,-10.952521 10.95252,-10.952521 6.04652,-0.006 10.95252,4.899971 10.95252,10.952521 z"
   id="path87" /><path
   style="fill:#ffffff;stroke-width:3.74606"
   d="m 388.41248,151.71663 c 0,3.7573 -3.04555,6.80285 -6.80285,6.80285 -3.7573,0 -6.79911,-3.04555 -6.79911,-6.80285 0,-3.7573 3.04555,-6.79911 6.79911,-6.79911 3.7573,0 6.80285,3.04181 6.80285,6.79911 z"
   id="path88" /><path
   style="fill:#ffffff;stroke-width:6.9498"
   d="m 377.23987,90.101028 c 0,6.970652 -5.65019,12.620842 -12.62084,12.620842 -6.97066,0 -12.6139,-5.65019 -12.6139,-12.620842 0,-6.970652 5.65019,-12.613891 12.6139,-12.613891 6.97065,-0.007 12.62084,5.643239 12.62084,12.613891 z"
   id="path89" /><path
   style="fill:#ffffff;stroke-width:6.40572"
   d="m 459.565,38.599426 c 0,3.843228 -8.70625,6.954595 -19.43647,6.954595 -10.74092,0 -19.44717,-3.115198 -19.44717,-6.954595 0,-3.843227 8.70625,-6.958426 19.44717,-6.958426 10.74093,0.0038 19.43647,3.115199 19.43647,6.958426 z"
   id="path90" /><path
   style="fill:#ffffff;stroke-width:4.31907"
   d="m 390.55225,192.85988 c 0,4.33203 -3.51141,7.84344 -7.83912,7.84344 -4.33203,0 -7.83912,-3.51141 -7.83912,-7.84344 0,-4.33203 3.51141,-7.83912 7.83912,-7.83912 4.32771,0 7.83912,3.51141 7.83912,7.83912 z"
   id="path91" /><path
   style="fill:#ffffff;stroke-width:4.72171"
   d="m 485.1819,142.56014 c 0,4.73587 -3.83875,8.57462 -8.5699,8.57462 -4.73587,0 -8.5699,-3.83875 -8.5699,-8.57462 0,-4.73587 3.83875,-8.5699 8.5699,-8.5699 4.73115,0 8.5699,3.83875 8.5699,8.5699 z"
   id="path92" /><path
   style="fill:#ffffff;stroke-width:8.44341"
   d="m 358.82869,31.799983 c 0,8.468742 -6.86449,15.333236 -15.32479,15.333236 -8.46874,0 -15.32479,-6.864494 -15.32479,-15.333236 0,-8.468741 6.86449,-15.324791 15.32479,-15.324791 8.46874,0 15.32479,6.864493 15.32479,15.324791 z"
   id="path93" /><path
   style="fill:#ffffff;stroke-width:4.23716"
   d="m 486.11844,248.32738 c 0,4.24987 -3.44481,7.69468 -7.69044,7.69468 -4.24987,0 -7.69044,-3.44481 -7.69044,-7.69468 0,-4.24987 3.44481,-7.69044 7.69044,-7.69044 4.24563,0 7.69044,3.44481 7.69044,7.69044 z"
   id="path94" /><path
   style="fill:#ffffff;stroke-width:2.01891"
   d="m 448.1363,153.816 c -13.02399,0.8439 -13.7084,1.52831 -14.5523,14.5523 -0.8439,-13.02399 -1.52831,-13.7084 -14.5523,-14.5523 13.02399,-0.8439 13.7084,-1.52831 14.5523,-14.5523 0.8439,13.02399 1.52831,13.7084 14.5523,14.5523 z"
   id="path95"
   inkscape:export-filename="..\modified_svgs\night.png"
   inkscape:export-xdpi="368.09552"
   inkscape:export-ydpi="368.09552" />

</svg>
