<?xml version="1.0" encoding="UTF-8" standalone="no"?>
<!-- Generator: Adobe Illustrator 27.5.0, SVG Export Plug-In . SVG Version: 6.00 Build 0)  -->

<svg
   version="1.1"
   x="0px"
   y="0px"
   viewBox="0 0 750 500"
   style="enable-background:new 0 0 750 500;"
   xml:space="preserve"
   id="svg182"
   sodipodi:docname="owners.svg"
   inkscape:version="1.4 (86a8ad7, 2024-10-11)"
   xmlns:inkscape="http://www.inkscape.org/namespaces/inkscape"
   xmlns:sodipodi="http://sodipodi.sourceforge.net/DTD/sodipodi-0.dtd"
   xmlns="http://www.w3.org/2000/svg"
   xmlns:svg="http://www.w3.org/2000/svg"><defs
   id="defs182">
	
	

	

		
		
		
	
		
			
		
		
		
	
			
			
			
			
			
			
			
			
		
			
			
		
			
			
			
			
			
			
		
			
			
			
			
			
			
			
			
		
			
			
			
			
			
			
			
			
		
				
				
				
			
					
					
					
				
					
					
					
					
					
					
					
					
					
					
					
					
					
					
				
					
					
				
				
				
				
			
					
					
					
					
				
				
				
				
				
				
			
					
					
					
				
					
					
					
				
				
				
			
					
					
				
						
						
					
						
						
					
				
				
				
				
				
			
				
				
				
				
			
				
				
			
					
					
				
						
						
						
						
					
							
							
						
				
				
				
				
				
				
				
				
				
				
				
				
				
				
				
				
				
				
				
				
			
					
					
					
					
				
					
					
					
					
				</defs><sodipodi:namedview
   id="namedview182"
   pagecolor="#ffffff"
   bordercolor="#111111"
   borderopacity="1"
   inkscape:showpageshadow="0"
   inkscape:pageopacity="0"
   inkscape:pagecheckerboard="1"
   inkscape:deskcolor="#d1d1d1"
   inkscape:zoom="1.702"
   inkscape:cx="428.31962"
   inkscape:cy="298.17861"
   inkscape:window-width="1920"
   inkscape:window-height="1111"
   inkscape:window-x="-9"
   inkscape:window-y="122"
   inkscape:window-maximized="1"
   inkscape:current-layer="svg182" />
<rect
   style="fill:#ffffff;stroke-width:0.963896"
   width="696.82159"
   height="500"
   id="rect1"
   x="0"
   y="0"
   inkscape:export-filename="rect1.png"
   inkscape:export-xdpi="275.5368"
   inkscape:export-ydpi="275.5368" />
<circle
   transform="rotate(-45)"
   style="fill:#d1f4f6;stroke-width:0.99999"
   cx="46.250385"
   cy="286.74487"
   id="ellipse1"
   r="120.13785" /><g
   id="g2">
						<path
   style="fill:#56438c"
   d="m 234.322,272.206 c 7.684,-3.697 12.639,-11.426 15.869,-19.317 3.894,-9.512 5.833,-19.809 5.738,-30.085 l -6.851,-0.888 -48.167,13.719 -9.909,3.264 c 1.553,9.915 5.312,19.639 12.403,26.654 7.988,7.903 20.791,11.524 30.917,6.653 z"
   id="path1" />
						<path
   style="fill:#6c6fc3"
   d="m 255.93,222.803 c 0.095,10.276 -1.845,20.573 -5.738,30.085 -3.23,7.892 -8.185,15.621 -15.869,19.317 -10.126,4.871 -22.929,1.25 -30.917,-6.653 -7.091,-7.015 -10.849,-16.739 -12.403,-26.654 l -44.506,14.66 15.067,174.534 86.783,12.982 54.702,-19.08 8.99,-191.92 z"
   id="path2" />
					</g><path
   style="fill:#56438c;stroke-width:1.01821"
   d="m 278.495,250.44224 -1.378,4.88101 c -2.434,8.62055 -3.996,17.47955 -4.659,26.43496 l -6.002,80.99376 -47.245,-7.59624 -59.009,56.10769 1.362,16.35053 86.783,13.45905 54.702,-19.78113 6.098,-134.9616 z"
   id="path6" /><path
   style="fill:#f2c9ad"
   d="m 199.039,218.241 c 0.748,9.943 1.495,19.885 2.243,29.828 4.392,4.203 10.656,7.123 16.725,7.465 6.069,0.342 12.239,-1.547 17.075,-5.229 4.302,-3.275 7.49,-7.857 9.68,-12.8 2.189,-4.943 3.427,-10.256 4.316,-15.589 -7.779,-12.551 -14.715,-26.063 -19.04,-40.181 -7.177,14.474 -18.431,26.353 -30.999,36.506 z"
   id="path7" /><path
   style="fill:#472948"
   d="m 218.374,226.395 c 3.781,-3.23 5.872,-7.993 7.446,-12.71 3.306,-9.911 4.844,-20.404 4.57,-30.848 -0.116,-0.367 -0.238,-0.734 -0.351,-1.102 -7.177,14.475 -18.431,26.354 -30.999,36.507 0.248,3.304 0.497,6.607 0.745,9.911 2.192,1.24 4.664,1.988 7.179,2.119 4.109,0.213 8.282,-1.204 11.41,-3.877 z"
   id="path8" /><path
   style="fill:#f2c9ad"
   d="m 225.088,125.286 c -7.967,-11.315 -21.109,-19.14 -35.168,-20.668 -14.059,-1.528 -28.772,3.351 -38.726,13.081 -6.611,6.462 -11.099,14.929 -12.666,23.896 -2.853,16.322 3.803,32.699 11.129,47.656 4.714,9.624 9.925,19.304 17.982,26.559 8.057,7.255 19.556,11.751 30.214,9.101 6.587,-1.638 12.225,-5.794 16.958,-10.521 9.174,-9.163 15.527,-20.889 18.321,-33.345 1.273,-5.673 1.783,-11.069 0.797,-16.781 -1.027,-5.947 0.354,-12.038 -0.547,-18.077 -1.11,-7.447 -3.91,-14.674 -8.294,-20.901 z"
   id="path9" /><path
   style="fill:#6a3649"
   d="m 208.955,152.881 c -9.25,-0.129 -18.5,-0.258 -27.75,-0.386 3.417,-3.759 8.399,-6.321 13.479,-6.351 5.08,-0.029 10.809,3.019 14.271,6.737 z"
   id="path10" /><path
   style="fill:#6a3649"
   d="m 144.011,166.706 c 5.491,-2.768 10.982,-5.537 16.472,-8.305 -3.083,-2.074 -7.128,-2.462 -10.635,-1.236 -3.507,1.227 -6.293,5.853 -5.837,9.541 z"
   id="path11" /><ellipse
   style="fill:#472948"
   cx="194.89301"
   cy="168.888"
   rx="3.313"
   ry="4.6880002"
   id="ellipse11" /><path
   style="fill:#472948"
   d="m 159.941,174.631 c 0.902,2.058 0.653,4.156 -0.555,4.686 -1.208,0.529 -2.919,-0.71 -3.821,-2.768 -0.902,-2.058 -0.653,-4.156 0.555,-4.686 1.209,-0.53 2.92,0.709 3.821,2.768 z"
   id="path12" /><path
   style="fill:#eba58e"
   d="m 184.829,183.699 c -5.798,0.493 -11.494,2.147 -16.654,4.836 2.644,1.5 6.378,2.06 9.299,1.219 2.922,-0.841 5.913,-3.379 7.355,-6.055 z"
   id="path13" /><path
   style="fill:#ffffff"
   d="m 203.654,184.895 c -9.693,6.178 -20.004,11.386 -30.729,15.522 2.899,5.6 8.645,10.13 14.893,10.981 6.248,0.852 13.021,-2.134 16.07,-7.654 2.989,-5.41 1.434,-12.896 -0.234,-18.849 z"
   id="path14" /><path
   style="fill:#eba58e"
   d="m 205.828,208.381 c -2.816,2.759 -6.177,4.96 -9.833,6.437 2.053,0.911 4.908,0.87 6.803,-0.335 1.896,-1.204 2.983,-3.856 3.03,-6.102 z"
   id="path15" /><path
   style="fill:#eba7ac"
   d="m 220.913,173.172 c 0.628,2.302 -2.831,5.251 -7.727,6.586 -4.895,1.335 -9.373,0.551 -10.001,-1.752 -0.628,-2.302 2.832,-5.251 7.727,-6.586 4.896,-1.335 9.373,-0.55 10.001,1.752 z"
   id="path16" /><path
   style="fill:#eba7ac"
   d="m 163.938,189.199 c 0.19,2.379 -2.425,4.529 -5.84,4.801 -3.416,0.273 -6.339,-1.435 -6.529,-3.814 -0.19,-2.379 2.425,-4.529 5.841,-4.801 3.415,-0.272 6.338,1.435 6.528,3.814 z"
   id="path17" /><g
   id="g21">
						<path
   style="fill:#6a3649"
   d="m 236.546,173.362 c -7.171,-5.312 -11.232,-14.547 -10.301,-23.423 -5.89,-1.433 -11.967,-5.218 -15.208,-10.341 -3.241,-5.123 -4.405,-11.52 -3.177,-17.456 -6.21,-3.83 -15.582,-4.092 -22.364,-1.403 -8.605,3.412 -14.327,11.415 -20.975,17.857 -5.741,5.563 -12.579,10.197 -20.291,12.299 -7.713,2.102 -16.365,1.46 -23.135,-2.791 -6.71,-4.213 -11.029,-11.617 -12.614,-19.38 -1.585,-7.762 -0.653,-15.862 1.426,-23.507 1.035,-3.807 2.408,-7.638 4.998,-10.614 5.415,-6.223 14.746,-7.222 22.926,-6.16 8.181,1.062 16.254,3.73 24.482,3.141 6.86,-0.491 13.342,-3.222 19.592,-6.094 6.249,-2.873 12.506,-5.956 19.264,-7.234 6.758,-1.278 14.24,-0.52 19.672,3.699 6.68,5.189 8.838,14.248 9.846,22.647 8.513,2.637 15.211,9.973 18.217,18.363 3.006,8.39 2.621,17.746 0.1,26.294 -2.521,8.551 -7.266,16.859 -12.458,24.103 z"
   id="path19" />
						<path
   style="fill:#8e5a61"
   d="m 131.634,141.601 c 3.912,1.055 6.701,-3.725 3.896,-6.65 -3.475,-3.623 -6.333,-7.838 -8.38,-12.422 -1.479,-3.312 -2.532,-6.81 -3.146,-10.384 -0.726,-4.226 -6.682,-4.424 -7.809,-0.287 -0.44,1.615 -0.732,3.266 -0.842,4.945 -0.468,7.139 1.844,14.576 6.881,19.656 2.37,2.39 5.762,4.161 9.4,5.142 z"
   id="path20" />
						<path
   style="fill:#8e5a61"
   d="m 142.944,94.446 c 10.167,2.922 20.735,6.747 31.052,4.406 11.71,-2.657 20.823,-12.856 32.702,-14.606 7.611,-1.121 15.594,1.818 20.967,7.277 -1.494,-3.739 -3.642,-7.094 -6.825,-9.566 -5.432,-4.219 -12.914,-4.977 -19.672,-3.699 -6.758,1.278 -13.015,4.361 -19.264,7.234 -6.249,2.873 -12.731,5.603 -19.592,6.094 -8.228,0.589 -16.301,-2.078 -24.482,-3.141 -7.596,-0.986 -16.179,-0.189 -21.703,4.912 8.27,-3.136 18.084,-1.421 26.817,1.089 z"
   id="path21" />
					</g><g
   id="g23">
						<path
   style="fill:#f2c9ad"
   d="m 230.995,164.768 c 0.554,-3.966 2.627,-7.87 6.093,-9.876 3.466,-2.006 8.365,-1.651 11.002,1.363 2.694,3.078 2.423,7.708 1.609,11.716 -0.577,2.844 -1.373,5.7 -2.958,8.13 -1.585,2.43 -4.07,4.405 -6.945,4.791 -8.333,1.121 -9.61,-10.323 -8.801,-16.124 z"
   id="path22" />
						<path
   style="fill:#eba58e"
   d="m 245.075,158.213 c -2.189,-0.599 -4.61,0.222 -6.277,1.761 -1.668,1.539 -2.651,3.705 -3.142,5.921 -0.491,2.215 -0.529,4.503 -0.564,6.771 -0.012,0.751 -0.022,1.515 0.186,2.236 0.208,0.721 0.671,1.408 1.362,1.701 1.186,0.503 2.533,-0.3 3.377,-1.272 1.416,-1.631 2.132,-3.85 1.937,-6.001 -0.195,-2.151 -1.299,-4.205 -2.986,-5.554 0.752,-2.7 3.358,-5.025 6.107,-5.563 z"
   id="path23" />
					</g><path
   style="fill:#ffffff"
   d="m 143.54,366.257 c 0.918,-0.485 1.835,-0.97 2.753,-1.456 -0.932,0.457 -1.849,0.944 -2.753,1.456 z"
   id="path33" /><g
   id="g35">
					<path
   style="fill:#f2c9ad"
   d="m 277.455,335.343 -2.5,37.75 -21.408,-5.719 -23.117,-6.175 c -9.776,2.1 -23.151,7.389 -31.225,11.644 -1.265,0.62 -2.573,1.421 -3.898,2.374 l 50.739,24.219 27.06,12.916 c 8.619,4.114 18.618,4.202 27.308,0.239 v 0 c 10.804,-4.927 18.033,-15.385 18.823,-27.233 l 2.968,-44.515 z"
   id="path34" />
					<polygon
   style="fill:#472948"
   points="277.455,335.343 322.205,340.843 321.254,355.113 277.166,339.708 "
   id="polygon34" />
					<path
   style="fill:#eba58e"
   d="m 274.955,373.093 18.67,4.987 c -5.337,-13.32 -13.96,-12.156 -18.46,-8.156 z"
   id="path35" />
				</g><path
   style="fill:#6c6fc3"
   d="m 329.234,341.707 -53.963,-6.632 3.224,-77.875 c 0.716,-17.305 16.471,-30.045 33.544,-27.124 v 0 c 14.669,2.51 24.992,15.808 23.785,30.642 z"
   id="path36" /><path
   style="fill:#8c404c"
   d="m 198.268,375.787 c 10.857,-13.773 21.714,-27.545 32.571,-41.318 2.111,-2.678 4.351,-5.962 3.353,-9.223 -1.01,-3.301 -5.105,-4.826 -8.484,-4.117 -3.378,0.709 -6.154,3.046 -8.693,5.384 -10.212,9.399 -19.184,20.143 -26.613,31.866 2.609,5.07 5.257,12.338 7.866,17.408 z"
   id="path39" /><g
   id="g41">
				<path
   style="fill:#bd6c67"
   d="m 343.348,387.266 c 2.694,-3.368 4.948,-7.089 6.651,-11.052 -1.274,0.852 -2.548,1.704 -3.823,2.556 5.544,-19.456 5.322,-40.643 -1.869,-59.452 -1.659,22.688 -9.689,44.876 -22.933,63.372 -13.245,18.495 -31.664,33.243 -52.609,42.121 -2.646,1.121 -5.345,2.141 -8.081,3.061 0.123,-1.836 0.246,-3.673 0.368,-5.509 -1.784,2.587 -3.809,5.005 -6.026,7.232 -11.597,3.176 -23.722,4.273 -35.492,2.081 -2.68,1.982 -6.505,4.436 -9.184,6.418 22.696,11.769 50.213,13.864 74.429,5.667 1.647,-0.557 3.275,-1.166 4.886,-1.816 8.534,-0.26 16.997,-3.077 23.9,-8.111 -2.216,0.011 -4.432,0.023 -6.648,0.034 6.025,-1.717 11.772,-4.411 16.902,-8.007 -2.779,0.165 -5.557,0.329 -8.335,0.494 7.598,-6.399 14.221,-13.956 19.516,-22.353 4.017,-2.812 7.529,-6.345 10.266,-10.413 -1.802,0.566 -3.603,1.131 -5.405,1.697 0.201,-0.412 0.406,-0.822 0.602,-1.237 1.043,-2.221 2.005,-4.485 2.885,-6.783 z"
   id="path40" />
				<path
   style="fill:#a64f5a"
   d="m 350.041,352.464 c -4.816,23.067 -16.455,45.369 -32.583,61.803 1.555,-0.022 3.33,-0.439 4.885,-0.461 -2.808,3.263 -7.229,5.157 -11.521,5.495 -7.065,6.796 -15.688,12.903 -24.886,16.293 2.171,0.239 4.683,0.597 6.854,0.836 -4.984,2.786 -10.803,4.62 -16.509,4.842 1.448,0.771 2.867,1.639 4.315,2.41 -4.153,1.322 -9.164,0.885 -12.991,-1.201 -13.386,1.906 -29.33,0.842 -42.524,-2.11 3.029,-2.206 5.805,-4.755 8.284,-7.565 -4.629,0.07 -9.257,-0.279 -13.831,-1.131 -2.68,1.982 -6.505,4.436 -9.184,6.418 22.696,11.769 50.213,13.864 74.429,5.667 1.647,-0.557 3.275,-1.166 4.886,-1.816 8.534,-0.26 16.997,-3.077 23.9,-8.111 -2.216,0.011 -4.432,0.023 -6.648,0.034 6.025,-1.717 11.772,-4.411 16.902,-8.007 -2.779,0.165 -5.557,0.329 -8.335,0.494 7.598,-6.399 14.221,-13.956 19.516,-22.353 4.017,-2.812 7.529,-6.345 10.266,-10.413 -1.802,0.566 -3.603,1.131 -5.405,1.697 0.201,-0.412 0.406,-0.822 0.602,-1.237 1.045,-2.221 2.006,-4.485 2.887,-6.783 2.694,-3.368 4.948,-7.089 6.651,-11.052 -1.274,0.852 -2.548,1.704 -3.823,2.556 2.435,-8.55 3.756,-17.434 3.863,-26.305 z"
   id="path41" />
			</g><path
   style="fill:#472948"
   d="m 185.216,224.835 c 3.441,2.759 6.991,5.651 8.92,9.617 2.706,5.565 1.48,12.789 -2.91,17.149 -5.934,5.895 -16.177,5.663 -23.159,1.056 -6.981,-4.607 -11.076,-12.6 -13.123,-20.71 -0.977,-3.87 -3.877,-31.023 2.039,-29.711 2.164,0.48 5.363,4.263 7.083,5.641 2.243,1.798 4.486,3.597 6.729,5.395 4.807,3.856 9.614,7.71 14.421,11.563 z"
   id="path42" /><path
   style="fill:#f0bf6c"
   d="m 267.606,309.752 c -4.754,-0.005 -8.245,4.302 -10.884,8.256 -0.953,1.427 -1.886,2.868 -2.814,4.311 6.653,1.598 12.949,4.684 18.267,8.99 1.504,-2.133 2.78,-4.379 3.534,-6.886 1.87,-6.217 -1.61,-14.664 -8.103,-14.671 z"
   id="path43" /><path
   style="fill:#df8d6d"
   d="m 233.121,360.68 c -9.864,1.593 -25.076,7.504 -33.916,12.163 -5.25,-15.5 -10.613,-29.048 -16.997,-42.649 -8.758,-18.66 -20.515,-35.907 -34.684,-50.878 3.836,0.286 7.735,0.718 11.571,1.004 3.685,0.275 7.41,0.548 11.061,-0.029 3.651,-0.577 7.274,-2.094 9.71,-4.873 2.436,-2.779 3.448,-6.959 1.884,-10.307 -2.368,3.849 -6.692,7.453 -10.984,8.865 -4.293,1.412 -8.889,1.655 -13.403,1.44 -7.937,-0.378 -15.956,-2.209 -22.67,-6.458 -6.715,-4.249 -11.998,-11.126 -13.192,-18.982 -1.194,-7.856 3.398,-16.252 10.267,-20.246 -3.344,4.859 -3.512,11.703 -0.411,16.72 3.101,5.017 9.298,7.927 15.139,7.108 5.841,-0.819 11,-5.32 12.602,-10.996 2.643,2.633 6.507,4.284 10.416,4.667 3.33,0.326 6.691,-0.266 9.36,-1.992 5.801,-3.752 8.431,-11.746 5.992,-18.21 -1.997,-5.292 -6.68,-8.995 -10.817,-12.853 -7.573,-7.063 -13.887,-15.473 -18.556,-24.716 -4.51,-8.928 -7.895,-19.13 -16.013,-24.973 -7.326,-5.274 -17.429,-5.776 -25.862,-2.557 -8.433,3.219 -15.29,9.763 -20.271,17.291 -4.981,7.528 -8.249,16.045 -11.173,24.585 -5.625,16.433 -10.122,33.252 -13.449,50.3 -5.489,28.132 -5.762,51.87 -2.168,80.306 3.593,28.436 13.681,56.557 32.158,78.468 18.477,21.911 45.907,37.014 74.568,37.203 28.661,0.19 57.706,-16.033 69.527,-42.144 9.823,-21.698 7.893,-48.343 22.1,-67.46 2.311,-3.11 5.04,-6.014 7.265,-9.169 -5.318,-4.306 -11.614,-7.392 -18.267,-8.99 -7.867,12.249 -14.827,25.08 -20.787,38.362 z"
   id="path46" /><path
   style="fill:#984058"
   d="m 146.497,253.559 c -5.841,0.819 -12.038,-2.091 -15.139,-7.108 -3.101,-5.017 -2.933,-11.861 0.411,-16.72 -6.869,3.994 -11.461,12.39 -10.267,20.246 1.194,7.856 6.477,14.733 13.192,18.982 6.715,4.249 14.733,6.079 22.67,6.458 4.514,0.215 9.111,-0.028 13.403,-1.44 4.293,-1.412 8.617,-5.016 10.984,-8.865 -2.057,-5.356 -4.593,-3.728 -12.236,-17.881 -3.908,-0.383 -7.772,-2.034 -10.416,-4.667 -1.603,5.675 -6.761,10.176 -12.602,10.995 z"
   id="path47" /><path
   style="fill:#472948"
   d="m 130.226,197.943 c 0.986,4.048 0.181,7.72 -1.798,8.202 -1.979,0.482 -4.382,-2.409 -5.368,-6.457 -0.986,-4.048 -0.181,-7.72 1.798,-8.202 1.979,-0.482 4.382,2.409 5.368,6.457 z"
   id="path48" /><path
   style="fill:#472948"
   d="m 153.046,194.212 c 0.87,3.571 0.351,6.763 -1.158,7.131 -1.509,0.367 -3.437,-2.229 -4.307,-5.8 -0.87,-3.571 -0.351,-6.763 1.158,-7.131 1.509,-0.367 3.437,2.23 4.307,5.8 z"
   id="path49" /><g
   id="g54">
					<path
   style="fill:#a64f5a"
   d="m 103.795,382.227 c 5.844,-10.731 8.238,-23.174 7.692,-35.381 -0.654,-14.618 -5.769,-29.459 -16.272,-39.647 -8.154,-7.909 -19.827,-12.476 -30.998,-11.582 -0.211,12.52 0.611,25.113 2.34,38.795 2.904,22.982 10.056,45.755 22.445,65.213 6.068,-4.655 11.13,-10.67 14.793,-17.398 z"
   id="path50" />
					<path
   style="fill:#a64f5a"
   d="m 175.455,425.093 c -7.5,-19.75 10.5,-45.75 23.75,-52.25 -0.914,-2.699 -1.835,-5.322 -2.761,-7.913 -11.102,3.192 -38.943,28.271 -20.989,60.163 z"
   id="path51" />
					<path
   style="fill:#a64f5a"
   d="m 234.53,390.764 c -6.6,0.532 -13.259,2.539 -18.322,6.806 -7.087,5.972 -10.169,15.721 -9.874,24.984 0.203,6.354 1.81,12.539 4.034,18.521 14.095,-7.288 25.905,-18.696 32.443,-33.136 2.42,-5.346 4.125,-10.992 5.536,-16.752 -4.6,-0.495 -9.214,-0.794 -13.817,-0.423 z"
   id="path52" />
					<path
   style="fill:#a64f5a"
   d="m 142.221,377.593 c -6.189,-1.734 -13.09,3.748 -16.162,8.656 -3.21,5.13 -4.232,11.388 -3.956,17.434 0.209,4.579 1.218,9.329 4.146,12.856 4.205,5.064 11.726,6.513 18.06,4.721 6.413,-1.815 11.892,-6.671 14.465,-12.818 2.573,-6.148 2.184,-13.459 -1.025,-19.3 -3.236,-5.893 -9.142,-9.761 -15.528,-11.549 z"
   id="path53" />
					<path
   style="fill:#a64f5a"
   d="m 220.841,380.143 c 0.307,1.988 1.861,3.792 3.839,4.158 2.282,0.422 4.487,-0.996 6.203,-2.559 1.268,-1.155 2.452,-2.465 3.098,-4.054 1.64,-4.035 -1.666,-8.124 -5.836,-6.551 -3.541,1.336 -7.957,4.78 -7.304,9.006 z"
   id="path54" />
				</g><circle
   style="fill:#df8d6d"
   cx="146.685"
   cy="233.90601"
   r="1.729"
   id="circle54" /><path
   style="fill:#df8d6d"
   d="m 140.372,240.26 c 0,1.059 -0.858,1.917 -1.917,1.917 -1.059,0 -1.917,-0.858 -1.917,-1.917 0,-1.059 0.858,-1.917 1.917,-1.917 1.059,0 1.917,0.858 1.917,1.917 z"
   id="path55" /><path
   style="fill:#df8d6d"
   d="m 147.289,243.76 c 0,0.874 -0.709,1.583 -1.583,1.583 -0.874,0 -1.583,-0.709 -1.583,-1.583 0,-0.875 0.709,-1.583 1.583,-1.583 0.874,-0.001 1.583,0.708 1.583,1.583 z"
   id="path56" /><path
   style="fill:#df8d6d"
   d="m 173.587,229.902 c 0,0.796 -0.645,1.441 -1.441,1.441 -0.796,0 -1.441,-0.645 -1.441,-1.441 0,-0.796 0.645,-1.441 1.441,-1.441 0.796,0 1.441,0.646 1.441,1.441 z"
   id="path57" /><path
   style="fill:#df8d6d"
   d="m 178.122,236.593 c 0,1.151 -0.933,2.083 -2.083,2.083 -1.15,0 -2.083,-0.933 -2.083,-2.083 0,-1.15 0.933,-2.083 2.083,-2.083 1.15,0 2.083,0.932 2.083,2.083 z"
   id="path58" /><path
   style="fill:#df8d6d"
   d="m 181.751,229.157 c 0,0.772 -0.626,1.398 -1.398,1.398 -0.772,0 -1.398,-0.626 -1.398,-1.398 0,-0.772 0.626,-1.398 1.398,-1.398 0.772,0.001 1.398,0.626 1.398,1.398 z"
   id="path59" /><g
   id="g60">
					<path
   style="fill:#472948"
   d="m 157.789,231.343 c 0.75,5.167 0.457,11.908 -1.146,16.121 1.108,-1.468 2.83732,-0.33617 3.33832,-2.11017 1.336,1.331 2.10468,-0.38183 3.91268,0.41017 -5.058,-4.16 -4.439,-9.005 -6.105,-14.421 z"
   id="path60"
   sodipodi:nodetypes="ccccc" />
				</g><path
   style="fill:#a64f5a"
   d="m 160.222,338.503 c 6.57,0.552 13.035,1.965 19.574,2.803 2.536,0.325 5.102,0.556 7.664,0.621 -1.683,-3.936 -3.422,-7.835 -5.251,-11.733 -1.418,-3.021 -2.923,-6.001 -4.496,-8.945 -13.422,3.375 -26.121,9.757 -37.109,18.178 6.462,-1.162 13.076,-1.474 19.618,-0.924 z"
   id="path61" /><path
   style="fill:#df8d6d"
   d="m 220.603,286.247 c -2.381,1.734 -4.587,3.762 -6.653,5.848 -4.517,4.562 -8.691,9.572 -14.031,13.135 -5.341,3.563 -12.261,5.514 -18.247,3.193 -5.493,-2.13 -9.081,-7.294 -13.195,-11.511 -3.968,-4.066 -8.705,-7.36 -13.853,-9.755 -8.059,-3.75 -18.965,-6.224 -27.834,-4.155 -8.385,1.956 -10.667,14.8 -10.197,21.925 0.518,7.854 3.577,15.299 6.851,22.457 2.224,4.862 5.074,10.133 10.158,11.79 5.74,1.871 11.658,-1.627 17.408,-3.471 16.031,-5.14 34.561,2.574 49.89,-4.387 6.898,-3.133 12.206,-8.874 17.314,-14.469 6.05,-6.626 12.101,-13.252 18.151,-19.878 -3.476,-5.524 -9.346,-9.526 -15.762,-10.722 z"
   id="path62" /><path
   style="fill:#f0bf6c"
   d="m 241.73,287.318 c -0.274,-2.459 -2.23,-4.515 -4.539,-5.404 -2.309,-0.889 -4.901,-0.759 -7.306,-0.181 -3.387,0.815 -6.458,2.457 -9.282,4.513 6.416,1.196 12.286,5.198 15.76,10.723 0.44,-0.482 0.88,-0.964 1.32,-1.446 2.125,-2.325 4.396,-5.074 4.047,-8.205 z"
   id="path63" /><g
   id="g64">
						
					</g><path
   style="fill:#a64f5a"
   d="m 89.819,257.468 c 7.365,-12.296 10.589,-26.592 12.985,-40.723 2.019,-11.909 3.396,-24.762 -2.063,-35.537 -2.043,-1.327 -4.215,-2.452 -6.47,-3.339 -0.315,0.447 -0.623,0.897 -0.924,1.352 -4.981,7.528 -8.249,16.045 -11.173,24.585 -5.625,16.433 -10.122,33.252 -13.449,50.3 -1.705,8.74 -2.906,17.056 -3.645,25.22 10.302,-3.988 18.99,-12.259 24.739,-21.858 z"
   id="path66" /><g
   id="g68">
					<path
   style="fill:#59385b"
   d="m 103.44,189.569 c -1.082,21.704 -7.803,43.103 -19.327,61.527 -3.125,4.997 -6.721,9.898 -11.694,13.061 -5.992,3.81 -13.755,4.691 -20.448,2.319 -6.693,-2.372 -12.17,-7.944 -14.426,-14.677 -1.804,-5.385 -1.333,-11.957 2.737,-15.918 2.567,-2.498 6.129,-3.609 9.448,-4.955 14.731,-5.978 26.758,-18.306 32.37,-33.18 1.481,-3.926 2.539,-8.021 4.366,-11.798 1.763,-3.645 6.402,-10.833 11.304,-10.003 5.696,0.965 5.883,9.347 5.67,13.624 z"
   id="path67" />
					<path
   style="fill:#472948"
   d="m 97.771,175.945 c -0.054,-0.009 -0.108,-0.004 -0.162,-0.012 0.756,0.984 1.342,2.117 1.704,3.297 0.853,2.779 0.713,5.756 0.451,8.651 -1.648,18.238 -7.883,36.044 -17.971,51.327 -2.636,3.993 -5.564,7.853 -9.235,10.921 -3.672,3.068 -8.157,5.318 -12.926,5.702 -6.863,0.552 -13.895,-3.105 -17.383,-9.042 -1.836,-3.125 -2.633,-6.799 -2.427,-10.414 -3.634,3.997 -4.008,10.254 -2.276,15.424 2.256,6.733 7.733,12.305 14.426,14.677 6.693,2.372 14.456,1.491 20.448,-2.319 4.973,-3.163 8.569,-8.064 11.694,-13.061 11.524,-18.424 18.245,-39.823 19.327,-61.527 0.212,-4.277 0.025,-12.659 -5.67,-13.624 z"
   id="path68" />
				</g><path
   style="fill:#a64f5a"
   d="m 110.658,170.573 c 3.18,1.48 6.84,1.346 10.345,1.243 3.506,-0.102 7.197,-0.099 10.265,1.601 2.666,1.477 4.565,4.087 7.237,5.554 2.929,1.608 6.672,1.626 9.617,0.047 0.634,-0.34 1.217,-0.764 1.76,-1.235 -2.648,-5.157 -5.745,-9.944 -10.401,-13.296 -7.326,-5.274 -17.429,-5.776 -25.862,-2.557 -2.619,1 -5.085,2.321 -7.391,3.891 0.719,2.028 2.433,3.823 4.43,4.752 z"
   id="path69" /><g
   id="g72">
					<path
   style="fill:#472948"
   d="m 151.522,223.565 c -1.389,-0.465 -2.932,-0.266 -4.3,0.258 -0.702,0.269 -1.366,0.619 -2.01,1.006 3.351,1.637 6.96,2.832 10.593,3.435 -0.316,-0.723 -0.666,-1.428 -1.105,-2.082 -0.777,-1.162 -1.853,-2.173 -3.178,-2.617 z"
   id="path70" />
					<path
   style="fill:#472948"
   d="m 168.841,221.14 c -1.689,-0.385 -3.55,-0.06 -4.941,0.983 -1.63,1.222 -2.497,3.339 -2.312,5.358 2.7,-1.305 5.141,-3.751 7.253,-6.341 z"
   id="path71" />
					<path
   style="fill:#59385b"
   d="m 163.9,222.122 c 1.391,-1.043 3.252,-1.368 4.941,-0.983 0.321,-0.394 0.637,-0.789 0.943,-1.185 0.967,-1.254 0.185,-3.109 -1.395,-3.224 -8.055,-0.588 -16.256,0.878 -23.611,4.215 -1.542,0.7 -1.601,2.865 -0.09,3.63 0.173,0.088 0.35,0.168 0.525,0.253 0.645,-0.387 1.309,-0.738 2.01,-1.006 1.368,-0.524 2.911,-0.723 4.3,-0.258 1.325,0.444 2.401,1.456 3.178,2.617 0.438,0.655 0.789,1.36 1.105,2.082 0.23,0.038 0.459,0.082 0.689,0.116 1.781,0.258 3.482,-0.121 5.094,-0.9 -0.186,-2.018 0.681,-4.134 2.311,-5.357 z"
   id="path72" />
				</g><g
   id="g75">
					<path
   style="fill:#cc6164"
   d="m 164.785,275.231 c -0.564,-2.958 -1.582,-5.798 -3.186,-8.362 -2.937,-4.692 -7.736,-8.183 -13.105,-9.531 -5.369,-1.348 -11.248,-0.539 -16.053,2.21 -1.696,0.97 -3.292,2.218 -4.3,3.887 1.919,2.128 4.141,3.997 6.553,5.523 1.54,0.975 3.156,1.808 4.817,2.54 0,0 0,0 0,0 l -0.007,0.012 c 0.178,5.162 4.135,9.459 4.27,14.622 0.071,2.694 -0.199,5.402 0.115,8.079 0.314,2.677 1.308,5.417 3.407,7.107 2.261,1.82 5.531,2.104 8.251,1.093 2.72,-1.011 4.906,-3.178 6.362,-5.688 1.455,-2.511 2.237,-5.357 2.755,-8.212 0.79,-4.361 0.947,-8.948 0.121,-13.28 z"
   id="path73" />
					<g
   id="g74">
						<path
   style="fill:#a34262"
   d="m 155.412,289.909 c 1.145,-1.936 2.104,-4.429 2.568,-7.219 0.474,-2.785 0.455,-5.85 -0.107,-8.818 -0.568,-2.967 -1.677,-5.824 -3.141,-8.241 -1.457,-2.424 -3.265,-4.39 -5.041,-5.77 1.257,1.872 2.547,4.062 3.616,6.511 1.074,2.444 1.931,5.138 2.462,7.9 0.521,2.763 0.714,5.584 0.613,8.252 -0.094,2.671 -0.489,5.182 -0.97,7.385 z"
   id="path74" />
					</g>
				</g><g
   id="g77">
				<path
   style="fill:#f2c9ad"
   d="m 66.431,327.342 c -0.078,3.185 -0.208,6.96 0.529,10.06 -6.601,-3.938 -13.204,-12.525 -14.247,-20.14 -1.042,-7.615 0.856,-15.443 4.391,-22.268 3.535,-6.825 8.639,-12.726 14.201,-18.031 7.134,-6.805 15.1,-12.737 23.664,-17.623 1.886,-1.076 4.522,-2.006 5.993,-0.409 0.904,0.982 0.859,2.562 0.254,3.751 -0.605,1.189 -1.658,2.078 -2.683,2.932 -5.393,4.496 -10.786,8.992 -16.179,13.488 6.66,-3.842 13.862,-6.985 20.941,-9.985 1.176,-0.499 2.394,-0.993 3.671,-1.011 1.278,-0.018 2.645,0.547 3.219,1.689 0.525,1.045 0.273,2.346 -0.347,3.337 -0.62,0.991 -1.557,1.736 -2.481,2.452 -7.292,5.647 -14.974,10.79 -22.974,15.379 6.468,-3.452 13.373,-5.956 20.353,-8.201 2.012,-0.647 4.535,-1.123 5.973,0.427 1.072,1.156 0.996,3.04 0.233,4.42 -0.763,1.38 -2.068,2.366 -3.355,3.276 -6.751,4.775 -14.115,8.683 -21.853,11.597 4.1,-1.344 8.382,-2.203 12.482,-3.547 1.311,-0.43 2.661,-0.865 4.038,-0.78 1.377,0.085 2.806,0.814 3.309,2.098 0.535,1.366 -0.133,2.968 -1.22,3.954 -1.087,0.986 -2.515,1.49 -3.901,1.971 -6.759,2.343 -13.518,4.687 -20.277,7.03 -3.46,8.635 -13.734,14.134 -13.734,14.134 z"
   id="path76" />
				<path
   style="fill:#eba58e"
   d="m 104.992,302.289 c -1.727,1.517 -3.955,2.314 -6.141,3.023 -6.501,2.108 -13.525,4.035 -20.267,5.154 -1.05,2.328 -2.284,4.607 -4.005,6.493 -1.721,1.887 -3.975,3.368 -6.492,3.798 -3.584,0.612 -7.322,-1.025 -9.785,-3.699 -2.463,-2.674 -3.765,-6.256 -4.257,-9.858 -0.171,-1.251 -0.247,-2.509 -0.266,-3.77 -1.243,4.508 -1.699,9.208 -1.066,13.831 1.042,7.615 7.646,16.203 14.247,20.14 -0.737,-3.099 -0.607,-6.875 -0.529,-10.06 0,0 10.275,-5.499 13.733,-14.133 6.759,-2.343 13.518,-4.687 20.278,-7.03 1.386,-0.481 2.814,-0.985 3.901,-1.971 0.759,-0.688 1.303,-1.677 1.386,-2.675 -0.232,0.269 -0.474,0.526 -0.737,0.757 z"
   id="path77" />
			</g><path
   style="fill:#f2c9ad"
   d="m 191.085,350.689 c 0,0 0,0 0,0 -19.942,-4.251 -41.84,0.115 -58.584,11.75 -3.46,2.404 -6.791,5.185 -8.701,8.989 -0.447,0.89 -0.466,1.983 0.114,2.792 1.101,1.535 3.05,0.799 4.508,0.029 5.039,-2.664 10.079,-5.328 15.118,-7.992 -6.222,3.524 -11.783,8.274 -16.949,13.216 -1.417,1.355 -2.838,2.847 -3.016,4.922 -0.084,0.969 0.218,1.974 0.919,2.647 1.734,1.665 4.236,0.505 6.133,-0.652 7.834,-4.776 15.669,-9.551 23.503,-14.327 -5.419,4.72 -10.637,10.018 -16.056,14.739 -0.894,0.779 -1.803,1.575 -2.413,2.592 -0.61,1.017 -0.883,2.309 -0.42,3.4 0.626,1.477 2.431,2.162 4.025,1.983 1.594,-0.179 3.023,-1.031 4.38,-1.887 6.441,-4.061 12.546,-8.655 18.232,-13.721 -3.563,3.931 -6.403,8.859 -9.137,13.406 -0.543,0.903 -1.081,1.853 -1.187,2.902 -0.105,1.049 0.337,2.226 1.298,2.661 1.307,0.592 2.757,-0.387 3.825,-1.345 4.682,-4.203 8.702,-9.143 11.865,-14.582 2.689,0.03 5.392,-0.122 8.062,-0.473 6.548,-0.86 12.891,-2.947 18.307,-6.712 l 0.398,0.19 c 1.325,-0.953 2.633,-1.754 3.898,-2.374 8.073,-4.255 21.449,-9.543 31.225,-11.644 z"
   id="path78" /><path
   style="fill:#d1f4f6"
   d="m 78.128,155.718 c 6.063,-5.256 9.902,-13.008 9.902,-21.662 0,-15.832 -12.835,-28.667 -28.667,-28.667 -15.832,0 -28.667,12.834 -28.667,28.667 0,15.832 12.835,28.667 28.667,28.667 2.759,0 5.424,-0.398 7.949,-1.125 7.264,8.36 19.899,10.703 19.899,10.703 -4.956,-4.635 -7.699,-11.759 -9.083,-16.583 z"
   id="path87" /><path
   style="fill:#cc6164"
   d="m 72.333,124.182 c -3.576,-3.141 -9.055,-2.742 -12.42,0.623 l -0.549,0.549 -0.549,-0.549 c -3.366,-3.366 -8.844,-3.765 -12.42,-0.623 -3.919,3.442 -4.063,9.416 -0.434,13.045 l 0.765,0.765 8.844,8.844 c 2.096,2.096 5.493,2.096 7.589,0 l 8.844,-8.844 0.765,-0.765 c 3.628,-3.629 3.484,-9.603 -0.435,-13.045 z"
   id="path88" /><circle
   style="fill:#fbeed1"
   cx="516.50702"
   cy="178.57899"
   r="137.297"
   id="circle89" /><path
   style="fill:#472948"
   d="m 477.559,99.289 c -5.343,5.272 -7.075,13.189 -7.507,20.683 -0.432,7.494 0.17,15.121 -1.575,22.421 -6.166,25.789 -38.753,38.869 -44.099,64.84 -1.854,9.004 -0.087,18.524 -2.434,27.412 -5.121,19.388 -28.094,30.525 -31.777,50.236 -2.395,12.821 4.496,25.973 14.378,34.485 9.882,8.512 22.385,13.248 34.665,17.642 12.28,4.394 24.859,8.735 35.216,16.663 10.135,7.757 17.589,18.543 27.506,26.576 17.74,14.37 42.353,18.626 64.779,14.35 22.426,-4.276 42.79,-16.37 59.902,-31.482 13.717,-12.113 26.492,-29.512 21.955,-47.24 -3.077,-12.023 -13.785,-21.936 -13.377,-34.34 0.356,-10.796 9.293,-20.573 7.322,-31.193 -2.327,-12.538 -17.464,-17.263 -26.677,-26.082 -11.341,-10.857 -13.4,-28.252 -12.007,-43.89 1.393,-15.638 5.528,-31.215 3.868,-46.827 -2.534,-23.829 -19.72,-45.484 -42.351,-53.363 -15.649,-5.448 -33.344,-4.115 -48.295,2.865 -6.456,3.014 -12.843,7.736 -17.343,13.069 -7.5,-1.998 -15.924,-2.968 -22.149,3.175 z"
   id="path89" /><path
   style="fill:#e68799"
   d="m 593.375,257.295 -43.348,-11.132 c -5.93,8.025 -15.517,13.381 -25.521,13.772 -11.157,0.437 -22.283,-5.316 -28.638,-14.452 l -65.992,11.811 -6,151.975 h 177 z"
   id="path103" /><path
   style="fill:#d1527d"
   d="m 475.208,249.256 56.917,51.526 7.25,-8 20.667,15.342 4.578,0.719 c 6.872,1.079 13.007,4.912 16.99,10.614 l 6.515,9.325 c -4.25,-32 5.942,-57.459 5.942,-57.459 l 6.808,137.946 h -177 l 6,-151.975 z"
   id="path104" /><g
   id="g109"
   transform="translate(-50)">
						<path
   style="fill:#bd6c67"
   d="m 573.91846,261.40386 c 10.004,-0.392 20.17854,-7.21586 26.10854,-15.24086 l -4.402,-1.13 -2.25,-33.037 h -40.417 l -3.917,32.92 -3.174,0.568 c 6.356,9.135 16.89446,16.35686 28.05146,15.91986 z"
   id="path108"
   sodipodi:nodetypes="cccccccc" />
						<path
   style="fill:#472948"
   d="m 552.369,216.947 c 9.256,24.211 34.381,21.94 41.318,-0.362 l -0.313,-4.589 h -40.417 z"
   id="path109" />
					</g><g
   id="g111"
   transform="translate(-50)">
							<path
   style="fill:#a64f5a"
   d="m 612.152,181.09 c 2.054,-3.438 5.483,-6.227 9.456,-6.726 3.974,-0.499 8.348,1.735 9.604,5.537 1.283,3.884 -0.768,8.043 -3.077,11.419 -1.639,2.395 -3.483,4.716 -5.889,6.338 -2.406,1.622 -5.463,2.473 -8.263,1.71 -8.111,-2.211 -4.834,-13.25 -1.831,-18.278 z"
   id="path110" />
							<path
   style="fill:#8c404c"
   d="m 627.673,180.532 c -1.783,-1.404 -4.333,-1.59 -6.468,-0.821 -2.135,0.769 -3.884,2.381 -5.198,4.231 -1.315,1.85 -2.24,3.942 -3.155,6.018 -0.303,0.687 -0.61,1.387 -0.699,2.132 -0.089,0.745 0.07,1.558 0.593,2.097 0.897,0.925 2.45,0.709 3.606,0.142 1.939,-0.951 3.463,-2.717 4.12,-4.774 0.657,-2.057 0.44,-4.379 -0.589,-6.279 1.743,-2.193 5.048,-3.32 7.79,-2.746 z"
   id="path111" />
						</g><g
   id="g113"
   transform="translate(-50)">
							<path
   style="fill:#a64f5a"
   d="m 537.097,179.047 c -2.054,-3.438 -5.483,-6.227 -9.456,-6.726 -3.973,-0.499 -8.348,1.735 -9.604,5.537 -1.283,3.884 0.768,8.043 3.077,11.419 1.639,2.395 3.483,4.716 5.889,6.338 2.406,1.622 5.463,2.473 8.263,1.711 8.112,-2.212 4.835,-13.251 1.831,-18.279 z"
   id="path112" />
							<path
   style="fill:#8c404c"
   d="m 521.577,178.489 c 1.783,-1.403 4.333,-1.59 6.468,-0.821 2.135,0.769 3.884,2.381 5.198,4.231 1.315,1.85 2.239,3.942 3.155,6.018 0.303,0.687 0.61,1.387 0.699,2.132 0.089,0.745 -0.07,1.557 -0.592,2.096 -0.897,0.925 -2.45,0.709 -3.606,0.142 -1.939,-0.951 -3.463,-2.716 -4.12,-4.774 -0.657,-2.058 -0.44,-4.379 0.589,-6.279 -1.744,-2.192 -5.049,-3.32 -7.791,-2.745 z"
   id="path113" />
						</g><path
   style="fill:#bd6c67"
   d="m 509.805,118.06 c -5.979,1.055 -10.289,6.449 -12.604,12.062 -2.316,5.613 -3.216,11.735 -5.607,17.316 -2.046,4.775 -5.175,9.081 -9.084,12.502 2.615,37.842 12.115,62.342 38.865,63.592 26.75,1.25 40.25,-25.25 44,-54.25 -24.75,-5.25 -16.75,-19.75 -25,-37.5 -8.25,-17.75 -22.682,-18.276 -30.57,-13.722 z"
   id="path114" /><g
   id="g124"
   transform="translate(-50)">
							<path
   style="fill:#472948"
   d="m 558.437,153.452 c -6.393,0.146 -12.775,0.721 -19.078,1.719 1.022,-1.737 2.531,-3.491 4.218,-4.708 1.687,-1.217 3.76,-2.023 5.9,-2.077 3.372,-0.085 7.593,2.217 8.96,5.066 z"
   id="path116" />
							<path
   style="fill:#472948"
   d="m 552.958,170.949 c 0,2.163 -1.754,3.917 -3.917,3.917 -2.163,0 -3.917,-1.753 -3.917,-3.917 0,-2.163 1.754,-3.917 3.917,-3.917 2.163,0 3.917,1.754 3.917,3.917 z"
   id="path117" />
							<path
   style="fill:#472948"
   d="m 587.31,153.452 c 6.393,0.146 12.775,0.721 19.078,1.719 -1.022,-1.737 -2.531,-3.491 -4.218,-4.708 -1.687,-1.217 -3.76,-2.023 -5.9,-2.077 -3.372,-0.085 -7.593,2.217 -8.96,5.066 z"
   id="path118" />
							<path
   style="fill:#472948"
   d="m 587.856,170.949 c 0,2.163 1.753,3.917 3.917,3.917 2.163,0 3.917,-1.753 3.917,-3.917 0,-2.163 -1.754,-3.917 -3.917,-3.917 -2.164,0 -3.917,1.754 -3.917,3.917 z"
   id="path119" />
							<path
   style="fill:#a64f5a"
   d="m 578.626,189.185 c -4.792,0.085 -9.583,0.17 -14.375,0.255 1.446,2.377 4.197,4.079 6.979,4.073 2.782,-0.006 5.961,-1.944 7.396,-4.328 z"
   id="path120" />
							<path
   style="fill:#e68799"
   d="m 553.444,187.543 c 0.363,3.016 -2.788,5.875 -7.037,6.387 -4.249,0.512 -7.989,-1.518 -8.352,-4.534 -0.363,-3.016 2.787,-5.875 7.037,-6.387 4.25,-0.512 7.989,1.518 8.352,4.534 z"
   id="path121" />
							<path
   style="fill:#e68799"
   d="m 589.595,187.543 c -0.363,3.016 2.787,5.875 7.037,6.387 4.25,0.512 7.989,-1.518 8.352,-4.534 0.363,-3.016 -2.788,-5.875 -7.037,-6.387 -4.25,-0.512 -7.989,1.518 -8.352,4.534 z"
   id="path122" />
							<path
   style="fill:#ffffff"
   d="m 589.623,197.607 c -10.695,1.712 -21.505,2.707 -32.333,2.975 2.388,4.061 6.277,7.384 10.71,8.979 4.433,1.595 9.526,1.417 13.726,-0.716 4.2,-2.135 7.129,-6.59 7.897,-11.238 z"
   id="path123" />
							<path
   style="fill:#a64f5a"
   d="m 583.224,211.996 c -3.637,1.219 -7.521,1.696 -11.344,1.394 1.799,1.195 3.863,2.513 6.023,2.523 2.159,0.009 4.695,-1.85 5.321,-3.917 z"
   id="path124" />
						</g><path
   style="fill:#e68799"
   d="m 534.041,344.782 -0.284,3.907 c -0.37,5.098 1.187,10.148 4.362,14.153 l 36.817,46.427 28.928,15.142 c 10.102,5.287 22.168,5.22 32.21,-0.179 v 0 c 13.811,-7.426 20.844,-23.26 17.093,-38.486 l -24.57,-99.741 c -3.396,-13.783 -14.404,-24.392 -28.304,-27.276 l -6.92,-1.435 c -7.5,23.987 1.41,72.975 4.622,93.648 l -21.207,-29.925 c -3.145,-4.438 -7.933,-7.437 -13.3,-8.329 l -3.448,-0.573 z"
   id="path127" /><path
   style="fill:#d1527d"
   d="m 597.996,350.943 25.752,36.339 c -0.623,-29 -25.752,-36.339 -25.752,-36.339 z"
   id="path132" /><g
   id="g149"
   transform="translate(-50)">
				<g
   id="g137">
					<path
   style="fill:#c7d2d7"
   d="m 611.681,413.971 c 8.547,-3.455 18.379,-0.18 26.221,4.667 7.842,4.846 14.762,11.27 23.216,14.945 14.488,6.298 32.397,3.193 44.405,-7.072 12.008,-10.265 17.857,-27.02 15.586,-42.653 -0.838,-5.771 -2.758,-11.498 -6.355,-16.089 -3.597,-4.591 -9.014,-7.936 -14.839,-8.22 -5.825,-0.284 -11.893,2.869 -14.297,8.182 -2.838,6.271 -0.281,13.576 2.628,19.815 2.909,6.239 6.264,12.923 4.909,19.672 -1.594,7.937 -9.67,13.388 -17.739,14.051 -8.069,0.663 -15.982,-2.555 -22.929,-6.713 -6.947,-4.157 -13.288,-9.302 -20.427,-13.119 -7.14,-3.817 -15.454,-6.269 -23.342,-4.448 0.753,4.799 2.209,12.183 2.963,16.982 z"
   id="path133" />
					<g
   id="g136">
						<path
   style="fill:#99a3b0"
   d="m 693.154,407.217 c -0.249,1.24 -0.672,2.411 -1.213,3.521 4.06,5.687 9.186,10.607 15.02,14.453 3.984,-3.738 7.222,-8.208 9.625,-13.113 -8.239,-0.378 -16.366,-3.133 -23.134,-7.845 -0.011,0.992 -0.098,1.987 -0.298,2.984 z"
   id="path134" />
						<path
   style="fill:#99a3b0"
   d="m 664.054,430.496 c -7.095,-3.454 -13.16,-8.66 -19.69,-13.09 -6.531,-4.43 -14.527,-8.353 -22.418,-8.3 0.418,-4.094 -0.204,-8.281 -1.739,-12.098 -3.81,-0.776 -7.698,-0.895 -11.489,-0.02 0.753,4.799 2.21,12.183 2.963,16.982 8.547,-3.455 18.379,-0.18 26.221,4.667 7.842,4.846 14.762,11.27 23.216,14.945 9.461,4.113 20.374,4.193 30.157,0.91 -9.205,1.404 -18.842,0.083 -27.221,-3.996 z"
   id="path135" />
						<path
   style="fill:#99a3b0"
   d="m 721.464,393.764 c 0.219,-3.305 0.121,-6.63 -0.355,-9.907 -0.011,-0.075 -0.027,-0.15 -0.038,-0.226 -5.908,2.15 -12.312,2.94 -18.557,2.2 -6.156,-0.729 -12.116,-2.937 -17.306,-6.323 0.727,2.761 1.849,5.488 3.038,8.036 0.21,0.45 0.422,0.904 0.635,1.358 9.617,5.866 21.671,7.654 32.583,4.862 z"
   id="path136" />
					</g>
				</g>
				<g
   id="g148">
					<g
   id="g142">
						<path
   style="fill:#c7d2d7"
   d="m 613.487,414.156 c 5.303,-10.036 3.025,-22.828 -3.295,-32.258 -6.32,-9.429 -16.07,-16.006 -26.101,-21.319 -10.031,-5.313 -20.62,-9.63 -30.131,-15.825 -8.78,-5.719 -16.539,-12.999 -22.804,-21.397 -3.682,-4.935 -6.929,-10.478 -7.568,-16.603 -0.639,-6.124 1.608,-12.796 7.076,-15.627 1.431,5.954 5.904,11.122 11.153,14.276 2.182,-14.667 -1.055,-30.078 -8.955,-42.626 -7.9,-12.548 -20.397,-22.13 -34.566,-26.502 -12.789,-3.946 -26.12,-2.831 -39.473,-1.923 4.275,4.934 10.113,8.678 16.336,10.648 -11.906,16.715 -23.977,33.748 -30.498,53.206 -8.063,24.061 -7.084,50.101 -5.579,75.432 14.575,18.108 33.999,31.811 55.614,40.361 21.615,8.551 44.88,12.415 68.105,13.383 17.76,0.74 42.381,2.491 50.686,-13.226 z"
   id="path137" />
						<path
   style="fill:#99a3b0"
   d="m 529.727,282.449 c -2.029,3.775 -2.603,8.232 -2.697,11.616 0.996,-1.189 2.201,-2.198 3.632,-2.939 -0.787,-4.01 -1.165,-7.01 -0.935,-8.677 z"
   id="path138" />
						<path
   style="fill:#99a3b0"
   d="m 487.125,247.532 c -3.313,-0.188 -8,-1.438 -11.967,-2.533 -0.999,1.403 -1.999,2.809 -2.997,4.218 4.409,0.145 10.428,-0.048 14.964,-1.685 z"
   id="path139" />
						<path
   style="fill:#99a3b0"
   d="m 584.09,360.579 c -10.031,-5.313 -20.62,-9.63 -30.131,-15.825 -8.78,-5.719 -16.539,-12.999 -22.804,-21.397 -2.152,-2.885 -4.151,-5.979 -5.572,-9.274 -1.284,6.972 -5.381,13.459 -11.365,17.295 -2.26,1.449 -4.817,2.603 -6.459,4.727 -1.642,2.124 -1.865,5.688 0.388,7.147 1.72,1.113 4.026,0.518 5.837,-0.439 1.811,-0.957 3.518,-2.266 5.545,-2.56 3.631,-0.526 7.046,2.611 7.89,6.182 0.843,3.571 -0.324,7.325 -2.004,10.588 -1.68,3.262 -3.88,6.253 -5.334,9.622 -0.581,1.346 -1.046,2.8 -0.882,4.257 0.163,1.457 1.094,2.909 2.508,3.294 1.915,0.522 3.739,-0.973 5.164,-2.354 4.035,-3.911 8.069,-7.822 12.104,-11.732 1.569,-1.521 3.192,-3.078 5.216,-3.901 2.024,-0.823 4.573,-0.748 6.151,0.764 2.12,2.032 1.613,5.561 0.411,8.24 -1.654,3.687 -4.313,6.936 -5.369,10.836 -1.056,3.9 0.295,8.982 4.183,10.084 2.277,0.645 4.765,-0.303 6.554,-1.852 1.789,-1.549 3.015,-3.631 4.221,-5.667 2.01,-3.394 4.16,-6.883 7.456,-9.048 3.296,-2.166 8.079,-2.598 10.979,0.075 2.637,2.431 2.91,6.496 2.425,10.05 -0.485,3.554 -1.541,7.139 -0.886,10.665 0.655,3.526 3.874,6.957 7.38,6.2 2.536,-0.548 4.197,-3.029 4.992,-5.499 0.795,-2.47 1.007,-5.122 2.05,-7.498 1.043,-2.376 3.299,-4.531 5.883,-4.288 2.221,0.209 3.908,2.087 5.041,4.009 1.133,1.922 1.998,4.075 3.659,5.566 1.4,1.257 3.315,1.866 5.19,1.782 -1.062,-3.087 -2.519,-6.047 -4.317,-8.73 -6.322,-9.429 -16.073,-16.006 -26.104,-21.319 z"
   id="path140" />
						<path
   style="fill:#dce2e5"
   d="m 488.176,368.107 c -1.489,-7.932 -2.461,-16.139 -6.145,-23.32 -3.684,-7.181 -10.903,-13.26 -18.962,-12.81 -8.069,0.451 -14.605,7.37 -17.185,15.028 -2.581,7.659 -2.031,15.971 -1.453,24.032 0.228,3.182 0.457,6.364 0.685,9.546 13.72,14.691 30.822,25.996 49.579,33.416 5.517,2.182 11.142,4.055 16.845,5.657 -3.522,-3.888 -6.653,-8.145 -9.356,-12.631 -7.155,-11.872 -11.451,-25.294 -14.008,-38.918 z"
   id="path141" />
						<path
   style="fill:#99a3b0"
   d="m 572.697,385.591 c -11.824,-1.206 -24.719,2.842 -33.105,11.264 -6.998,7.028 -11.157,16.751 -11.617,26.645 3.447,0.654 6.913,1.213 10.391,1.7 0.676,-7.305 3.104,-14.454 7.133,-20.588 6.223,-9.473 16.166,-16.427 27.198,-19.021 z"
   id="path142" />
					</g>
					<g
   id="g147">
						<g
   id="g143">
							<path
   style="fill:#472948"
   d="m 494.744,270.53 c 0.402,-1.3 1.14028,-3.59899 1.28853,-5.26599 0.20918,-1.71793 0.0854,-3.35 -1.19758,-4.704 -1.282,-1.355 -4.42435,-2.77106 -7.05206,-3.06733 -1.53814,-0.20141 -3.42789,0.33832 -4.74689,0.66932 2.434,1.222 5.032,2.859 7.074,5.03 2.056,2.157 3.548,4.841 4.634,7.338 z"
   id="path143"
   sodipodi:nodetypes="ccccccc" />
						</g>
						<g
   id="g144">
							<path
   style="fill:#472948"
   d="m 521.176,286.77 c -0.328,-1.218 -0.25005,-3.07729 -1.33205,-4.22129 -1.076,-1.148 -2.96439,-2.58738 -4.52739,-3.21338 -1.564,-0.624 -3.93812,-1.08277 -5.50912,-0.99277 -1.573,0.083 -2.66744,1.72744 -3.74544,2.38244 2.5,0.411 5.284,1.025 7.929,2.091 2.652,1.051 5.091,2.528 7.185,3.954 z"
   id="path144"
   sodipodi:nodetypes="ccccccc" />
						</g>
						<path
   style="fill:#495375"
   d="m 498.572,296.468 c -1.754,-0.699 -3.409,-1.891 -4.5,-3.504 -1.105,-1.599 -1.673,-3.566 -1.445,-5.386 0.072,-0.591 0.228,-1.16 0.44,-1.698 0.529,-0.633 0.936,-1.321 1.212,-2.011 0.253,-0.29 0.525,-0.557 0.816,-0.788 -0.217,0.078 -0.434,0.181 -0.648,0.298 0.086,-0.275 0.158,-0.549 0.2,-0.818 -0.205,0.393 -0.449,0.777 -0.726,1.147 -0.534,0.381 -1.031,0.881 -1.448,1.475 -0.57,0.473 -1.188,0.904 -1.886,1.229 -1.807,0.868 -3.972,1.02 -5.998,0.47 -2.033,-0.541 -3.844,-1.747 -5.161,-3.3 -1.333,-1.546 -2.193,-3.361 -2.716,-5.046 -0.033,1.761 0.448,3.886 1.705,5.801 1.227,1.921 3.325,3.539 5.736,4.17 2.392,0.669 5.103,0.294 7.047,-0.992 0.101,-0.064 0.192,-0.137 0.289,-0.205 -0.004,0.015 -0.01,0.029 -0.014,0.043 -0.563,2.132 -0.011,4.604 1.307,6.496 1.305,1.935 3.384,3.225 5.434,3.737 2.063,0.532 4.112,0.276 5.604,-0.404 -1.632,0.173 -3.487,-0.008 -5.248,-0.714 z"
   id="path145" />
						<path
   style="fill:#99a3b0"
   d="m 500.769,307.042 c -12.1,-3.909 -23.304,-10.564 -32.524,-19.321 1.433,6.968 5.444,13.289 11.517,16.995 6.073,3.706 14.155,4.239 21.007,2.326 z"
   id="path146" />
						<path
   style="fill:#472948"
   d="m 500.258,285.213 c -2.115,-2.927 -5.021,-5.278 -8.325,-6.735 -0.38,2.344 -0.173,5.112 0.829,7.265 2.344,0.39 5.206,0.102 7.496,-0.53 z"
   id="path147" />
					</g>
				</g>
			</g><path
   style="fill:#e68799"
   d="m 475.208,411.616 -1.741,-4.607 c -1.427,-3.777 -4.559,-6.646 -8.446,-7.736 -4.696,-1.317 -11.692,-3.352 -19.62,-5.901 -17.274,-5.555 -38.968,-13.551 -50.936,-21.881 -2.326,-1.619 -4.288,-3.251 -5.775,-4.879 -10e-4,-0.021 -0.002,-0.041 -0.003,-0.062 -0.601,-11.46 -0.925,-23.01 -0.212,-34.411 l -0.001,-0.176 c 0,0 -16.386,19.827 -24.649,47.275 -1.367,4.542 -1.051,9.427 0.79,13.799 l 7.034,16.706 c 1.496,3.552 3.952,6.609 7.098,8.836 12.311,8.716 45.833,30.934 75.833,37.158 3.428,0.711 6.995,-0.054 9.856,-2.072 l 3.94,-2.779 c -10e-4,-0.001 -8.001,-19.104 6.832,-39.27 z"
   id="path149" /><path
   style="fill:#eba7ac"
   d="m 490.64,414.582 -10.62,-2.041 -4.812,-0.925 c -14.833,20.167 -6.833,39.269 -6.833,39.269 l 25.99,5.819 1.463,-30.576 0.408,-8.53 v 0 c 0,-1.126 -0.799,-2.094 -1.906,-2.307 z"
   id="path150" /><path
   style="fill:#bd6c67"
   d="m 575.786,415.541 c -1.767,-1.454 -4.445,-0.985 -6.119,0.575 -1.674,1.56 -3.708,2.625 -6.044,3.879 1.367,-1.333 2.778,-2.734 3.403,-4.537 0.625,-1.803 0.194,-4.128 -1.471,-5.062 -2.203,-1.237 -4.819,0.513 -6.825,2.049 -6.579,5.037 -14.231,8.664 -22.294,10.569 -2.272,0.537 -5.012,0.808 -6.614,-0.891 -1.153,-1.223 -1.287,-3.163 -0.682,-4.73 0.605,-1.568 1.83,-2.817 3.145,-3.864 1.554,-1.238 3.317,-2.301 4.427,-3.948 1.11,-1.647 1.307,-4.155 -0.216,-5.432 -1.657,-1.389 -4.167,-0.57 -6.083,0.43 -7.185,3.75 -13.468,9.261 -18.039,15.954 0,0 -7.507,-1.133 -16.139,-2.935 -11.528,15.518 -4.901,33.287 -4.901,33.287 21.578,8.769 46.051,10.233 68.521,4.1 1.52,-0.415 3.08,-0.889 4.279,-1.91 1.199,-1.021 1.948,-2.737 1.388,-4.209 -0.386,-1.015 -1.435,-1.73 -2.529,-1.987 4.15,-1.792 7.893,-4.526 10.816,-7.976 0.713,-0.842 1.396,-1.758 1.654,-2.831 0.258,-1.073 -0.004,-2.339 -0.894,-2.991 -1.113,-0.817 -2.667,-0.411 -3.976,0.028 -2.794,0.936 -5.588,1.872 -8.381,2.807 5.541,-3.379 10.201,-8.188 13.404,-13.832 0.587,-1.035 1.135,-2.125 1.278,-3.306 0.142,-1.182 -0.19,-2.481 -1.108,-3.237 z"
   id="path155" /><path
   style="fill:#a64f5a"
   d="m 536.734,456.937 c -13.248,-0.312 -26.783,-3.831 -39.22,-8.798 -2.938,-1.174 -5.077,-3.832 -5.482,-6.97 -0.869,-6.732 -0.185,-13.663 1.951,-20.107 -8.321,14.58 -2.647,29.823 -2.647,29.823 21.578,8.769 46.051,10.233 68.521,4.1 0.58,-0.158 1.16,-0.337 1.729,-0.539 -8.145,1.829 -16.507,2.688 -24.852,2.491 z"
   id="path156" /><path
   style="fill:#b23665"
   d="m 497.386,453.127 c 0.004,-0.007 0.006,-0.013 0.009,-0.02 -2.04,-0.685 -4.066,-1.412 -6.06,-2.222 2.04,7.022 3.436,7.588 6.051,2.242 z"
   id="path157" /><g
   id="g158"
   transform="matrix(1.6208822,0,0,1.5785244,-430.9826,-242.99529)">
						<path
   style="fill:#8c404c"
   d="m 589.526,431.316 c 3.774,0.174 8.802,-0.753 13.331,-2.9 4.547,-2.107 8.477,-5.378 10.758,-8.39 -3.117,2.144 -7.169,4.739 -11.521,6.761 -4.34,2.051 -8.927,3.505 -12.568,4.529 z"
   id="path158" />
					</g><g
   id="g159"
   transform="matrix(2.513969,0,0,2.1710366,-976.61869,-510.71482)">
						<path
   style="fill:#8c404c"
   d="m 594.209,441.026 c 2.579,0.44 6.09,0.301 9.42,-0.628 3.337,-0.904 6.426,-2.579 8.417,-4.276 -2.427,0.986 -5.533,2.202 -8.747,3.075 -3.21,0.893 -6.501,1.436 -9.09,1.829 z"
   id="path159" />
					</g><g
   id="g160"
   transform="matrix(2.4629527,0,0,2.3692854,-946.41255,-612.25268)">
						<path
   style="fill:#8c404c"
   d="m 593.999,449.805 c 2.601,0.568 6.131,0.707 9.591,0.204 3.462,-0.484 6.813,-1.604 9.152,-2.876 -2.622,0.474 -5.959,1.149 -9.331,1.622 -3.369,0.488 -6.762,0.773 -9.412,1.05 z"
   id="path160" />
					</g><path
   style="fill:#eba7ac"
   d="m 515.115,324.83 18.927,19.952 c 24,-10.667 26,-32.667 26,-32.667 l -20.667,-19.333 z"
   id="path162" /><g
   id="g164"
   transform="translate(-50)">
					<path
   style="fill:#b23665"
   d="m 570.533,314.082 v 0 c 0,0 -8.908,12.45 -4.283,10.7 3.447,-1.304 6.821,-3.184 9.915,-5.882 l -0.915,0.632 z"
   id="path163" />
					<path
   style="fill:#bd6c67"
   d="m 564.375,266.449 c -14.562,-11.404 -31.105,-20.603 -48.367,-27.246 -1.765,-0.679 -3.633,-1.343 -5.505,-1.075 -1.872,0.267 -3.705,1.795 -3.634,3.685 0.069,1.813 1.726,3.107 3.259,4.077 3.647,2.306 7.493,4.299 11.48,5.949 -3.517,-1.467 -7.033,-2.935 -10.55,-4.402 -1.499,-0.626 -3.045,-1.261 -4.669,-1.277 -1.624,-0.016 -3.366,0.736 -4.036,2.216 -0.706,1.56 -0.01,3.468 1.21,4.669 1.221,1.201 2.864,1.852 4.46,2.474 5.28,2.055 10.559,4.11 15.839,6.165 -3.956,-1.276 -7.399,-2.806 -11.259,-3.653 -2.254,-0.495 -5.147,-0.595 -6.289,1.41 -0.831,1.46 -0.193,3.401 1.018,4.565 1.211,1.164 2.859,1.733 4.451,2.268 4.871,1.638 9.742,3.277 14.613,4.915 -2.98,-0.615 -5.653,-1.778 -8.11,-1.499 -2.457,0.279 -3.913,2.145 -3.652,4.604 0.278,2.622 3.157,4.025 5.648,4.891 6.576,2.287 13.265,4.245 20.036,5.864 1.432,11.483 22.057,19.608 22.057,19.608 l 8.158,9.425 4.717,5.45 0.915,-0.632 c 5.91,-5.154 10.797,-13.294 13.21,-26.118 z"
   id="path164" />
				</g><path
   style="fill:#b23665"
   d="m 520.533,314.082 c 0,0 -8.908,12.45 -4.283,10.7 3.447,-1.304 6.821,-3.184 9.915,-5.882 l -0.915,0.632 z"
   id="path165" /><path
   style="fill:#a64f5a"
   d="m 522.68,309.223 c -2.702,-2.781 -5.21,-5.775 -7.303,-8.953 -9.987,-1.75 -19.305,-9.546 -22.642,-19.12 -6.359,-1.169 -12.717,-2.339 -19.076,-3.508 -2.063,-0.379 -4.194,-0.786 -5.926,-1.97 -1.384,-0.947 -2.431,-2.534 -2.504,-4.162 -0.48,0.764 -0.709,1.712 -0.595,2.785 0.278,2.622 3.157,4.025 5.648,4.891 6.576,2.287 13.265,4.245 20.036,5.864 1.432,11.483 22.057,19.608 22.057,19.608 l 8.158,9.425 4.717,5.45 0.915,-0.632 c 3.08,-2.686 5.878,-6.193 8.197,-10.742 -0.435,0.439 -0.87,0.877 -1.318,1.301 -2.921,2.766 -7.561,2.649 -10.364,-0.237 z"
   id="path166" /><g
   id="g170"
   transform="translate(-50)">
					<g
   id="g167">
						<path
   style="fill:#8c404c"
   d="M 552.82561,279.66238 C 548.89,269.59278 521.248,268.467 516.401,267.827 c 4.403,2.125 31.57761,11.19538 36.42461,11.83538 z"
   id="path167"
   sodipodi:nodetypes="ccc" />
					</g>
					<g
   id="g168">
						<path
   style="fill:#8c404c"
   d="m 538.418,266.404 c -5.15864,-6.2157 -19.48351,-10.06883 -25.996,-9.174 4.12,2.166 21.405,8.408 25.996,9.174 z"
   id="path168"
   sodipodi:nodetypes="ccc" />
					</g>
					<g
   id="g169">
						<path
   style="fill:#8c404c;stroke-width:1.31069"
   d="M 544.99353,263.32358 C 540.63684,255.31321 518.38658,248.50267 511.308,246.62 c 6.17431,4.16741 26.60695,14.82091 33.68553,16.70358 z"
   id="path169"
   sodipodi:nodetypes="ccc" />
					</g>
				</g>
</svg>
