<?xml version="1.0" encoding="UTF-8" standalone="no"?>
<!-- Generator: Adobe Illustrator 27.5.0, SVG Export Plug-In . SVG Version: 6.00 Build 0)  -->

<svg
   version="1.1"
   x="0px"
   y="0px"
   viewBox="0 0 750 500"
   style="enable-background:new 0 0 750 500;"
   xml:space="preserve"
   id="svg271"
   sodipodi:docname="park.svg"
   inkscape:version="1.4 (86a8ad7, 2024-10-11)"
   xmlns:inkscape="http://www.inkscape.org/namespaces/inkscape"
   xmlns:sodipodi="http://sodipodi.sourceforge.net/DTD/sodipodi-0.dtd"
   xmlns="http://www.w3.org/2000/svg"
   xmlns:svg="http://www.w3.org/2000/svg"><defs
   id="defs271">
	
	
	
	
	

	

		
		
		
		
	
		
		
		
		
		
		
	
		
		
		
	
		
		
		
		
	
		
		
		
	
			
			
		
			
			
			
			
			
		
			
			
			
			
		
			
			
			
		
			
			
		
			
			
			
		
			
			
			
		
			
			
		
			
			
			
			
		
			
			
		
			
			
		
			
			
			
			
			
			
		
			
			
		
			
			
		
				
				
				
				
				
				
			
				
				
				
				
			
				
				
				
			
				
				
				
				
				
			
				
				
				
				
				
				
				
				
				
				
				
				
				
				
				
			
				
					
			
				
			
				
				
			
				
			
				
				
				
				
				
				
				
				
			
				
			
				
				
			
				
				
			
				
				
			
				
			
				
			
				
				
				
			
				
				
				
				
				
				
				
				
				
				
				
				
				
				
			
				
				
				
			
				
				
				
			
				
				
				
				
				
				
				
				
				
				
				
				
				
			
				
				
			
				
				
				
				
				
				
				
				
				
				
				
				
				
				
				
				
				
				
				
				
				
				
				
				
				
			
				
				
				
				
				
			
				
				
				
				
				
				
			
				
				
				
					
				
				
				
				
				
				
				
				
				
				
			
					
					
					
						
					
					
					
					
						
					
					
					
					
					
						
					
					
				
					
					
					
					
					
					
					
					
					
					
				
					
						
					
					
					
					
					
					
					
					
					
					
						
					
					
					
					
					
					
				
					
					
				
					
					
				
						
						
						
					
							
							
						
					
					
					
					
				
					
					
					
					
					
					
					
					
					
					
					
					
					
				</defs><sodipodi:namedview
   id="namedview271"
   pagecolor="#ffffff"
   bordercolor="#111111"
   borderopacity="1"
   inkscape:showpageshadow="0"
   inkscape:pageopacity="0"
   inkscape:pagecheckerboard="1"
   inkscape:deskcolor="#d1d1d1"
   inkscape:zoom="0.851"
   inkscape:cx="448.88367"
   inkscape:cy="289.65922"
   inkscape:window-width="1920"
   inkscape:window-height="1111"
   inkscape:window-x="-9"
   inkscape:window-y="122"
   inkscape:window-maximized="1"
   inkscape:current-layer="svg271" />
<rect
   style="fill:#eaf3fa"
   width="750"
   height="500"
   id="rect1"
   x="0"
   y="0"
   inkscape:export-filename="rect1.png"
   inkscape:export-xdpi="256"
   inkscape:export-ydpi="256" />
<polygon
   style="fill:#c4dde2"
   points="14.47,154.19 14.47,129.38 35.22,129.38 35.22,140.31 45.86,140.31 45.86,73.37 88.37,73.37 88.37,154.19 116.78,154.19 116.78,128.23 131.19,128.23 131.19,73.37 165.56,73.37 165.56,154.19 174.12,154.19 174.12,128.04 203.74,128.04 203.74,154.19 225.43,154.19 225.43,145 244.37,145 244.37,126.43 286.89,126.43 286.89,154.19 330.37,154.19 330.37,73.37 361.98,73.37 361.98,129.38 384.75,129.38 384.75,140.31 394.57,140.31 394.57,73.37 437.09,73.37 437.09,154.19 465.5,154.19 465.5,128.23 479.9,128.23 479.9,73.37 514.27,73.37 514.27,154.19 522.83,154.19 522.83,128.04 552.46,128.04 552.46,154.19 574.15,154.19 574.15,145 593.09,145 593.09,126.43 635.6,126.43 635.6,154.19 679.09,154.19 679.09,73.37 710.69,73.37 710.69,132.35 732.87,132.35 732.87,154.19 749.17,154.19 749.17,269.24 0.83,269.24 0.83,154.19 "
   id="polygon1" /><path
   style="fill:#ffffff"
   d="m 434.971,41.716 h 91.365 c 0,0 -13.951,-19.93 -29.77,-6.498 0,0 -6.983,-28.383 -36.223,0.376 0,10e-4 -11.192,-13.91 -25.372,6.122 z"
   id="path1" /><path
   style="fill:#ffffff"
   d="m 197.073,38.335 h 58.843 c 0,0 -8.985,-12.836 -19.173,-4.185 0,0 -4.497,-18.28 -23.329,0.242 0,0 -7.208,-8.959 -16.341,3.943 z"
   id="path2" /><path
   style="fill:#93aeb7"
   d="m 329.92,200.045 c 4.075,2.638 6.781,7.879 5.286,12.46 H 231.328 c 0.384,-4.477 4.274,-8.051 8.561,-9.388 4.292,-1.337 8.918,-0.872 13.359,-0.199 -3.971,-1.934 -7.527,-4.717 -10.359,-8.109 -1.211,-1.446 -2.318,-3.063 -2.665,-4.915 -0.352,-1.852 0.217,-3.985 1.78,-5.033 1.875,-1.256 4.382,-0.624 6.506,0.126 6.921,2.453 13.54,5.747 19.671,9.786 0.655,-5.204 2.453,-10.26 5.223,-14.715 0.994,-1.595 2.146,-3.144 3.718,-4.174 1.572,-1.03 3.637,-1.464 5.358,-0.714 2.571,1.116 3.479,4.269 3.809,7.048 0.501,4.202 0.398,8.471 -0.312,12.641 3.492,-4.238 8.037,-7.603 13.115,-9.7 1.794,-0.741 3.732,-1.337 5.656,-1.075 1.929,0.258 3.822,1.572 4.22,3.474 0.352,1.685 -0.497,3.37 -1.432,4.816 -1.509,2.34 -3.312,4.486 -5.354,6.379 4.382,-1.048 8.873,-1.64 13.377,-1.766 4.969,-0.14 10.187,0.361 14.361,3.058 z"
   id="path3" /><path
   style="fill:#93aeb7"
   d="m 189.018,211.016 c 3.424,0 6.311,-2.721 6.329,-6.145 0,-0.022 0,-0.043 0,-0.065 0,-7.342 -6.443,-13.705 -15.856,-16.834 -5.39,-1.792 -9.249,-6.492 -9.807,-12.145 -0.013,-0.13 -0.026,-0.26 -0.041,-0.39 -2.1,-19.07 -18.43,-33.013 -37.59,-32.025 -7.82,0.404 -14.978,3.309 -20.69,7.931 -8.28,6.7 -18.588,10.302 -29.239,10.276 -0.069,0 -0.137,0 -0.206,0 -32.192,0 -58.289,18.229 -58.289,40.716 0,2.98 0.471,5.882 1.341,8.68 h 164.048 z"
   id="path4" /><path
   style="fill:#bdd752"
   d="m 52.396,65.025 c 0,-13.695 11.102,-24.798 24.798,-24.798 1.016,0 2.016,0.068 3,0.187 0,-0.017 -0.003,-0.033 -0.003,-0.05 0,-4.705 3.814,-8.52 8.52,-8.52 2.052,0 3.934,0.726 5.405,1.935 2.981,-5.751 8.976,-9.687 15.901,-9.687 4.165,0 7.988,1.434 11.031,3.819 3.715,-3.234 8.567,-5.197 13.879,-5.197 11.085,0 20.173,8.528 21.076,19.38 0.673,-0.054 1.352,-0.089 2.039,-0.089 13.888,0 25.146,11.258 25.146,25.146 0,9.321 -5.076,17.452 -12.61,21.795 0.34,1.256 0.538,2.57 0.538,3.934 0,8.303 -6.731,15.033 -15.034,15.033 -3.299,0 -6.34,-1.075 -8.819,-2.877 -8.979,12.338 -25.637,18.579 -42.347,14.461 C 89.201,115.624 77.786,103.66 74.636,89.691 62.143,88.412 52.396,77.857 52.396,65.025 Z"
   id="path5" /><path
   style="fill:#96aa43"
   d="m 97.1,68.529 c 12.774,16.535 26.976,17.109 41.652,11.023 28.247,-11.712 31.827,9.394 31.827,9.394 0.34,1.256 0.538,2.57 0.538,3.934 0,8.303 -6.731,15.033 -15.034,15.033 -0.207,0 -0.412,-0.004 -0.617,-0.012 -5.853,-0.239 -11.529,1.722 -16.257,5.18 -9.256,6.767 -21.759,9.506 -34.292,6.417 C 93.144,116.597 83.784,109.154 78.505,99.729 75.364,94.121 70.483,89.757 64.903,86.567 57.431,82.295 52.396,74.248 52.396,65.025 55.947,48.431 84.325,51.994 97.1,68.529 Z"
   id="path6" /><path
   style="fill:#706663"
   d="M 119.97,211.154 V 82.947 c -3.51,-0.363 -6.964,-1.392 -10.349,-3.228 v 131.435 z"
   id="path7" /><path
   style="fill:#706663"
   d="m 149.52,92.63 c -3.306,0.848 -6.585,2.018 -9.734,3.359 -3.157,1.344 -6.197,2.923 -9.063,4.72 -2.854,1.813 -5.522,3.869 -7.846,6.198 -1.161,1.165 -2.215,2.409 -3.184,3.695 -0.951,1.3 -1.774,2.667 -2.495,4.067 l -0.737,1.431 -1.76,-0.032 v 0 c -3.835,-0.233 -7.283,-1.594 -10.31,-3.31 -3.041,-1.729 -5.729,-3.847 -8.201,-6.129 -4.926,-4.59 -9.037,-9.827 -12.629,-15.35 C 79.986,85.743 76.929,79.892 74.559,73.75 73.381,70.678 72.377,67.53 71.676,64.293 70.987,61.061 70.558,57.722 70.883,54.341 l 1.822,0.148 c -0.152,3.084 0.391,6.223 1.196,9.269 0.815,3.053 1.924,6.038 3.202,8.946 2.567,5.816 5.801,11.346 9.493,16.507 3.702,5.146 7.891,9.96 12.637,13.974 2.373,1.994 4.899,3.777 7.556,5.12 2.645,1.347 5.448,2.225 8.104,2.247 v 0 l -2.498,1.399 c 1.037,-1.608 2.179,-3.126 3.435,-4.524 1.271,-1.381 2.614,-2.673 4.039,-3.844 2.853,-2.341 5.955,-4.261 9.162,-5.878 3.218,-1.599 6.536,-2.919 9.919,-3.979 3.389,-1.059 6.8,-1.91 10.323,-2.45 z"
   id="path9" /><path
   style="fill:#b2c762"
   d="m 124.481,103.555 c 0,-10.219 -8.284,-18.503 -18.503,-18.503 -0.758,0 -1.504,0.051 -2.239,0.14 0,-0.012 0.002,-0.025 0.002,-0.037 0,-3.511 -2.846,-6.357 -6.357,-6.357 -1.531,0 -2.936,0.542 -4.033,1.444 -2.224,-4.291 -6.698,-7.228 -11.865,-7.228 -3.108,0 -5.961,1.07 -8.231,2.849 -2.772,-2.413 -6.392,-3.877 -10.356,-3.877 -8.271,0 -15.052,6.363 -15.726,14.46 -0.502,-0.04 -1.009,-0.067 -1.522,-0.067 -10.362,0 -18.763,8.401 -18.763,18.763 0,6.955 3.787,13.022 9.409,16.263 -0.254,0.937 -0.401,1.918 -0.401,2.935 0,6.195 5.022,11.217 11.217,11.217 2.461,0 4.73,-0.802 6.58,-2.146 6.7,9.206 19.129,13.863 31.597,10.79 11.725,-2.89 20.243,-11.817 22.593,-22.24 9.326,-0.956 16.598,-8.832 16.598,-18.406 z"
   id="path10" /><path
   style="fill:#96aa43"
   d="m 91.126,106.169 c -9.532,12.337 -20.128,12.766 -31.079,8.225 -21.076,-8.739 -23.747,7.01 -23.747,7.01 -0.254,0.937 -0.401,1.918 -0.401,2.935 0,6.195 5.022,11.217 11.217,11.217 0.154,0 0.307,-0.003 0.46,-0.009 4.367,-0.178 8.602,1.285 12.13,3.865 6.907,5.049 16.236,7.092 25.587,4.788 8.784,-2.165 15.768,-7.718 19.707,-14.75 2.344,-4.184 5.986,-7.441 10.149,-9.821 5.575,-3.187 9.332,-9.191 9.332,-16.073 -2.649,-12.383 -23.823,-9.724 -33.355,2.613 z"
   id="path11" /><path
   style="fill:#816a61"
   d="m 110.688,95.584 -1.359,0.11 c 0.522,10.619 -10.732,30.251 -22.371,38.314 -0.854,0.592 -1.907,-0.392 -1.388,-1.292 4.74,-8.207 6.938,-19.86 7.368,-28.635 -1,8.779 -9.637,30.783 -11.155,27.722 v -17.284 c -2.525,1.37 -5.103,2.138 -7.722,2.408 v 11.485 c -0.27,4.524 -15.745,-4.332 -21.863,-5.27 l -0.185,1.01 c 5.772,1.48 12.213,4.681 17.244,8.896 3.029,2.537 4.804,6.266 4.804,10.217 v 67.889 h 7.722 v -60.256 c 0,-4.713 2.297,-9.102 6.112,-11.869 12.489,-9.057 23.928,-31.667 22.793,-43.445 z"
   id="path12" /><path
   style="fill:#93aeb7"
   d="m 693.099,214.907 c 3.98,-1.632 6.62,-4.464 6.62,-7.691 0,-4.998 -5.454,-8.05 -11.305,-8.899 -3.159,-0.458 -5.879,-2.376 -7.33,-5.219 -1.851,-3.625 -5.173,-6.589 -9.332,-8.356 -4.881,-2.074 -8.712,-6.126 -10.261,-11.199 -4.573,-14.973 -18.493,-25.865 -34.963,-25.865 -15.06,0 -27.992,9.106 -33.593,22.112 -2.343,5.44 -7.052,9.616 -12.801,11.043 -8.922,2.213 -15.866,9.814 -16.986,19.18 -0.408,3.409 -2.597,6.283 -5.7,7.752 -3.326,1.574 -5.519,4.18 -5.595,7.141 h 141.246 z"
   id="path13" /><path
   style="fill:#b2c762"
   d="m 661.297,65.542 c 0.531,-1.655 0.821,-3.417 0.821,-5.248 0,-8.92 -6.806,-16.248 -15.508,-17.079 -1.887,-11.179 -11.608,-19.696 -23.323,-19.696 -4.713,0 -9.101,1.384 -12.789,3.759 -1.588,-3.487 -5.095,-5.916 -9.177,-5.916 -2.631,0 -5.02,1.016 -6.816,2.667 -3.027,-1.696 -6.516,-2.667 -10.233,-2.667 -11.585,0 -20.976,9.391 -20.976,20.976 0,2.608 0.48,5.104 1.35,7.407 -0.447,-0.028 -0.896,-0.047 -1.35,-0.047 -11.677,0 -21.143,9.466 -21.143,21.143 0,11.677 9.466,21.143 21.143,21.143 0.038,0 0.075,-0.003 0.113,-0.003 -0.073,0.752 -0.113,1.514 -0.113,2.285 0,12.937 10.488,23.425 23.425,23.425 10.116,0 18.734,-6.412 22.012,-15.394 4.226,5.157 10.643,8.449 17.831,8.449 9.474,0 17.609,-5.72 21.15,-13.893 1.62,0.507 3.343,0.781 5.13,0.781 9.477,0 17.16,-7.683 17.16,-17.16 -10e-4,-6.404 -3.509,-11.983 -8.707,-14.932 z"
   id="path14" /><path
   style="fill:#96aa43"
   d="M 625.807,86.717 C 598.442,92.926 592.385,79.6 572.408,74.08 c -11.37,-3.141 -19.035,4.795 -23.531,12.217 1.341,1.251 2.835,2.324 4.448,3.189 5.374,2.882 9.356,7.702 11.596,13.373 3.419,8.657 11.863,14.831 21.8,14.831 5.407,0 10.385,-1.832 14.349,-4.908 5.166,-4.01 12.078,-5.228 18.29,-3.185 2.266,0.745 4.687,1.149 7.203,1.149 6.524,0 12.414,-2.712 16.605,-7.071 3.222,-3.351 7.464,-5.554 12.067,-6.206 5.737,-0.813 10.89,-4.512 13.346,-10.154 -11.17,-1.731 -14.649,-6.979 -42.774,-0.598 z"
   id="path15" /><path
   style="fill:#706663"
   d="m 601.24,115.818 v 99.918 h 10.692 l 1.26,-59.962 c 0.247,-9.966 2.393,-19.793 6.321,-28.955 l 18.158,-42.348 c -1.359,0.195 -2.796,0.427 -4.326,0.703 0,0 -21.894,45.027 -21.894,29.777 V 88.3 c -3.833,-0.117 -7.157,-0.739 -10.211,-1.678 v 9.868 c 0,1.381 -1.417,2.308 -2.684,1.758 -7.339,-3.189 -13.687,-12.199 -17.148,-20.876 -1.189,-0.537 -2.416,-1.058 -3.704,-1.55 2.445,6.64 6.893,17.078 17.189,25.925 4.084,3.508 6.347,8.687 6.347,14.071 z"
   id="path16" /><path
   style="fill:#bdd752"
   d="m 718,115.413 c 1.271,-2.117 1.975,-4.442 1.975,-6.882 0,-9.814 -11.362,-17.769 -25.378,-17.769 -5.482,0 -10.554,1.221 -14.703,3.29 C 677.04,83.21 666,75.126 652.807,75.126 c -15.36,0 -27.812,10.953 -27.812,24.464 0,3.307 0.75,6.46 2.103,9.337 -6.901,2.743 -11.707,8.848 -11.707,15.945 0,9.66 8.898,17.491 19.875,17.491 3.563,0 6.905,-0.829 9.797,-2.275 3.763,9.975 15.483,17.252 29.368,17.252 13.593,0 25.111,-6.975 29.12,-16.627 2.924,1.335 6.379,2.11 10.083,2.11 10.514,0 19.037,-6.219 19.037,-13.891 0,-6.574 -6.262,-12.078 -14.671,-13.519 z"
   id="path17" /><path
   style="fill:#96aa43"
   d="m 689.928,131.034 c -18.768,3.947 -23.46,1.849 -51.27,-9.743 -11.854,-4.941 -18.868,-3.01 -23.016,0.83 -0.161,0.897 -0.25,1.815 -0.25,2.751 0,10.096 9.306,17.298 19.497,17.5 5.893,0.117 11.646,2.118 15.909,6.188 5.618,5.362 14.117,8.781 23.633,8.781 8.92,0 16.947,-3.004 22.544,-7.797 4.744,-4.063 10.644,-6.636 16.889,-6.708 8.936,-0.103 17.25,-4.867 18.615,-11.953 -7.43,-7.74 -26.499,-3.225 -42.551,0.151 z"
   id="path18" /><path
   style="fill:#816a61"
   d="m 699.299,129.079 c -3.827,4.928 -21.676,28.261 -21.744,14.902 v -11.163 c -3.074,0.13 -5.936,-0.076 -8.973,-0.653 v 13.076 c -6.645,-4.824 -15.139,-13.517 -20.351,-19.978 -1.19,-0.488 -2.442,-1.005 -3.741,-1.544 0.595,1.061 1.198,2.118 1.814,3.167 3.885,6.559 9.91,15.39 16.369,21.403 3.769,3.508 5.908,8.423 5.908,13.572 v 53.745 c 1.895,0.289 3.848,0 5.85,0 1.055,0 2.096,0.076 3.123,0.068 v -47.058 c 0,-6.985 3.015,-13.706 8.447,-18.097 6.979,-5.642 13.157,-15.419 16.645,-22.085 -1.113,0.207 -2.23,0.423 -3.347,0.645 z"
   id="path19" /><path
   style="fill:#93aeb7"
   d="m 480.502,211.035 -2.469,-0.24 2.234,1.469 c -0.049,0.257 -0.131,0.519 -0.246,0.787 h -51.486 c -1.24,-2.125 -2.218,-4.474 -2.764,-6.987 -0.803,-3.698 -1.131,-7.26 -1.038,-10.406 l 4.692,-1.661 -4.485,-1.196 c 0.606,-4.889 2.393,-8.314 5.108,-8.904 1.704,-0.371 3.551,0.432 5.321,2.125 l -1.398,1.355 1.852,-0.901 c 1.218,1.278 2.404,2.966 3.474,4.977 0.191,-3.376 0.672,-6.533 1.388,-9.33 l 3.463,-0.377 -3.157,-0.743 c 1.868,-6.462 5.015,-10.712 8.587,-10.712 1.906,0 3.687,1.202 5.217,3.305 l -3.141,1.431 h 4.07 c 1.082,1.879 2.005,4.239 2.71,6.943 l -5.424,2.742 h 6.042 c 0.317,1.655 0.557,3.414 0.71,5.244 1.284,-1.617 2.606,-2.923 3.906,-3.857 l 2.016,1.278 -1.163,-1.835 c 1.704,-1.011 3.338,-1.344 4.747,-0.819 2.294,0.852 3.562,3.791 3.769,7.844 l -3.398,0.737 3.42,0.972 c -0.044,2.458 -0.437,5.233 -1.18,8.156 1.868,-2.409 3.9,-3.687 5.708,-3.283 1.622,0.361 2.294,2.649 2.852,5.473 l -2.404,0.738 h 2.524 c 0.254,1.786 0.167,3.714 -0.057,5.675 z"
   id="path20" /><path
   style="fill:#4f7e64"
   d="m 469.959,212.936 -0.24,0.115 h -2.36 l 2.152,-1.038 c 0.257,-0.126 0.563,-0.016 0.688,0.24 0.12,0.252 0.017,0.558 -0.24,0.683 z"
   id="path24" /><rect
   y="211.69901"
   style="fill:#b2c762"
   width="750"
   height="181.202"
   id="rect26"
   x="0" /><rect
   x="0.82599998"
   y="210.22636"
   style="fill:#e7dac4;stroke-width:1.01769"
   width="748.34802"
   height="51.14563"
   id="rect27" /><ellipse
   style="fill:#96aa43"
   cx="258.375"
   cy="316.69"
   rx="28.954"
   ry="3.3610001"
   id="ellipse27" /><polygon
   style="fill:#422c4f"
   points="247.716,316.949 242.656,308.719 247.716,305.572 250.078,314.597 253.115,316.949 "
   id="polygon27" /><path
   style="fill:#422c4f"
   d="m 270.019,302.56 c -0.662,0.691 -9.152,12.042 -9.152,12.042 l 1.956,2.401 h 4.301 l -1.518,-2.567 7.507,-4.471 z"
   id="path27" /><path
   style="fill:#ffffff"
   d="m 285.754,285.706 c 0,0 -4.997,5.119 -6.735,10.131 -1.738,5.012 -3.802,10.131 -16.403,10.024 -12.601,-0.107 -21.903,1.648 -25.172,-2.919 -1.172,-1.638 -3.052,-4.46 -2.485,-7.641 1.026,-5.763 7.741,-10.285 13.7,-10.201 9.326,0.131 22.481,-0.023 24.821,-1.848 z"
   id="path28" /><path
   style="fill:#e49b34;stroke-width:1.23547"
   d="m 276.34442,277.7713 c 0.812,1.63782 4.577,8.81489 8.74,9.9551 0.296,0.0809 0.451,0.56171 0.285,0.9372 l -1.783,4.02508 c -0.263,0.59529 -0.729,0.90362 -1.198,0.77693 -1.693,-0.45791 -5.846,-2.62996 -10.28,-12.83538 -0.262,-0.60445 -0.054,-1.42412 0.408,-1.62255 l 3.393,-1.4516 c 0.163,-0.0702 0.333,0.0107 0.435,0.21522 z"
   id="path29" /><g
   id="g32">
					<g
   id="g31">
						<path
   style="fill:#ffffff"
   d="m 282.89,273.044 c 0,0 4.352,0.182 6.822,4.425 2.47,4.243 5.433,2.825 6.792,4.322 1.358,1.497 0.865,6.104 -5.186,6.346 -6.051,0.242 -13.786,-0.606 -13.786,-0.606 v -10.668 l 1.807,-2.546 z"
   id="path30" />
						<path
   style="fill:#422c4f"
   d="m 297.482,281.057 c 0.54,0.731 0.515,1.652 -0.055,2.058 -0.57,0.405 -1.469,0.141 -2.009,-0.59 -0.539,-0.731 -0.515,-1.652 0.055,-2.058 0.57,-0.405 1.47,-0.141 2.009,0.59 z"
   id="path31" />
					</g>
					<path
   style="fill:#422c4f"
   d="m 282.89,273.089 c 0,0 -2.74,0.256 -3.131,4.995 -0.391,4.739 1.957,15.625 -4.827,16.265 -4.879,0.461 -5.102,-7.093 -4.842,-11.372 0.117,-1.93 0.887,-3.76 2.216,-5.187 2.334,-2.509 6.459,-5.966 10.584,-4.701 z"
   id="path32" />
				</g><path
   style="fill:#ffffff"
   d="m 276.741,297.521 c 0,0 -1.128,4.743 0.79,9.387 1.918,4.644 3.528,9.189 3.528,9.189 h -3.528 c 0,0 -7.544,-7.411 -9.154,-12.647 z"
   id="path33" /><path
   style="fill:#ffffff"
   d="m 250.361,303.351 -10.878,8.054 c -0.884,0.654 -1.609,1.512 -2.013,2.524 -0.389,0.974 -0.54,2.11 0.411,2.76 h -4.126 c 0,0 -3.002,-4.785 6.66,-15.456 z"
   id="path34" /><path
   style="fill:#ffffff"
   d="m 241.347,289.814 c 0,0 -0.749,-4.249 -6.587,-5.435 -5.838,-1.186 -9.26,-2.569 -8.958,-9.979 v 0 c -1.38,0.474 -2.416,1.621 -2.686,3.032 -0.523,2.732 -0.482,7.12 4.397,9.023 0,0 -3.523,1.285 -5.435,-0.79 v 0 c 0,1.945 1.321,3.644 3.23,4.164 2.209,0.602 5.266,0.894 8.244,-0.607 5.598,-2.822 7.347,2.273 7.347,2.273 z"
   id="path35" /><path
   style="fill:#eaa35e"
   d="m 379.402,210.391 c 0.088,0.721 0.096,1.467 -0.112,2.164 -0.289,0.954 -1.002,1.763 -1.892,2.22 -0.89,0.449 -1.948,0.553 -2.918,0.321 h -0.032 c -0.024,-0.2 -0.088,-0.409 -0.152,-0.601 -0.633,-1.876 -1.266,-3.751 -1.908,-5.627 l 0.305,-0.104 c 0.898,-0.762 1.827,-1.539 2.926,-1.964 0.842,-0.329 1.884,-0.401 2.565,0.184 0.377,0.337 0.585,0.818 0.745,1.299 0.225,0.681 0.385,1.395 0.473,2.108 z"
   id="path36" /><path
   style="fill:#468097"
   d="m 353.312,225.693 c 0.064,2.501 -0.088,4.986 -0.361,7.47 -7.855,-1.747 -15.79,-3.543 -23.045,-7.03 0.826,-2.124 1.603,-4.272 2.341,-6.428 0.377,-0.409 0.77,-0.801 1.17,-1.186 1.916,-1.811 4.288,-3.342 6.901,-3.543 0.192,0.641 0.417,1.274 0.665,1.9 0.633,1.571 1.483,3.126 2.869,4.096 1.09,0.761 2.469,1.09 3.783,0.914 2.373,-0.313 4.344,-2.292 5.018,-4.593 0.128,-0.425 0.208,-0.858 0.257,-1.299 3.423,0.425 6.893,-0.633 10.011,-2.132 3.23,-1.555 6.204,-3.575 9.426,-5.122 0.016,0.04 0.032,0.088 0.04,0.128 0.641,1.876 1.274,3.751 1.908,5.627 0.064,0.192 0.128,0.401 0.152,0.601 0.016,0.216 -0.008,0.417 -0.12,0.593 -0.104,0.152 -0.257,0.256 -0.401,0.353 -1.202,0.802 -2.413,1.603 -3.647,2.365 -5.257,3.238 -10.996,5.707 -16.967,7.286 z"
   id="path37" /><path
   style="fill:#422c4f"
   d="m 355.628,202.311 c -1.034,-0.2 -1.779,-1.154 -2.357,-2.06 -0.601,-0.962 -1.242,-2.028 -2.324,-2.397 -1.154,-0.393 -2.445,0.192 -3.286,1.066 -0.85,0.882 -1.371,2.012 -1.98,3.062 -0.24,0.409 -0.537,0.842 -0.986,0.978 -0.777,0.248 -1.515,-0.465 -1.948,-1.154 -0.168,-0.257 -0.329,-0.537 -0.577,-0.721 -0.248,-0.176 -0.617,-0.248 -0.866,-0.064 -0.192,0.144 -0.264,0.401 -0.321,0.633 -0.152,0.737 -0.208,1.515 0.04,2.22 0.241,0.705 0.826,1.331 1.563,1.459 0.008,0.112 0.016,0.232 0.024,0.345 l -0.345,0.024 c -0.609,-0.096 -1.21,-0.241 -1.795,-0.441 -0.289,-0.104 -0.585,-0.224 -0.786,-0.457 -0.2,-0.24 -0.265,-0.561 -0.353,-0.858 -0.264,-0.882 -0.818,-1.651 -1.05,-2.541 -0.257,-1.026 -0.056,-2.156 0.545,-3.022 0.609,-0.874 1.587,-1.475 2.036,-2.429 0.449,-0.946 0.313,-2.076 0.713,-3.038 0.569,-1.355 2.124,-2.092 3.591,-2.076 1.475,0.016 2.862,0.641 4.144,1.355 0.689,0.377 1.395,0.794 2.18,0.866 0.93,0.072 1.819,-0.353 2.693,-0.681 1.058,-0.393 2.22,-0.649 3.334,-0.417 1.106,0.24 2.148,1.082 2.341,2.196 0.072,0.409 0.032,0.826 0.096,1.234 0.216,1.427 1.635,2.533 1.619,3.976 -0.008,0.777 -0.433,1.475 -0.914,2.084 -0.473,0.593 -1.002,1.138 -1.587,1.619 l -0.601,-0.729 c -0.793,-0.417 -1.763,0.088 -2.653,0 -0.061,-0.007 -0.125,-0.016 -0.19,-0.032 z"
   id="path38" /><path
   style="fill:#422c4f"
   d="m 358.474,202.344 0.601,0.729 c -1.299,1.058 -2.838,1.812 -4.473,2.156 l -0.12,-0.048 c 0.409,-0.946 0.786,-1.908 1.146,-2.87 0.064,0.016 0.128,0.024 0.192,0.032 0.89,0.089 1.86,-0.416 2.654,0.001 z"
   id="path39" /><path
   style="fill:#eaa35e"
   d="m 351.893,210.744 c -0.794,1.339 -1.82,2.525 -3.286,2.837 -1.9,0.401 -3.823,-0.914 -4.761,-2.613 -0.609,-1.098 -0.89,-2.324 -1.058,-3.583 -0.08,-0.569 -0.128,-1.138 -0.176,-1.707 -0.008,-0.112 -0.016,-0.232 -0.024,-0.345 -0.737,-0.128 -1.323,-0.753 -1.563,-1.459 -0.248,-0.705 -0.192,-1.483 -0.04,-2.22 0.056,-0.232 0.128,-0.489 0.321,-0.633 0.249,-0.184 0.617,-0.112 0.866,0.064 0.248,0.184 0.409,0.465 0.577,0.721 0.433,0.689 1.17,1.403 1.948,1.154 0.449,-0.136 0.746,-0.569 0.986,-0.978 0.609,-1.05 1.13,-2.18 1.98,-3.062 0.842,-0.874 2.132,-1.459 3.286,-1.066 1.082,0.369 1.723,1.435 2.324,2.397 0.577,0.906 1.323,1.86 2.357,2.06 -0.361,0.962 -0.737,1.924 -1.146,2.87 -0.577,1.419 -1.21,2.829 -1.876,4.216 -0.218,0.449 -0.458,0.906 -0.715,1.347 z"
   id="path40" /><path
   style="fill:#422c4f"
   d="m 342.779,281.777 c -0.184,-0.048 -0.369,-0.104 -0.545,-0.168 -1.419,-0.505 -2.822,-1.01 -4.232,-1.507 4.946,-3.527 9.563,-7.518 13.771,-11.903 0.272,-0.281 0.553,-0.585 0.601,-0.978 0.016,-0.12 0.008,-0.232 -0.008,-0.345 l 0.938,-0.184 c 0.16,0.794 0.305,1.627 0.104,2.413 -0.176,0.689 -0.593,1.283 -1.002,1.86 -2.429,3.415 -4.978,6.749 -7.647,9.979 -0.289,0.353 -0.609,0.721 -1.042,0.858 -0.304,0.095 -0.625,0.063 -0.938,-0.025 z"
   id="path41" /><path
   style="fill:#422c4f"
   d="m 353.296,266.652 c 0,0.016 0.008,0.024 0.008,0.04 l -0.938,0.184 c -0.04,-0.208 -0.128,-0.409 -0.216,-0.609 -2.918,-6.733 -6.068,-13.37 -9.45,-19.878 1.403,0.088 2.805,0.12 4.208,0.096 v 0.04 c 2.861,6.444 5.009,13.209 6.388,20.127 z"
   id="path42" /><path
   style="fill:#454f6b"
   d="m 339.774,210.471 c 0.008,-0.04 0.016,-0.08 0.032,-0.12 0.377,-1.282 1.547,-2.156 2.645,-2.926 l 0.337,-0.04 c 0.168,1.258 0.449,2.485 1.058,3.583 0.938,1.699 2.862,3.014 4.761,2.613 1.467,-0.313 2.493,-1.499 3.286,-2.837 0.802,1.627 1.21,3.471 1.018,5.25 -0.048,0.441 -0.128,0.874 -0.257,1.299 -0.673,2.3 -2.645,4.28 -5.018,4.593 -1.315,0.176 -2.693,-0.152 -3.783,-0.914 -1.387,-0.97 -2.236,-2.525 -2.869,-4.096 -0.249,-0.625 -0.473,-1.258 -0.665,-1.9 -0.241,-0.794 -0.425,-1.611 -0.553,-2.437 -0.105,-0.681 -0.161,-1.394 0.008,-2.068 z"
   id="path43" /><path
   style="fill:#5a6784"
   d="m 337.722,264.295 c -2.413,-2.453 -4.641,-5.074 -6.677,-7.847 -1.491,-2.02 -2.878,-4.152 -3.743,-6.509 -0.834,-2.252 -1.162,-4.753 -0.561,-7.078 5.09,1.996 10.5,3.19 15.959,3.527 3.382,6.508 6.533,13.145 9.45,19.878 0.088,0.2 0.176,0.401 0.216,0.609 0.016,0.112 0.024,0.225 0.008,0.345 -0.048,0.393 -0.329,0.697 -0.601,0.978 -4.208,4.385 -8.825,8.376 -13.771,11.903 -0.906,0.657 -1.819,1.29 -2.749,1.9 -0.176,0.128 -0.353,0.241 -0.529,0.361 -0.176,0.112 -0.361,0.233 -0.569,0.249 -0.273,0.016 -0.521,-0.136 -0.745,-0.297 -0.305,-0.208 -0.609,-0.433 -0.906,-0.649 -2.196,-1.667 -4.144,-3.671 -5.731,-5.923 -0.112,-0.16 -0.224,-0.321 -0.337,-0.481 3.791,-3.632 7.542,-7.279 11.286,-10.966 z"
   id="path44" /><path
   style="fill:#454f6b"
   d="m 342.699,246.389 c -5.459,-0.337 -10.869,-1.531 -15.959,-3.527 -0.882,-0.345 -1.755,-0.713 -2.621,-1.106 -0.289,-0.136 -0.617,-0.329 -0.641,-0.641 -0.008,-0.16 0.064,-0.305 0.128,-0.449 2.309,-4.753 4.409,-9.603 6.3,-14.532 7.254,3.487 15.189,5.282 23.045,7.03 -0.465,4.232 -1.299,8.44 -2.132,12.632 -0.032,0.16 -0.08,0.353 -0.224,0.441 -0.088,0.056 -0.192,0.072 -0.305,0.08 -1.13,0.096 -2.252,0.152 -3.383,0.168 -1.402,0.024 -2.805,-0.008 -4.208,-0.096 z"
   id="path45" /><path
   style="fill:#4c2c20"
   d="m 343.172,285.833 c 0.072,1.242 0.088,2.541 -0.409,3.679 -0.176,0.417 -0.457,0.834 -0.882,0.954 -0.345,0.096 -0.705,-0.008 -1.026,-0.16 -1.066,-0.505 -1.812,-1.499 -2.469,-2.485 -1.218,-1.844 -2.268,-3.791 -3.134,-5.819 0.93,-0.609 1.844,-1.242 2.749,-1.9 1.411,0.497 2.813,1.002 4.232,1.507 0.176,0.064 0.361,0.12 0.545,0.168 0.186,1.347 0.322,2.701 0.394,4.056 z"
   id="path46" /><path
   style="fill:#eaa35e"
   d="m 338.724,185.631 c 0.04,0.529 -0.128,1.05 -0.289,1.555 -0.2,0.625 -0.441,1.299 -0.874,1.763 -0.048,-0.008 -0.096,-0.016 -0.136,-0.024 -1.964,-0.232 -3.944,-0.345 -5.924,-0.313 v -0.12 c -0.329,-1.154 -0.505,-2.365 -0.329,-3.551 0.176,-1.186 0.754,-2.349 1.715,-3.054 0.97,-0.713 2.349,-0.89 3.391,-0.297 0.906,0.521 1.427,1.507 1.892,2.445 0.257,0.506 0.522,1.035 0.554,1.596 z"
   id="path47" /><path
   style="fill:#468097"
   d="m 337.561,188.95 c 0.128,0.024 0.257,0.064 0.337,0.168 0.128,0.16 0.08,0.401 0.024,0.601 -1.026,3.623 -2.613,7.214 -2.453,10.981 0.144,3.262 1.595,6.308 3.014,9.258 l 2.66,6.113 c -0.665,-0.064 -2.969,5.357 -9.673,5.861 -2.012,-3.342 -4.465,-15.701 -4.32,-19.612 0.144,-4.16 1.162,-8.232 2.164,-12.264 0.104,-0.401 0.216,-0.826 0.521,-1.098 0.353,-0.305 0.866,-0.337 1.331,-0.345 0.112,0 0.224,-0.008 0.337,0 1.98,-0.032 3.96,0.08 5.924,0.313 0.038,0.008 0.086,0.016 0.134,0.024 z"
   id="path48" /><path
   style="fill:#4c2c20"
   d="m 332.913,289.784 c 0.008,0.305 -0.016,0.657 -0.273,0.826 -0.128,0.08 -0.289,0.088 -0.441,0.08 -1.154,-0.056 -2.076,-0.954 -2.829,-1.827 -2.004,-2.324 -3.719,-4.889 -5.09,-7.631 -0.257,-0.505 -0.505,-1.042 -0.489,-1.611 0.048,-1.627 2.06,-2.397 2.87,-3.799 l 0.112,-0.08 c 1.587,2.252 3.535,4.256 5.731,5.923 0.216,2.701 0.352,5.41 0.409,8.119 z"
   id="path49" /><path
   style="fill:#ffffff"
   d="m 347.273,204.339 v 0 c -1.441,-0.946 -4.261,-2.163 -4.261,-2.163 0.658,1.447 2.556,2.245 3.13,2.459 -0.421,1.762 -0.618,3.45 -0.502,4.883 -1.262,0.035 -2.628,-0.161 -2.628,-0.161 0.558,0.984 1.833,1.214 2.782,1.239 0.413,1.843 1.524,3.052 3.617,3.057 4.125,0.011 5.304,-6.268 5.304,-6.268 z"
   id="path50" /><path
   style="fill:#96aa43"
   d="m 356.779,295.924 c 0,1.856 -8.723,3.361 -19.484,3.361 -10.761,0 -19.484,-1.505 -19.484,-3.361 0,-1.856 8.724,-3.361 19.484,-3.361 10.76,0 19.484,1.505 19.484,3.361 z"
   id="path51" /><rect
   y="402.20599"
   style="fill:#e7dac4"
   width="750"
   height="97.793999"
   id="rect51"
   x="0" /><rect
   y="389.58072"
   style="fill:#96aa43;stroke-width:1.17788"
   width="750"
   height="12.625265"
   id="rect52"
   x="0" /><path
   style="fill:#82a857"
   d="m 311.17,397.999 -4.52,-0.44 4.09,2.69 c -0.09,0.47 -0.24,0.95 -0.45,1.44 h -94.25 c -2.27,-3.89 -4.06,-8.19 -5.06,-12.79 -1.47,-6.77 -2.07,-13.29 -1.9,-19.05 l 8.59,-3.04 -8.21,-2.19 c 1.11,-8.95 4.38,-15.22 9.35,-16.3 3.12,-0.68 6.5,0.79 9.74,3.89 l -2.56,2.48 3.39,-1.65 c 2.23,2.34 4.4,5.43 6.36,9.11 0.35,-6.18 1.23,-11.96 2.54,-17.08 l 6.34,-0.69 -5.78,-1.36 c 3.42,-11.83 9.18,-19.61 15.72,-19.61 3.49,0 6.75,2.2 9.55,6.05 l -5.75,2.62 h 7.45 c 1.98,3.44 3.67,7.76 4.96,12.71 l -9.93,5.02 h 11.06 c 0.58,3.03 1.02,6.25 1.3,9.6 2.35,-2.96 4.77,-5.35 7.15,-7.06 l 3.69,2.34 -2.13,-3.36 c 3.12,-1.85 6.11,-2.46 8.69,-1.5 4.2,1.56 6.52,6.94 6.9,14.36 l -6.22,1.35 6.26,1.78 c -0.08,4.5 -0.8,9.58 -2.16,14.93 3.42,-4.41 7.14,-6.75 10.45,-6.01 2.97,0.66 4.2,4.85 5.22,10.02 l -4.4,1.35 h 4.62 c 0.47,3.27 0.31,6.8 -0.1,10.39 z"
   id="path52" /><path
   style="fill:#82a857"
   d="m 86.003,280.41 -3.723,-0.367 3.431,2.261 c -0.216,1.118 -0.503,2.213 -0.879,3.243 H 23.58 c -1.522,-3.231 -2.812,-7.022 -3.711,-11.152 -0.963,-4.418 -1.354,-8.668 -1.242,-12.426 l 5.6,-1.981 -5.352,-1.43 c 0.723,-5.84 2.86,-9.93 6.099,-10.637 2.037,-0.443 4.238,0.515 6.359,2.536 l -1.678,1.622 2.213,-1.079 c 1.458,1.526 2.868,3.543 4.15,5.948 0.228,-4.034 0.803,-7.805 1.658,-11.144 l 4.134,-0.451 -3.767,-0.887 c 2.225,-7.717 5.987,-12.794 10.257,-12.794 2.269,0 4.398,1.438 6.231,3.946 l -3.755,1.714 h 4.857 c 1.294,2.237 2.396,5.057 3.239,8.288 l -6.479,3.275 h 7.214 c 0.375,1.977 0.667,4.074 0.847,6.259 1.534,-1.929 3.116,-3.487 4.665,-4.601 l 2.413,1.526 -1.39,-2.193 c 2.029,-1.21 3.982,-1.602 5.668,-0.975 2.736,1.019 4.254,4.522 4.497,9.367 l -4.058,0.883 4.09,1.154 c -0.06,2.936 -0.523,6.255 -1.41,9.746 2.229,-2.88 4.653,-4.406 6.818,-3.922 1.933,0.427 3.323,2.984 3.99,6.351 l -3.459,1.066 h 3.639 c 0.318,2.128 0.357,4.509 0.086,6.854 z"
   id="path57" /><path
   style="fill:#96aa43"
   d="m 595.98752,317.106 -5.71,-0.112 4.988,3.561 c -0.909,3.545 -2.385,7.394 -4.4,11.265 h -26.454 -1.663 -36.238 l 3.678,-3.347 -6.795,-0.412 c -0.508,-1.984 -0.609,-4.208 -0.406,-6.453 l 4.042,-1.256 -3.791,-0.7 c 0.401,-2.4 1.117,-4.742 2.032,-6.768 l 3.609,1.037 -3.128,-2.042 c 1.62,-3.149 3.727,-5.282 5.769,-5.159 2.278,0.139 4.245,2.342 5.641,5.828 0.112,-3.71 0.594,-7.132 1.374,-10.057 l 4.379,0.016 -3.769,-2.026 c 1.625,-4.732 4.122,-7.774 7.127,-8.004 1.85,-0.144 3.668,0.802 5.341,2.577 l -2.005,1.78 2.823,-0.829 c 1.224,1.55 2.347,3.545 3.315,5.892 0.802,-2.112 1.684,-4.111 2.625,-5.967 l 7.148,2.053 -5.485,-5.085 c 1.754,-2.962 3.646,-5.448 5.566,-7.298 l 4.817,1.385 -3.235,-2.764 c 2.529,-1.967 5.047,-2.785 7.298,-2.139 4.229,1.214 6.512,7.314 6.523,15.596 l -3.983,-0.187 3.967,1.62 c -0.107,3.555 -0.604,7.458 -1.529,11.516 1.951,-2.021 3.924,-3.614 5.806,-4.71 l 1.887,1.7 -1.203,-2.085 c 2.679,-1.401 5.133,-1.727 7.025,-0.706 3.009,1.619 3.96,6.286 3.014,12.28 z"
   id="path60" /><path
   style="fill:#96aa43"
   d="m 203.969,304.409 c -0.069,-0.012 -0.122,-0.036 -0.166,-0.065 -14.874,0.409 -29.757,0.712 -44.639,0.911 -0.109,0.093 -0.263,0.121 -0.421,0.008 -0.004,-0.004 -0.004,-0.004 -0.008,-0.008 -0.19,-0.008 -0.308,-0.129 -0.344,-0.279 -2.744,-2.299 -3.052,-6.581 -1.643,-9.746 2.279,-5.112 7.119,-1.923 10.827,-0.53 -1.145,-2.89 -1.692,-5.958 -1.421,-9.078 0.154,-1.793 0.672,-4.302 2.647,-4.958 2.129,-0.708 4.278,1.376 5.488,2.87 1.744,2.145 2.853,4.707 4.517,6.909 0.716,-4.881 4.399,-11.321 9.989,-10.596 6.427,0.83 3.902,9.738 2.768,14.332 3.181,-2.181 7.621,-5.456 11.381,-3.392 1.497,0.822 2.101,2.42 1.862,4.072 -0.247,1.712 -1.344,3.019 -2.59,4.145 2.934,-0.749 7.342,-1.518 8.184,1.538 0.939,3.41 -4.185,4.24 -6.431,3.867 z"
   id="path65" /><path
   style="fill:#96aa43"
   d="m 714.981,292.123 c -0.069,-0.012 -0.121,-0.036 -0.166,-0.065 -14.874,0.409 -29.757,0.712 -44.639,0.911 -0.109,0.093 -0.263,0.121 -0.421,0.008 -0.004,-0.004 -0.004,-0.004 -0.008,-0.008 -0.19,-0.008 -0.308,-0.129 -0.344,-0.279 -2.744,-2.299 -3.052,-6.581 -1.643,-9.746 2.279,-5.112 7.119,-1.923 10.827,-0.53 -1.145,-2.89 -1.692,-5.958 -1.421,-9.078 0.154,-1.793 0.672,-4.302 2.647,-4.958 2.129,-0.708 4.278,1.376 5.488,2.87 1.744,2.145 2.853,4.707 4.517,6.909 0.716,-4.881 4.4,-11.321 9.989,-10.596 6.427,0.83 3.902,9.738 2.768,14.332 3.181,-2.181 7.621,-5.456 11.381,-3.392 1.497,0.822 2.101,2.42 1.862,4.072 -0.247,1.712 -1.344,3.019 -2.59,4.145 2.934,-0.749 7.342,-1.518 8.184,1.538 0.939,3.41 -4.185,4.24 -6.431,3.867 z"
   id="path66" /><path
   style="fill:#bd6c67"
   d="m 473.502,249.007 c 0.182,0.333 0.174,0.727 0.167,1.106 -0.03,1.235 -0.061,2.47 -0.083,3.705 -0.015,0.47 -0.03,0.962 -0.235,1.387 -0.296,0.629 -0.947,1.008 -1.591,1.281 -1.909,0.796 -4.076,0.94 -6.069,0.409 -0.015,-0.121 -0.038,-0.235 -0.061,-0.356 -0.25,-1.44 -0.508,-2.879 -0.758,-4.311 2.394,-1.038 4.16,-3.402 6.728,-3.834 0.697,-0.122 1.553,-0.008 1.902,0.613 z"
   id="path67" /><path
   style="fill:#bd6c67"
   d="m 402.551,285.073 c -0.727,1.455 -0.689,3.258 -1.508,4.69 -0.553,0.97 -1.447,1.682 -2.356,2.319 -0.583,0.402 -1.19,0.796 -1.864,0.992 -0.682,0.197 -1.447,0.19 -2.053,-0.174 -0.962,-0.583 -1.25,-1.909 -0.947,-2.993 0.303,-1.083 1.061,-1.978 1.826,-2.803 1.333,-1.47 2.758,-2.894 3.773,-4.599 1.023,0.886 2.061,1.742 3.129,2.568 z"
   id="path68" /><path
   style="fill:#bd6c67"
   d="m 420.448,257.342 c 0.068,-0.523 0.129,-1.038 0.197,-1.553 -0.94,-0.083 -1.864,-0.333 -2.72,-0.727 -0.636,-0.288 -1.243,-0.667 -1.69,-1.197 -0.492,-0.583 -0.758,-1.326 -0.97,-2.061 -0.242,-0.871 -0.409,-1.766 -0.5,-2.66 -0.22,-2.16 -0.008,-4.357 0.636,-6.425 l 0.053,-0.076 c 0.212,0.174 0.455,0.333 0.697,0.462 1.455,0.773 3.22,0.94 4.789,0.439 0.553,-0.174 1.083,-0.424 1.652,-0.553 0.568,-0.121 1.205,-0.091 1.674,0.25 0.379,0.28 0.599,0.735 0.758,1.182 0.326,0.94 0.44,1.947 0.735,2.902 0.288,0.955 0.811,1.902 1.69,2.372 0.508,-0.652 1.015,-1.303 1.523,-1.955 0.099,-0.121 0.205,-0.25 0.349,-0.303 0.447,-0.159 0.758,0.447 0.796,0.909 0.091,1.159 -0.197,2.303 -0.409,3.447 -0.136,0.727 -0.235,1.455 -0.303,2.182 -0.068,0.705 -0.106,1.409 -0.106,2.114 -0.008,0.439 0,0.879 0.015,1.318 l 0.106,0.083 c 0,0.008 -0.008,0.015 -0.015,0.023 -0.879,1.106 -1.811,2.25 -3.122,2.758 -1.894,0.727 -4.091,-0.099 -5.592,-1.462 -0.114,-0.106 -0.227,-0.212 -0.288,-0.356 -0.076,-0.174 -0.053,-0.371 -0.023,-0.561 0.023,-0.181 0.045,-0.37 0.068,-0.552 z"
   id="path69" /><path
   style="fill:#edc75e"
   d="m 465.69,256.895 c 0.023,0.197 0.023,0.386 -0.03,0.576 -0.212,0.811 -1.205,1.076 -2.038,1.212 -8.009,1.341 -15.851,3.751 -23.238,7.138 2.47,11.866 6.115,23.481 10.858,34.642 l 0.091,0.182 c -1.894,1.023 -3.864,1.887 -5.872,2.637 -3.417,1.281 -6.971,2.228 -10.555,3.053 -0.758,0.174 -1.515,0.341 -2.281,0.508 -1.159,0.25 -2.326,0.5 -3.485,0.743 -2.175,0.462 -4.38,0.924 -6.6,0.947 -0.492,0.008 -0.985,-0.008 -1.477,-0.045 -0.25,-0.023 -0.515,-0.053 -0.712,-0.205 -0.379,-0.273 -0.394,-0.811 -0.387,-1.28 0.326,-11.04 -0.379,-22.109 -2.099,-33.02 -0.174,-1.083 -0.356,-2.175 -0.568,-3.258 -0.743,-3.902 -1.826,-7.728 -3.872,-11.108 0.402,-0.121 0.834,-0.174 1.25,-0.235 2.031,-0.296 4.001,-0.993 5.774,-2.038 -0.023,0.182 -0.046,0.371 -0.068,0.553 -0.03,0.189 -0.053,0.386 0.023,0.561 0.061,0.144 0.174,0.25 0.288,0.356 1.5,1.364 3.698,2.19 5.592,1.462 1.311,-0.508 2.243,-1.652 3.122,-2.758 0.008,-0.008 0.015,-0.015 0.015,-0.023 l -0.106,-0.083 c -0.015,-0.44 -0.023,-0.879 -0.015,-1.318 h 0.023 c 3.273,-0.114 6.516,-0.606 9.751,-1.106 8.532,-1.318 17.056,-2.629 25.587,-3.94 0.068,0.394 0.144,0.788 0.205,1.182 h 0.008 c 0.25,1.432 0.508,2.872 0.758,4.311 0.02,0.119 0.043,0.232 0.058,0.354 z"
   id="path70" /><path
   style="fill:#422c4f"
   d="m 448.187,305.198 c 0.909,2.591 0.781,5.418 0.644,8.16 -0.053,1.061 -0.121,2.167 -0.652,3.076 -0.424,0.735 -1.364,1.311 -2.106,0.894 -0.235,-0.136 -0.417,-0.356 -0.583,-0.576 -0.508,-0.652 -0.985,-1.326 -1.424,-2.023 0.053,-0.053 0.099,-0.114 0.152,-0.167 1.371,-1.553 1.947,-3.682 1.978,-5.758 0.023,-1.47 -0.197,-2.917 -0.493,-4.357 0.311,-0.038 0.621,-0.083 0.932,-0.129 0.364,-0.046 0.758,-0.091 1.061,0.106 0.256,0.175 0.385,0.478 0.491,0.774 z"
   id="path71" /><path
   style="fill:#bd6c67"
   d="m 445.702,304.448 c 0.296,1.44 0.515,2.887 0.493,4.357 -0.03,2.076 -0.606,4.205 -1.978,5.758 -0.053,0.053 -0.099,0.114 -0.152,0.167 -0.508,0.523 -1.114,0.955 -1.811,1.137 -1.061,0.265 -2.205,-0.098 -3.076,-0.758 -0.871,-0.659 -1.5,-1.584 -2.038,-2.538 -1.046,-1.864 -1.788,-3.895 -2.182,-5.993 l -0.053,-0.242 c 3.584,-0.826 7.137,-1.773 10.555,-3.053 0.083,0.384 0.166,0.778 0.242,1.165 z"
   id="path72" /><path
   style="fill:#422c4f"
   d="m 415.455,242.643 -0.053,0.076 c -0.644,2.068 -0.856,4.266 -0.636,6.425 -1.508,-1.788 -2.622,-3.91 -3.243,-6.16 -0.265,-0.947 -0.447,-1.94 -0.296,-2.917 0.349,-2.334 2.47,-4.008 4.645,-4.94 2.167,-0.924 4.554,-1.371 6.592,-2.569 2.478,-1.462 4.289,-3.932 6.903,-5.145 2.22,-1.023 5.114,-0.909 6.85,0.818 1.674,1.659 1.887,4.289 1.682,6.637 -0.136,1.546 -0.394,3.175 0.25,4.584 0.727,1.591 2.478,2.561 3.106,4.19 0.424,1.091 0.273,2.341 -0.189,3.41 -0.462,1.076 -1.22,2 -2.016,2.849 -1.78,1.909 -3.925,3.607 -6.471,4.205 -1.046,0.242 -2.205,0.273 -3.175,-0.129 0.068,-0.727 0.167,-1.455 0.303,-2.182 0.212,-1.144 0.5,-2.288 0.409,-3.447 -0.038,-0.462 -0.349,-1.068 -0.796,-0.909 -0.144,0.053 -0.25,0.182 -0.349,0.303 -0.508,0.652 -1.015,1.303 -1.523,1.955 -0.879,-0.47 -1.402,-1.417 -1.69,-2.372 -0.295,-0.955 -0.409,-1.962 -0.735,-2.902 -0.159,-0.447 -0.379,-0.902 -0.758,-1.182 -0.47,-0.341 -1.106,-0.371 -1.674,-0.25 -0.568,0.129 -1.099,0.379 -1.652,0.553 -1.569,0.5 -3.334,0.333 -4.789,-0.439 -0.24,-0.129 -0.483,-0.288 -0.695,-0.462 z"
   id="path73" /><path
   style="fill:#422c4f"
   d="m 428.48,319.374 c 2.553,-0.75 4.622,-2.97 5.198,-5.569 h -0.288 c -0.015,-0.159 0.053,-0.303 0.167,-0.417 0.174,-0.167 0.477,-0.25 0.727,-0.174 0.409,0.114 0.69,0.47 0.94,0.811 1.106,1.462 2.205,2.932 3.311,4.395 0.333,0.447 0.667,0.902 0.856,1.424 0.22,0.621 0.205,1.296 0.189,1.955 -0.106,3.129 -0.386,6.259 -0.849,9.358 -0.091,0.591 -0.197,1.197 -0.553,1.682 -0.348,0.477 -1.03,0.773 -1.561,0.5 -0.318,-0.167 -0.515,-0.485 -0.682,-0.803 -0.735,-1.371 -1.197,-2.887 -1.371,-4.432 -0.091,-0.834 -0.144,-1.773 -0.765,-2.326 -0.371,-0.333 -0.871,-0.462 -1.341,-0.606 -1.485,-0.455 -2.879,-1.197 -4.084,-2.174 -0.273,-0.22 -0.538,-0.455 -0.712,-0.758 -0.523,-0.924 -0.015,-2.076 0.508,-3.008 0.098,0.051 0.204,0.097 0.31,0.142 z"
   id="path74" /><path
   style="fill:#bd6c67"
   d="m 428.169,319.23 c -0.5,-0.258 -0.962,-0.583 -1.424,-0.909 -1,-0.72 -2,-1.432 -3,-2.144 -0.371,-0.265 -0.75,-0.538 -0.962,-0.939 -0.227,-0.424 -0.235,-0.924 -0.235,-1.409 0,-1.758 0,-3.531 -0.008,-5.296 2.22,-0.023 4.425,-0.485 6.6,-0.947 1.159,-0.242 2.326,-0.492 3.485,-0.743 -0.356,0.765 -0.705,1.531 -1.053,2.296 -0.129,0.28 -0.265,0.576 -0.227,0.879 0.03,0.28 0.197,0.523 0.364,0.758 0.614,0.871 1.235,1.743 1.849,2.614 -0.114,0.114 -0.182,0.258 -0.167,0.417 h 0.288 c -0.576,2.599 -2.644,4.819 -5.198,5.569 -0.107,-0.047 -0.213,-0.093 -0.312,-0.146 z"
   id="path75" /><path
   style="fill:#edc75e"
   d="m 402.551,285.073 c -1.068,-0.826 -2.106,-1.682 -3.129,-2.569 -0.008,0 -0.015,-0.008 -0.023,-0.015 -0.197,-0.174 -0.394,-0.349 -0.5,-0.576 -0.326,-0.682 0.227,-1.44 0.735,-2 3.19,-3.523 5.978,-7.403 8.312,-11.54 1.288,-2.273 2.425,-4.63 3.652,-6.94 0.311,-0.576 0.644,-1.174 1.19,-1.531 0.197,-0.129 0.409,-0.22 0.636,-0.288 2.046,3.379 3.129,7.206 3.872,11.108 -4.205,4.955 -8.395,9.918 -12.6,14.874 -0.159,0.182 -0.333,0.379 -0.568,0.417 -0.265,0.038 -0.515,-0.129 -0.727,-0.288 -0.289,-0.212 -0.569,-0.432 -0.85,-0.652 z"
   id="path76" /><path
   style="fill:#ffffff"
   d="M 414.942,250.381 426.125,250 c 0,0 0.375,4.196 -3.964,5.643 -4.34,1.446 -8.117,-2.435 -7.219,-5.262 z"
   id="path77" /><polygon
   style="fill:#ffffff"
   points="425.107,250.5 427.411,248.143 427.742,249.321 426.126,250.5 "
   id="polygon77" /><path
   style="fill:#ffffff"
   d="m 425.643,251.594 c 0,0 2.825,0.801 4.064,0.202 l 0.426,1.544 c 0,0 -2.395,0.68 -4.491,-1.286 v -0.46 z"
   id="path78" /><ellipse
   style="fill:#96aa43"
   cx="445.005"
   cy="337.841"
   rx="18.121"
   ry="2.869"
   id="ellipse78" /><g
   id="g82">
					<polygon
   style="fill:#ebc27d"
   points="262.451,68.853 266.09,88.111 278.931,88.111 282.57,68.853 "
   id="polygon80" />
					<path
   style="fill:#422c4f"
   d="m 283.483,70.31 h -22.068 c -0.805,0 -1.457,-0.652 -1.457,-1.457 v 0 c 0,-0.805 0.652,-1.457 1.457,-1.457 h 22.068 c 0.805,0 1.457,0.653 1.457,1.457 v 0 c 0,0.805 -0.652,1.457 -1.457,1.457 z"
   id="path80" />
					<path
   style="fill:#422c4f"
   d="m 279.316,89.568 h -13.735 c -0.805,0 -1.457,-0.652 -1.457,-1.457 v 0 c 0,-0.805 0.652,-1.457 1.457,-1.457 h 13.735 c 0.805,0 1.457,0.652 1.457,1.457 v 0 c 0,0.805 -0.652,1.457 -1.457,1.457 z"
   id="path81" />
					<path
   style="fill:#422c4f"
   d="m 273.519,62.47 h -1.884 c -2.957,0 -5.355,2.397 -5.355,5.355 v 0 h 12.593 v 0 c 0.001,-2.958 -2.396,-5.355 -5.354,-5.355 z"
   id="path82" />
				</g><rect
   x="271.53601"
   y="66.195999"
   style="fill:#422c4f"
   width="2.0829999"
   height="22.09"
   id="rect82" /><rect
   x="270.56201"
   y="88.286003"
   style="fill:#422c4f"
   width="4.4239998"
   height="139.03799"
   id="rect83" /><path
   style="fill:#422c4f"
   d="m 272.602,222.925 v 0 c -2.584,0 -4.678,2.094 -4.678,4.678 v 35.196 h 9.356 v -35.196 c 0,-2.583 -2.094,-4.678 -4.678,-4.678 z"
   id="path83" /><ellipse
   style="fill:#ccb697"
   cx="581.64697"
   cy="250.08099"
   rx="96.647003"
   ry="5.875"
   id="ellipse84" /><path
   style="fill:#f2c9ad"
   d="m 607.168,152.094 c -0.049,0.889 0.247,1.763 0.55,2.603 0.423,1.157 0.889,2.321 1.651,3.287 0.762,0.959 1.869,1.714 3.096,1.777 0.889,-1.538 1.841,-3.04 2.843,-4.507 -1.488,-1.636 -2.751,-3.463 -3.767,-5.438 -0.176,-0.346 -0.381,-0.727 -0.741,-0.868 -0.198,-0.077 -0.409,-0.07 -0.614,-0.049 -1.579,0.183 -2.927,1.608 -3.018,3.195 z"
   id="path84" /><path
   style="fill:#f2c9ad"
   d="m 623.123,138.297 c 0,0 1.509,6.835 1.756,6.757 4.156,2.038 5.833,-3.026 7.977,-4.796 -0.578,0.056 -2.885,-5.375 -2.948,-5.96 -0.071,-0.649 0.416,-1.206 0.734,-1.778 0.416,-0.762 0.543,-1.679 0.353,-2.525 -0.099,-0.444 -0.282,-0.882 -0.607,-1.199 -0.487,-0.494 -1.277,-0.649 -1.926,-0.423 -0.395,0.903 -0.917,1.742 -1.545,2.497 -0.303,0.374 -0.776,0.755 -1.213,0.55 -0.183,-0.085 -0.31,-0.261 -0.402,-0.444 -0.917,-1.7 0.049,-3.781 -0.085,-5.699 -0.035,-0.416 -0.12,-0.839 -0.367,-1.171 -0.444,-0.586 -1.242,-0.734 -1.954,-0.917 -0.169,-0.042 -0.339,-0.092 -0.501,-0.148 -1.488,2.814 -2.229,5.217 -3.718,8.031 0.677,0.24 0.6,0.892 1.277,1.139 0.183,0.063 0.381,0.134 0.508,0.282 0.148,0.169 0.176,0.409 0.19,0.635 0.085,1.171 -0.092,2.377 0.296,3.484 0.32,0.93 1.258,1.742 2.175,1.685 z"
   id="path85" /><path
   style="fill:#422c4f"
   d="m 594.316,243.741 c -0.444,0.155 -0.966,0.571 -0.748,0.995 0.078,0.148 0.233,0.233 0.374,0.317 5.121,2.85 10.785,4.719 16.597,5.481 0.79,0.106 1.622,0.183 2.363,-0.113 1.164,-0.458 1.806,-1.7 2.137,-2.906 0.331,-1.199 0.458,-2.483 1.051,-3.576 l 0.042,-0.113 c -2.321,-0.867 -4.606,-1.848 -6.835,-2.941 -2.109,1.058 -4.416,1.728 -6.757,1.961 -2.757,0.267 -5.621,-0.043 -8.224,0.895 z"
   id="path86" /><path
   style="fill:#422c4f"
   d="m 609.298,240.884 c 2.229,1.093 4.514,2.074 6.835,2.941 0.339,0.134 0.677,0.261 1.016,0.381 l 0.042,-0.113 c 5.466,-14.037 10.771,-28.13 15.913,-42.293 -1.531,-6.024 -2.836,-12.104 -3.901,-18.226 v -0.035 c -2.003,-0.092 -4.006,-0.317 -5.981,-0.677 l -0.021,0.113 c -5.833,18.918 -7.808,38.95 -14.82,57.458 0.303,0.155 0.606,0.31 0.917,0.451 z"
   id="path87" /><path
   style="fill:#bc91c6"
   d="m 612.465,159.761 c -0.219,0.36 -0.43,0.727 -0.635,1.093 -0.388,0.691 -0.769,1.524 -0.451,2.243 0.176,0.388 0.515,0.663 0.854,0.917 2.913,2.25 6.003,4.281 9.226,6.052 0.31,0.176 0.621,0.346 0.938,0.515 1.707,0.91 3.491,1.763 5.417,1.933 1.171,0.099 2.455,-0.113 3.252,-0.973 0.416,-0.444 0.656,-1.023 0.882,-1.587 2.956,-7.392 5.255,-15.052 6.856,-22.854 l 0.021,-0.007 c -0.515,-1.185 -0.952,-2.412 -1.58,-3.541 -0.924,-1.672 -2.511,-3.202 -4.387,-3.294 -2.517,1.249 -3.054,3.308 -4.945,4.507 -0.36,0.226 -0.769,0.458 -1.185,0.592 l 0.014,0.254 c -0.995,0.24 -1.375,1.425 -1.573,2.419 -0.663,3.407 -1.192,6.835 -1.573,10.277 -0.748,-0.162 -1.481,-0.402 -2.187,-0.705 -1.721,-0.741 -3.266,-1.883 -4.465,-3.322 -0.169,-0.198 -0.409,-0.43 -0.649,-0.331 -0.106,0.042 -0.183,0.141 -0.247,0.24 -0.247,0.353 -0.494,0.705 -0.741,1.065 -1.001,1.467 -1.953,2.969 -2.842,4.507 z"
   id="path88" /><path
   style="fill:#8e569c"
   d="m 642.696,181.592 c 0.861,-0.465 1.636,-1.044 2.278,-1.77 -2.222,-9.565 -4.74,-30.119 -5.121,-30.718 -0.409,-0.635 -0.733,-1.319 -1.03,-2.01 l -0.021,0.007 c -1.601,7.801 -3.901,15.461 -6.856,22.854 -0.226,0.564 -0.466,1.143 -0.882,1.587 -0.797,0.861 -2.081,1.072 -3.252,0.973 -1.926,-0.169 -3.71,-1.023 -5.417,-1.933 -0.317,-0.169 -0.628,-0.339 -0.938,-0.515 -0.021,4.07 -1.552,8.062 -1.298,12.132 1.009,0.261 2.031,0.48 3.061,0.663 1.975,0.36 3.978,0.585 5.981,0.677 2.497,0.113 5.008,0.021 7.498,-0.275 2.054,-0.247 4.199,-0.706 5.997,-1.672 z"
   id="path89" /><path
   style="fill:#96430b"
   d="m 633.583,133.846 c 1.065,-0.43 2.038,-1.093 2.793,-1.961 1.263,-1.446 1.869,-3.492 1.425,-5.361 -0.444,-1.869 -1.996,-3.477 -3.886,-3.816 -0.169,-0.035 -0.36,-0.057 -0.494,-0.176 -0.134,-0.12 -0.183,-0.31 -0.233,-0.487 -0.282,-1.093 -0.783,-2.25 -1.799,-2.744 -1.016,-0.494 -2.208,-0.19 -3.322,-0.028 -1.425,0.197 -2.878,0.148 -4.281,-0.155 -1.086,-0.24 -2.384,-0.571 -3.188,0.198 -0.663,0.635 -0.585,1.785 -0.035,2.518 0.444,0.592 1.122,0.959 1.834,1.206 0.162,0.056 0.331,0.106 0.501,0.148 0.712,0.183 1.509,0.331 1.954,0.917 0.247,0.331 0.331,0.755 0.367,1.171 0.134,1.919 -0.832,3.999 0.085,5.699 0.092,0.183 0.219,0.36 0.402,0.444 0.437,0.204 0.91,-0.176 1.213,-0.55 0.628,-0.755 1.15,-1.594 1.545,-2.497 0.649,-0.226 1.439,-0.071 1.926,0.423 0.324,0.317 0.508,0.755 0.607,1.199 0.19,0.846 0.064,1.763 -0.353,2.525 -0.317,0.571 -0.804,1.129 -0.734,1.778 0.063,0.585 0.649,1.044 1.227,0.987 0.007,0.007 0.007,0.007 0.007,0 0.388,-0.31 0.762,-0.642 1.121,-0.98 l -0.007,-0.035 c 0.451,-0.105 0.895,-0.239 1.325,-0.423 z"
   id="path90" /><path
   style="fill:#8e569c"
   d="m 624.378,145.146 c -1.481,4.006 -2.483,8.203 -2.97,12.457 0.705,0.303 1.439,0.543 2.187,0.705 0.381,-3.442 0.91,-6.87 1.573,-10.277 0.198,-0.995 0.578,-2.18 1.573,-2.419 l -0.014,-0.254 c -0.487,0.162 -0.987,0.197 -1.446,-0.021 -0.148,-0.078 -0.282,-0.169 -0.402,-0.282 z"
   id="path91" /><path
   style="fill:#454f6b"
   d="m 663.892,239.233 c 0.36,-0.31 0.698,-0.642 1.016,-0.995 l 0.071,-0.042 c -4.324,-6.842 -8.641,-13.698 -12.964,-20.547 -0.945,-1.495 -1.89,-3.005 -2.56,-4.648 -0.79,-1.94 -1.164,-4.028 -1.601,-6.08 -1.792,-8.436 -4.677,-16.731 -5.156,-25.329 -1.799,0.966 -3.943,1.425 -5.996,1.672 -2.49,0.296 -5.001,0.388 -7.498,0.275 v 0.035 c 1.065,6.122 2.37,12.203 3.901,18.226 1.044,4.119 2.194,8.217 3.463,12.273 h 0.007 c 5.586,9.84 13.423,18.283 18.727,28.278 0.727,0.021 1.453,-0.028 2.172,-0.141 2.355,-0.367 4.613,-1.411 6.418,-2.977 z"
   id="path92" /><path
   style="fill:#422c4f"
   d="m 646.569,252.106 c -0.127,0.169 -0.247,0.36 -0.233,0.571 0.014,0.318 0.31,0.536 0.578,0.698 2.758,1.615 6.186,1.432 9.346,0.945 2.088,-0.324 4.162,-0.769 6.2,-1.319 1.382,-0.374 2.969,-1.023 3.287,-2.419 0.127,-0.543 0.021,-1.1 -0.078,-1.65 -0.593,-3.23 -1.185,-6.468 -1.778,-9.699 -1.806,1.566 -4.063,2.61 -6.419,2.977 l 0.014,0.085 c -1.904,2.85 -4.43,5.283 -7.343,7.082 -1.282,0.796 -2.685,1.509 -3.574,2.729 z"
   id="path93" /><g
   id="g99">
					<path
   style="fill:#cc8f4e"
   d="m 505.953,224.967 c -1.145,-1.969 -2.278,-3.925 -4.093,-5.23 0.09,0 0.18,-0.017 0.27,-0.056 0.472,-0.206 0.528,-0.837 0.562,-1.347 0.039,-0.515 0.275,-1.154 0.789,-1.15 0.202,0 0.39,0.116 0.588,0.146 0.605,0.099 1.081,-0.536 1.197,-1.137 0.112,-0.601 0.021,-1.24 0.24,-1.806 0.468,-1.201 2.175,-1.742 2.269,-3.029 0.073,-0.987 -0.91,-1.81 -0.871,-2.801 0.026,-0.759 0.631,-1.347 1.141,-1.905 0.506,-0.562 0.982,-1.33 0.703,-2.033 -0.133,-0.326 -0.403,-0.575 -0.566,-0.884 -0.159,-0.313 -0.15,-0.777 0.163,-0.931 -0.107,-0.103 -0.223,-0.197 -0.348,-0.283 11.613,1.626 23.441,1.665 35.058,0.116 2.951,-0.395 5.98,-0.884 8.867,-0.159 1.759,0.442 3.38,1.321 5.114,1.853 5.53,1.695 11.592,-0.326 16.396,-3.544 4.801,-3.213 8.726,-7.559 13.183,-11.24 0.867,-0.716 2.227,-1.394 2.995,-0.571 0.459,0.485 0.403,1.244 0.305,1.9 -0.678,4.449 -2.235,8.756 -4.552,12.608 -1.883,3.132 -4.415,6.07 -7.816,7.4 -5.508,2.158 -11.635,-0.356 -17.01,-2.836 1.137,5.122 2.274,10.305 2.132,15.547 -0.06,2.136 -0.3,4.419 0.734,6.289 0.639,1.154 1.699,2.012 2.51,3.054 3.166,4.067 1.943,10.112 -0.764,14.5 -0.365,0.592 -0.841,1.227 -1.531,1.326 -1.167,0.163 -1.918,-1.351 -1.673,-2.501 0.245,-1.154 1.047,-2.111 1.407,-3.23 0.905,-2.827 -1.257,-5.783 -3.801,-7.306 -2.535,-1.51 -5.508,-2.179 -7.988,-3.775 -0.013,-0.009 -0.03,-0.017 -0.043,-0.026 -3.106,-2.016 -5.204,-5.513 -5.526,-9.202 -2.218,-0.245 -4.384,0.566 -6.328,1.755 -0.592,0.365 -1.163,0.759 -1.707,1.176 -2.368,1.806 -4.496,3.981 -7.16,5.311 -1.377,0.686 -2.861,1.128 -4.251,1.78 -1.39,0.656 -2.729,1.579 -3.466,2.926 -0.746,1.368 -0.785,2.99 -0.952,4.539 -0.214,2.025 -0.674,4.024 -1.36,5.942 -0.335,0.944 -0.742,1.888 -1.39,2.651 -1.75,2.068 -4.775,2.368 -7.477,2.523 -0.481,0.026 -1.085,-0.026 -1.253,-0.476 -0.112,-0.309 0.056,-0.643 0.253,-0.905 0.558,-0.746 1.369,-1.257 2.029,-1.922 2.278,-2.304 2.359,-5.929 2.291,-9.172 -0.03,-1.51 -0.077,-3.076 -0.751,-4.427 -0.618,-1.24 -1.673,-2.132 -2.793,-2.981 -0.871,-0.656 -1.776,-1.287 -2.557,-2.034 -1.303,-1.256 -2.243,-2.852 -3.169,-4.443 z"
   id="path94" />
					<path
   style="fill:#ba7538"
   d="m 551.564,231.955 -0.056,0.094 c -0.197,3.423 -0.536,6.911 -1.939,10.039 -1.398,3.127 -4.05,5.882 -7.405,6.572 -0.742,0.15 -1.767,0.004 -1.87,-0.742 -0.051,-0.386 0.193,-0.742 0.433,-1.051 1.793,-2.312 4.02,-4.595 4.277,-7.512 0.455,-5.217 -5.616,-9.327 -5.14,-14.543 l -0.197,-0.33 c 1.943,-1.188 4.11,-1.999 6.328,-1.755 0.322,3.689 2.419,7.186 5.526,9.202 0.013,0.009 0.03,0.017 0.043,0.026 z"
   id="path95" />
					<path
   style="fill:#ba7538"
   d="m 509.123,229.411 c 0.781,0.747 1.686,1.377 2.557,2.034 -2.84,3.496 -5.903,6.804 -9.168,9.906 -1.686,1.605 -3.436,3.162 -5.414,4.397 -1.973,1.235 -4.187,2.145 -6.508,2.351 -0.549,0.047 -1.128,0.051 -1.622,-0.193 -0.493,-0.244 -0.875,-0.802 -0.742,-1.338 0.094,-0.403 0.442,-0.691 0.772,-0.94 1.223,-0.901 2.565,-1.63 3.81,-2.501 3.655,-2.544 6.383,-6.178 8.949,-9.82 1.806,-2.565 3.599,-5.264 4.196,-8.34 0.926,1.591 1.866,3.187 3.17,4.444 z"
   id="path96" />
					<path
   style="fill:#ba7538"
   d="m 489.483,204.13 c -0.425,2.668 -1.077,5.302 -1.939,7.859 -0.27,0.798 -0.566,1.634 -0.425,2.467 0.189,1.094 1.137,1.952 2.201,2.278 1.064,0.322 2.218,0.189 3.29,-0.103 1.214,-0.326 2.467,-0.948 2.99,-2.094 0.485,-1.055 0.232,-2.287 -0.086,-3.402 -0.309,-1.098 -0.678,-2.188 -1.085,-3.256 -0.558,-1.454 -1.227,-2.926 -2.372,-3.981 -0.386,-0.36 -0.879,-0.682 -1.407,-0.626 -0.506,0.052 -0.875,0.42 -1.167,0.858 z m 18.516,-1.609 c 0.124,0.086 0.24,0.18 0.348,0.283 -0.313,0.154 -0.322,0.618 -0.163,0.931 0.163,0.309 0.433,0.558 0.566,0.884 0.279,0.704 -0.197,1.471 -0.703,2.033 -0.511,0.558 -1.115,1.146 -1.141,1.905 -0.039,0.991 0.944,1.815 0.871,2.801 -0.094,1.287 -1.802,1.827 -2.269,3.029 -0.219,0.566 -0.129,1.205 -0.24,1.806 -0.116,0.601 -0.592,1.236 -1.197,1.137 -0.197,-0.03 -0.386,-0.146 -0.588,-0.146 -0.515,-0.004 -0.751,0.635 -0.789,1.15 -0.034,0.51 -0.09,1.141 -0.562,1.347 -0.09,0.039 -0.18,0.056 -0.27,0.056 -0.378,0 -0.759,-0.292 -1.072,-0.545 -2.454,-1.969 -6.019,-2.441 -8.902,-1.175 -1.077,0.472 -2.154,1.18 -3.316,1.012 -0.948,-0.137 -1.767,-0.922 -1.948,-1.862 -0.034,-0.176 -0.052,-0.369 -0.172,-0.502 -0.232,-0.257 -0.648,-0.129 -0.965,0.004 -1.261,0.528 -2.643,0.824 -4.003,0.665 -1.356,-0.163 -2.685,-0.806 -3.513,-1.896 -0.3,-0.395 -0.536,-0.871 -0.515,-1.369 0.039,-0.931 0.918,-1.561 1.66,-2.132 1.724,-1.334 3.11,-3.102 3.994,-5.092 0.682,-1.527 1.103,-3.23 2.248,-4.449 1.047,-1.111 2.587,-1.656 4.105,-1.798 1.523,-0.137 3.05,0.09 4.565,0.317 2.312,0.352 4.629,0.699 6.945,1.051 1.986,0.296 4.046,0.592 5.993,0.124 0.368,0.071 0.724,0.221 1.033,0.431 z"
   id="path97" />
					<path
   style="fill:#cc8f4e"
   d="m 495.515,211.136 c 0.318,1.115 0.571,2.347 0.086,3.402 -0.523,1.145 -1.776,1.767 -2.99,2.094 -1.072,0.292 -2.227,0.425 -3.29,0.103 -1.064,-0.326 -2.012,-1.184 -2.201,-2.278 -0.142,-0.832 0.154,-1.669 0.425,-2.467 0.862,-2.557 1.514,-5.191 1.939,-7.859 0.292,-0.438 0.661,-0.807 1.167,-0.858 0.528,-0.056 1.021,0.266 1.407,0.626 1.145,1.055 1.815,2.527 2.372,3.981 0.407,1.068 0.776,2.157 1.085,3.256 z"
   id="path98" />
					
				</g><path
   style="fill:#ffffff;stroke-width:1.23585"
   d="m 619.16642,128.714 6.92378,3.10574 c 0,0 -1.73155,7.38242 -3.20258,8.10214 -1.47103,0.72097 -4.68573,-2.49694 -4.67361,-6.03249 0.0121,-3.53303 0.95241,-5.17539 0.95241,-5.17539 z"
   id="path100" /><polygon
   style="fill:#ffffff"
   points="627.661,129.858 627.321,130.893 624.075,131.857 622.929,131.321 "
   id="polygon100"
   transform="matrix(1,0,0,1.5195803,0,-67.471656)" /><path
   style="fill:#ffffff"
   d="m 622.929,134.285 c 0,0 1.357,1.179 3.607,1.179 2.25,0 3.373,-1.166 3.373,-1.166 l 0.257,0.577 c 0,0 -1.344,1.482 -3.916,1.447 -2.571,-0.036 -3.321,-0.857 -3.321,-0.857 z"
   id="path101" /><path
   style="fill:#ccb697"
   d="m 243.242,247.943 c 0,1.861 -29.82,3.37 -66.605,3.37 -36.785,0 -66.605,-1.509 -66.605,-3.37 0,-1.861 29.82,-3.37 66.605,-3.37 36.785,0 66.605,1.509 66.605,3.37 z"
   id="path102" /><polygon
   style="fill:#ecb39b"
   points="204.417,159.612 212.949,162.14 210.318,165.588 203.755,162.973 "
   id="polygon102" /><path
   style="fill:#454f6b"
   d="m 171.742,130.656 16.504,19.841 11.419,2.034 c 4.259,0.759 7.077,4.851 6.266,9.099 v 0 c -0.908,4.757 -5.904,7.53 -10.424,5.787 l -15.9,-10.079 c -2.103,-1.333 -3.744,-3.282 -4.698,-5.581 l -7.391,-17.806 z"
   id="path103" /><path
   style="fill:#422c4f"
   d="m 185.487,157.434 c -2.059,-3.622 -4.59,-6.945 -7.118,-10.257 -2.875,-3.767 -4.744,-8.377 -5.281,-13.337 -0.127,-1.171 -0.594,-2.279 -1.347,-3.185 v 0 l -4.223,3.294 7.391,17.806 c 0.954,2.299 2.595,4.248 4.698,5.581 l 15.9,10.079 c 0.325,0.125 0.652,0.221 0.979,0.3 -4.657,-2.18 -8.457,-5.812 -10.999,-10.281 z"
   id="path104" /><g
   id="g108"
   transform="translate(-3.2314924)">
					<path
   style="fill:#413a89"
   d="m 174.797,215.92 c -1.982,1.09 -1.152,2.406 0.32,4.749 1.472,2.343 2.866,3.813 3.471,3.434 0.563,-0.354 0.494,-1.667 -0.148,-4.359 -0.771,-3.232 -2.353,-4.534 -3.643,-3.824 z"
   id="path105" />
					<path
   style="fill:#ecb39b"
   d="m 176.445,212.956 -1.16,3.367 c -0.236,0.528 -0.021,1.148 0.49,1.417 v 0 c 0.515,0.271 1.153,0.093 1.452,-0.407 l 2.475,-3.774 z"
   id="path106" />
					<path
   style="fill:#844e91"
   d="m 175.399,157.418 c -5.419,-3.982 -11.282,-2.779 -12.221,-1.102 v 0 c -2.547,9.76 2.509,19.896 11.836,23.746 3.585,1.48 6.329,2.636 6.329,2.636 l -5.57,30.264 c 0.006,0.225 0.133,0.436 0.334,0.537 1.223,0.614 2.409,0.808 3.575,0.765 0.279,-0.01 0.51,-0.211 0.571,-0.482 1.234,-5.447 16.087,-24.256 15.784,-34.171 -0.184,-6.01 -12.236,-16.019 -20.638,-22.193 z"
   id="path107" />
					<path
   style="fill:#7b4986"
   d="m 176.239,172.891 c -0.369,-1.461 -0.613,-2.971 -0.683,-4.52 -0.147,-3.29 0.667,-6.431 2.158,-9.222 -0.793,-0.603 -1.568,-1.183 -2.314,-1.731 -5.42,-3.982 -11.282,-2.779 -12.221,-1.102 v 0 c -2.547,9.76 2.509,19.896 11.836,23.746 2.802,1.156 5.083,2.112 5.949,2.476 -2.313,-2.708 -3.954,-6.025 -4.725,-9.647 z"
   id="path108" />
				</g><path
   style="fill:#5190c5;stroke-width:1.25983"
   d="m 191.45081,152.875 -3.67231,-0.11323 c -1.11556,-0.0661 -1.80992,-1.091 -1.34297,-1.98031 l 4.74884,-9.03583 c 0.27721,-0.52722 0.89756,-0.84921 1.55828,-0.81029 l 1.67535,0.0873 c 1.11555,0.066 3.80687,1.11577 3.33993,2.00626 l -4.74884,9.03583 c -0.27856,0.52722 -0.89756,0.84921 -1.55828,0.81029 z"
   id="path109" /><g
   id="g111"
   transform="matrix(2.3285747,0,0,2.3285747,-119.62176,-423.10411)">
						<path
   style="fill:#816a61"
   d="m 218.873,248.418 c -16.559,0 -30.031,-13.467 -30.031,-30.02 0,-16.553 13.472,-30.02 30.031,-30.02 16.56,0 30.032,13.467 30.032,30.02 0,16.553 -13.472,30.02 -30.032,30.02 z m 0,-55.613 c -14.119,0 -25.604,11.481 -25.604,25.593 0,14.112 11.486,25.593 25.604,25.593 14.119,0 25.605,-11.481 25.605,-25.593 0.001,-14.112 -11.486,-25.593 -25.605,-25.593 z"
   id="path111" />
					</g><path
   style="fill:#ffffff"
   d="m 183.012,218.295 c 0,3.601 -2.92,6.52 -6.523,6.52 -3.602,0 -6.523,-2.919 -6.523,-6.52 0,-3.601 2.92,-6.52 6.523,-6.52 3.603,0 6.523,2.919 6.523,6.52 z"
   id="path119" /><line
   style="fill:none;stroke:#93aeb7;stroke-width:2.6303;stroke-linecap:round;stroke-linejoin:round;stroke-miterlimit:10"
   x1="175.03101"
   y1="212.101"
   x2="141.78799"
   y2="214.429"
   id="line119" /><g
   id="g121">
						<path
   style="fill:#bcd5da"
   d="m 145.195,218.398 c 0,1.889 -1.532,3.42 -3.421,3.42 -1.889,0 -3.421,-1.531 -3.421,-3.42 0,-1.888 1.532,-3.419 3.421,-3.419 1.889,0 3.421,1.531 3.421,3.419 z"
   id="path121" />
					</g><g
   id="g122">
						<path
   style="fill:#422c4f"
   d="m 218.932,220.296 c -0.888,0 -1.698,-0.595 -1.934,-1.495 l -12.866,-49.197 c -0.39,-1.491 -0.172,-3.043 0.613,-4.369 0.785,-1.327 2.041,-2.265 3.537,-2.641 l 1.651,-0.415 c 0.253,-0.064 0.385,-0.235 0.441,-0.332 0.056,-0.097 0.14,-0.296 0.071,-0.547 l -1.23,-4.454 c -0.294,-1.064 0.331,-2.166 1.396,-2.46 1.063,-0.292 2.166,0.331 2.46,1.396 l 1.23,4.454 c 0.34,1.233 0.173,2.52 -0.471,3.626 -0.644,1.105 -1.682,1.885 -2.923,2.197 l -1.651,0.415 c -0.452,0.113 -0.833,0.397 -1.07,0.798 -0.237,0.401 -0.303,0.87 -0.185,1.32 l 12.866,49.197 c 0.279,1.068 -0.36,2.161 -1.429,2.441 -0.168,0.045 -0.339,0.066 -0.506,0.066 z"
   id="path122" />
					</g><g
   id="g123">
						<path
   style="fill:#422c4f"
   d="m 138.538,220.551 19.541,-40.754 49.8,-4.996 c 1.098,-0.101 2.08,0.691 2.19,1.79 0.11,1.099 -0.691,2.08 -1.79,2.19 l -47.565,4.771 -15.675,32.692 25.142,-1.168 37.564,-35.739 c 0.8,-0.762 2.065,-0.73 2.828,0.07 0.761,0.8 0.729,2.066 -0.071,2.828 l -38.645,36.768 z"
   id="path123" />
					</g><path
   style="fill:#ffffff;stroke-width:1.02764"
   d="m 181.279,218.21392 c 0.922,-0.10666 1.502,-0.18375 1.502,-0.18375 0,-4.26958 -3.279,-7.73129 -7.324,-7.73129 -0.447,0 -0.882,0.0486 -1.307,0.1299 l -32.436,2.39827 c -0.126,0.009 -0.24,0.0507 -0.349,0.10138 -2.488,0.21965 -4.444,2.41728 -4.444,5.10174 0,2.42572 1.112,3.68981 2.225,4.34878 0.947,0.56076 2.057,0.73078 3.135,0.59983 z"
   id="path124" /><path
   style="fill:#422c4f"
   d="m 178.577,218.295 c 0,1.152 -0.934,2.086 -2.087,2.086 -1.153,0 -2.087,-0.934 -2.087,-2.086 0,-1.152 0.935,-2.086 2.087,-2.086 1.153,0 2.087,0.934 2.087,2.086 z"
   id="path125" /><path
   style="fill:#422c4f"
   d="m 161.172,237.367 h -7.294 c -0.403,0 -0.73,-0.327 -0.73,-0.73 v -0.583 c 0,-0.403 0.327,-0.73 0.73,-0.73 h 7.294 c 0.403,0 0.73,0.327 0.73,0.73 v 0.583 c 0,0.404 -0.327,0.73 -0.73,0.73 z"
   id="path126" /><path
   style="fill:#413a89"
   d="m 152.844,231.603 c -0.856,2.093 0.616,2.596 3.234,3.494 2.618,0.898 4.626,1.166 4.858,0.492 0.216,-0.629 -0.664,-1.607 -2.855,-3.298 -2.63,-2.03 -4.679,-2.051 -5.237,-0.688 z"
   id="path127" /><path
   style="fill:#ecb39b"
   d="m 154.911,227.825 -1.16,3.366 c -0.236,0.528 -0.021,1.148 0.49,1.417 v 0 c 0.515,0.271 1.153,0.093 1.452,-0.406 l 2.475,-3.774 z"
   id="path128" /><path
   style="fill:#8e569c"
   d="m 163.178,157.809 c -4.59,-4.915 -17.259,1.819 -13.03,14.003 2.268,6.535 10.181,22.919 10.181,22.919 l -6.092,33.1 c 0.006,0.225 0.133,0.436 0.334,0.537 1.223,0.614 2.409,0.808 3.574,0.765 0.269,-0.01 0.51,-0.201 0.568,-0.464 1.204,-5.423 16.091,-24.264 15.788,-34.19 -0.183,-6.008 -4.405,-29.261 -11.323,-36.67 z"
   id="path129" /><path
   style="fill:#52565a;stroke-width:1.57073"
   d="m 160.45004,120.87909 c 0.81571,2.05039 0.23617,4.09341 -1.29307,4.56329 -1.52925,0.46988 -3.44206,-0.80719 -4.24604,-2.862 -3.98306,-10.18269 -0.88605,-6.83461 0.64319,-7.30449 1.53092,-0.46841 4.08189,3.55282 4.89592,5.6032 z"
   id="path130" /><path
   style="fill:#454f6b"
   d="m 171.152,159.103 c 0,0 5.191,-14.348 3.839,-21.086 -0.834,-4.154 -4.047,-11.861 -12.111,-11.86 -5.378,0.001 -13.974,1.587 -13.583,13.844 0.181,5.67 -0.436,12.775 4.722,19.112 0,0.001 9.117,4.35 17.133,-0.01 z"
   id="path131" /><path
   style="fill:#e8a286"
   d="m 161.931,130.63 v 0 c -1.558,0 -2.821,-1.263 -2.821,-2.82 v -9.306 h 5.643 v 9.306 c -10e-4,1.557 -1.264,2.82 -2.822,2.82 z"
   id="path132" /><path
   style="fill:#dc866f"
   d="m 164.188,128.088 v 0 c 0.191,0 0.379,-0.019 0.564,-0.049 v -7.195 h -5.643 v 1.05 c 0,2.805 2.274,6.194 5.079,6.194 z"
   id="path133" /><path
   style="fill:#ecb39b"
   d="m 163.874,127.034 v 0 c -2.432,-0.432 -5.172,-3.95 -4.739,-6.381 l 0.892,-5.017 8.806,1.564 -0.892,5.017 c -0.432,2.431 -3.003,5.006 -4.067,4.817 z"
   id="path134" /><path
   style="fill:#e8a286"
   d="m 157.708,118.065 c -0.193,1.086 0.521,2.121 1.595,2.312 l 0.699,-3.934 c -1.074,-0.19 -2.101,0.536 -2.294,1.622 z"
   id="path135" /><path
   style="fill:#e8a286"
   d="m 168.95,116.541 -7.421,-1.318 -0.29,1.632 c -0.765,-0.093 -1.479,0.429 -1.617,1.205 -0.036,0.201 -0.028,0.399 0.014,0.586 0.196,-0.037 0.385,-0.094 0.56,-0.178 0.372,-0.181 0.789,-0.213 1.196,-0.143 0.89,0.152 1.767,-0.013 2.518,-0.425 1.047,-0.574 2.298,-0.734 3.426,-0.343 0.238,0.082 0.485,0.147 0.741,0.193 0.208,0.037 0.441,0.056 0.647,0.066 z"
   id="path136" /><g
   id="g138">
					<path
   style="fill:#ecb39b"
   d="m 186.936,154.022 c 0.937,-0.267 1.775,-0.802 2.412,-1.538 l 1.297,-1.499 c 0.449,-0.519 2.289,-3.755 1.739,-4.166 -0.233,-0.174 -1.686,0.444 -2.759,1.762 -0.321,0.395 -1.581,1.076 -1.834,0.908 -0.161,-0.107 0.006,-0.809 0.178,-1.39 0.133,-0.451 -0.061,-1.407 -0.51,-1.548 -0.569,1.43 -1.437,3.088 -2.547,3.945 l -3.668,2.858 1.823,1.934 z"
   id="path137" />
					<path
   style="fill:#e8a286"
   d="m 182.864,152.094 -1.618,1.261 1.823,1.934 2.955,-0.967 c -1.303,-0.404 -2.299,-1.342 -3.16,-2.228 z"
   id="path138" />
				</g><path
   style="fill:#468097"
   d="m 153.44,133.282 c -1.6,0.362 -2.65,1.904 -2.37,3.52 0.908,5.224 3.113,16.439 5.96,20.801 3.061,4.69 17.022,5.921 24.93,2.375 0.018,-0.008 0.036,-0.016 0.055,-0.025 2.464,-1.125 3.128,-4.332 1.408,-6.424 l -1.025,-1.246 c 0,0 -3.378,-4.19 -6.423,-3.59 -5.416,1.067 -8.067,6.335 -14.999,0.99 -1.166,-0.899 -2.905,-9.363 -3.781,-13.995 -0.322,-1.704 -1.982,-2.803 -3.675,-2.424 -0.026,0.005 -0.053,0.011 -0.08,0.018 z"
   id="path139" /><path
   style="fill:#bd6c67"
   d="m 171.383,105.328 c -1.711,-0.254 -3.367,0.264 -4.606,1.299 -1.762,1.471 -3.517,1.454 -4.871,1.59 -0.179,0.018 -0.356,-0.052 -0.474,-0.188 -0.118,-0.136 -0.162,-0.321 -0.119,-0.495 0.309,-1.255 0.061,-2.56 -0.805,-3.504 -1.469,-1.6 -4.133,-1.546 -5.95,0.121 -1.816,1.667 -2.098,4.315 -0.629,5.915 0.792,0.862 1.93,1.233 3.096,1.136 0.179,-0.015 0.354,0.058 0.47,0.196 0.116,0.138 0.157,0.323 0.112,0.497 -0.186,0.706 -0.307,1.375 -0.95,2.189 -0.228,0.289 -0.389,0.632 -0.457,1.015 -0.237,1.333 0.725,2.619 2.148,2.871 0.59,0.105 1.165,0.013 1.653,-0.224 0.448,-0.218 0.951,-0.257 1.442,-0.173 1.073,0.183 2.13,-0.015 3.035,-0.512 1.262,-0.692 2.77,-0.884 4.129,-0.413 0.287,0.1 0.585,0.178 0.894,0.232 3.24,0.576 6.33,-1.631 6.817,-4.907 0.456,-3.062 -1.871,-6.19 -4.935,-6.645 z"
   id="path140" /><path
   style="fill:#ecb39b"
   d="m 214.724,162.324 c -0.128,-0.571 -0.547,-1.035 -1.111,-1.193 -0.794,-0.222 -1.848,-0.296 -1.818,0.893 0.027,1.041 -1.581,0.703 -1.05,2.156 0.224,0.613 -1.527,-0.04 -1.622,0.947 -0.099,1.031 0.146,2.349 1.807,1.992 1.85,-0.398 2.638,-0.996 3.542,-2.145 0.551,-0.699 0.43,-1.854 0.252,-2.65 z"
   id="path141" /><path
   style="fill:#ecb39b;stroke-width:1.32197"
   d="m 206.42298,161.044 c 0,0 2.66507,-0.952 2.26313,-2.714 -0.40195,-1.762 1.80875,-0.977 1.90837,-0.326 0.19048,1.23 0.25515,2.012 0.33379,2.996 0.0524,0.638 -0.36875,1.6 -3.34839,1.634 -2.33653,0.027 -1.1569,-1.59 -1.1569,-1.59 z"
   id="path142" /><path
   style="fill:#ffffff"
   d="m 161.179,120.761 7.286,0.274 c 0,0 0.143,2.607 -1.5,4.429 -1.643,1.821 -2.363,1.784 -3.807,1.356 -1.444,-0.427 -2.301,-3.833 -1.979,-6.059 z"
   id="path143" /><polygon
   style="fill:#ffffff"
   points="159.393,118.929 161.931,121 161.321,121.571 159.321,119.714 "
   id="polygon143" /><path
   style="fill:#ffffff"
   d="m 159.177,122.75 c 0,0 1.327,1.357 2.753,1.393 v 0.679 c 0,0 -0.83,-0.019 -1.929,-0.856 -0.68,-0.519 -0.824,-1.216 -0.824,-1.216 z"
   id="path144" /><path
   style="fill:#422c4f;stroke-width:1.32797"
   d="m 161.51751,237.095 -4.93251,-1.625 3.04733,-3.031 c 0.34564,-0.343 1.11806,-0.461 1.72117,-0.263 l 2.76341,0.91 c 0.59606,0.196 0.80063,0.628 0.46027,0.967 z"
   id="path145" /><ellipse
   style="fill:#ccb697"
   cx="139.299"
   cy="461.41699"
   rx="71.828003"
   ry="4.441"
   id="ellipse148" /><g
   id="g151">
					<g
   id="g149">
						<polygon
   style="fill:#edc75e"
   points="111.803,325.497 106.23,343.373 117.96,348.177 119.86,339.575 "
   id="polygon148" />
						<path
   style="fill:#eaa857"
   d="m 113.055,327.685 c -1.649,6.713 2.308,19.428 2.308,19.428 l 2.598,1.064 1.899,-8.602 z"
   id="path148" />
					</g>
					<g
   id="g150">
						<polygon
   style="fill:#eba58e"
   points="81.503,381.991 89.137,372.978 82.285,371.005 78.71,374.17 "
   id="polygon149" />
						<path
   style="fill:#f2c9ad"
   d="m 74.8,374.207 5.245,-1.894 0.383,0.945 c 0.976,2.411 1.376,5.017 1.166,7.61 l -0.091,1.121 -0.902,-0.555 c -2.063,-1.268 -3.731,-3.088 -4.814,-5.255 z"
   id="path149" />
						<path
   style="fill:#f2c9ad"
   d="m 107.197,343.769 -3.537,9.919 -15.715,14.672 -7.262,0.223 -1.154,6.74 v 0 c 1.321,-0.088 2.422,-1.045 2.694,-2.341 l 0.025,-0.117 c 2.495,1.75 6.219,0.931 7.932,-0.112 l 19.582,-12.702 c 1.6,-1.038 2.827,-2.561 3.5,-4.346 l 3.087,-8.19 z"
   id="path150" />
						<polygon
   style="fill:#eba58e"
   points="107.197,343.769 116.348,347.517 114.992,351.114 106.887,344.637 "
   id="polygon150" />
					</g>
				</g><path
   style="fill:#8e569c"
   d="m 130.016,368.765 15.586,36.136 c 1.008,2.338 2.756,4.279 4.975,5.527 l 21.753,12.228 5.065,-11.917 -19.216,-11.619 -4.474,-32.35 z"
   id="path151" /><polygon
   style="fill:#bc91c6"
   points="175.982,425.685 181.786,412.03 177.764,409.87 171.96,423.525 "
   id="polygon151" /><g
   id="g154">
						<g
   id="g152">
							<path
   style="fill:#422c4f"
   d="m 188.66,420.804 -0.652,3.789 c -0.627,-0.264 -1.354,-0.078 -1.778,0.454 l -1.238,1.557 6.256,13.704 v 0 l 1.245,-19.214 z"
   id="path152" />
							<polygon
   style="fill:#ffffff"
   points="191.247,440.307 193.556,440.307 194.45,421.241 192.492,421.093 "
   id="polygon152" />
						</g>
						<g
   id="g153">
							<path
   style="fill:#f2c9ad"
   d="m 188.008,424.592 0.652,-3.789 -2.104,-0.159 -6.547,-4.434 -2.888,6.796 7.871,3.596 1.238,-1.557 c 0.423,-0.531 1.15,-0.717 1.778,-0.453 z"
   id="path153" />
							<polygon
   style="fill:#422c4f"
   points="179.441,424.067 177.12,423.007 180.009,416.211 "
   id="polygon153" />
						</g>
					</g><path
   style="fill:#8e569c"
   d="m 122.429,369.404 -16.758,26.566 c -1.557,2.469 -1.937,5.502 -1.037,8.278 l 7.516,23.175 13.257,-1.737 -7.001,-24.628 18.307,-16.762 -6.698,-15.531 z"
   id="path154" /><polygon
   style="fill:#bc91c6"
   points="112.508,432.383 127.583,430.407 126.317,425.566 111.242,427.542 "
   id="polygon154" /><g
   id="g157">
						<path
   style="fill:#f2c9ad"
   d="m 121.87,442.244 3.638,0.164 -0.547,-2.266 -1.066,-9.251 -7.666,1.005 1.806,8.189 2.29,0.356 c 0.89,0.137 1.545,0.903 1.545,1.803 z"
   id="path155" />
						<g
   id="g156">
							<polygon
   style="fill:#ffffff"
   points="127.196,449.394 126.827,447.868 106.64,446.936 106.64,449.394 "
   id="polygon155" />
							<path
   style="fill:#422c4f"
   d="m 125.509,442.408 -3.638,-0.164 c 0,-0.9 -0.656,-1.666 -1.545,-1.804 l -2.29,-0.356 -11.395,6.852 v 0 l 20.188,0.932 z"
   id="path156" />
						</g>
						<polygon
   style="fill:#422c4f"
   points="124.245,433.93 116.448,432.892 116.229,431.895 123.895,430.891 "
   id="polygon156" />
					</g><path
   style="fill:#422c4f"
   d="m 133.523,376.895 3.192,7.4 -14.079,12.891 4.817,-8.104 c 1.408,-2.368 3.799,-3.985 6.521,-4.41 v 0 z"
   id="path157" /><g
   id="g158">
						<polygon
   style="fill:#422c4f"
   points="130.575,370.06 130.016,368.765 122.429,369.404 "
   id="polygon157" />
						<polygon
   style="fill:#422c4f"
   points="130.575,370.06 154.426,371.982 153.705,366.771 130.016,368.765 "
   id="polygon158" />
					</g><g
   id="g162">
					<path
   style="fill:#edc75e"
   d="m 117.461,315.287 -6.539,9.169 0.747,4.685 c 0.684,4.291 2.353,8.366 4.876,11.904 v 0 c 3.113,4.366 4.914,9.531 5.19,14.887 l 0.694,13.473 33.18,-2.793 -5.107,-17.301 c -2.52,-8.537 -6.958,-16.385 -12.975,-22.945 v 0 c -5.302,-5.783 -12.348,-9.673 -20.066,-11.079 z"
   id="path161" />
					<path
   style="fill:#eaa857"
   d="m 142.145,339.357 v 0 c 0.254,-0.451 0.803,-0.643 1.282,-0.449 l 3.604,1.458 c -2.467,-5.088 -5.659,-9.81 -9.503,-14.001 -0.342,-0.373 -0.691,-0.737 -1.047,-1.093 l -12.13,5.439 16.401,9.042 c 0.494,0.273 1.116,0.096 1.393,-0.396 z"
   id="path162" />
				</g><g
   id="g164">
					<path
   style="fill:#edc75e"
   d="m 124.351,330.711 15.953,6.183 3.798,-12.512 -15.316,-5.527 c -3.329,-1.201 -6.996,0.56 -8.139,3.91 v 0 c -1.096,3.212 0.538,6.718 3.704,7.946 z"
   id="path163" />
					<path
   style="fill:#f2c9ad"
   d="m 143.764,325.497 8.854,3.193 c 3.091,1.115 5.705,3.261 7.4,6.076 l 10.562,17.544 0.667,-0.114 c 2.935,-0.5 5.949,0.184 8.382,1.901 v 0 l 2.786,-0.697 c 0.751,-0.188 1.542,0.085 2.018,0.697 v 0 l -5.474,4.357 -12.736,-3.463 -15.976,-18.098 -9.172,-2.539 z"
   id="path164" />
					<polygon
   style="fill:#eba58e"
   points="141.075,334.355 143.764,325.497 144.102,335.193 "
   id="polygon164" />
				</g><g
   id="g173">
					<path
   style="fill:#bd6c67"
   d="M 124.552,306.841 H 85.078 c -0.597,0 -1.08,-0.483 -1.08,-1.08 v 0 c 0,-0.596 0.483,-1.08 1.08,-1.08 h 39.474 c 0.596,0 1.08,0.484 1.08,1.08 v 0 c 0,0.597 -0.484,1.08 -1.08,1.08 z"
   id="path165" />
					<path
   style="fill:#bd6c67"
   d="m 115.925,304.681 h -22.22 l 3.476,-12.512 v 0 c 4.985,-1.459 10.283,-1.459 15.268,0 v 0 z"
   id="path166" />
					<path
   style="fill:#8c404c"
   d="m 94.675,301.19 -0.97,3.492 h 22.22 l -0.97,-3.492 c -6.683,-0.819 -13.598,-0.819 -20.28,0 z"
   id="path167" />
					<g
   id="g169">
						<path
   style="fill:#422c4f"
   d="m 116.843,306.841 h -12.959 l 2.123,2.383 1.242,2.723 c 0.422,0.926 1.35,1.516 2.367,1.506 -0.868,-0.777 -1.247,-2.084 -0.86,-3.183 0.387,-1.099 1.553,-1.893 2.713,-1.78 1.16,0.113 2.172,1.172 2.166,2.337 -0.005,0.871 -0.66,1.659 -1.148,2.381 l 2.966,1.939 v 0 c 2.63,-1.262 5.002,-5.029 1.39,-8.306 z"
   id="path168" />
						<path
   style="fill:#f2c9ad"
   d="m 113.634,310.828 c 0.006,-1.165 -1.006,-2.224 -2.166,-2.337 -1.16,-0.113 -2.326,0.68 -2.713,1.78 -0.387,1.099 -0.008,2.406 0.86,3.183 -1.017,0.01 -1.945,-0.58 -2.367,-1.506 l -1.242,-2.723 -2.123,-2.383 h -1.825 -7.838 c 0,2.073 0.634,4.096 1.816,5.799 l 0.05,3.593 c 0.016,1.195 1.178,2.037 2.319,1.682 l 1.065,-0.332 1.128,1.623 c 1.999,2.878 6.084,3.316 8.648,0.929 l 2.793,2.849 4.85,-6.896 -1.438,-0.94 -2.966,-1.939 c 0.489,-0.723 1.145,-1.511 1.149,-2.382 z"
   id="path169" />
					</g>
					<path
   style="fill:#eba58e"
   d="m 110.268,311.637 c -0.07,-0.395 0.049,-0.819 0.315,-1.119 0.201,-0.227 0.524,-0.385 0.807,-0.277 0.169,0.064 0.295,0.216 0.357,0.386 0.062,0.17 0.065,0.356 0.04,0.535 -0.063,0.445 -0.321,0.908 -0.693,1.17 -0.443,0.312 -0.758,-0.318 -0.826,-0.695 z"
   id="path170" />
					<g
   id="g171">
						<polygon
   style="fill:#422c4f"
   points="105.389,308.531 116.843,306.841 103.884,306.841 "
   id="polygon170" />
						<path
   style="fill:#eba58e"
   d="m 103.884,306.841 h -1.825 -7.839 c 0,1.115 0.189,2.213 0.543,3.257 l 10.626,-1.568 z"
   id="path171" />
					</g>
					<polygon
   style="fill:#422c4f"
   points="110.777,321.697 109.246,320.136 112.449,316.133 "
   id="polygon171" />
					<path
   style="fill:#ffffff"
   d="m 96.055,313.983 11.588,-2.358 c 0,0 2.296,5.718 1.604,8.511 0,0 -2.914,2.759 -7.979,1.561 -4.982,-1.179 -5.839,-5.564 -5.213,-7.714 z"
   id="path172" />
					<polygon
   style="fill:#ffffff"
   points="108.615,310.995 107.147,311.726 107.147,312.911 108.715,311.983 "
   id="polygon172" />
					<path
   style="fill:#ffffff"
   d="m 109.161,316.812 3.883,-4.396 0.544,1.138 -4.428,4.923 c 0.001,0 -0.726,-0.843 0.001,-1.665 z"
   id="path173" />
				</g><rect
   x="432.32101"
   y="316.42401"
   style="fill:#422c4f"
   width="5.3010001"
   height="88.522003"
   id="rect184" /><rect
   x="427.40399"
   y="370.56799"
   style="fill:#422c4f"
   width="15.135"
   height="4.0250001"
   id="rect185" /><rect
   x="307.591"
   y="316.42401"
   style="fill:#422c4f"
   width="5.3010001"
   height="88.522003"
   id="rect186" /><rect
   x="302.67499"
   y="370.56799"
   style="fill:#422c4f"
   width="15.135"
   height="4.0250001"
   id="rect187" /><path
   style="fill:#ba7538;stroke-width:1.04331"
   d="M 458.02115,370.568 H 287.63716 c -0.85011,0 -1.53803,-0.633 -1.53803,-1.413 v -5.306 c 0,-0.781 0.68901,-1.413 1.53803,-1.413 h 170.38399 c 0.85012,0 1.53804,0.633 1.53804,1.413 v 5.306 c 0,0.78 -0.68792,1.413 -1.53804,1.413 z"
   id="path187" /><path
   style="fill:#cc8f4e"
   d="M 450.655,334.972 H 294.122 c -0.781,0 -1.413,-0.633 -1.413,-1.413 v -9.71 c 0,-0.781 0.633,-1.414 1.413,-1.414 h 156.533 c 0.781,0 1.413,0.633 1.413,1.414 v 9.71 c 0,0.78 -0.632,1.413 -1.413,1.413 z"
   id="path188" /><path
   style="fill:#cc8f4e;stroke-width:1.29144"
   d="M 450.655,350.268 H 294.122 c -0.781,0 -1.413,-1.05573 -1.413,-2.35663 V 331.7168 c 0,-1.30257 0.633,-2.3583 1.413,-2.3583 h 156.533 c 0.781,0 1.413,1.05573 1.413,2.3583 v 16.19457 c 0,1.3009 -0.632,2.35663 -1.413,2.35663 z"
   id="path189" /><ellipse
   style="fill:#ccb697"
   cx="654.69897"
   cy="448.23999"
   rx="52.277"
   ry="4.0939999"
   id="ellipse190" /><g
   id="g198">
					<g
   id="g197">
						<g
   id="g191">
							<polygon
   style="fill:#8c404c"
   points="602.998,386.36 604.488,387.387 598.101,404.018 595.554,403.679 "
   id="polygon190" />
							<path
   style="fill:#454f6b"
   d="m 610.982,391.863 c -1.249,1.992 0.067,4.828 0.067,4.828 l -5.805,3.241 c -0.754,0.421 -1.391,1.024 -1.852,1.754 -1.057,1.674 -2.977,2.597 -4.944,2.379 l -0.347,-0.046 6.387,-16.63 z"
   id="path190" />
						</g>
						<g
   id="g196">
							<path
   style="fill:#bd6c67"
   d="m 610.982,391.863 c 7.562,2.093 18.905,-2.464 27.615,3.714 0.405,-5.266 2.127,-14.587 2.127,-14.587 l 17.279,7.733 -8.298,15.811 c -1.715,3.268 -5.602,4.74 -9.051,3.426 L 611.05,396.69 c -10e-4,10e-4 -1.317,-2.835 -0.068,-4.827 z"
   id="path191" />
							<g
   id="g195">
								<path
   style="fill:#422c4f"
   d="m 640.723,380.99 17.279,7.733 -4.244,8.088 -13.963,-10.393 c 0.487,-3.041 0.928,-5.428 0.928,-5.428 z"
   id="path192" />
								<path
   style="fill:#ffffff"
   d="m 632.264,392.814 c -2.607,2.768 -4.149,6.527 -4.269,10.327 l -2.305,-0.878 c 0.187,-3.628 1.663,-7.192 4.118,-9.87 0.825,0.099 1.644,0.238 2.456,0.421 z"
   id="path193" />
								<path
   style="fill:#8c404c"
   d="m 629.808,392.395 c -2.455,2.677 -3.931,6.242 -4.118,9.87 l -2.301,-0.876 c 0.24,-3.356 1.577,-6.636 3.767,-9.189 0.886,0.03 1.772,0.09 2.652,0.195 z"
   id="path194" />
								<path
   style="fill:#ffffff"
   d="m 610.982,391.863 c 4.502,1.246 10.345,0.135 16.174,0.336 -2.19,2.553 -3.527,5.833 -3.767,9.189 l -12.34,-4.698 c 0,10e-4 -1.316,-2.835 -0.067,-4.827 z"
   id="path195" />
							</g>
						</g>
					</g>
					<polygon
   style="fill:#422c4f"
   points="640.926,374.106 639.103,382.917 660.114,390.85 660.562,380.336 "
   id="polygon197" />
				</g><g
   id="g202">
					<path
   style="fill:#8c404c"
   d="m 705.878,335.547 c -2.363,4.024 -7.325,5.503 -7.325,5.503 l -4.321,-2.863 3.764,-6.769 z"
   id="path198" />
					<path
   style="fill:#a64f5a"
   d="m 698.031,329.259 0.117,-0.198 7.731,6.486 -0.501,0.366 c -1.916,1.398 -4.546,1.277 -6.326,-0.29 v 0 c -1.823,-1.603 -2.251,-4.273 -1.021,-6.364 z"
   id="path199" />
					<g
   id="g201">
						<path
   style="fill:#bd6c67"
   d="m 660.355,332.312 v 0 c 3.139,-0.704 6.408,0.407 8.467,2.88 l 13.391,16.08 12.018,-13.086 -0.411,-4.011 c -0.08,-0.782 0.244,-1.552 0.859,-2.041 v 0 c 0.932,-0.741 2.276,-0.65 3.1,0.209 l 3.272,3.412 v 0 c -0.908,0.565 -2.059,0.559 -2.96,-0.017 l -0.821,-0.524 c 2.093,2.431 1.688,4.848 1.283,5.834 l -12.36,16.906 c -1.697,2.321 -5.027,2.67 -7.168,0.752 l -13.56,-12.149 z"
   id="path200" />
						<path
   style="fill:#a64f5a"
   d="m 661.769,336.256 4.111,2.196 4.779,7.131 c 1.235,1.843 1.514,4.166 0.749,6.249 l -0.015,0.039 -5.93,-5.313 z"
   id="path201" />
					</g>
				</g><g
   id="g208">
					<path
   style="fill:#422c4f"
   d="m 629.164,318.415 c -0.623,0.315 -0.589,1.226 0.063,1.479 0.93,0.361 1.945,0.545 2.942,0.643 4.306,0.424 8.74,-0.568 12.456,-2.785 4.679,-2.792 8.189,-7.508 9.395,-12.843 0.307,-1.359 0.083,-2.822 -0.733,-3.952 -1.473,-2.042 -4.159,-3.013 -6.665,-2.762 -2.511,0.251 -4.824,1.598 -6.603,3.388 -1.779,1.79 -3.074,4.002 -4.179,6.271 -1.105,2.269 -2.04,4.62 -3.212,6.855 -0.476,0.906 -1,1.806 -1.736,2.517 -0.396,0.381 -1.049,0.845 -1.728,1.189 z"
   id="path202" />
					<path
   style="fill:#e68799"
   d="m 652.718,305.662 c -0.947,1.64 -0.668,3.573 0.623,4.318 1.291,0.745 3.105,0.02 4.051,-1.62 0.947,-1.64 0.668,-3.573 -0.623,-4.319 -1.291,-0.744 -3.104,-0.019 -4.051,1.621 z"
   id="path203" />
					<path
   style="fill:#422c4f"
   d="m 672.76,309.761 c 0.706,-1.259 0.936,-2.57 0.37,-3.898 -0.566,-1.328 -1.621,-2.406 -2.83,-3.194 -2.706,-1.765 -6.238,-2.125 -9.304,-1.105 -3.065,1.02 -5.634,3.358 -7.096,6.239 -1.462,2.881 -1.84,6.266 -1.226,9.438 0.298,1.536 0.847,3.074 1.909,4.223 1.062,1.149 2.716,1.84 4.23,1.442 3.095,-0.814 6.19,-2.167 8.377,-4.502 2.187,-2.335 4.005,-5.852 5.57,-8.643 z"
   id="path204" />
					<path
   style="fill:#bd6c67"
   d="m 672.76,309.761 0.23,0.888 c 0.492,1.898 0.502,3.889 0.03,5.793 l -0.26,1.05 0.044,2.159 c 0.215,0.721 -0.359,1.434 -1.109,1.378 l -0.151,1.358 -0.518,2.141 c -0.559,2.307 -2.96,3.653 -5.22,2.925 l -1.891,-0.609 -2.701,4.962 -6.516,-3.477 3.595,-6.279 c -0.581,-0.667 -1.317,-1.45 -1.671,-2.262 -0.354,-0.811 -0.453,-1.777 -0.061,-2.571 0.437,-0.884 1.447,-1.412 2.432,-1.385 0.985,0.027 1.918,0.56 2.547,1.319 0.628,0.759 0.971,1.726 1.096,2.704 0.347,-0.848 0.523,-1.871 0.345,-2.77 2.096,-1.309 3.462,-4.02 2.972,-6.442 2.093,-0.807 4.566,-0.882 6.807,-0.882 z"
   id="path205" />
					<polygon
   style="fill:#422c4f"
   points="662.709,329.061 663.916,326.844 659.831,325.223 "
   id="polygon205" />
					<path
   style="fill:#a64f5a"
   d="m 659.906,318.075 c -0.272,-0.282 -0.711,-0.419 -1.073,-0.269 -0.331,0.138 -0.539,0.485 -0.594,0.839 -0.072,0.466 0.097,0.962 0.439,1.287 0.341,0.324 1.183,0.663 1.505,0.135 0.333,-0.545 0.151,-1.548 -0.277,-1.992 z"
   id="path206" />
					<path
   style="fill:#ffffff"
   d="m 663.647,318.482 h 9.409 c 0,0 0.248,4.018 -1.52,7.339 -1.768,3.322 -6.454,1.991 -7.62,1.022 -1.166,-0.968 -0.269,-8.361 -0.269,-8.361 z"
   id="path207" />
					<polygon
   style="fill:#ffffff"
   points="661.571,317.745 665.696,319.043 665.321,319.929 662.418,318.837 "
   id="polygon207" />
					<path
   style="fill:#ffffff"
   d="m 658.295,322.05 c 0,0 2.147,2.807 5.738,2.807 v 1.32 c 0,0 -4.836,-0.506 -5.738,-4.127 z"
   id="path208" />
				</g><path
   style="fill:#edc75e"
   d="m 654.699,328.329 6.516,3.477 v 0 c 2.025,1.845 3.618,4.115 4.666,6.646 l 3.129,7.562 c 0.838,2.025 0.078,4.358 -1.79,5.502 v 0 c -0.829,0.507 -1.47,1.272 -1.824,2.178 l -4.518,11.568 -16.677,-2.701 0.655,-4.814 c 0.461,-3.386 0.375,-6.823 -0.255,-10.182 l -1.859,-9.918 8.008,-9.79 z"
   id="path209" /><path
   style="fill:#cc8f4e"
   d="m 654.699,328.329 c 4.22,12.288 -4.627,21.901 -11.513,11.694 l -0.445,-2.376 8.008,-9.79 z"
   id="path210" /><path
   style="fill:#cc8f4e;stroke-width:1.49391"
   d="m 651.18401,347.74246 c 1.76065,-1.23482 3.7691,-1.37976 5.49418,-0.0263 2.29773,1.80142 4.95116,2.4772 7.48483,1.87861 1.12041,-0.26543 2.27165,0.27858 3.10396,1.50023 0.50626,0.74353 1.0884,1.36472 1.71085,1.85413 -0.3213,0.58542 -0.58095,1.24801 -0.78962,1.95578 L 651.152,347.76317 Z"
   id="path211" /><g
   id="g212">
						<path
   style="fill:#cc8f4e"
   d="m 646.415,340.619 c -0.568,0.534 -1.103,0.994 -1.609,1.404 -0.547,-0.559 -1.089,-1.214 -1.62,-2 l -0.445,-2.376 0.665,-0.813 3.009,-0.152 z"
   id="path212" />
					</g><g
   id="g214">
					<path
   style="fill:#bd6c67"
   d="m 644.774,338.051 -15.597,4.456 -7.728,22.324 c -0.303,0.874 -0.965,1.577 -1.819,1.933 l -5.502,2.286 c -0.582,0.242 -1.25,0.125 -1.715,-0.301 l -1.758,-1.608 c -0.407,-0.372 -0.196,-1.05 0.351,-1.125 l 2.322,-0.318 c 0.962,-2.127 3.443,-2.988 5.064,-2.734 l 2.879,-21.458 c 0.289,-2.158 1.643,-4.026 3.603,-4.974 l 19.642,-9.496 c 2.371,-1.146 5.135,-1.147 7.507,-0.002 l 2.677,1.293 c 0.922,3.073 0.608,6.46 -0.593,9.435 -0.555,1.375 -1.383,2.72 -2.674,3.45 -1.163,0.658 -2.638,0.732 -3.861,0.193 -1.224,-0.537 -2.499,-2.051 -2.798,-3.354 z"
   id="path213" />
					<path
   style="fill:#a64f5a"
   d="m 649.572,336.681 c -0.889,1.415 -1.956,2.75 -3.157,3.939 -0.781,-0.708 -1.438,-1.683 -1.641,-2.568 l -2.033,0.581 v 0 z"
   id="path214" />
				</g><g
   id="g221">
						<path
   style="fill:#bd6c67"
   d="m 650.277,386.394 13.74,-14.719 c 8.234,6.289 14.966,14.196 18.744,19.07 2.157,2.784 3.499,6.11 3.908,9.608 l 4.389,37.556 -0.139,0.051 c -1.599,0.581 -3.34,0.64 -4.974,0.167 l -0.288,-0.083 c -2.431,-12.221 -11.073,-17.217 -13.098,-36.932 -8.373,-6.346 -22.282,-14.718 -22.282,-14.718 z"
   id="path215" />
						<g
   id="g219">
							<path
   style="fill:#8c404c"
   d="m 688.942,419.802 0.308,2.64 c -3.142,0.829 -6.399,1.224 -9.65,1.175 -0.436,-0.82 -0.873,-1.661 -1.306,-2.53 3.588,0.11 7.191,-0.323 10.648,-1.285 z"
   id="path216" />
							<path
   style="fill:#ffffff"
   d="m 689.25,422.442 1.808,15.468 -0.139,0.051 c -1.599,0.581 -3.34,0.64 -4.974,0.167 l -0.288,-0.083 c -1.119,-5.626 -3.555,-9.723 -6.056,-14.428 3.25,0.049 6.507,-0.346 9.649,-1.175 z"
   id="path217" />
							<path
   style="fill:#422c4f"
   d="m 660.422,383.828 c 0,1.403 -0.516,2.756 -1.448,3.803 l -2.38,2.672 c -3.674,-2.319 -6.316,-3.91 -6.316,-3.91 l 13.74,-14.719 c 2.082,1.59 4.068,3.285 5.934,5.007 l -5.147,5.295 c -1.151,1.184 -2.732,1.852 -4.383,1.852 z"
   id="path218" />
							<path
   style="fill:#ffffff"
   d="m 688.633,417.162 0.309,2.64 c -3.457,0.962 -7.06,1.395 -10.648,1.285 -0.405,-0.813 -0.806,-1.652 -1.197,-2.526 3.888,0.166 7.803,-0.306 11.536,-1.399 z"
   id="path219" />
						</g>
						<g
   id="g220">
							<path
   style="fill:#454f6b"
   d="m 690.918,437.961 0.139,-0.051 4.807,3.337 c 0.617,0.428 1.302,0.747 2.027,0.943 l 0.742,0.201 c 1.989,0.538 3.609,1.979 4.374,3.892 h -18.23 l 0.878,-8.237 0.288,0.083 c 1.635,0.472 3.377,0.413 4.975,-0.168 z"
   id="path220" />
							<polygon
   style="fill:#8c404c"
   points="684.779,446.282 703.008,446.282 703.751,448.24 684.509,448.24 "
   id="polygon220" />
						</g>
					</g><path
   style="fill:#8c404c"
   d="m 658.447,380.588 v 0 c 0.214,2.183 -0.549,4.348 -2.084,5.914 l -4.262,4.348 -8.705,-9.311 c -3.974,-4.25 -4.416,-10.707 -1.06,-15.46 l 0.221,-0.314 c 0.554,-0.784 1.014,-1.631 1.37,-2.522 l 0.274,-0.684 8.876,1.438 z"
   id="path221" /><path
   style="fill:#8c404c"
   d="m 660.877,365.261 8.845,8.575 -6.886,6.465 c -1.237,1.161 -2.938,1.689 -4.615,1.431 v 0 c -1.397,-0.215 -2.659,-0.958 -3.524,-2.076 l -0.772,-0.997 c -3.065,-3.958 -4.728,-8.823 -4.728,-13.829 v -1.461 z"
   id="path223" /><path
   style="fill:#ccb697"
   d="m 578.685,466.29 c 0,2.452 -41.579,4.441 -92.868,4.441 -51.29,0 -92.868,-1.988 -92.868,-4.441 0,-2.453 41.579,-4.441 92.868,-4.441 51.289,0 92.868,1.989 92.868,4.441 z"
   id="path227" /><path
   style="fill:#6a6e72"
   d="m 457.59,429.598 h 15.676 c 0.984,0 1.782,0.797 1.782,1.781 v 0 c 0,0.984 -0.798,1.781 -1.782,1.781 H 457.59 c -0.984,0 -1.782,-0.797 -1.782,-1.781 v 0 c 0.001,-0.984 0.798,-1.781 1.782,-1.781 z"
   id="path228" /><g
   id="g231">
					<path
   style="fill:#ecb39b"
   d="m 472.995,421.181 -1.98,5.697 c -0.308,0.71 -1.115,1.059 -1.844,0.798 v 0 c -0.734,-0.264 -1.134,-1.055 -0.912,-1.802 l 1.492,-5.857 z"
   id="path229" />
					<path
   style="fill:#422c4f"
   d="m 512.741,372.571 -23,-4.333 c -2.299,0.746 -6.264,5.55 -7.601,7.657 -8.072,12.718 -13.387,45.433 -13.387,45.433 1.249,1.18 2.884,1.819 5.017,1.762 0,0 17.936,-30.105 21.22,-34.301 4.159,-5.314 16.214,-16.703 17.751,-16.218 z"
   id="path230" />
					<path
   style="fill:#414848"
   d="m 472.093,427.996 c -0.051,3.028 -2.12,2.688 -5.826,2.593 -4.248,-0.109 -6.966,0.134 -6.894,-0.819 0.066,-0.888 2.321,-2.768 5.911,-3.693 4.31,-1.109 6.843,-0.053 6.809,1.919 z"
   id="path231" />
				</g><path
   style="fill:none;stroke:#cf88dd;stroke-width:4.3838;stroke-linecap:round;stroke-linejoin:round;stroke-miterlimit:10"
   d="M 441.603,366.365"
   id="path241" /><path
   style="fill:#422c4f"
   d="m 535.959,423.331 -26.147,-48.071 3.094,-8.114 c 0.432,-1.132 -0.136,-2.399 -1.267,-2.829 -1.135,-0.435 -2.398,0.136 -2.829,1.267 l -8.83,23.157 c -13.527,-0.276 -26.632,-4.3 -37.983,-11.698 l -12.899,-8.47 5.264,-14.438 c 0.023,-0.064 0.044,-0.13 0.061,-0.196 0.504,-1.924 0.224,-3.927 -0.789,-5.638 -1.014,-1.713 -2.634,-2.923 -4.565,-3.408 l -2.302,-0.578 c -1.177,-0.292 -2.365,0.418 -2.66,1.592 -0.295,1.175 0.418,2.365 1.592,2.66 l 2.302,0.578 c 0.786,0.197 1.446,0.69 1.859,1.389 0.397,0.671 0.518,1.452 0.343,2.209 l -25.794,70.74 c -0.414,1.138 0.171,2.396 1.309,2.811 0.248,0.09 0.501,0.133 0.751,0.133 0.895,0 1.735,-0.552 2.06,-1.441 l 18.61,-51.039 39.862,51.768 c 0.02,0.026 0.046,0.043 0.066,0.068 0.074,0.088 0.153,0.171 0.241,0.247 0.045,0.039 0.091,0.074 0.139,0.109 0.076,0.056 0.156,0.106 0.241,0.152 0.06,0.033 0.119,0.064 0.182,0.091 0.03,0.013 0.056,0.031 0.086,0.043 0.063,0.024 0.127,0.035 0.191,0.053 0.049,0.014 0.097,0.031 0.147,0.041 0.148,0.031 0.296,0.05 0.444,0.05 0,0 10e-4,0 10e-4,0 0,0 0.001,0 0.001,0 0.206,0 0.412,-0.034 0.613,-0.093 0.014,-0.004 0.029,-0.006 0.043,-0.01 0.18,-0.057 0.352,-0.142 0.517,-0.248 0.03,-0.019 0.059,-0.037 0.088,-0.057 0.024,-0.017 0.05,-0.029 0.073,-0.047 0.133,-0.102 0.248,-0.219 0.351,-0.344 0.022,-0.027 0.039,-0.057 0.06,-0.085 0.11,-0.147 0.199,-0.304 0.268,-0.47 0.009,-0.021 0.024,-0.036 0.033,-0.057 l 16.97,-44.505 24.353,44.771 c 0.398,0.73 1.15,1.145 1.928,1.145 0.354,0 0.713,-0.086 1.046,-0.267 1.061,-0.577 1.454,-1.908 0.876,-2.971 z m -76.362,-42.62 c 11.607,7.565 24.936,11.81 38.728,12.372 l -10.24,26.855 -31.96,-41.508 z"
   id="path242" /><path
   style="fill:#b1b1b0"
   d="m 534.053,417.47 c -0.028,0 -0.056,0.004 -0.084,0.004 l -44.699,-3.209 c -1.192,-0.259 -1.877,-0.244 -3.279,-0.235 v 0.058 c -5.595,0.599 -9.839,5.711 -9.009,11.625 0.613,4.37 4.116,7.93 8.479,8.604 2.546,0.393 4.948,-0.154 6.914,-1.348 6.983,-4.24 14.781,-6.96 22.951,-6.985 l 1.617,-0.005 c 4.862,-0.015 9.494,1.606 13.677,4.083 1.139,0.674 2.492,1.023 3.935,0.919 3.433,-0.247 6.216,-3.205 6.266,-6.645 0.053,-3.783 -2.997,-6.866 -6.768,-6.866 z"
   id="path243" /><path
   style="fill:#6a6e72;stroke-width:1.41899"
   d="m 520.016,383.77575 -22.877,-4.5405 c -1.112,0 -2.013,-1.81418 -2.013,-4.05121 V 374.284 h 24.201 c 1.493,0 2.703,2.43636 2.703,5.44054 v 0 c 0,2.23702 -0.902,4.05121 -2.014,4.05121 z"
   id="path244" /><path
   style="fill:#6a6e72"
   d="m 500.936,423.736 h 7.781 c 0.984,0 1.781,0.797 1.781,1.781 v 0 c 0,0.983 -0.798,1.781 -1.781,1.781 h -7.781 c -0.984,0 -1.781,-0.797 -1.781,-1.781 v 0 c -10e-4,-0.984 0.797,-1.781 1.781,-1.781 z"
   id="path245" /><g
   id="g249"
   transform="matrix(3.552258,0,0,3.552258,-1240.8225,-870.88019)">
						<path
   style="fill:#6a6e72"
   d="m 424.192,355.754 2.248,1.78 -4.701,5.93 -2.247,-1.78 c -0.47,-0.373 -0.55,-1.056 -0.177,-1.526 l 3.351,-4.228 c 0.373,-0.469 1.056,-0.548 1.526,-0.176 z"
   id="path246" />
						<path
   style="fill:#422c4f"
   d="m 425.805,368.217 c 0.291,0.231 0.636,0.399 1.007,0.43 0.978,0.082 2.046,0.496 2.999,1.251 0.954,0.755 1.601,1.7 1.904,2.632 0.115,0.353 0.358,0.651 0.649,0.881 l 2.438,1.931 c 0.862,0.682 2.113,0.537 2.796,-0.324 l 3.699,-4.667 c 0.683,-0.861 0.538,-2.112 -0.324,-2.795 l -2.438,-1.931 c -0.291,-0.231 -0.637,-0.399 -1.007,-0.43 -0.978,-0.082 -2.046,-0.496 -2.999,-1.251 -0.954,-0.755 -1.601,-1.7 -1.904,-2.632 -0.115,-0.353 -0.358,-0.651 -0.649,-0.881 l -4.801,-3.803 c -0.862,-0.682 -2.113,-0.537 -2.796,0.324 l -3.7,4.667 c -0.683,0.861 -0.538,2.112 0.324,2.795 z"
   id="path247" />
						<g
   id="g248">
							<path
   style="fill:#6a6e72"
   d="m 420.694,355.675 1.713,1.357 -2.101,2.651 -1.713,-1.357 c -0.349,-0.276 -0.408,-0.783 -0.131,-1.132 l 1.101,-1.389 c 0.275,-0.347 0.782,-0.406 1.131,-0.13 z"
   id="path248" />
						</g>
					</g><path
   style="fill:#8c404c"
   d="m 519.016,325.922 c 0.205,-4.31 -14.24,6.971 -31.814,12.781 0,0 -17.637,7.05 -24.139,4.385 -1.563,-0.641 -3.363,-0.161 -4.436,1.144 v 0 c -0.709,0.863 -1.695,2.378 -0.831,3.086 7.543,6.185 26.198,3.67 34.368,3.418 6.499,-0.199 26.647,-20.504 26.852,-24.814 z"
   id="path249" /><g
   id="g252">
						<path
   style="fill:#414848"
   d="m 509.375,415.058 c 2.664,1.442 1.565,3.212 -0.385,6.364 -1.95,3.152 -6.718,3.879 -6.967,2.956 -0.582,-2.158 1.923,-2.015 2.508,-4.164 1.169,-4.295 3.109,-6.095 4.844,-5.156 z"
   id="path250" />
						<path
   style="fill:#ecb39b"
   d="m 504.135,411.068 3.811,4.675 c 0.443,0.635 0.316,1.505 -0.289,1.988 v 0 c -0.61,0.486 -1.493,0.412 -2.013,-0.17 l -4.204,-4.344 z"
   id="path251" />
						<path
   style="fill:#454f6b"
   d="m 489.124,371.725 -20.229,-2.272 c -0.572,2.347 -0.825,4.427 -0.539,5.925 2.463,12.899 33.678,39.377 33.678,39.377 1.661,-0.443 3.063,-1.499 4.134,-3.344 0,0 -19.81,-30.805 -19.258,-36.104 0.149,-1.425 0.993,-2.53 2.214,-3.582 z"
   id="path252" />
					</g><path
   style="fill:#454f6b"
   d="m 525.314,355.695 c 0,0 5.774,16.75 -6.479,19.728 -2.9,0.705 -11.132,0.066 -21.844,-0.556 -13.014,-0.756 -28.636,0.512 -28.636,0.512 0,0 -2.692,-7.419 3.006,-11.487 14.224,-10.157 53.953,-8.197 53.953,-8.197 z"
   id="path253" /><path
   style="fill:#ecb39b"
   d="m 511.238,325.381 v 0 c 1.825,0.052 3.347,-1.385 3.398,-3.21 l 0.309,-10.902 -6.61,-0.187 -0.309,10.902 c -0.051,1.825 1.387,3.346 3.212,3.397 z"
   id="path254" /><path
   style="fill:#e8a286"
   d="m 508.335,311.082 6.61,0.187 c 0,0 -3.483,2.902 -3.467,4.519 l -3.451,6.196 z"
   id="path255" /><path
   style="fill:#ecb39b"
   d="m 505.234,318.066 v 0 c 3.99,0.113 9.459,-3.823 9.555,-7.203 l 0.198,-6.978 -14.45,-0.409 -0.198,6.978 c -0.096,3.38 3.15,7.562 4.895,7.612 z"
   id="path256" /><path
   style="fill:#422c4f"
   d="m 496.057,298.742 c 0.559,-2.821 2.844,-5.099 5.665,-5.666 1.569,-0.315 3.076,-0.127 4.386,0.434 1.83,0.782 3.804,1.153 5.765,0.816 0.374,-0.064 0.758,-0.099 1.15,-0.103 3.677,-0.035 6.746,2.701 7.205,6.245 0.174,1.349 0.594,2.635 1.213,3.846 0.726,1.421 0.993,3.115 0.599,4.896 -0.587,2.652 -4.454,8.704 -7.169,8.582 -2.338,-0.106 -5.223,-5.701 -5.266,-10.186 -0.004,-0.417 -1.745,-0.79 -1.681,-1.188 -0.101,-0.104 -0.201,-0.208 -0.295,-0.318 -1.206,0.907 -2.698,1.457 -4.323,1.473 -4.562,0.043 -8.19,-4.088 -7.249,-8.831 z"
   id="path257" /><path
   style="fill:#8c404c"
   d="m 525.314,355.695 c 0,0 2.88,-35.992 -9.877,-34.421 -12.757,1.571 -14.488,9.498 -18.24,17.415 -2.41,5.085 5.714,10.119 7.629,17.223 0.76,2.82 3.11,4.271 6.031,4.282 6.936,0.027 14.736,-0.423 14.457,-4.499 z"
   id="path258" /><path
   style="fill:#ecb39b"
   d="m 455.576,346.954 c 0,0 -5.366,0.946 -8.844,-1.435 -1.421,-0.973 -3.868,2.624 -3.919,1.62 -0.075,-1.478 0.606,-5.077 5.847,-4.195 1.836,0.309 6.929,1.513 6.929,1.513 z"
   id="path259" /><path
   style="fill:#bd6c67"
   d="m 508.027,326.534 c -2.542,-3.488 -7.192,4.209 -25.438,13.156 0,0 -20.915,-0.947 -26.615,3.163 -1.37,0.988 -1.914,2.769 -1.372,4.369 v 0 c 0.358,1.057 1.151,1.907 2.182,2.337 3.94,1.643 24.185,2.894 32.845,-2.24 5.591,-3.316 22.254,-15.494 18.398,-20.785 z"
   id="path260" /><path
   style="fill:#e8a286"
   d="m 510.266,308.91 c -0.043,1.511 -1.288,2.701 -2.782,2.659 l 0.155,-5.471 c 1.494,0.042 2.67,1.301 2.627,2.812 z"
   id="path261" /><path
   style="fill:#ffffff"
   d="m 510.627,312.591 c -0.605,1.643 -2.328,1.938 -3.289,1.971 0.05,-1.532 -0.296,-2.936 -0.502,-3.621 l 0.599,-0.443 v -1.374 l -1.531,1.282 -5.565,-0.907 c -2.623,10.643 5.612,8.944 5.612,8.944 0.636,-0.714 1.004,-1.55 1.201,-2.405 l 0.001,0.004 c 2.743,0.3 4.022,-2.181 4.022,-2.181 z"
   id="path262" />
</svg>
