<?xml version="1.0" encoding="UTF-8" standalone="no"?>
<!-- Generator: Adobe Illustrator 27.5.0, SVG Export Plug-In . SVG Version: 6.00 Build 0)  -->

<svg
   version="1.1"
   x="0px"
   y="0px"
   viewBox="0 0 500 500"
   style="enable-background:new 0 0 500 500;"
   xml:space="preserve"
   id="svg92"
   sodipodi:docname="pets.svg"
   inkscape:version="1.4 (86a8ad7, 2024-10-11)"
   xmlns:inkscape="http://www.inkscape.org/namespaces/inkscape"
   xmlns:sodipodi="http://sodipodi.sourceforge.net/DTD/sodipodi-0.dtd"
   xmlns="http://www.w3.org/2000/svg"
   xmlns:svg="http://www.w3.org/2000/svg"><defs
   id="defs92">
	

		
		
	
			
			
			
		
				
				
				
				
				
				
			
					
					
				
						
						
						
						
					
				
				
				
				
				
				
			
					
					
					
					
				
					
					
					
					
					
					
					
					
					
				
					
					
					
					
				
							
							
						</defs><sodipodi:namedview
   id="namedview92"
   pagecolor="#ffffff"
   bordercolor="#111111"
   borderopacity="1"
   inkscape:showpageshadow="0"
   inkscape:pageopacity="0"
   inkscape:pagecheckerboard="1"
   inkscape:deskcolor="#d1d1d1"
   inkscape:zoom="1.2034957"
   inkscape:cx="242.62653"
   inkscape:cy="365.18617"
   inkscape:window-width="1920"
   inkscape:window-height="1111"
   inkscape:window-x="-9"
   inkscape:window-y="122"
   inkscape:window-maximized="1"
   inkscape:current-layer="svg92" />
<g
   id="BACKGROUND">
	<rect
   style="fill:#F7EFE4;"
   width="500"
   height="500"
   id="rect1" />
	
		<ellipse
   transform="matrix(0.7071 -0.7071 0.7071 0.7071 -85.1548 242.3791)"
   style="fill:#FFFFFF;"
   cx="250"
   cy="223.98"
   rx="199.02"
   ry="199.02"
   id="ellipse1" />
</g>
<path
   style="fill:#b7b2ae"
   d="m 256.606,457.184 c -148.758,0 -227.898,-6.864 -227.898,-20.698 0,-13.834 124.177,-17.937 217.008,-17.937 92.831,0 231.903,5.61 231.903,17.937 0,12.327 -47.273,20.698 -221.013,20.698 z"
   id="path1" /><path
   style="fill:#191919"
   d="m 281.064,148.369 c 0,0 -3.741,15.249 19.195,22.427 22.936,7.178 36.275,4.576 45.873,-1.443 9.598,-6.019 9.598,-6.019 9.598,-6.019 0,0 5.937,1.996 10.411,-5.387 4.473,-7.383 -0.813,-14.784 -0.813,-14.784 0,0 11.712,-2.847 10.736,-16.755 -0.976,-13.908 -11.55,-14.966 -11.55,-14.966 0,0 5.449,-15.372 -8.459,-21.96 -13.908,-6.588 -20.008,0 -20.008,0 0,0 -1.789,-14.396 -13.339,-14.478 -11.55,-0.081 -15.616,10.411 -15.616,10.411 0,0 -7.108,-8.052 -15.266,-3.091 -8.158,4.961 -5.881,13.176 -5.881,13.176 0,0 -10.98,-1.952 -16.755,9.272 -5.775,11.224 3.579,22.774 3.579,22.774 0,0 -6.1,5.287 -3.579,12.2 2.52,6.915 11.874,8.623 11.874,8.623 z"
   id="path2" /><path
   style="fill:#36bcc6"
   d="m 311.889,430.926 v -3.091 l 15.942,-6.019 c 0,0 -16.267,-16.999 -33.998,-31.232 -7.672,-6.159 -17.348,-12.62 -25.859,-17.971 -6.509,2.992 -13.169,6.294 -19.041,9.675 -20.412,11.753 -17.24,37.617 -13.579,43.107 2.637,3.956 29.39,9.221 44.133,11.855 3.553,-1.532 15.012,-2.616 19.926,-3.432 6.832,-1.134 12.476,-2.892 12.476,-2.892 z"
   id="path3" /><path
   style="fill:#258399"
   d="m 315.541,435.758 0.09,-0.602 v 0 l 0.77,-3.346 c 0,0 29.73,-9.667 49.495,-16.987 19.764,-7.32 52.379,-15.128 52.379,-15.128 -9.679,-7.564 -30.257,-17.3 -30.257,-17.3 l 17.75,-20.523 c -11.361,-4.476 -20.05,-7.48 -20.05,-7.48 l -86.437,5.323 c 0,0 -15.191,5.493 -31.309,12.9 8.512,5.351 18.187,11.812 25.859,17.971 17.731,14.233 33.998,31.232 33.998,31.232 l -15.942,6.019 v 3.091 c 0,0 -5.645,1.758 -12.477,2.892 -4.914,0.816 -16.373,1.9 -19.926,3.432 5.716,1.021 9.629,1.647 9.629,1.647 0,0 11.095,1.824 18.496,-0.128 7.404,-1.954 7.932,-3.013 7.932,-3.013 z"
   id="path4" /><path
   style="fill:#36bcc6"
   d="m 455.689,387.819 c -7.816,-8.337 -32.141,-18.944 -49.92,-25.948 l -17.75,20.523 c 0,0 20.578,9.736 30.257,17.3 0,0 -32.615,7.808 -52.379,15.128 -19.764,7.32 -49.495,16.987 -49.495,16.987 l -0.77,3.346 c -0.981,3.629 -0.722,9.778 -0.488,12.688 0,0 0,5.246 2.44,5.612 2.44,0.366 103.702,-0.79 129.81,-13.754 26.108,-12.964 21.106,-38.218 8.295,-51.882 z"
   id="path5" /><path
   style="fill:#c16240"
   d="m 315.143,448.569 c 0,0 -0.431,1.623 -2.105,2.858 -1.976,1.457 -3.9,3.344 -8.766,2.313 -4.867,-1.031 -11.823,-0.443 -15.797,1.609 -3.974,2.052 -7.806,-1.054 -7.806,-1.054 0,0 -4.01,0.97 -4.151,-0.952 -0.14,-1.922 1.954,-3.036 3.366,-3.054 0,0 -4.751,0.166 -3.673,-2.624 1.078,-2.79 3.837,-2.666 3.837,-2.666 0,0 -4.139,0.256 -4.014,-2.15 0.125,-2.406 5.492,-1.995 5.492,-1.995 0,0 -7.323,-1.675 -4.482,-5.381 2.841,-3.706 6.977,-0.124 9.503,0.559 2.526,0.682 21.641,2.53 28.995,-0.273 z"
   id="path6" /><path
   style="fill:#c16240"
   d="m 363.212,376.594 c 0,0 0.671,8.296 -2.074,13.054 -2.745,4.758 -2.745,4.758 -2.745,4.758 0,0 1.952,17.141 0,17.446 -1.952,0.305 -3.721,-13.054 -3.721,-13.054 0,0 0.488,14.762 -2.196,15.25 -2.684,0.488 -2.196,-14.681 -2.196,-14.681 0,0 -2.603,15.779 -5.602,15.535 -2.999,-0.244 0.966,-17.324 0.966,-17.324 0,0 -4.006,16.47 -7.096,15.982 -3.09,-0.488 4.006,-25.214 6.131,-29.321 2.125,-4.108 8.774,-11.55 8.774,-11.55 z"
   id="path7" /><path
   style="fill:#e57428"
   d="m 376.469,268.582 c -2.033,0.407 -13.7981,41.96099 -13.7981,41.96099 0,0 -9.77954,-1.71493 -31.65854,5.93107 -16.294,5.694 -31.08736,16.25394 -41.10836,13.99894 -0.513,14.333 -0.586,27.829 0.838,29.604 3.172,3.951 29.255,6.699 44.316,5.538 15.061,-1.161 20.914,-4.148 20.914,-4.148 0,0 25.946,-37.821 29.118,-42.131 3.173,-4.312 -6.587,-51.161 -8.621,-50.754 z"
   id="path8"
   sodipodi:nodetypes="cccccsccc" /><path
   style="fill:#893820"
   d="m 333.525,211.16 c 3.444,-0.678 6.71,-3.159 9.509,-6.109 -2.963,-9.751 -5.686,-20.517 -5.686,-20.517 l -16.836,5.03 c 0,0 2.176,11.667 2.89,21.597 3.308,0.489 6.863,0.64 10.123,-0.001 z"
   id="path9" /><path
   style="fill:#c16240"
   d="m 334.826,242.88 c 3.293,-0.599 12.027,-12.231 18.293,-21.14 -3.503,-2.239 -6.103,-4.874 -7.231,-7.979 -0.921,-2.535 -1.9,-5.571 -2.854,-8.71 -2.799,2.95 -6.065,5.431 -9.509,6.109 -3.259,0.641 -6.815,0.49 -10.123,0.002 0.385,5.36 0.346,10.216 -0.694,12.455 -0.699,1.505 -2.269,3.089 -4.372,4.697 5.463,6.65 13.189,15.166 16.49,14.566 z"
   id="path10" /><path
   style="fill:#ffa440"
   d="m 411.281,256.69 c -6.588,-12.346 -9.763,-22.45 -25.561,-24.901 -11.086,-1.72 -24.358,-4.781 -32.601,-10.049 -6.266,8.909 -15,20.542 -18.293,21.14 -3.301,0.6 -11.027,-7.916 -16.491,-14.566 -6.827,5.221 -19.341,10.702 -26.51,14.596 -9.378,5.094 -40.465,17.942 -40.465,17.942 l 10.834,40.191 29.631,-7.012 c 0,0 -1.291,18.852 -1.921,36.442 10.021,2.255 31.719,5.942 48.012,0.249 21.879,-7.645 31.558,-17.894 31.558,-17.894 0,0 4.961,-43.839 6.995,-44.246 2.033,-0.407 11.793,46.442 8.621,50.753 -3.172,4.311 -29.118,42.131 -29.118,42.131 0,0 -8.5,9.394 -7.646,12.2 0.854,2.806 14.884,8.548 18.056,8.727 3.172,0.179 53.803,-47.646 58.317,-56.064 4.514,-8.418 -6.83,-57.293 -13.418,-69.639 z"
   id="path11" /><path
   style="fill:#c16240"
   d="m 302.699,131.939 c 0,0 -1.301,6.425 -5.205,10.736 -3.904,4.311 -6.669,5.531 -6.669,5.531 0,0 2.521,33.263 6.669,44.082 4.148,10.819 22.936,11.145 33.917,4.556 10.98,-6.588 13.827,-10.167 14.234,-15.779 0.407,-5.612 0,-7.157 0,-7.157 0,0 12.038,-2.033 13.176,-9.598 1.139,-7.564 -5.612,-13.502 -11.224,-11.55 -5.612,1.952 -7.157,11.224 -7.157,11.224 0,0 1.789,7.239 -1.789,7.32 -3.579,0.081 -4.88,-12.444 -4.717,-19.52 0.163,-7.076 -0.163,-12.851 -0.163,-12.851 0,0 -2.359,0.976 -6.669,-0.488 -4.311,-1.464 -7.971,-8.947 -7.971,-8.947 0,0 -8.136,12.934 -16.432,2.441 z"
   id="path12" /><path
   style="fill:#893820"
   d="m 308.238,161.894 c 3.781,-0.235 7.358,11.361 5.838,12.229 -1.52,0.868 -7.068,2.006 -7.949,0.852 -0.881,-1.155 -1.57,-12.852 2.111,-13.081 z"
   id="path13" /><path
   style="fill:#ff888e"
   d="m 324.525,168.462 c -0.743,-3.152 7.319,-5.746 8.398,-2.197 1.08,3.548 -7.656,5.348 -8.398,2.197 z"
   id="path14" /><path
   style="fill:#ff888e"
   d="m 295.116,171.372 c 0.017,-3.238 8.462,-3.87 8.68,-0.167 0.217,3.703 -8.697,3.405 -8.68,0.167 z"
   id="path15" /><path
   style="fill:#893820"
   d="m 347.104,165.632 c -0.061,-1.408 2.476,-7.192 4.189,-7.038 1.713,0.154 -1.624,5.705 -1.624,5.705 0,0 3.027,-0.823 3.021,0.357 -0.006,1.179 -5.525,2.371 -5.586,0.976 z"
   id="path16" /><path
   style="fill:#191919"
   d="m 324.038,153.016 c 2.825,-0.772 3.201,6.66 0.645,6.898 -2.557,0.236 -3.144,-6.215 -0.645,-6.898 z"
   id="path17" /><path
   style="fill:#191919"
   d="m 299.079,156.496 c 2.825,-0.772 3.201,6.66 0.645,6.898 -2.557,0.236 -3.144,-6.215 -0.645,-6.898 z"
   id="path18" /><path
   style="fill:#191919"
   d="m 328,145.503 c 0.929,-1.252 -4.671,-6.74 -6.041,-6.252 -1.369,0.487 -1.358,2.007 -1.082,3.232 0.276,1.226 6.105,4.392 7.123,3.02 z"
   id="path19" /><path
   style="fill:#191919"
   d="m 297.138,147.763 c 0.953,1.234 7.755,-2.666 7.658,-4.116 -0.097,-1.45 -1.563,-1.852 -2.817,-1.919 -1.255,-0.067 -5.885,4.683 -4.841,6.035 z"
   id="path20" /><g
   id="g22">
						<path
   style="fill:#ff888e"
   d="m 319.654,184.534 c -1.917,2.956 -3.126,5.788 -3.893,8.194 1.222,0.06 2.558,-0.064 4.018,-0.44 10.797,-2.784 13.719,-8.776 13.236,-13.276 -0.07,-0.652 -0.252,-1.277 -0.504,-1.872 -3.862,0.614 -9.601,2.374 -12.857,7.394 z"
   id="path21" />
						<path
   style="fill:#191919"
   d="m 324.476,172.79 c -2.684,1.708 -3.538,5.856 -7.869,7.503 -3.243,1.234 -7.869,-0.61 -9.882,1.769 -1.741,2.057 1.221,10.279 9.036,10.667 0.767,-2.406 1.976,-5.238 3.893,-8.194 3.256,-5.02 8.995,-6.78 12.857,-7.395 -1.489,-3.51 -5.739,-5.811 -8.035,-4.35 z"
   id="path22" />
					</g><path
   style="fill:#191919"
   d="m 159.37,121.041 c 0,0 -14.5,-3.741 -25.623,12.037 -11.123,15.778 -9.659,33.093 -20.396,43.062 -10.737,9.969 -20.984,14.209 -22.774,24.045 -1.789,9.836 5.043,17.076 0,23.135 -5.043,6.059 -21.635,9.855 -26.353,25.851 -4.717,15.995 1.952,22.153 1.952,22.153 0,0 -15.616,9.428 -17.243,26.117 -1.627,16.689 13.664,27.027 13.664,27.027 0,0 -0.658,18.439 23.099,16.708 23.757,-1.731 23.757,-1.731 23.757,-1.731 0,0 7.344,30.143 45.149,30.962 37.805,0.819 51.632,-28.298 51.632,-28.298 0,0 35.148,-0.532 39.48,-30.753 4.333,-30.22 -9.98,-38.739 -9.98,-38.739 0,0 14.583,-4.603 11.492,-31.566 -3.091,-26.963 -16.592,-27.44 -18.544,-40.866 -1.952,-13.426 -9.272,-10.264 -13.827,-24.045 -4.555,-13.781 -2.928,-43.022 -16.592,-55.486 -13.662,-12.464 -35.169,-9.048 -38.893,0.387 z"
   id="path24" /><g
   id="g28">
					<path
   style="fill:#e5906e"
   d="m 152.598,443.345 c 0,0 2.544,-2.167 5.21,-0.057 2.666,2.11 5.648,4.639 9.867,3.775 4.219,-0.865 10.232,-0.313 13.652,1.49 3.42,1.802 6.762,-0.867 6.762,-0.867 0,0 3.461,0.865 3.598,-0.801 0.137,-1.665 -1.665,-2.644 -2.886,-2.668 0,0 4.109,0.172 3.2,-2.253 -0.909,-2.425 -3.297,-2.334 -3.297,-2.334 0,0 3.579,0.247 3.491,-1.84 -0.088,-2.087 -4.734,-1.763 -4.734,-1.763 0,0 6.349,-1.408 3.923,-4.639 -2.426,-3.231 -6.034,-0.149 -8.225,0.427 -2.191,0.576 -21.814,-0.545 -30.106,0.184 z"
   id="path25" />
					<g
   id="g27">
						<path
   style="fill:#9fd85d"
   d="m 76.263,396.535 c 0,0 0.813,0.149 6.152,-5.137 5.339,-5.287 14.263,-16.023 13.96,-17.08 -0.303,-1.057 -2.137,-3.253 -6.936,-7.645 -2.067,-1.892 -6.245,-4.377 -10.333,-6.595 -8.069,4.362 -16.615,9.922 -23.665,16.68 -19.683,18.87 -20.496,34.811 -8.459,49.452 12.038,14.64 36.275,18.202 66.694,22.603 30.419,4.401 43.895,0 43.895,0 0,0 3.408,-9.277 1.798,-16.835 0,0 -21.098,-10.817 -39.349,-18.619 -18.25,-7.804 -43.757,-16.824 -43.757,-16.824 z"
   id="path26" />
						<path
   style="fill:#6eb545"
   d="m 185.252,348.308 h -78.766 c 0,0 -12.922,3.953 -27.381,11.769 4.088,2.218 8.267,4.703 10.333,6.595 4.799,4.392 6.633,6.588 6.936,7.645 0.303,1.057 -8.621,11.794 -13.96,17.08 -5.339,5.287 -6.152,5.137 -6.152,5.137 0,0 25.507,9.021 43.758,16.823 18.251,7.802 39.349,18.619 39.349,18.619 l 20.635,-10.01 z"
   id="path27" />
					</g>
				</g><g
   id="g30">
					<g
   id="g29">
						<path
   style="fill:#ffccb3"
   d="m 165.162,223.32 c 0,-1.701 0.055,-3.85 0.137,-6.121 -8.202,2.667 -15.79,-0.999 -18.827,-5.361 -1.153,3.884 -2.752,7.523 -4.978,10.058 -3.743,4.261 -9.126,6.651 -15.195,9.559 3.221,8.139 10.582,19.312 26.5,17.525 12.6,-1.414 18.048,-9.341 20.372,-16.753 -4.836,-2.587 -8.009,-5.547 -8.009,-8.907 z"
   id="path28" />
						<path
   style="fill:#e5906e"
   d="m 165.299,217.199 c 0.251,-6.908 0.758,-14.945 0.758,-14.945 l -16.632,-10.777 c 0,0 -0.148,10.908 -2.954,20.362 3.038,4.361 10.626,8.026 18.828,5.36 z"
   id="path29" />
					</g>
					<path
   style="fill:#5a56b7"
   d="m 192.084,239.139 c -6.985,-1.912 -13.858,-4.208 -18.914,-6.912 -2.324,7.412 -7.772,15.34 -20.372,16.753 -15.919,1.786 -23.279,-9.386 -26.5,-17.525 -6.326,3.032 -13.397,6.626 -20.144,13.497 -13.218,13.463 -27.678,58.047 -29.404,64.952 l 32.704,29.54 c 0,0 19.35,15.027 47.574,14.945 28.223,-0.081 49.207,-12.282 49.207,-12.282 l 16.755,-91.216 c 0.001,0.001 -17.241,-8.011 -30.906,-11.752 z"
   id="path30" />
				</g><path
   style="fill:#e57428"
   d="m 185.259,312.473 c 0,0 7.82,-1.78 8.199,-13.031 0.378,-11.251 -5.487,-17.116 -11.1,-25.568 -5.613,-8.451 -3.595,-21.506 7.064,-22.831 10.659,-1.324 6.055,10.343 5.55,16.65 -0.505,6.307 11.226,11.605 11.1,28.759 -0.126,17.155 -15.2,30.021 -25.228,31.534 l -0.126,-13.497 z"
   id="path31"
   inkscape:export-filename="path31.png"
   inkscape:export-xdpi="384"
   inkscape:export-ydpi="384" /><g
   id="g36">
							<path
   style="fill:#ffa440"
   d="m 160.095,323.573 c 0.495,-0.231 0.891,-0.479 1.244,-0.736 -0.989,-0.733 -1.749,-1.156 -1.749,-1.156 0,0 0.76,0.424 1.749,1.156 3.602,-2.618 0.139,-6.505 -3.767,-10.238 0,0 -3.406,-4.478 -9.523,-5.298 -6.118,-0.82 -8.073,4.163 -9.145,6.055 0,0 3.54278,3.3083 7.32678,7.0923 3.784,3.784 8.31422,5.7107 13.86422,3.1247 z"
   id="path32"
   sodipodi:nodetypes="cccccccsc" />
							<path
   style="fill:#ffa440"
   d="m 170.564,318.023 c 0,0 2.081,-7.694 5.802,-12.614 2.072,-2.739 4.063,-3.794 5.424,-4.194 0.179,-1.434 0.315,-2.829 0.315,-3.775 0,-2.816 0,-2.816 0,-2.816 0,0 4.667,-0.424 4.793,-3.492 0.126,-3.068 -2.46,-8.617 -8.704,-6.662 -6.244,1.955 -6.622,18.795 -6.622,18.795 0,0 -5.704,0.819 -10.3,4.778 6.792,3.377 9.292,9.98 9.292,9.98 z"
   id="path33" />
							<path
   style="fill:#e57428"
   d="m 161.339,322.837 c 1.453,1.076 3.4,2.827 4.204,4.934 4.289,-0.07 7.67,2.108 7.67,2.108 0,0 0.568,-5.046 1.766,-13.118 1.198,-8.073 5.928,-9.713 5.928,-9.713 0,0 0.528,-2.996 0.883,-5.834 -1.36,0.399 -3.92325,1.09148 -5.99525,3.83048 -3.721,4.919 -5.30419,11.65555 -5.30419,11.65555 0,0 -2.42656,-5.28103 -9.21756,-8.65803 -1.4,1.206 -2.699,2.701 -3.701,4.557 3.906,3.733 7.369,7.62 3.767,10.238 z"
   id="path34"
   sodipodi:nodetypes="ccccccccccc" />
							<path
   style="fill:#ffd150"
   d="m 121.7197,324.60694 c 0,0 5.39233,-3.97435 8.92433,-4.35235 3.532,-0.378 2.12109,1.20137 5.46409,6.18437 3.343,4.983 10.25763,4.84959 4.70203,5.19626 -4.42712,0.27625 -12.21511,-5.4833 -12.21511,-5.4833 -0.063,4.226 4.75999,15.30714 11.63499,16.44214 6.875,1.135 17.35107,0.14689 17.35107,0.14689 0,0 0.32881,-5.92969 6.88781,-9.84069 1.94,-1.157 -0.72791,-5.09926 1.07309,-5.12926 -0.804,-2.107 -2.751,-3.858 -4.204,-4.934 -0.353,0.256 -0.749,0.505 -1.244,0.736 -5.55,2.586 -9.713,-0.883 -13.497,-4.667 -3.784,-3.784 -7.694,-5.55 -7.694,-5.55 l -8.01,-3.296 -14.007,0.57 c 0.625,1.532 1.283,3.054 1.835,4.113 1.577,3.027 2.9987,9.86394 2.9987,9.86394 z"
   id="path35"
   sodipodi:nodetypes="cssscscccccsccccc" />
							<path
   style="fill:#ffa440"
   d="m 180.908,307.049 c 0,0 -4.73,1.64 -5.928,9.713 -1.198,8.073 -1.766,13.118 -1.766,13.118 0,0 -3.382,-2.178 -7.67,-2.108 0.182,0.476 0.309,0.969 0.354,1.478 -0.045,-0.508 -0.173,-1.001 -0.354,-1.478 -1.802,0.03 -3.76,0.447 -5.7,1.604 -6.559,3.91 -8.577,10.722 -8.577,10.722 0,0 -2.838,1.135 -9.713,0 -6.875,-1.135 -11.037,-7.884 -10.974,-12.109 0,0 7.127,10.974 12.362,9.082 5.235,-1.892 2.46,-7.631 -0.883,-12.614 -3.343,-4.982 -6.559,-8.325 -10.091,-7.947 -3.532,0.378 -8.704,4.793 -8.704,4.793 0,0 -2.964,-3.532 -4.541,-6.559 -0.552,-1.059 -1.21,-2.582 -1.835,-4.113 l -14.282,0.581 c 0,0 -4.569,12.361 6.468,26.867 11.037,14.506 27.183,24.408 48.311,20.939 21.128,-3.469 25.858,-25.228 26.174,-29.012 0.315,-3.784 0,-9.839 0,-9.839 0,0 5.676,-0.907 6.37,-3.954 0.691,-3.047 -2.652,-12.822 -9.021,-9.164 z"
   id="path36" />
						</g><path
   style="fill:#ff485e"
   d="m 101.188,306.271 c 0,0 -1.261,7.568 -0.589,8.241 0.672,0.673 6.949,2.753 18.569,1.04 11.62,-1.713 14.353,-5.235 14.563,-5.492 0.21,-0.257 -1.85,-6.228 -1.85,-6.228 z"
   id="path37" /><g
   id="g40">
								<path
   style="fill:#e57428"
   d="m 124.52603,275.06661 c 0.189,0.505 5.35797,1.20439 7.06097,3.47439 0,0 1.724,-4.73 1.135,-8.514 -0.325,-2.087 -1.532,-4.324 -2.726,-5.921 -1.187,2.402 -3.18315,4.18668 -3.72115,5.95568 -1.198,3.94 -1.93782,4.50093 -1.74882,5.00493 z"
   id="path38"
   sodipodi:nodetypes="cccccc" />
								<path
   style="fill:#ffa440"
   d="m 131.588,278.542 c -1.703,-2.271 -5.55,-3.154 -5.739,-3.658 -0.189,-0.504 0,0 1.198,-3.94 0.538,-1.77 1.763,-4.435 2.95,-6.837 -0.97,-1.298 -1.932,-2.173 -2.403,-2.193 -1.051,-0.043 -5.382,7.315 -5.886,12.487 0,0 -5.573,-0.883 -9.997,0.505 0,0 -3.71,-11.395 -6.148,-12.866 -0.76,-0.458 -2.029,0.375 -3.269,2.005 1.142,2.017 2.442,4.507 2.932,6.173 0.946,3.216 1.261,5.613 1.261,5.928 0,0.315 -3.847,1.324 -6.181,5.046 0,0 -3.742,5.361 -3.91,12.971 -0.168,7.61 0.715,12.109 2.775,13.371 2.06,1.261 9.418,3.601 20.266,1.969 10.848,-1.632 16.356,-6.258 17.323,-7.75 0.966,-1.495 2.102,-16.547 -5.172,-23.211 z"
   id="path39" />
								<path
   style="fill:#e57428"
   d="m 107.03682,276.40205 c 0,-0.315 -0.53533,-3.18938 -1.48133,-6.40538 -0.49,-1.666 -2.12149,-3.93567 -3.26249,-5.95267 -2.74,3.601 -5.338,11.094 -1.987,17.147 2.333,-3.722 6.73082,-4.47395 6.73082,-4.78895 z"
   id="path40"
   sodipodi:nodetypes="scccs" />
							</g><g
   id="g44">
								<path
   style="fill:#2b2b2b"
   d="m 118.122,294.613 c -1.263,-0.243 -2.852,-1.917 -2.898,-2.566 -0.047,-0.649 4.336,-1.235 4.674,-0.715 0.339,0.52 -1.161,3.4 -1.776,3.281 z"
   id="path41" />
								<path
   style="fill:#2b2b2b"
   d="m 126.646,287.148 c -1.821,0.181 -2.788,2.13 -3.331,1.924 -0.543,-0.206 -0.862,-1.162 -0.57,-1.645 0.292,-0.483 2.056,-1.833 3.789,-1.849 1.733,-0.015 4.116,2.712 3.785,3.014 -0.331,0.301 -1.727,-1.638 -3.673,-1.444 z"
   id="path42" />
								<path
   style="fill:#2b2b2b"
   d="m 107.139,289.311 c 2.046,-0.096 3.412,1.686 3.982,1.401 0.57,-0.286 0.78,-1.28 0.384,-1.713 -0.397,-0.434 -2.555,-1.503 -4.479,-1.256 -1.924,0.247 -4.152,3.304 -3.74,3.553 0.412,0.247 1.666,-1.882 3.853,-1.985 z"
   id="path43" />
								<path
   style="fill:#2b2b2b"
   d="m 118.764,297.777 c -0.835,-0.056 -0.838,2.271 -3.541,2.523 -2.703,0.252 -2.598,-2.292 -3.145,-1.808 -0.547,0.483 0.298,3.111 3.145,2.943 2.847,-0.168 3.541,-2.439 3.541,-2.439 0,0 0.946,1.934 3.322,1.388 2.376,-0.546 2.313,-2.901 2.018,-2.943 -0.294,-0.042 -0.736,2.068 -2.228,2.001 -1.494,-0.067 -2.482,-1.623 -3.112,-1.665 z"
   id="path44" />
							</g><g
   id="g49">
						<g
   id="g48">
							<path
   style="fill:#ffccb3"
   d="m 172.58,360.843 c 1.505,-1.377 2.818,-2.819 2.818,-2.819 0,0 1.473,-0.961 2.306,-3.344 0.361,-1.032 0.432,-2.2 0.398,-3.193 -3.425,6.639 -8.422,7.37 -8.422,7.37 0,0 5.749,-4.356 6.486,-5.829 0.737,-1.473 1.666,-3.843 1.666,-3.843 0.961,-2.242 1.977,-7.339 0.641,-7.077 -1.336,0.262 -4.676,6.884 -5.303,8.23 -0.626,1.345 -8.278,6.043 -8.278,6.043 0,0 5.317,-6.043 6.278,-8.073 0.961,-2.03 2.883,-10.077 1.537,-10.353 -1.345,-0.276 -3.715,6.874 -5.381,9.564 -1.665,2.69 -9.608,9.288 -10.505,8.84 -0.897,-0.448 -0.512,-2.562 0.75,-5.536 1.262,-2.974 4.054,-7.788 2.23,-8.715 -1.824,-0.927 -5.03,3.297 -6.183,4.771 -1.153,1.474 -4.64,7.125 -6.918,7.802 -2.279,0.677 -5.486,-0.756 -5.486,-0.756 l -3.746,12.555 c 0,0 13.268,4.612 18.072,3.943 4.804,-0.669 13.836,-3.879 16.655,-6.506 1.368,-1.275 2.16,-2.698 2.615,-3.828 -3.21,2.856 -5.626,3.316 -5.626,3.316 0,0 1.891,-1.184 3.396,-2.562 z"
   id="path46" />
							<path
   style="fill:#e5906e"
   d="m 169.681,358.858 c 0,0 4.997,-0.731 8.422,-7.37 -0.044,-1.301 -0.27,-2.303 -0.27,-2.303 0,0 -0.929,2.37 -1.666,3.843 -0.736,1.474 -6.486,5.83 -6.486,5.83 z"
   id="path47" />
							<path
   style="fill:#e5906e"
   d="m 172.58,360.843 c -1.505,1.377 -3.395,2.562 -3.395,2.562 0,0 2.416,-0.459 5.626,-3.316 0.483,-1.198 0.588,-2.065 0.588,-2.065 0,0 -1.314,1.442 -2.819,2.819 z"
   id="path48" />
						</g>
						<path
   style="fill:#806bce"
   d="m 76.751,309.905 c 0,0 30.256,15.449 44.653,24.965 14.396,9.516 23.425,18.544 23.425,18.544 0,0 -1.098,11.712 -8.296,19.032 0,0 -23.424,-3.05 -43.921,-16.836 C 72.115,341.824 71.749,326.786 76.751,309.905 Z"
   id="path49" />
					</g><path
   style="fill:#ffccb3"
   d="m 163.547,144.262 c 0,0 -1.11,6.344 -3.998,10.655 -2.887,4.311 -6.344,5.937 -6.344,5.937 0,0 2.196,24.965 0,25.191 -2.196,0.226 -3.497,-10.388 -3.497,-10.388 0,0 -5.327,-10.492 -11.631,-6.67 -6.303,3.823 -4.473,15.454 0.976,17.894 5.449,2.44 6.913,2.115 6.913,2.115 0,0 1.911,10.579 9.028,15.761 7.117,5.182 12.453,9.818 19.85,8.883 7.397,-0.935 20.126,-15.128 22.606,-23.018 2.481,-7.889 2.359,-23.912 1.952,-27.654 -0.407,-3.741 -0.569,-6.669 -0.569,-6.669 0,0 -6.425,4.555 -16.592,2.359 -10.166,-2.196 -18.694,-14.396 -18.694,-14.396 z"
   id="path50" /><g
   id="g59">
					<path
   style="fill:#e5906e"
   d="m 181.998,172.485 c -3.09,-0.125 -5.734,11.57 -4.473,12.393 1.261,0.824 5.816,1.799 6.507,0.62 0.691,-1.179 0.975,-12.891 -2.034,-13.013 z"
   id="path51" />
					<path
   style="fill:#ff888e"
   d="m 166.3,182.814 c 0.651,-3.172 -7.483,-5.531 -8.459,-1.952 -0.976,3.579 7.809,5.124 8.459,1.952 z"
   id="path52" />
					<path
   style="fill:#ff888e"
   d="m 195.781,184.867 c -0.111,-3.236 -8.571,-3.622 -8.681,0.086 -0.109,3.708 8.793,3.151 8.681,-0.086 z"
   id="path53" />
					<path
   style="fill:#e5906e"
   d="m 145.967,183.058 c 0.02,-1.409 -2.684,-7.117 -4.392,-6.913 -1.708,0.203 1.789,5.656 1.789,5.656 0,0 -3.05,-0.735 -3.009,0.445 0.04,1.178 5.592,2.209 5.612,0.812 z"
   id="path54" />
					<path
   style="fill:#191919"
   d="m 166.337,167.361 c -2.846,-0.69 -3.006,6.751 -0.444,6.913 2.563,0.163 2.962,-6.303 0.444,-6.913 z"
   id="path55" />
					<path
   style="fill:#191919"
   d="m 192.365,167.361 c -2.847,-0.69 -3.006,6.751 -0.444,6.913 2.562,0.163 2.961,-6.303 0.444,-6.913 z"
   id="path56" />
					<g
   id="g58">
						<path
   style="fill:#ff888e"
   d="m 171.302,196.031 c -3.044,-0.609 -5.669,-0.478 -7.755,-0.089 0.709,3.63 2.626,7.701 7.064,8.589 2.903,0.581 5.606,-0.017 7.882,-1.089 -0.538,-2.646 -2.188,-6.41 -7.191,-7.411 z"
   id="path57" />
						<path
   style="fill:#191919"
   d="m 185.251,197.089 c -0.081,-1.465 -5.368,-3.539 -9.354,-5.084 -6.526,-2.531 -11.631,-2.806 -12.363,-2.115 -0.333,0.314 -0.578,3.03 0.012,6.052 2.086,-0.389 4.711,-0.52 7.755,0.089 5.002,1 6.652,4.765 7.191,7.41 4.103,-1.931 6.812,-5.41 6.759,-6.352 z"
   id="path58" />
					</g>
					<path
   style="fill:#191919"
   d="m 159.305,161.017 c -0.965,-1.224 4.474,-6.873 5.856,-6.426 1.383,0.447 1.416,1.966 1.176,3.2 -0.24,1.233 -5.974,4.568 -7.032,3.226 z"
   id="path59" />
				</g><g
   id="g90"
   inkscape:export-filename="pets.png"
   inkscape:export-xdpi="384"
   inkscape:export-ydpi="384">
				<path
   style="fill:#dba85e"
   d="m 165.812,389.527 c 0,0 -11.956,11.346 -30.989,5.368 -19.032,-5.978 -6.387,-43.458 -11.49,-44.055 -5.103,-0.598 -8.729,15.822 -8.729,15.822 0,0 -0.019,-7.876 -5.15,-8.732 -5.131,-0.856 -7.144,15.257 -6.443,24.464 0.701,9.207 8.195,12.745 8.195,12.745 0,0 -9.127,-4.514 -9.714,-0.488 -0.586,4.026 4.649,11.468 14.903,12.2 0,0 -13.146,4.514 -4.984,8.052 8.162,3.538 15.116,-2.243 15.116,-2.243 0,0 -12.417,6.513 -1.023,8.831 11.394,2.318 30.67,-4.026 36.648,-15.128 z"
   id="path60" />
				<g
   id="g69">
					<path
   style="fill:#dba85e"
   d="m 218.843,439.71 c -1.089,-0.272 -0.918,5.938 -0.759,9.135 0.67,-0.007 1.339,-0.018 1.993,-0.031 0.009,-2.731 -0.1,-8.82 -1.234,-9.104 z"
   id="path61" />
					<path
   style="fill:#dba85e"
   d="m 211.369,439.71 c -1.073,-0.268 -0.923,5.747 -0.766,8.984 0.505,0.053 1.195,0.091 2.001,0.117 0.008,-2.732 -0.101,-8.818 -1.235,-9.101 z"
   id="path62" />
					<path
   style="fill:#ede8e4"
   d="m 204.454,396.535 c 0.207,1.082 0.372,2.188 0.48,3.321 1.627,17.08 -3.335,28.548 -4.717,31.883 0,0 6.466,1.342 14.64,-1.464 0,0 -2.77,-18.971 -4.916,-37.015 -1.277,0.928 -3.414,2.368 -5.487,3.275 z"
   id="path63" />
					<path
   style="fill:#ffffff"
   d="m 239.42,378.953 c 0,0 4.304,4.148 9.513,3.335 3.453,-0.539 6.86,-3.36 8.77,-5.205 0.241,-3.664 0.099,-6.67 0.099,-6.67 0,0 1.301,3.335 3.904,2.033 2.603,-1.301 -1.789,-11.305 -1.789,-11.305 0,0 2.521,3.497 3.904,1.627 1.383,-1.871 -2.115,-6.019 -2.115,-6.019 0,0 6.914,4.07 8.947,1.181 2.033,-2.889 -3.904,-9.965 -3.904,-9.965 0,0 2.277,1.464 3.416,-1.301 1.139,-2.765 -4.392,-7.219 -4.392,-7.219 0,0 5.159,0.702 5.304,-1.489 0.145,-2.191 -4.979,-5.885 -4.979,-5.885 0,0 3.172,-0.657 3.904,-2.996 0.732,-2.338 -2.359,-13.481 -13.827,-14.783 -11.468,-1.301 -18.707,16.094 -19.195,23.663 -0.088,1.357 -0.196,3.471 -0.326,6.105 0.001,0.003 2.44,15.536 2.603,25.214 z"
   id="path64" />
					<path
   style="fill:#dba85e"
   d="m 208.513,380.336 c -2.033,-20.415 -2.277,-38.227 -2.277,-38.227 0,0 -2.684,11.797 -5.531,15.821 -2.847,4.025 -11.172,13.477 -11.172,13.477 0,0 12.004,9.912 14.921,25.128 2.073,-0.907 4.209,-2.347 5.487,-3.275 -0.531,-4.465 -1.025,-8.874 -1.428,-12.924 z"
   id="path65" />
					<path
   style="fill:#f7cf7f"
   d="m 280.25,307.149 c -3.416,-11.076 -8.54,-19.226 -8.54,-19.226 l -56.853,-1.302 c 0,0 -5.035,1.444 -9.76,11.078 -4.725,9.634 -10.736,27.945 -22.204,41.746 -11.468,13.8 -19.429,26.658 -22.22,44.226 -2.791,17.568 -1.324,30.013 6.605,42.457 7.929,12.444 10.138,12.688 10.138,12.688 h 14.993 c 0,0 4.514,-1.952 7.808,-7.076 1.383,-3.335 6.344,-14.803 4.717,-31.883 -0.108,-1.134 -0.273,-2.24 -0.48,-3.321 -0.331,0.145 -0.661,0.28 -0.984,0.393 0.324,-0.113 0.653,-0.249 0.984,-0.393 -2.917,-15.216 -14.921,-25.128 -14.921,-25.128 0,0 8.325,-9.453 11.172,-13.477 2.847,-4.024 5.531,-15.821 5.531,-15.821 0,0 0.244,17.812 2.277,38.227 0.403,4.05 0.897,8.459 1.428,12.924 0.723,-0.525 1.175,-0.887 1.175,-0.887 0,0 -0.452,0.362 -1.175,0.887 2.146,18.044 4.916,37.015 4.916,37.015 0,0 -8.784,6.588 -8.784,9.516 0,2.928 2.111,8.296 3.801,8.784 0.159,0.046 0.407,0.085 0.729,0.119 -0.157,-3.237 -0.307,-9.252 0.766,-8.984 1.134,0.283 1.243,6.369 1.235,9.101 1.537,0.05 3.505,0.056 5.48,0.034 -0.159,-3.198 -0.331,-9.407 0.759,-9.135 1.134,0.284 1.243,6.373 1.235,9.104 2.619,-0.052 4.979,-0.146 6.004,-0.239 2.684,-0.244 4.555,-24.156 4.555,-24.156 0,0 1.139,-15.698 2.928,-31.883 1.469,-13.284 2.498,-36.419 3.09,-48.475 v 0 l -2.114,1.301 2.114,-1.301 v 0 c 0.129,-2.634 0.238,-4.748 0.326,-6.105 0.488,-7.569 7.727,-24.965 19.195,-23.663 11.468,1.301 14.559,12.444 13.827,14.783 -0.732,2.338 -3.904,2.996 -3.904,2.996 0,0 5.124,3.694 4.979,5.885 -0.145,2.191 -5.304,1.489 -5.304,1.489 0,0 5.531,4.453 4.392,7.219 -1.139,2.765 -3.416,1.301 -3.416,1.301 0,0 5.937,7.076 3.904,9.965 -2.033,2.889 -8.947,-1.181 -8.947,-1.181 0,0 3.497,4.148 2.115,6.019 -1.383,1.871 -3.904,-1.627 -3.904,-1.627 0,0 4.392,10.004 1.789,11.305 -2.603,1.301 -3.904,-2.033 -3.904,-2.033 0,0 0.143,3.006 -0.099,6.67 0.971,-0.938 1.563,-1.628 1.563,-1.628 0,0 -0.592,0.69 -1.563,1.628 -0.121,1.831 -0.335,3.823 -0.715,5.693 -1.139,5.612 -3.579,13.339 -3.579,13.339 0,0 -5.781,49.411 -4.477,51.485 0.641,1.019 4.152,1.437 7.861,1.552 0.007,-2.908 0.165,-8.341 1.235,-8.609 1.036,-0.259 0.932,5.342 0.782,8.643 2.066,0.008 4.038,-0.063 5.457,-0.16 0.012,-2.936 0.18,-8.219 1.234,-8.482 0.994,-0.249 0.938,4.898 0.8,8.231 2.504,-0.726 5.515,-5.281 5.164,-9.959 -0.366,-4.88 -5.487,-7.564 -5.487,-7.564 0,0 13.613,-50.265 16.016,-71.737 2.403,-21.475 1.671,-41.292 -1.745,-52.368 z"
   id="path66" />
					<path
   style="fill:#dba85e"
   d="m 265.503,440.543 c -1.054,0.264 -1.223,5.546 -1.234,8.482 0.745,-0.051 1.341,-0.109 1.711,-0.168 0.106,-0.017 0.215,-0.052 0.323,-0.083 0.138,-3.333 0.193,-8.48 -0.8,-8.231 z"
   id="path67" />
					<path
   style="fill:#ede8e4"
   d="m 257.703,377.083 c -1.91,1.844 -5.317,4.665 -8.77,5.205 -5.209,0.813 -9.513,-3.335 -9.513,-3.335 0,0 0,0 -0.163,-9.679 -0.163,-9.678 -2.603,-25.211 -2.603,-25.214 -0.592,12.057 -1.622,35.192 -3.09,48.475 -1.789,16.186 -2.928,31.883 -2.928,31.883 0,0 9.46,-9.15 15.08,-15.86 5.62,-6.71 7.694,-12.444 7.694,-12.444 0,0 2.44,-7.727 3.579,-13.339 0.379,-1.869 0.594,-3.861 0.714,-5.692 z"
   id="path68" />
					<path
   style="fill:#dba85e"
   d="m 258.029,440.543 c -1.07,0.268 -1.227,5.701 -1.235,8.609 0.671,0.021 1.348,0.031 2.017,0.034 0.149,-3.301 0.254,-8.902 -0.782,-8.643 z"
   id="path69" />
				</g>
				<g
   id="g71">
					<path
   style="fill:#c40a4d"
   d="m 271.222,276.675 -57.341,0.732 c 0,0 -2.257,1.706 -2.928,3.659 -0.005,0.016 -0.011,0.036 -0.016,0.052 4.198,3.142 13.268,7.497 31.124,7.148 15.856,-0.31 26.071,-3.802 32.281,-7.146 -0.186,-0.764 -0.381,-1.326 -0.557,-1.516 -0.794,-0.855 -2.563,-2.929 -2.563,-2.929 z"
   id="path70" />
					<path
   style="fill:#ff485e"
   d="m 210.937,281.117 c -0.665,1.989 -1.323,7.122 -0.96,8.866 0.366,1.758 10.431,8.895 31.843,8.651 21.411,-0.244 32.209,-5.795 33.063,-7.93 0.664,-1.66 0.111,-6.92 -0.541,-9.586 -6.21,3.344 -16.425,6.836 -32.281,7.146 -17.856,0.35 -26.926,-4.004 -31.124,-7.147 z"
   id="path71" />
				</g>
				<g
   id="g74">
					<path
   style="fill:#ffa440"
   d="m 250.049,281.136 c -1.829,0.044 -1.361,6.102 -1.31,9.892 0.05,3.79 0.269,7.383 2.674,7.624 2.405,0.241 1.775,-5.719 1.675,-9.92 -0.1,-4.202 0.381,-7.679 -3.039,-7.596 z"
   id="path72" />
					<path
   style="fill:#ffa440"
   d="m 259.996,302.021 c -0.371,-4.77 -4.539,-8.335 -9.308,-7.964 -4.77,0.371 -8.335,4.539 -7.964,9.308 0.371,4.77 4.539,8.335 9.308,7.964 4.77,-0.371 8.335,-4.538 7.964,-9.308 z"
   id="path73" />
					<path
   style="fill:#e57428"
   d="m 256.59,302.286 c -0.225,-2.889 -2.749,-5.048 -5.637,-4.823 -2.889,0.225 -5.048,2.749 -4.823,5.637 0.225,2.889 2.749,5.048 5.637,4.823 2.889,-0.224 5.048,-2.748 4.823,-5.637 z"
   id="path74" />
				</g>
				<g
   id="g77">
					<path
   style="fill:#dba85e"
   d="m 189.533,440.361 c -1.25,0.215 -1.709,5.997 -1.859,8.814 1.009,-0.007 1.918,-0.019 2.727,-0.038 0.176,-2.935 0.389,-8.992 -0.868,-8.776 z"
   id="path75" />
					<path
   style="fill:#dba85e"
   d="m 178.338,439.702 c -1.199,0.035 -1.136,5.998 -1.006,9.344 0.831,0.037 1.728,0.07 2.673,0.094 -0.102,-3.346 -0.454,-9.474 -1.667,-9.438 z"
   id="path76" />
					<path
   style="fill:#f7cf7f"
   d="m 197.696,437.677 c -1.262,-1.564 -6.182,-5.49 -14.234,-5.693 -8.052,-0.203 -14.234,4.27 -14.478,6.588 -0.244,2.318 1.586,9.964 2.684,10.086 0.677,0.075 2.779,0.259 5.663,0.389 -0.13,-3.346 -0.193,-9.309 1.006,-9.344 1.213,-0.036 1.565,6.093 1.667,9.439 1.095,0.029 2.253,0.046 3.457,0.046 1.585,0 2.969,-0.003 4.213,-0.011 0.15,-2.817 0.608,-8.599 1.859,-8.814 1.256,-0.216 1.044,5.841 0.868,8.777 5.029,-0.118 6.438,-0.517 6.887,-1.863 0.611,-1.833 1.67,-8.036 0.408,-9.6 z"
   id="path77" />
				</g>
				<g
   id="g89">
					<g
   id="g81">
						<path
   style="fill:#dba85e"
   d="m 265.979,206.034 c 0,0 9.762,-4.999 12.175,-3.5 2.413,1.499 -1.598,3.097 -1.598,3.097 0,0 7.537,1.87 6.855,3.744 -0.682,1.874 -4.969,0.268 -4.969,0.268 0,0 4.137,2.651 7.302,12.025 3.165,9.375 7.281,27.529 5.751,29.581 -1.529,2.052 -3.523,-2.92 -3.523,-2.92 0,0 0.672,11.842 -9.418,12.853 z"
   id="path78" />
						<path
   style="fill:#dba85e"
   d="m 228.684,208.069 c 0,0 -8.947,-6.344 -11.549,-5.206 -2.603,1.139 1.139,3.294 1.139,3.294 0,0 -7.727,0.773 -7.32,2.725 0.407,1.952 4.88,0.976 4.88,0.976 0,0 -4.473,2.032 -8.947,10.858 -4.473,8.826 -11.143,26.205 -9.923,28.455 1.22,2.25 3.904,-2.386 3.904,-2.386 0,0 -2.359,11.624 7.483,14.067 z"
   id="path79" />
						<path
   style="fill:#f7cf7f"
   d="m 253.247,199.285 c 0,0 -0.169,-13.014 -4.314,-14.315 -4.145,-1.301 -0.481,11.712 -0.481,11.712 0,0 -5.941,-7.486 -9.194,-4.394 -3.253,3.092 6.019,8.596 6.019,8.596 0,0 -11.288,-0.868 -19.593,7.673 -8.305,8.54 -8.468,28.139 -11.802,38.104 -3.335,9.965 -10.736,19.888 -9.76,21.27 0.976,1.383 4.555,-1.464 4.555,-1.464 0,0 -3.66,5.775 -2.603,7.32 1.057,1.545 4.392,-1.349 4.392,-1.349 0,0 -0.081,5.131 2.44,6.981 2.521,1.85 12.851,5.657 29.24,5.34 16.389,-0.318 28.914,-5.523 31.11,-7.556 2.196,-2.033 2.765,-5.693 2.765,-5.693 0,0 1.139,3.335 3.904,1.627 2.765,-1.708 -3.091,-7.679 -3.091,-7.679 0,0 3.66,2.636 4.88,0.847 1.22,-1.789 -1.792,-5.856 -4.027,-16.674 -2.236,-10.818 -3.374,-31.431 -4.432,-38.327 -1.057,-6.895 -10.98,-11.694 -20.008,-12.019 z"
   id="path80" />
						<path
   style="fill:#c16240"
   d="m 263.17,195.611 c 0,0 -0.122,-3.118 -2.603,-3.321 -2.481,-0.203 -6.63,19.114 -4.047,19.52 2.583,0.407 3.936,-6.222 5.415,-10.086 0,0 -2.262,12.119 0.503,12.607 2.765,0.488 4.392,-10.574 4.392,-10.574 0,0 -1.627,11.306 1.22,11.875 2.847,0.569 4.148,-11.224 4.148,-11.224 0,0 0.203,12.119 2.033,12.119 1.83,0 2.603,-4.433 3.091,-10.37 0.488,-5.938 0.691,-7.768 -0.732,-8.825 -1.423,-1.057 -2.765,0.325 -2.765,0.325 0,0 -0.569,-2.603 -2.033,-3.009 -1.464,-0.407 -3.091,2.033 -3.091,2.033 0,0 -0.229,-2.806 -2.006,-3.335 -1.776,-0.528 -3.525,2.265 -3.525,2.265 z"
   id="path81" />
					</g>
					<path
   style="fill:#dba85e"
   d="m 230.636,249.17 c 0,0 1.789,16.287 14.64,16.287 12.851,0 15.52,-17.536 15.52,-17.536 z"
   id="path82" />
					<g
   id="g88">
						<path
   style="fill:#ffffff"
   d="m 247.313,223.32 c -2.606,0 -3.42,4.799 -3.42,4.799 0,0 -5.246,0.122 -11.549,3.904 -6.303,3.782 -8.215,4.392 -7.727,7.727 0.488,3.335 4.643,19.114 22.696,19.114 18.053,0 21.469,-16.999 21.143,-18.87 -0.325,-1.871 -0.305,-6.629 -6.751,-8.947 -3.389,-1.219 -11.631,-3.091 -11.631,-3.091 0,0 -0.52,-4.636 -2.761,-4.636 z"
   id="path83" />
						<g
   id="g87">
							<path
   style="fill:#191919"
   d="m 247.228,241.051 c -2.318,0 -6.344,-3.619 -7.076,-6.751 -0.732,-3.131 4.961,-3.253 7.076,-3.253 2.115,0 9.069,0.081 8.052,3.253 -1.016,3.172 -5.774,6.751 -8.052,6.751 z"
   id="path84" />
							<path
   style="fill:#191919"
   d="m 240.64,226.085 c -1.271,1.856 -3.457,-2.887 -7.483,-2.603 -4.026,0.285 -5.693,3.172 -6.344,2.44 -0.651,-0.732 1.789,-5.124 6.913,-5.205 5.125,-0.081 8.419,3.172 6.914,5.368 z"
   id="path85" />
							<path
   style="fill:#191919"
   d="m 258.619,244.955 c -0.908,-0.122 -0.66,4.229 -5.282,4.229 -4.622,0 -5.159,-4.229 -6.108,-4.229 -0.935,0 -1.464,4.229 -6.019,4.229 -4.555,0 -4.311,-4.351 -5.205,-4.229 -0.895,0.122 0.366,5.937 5.124,5.937 4.758,0 6.1,-2.97 6.1,-2.97 0,0 1.362,2.97 6.19,2.97 4.828,0 6.107,-5.815 5.2,-5.937 z"
   id="path86" />
							<path
   style="fill:#191919"
   d="m 253.914,226.085 c 1.29,1.856 3.508,-2.887 7.593,-2.603 4.086,0.285 5.778,3.172 6.438,2.44 0.66,-0.732 -1.816,-5.124 -7.016,-5.205 -5.199,-0.081 -8.542,3.172 -7.015,5.368 z"
   id="path87" />
						</g>
					</g>
				</g>
			</g>
</svg>
